<?xml version="1.0" encoding="utf-8" standalone="no"?>
<!DOCTYPE svg PUBLIC "-//W3C//DTD SVG 1.1//EN"
  "http://www.w3.org/Graphics/SVG/1.1/DTD/svg11.dtd">
<svg xmlns:xlink="http://www.w3.org/1999/xlink" width="360pt" height="360pt" viewBox="0 0 360 360" xmlns="http://www.w3.org/2000/svg" version="1.1">
 <metadata>
  <rdf:RDF xmlns:dc="http://purl.org/dc/elements/1.1/" xmlns:cc="http://creativecommons.org/ns#" xmlns:rdf="http://www.w3.org/1999/02/22-rdf-syntax-ns#">
   <cc:Work>
    <dc:type rdf:resource="http://purl.org/dc/dcmitype/StillImage"/>
    <dc:date>2025-01-31T13:45:57.992262</dc:date>
    <dc:format>image/svg+xml</dc:format>
    <dc:creator>
     <cc:Agent>
      <dc:title>Matplotlib v3.9.1, https://matplotlib.org/</dc:title>
     </cc:Agent>
    </dc:creator>
   </cc:Work>
  </rdf:RDF>
 </metadata>
 <defs>
  <style type="text/css">*{stroke-linejoin: round; stroke-linecap: butt}</style>
 </defs>
 <g id="figure_1">
  <g id="patch_1">
   <path d="M 0 360 
L 360 360 
L 360 0 
L 0 0 
z
" style="fill: #ffffff"/>
  </g>
  <g id="axes_1">
   <g id="patch_2">
    <path d="M 45 320.4 
L 324 320.4 
L 324 43.2 
L 45 43.2 
z
" style="fill: #ffffff"/>
   </g>
   <g id="matplotlib.axis_1">
    <g id="xtick_1">
     <g id="line2d_1">
      <defs>
       <path id="m2d49435223" d="M 0 0 
L 0 3.5 
" style="stroke: #000000; stroke-width: 0.8"/>
      </defs>
      <g>
       <use xlink:href="#m2d49435223" x="57.681818" y="320.4" style="stroke: #000000; stroke-width: 0.8"/>
      </g>
     </g>
     <g id="text_1">
      <!-- 0 -->
      <g transform="translate(54.500568 334.998438) scale(0.1 -0.1)">
       <defs>
        <path id="DejaVuSans-30" d="M 2034 4250 
Q 1547 4250 1301 3770 
Q 1056 3291 1056 2328 
Q 1056 1369 1301 889 
Q 1547 409 2034 409 
Q 2525 409 2770 889 
Q 3016 1369 3016 2328 
Q 3016 3291 2770 3770 
Q 2525 4250 2034 4250 
z
M 2034 4750 
Q 2819 4750 3233 4129 
Q 3647 3509 3647 2328 
Q 3647 1150 3233 529 
Q 2819 -91 2034 -91 
Q 1250 -91 836 529 
Q 422 1150 422 2328 
Q 422 3509 836 4129 
Q 1250 4750 2034 4750 
z
" transform="scale(0.015625)"/>
       </defs>
       <use xlink:href="#DejaVuSans-30"/>
      </g>
     </g>
    </g>
    <g id="xtick_2">
     <g id="line2d_2">
      <g>
       <use xlink:href="#m2d49435223" x="119.544346" y="320.4" style="stroke: #000000; stroke-width: 0.8"/>
      </g>
     </g>
     <g id="text_2">
      <!-- 100 -->
      <g transform="translate(110.000596 334.998438) scale(0.1 -0.1)">
       <defs>
        <path id="DejaVuSans-31" d="M 794 531 
L 1825 531 
L 1825 4091 
L 703 3866 
L 703 4441 
L 1819 4666 
L 2450 4666 
L 2450 531 
L 3481 531 
L 3481 0 
L 794 0 
L 794 531 
z
" transform="scale(0.015625)"/>
       </defs>
       <use xlink:href="#DejaVuSans-31"/>
       <use xlink:href="#DejaVuSans-30" x="63.623047"/>
       <use xlink:href="#DejaVuSans-30" x="127.246094"/>
      </g>
     </g>
    </g>
    <g id="xtick_3">
     <g id="line2d_3">
      <g>
       <use xlink:href="#m2d49435223" x="181.406874" y="320.4" style="stroke: #000000; stroke-width: 0.8"/>
      </g>
     </g>
     <g id="text_3">
      <!-- 200 -->
      <g transform="translate(171.863124 334.998438) scale(0.1 -0.1)">
       <defs>
        <path id="DejaVuSans-32" d="M 1228 531 
L 3431 531 
L 3431 0 
L 469 0 
L 469 531 
Q 828 903 1448 1529 
Q 2069 2156 2228 2338 
Q 2531 2678 2651 2914 
Q 2772 3150 2772 3378 
Q 2772 3750 2511 3984 
Q 2250 4219 1831 4219 
Q 1534 4219 1204 4116 
Q 875 4013 500 3803 
L 500 4441 
Q 881 4594 1212 4672 
Q 1544 4750 1819 4750 
Q 2544 4750 2975 4387 
Q 3406 4025 3406 3419 
Q 3406 3131 3298 2873 
Q 3191 2616 2906 2266 
Q 2828 2175 2409 1742 
Q 1991 1309 1228 531 
z
" transform="scale(0.015625)"/>
       </defs>
       <use xlink:href="#DejaVuSans-32"/>
       <use xlink:href="#DejaVuSans-30" x="63.623047"/>
       <use xlink:href="#DejaVuSans-30" x="127.246094"/>
      </g>
     </g>
    </g>
    <g id="xtick_4">
     <g id="line2d_4">
      <g>
       <use xlink:href="#m2d49435223" x="243.269401" y="320.4" style="stroke: #000000; stroke-width: 0.8"/>
      </g>
     </g>
     <g id="text_4">
      <!-- 300 -->
      <g transform="translate(233.725651 334.998438) scale(0.1 -0.1)">
       <defs>
        <path id="DejaVuSans-33" d="M 2597 2516 
Q 3050 2419 3304 2112 
Q 3559 1806 3559 1356 
Q 3559 666 3084 287 
Q 2609 -91 1734 -91 
Q 1441 -91 1130 -33 
Q 819 25 488 141 
L 488 750 
Q 750 597 1062 519 
Q 1375 441 1716 441 
Q 2309 441 2620 675 
Q 2931 909 2931 1356 
Q 2931 1769 2642 2001 
Q 2353 2234 1838 2234 
L 1294 2234 
L 1294 2753 
L 1863 2753 
Q 2328 2753 2575 2939 
Q 2822 3125 2822 3475 
Q 2822 3834 2567 4026 
Q 2313 4219 1838 4219 
Q 1578 4219 1281 4162 
Q 984 4106 628 3988 
L 628 4550 
Q 988 4650 1302 4700 
Q 1616 4750 1894 4750 
Q 2613 4750 3031 4423 
Q 3450 4097 3450 3541 
Q 3450 3153 3228 2886 
Q 3006 2619 2597 2516 
z
" transform="scale(0.015625)"/>
       </defs>
       <use xlink:href="#DejaVuSans-33"/>
       <use xlink:href="#DejaVuSans-30" x="63.623047"/>
       <use xlink:href="#DejaVuSans-30" x="127.246094"/>
      </g>
     </g>
    </g>
    <g id="xtick_5">
     <g id="line2d_5">
      <g>
       <use xlink:href="#m2d49435223" x="305.131929" y="320.4" style="stroke: #000000; stroke-width: 0.8"/>
      </g>
     </g>
     <g id="text_5">
      <!-- 400 -->
      <g transform="translate(295.588179 334.998438) scale(0.1 -0.1)">
       <defs>
        <path id="DejaVuSans-34" d="M 2419 4116 
L 825 1625 
L 2419 1625 
L 2419 4116 
z
M 2253 4666 
L 3047 4666 
L 3047 1625 
L 3713 1625 
L 3713 1100 
L 3047 1100 
L 3047 0 
L 2419 0 
L 2419 1100 
L 313 1100 
L 313 1709 
L 2253 4666 
z
" transform="scale(0.015625)"/>
       </defs>
       <use xlink:href="#DejaVuSans-34"/>
       <use xlink:href="#DejaVuSans-30" x="63.623047"/>
       <use xlink:href="#DejaVuSans-30" x="127.246094"/>
      </g>
     </g>
    </g>
    <g id="text_6">
     <!-- Optimization step -->
     <g transform="translate(131.233125 350.19625) scale(0.12 -0.12)">
      <defs>
       <path id="DejaVuSans-4f" d="M 2522 4238 
Q 1834 4238 1429 3725 
Q 1025 3213 1025 2328 
Q 1025 1447 1429 934 
Q 1834 422 2522 422 
Q 3209 422 3611 934 
Q 4013 1447 4013 2328 
Q 4013 3213 3611 3725 
Q 3209 4238 2522 4238 
z
M 2522 4750 
Q 3503 4750 4090 4092 
Q 4678 3434 4678 2328 
Q 4678 1225 4090 567 
Q 3503 -91 2522 -91 
Q 1538 -91 948 565 
Q 359 1222 359 2328 
Q 359 3434 948 4092 
Q 1538 4750 2522 4750 
z
" transform="scale(0.015625)"/>
       <path id="DejaVuSans-70" d="M 1159 525 
L 1159 -1331 
L 581 -1331 
L 581 3500 
L 1159 3500 
L 1159 2969 
Q 1341 3281 1617 3432 
Q 1894 3584 2278 3584 
Q 2916 3584 3314 3078 
Q 3713 2572 3713 1747 
Q 3713 922 3314 415 
Q 2916 -91 2278 -91 
Q 1894 -91 1617 61 
Q 1341 213 1159 525 
z
M 3116 1747 
Q 3116 2381 2855 2742 
Q 2594 3103 2138 3103 
Q 1681 3103 1420 2742 
Q 1159 2381 1159 1747 
Q 1159 1113 1420 752 
Q 1681 391 2138 391 
Q 2594 391 2855 752 
Q 3116 1113 3116 1747 
z
" transform="scale(0.015625)"/>
       <path id="DejaVuSans-74" d="M 1172 4494 
L 1172 3500 
L 2356 3500 
L 2356 3053 
L 1172 3053 
L 1172 1153 
Q 1172 725 1289 603 
Q 1406 481 1766 481 
L 2356 481 
L 2356 0 
L 1766 0 
Q 1100 0 847 248 
Q 594 497 594 1153 
L 594 3053 
L 172 3053 
L 172 3500 
L 594 3500 
L 594 4494 
L 1172 4494 
z
" transform="scale(0.015625)"/>
       <path id="DejaVuSans-69" d="M 603 3500 
L 1178 3500 
L 1178 0 
L 603 0 
L 603 3500 
z
M 603 4863 
L 1178 4863 
L 1178 4134 
L 603 4134 
L 603 4863 
z
" transform="scale(0.015625)"/>
       <path id="DejaVuSans-6d" d="M 3328 2828 
Q 3544 3216 3844 3400 
Q 4144 3584 4550 3584 
Q 5097 3584 5394 3201 
Q 5691 2819 5691 2113 
L 5691 0 
L 5113 0 
L 5113 2094 
Q 5113 2597 4934 2840 
Q 4756 3084 4391 3084 
Q 3944 3084 3684 2787 
Q 3425 2491 3425 1978 
L 3425 0 
L 2847 0 
L 2847 2094 
Q 2847 2600 2669 2842 
Q 2491 3084 2119 3084 
Q 1678 3084 1418 2786 
Q 1159 2488 1159 1978 
L 1159 0 
L 581 0 
L 581 3500 
L 1159 3500 
L 1159 2956 
Q 1356 3278 1631 3431 
Q 1906 3584 2284 3584 
Q 2666 3584 2933 3390 
Q 3200 3197 3328 2828 
z
" transform="scale(0.015625)"/>
       <path id="DejaVuSans-7a" d="M 353 3500 
L 3084 3500 
L 3084 2975 
L 922 459 
L 3084 459 
L 3084 0 
L 275 0 
L 275 525 
L 2438 3041 
L 353 3041 
L 353 3500 
z
" transform="scale(0.015625)"/>
       <path id="DejaVuSans-61" d="M 2194 1759 
Q 1497 1759 1228 1600 
Q 959 1441 959 1056 
Q 959 750 1161 570 
Q 1363 391 1709 391 
Q 2188 391 2477 730 
Q 2766 1069 2766 1631 
L 2766 1759 
L 2194 1759 
z
M 3341 1997 
L 3341 0 
L 2766 0 
L 2766 531 
Q 2569 213 2275 61 
Q 1981 -91 1556 -91 
Q 1019 -91 701 211 
Q 384 513 384 1019 
Q 384 1609 779 1909 
Q 1175 2209 1959 2209 
L 2766 2209 
L 2766 2266 
Q 2766 2663 2505 2880 
Q 2244 3097 1772 3097 
Q 1472 3097 1187 3025 
Q 903 2953 641 2809 
L 641 3341 
Q 956 3463 1253 3523 
Q 1550 3584 1831 3584 
Q 2591 3584 2966 3190 
Q 3341 2797 3341 1997 
z
" transform="scale(0.015625)"/>
       <path id="DejaVuSans-6f" d="M 1959 3097 
Q 1497 3097 1228 2736 
Q 959 2375 959 1747 
Q 959 1119 1226 758 
Q 1494 397 1959 397 
Q 2419 397 2687 759 
Q 2956 1122 2956 1747 
Q 2956 2369 2687 2733 
Q 2419 3097 1959 3097 
z
M 1959 3584 
Q 2709 3584 3137 3096 
Q 3566 2609 3566 1747 
Q 3566 888 3137 398 
Q 2709 -91 1959 -91 
Q 1206 -91 779 398 
Q 353 888 353 1747 
Q 353 2609 779 3096 
Q 1206 3584 1959 3584 
z
" transform="scale(0.015625)"/>
       <path id="DejaVuSans-6e" d="M 3513 2113 
L 3513 0 
L 2938 0 
L 2938 2094 
Q 2938 2591 2744 2837 
Q 2550 3084 2163 3084 
Q 1697 3084 1428 2787 
Q 1159 2491 1159 1978 
L 1159 0 
L 581 0 
L 581 3500 
L 1159 3500 
L 1159 2956 
Q 1366 3272 1645 3428 
Q 1925 3584 2291 3584 
Q 2894 3584 3203 3211 
Q 3513 2838 3513 2113 
z
" transform="scale(0.015625)"/>
       <path id="DejaVuSans-20" transform="scale(0.015625)"/>
       <path id="DejaVuSans-73" d="M 2834 3397 
L 2834 2853 
Q 2591 2978 2328 3040 
Q 2066 3103 1784 3103 
Q 1356 3103 1142 2972 
Q 928 2841 928 2578 
Q 928 2378 1081 2264 
Q 1234 2150 1697 2047 
L 1894 2003 
Q 2506 1872 2764 1633 
Q 3022 1394 3022 966 
Q 3022 478 2636 193 
Q 2250 -91 1575 -91 
Q 1294 -91 989 -36 
Q 684 19 347 128 
L 347 722 
Q 666 556 975 473 
Q 1284 391 1588 391 
Q 1994 391 2212 530 
Q 2431 669 2431 922 
Q 2431 1156 2273 1281 
Q 2116 1406 1581 1522 
L 1381 1569 
Q 847 1681 609 1914 
Q 372 2147 372 2553 
Q 372 3047 722 3315 
Q 1072 3584 1716 3584 
Q 2034 3584 2315 3537 
Q 2597 3491 2834 3397 
z
" transform="scale(0.015625)"/>
       <path id="DejaVuSans-65" d="M 3597 1894 
L 3597 1613 
L 953 1613 
Q 991 1019 1311 708 
Q 1631 397 2203 397 
Q 2534 397 2845 478 
Q 3156 559 3463 722 
L 3463 178 
Q 3153 47 2828 -22 
Q 2503 -91 2169 -91 
Q 1331 -91 842 396 
Q 353 884 353 1716 
Q 353 2575 817 3079 
Q 1281 3584 2069 3584 
Q 2775 3584 3186 3129 
Q 3597 2675 3597 1894 
z
M 3022 2063 
Q 3016 2534 2758 2815 
Q 2500 3097 2075 3097 
Q 1594 3097 1305 2825 
Q 1016 2553 972 2059 
L 3022 2063 
z
" transform="scale(0.015625)"/>
      </defs>
      <use xlink:href="#DejaVuSans-4f"/>
      <use xlink:href="#DejaVuSans-70" x="78.710938"/>
      <use xlink:href="#DejaVuSans-74" x="142.1875"/>
      <use xlink:href="#DejaVuSans-69" x="181.396484"/>
      <use xlink:href="#DejaVuSans-6d" x="209.179688"/>
      <use xlink:href="#DejaVuSans-69" x="306.591797"/>
      <use xlink:href="#DejaVuSans-7a" x="334.375"/>
      <use xlink:href="#DejaVuSans-61" x="386.865234"/>
      <use xlink:href="#DejaVuSans-74" x="448.144531"/>
      <use xlink:href="#DejaVuSans-69" x="487.353516"/>
      <use xlink:href="#DejaVuSans-6f" x="515.136719"/>
      <use xlink:href="#DejaVuSans-6e" x="576.318359"/>
      <use xlink:href="#DejaVuSans-20" x="639.697266"/>
      <use xlink:href="#DejaVuSans-73" x="671.484375"/>
      <use xlink:href="#DejaVuSans-74" x="723.583984"/>
      <use xlink:href="#DejaVuSans-65" x="762.792969"/>
      <use xlink:href="#DejaVuSans-70" x="824.316406"/>
     </g>
    </g>
   </g>
   <g id="matplotlib.axis_2">
    <g id="ytick_1">
     <g id="line2d_6">
      <defs>
       <path id="ma4cb3081eb" d="M 0 0 
L -3.5 0 
" style="stroke: #000000; stroke-width: 0.8"/>
      </defs>
      <g>
       <use xlink:href="#ma4cb3081eb" x="45" y="312.983696" style="stroke: #000000; stroke-width: 0.8"/>
      </g>
     </g>
     <g id="text_7">
      <!-- $\mathdefault{10^{2}}$ -->
      <g transform="translate(20.4 316.782915) scale(0.1 -0.1)">
       <use xlink:href="#DejaVuSans-31" transform="translate(0 0.765625)"/>
       <use xlink:href="#DejaVuSans-30" transform="translate(63.623047 0.765625)"/>
       <use xlink:href="#DejaVuSans-32" transform="translate(128.203125 39.046875) scale(0.7)"/>
      </g>
     </g>
    </g>
    <g id="ytick_2">
     <g id="line2d_7">
      <g>
       <use xlink:href="#ma4cb3081eb" x="45" y="141.182825" style="stroke: #000000; stroke-width: 0.8"/>
      </g>
     </g>
     <g id="text_8">
      <!-- $\mathdefault{10^{3}}$ -->
      <g transform="translate(20.4 144.982044) scale(0.1 -0.1)">
       <use xlink:href="#DejaVuSans-31" transform="translate(0 0.765625)"/>
       <use xlink:href="#DejaVuSans-30" transform="translate(63.623047 0.765625)"/>
       <use xlink:href="#DejaVuSans-33" transform="translate(128.203125 39.046875) scale(0.7)"/>
      </g>
     </g>
    </g>
    <g id="ytick_3">
     <g id="line2d_8">
      <defs>
       <path id="ma7edee1153" d="M 0 0 
L -2 0 
" style="stroke: #000000; stroke-width: 0.6"/>
      </defs>
      <g>
       <use xlink:href="#ma7edee1153" x="45" y="261.26648" style="stroke: #000000; stroke-width: 0.6"/>
      </g>
     </g>
    </g>
    <g id="ytick_4">
     <g id="line2d_9">
      <g>
       <use xlink:href="#ma7edee1153" x="45" y="231.013849" style="stroke: #000000; stroke-width: 0.6"/>
      </g>
     </g>
    </g>
    <g id="ytick_5">
     <g id="line2d_10">
      <g>
       <use xlink:href="#ma7edee1153" x="45" y="209.549265" style="stroke: #000000; stroke-width: 0.6"/>
      </g>
     </g>
    </g>
    <g id="ytick_6">
     <g id="line2d_11">
      <g>
       <use xlink:href="#ma7edee1153" x="45" y="192.90004" style="stroke: #000000; stroke-width: 0.6"/>
      </g>
     </g>
    </g>
    <g id="ytick_7">
     <g id="line2d_12">
      <g>
       <use xlink:href="#ma7edee1153" x="45" y="179.296633" style="stroke: #000000; stroke-width: 0.6"/>
      </g>
     </g>
    </g>
    <g id="ytick_8">
     <g id="line2d_13">
      <g>
       <use xlink:href="#ma7edee1153" x="45" y="167.795116" style="stroke: #000000; stroke-width: 0.6"/>
      </g>
     </g>
    </g>
    <g id="ytick_9">
     <g id="line2d_14">
      <g>
       <use xlink:href="#ma7edee1153" x="45" y="157.832049" style="stroke: #000000; stroke-width: 0.6"/>
      </g>
     </g>
    </g>
    <g id="ytick_10">
     <g id="line2d_15">
      <g>
       <use xlink:href="#ma7edee1153" x="45" y="149.044002" style="stroke: #000000; stroke-width: 0.6"/>
      </g>
     </g>
    </g>
    <g id="ytick_11">
     <g id="line2d_16">
      <g>
       <use xlink:href="#ma7edee1153" x="45" y="89.465609" style="stroke: #000000; stroke-width: 0.6"/>
      </g>
     </g>
    </g>
    <g id="ytick_12">
     <g id="line2d_17">
      <g>
       <use xlink:href="#ma7edee1153" x="45" y="59.212978" style="stroke: #000000; stroke-width: 0.6"/>
      </g>
     </g>
    </g>
    <g id="text_9">
     <!-- Cost -->
     <g transform="translate(13.904375 195.13875) rotate(-90) scale(0.12 -0.12)">
      <defs>
       <path id="DejaVuSans-43" d="M 4122 4306 
L 4122 3641 
Q 3803 3938 3442 4084 
Q 3081 4231 2675 4231 
Q 1875 4231 1450 3742 
Q 1025 3253 1025 2328 
Q 1025 1406 1450 917 
Q 1875 428 2675 428 
Q 3081 428 3442 575 
Q 3803 722 4122 1019 
L 4122 359 
Q 3791 134 3420 21 
Q 3050 -91 2638 -91 
Q 1578 -91 968 557 
Q 359 1206 359 2328 
Q 359 3453 968 4101 
Q 1578 4750 2638 4750 
Q 3056 4750 3426 4639 
Q 3797 4528 4122 4306 
z
" transform="scale(0.015625)"/>
      </defs>
      <use xlink:href="#DejaVuSans-43"/>
      <use xlink:href="#DejaVuSans-6f" x="69.824219"/>
      <use xlink:href="#DejaVuSans-73" x="131.005859"/>
      <use xlink:href="#DejaVuSans-74" x="183.105469"/>
     </g>
    </g>
   </g>
   <g id="line2d_18">
    <path d="M 57.681818 117.308871 
L 58.300443 108.005949 
L 58.919069 121.484421 
L 59.537694 117.348125 
L 60.156319 116.88148 
L 60.774945 117.308665 
L 61.39357 119.844892 
L 62.012195 120.057998 
L 62.63082 116.342039 
L 63.249446 117.312468 
L 63.868071 117.194868 
L 64.486696 117.300008 
L 65.105322 189.018229 
L 65.723947 186.466063 
L 66.342572 188.577912 
L 66.961197 189.251787 
L 67.579823 188.716646 
L 68.198448 189.018284 
L 68.817073 193.167794 
L 69.435698 188.866296 
L 70.054324 188.848164 
L 70.672949 189.030794 
L 71.291574 189.357459 
L 71.9102 189.14125 
L 72.528825 222.123011 
L 73.14745 226.875099 
L 73.766075 218.288487 
L 74.384701 223.310411 
L 75.003326 222.35906 
L 75.621951 222.121648 
L 76.240576 228.876027 
L 76.859202 222.021399 
L 77.477827 220.70676 
L 78.096452 222.052443 
L 78.715078 221.978894 
L 79.333703 222.172215 
L 79.952328 271.384368 
L 80.570953 273.173755 
L 81.808204 261.454421 
L 82.426829 269.875983 
L 83.045455 271.384644 
L 83.66408 255.724958 
L 84.282705 271.380086 
L 84.90133 275.869776 
L 85.519956 271.408977 
L 86.138581 269.913486 
L 86.757206 271.167137 
L 87.375831 303.506333 
L 87.994457 306.170336 
L 88.613082 299.636199 
L 89.231707 300.917979 
L 89.850333 304.86076 
L 90.468958 303.506179 
L 91.087583 286.667122 
L 91.706208 303.588465 
L 92.324834 301.617254 
L 92.943459 303.502351 
L 93.562084 302.92301 
L 94.18071 303.029553 
L 94.799335 307.534996 
L 95.41796 303.028467 
L 96.036585 306.497284 
L 96.655211 305.810909 
L 97.273836 306.175034 
L 97.892461 307.534614 
L 98.511086 286.758974 
L 99.129712 307.311629 
L 99.748337 305.237012 
L 100.366962 307.535401 
L 101.604213 307.361656 
L 102.222838 307.625045 
L 102.841463 302.789123 
L 103.460089 306.738613 
L 104.078714 305.773597 
L 104.697339 306.16505 
L 105.315965 307.625027 
L 105.93459 286.580514 
L 106.553215 307.501035 
L 107.17184 305.801624 
L 107.790466 307.624508 
L 108.409091 307.241281 
L 109.027716 307.34443 
L 109.646341 307.632506 
L 110.264967 302.906222 
L 110.883592 306.706831 
L 111.502217 305.785217 
L 112.120843 306.228322 
L 112.739468 307.63244 
L 113.358093 286.603559 
L 113.976718 307.508973 
L 114.595344 305.731756 
L 115.213969 307.63226 
L 115.832594 307.251581 
L 116.45122 307.35111 
L 117.069845 307.634729 
L 117.68847 302.880699 
L 118.307095 306.725203 
L 118.925721 305.813976 
L 119.544346 306.23156 
L 120.162971 307.634729 
L 120.781596 286.647099 
L 121.400222 307.506693 
L 122.018847 305.641363 
L 122.637472 307.634312 
L 123.256098 307.269815 
L 123.874723 307.366606 
L 124.493348 307.633423 
L 125.730599 307.634858 
L 126.349224 302.86498 
L 126.967849 306.728682 
L 127.586475 305.812621 
L 128.2051 306.223108 
L 128.823725 307.634829 
L 129.44235 286.626426 
L 130.060976 307.513421 
L 130.679601 305.653527 
L 131.298226 307.634065 
L 131.916851 307.266102 
L 132.535477 307.365418 
L 133.154102 307.634532 
L 133.772727 307.635142 
L 134.391353 302.869259 
L 135.009978 306.727323 
L 135.628603 305.812363 
L 136.247228 306.225514 
L 136.865854 307.635114 
L 137.484479 286.632682 
L 138.103104 307.513757 
L 138.721729 305.648848 
L 139.340355 307.63436 
L 139.95898 307.266194 
L 140.577605 307.365935 
L 141.196231 307.635037 
L 142.433481 307.635176 
L 143.052106 302.868177 
L 143.670732 306.727807 
L 144.289357 305.81243 
L 144.907982 306.224689 
L 145.526608 307.635148 
L 146.145233 286.632997 
L 146.763858 307.51411 
L 147.382483 305.64932 
L 148.001109 307.634392 
L 148.619734 307.266852 
L 149.238359 307.367001 
L 149.856984 307.635054 
L 154.187361 307.635174 
L 154.187361 307.635174 
" clip-path="url(#pa04c82b9c2)" style="fill: none; stroke: #1f77b4; stroke-opacity: 0.8; stroke-width: 1.5; stroke-linecap: square"/>
   </g>
   <g id="line2d_19">
    <path d="M 57.681818 130.472145 
L 64.486696 130.472123 
L 65.105322 93.130831 
L 65.723947 131.352881 
L 66.342572 131.483951 
L 66.961197 131.160618 
L 67.579823 131.360735 
L 72.528825 131.352686 
L 73.14745 55.8 
L 73.766075 141.523809 
L 74.384701 143.281643 
L 75.003326 139.986938 
L 75.621951 141.648075 
L 76.240576 141.530356 
L 80.570953 141.517462 
L 81.189579 155.563581 
L 81.808204 156.835042 
L 82.426829 154.060657 
L 83.045455 154.266309 
L 83.66408 155.565441 
L 84.282705 155.443628 
L 84.90133 159.23824 
L 85.519956 155.623712 
L 86.138581 154.777254 
L 86.757206 155.563587 
L 87.375831 155.596607 
L 87.994457 155.30334 
L 88.613082 239.042721 
L 89.231707 249.16969 
L 89.850333 231.442506 
L 90.468958 240.885651 
L 91.087583 239.113399 
L 91.706208 239.039277 
L 92.324834 226.811707 
L 92.943459 239.161625 
L 93.562084 237.572849 
L 94.18071 239.042642 
L 94.799335 239.23391 
L 95.41796 239.092876 
L 96.036585 181.181682 
L 96.655211 278.555427 
L 97.273836 284.400161 
L 97.892461 271.261909 
L 98.511086 275.941142 
L 99.129712 278.107068 
L 99.748337 278.545614 
L 100.366962 260.777734 
L 100.985588 278.67025 
L 101.604213 278.048451 
L 102.222838 278.555343 
L 103.460089 279.091993 
L 104.078714 275.293669 
L 104.697339 293.690219 
L 105.315965 293.662697 
L 105.93459 288.65845 
L 106.553215 291.822358 
L 107.17184 292.360026 
L 107.790466 293.67855 
L 108.409091 275.689579 
L 109.027716 293.846918 
L 109.646341 292.73157 
L 110.264967 293.69007 
L 111.502217 294.429984 
L 112.120843 304.187617 
L 112.739468 305.337026 
L 113.358093 299.7999 
L 113.976718 302.22044 
L 114.595344 306.030078 
L 115.213969 304.19035 
L 115.832594 281.72791 
L 116.45122 304.543527 
L 117.069845 300.450135 
L 117.68847 304.187449 
L 118.307095 302.940661 
L 118.925721 303.643318 
L 119.544346 307.479222 
L 120.162971 302.227085 
L 120.781596 306.194358 
L 121.400222 305.656507 
L 122.018847 305.902696 
L 122.637472 307.478084 
L 123.256098 286.716522 
L 123.874723 307.328593 
L 124.493348 305.69907 
L 125.111973 307.478743 
L 125.730599 307.018889 
L 126.967849 307.518783 
L 127.586475 302.384138 
L 128.2051 306.338792 
L 128.823725 305.65684 
L 129.44235 306.163676 
L 130.060976 307.518738 
L 130.679601 286.227719 
L 131.298226 307.410624 
L 131.916851 305.47665 
L 132.535477 307.518233 
L 133.154102 307.134819 
L 133.772727 307.261491 
L 134.391353 307.524937 
L 135.009978 302.428871 
L 135.628603 306.360888 
L 136.247228 305.641981 
L 136.865854 306.161064 
L 137.484479 307.525162 
L 138.103104 286.282758 
L 138.721729 307.406563 
L 139.340355 305.530771 
L 139.95898 307.524759 
L 140.577605 307.152019 
L 141.196231 307.258417 
L 141.814856 307.529267 
L 142.433481 302.485339 
L 143.052106 306.374822 
L 143.670732 305.650723 
L 144.289357 306.172033 
L 144.907982 307.529251 
L 145.526608 286.307535 
L 146.145233 307.407797 
L 146.763858 305.532398 
L 147.382483 307.529093 
L 148.001109 307.158649 
L 148.619734 307.259269 
L 149.238359 307.535312 
L 149.856984 302.553933 
L 150.47561 306.392042 
L 151.094235 305.650009 
L 151.71286 306.186214 
L 152.331486 307.535222 
L 152.950111 286.331661 
L 153.568736 307.414196 
L 154.187361 305.538113 
L 154.805987 307.534902 
L 155.424612 307.164047 
L 156.043237 307.263405 
L 156.661863 307.543776 
L 157.280488 302.599358 
L 157.899113 306.418431 
L 158.517738 305.656002 
L 159.136364 306.187605 
L 159.754989 307.544183 
L 160.373614 286.364295 
L 160.992239 307.423086 
L 161.610865 305.544431 
L 162.22949 307.543449 
L 162.848115 307.173658 
L 163.466741 307.271897 
L 164.085366 307.546465 
L 164.703991 302.717898 
L 165.322616 306.422479 
L 165.941242 305.665295 
L 166.559867 306.223151 
L 167.178492 307.546779 
L 167.797118 286.247621 
L 168.415743 307.431056 
L 169.034368 305.549888 
L 169.652993 307.54628 
L 170.271619 307.182582 
L 170.890244 307.274899 
L 171.508869 307.567719 
L 172.127494 302.713482 
L 172.74612 306.503865 
L 173.364745 305.696975 
L 173.98337 306.209794 
L 174.601996 307.567625 
L 175.220621 286.446041 
L 175.839246 307.445758 
L 176.457871 305.565673 
L 177.076497 307.567189 
L 177.695122 307.19431 
L 178.313747 307.293432 
L 178.932373 307.581559 
L 179.550998 302.819765 
L 180.169623 306.526526 
L 180.788248 305.709304 
L 181.406874 306.241866 
L 182.025499 307.58122 
L 182.644124 286.471052 
L 183.262749 307.462766 
L 183.881375 305.579833 
L 184.5 307.580886 
L 185.118625 307.205736 
L 185.737251 307.302094 
L 186.355876 307.594674 
L 186.974501 302.816546 
L 187.593126 306.584873 
L 188.211752 305.735793 
L 188.830377 306.229391 
L 189.449002 307.594882 
L 190.067627 286.517109 
L 190.686253 307.471577 
L 191.304878 305.597385 
L 191.923503 307.594501 
L 192.542129 307.220393 
L 193.160754 307.31829 
L 193.779379 307.610098 
L 194.398004 302.875448 
L 195.01663 306.623634 
L 195.635255 305.750737 
L 196.25388 306.243004 
L 196.872506 307.610228 
L 197.491131 286.581766 
L 198.109756 307.49618 
L 198.728381 305.629691 
L 199.347007 307.60939 
L 199.965632 307.228097 
L 200.584257 307.327873 
L 201.202882 306.871903 
L 201.821508 307.61928 
L 202.440133 302.891391 
L 203.058758 306.656695 
L 203.677384 305.775282 
L 204.296009 306.243697 
L 204.914634 307.619271 
L 205.533259 286.586971 
L 206.151885 307.496477 
L 206.77051 305.619036 
L 207.389135 307.61896 
L 208.007761 307.247181 
L 208.626386 307.345451 
L 209.245011 307.626229 
L 209.863636 302.887071 
L 210.482262 306.686096 
L 211.100887 305.78907 
L 211.719512 306.236571 
L 212.338137 307.626346 
L 212.956763 286.598798 
L 213.575388 307.506966 
L 214.194013 305.636721 
L 214.812639 307.625925 
L 215.431264 307.254956 
L 216.049889 307.353322 
L 216.668514 307.631789 
L 217.28714 302.891506 
L 217.905765 306.705096 
L 218.52439 305.799607 
L 219.143016 306.229071 
L 219.761641 307.631603 
L 220.380266 286.613384 
L 220.998891 307.507953 
L 221.617517 305.641734 
L 222.236142 307.63133 
L 222.854767 307.263264 
L 223.473392 307.360196 
L 224.092018 307.631147 
L 224.710643 307.633898 
L 225.329268 302.877129 
L 225.947894 306.719637 
L 226.566519 305.808894 
L 227.185144 306.224861 
L 227.803769 307.633864 
L 228.422395 286.622264 
L 229.04102 307.513147 
L 229.659645 305.646855 
L 230.278271 307.633257 
L 230.896896 307.264793 
L 231.515521 307.365131 
L 232.134146 307.63454 
L 232.752772 302.871055 
L 233.371397 306.723416 
L 233.990022 305.809258 
L 234.608647 306.221882 
L 235.227273 307.634566 
L 235.845898 286.630252 
L 236.464523 307.513454 
L 237.083149 305.648632 
L 237.701774 307.634311 
L 238.320399 307.266418 
L 238.939024 307.366662 
L 239.55765 307.634684 
L 240.176275 302.876328 
L 240.7949 306.724416 
L 241.413525 305.812138 
L 242.032151 306.212308 
L 242.650776 307.635024 
L 243.269401 286.61953 
L 243.888027 307.513727 
L 244.506652 305.651277 
L 245.125277 307.634358 
L 245.743902 307.269639 
L 246.362528 307.366928 
L 246.981153 307.174943 
L 247.599778 307.638625 
L 248.218404 302.902674 
L 248.837029 306.736407 
L 249.455654 305.814237 
L 250.074279 306.221145 
L 250.692905 307.646465 
L 251.31153 286.616636 
L 251.930155 307.517892 
L 252.54878 305.65484 
L 253.167406 307.638154 
L 253.786031 307.271063 
L 254.404656 307.36969 
L 255.023282 307.687524 
L 255.641907 303.204354 
L 256.260532 306.773918 
L 256.879157 305.845696 
L 257.497783 306.10485 
L 258.116408 307.487781 
L 258.735033 286.497916 
L 259.353659 307.555968 
L 259.972284 305.763086 
L 260.590909 307.687186 
L 261.209534 307.365955 
L 261.82816 307.42198 
L 262.446785 307.785982 
L 263.06541 303.899973 
L 263.684035 306.939607 
L 264.302661 305.895565 
L 264.921286 306.36761 
L 265.539911 307.40699 
L 266.158537 286.307473 
L 266.777162 307.669838 
L 267.395787 305.785954 
L 268.014412 307.785626 
L 268.633038 307.374311 
L 269.251663 307.489245 
L 269.870288 307.797171 
L 270.488914 303.824419 
L 271.107539 307.039151 
L 271.726164 305.922468 
L 272.344789 306.250642 
L 272.963415 307.361432 
L 273.58204 286.40021 
L 274.200665 307.678519 
L 274.81929 305.864504 
L 275.437916 307.79689 
L 276.056541 307.420788 
L 276.675166 307.529346 
L 277.293792 307.799026 
L 277.912417 303.847802 
L 278.531042 307.038173 
L 279.149667 305.925474 
L 279.768293 306.252145 
L 280.386918 307.345993 
L 281.005543 286.396591 
L 281.624169 307.676522 
L 282.242794 305.853583 
L 282.861419 307.798853 
L 283.480044 307.426001 
L 284.09867 307.535152 
L 284.717295 307.799273 
L 285.33592 303.850642 
L 285.954545 307.038671 
L 286.573171 305.926331 
L 287.191796 306.247378 
L 287.810421 307.34046 
L 288.429047 286.393588 
L 289.047672 307.679507 
L 289.666297 305.861293 
L 290.284922 307.798558 
L 290.903548 307.424833 
L 291.522173 307.535221 
L 292.140798 307.799959 
L 292.759424 303.856108 
L 293.378049 307.039306 
L 293.996674 305.926722 
L 294.615299 306.25093 
L 295.233925 307.340797 
L 295.85255 286.393543 
L 296.471175 307.679208 
L 297.0898 305.855146 
L 297.708426 307.799466 
L 298.327051 307.428318 
L 298.945676 307.537379 
L 299.564302 307.799556 
L 302.038803 307.8 
L 302.657428 303.855956 
L 303.276053 307.039291 
L 303.894678 305.926862 
L 304.513304 306.250921 
L 305.131929 307.340826 
L 305.750554 286.393647 
L 306.36918 307.679126 
L 306.987805 305.855238 
L 307.60643 307.799516 
L 308.225055 307.428341 
L 308.843681 307.537423 
L 309.462306 307.79995 
L 311.318182 307.8 
L 311.318182 307.8 
" clip-path="url(#pa04c82b9c2)" style="fill: none; stroke: #ff7f0e; stroke-opacity: 0.8; stroke-width: 1.5; stroke-linecap: square"/>
   </g>
   <g id="line2d_20">
    <path d="M 57.681818 138.848635 
L 58.300443 140.106913 
L 58.919069 137.828153 
L 60.156319 138.79304 
L 60.774945 138.848419 
L 61.39357 138.649383 
L 62.012195 138.841077 
L 64.486696 138.845992 
L 65.105322 181.195081 
L 65.723947 176.742813 
L 66.342572 183.129723 
L 66.961197 182.529557 
L 67.579823 178.376556 
L 68.198448 181.195081 
L 68.817073 197.443834 
L 69.435698 181.19871 
L 70.054324 183.098292 
L 70.672949 181.267204 
L 71.9102 181.217889 
L 72.528825 248.844669 
L 73.14745 252.047065 
L 73.766075 245.856808 
L 74.384701 245.718922 
L 75.003326 247.925642 
L 75.621951 248.845051 
L 76.240576 254.655941 
L 76.859202 246.718887 
L 77.477827 251.530565 
L 78.096452 248.859367 
L 78.715078 248.800814 
L 79.333703 249.624397 
L 79.952328 299.048434 
L 80.570953 296.56993 
L 81.189579 297.68773 
L 81.808204 296.606072 
L 82.426829 298.067621 
L 83.045455 299.048037 
L 83.66408 277.97569 
L 84.282705 298.691383 
L 85.519956 299.047506 
L 86.757206 299.793207 
L 87.375831 307.173394 
L 87.994457 303.980787 
L 88.613082 305.708238 
L 89.231707 305.132944 
L 90.468958 306.489723 
L 91.087583 285.290487 
L 91.706208 306.771797 
L 92.324834 305.241573 
L 92.943459 307.173804 
L 93.562084 307.15337 
L 94.18071 307.015946 
L 94.799335 307.764284 
L 95.41796 303.876458 
L 96.036585 306.908484 
L 96.655211 305.826169 
L 97.273836 306.3357 
L 97.892461 307.421087 
L 98.511086 286.415838 
L 99.129712 307.608216 
L 99.748337 305.983305 
L 100.366962 307.764469 
L 100.985588 307.337117 
L 101.604213 307.465068 
L 102.222838 306.613173 
L 102.841463 307.780598 
L 103.460089 303.837395 
L 104.078714 306.983644 
L 104.697339 305.899341 
L 105.315965 306.271551 
L 105.93459 307.358694 
L 106.553215 286.397049 
L 107.17184 307.650477 
L 107.790466 305.844612 
L 108.409091 307.781559 
L 109.027716 307.411203 
L 109.646341 307.508521 
L 110.264967 307.795295 
L 110.883592 303.885831 
L 111.502217 307.013671 
L 112.120843 305.906885 
L 112.739468 306.275329 
L 113.358093 307.343877 
L 113.976718 286.385754 
L 114.595344 307.675859 
L 115.213969 305.853737 
L 115.832594 307.795743 
L 116.45122 307.420843 
L 117.069845 307.524449 
L 117.68847 307.798371 
L 118.307095 303.858993 
L 118.925721 307.030978 
L 119.544346 305.922938 
L 120.162971 306.250354 
L 120.781596 307.33818 
L 121.400222 286.396709 
L 122.018847 307.67474 
L 122.637472 305.856513 
L 123.256098 307.798194 
L 123.874723 307.42454 
L 124.493348 307.534266 
L 125.111973 307.799512 
L 125.730599 303.862418 
L 126.349224 307.038825 
L 126.967849 305.927174 
L 127.586475 306.251124 
L 128.2051 307.336879 
L 128.823725 286.389593 
L 129.44235 307.68074 
L 130.060976 305.860425 
L 130.679601 307.799318 
L 131.298226 307.427426 
L 131.916851 307.535747 
L 132.535477 307.799981 
L 133.154102 303.8558 
L 133.772727 307.038837 
L 134.391353 305.925975 
L 135.009978 306.249058 
L 135.628603 307.340048 
L 136.247228 286.394682 
L 136.865854 307.678608 
L 137.484479 305.855594 
L 138.103104 307.799359 
L 138.721729 307.42593 
L 139.340355 307.537557 
L 139.95898 307.799672 
L 144.907982 307.799979 
L 144.907982 307.799979 
" clip-path="url(#pa04c82b9c2)" style="fill: none; stroke: #2ca02c; stroke-opacity: 0.8; stroke-width: 1.5; stroke-linecap: square"/>
   </g>
   <g id="line2d_21">
    <path d="M 57.681818 138.60228 
L 58.300443 141.848142 
L 58.919069 136.276612 
L 59.537694 138.667885 
L 60.774945 138.60022 
L 61.39357 137.6373 
L 62.012195 138.577935 
L 62.63082 138.664051 
L 63.249446 138.602835 
L 63.868071 138.333947 
L 64.486696 138.588567 
L 65.105322 173.563557 
L 65.723947 169.035095 
L 66.342572 174.502663 
L 66.961197 173.633156 
L 68.198448 173.562053 
L 68.817073 178.399943 
L 69.435698 173.788017 
L 70.054324 172.399876 
L 70.672949 173.514101 
L 71.291574 173.935914 
L 71.9102 173.53434 
L 72.528825 218.770925 
L 73.14745 231.41513 
L 73.766075 207.98953 
L 74.384701 217.793643 
L 75.003326 218.461011 
L 75.621951 218.770899 
L 76.240576 212.307877 
L 76.859202 218.874402 
L 77.477827 220.456702 
L 78.715078 218.030054 
L 79.333703 218.920823 
L 79.952328 279.554102 
L 80.570953 289.631936 
L 81.189579 270.424488 
L 81.808204 275.41946 
L 82.426829 281.835921 
L 83.045455 279.56184 
L 83.66408 269.702799 
L 84.282705 279.780732 
L 84.90133 277.59014 
L 85.519956 279.393525 
L 86.138581 279.754586 
L 86.757206 279.562697 
L 87.375831 304.976061 
L 87.994457 301.529262 
L 88.613082 300.833162 
L 89.850333 304.472253 
L 90.468958 304.899834 
L 91.087583 283.981348 
L 91.706208 304.384537 
L 92.324834 303.442249 
L 92.943459 304.796438 
L 93.562084 304.840228 
L 94.18071 304.736132 
L 94.799335 306.514031 
L 95.41796 299.290147 
L 96.036585 303.619025 
L 97.273836 305.151749 
L 97.892461 306.512019 
L 98.511086 283.220821 
L 99.129712 306.305289 
L 99.748337 303.821961 
L 100.366962 306.509536 
L 101.604213 306.338356 
L 102.222838 307.356599 
L 102.841463 300.814598 
L 103.460089 304.898975 
L 104.078714 305.219767 
L 105.315965 307.356527 
L 105.93459 284.562543 
L 106.553215 307.28595 
L 107.17184 305.168755 
L 107.790466 307.35748 
L 108.409091 306.880782 
L 109.027716 307.060982 
L 109.646341 307.434761 
L 110.264967 300.566604 
L 110.883592 305.294628 
L 111.502217 305.43196 
L 112.120843 306.195533 
L 112.739468 307.433655 
L 113.358093 285.297265 
L 113.976718 307.311565 
L 114.595344 305.439417 
L 115.213969 307.434583 
L 115.832594 307.071571 
L 116.45122 307.191317 
L 117.069845 307.451475 
L 117.68847 301.017054 
L 118.307095 305.268333 
L 118.925721 305.421093 
L 119.544346 306.271944 
L 120.162971 307.451386 
L 120.781596 285.428404 
L 121.400222 307.335459 
L 122.018847 305.445879 
L 122.637472 307.451301 
L 123.256098 307.097897 
L 123.874723 307.205738 
L 124.493348 307.462353 
L 125.111973 300.920171 
L 125.730599 305.457608 
L 126.349224 305.49038 
L 126.967849 306.223787 
L 127.586475 307.462352 
L 128.2051 285.477574 
L 128.823725 307.336059 
L 129.44235 305.479155 
L 130.060976 307.462008 
L 130.679601 307.112474 
L 131.298226 307.216861 
L 131.916851 307.46773 
L 132.535477 301.097261 
L 133.154102 305.478519 
L 133.772727 305.482096 
L 134.391353 306.242641 
L 135.009978 307.467735 
L 135.628603 285.524861 
L 136.247228 307.344548 
L 136.865854 305.476503 
L 137.484479 307.467415 
L 138.103104 307.116717 
L 138.721729 307.220817 
L 139.340355 307.469646 
L 139.95898 301.17016 
L 140.577605 305.577636 
L 141.196231 305.572812 
L 141.814856 306.3145 
L 142.433481 307.469574 
L 143.052106 285.630789 
L 143.670732 307.371222 
L 144.289357 305.382598 
L 144.907982 307.469371 
L 145.526608 307.148108 
L 146.763858 307.475156 
L 147.382483 301.152721 
L 148.001109 305.556327 
L 148.619734 305.509403 
L 149.238359 306.216015 
L 149.856984 307.475561 
L 150.47561 285.601564 
L 151.094235 307.349781 
L 151.71286 305.515108 
L 152.331486 307.475419 
L 152.950111 307.135402 
L 153.568736 307.229891 
L 154.187361 307.477535 
L 154.805987 301.148379 
L 155.424612 305.626935 
L 156.043237 305.525651 
L 156.661863 306.21866 
L 157.280488 307.477552 
L 157.899113 285.597941 
L 158.517738 307.35334 
L 159.136364 305.495822 
L 159.754989 307.47757 
L 160.373614 307.127964 
L 160.992239 307.229176 
L 161.610865 307.477327 
L 164.703991 307.478031 
L 165.322616 301.14136 
L 165.941242 305.630864 
L 166.559867 305.527853 
L 167.178492 306.215873 
L 167.797118 307.478056 
L 168.415743 285.599953 
L 169.034368 307.352616 
L 169.652993 305.500331 
L 170.271619 307.478074 
L 170.890244 307.128489 
L 171.508869 307.230179 
L 172.127494 307.476252 
L 173.364745 307.478308 
L 173.98337 301.140577 
L 174.601996 305.631323 
L 175.220621 305.528005 
L 175.839246 306.215761 
L 176.457871 307.478333 
L 177.076497 285.600883 
L 177.695122 307.352559 
L 178.313747 305.50105 
L 178.932373 307.478347 
L 179.550998 307.128846 
L 180.169623 307.230488 
L 180.788248 307.477726 
L 183.881375 307.478037 
L 183.881375 307.478037 
" clip-path="url(#pa04c82b9c2)" style="fill: none; stroke: #d62728; stroke-opacity: 0.8; stroke-width: 1.5; stroke-linecap: square"/>
   </g>
   <g id="line2d_22">
    <path d="M 57.681818 134.251981 
L 58.300443 135.156845 
L 58.919069 133.617863 
L 59.537694 133.61469 
L 60.156319 134.262095 
L 60.774945 134.251994 
L 61.39357 134.259187 
L 62.012195 134.252041 
L 62.63082 134.235686 
L 63.249446 134.251954 
L 63.868071 134.236926 
L 64.486696 134.25184 
L 65.105322 58.267052 
L 65.723947 167.391806 
L 66.342572 167.318854 
L 66.961197 166.053266 
L 67.579823 165.905032 
L 68.198448 167.451115 
L 68.817073 167.391793 
L 69.435698 167.534706 
L 70.054324 167.382188 
L 70.672949 167.25412 
L 71.291574 167.390887 
L 71.9102 167.322932 
L 72.528825 167.390479 
L 73.14745 217.57307 
L 73.766075 218.470551 
L 74.384701 213.431701 
L 75.003326 217.13445 
L 75.621951 217.33145 
L 76.240576 217.5736 
L 76.859202 228.079846 
L 77.477827 216.951334 
L 78.096452 220.260132 
L 78.715078 217.577684 
L 79.333703 215.851603 
L 79.952328 217.447094 
L 80.570953 285.242476 
L 81.189579 293.071627 
L 81.808204 277.53338 
L 82.426829 283.287058 
L 83.045455 286.520457 
L 83.66408 285.24217 
L 84.282705 275.611268 
L 84.90133 285.917204 
L 85.519956 279.508143 
L 86.138581 285.243049 
L 86.757206 286.384626 
L 87.375831 285.073806 
L 87.994457 305.933486 
L 88.613082 299.05457 
L 89.231707 304.207076 
L 89.850333 303.868688 
L 90.468958 303.29229 
L 91.087583 305.933107 
L 91.706208 286.942489 
L 92.324834 305.574342 
L 92.943459 306.897197 
L 93.562084 305.933733 
L 94.18071 305.234512 
L 94.799335 305.737553 
L 95.41796 307.466482 
L 96.036585 301.936973 
L 96.655211 305.74974 
L 97.273836 305.628352 
L 97.892461 306.489072 
L 98.511086 307.465915 
L 99.129712 285.65578 
L 99.748337 307.361433 
L 100.366962 305.349557 
L 100.985588 307.466003 
L 101.604213 307.030579 
L 102.222838 307.211329 
L 102.841463 307.488185 
L 103.460089 301.406823 
L 104.078714 305.908373 
L 104.697339 305.587273 
L 105.315965 306.135435 
L 105.93459 307.488193 
L 106.553215 285.79778 
L 107.17184 307.357836 
L 107.790466 305.575347 
L 108.409091 307.487855 
L 109.027716 307.147479 
L 109.646341 307.235873 
L 110.264967 307.48867 
L 110.883592 301.353753 
L 111.502217 305.903905 
L 112.120843 305.580822 
L 112.739468 306.16263 
L 113.358093 307.489362 
L 113.976718 285.784489 
L 114.595344 307.360177 
L 115.213969 305.521272 
L 115.832594 307.48859 
L 116.45122 307.135173 
L 117.069845 307.237241 
L 117.68847 307.485069 
L 118.307095 307.486086 
L 118.925721 307.4862 
L 119.544346 307.486805 
L 120.162971 307.488205 
L 120.781596 307.488211 
L 121.400222 307.488567 
L 122.018847 307.488285 
L 122.637472 307.488605 
L 123.256098 307.488643 
L 123.874723 307.488652 
L 124.493348 307.488496 
" clip-path="url(#pa04c82b9c2)" style="fill: none; stroke: #9467bd; stroke-opacity: 0.8; stroke-width: 1.5; stroke-linecap: square"/>
   </g>
   <g id="line2d_23">
    <path d="M 57.681818 144.597472 
L 58.300443 147.864136 
L 58.919069 142.327029 
L 59.537694 144.157612 
L 60.156319 144.656176 
L 60.774945 144.799443 
L 61.39357 144.663112 
L 62.012195 145.375761 
L 62.63082 142.930867 
L 63.249446 144.597602 
L 63.868071 144.604204 
L 64.486696 143.90269 
L 65.105322 159.620012 
L 65.723947 162.66535 
L 66.342572 156.668418 
L 66.961197 160.549764 
L 67.579823 159.674864 
L 68.198448 159.619992 
L 68.817073 160.024788 
L 69.435698 159.518297 
L 70.672949 159.620016 
L 71.291574 159.507294 
L 71.9102 159.601644 
L 72.528825 70.38842 
L 73.14745 178.752344 
L 73.766075 182.711963 
L 74.384701 174.812286 
L 75.003326 178.647161 
L 75.621951 178.931924 
L 76.240576 178.751929 
L 76.859202 175.118655 
L 77.477827 178.546176 
L 78.096452 178.576637 
L 78.715078 178.752461 
L 79.952328 178.597149 
L 80.570953 110.517618 
L 81.189579 213.070719 
L 81.808204 218.71043 
L 82.426829 206.496019 
L 83.045455 212.270248 
L 83.66408 213.513485 
L 84.282705 213.069044 
L 84.90133 198.472985 
L 85.519956 212.570386 
L 86.757206 213.071192 
L 87.375831 212.84989 
L 87.994457 212.779445 
L 88.613082 271.69318 
L 89.231707 286.251921 
L 89.850333 259.441384 
L 90.468958 269.399169 
L 91.087583 272.804083 
L 91.706208 271.689897 
L 92.324834 253.166366 
L 92.943459 272.228275 
L 93.562084 266.838471 
L 94.18071 271.693967 
L 94.799335 271.555845 
L 95.41796 271.559656 
L 96.036585 293.861241 
L 96.655211 286.573977 
L 97.273836 290.427731 
L 97.892461 291.788604 
L 98.511086 291.492917 
L 99.129712 293.862185 
L 99.748337 278.736538 
L 100.366962 292.924576 
L 100.985588 300.052313 
L 101.604213 293.861497 
L 102.222838 291.280397 
L 102.841463 291.448187 
L 103.460089 306.846808 
L 104.078714 303.190115 
L 104.697339 303.716124 
L 105.315965 304.930019 
L 105.93459 307.083851 
L 106.553215 306.847374 
L 107.17184 284.0387 
L 107.790466 306.772942 
L 108.409091 304.827224 
L 109.027716 306.847734 
L 109.646341 306.063549 
L 110.264967 306.026695 
L 110.883592 307.47485 
L 111.502217 301.234149 
L 112.120843 305.713626 
L 112.739468 305.541616 
L 113.358093 306.202001 
L 113.976718 307.473245 
L 114.595344 285.733649 
L 115.213969 307.310111 
L 115.832594 305.54146 
L 116.45122 307.47464 
L 117.069845 307.173654 
L 117.68847 307.197133 
L 118.307095 307.460959 
L 118.925721 307.478823 
L 119.544346 301.367786 
L 120.162971 305.648875 
L 120.781596 305.517 
L 121.400222 306.211764 
L 122.018847 307.47887 
L 122.637472 285.667097 
L 123.256098 307.346751 
L 123.874723 305.520649 
L 124.493348 307.478653 
L 125.111973 307.142615 
L 125.730599 307.226881 
L 126.349224 307.479962 
L 126.967849 301.250705 
L 127.586475 305.751804 
L 128.2051 305.553329 
L 128.823725 306.190775 
L 129.44235 307.479245 
L 130.060976 285.653779 
L 130.679601 307.351105 
L 131.298226 305.506963 
L 131.916851 307.479363 
L 132.535477 307.129243 
L 133.154102 307.230799 
L 133.772727 307.478638 
L 134.391353 307.480052 
L 135.009978 301.201926 
L 135.628603 305.757638 
L 136.247228 305.549704 
L 136.865854 306.180054 
L 137.484479 307.479711 
L 138.103104 285.640674 
L 138.721729 307.3525 
L 139.340355 305.513322 
L 139.95898 307.479644 
L 140.577605 307.128755 
L 141.196231 307.231799 
L 141.814856 307.480481 
L 142.433481 301.248174 
L 143.052106 305.737066 
L 143.670732 305.537136 
L 144.289357 306.194279 
L 144.907982 307.480151 
L 145.526608 285.647056 
L 146.145233 307.354016 
L 146.763858 305.504965 
L 147.382483 307.479969 
L 148.001109 307.127885 
L 148.619734 307.230957 
L 149.238359 307.478706 
L 154.187361 307.480495 
L 154.805987 301.247897 
L 155.424612 305.737088 
L 156.043237 305.537131 
L 156.661863 306.194268 
L 157.280488 307.480164 
L 157.899113 285.647113 
L 158.517738 307.354026 
L 159.136364 305.505127 
L 159.754989 307.479981 
L 160.373614 307.127889 
L 160.992239 307.230973 
L 161.610865 307.480516 
L 162.22949 301.247527 
L 162.848115 305.737107 
L 163.466741 305.537224 
L 164.085366 306.194372 
L 164.703991 307.480183 
L 165.322616 285.647253 
L 165.941242 307.353998 
L 166.559867 305.505495 
L 167.178492 307.480002 
L 167.797118 307.128073 
L 168.415743 307.230998 
L 169.034368 307.480415 
L 170.890244 307.480339 
L 170.890244 307.480339 
" clip-path="url(#pa04c82b9c2)" style="fill: none; stroke: #8c564b; stroke-opacity: 0.8; stroke-width: 1.5; stroke-linecap: square"/>
   </g>
   <g id="line2d_24">
    <path d="M 57.681818 130.674797 
L 58.300443 130.81516 
L 58.919069 130.521283 
L 60.774945 130.674805 
L 64.486696 130.674815 
L 65.105322 129.790791 
L 65.723947 163.618098 
L 66.342572 166.206489 
L 66.961197 161.33338 
L 67.579823 162.174955 
L 68.198448 163.613704 
L 68.817073 163.618879 
L 69.435698 163.492825 
L 70.054324 163.754514 
L 71.9102 163.572694 
L 72.528825 163.621343 
L 73.14745 70.27142 
L 73.766075 171.903477 
L 74.384701 172.502896 
L 75.003326 170.354134 
L 75.621951 171.729944 
L 76.240576 171.894114 
L 76.859202 171.915605 
L 77.477827 170.504863 
L 78.096452 171.933388 
L 79.952328 171.733319 
L 80.570953 171.916983 
L 81.189579 188.731609 
L 81.808204 175.142144 
L 82.426829 191.903365 
L 83.045455 188.650582 
L 83.66408 187.905352 
L 84.282705 188.566553 
L 84.90133 202.524021 
L 85.519956 181.293867 
L 86.138581 198.333185 
L 86.757206 188.732165 
L 87.375831 187.5469 
L 87.994457 188.610552 
L 88.613082 272.775937 
L 89.231707 282.135065 
L 89.850333 264.897338 
L 90.468958 271.813869 
L 91.087583 273.159294 
L 91.706208 272.772635 
L 92.324834 260.035194 
L 92.943459 271.665597 
L 93.562084 271.969548 
L 94.18071 272.777115 
L 94.799335 272.451217 
L 95.41796 270.594927 
L 96.036585 304.400365 
L 96.655211 306.173149 
L 97.273836 299.801795 
L 97.892461 302.012983 
L 98.511086 305.613318 
L 99.129712 304.400206 
L 99.748337 282.739215 
L 100.366962 304.699332 
L 100.985588 300.541087 
L 101.604213 304.400754 
L 102.222838 304.301101 
L 102.841463 303.789533 
L 103.460089 307.508807 
L 104.078714 302.448825 
L 104.697339 306.220627 
L 105.315965 305.650246 
L 105.93459 305.943014 
L 106.553215 307.508758 
L 107.17184 287.03679 
L 107.790466 307.338755 
L 108.409091 305.825647 
L 109.027716 307.508526 
L 109.646341 307.153172 
L 110.264967 307.273215 
L 110.883592 307.52824 
L 111.502217 302.475997 
L 112.120843 306.373983 
L 112.739468 305.674347 
L 113.358093 306.19692 
L 113.976718 307.528796 
L 114.595344 286.313276 
L 115.213969 307.408407 
L 115.832594 305.506676 
L 116.45122 307.528001 
L 117.069845 307.163348 
L 117.68847 307.268389 
L 118.307095 307.527617 
L 118.925721 307.529339 
L 119.544346 302.477183 
L 120.162971 306.384409 
L 120.781596 305.652158 
L 121.400222 306.161226 
L 122.018847 307.529982 
L 122.637472 286.303163 
L 123.256098 307.406715 
L 123.874723 305.551084 
L 124.493348 307.529001 
L 125.111973 307.163169 
L 125.730599 307.260411 
L 126.349224 307.535624 
L 126.967849 302.532358 
L 127.586475 306.402433 
L 128.2051 305.65877 
L 128.823725 306.179375 
L 129.44235 307.535767 
L 130.060976 286.337183 
L 130.679601 307.414607 
L 131.298226 305.539529 
L 131.916851 307.535071 
L 132.535477 307.165975 
L 133.154102 307.265517 
L 133.772727 307.543319 
L 134.391353 302.626342 
L 135.009978 306.41607 
L 135.628603 305.652175 
L 136.247228 306.202341 
L 136.865854 307.543803 
L 137.484479 286.363309 
L 138.103104 307.4239 
L 138.721729 305.543494 
L 139.340355 307.543086 
L 139.95898 307.170919 
L 140.577605 307.268972 
L 141.196231 307.553261 
L 141.814856 302.652239 
L 142.433481 306.458864 
L 143.052106 305.678669 
L 143.670732 306.199802 
L 144.289357 307.553084 
L 144.907982 286.407824 
L 145.526608 307.431027 
L 146.145233 305.553163 
L 146.763858 307.552985 
L 147.382483 307.178069 
L 148.001109 307.278745 
L 148.619734 307.567099 
L 149.238359 302.76173 
L 149.856984 306.484522 
L 150.47561 305.68785 
L 151.094235 306.229122 
L 151.71286 307.567437 
L 152.331486 286.428366 
L 152.950111 307.450701 
L 153.568736 305.563792 
L 154.187361 307.567083 
L 154.805987 307.191182 
L 155.424612 307.288027 
L 156.043237 307.579619 
L 156.661863 302.770771 
L 157.280488 306.538392 
L 157.899113 305.720437 
L 158.517738 306.216726 
L 159.136364 307.579703 
L 159.754989 286.470718 
L 160.373614 307.456683 
L 160.992239 305.579959 
L 161.610865 307.579678 
L 162.22949 307.20824 
L 162.848115 307.303987 
L 163.466741 305.849861 
L 164.085366 307.592879 
L 164.703991 302.863764 
L 165.322616 306.56955 
L 165.941242 305.720682 
L 166.559867 306.243197 
L 167.178492 307.592977 
L 167.797118 286.498888 
L 168.415743 307.474236 
L 169.034368 305.593118 
L 169.652993 307.593915 
L 170.271619 307.2168 
L 170.890244 307.312486 
L 171.508869 307.61167 
L 172.127494 302.900315 
L 172.74612 306.625608 
L 173.364745 305.757207 
L 173.98337 306.215086 
L 174.601996 307.618127 
L 175.220621 286.52517 
L 175.839246 307.491382 
L 176.457871 305.623115 
L 177.076497 307.611545 
L 177.695122 307.245029 
L 178.313747 307.33595 
L 178.932373 307.645777 
L 179.550998 303.541732 
L 180.169623 306.639511 
L 180.788248 305.757218 
L 181.406874 305.936064 
L 182.025499 306.99802 
L 182.644124 286.219183 
L 183.262749 307.499852 
L 183.881375 305.777276 
L 184.5 307.645705 
L 185.118625 307.370948 
L 185.737251 307.371239 
L 186.355876 307.781014 
L 186.974501 303.88046 
L 187.593126 306.950975 
L 188.211752 305.888855 
L 188.830377 306.356695 
L 189.449002 307.39982 
L 190.067627 286.326535 
L 190.686253 307.675611 
L 191.304878 305.747902 
L 191.923503 307.780684 
L 192.542129 307.366289 
L 193.160754 307.5077 
L 193.779379 307.791872 
L 194.398004 303.836023 
L 195.01663 307.015937 
L 195.635255 305.911714 
L 196.25388 306.253782 
L 196.872506 307.343146 
L 197.491131 286.380533 
L 198.109756 307.675051 
L 198.728381 305.856754 
L 199.347007 307.791473 
L 199.965632 307.413351 
L 200.584257 307.523501 
L 201.202882 307.798675 
L 201.821508 303.873117 
L 202.440133 307.025791 
L 203.058758 305.917638 
L 203.677384 306.261343 
L 204.296009 307.340452 
L 204.914634 286.390028 
L 205.533259 307.677164 
L 206.151885 305.847707 
L 206.77051 307.798481 
L 207.389135 307.42181 
L 208.007761 307.533319 
L 208.626386 307.799681 
L 209.245011 303.860184 
L 209.863636 307.038994 
L 210.482262 305.92491 
L 211.100887 306.249378 
L 211.719512 307.337807 
L 212.338137 286.391531 
L 212.956763 307.679912 
L 213.575388 305.859028 
L 214.194013 307.799458 
L 214.812639 307.42822 
L 215.431264 307.536122 
L 216.049889 307.799734 
L 216.668514 303.854815 
L 217.28714 307.037927 
L 217.905765 305.924702 
L 218.52439 306.246637 
L 219.143016 307.337523 
L 219.761641 286.393837 
L 220.380266 307.678417 
L 220.998891 305.858498 
L 221.617517 307.798984 
L 222.236142 307.425813 
L 222.854767 307.53711 
L 223.473392 307.799691 
L 224.710643 307.799749 
L 225.329268 303.855411 
L 225.947894 307.037449 
L 226.566519 305.92613 
L 227.185144 306.248697 
L 227.803769 307.337697 
L 228.422395 286.39336 
L 229.04102 307.679256 
L 229.659645 305.855765 
L 230.278271 307.799004 
L 230.896896 307.427877 
L 231.515521 307.537135 
L 232.134146 307.799615 
L 236.464523 307.79967 
L 236.464523 307.79967 
" clip-path="url(#pa04c82b9c2)" style="fill: none; stroke: #e377c2; stroke-opacity: 0.8; stroke-width: 1.5; stroke-linecap: square"/>
   </g>
   <g id="line2d_25">
    <path d="M 57.681818 129.892285 
L 58.300443 123.690676 
L 58.919069 132.521583 
L 59.537694 126.878269 
L 60.156319 126.770841 
L 60.774945 130.290406 
L 61.39357 134.532198 
L 62.012195 129.962445 
L 62.63082 133.48957 
L 63.249446 129.887891 
L 63.868071 129.37461 
L 64.486696 129.779653 
L 65.105322 214.19975 
L 65.723947 215.551548 
L 66.961197 206.189551 
L 67.579823 213.581955 
L 68.198448 213.946806 
L 68.817073 207.544246 
L 69.435698 214.011565 
L 70.054324 217.688208 
L 70.672949 214.198455 
L 71.291574 213.973504 
L 71.9102 212.827226 
L 72.528825 276.642117 
L 73.14745 280.433872 
L 73.766075 270.950469 
L 74.384701 272.842702 
L 75.003326 276.794222 
L 75.621951 276.322354 
L 76.240576 267.845252 
L 76.859202 277.173181 
L 77.477827 274.686265 
L 78.096452 276.642136 
L 78.715078 276.880527 
L 79.333703 275.88076 
L 79.952328 300.8323 
L 80.570953 301.971936 
L 81.189579 295.340797 
L 81.808204 298.039382 
L 82.426829 301.84772 
L 83.045455 300.828815 
L 83.66408 278.110979 
L 84.282705 300.501418 
L 84.90133 297.983379 
L 85.519956 300.538692 
L 86.138581 301.127026 
L 86.757206 300.371231 
L 87.375831 306.976532 
L 87.994457 301.406967 
L 88.613082 304.740813 
L 89.231707 304.721668 
L 90.468958 306.976345 
L 91.087583 284.796188 
L 91.706208 306.742938 
L 92.324834 304.779308 
L 92.943459 306.953115 
L 93.562084 306.613788 
L 94.18071 306.687902 
L 94.799335 307.383701 
L 95.41796 301.120497 
L 96.036585 305.58213 
L 96.655211 305.326341 
L 97.273836 306.171683 
L 97.892461 307.38436 
L 98.511086 285.06151 
L 99.129712 307.250982 
L 99.748337 305.039635 
L 100.366962 307.38553 
L 100.985588 307.024121 
L 102.222838 307.201116 
L 102.841463 307.468431 
L 103.460089 301.16277 
L 104.078714 305.745102 
L 104.697339 305.510437 
L 105.315965 306.15226 
L 105.93459 307.468108 
L 106.553215 285.528648 
L 107.17184 307.352642 
L 107.790466 305.542855 
L 108.409091 307.469392 
L 109.027716 307.083192 
L 109.646341 307.207633 
L 110.264967 307.482869 
L 110.883592 301.280778 
L 111.502217 305.739993 
L 112.120843 305.543482 
L 112.739468 306.20504 
L 113.358093 307.481998 
L 113.976718 285.647391 
L 114.595344 307.359603 
L 115.213969 305.481742 
L 115.832594 307.482778 
L 116.45122 307.129703 
L 118.307095 307.482898 
L 118.925721 301.29335 
L 119.544346 305.753489 
L 120.162971 305.544718 
L 120.781596 306.195074 
L 121.400222 307.483299 
L 122.018847 285.674816 
L 122.637472 307.357049 
L 123.256098 305.51228 
L 123.874723 307.483588 
L 124.493348 307.127482 
L 125.111973 307.231476 
L 125.730599 307.482183 
L 126.967849 307.483302 
L 127.586475 301.270351 
L 128.2051 305.766371 
L 128.823725 305.548821 
L 129.44235 306.187997 
L 130.060976 307.482968 
L 130.679601 285.670929 
L 131.298226 307.356865 
L 131.916851 305.509917 
L 132.535477 307.483924 
L 133.154102 307.129441 
L 133.772727 307.233441 
L 134.391353 307.484132 
L 135.009978 301.295109 
L 135.628603 305.762549 
L 136.247228 305.547708 
L 136.865854 306.193849 
L 137.484479 307.483588 
L 138.103104 285.673721 
L 138.721729 307.358265 
L 139.340355 305.508752 
L 139.95898 307.484446 
L 140.577605 307.129481 
L 141.196231 307.234057 
L 141.814856 307.484402 
L 142.433481 301.302085 
L 143.052106 305.768611 
L 143.670732 305.548921 
L 144.289357 306.193757 
L 144.907982 307.48453 
L 145.526608 285.678849 
L 146.145233 307.359101 
L 146.763858 305.510579 
L 147.382483 307.48493 
L 148.001109 307.130215 
L 148.619734 307.234182 
L 149.238359 307.484338 
L 149.856984 307.484569 
L 150.47561 301.300049 
L 151.094235 305.775095 
L 151.71286 305.551094 
L 152.331486 306.189442 
L 152.950111 307.484261 
L 153.568736 285.681105 
L 154.187361 307.358687 
L 154.805987 305.510465 
L 155.424612 307.484838 
L 156.043237 307.132913 
L 156.661863 307.234643 
L 157.280488 307.484762 
L 157.899113 301.313497 
L 158.517738 305.775364 
L 159.136364 305.550456 
L 159.754989 306.193385 
L 160.373614 307.485187 
L 160.992239 285.68456 
L 161.610865 307.359349 
L 162.22949 305.511236 
L 162.848115 307.485479 
L 163.466741 307.131523 
L 164.085366 307.23458 
L 164.703991 307.483601 
L 169.652993 307.484825 
L 170.271619 301.31363 
L 170.890244 305.775473 
L 171.508869 305.550447 
L 172.127494 306.193592 
L 172.74612 307.485249 
L 173.364745 285.684897 
L 173.98337 307.359408 
L 174.601996 305.51139 
L 175.220621 307.485539 
L 175.839246 307.131849 
L 176.457871 307.234642 
L 177.076497 307.484675 
L 178.932373 307.484496 
L 178.932373 307.484496 
" clip-path="url(#pa04c82b9c2)" style="fill: none; stroke: #7f7f7f; stroke-opacity: 0.8; stroke-width: 1.5; stroke-linecap: square"/>
   </g>
   <g id="line2d_26">
    <path d="M 57.681818 131.906679 
L 58.300443 132.001338 
L 58.919069 131.642574 
L 59.537694 131.913401 
L 61.39357 131.855129 
L 64.486696 131.905507 
L 65.105322 143.520412 
L 65.723947 143.363395 
L 66.342572 143.597316 
L 66.961197 146.290469 
L 67.579823 143.607871 
L 68.817073 143.47761 
L 69.435698 143.522769 
L 70.054324 143.363419 
L 70.672949 143.56548 
L 71.291574 143.443849 
L 71.9102 143.51486 
L 72.528825 133.407261 
L 73.14745 159.060737 
L 73.766075 159.668392 
L 74.384701 158.295687 
L 75.003326 155.354071 
L 75.621951 159.560159 
L 76.240576 159.061435 
L 76.859202 159.121843 
L 77.477827 159.056747 
L 78.096452 158.644643 
L 78.715078 158.750783 
L 79.333703 159.025715 
L 79.952328 158.996015 
L 80.570953 167.093519 
L 81.189579 164.054872 
L 81.808204 168.001815 
L 82.426829 165.414798 
L 83.045455 166.475639 
L 84.282705 167.864455 
L 84.90133 167.103922 
L 85.519956 167.897749 
L 86.757206 167.04233 
L 87.375831 167.229011 
L 88.613082 184.06023 
L 89.231707 170.863965 
L 89.850333 173.173043 
L 90.468958 176.954924 
L 91.087583 176.34871 
L 91.706208 170.868233 
L 92.324834 176.34987 
L 92.943459 176.50216 
L 94.18071 176.310606 
L 94.799335 176.064495 
L 95.41796 229.666084 
L 96.036585 239.110803 
L 96.655211 222.633549 
L 97.273836 232.220077 
L 97.892461 230.322144 
L 98.511086 229.666041 
L 99.129712 231.035936 
L 99.748337 229.533707 
L 100.366962 229.704946 
L 100.985588 229.543083 
L 101.604213 229.689608 
L 102.222838 229.693798 
L 102.841463 288.435915 
L 103.460089 298.201787 
L 104.078714 279.589675 
L 104.697339 282.194674 
L 105.315965 289.71433 
L 105.93459 288.435837 
L 106.553215 278.068281 
L 107.17184 288.172229 
L 107.790466 287.471591 
L 108.409091 288.018704 
L 109.027716 287.927197 
L 109.646341 288.09094 
L 110.264967 305.579171 
L 110.883592 302.37137 
L 111.502217 302.326402 
L 112.739468 304.946504 
L 113.358093 305.579183 
L 113.976718 284.292769 
L 114.595344 305.493113 
L 115.213969 302.649427 
L 115.832594 305.431095 
L 116.45122 305.583895 
L 117.069845 305.49743 
L 117.68847 307.145814 
L 118.307095 301.281778 
L 118.925721 305.399149 
L 119.544346 305.056681 
L 120.162971 305.953159 
L 120.781596 307.136836 
L 121.400222 284.824972 
L 122.018847 307.044875 
L 122.637472 304.522168 
L 123.256098 307.144182 
L 123.874723 306.80763 
L 124.493348 306.910538 
L 125.111973 307.39926 
L 125.730599 301.062257 
L 126.349224 305.748592 
L 126.967849 305.454886 
L 127.586475 305.915987 
L 128.2051 307.399081 
L 128.823725 285.375829 
L 129.44235 307.276593 
L 130.060976 305.33998 
L 130.679601 307.400315 
L 131.298226 307.064789 
L 131.916851 307.161697 
L 132.535477 307.478409 
L 133.154102 301.252283 
L 133.772727 305.886105 
L 134.391353 305.56656 
L 135.009978 306.167257 
L 135.628603 307.478363 
L 136.247228 285.607823 
L 136.865854 307.366414 
L 137.484479 305.470711 
L 138.103104 307.478481 
L 138.721729 307.09145 
L 139.340355 307.226774 
L 139.95898 303.096406 
L 140.577605 307.471007 
L 141.196231 307.481726 
L 141.814856 301.310251 
L 142.433481 305.82846 
L 143.052106 305.559758 
L 143.670732 306.167929 
L 144.289357 307.48178 
L 144.907982 285.68888 
L 145.526608 307.359786 
L 146.145233 305.506791 
L 146.763858 307.482136 
L 147.382483 307.125972 
L 148.001109 307.232221 
L 148.619734 307.481854 
L 149.238359 301.259836 
L 149.856984 305.827963 
L 150.47561 305.564928 
L 151.094235 306.167977 
L 151.71286 307.481803 
L 152.331486 285.682565 
L 152.950111 307.354751 
L 153.568736 305.511718 
L 154.187361 307.482242 
L 154.805987 307.128463 
L 155.424612 307.232793 
L 156.043237 307.481904 
L 156.661863 301.253596 
L 157.280488 305.802604 
L 157.899113 305.556985 
L 158.517738 306.175874 
L 159.136364 307.481696 
L 159.754989 285.670831 
L 160.373614 307.35451 
L 160.992239 305.514495 
L 161.610865 307.482075 
L 162.22949 307.130634 
L 162.848115 307.232434 
L 163.466741 307.481233 
L 164.703991 307.482272 
L 165.322616 301.279202 
L 165.941242 305.777003 
L 166.559867 305.551761 
L 167.178492 306.1868 
L 167.797118 307.482116 
L 168.415743 285.673465 
L 169.034368 307.355531 
L 169.652993 305.509708 
L 170.271619 307.482748 
L 170.890244 307.129663 
L 171.508869 307.232539 
L 172.127494 307.481713 
L 177.076497 307.481935 
L 177.076497 307.481935 
" clip-path="url(#pa04c82b9c2)" style="fill: none; stroke: #bcbd22; stroke-opacity: 0.8; stroke-width: 1.5; stroke-linecap: square"/>
   </g>
   <g id="line2d_27">
    <path d="M 57.681818 232.483624 
L 58.300443 232.624391 
L 58.919069 228.245645 
L 59.537694 228.447433 
L 60.156319 232.712222 
L 60.774945 232.476473 
L 61.39357 209.185875 
L 62.012195 232.500147 
L 62.63082 230.455654 
L 63.249446 232.483241 
L 63.868071 232.464702 
L 64.486696 232.411729 
L 65.105322 264.25492 
L 65.723947 250.270271 
L 66.342572 265.381618 
L 66.961197 261.071591 
L 67.579823 261.177613 
L 68.198448 264.254531 
L 68.817073 263.488206 
L 69.435698 259.560659 
L 70.054324 273.180307 
L 70.672949 264.255048 
L 71.291574 262.138912 
L 71.9102 264.058207 
L 72.528825 304.061335 
L 73.14745 304.789014 
L 73.766075 298.056155 
L 74.384701 302.163753 
L 75.003326 305.579577 
L 75.621951 304.061647 
L 76.240576 279.867327 
L 76.859202 303.447318 
L 77.477827 302.002641 
L 78.096452 304.063466 
L 78.715078 303.165469 
L 79.333703 303.527527 
L 79.952328 307.385563 
L 80.570953 301.255769 
L 81.189579 305.318873 
L 81.808204 305.312692 
L 82.426829 306.000234 
L 83.045455 307.382753 
L 83.66408 286.005444 
L 84.282705 307.143581 
L 84.90133 306.056521 
L 85.519956 307.385965 
L 86.138581 307.040194 
L 86.757206 307.097991 
L 87.375831 307.471549 
L 87.994457 301.151621 
L 88.613082 305.567686 
L 89.231707 305.542317 
L 89.850333 306.189726 
L 90.468958 307.470985 
L 91.087583 285.646185 
L 91.706208 307.320932 
L 92.324834 305.50665 
L 92.943459 307.470934 
L 93.562084 307.172059 
L 94.18071 307.236839 
L 94.799335 307.480325 
L 95.41796 301.237946 
L 96.036585 305.628368 
L 96.655211 305.516897 
L 97.273836 306.231017 
L 97.892461 307.481048 
L 98.511086 285.620693 
L 99.129712 307.354049 
L 99.748337 305.514215 
L 100.366962 307.479892 
L 100.985588 307.128814 
L 101.604213 307.227799 
L 102.222838 307.48074 
L 102.841463 301.18583 
L 103.460089 305.696246 
L 104.078714 305.530731 
L 104.697339 306.186281 
L 105.315965 307.48028 
L 105.93459 285.666782 
L 106.553215 307.354552 
L 107.17184 305.548877 
L 107.790466 307.480502 
L 108.409091 307.118503 
L 109.027716 307.220955 
L 109.646341 307.479865 
L 110.264967 307.479887 
L 110.883592 307.479693 
L 111.502217 307.479581 
L 112.120843 307.478927 
L 112.739468 307.479795 
L 113.358093 307.480269 
L 113.976718 307.480617 
L 114.595344 307.480696 
L 115.213969 307.480535 
L 115.832594 307.480605 
L 116.45122 307.480964 
L 117.069845 301.185639 
L 117.68847 305.696158 
L 118.307095 305.53075 
L 118.925721 306.186501 
L 119.544346 307.480537 
L 120.162971 285.667382 
L 120.781596 307.354626 
L 121.400222 305.549096 
L 122.018847 307.480726 
L 122.637472 307.11869 
L 123.256098 307.221213 
L 123.874723 307.480585 
L 124.493348 307.480525 
" clip-path="url(#pa04c82b9c2)" style="fill: none; stroke: #17becf; stroke-opacity: 0.8; stroke-width: 1.5; stroke-linecap: square"/>
   </g>
   <g id="line2d_28">
    <defs>
     <path id="m1d47a4aa68" d="M 0 3 
C 0.795609 3 1.55874 2.683901 2.12132 2.12132 
C 2.683901 1.55874 3 0.795609 3 0 
C 3 -0.795609 2.683901 -1.55874 2.12132 -2.12132 
C 1.55874 -2.683901 0.795609 -3 0 -3 
C -0.795609 -3 -1.55874 -2.683901 -2.12132 -2.12132 
C -2.683901 -1.55874 -3 -0.795609 -3 0 
C -3 0.795609 -2.683901 1.55874 -2.12132 2.12132 
C -1.55874 2.683901 -0.795609 3 0 3 
z
" style="stroke: #000000; stroke-opacity: 0.8"/>
    </defs>
    <g clip-path="url(#pa04c82b9c2)">
     <use xlink:href="#m1d47a4aa68" x="154.187361" y="307.635174" style="fill-opacity: 0.8; stroke: #000000; stroke-opacity: 0.8"/>
    </g>
   </g>
   <g id="line2d_29">
    <g clip-path="url(#pa04c82b9c2)">
     <use xlink:href="#m1d47a4aa68" x="311.318182" y="307.8" style="fill-opacity: 0.8; stroke: #000000; stroke-opacity: 0.8"/>
    </g>
   </g>
   <g id="line2d_30">
    <g clip-path="url(#pa04c82b9c2)">
     <use xlink:href="#m1d47a4aa68" x="144.907982" y="307.799979" style="fill-opacity: 0.8; stroke: #000000; stroke-opacity: 0.8"/>
    </g>
   </g>
   <g id="line2d_31">
    <g clip-path="url(#pa04c82b9c2)">
     <use xlink:href="#m1d47a4aa68" x="183.881375" y="307.478037" style="fill-opacity: 0.8; stroke: #000000; stroke-opacity: 0.8"/>
    </g>
   </g>
   <g id="line2d_32">
    <g clip-path="url(#pa04c82b9c2)">
     <use xlink:href="#m1d47a4aa68" x="124.493348" y="307.488496" style="fill-opacity: 0.8; stroke: #000000; stroke-opacity: 0.8"/>
    </g>
   </g>
   <g id="line2d_33">
    <g clip-path="url(#pa04c82b9c2)">
     <use xlink:href="#m1d47a4aa68" x="170.890244" y="307.480339" style="fill-opacity: 0.8; stroke: #000000; stroke-opacity: 0.8"/>
    </g>
   </g>
   <g id="line2d_34">
    <g clip-path="url(#pa04c82b9c2)">
     <use xlink:href="#m1d47a4aa68" x="236.464523" y="307.79967" style="fill-opacity: 0.8; stroke: #000000; stroke-opacity: 0.8"/>
    </g>
   </g>
   <g id="line2d_35">
    <g clip-path="url(#pa04c82b9c2)">
     <use xlink:href="#m1d47a4aa68" x="178.932373" y="307.484496" style="fill-opacity: 0.8; stroke: #000000; stroke-opacity: 0.8"/>
    </g>
   </g>
   <g id="line2d_36">
    <g clip-path="url(#pa04c82b9c2)">
     <use xlink:href="#m1d47a4aa68" x="177.076497" y="307.481935" style="fill-opacity: 0.8; stroke: #000000; stroke-opacity: 0.8"/>
    </g>
   </g>
   <g id="line2d_37">
    <g clip-path="url(#pa04c82b9c2)">
     <use xlink:href="#m1d47a4aa68" x="124.493348" y="307.480525" style="fill-opacity: 0.8; stroke: #000000; stroke-opacity: 0.8"/>
    </g>
   </g>
   <g id="patch_3">
    <path d="M 45 320.4 
L 45 43.2 
" style="fill: none; stroke: #000000; stroke-width: 0.8; stroke-linejoin: miter; stroke-linecap: square"/>
   </g>
   <g id="patch_4">
    <path d="M 324 320.4 
L 324 43.2 
" style="fill: none; stroke: #000000; stroke-width: 0.8; stroke-linejoin: miter; stroke-linecap: square"/>
   </g>
   <g id="patch_5">
    <path d="M 45 320.4 
L 324 320.4 
" style="fill: none; stroke: #000000; stroke-width: 0.8; stroke-linejoin: miter; stroke-linecap: square"/>
   </g>
   <g id="patch_6">
    <path d="M 45 43.2 
L 324 43.2 
" style="fill: none; stroke: #000000; stroke-width: 0.8; stroke-linejoin: miter; stroke-linecap: square"/>
   </g>
  </g>
 </g>
 <defs>
  <clipPath id="pa04c82b9c2">
   <rect x="45" y="43.2" width="279" height="277.2"/>
  </clipPath>
 </defs>
</svg>
