<?xml version="1.0" encoding="utf-8" standalone="no"?>
<!DOCTYPE svg PUBLIC "-//W3C//DTD SVG 1.1//EN"
  "http://www.w3.org/Graphics/SVG/1.1/DTD/svg11.dtd">
<svg xmlns:xlink="http://www.w3.org/1999/xlink" width="457.252344pt" height="364.730937pt" viewBox="0 0 457.252344 364.730937" xmlns="http://www.w3.org/2000/svg" version="1.1">
 <metadata>
  <rdf:RDF xmlns:dc="http://purl.org/dc/elements/1.1/" xmlns:cc="http://creativecommons.org/ns#" xmlns:rdf="http://www.w3.org/1999/02/22-rdf-syntax-ns#">
   <cc:Work>
    <dc:type rdf:resource="http://purl.org/dc/dcmitype/StillImage"/>
    <dc:date>2025-04-04T11:26:13.043477</dc:date>
    <dc:format>image/svg+xml</dc:format>
    <dc:creator>
     <cc:Agent>
      <dc:title>Matplotlib v3.9.1, https://matplotlib.org/</dc:title>
     </cc:Agent>
    </dc:creator>
   </cc:Work>
  </rdf:RDF>
 </metadata>
 <defs>
  <style type="text/css">*{stroke-linejoin: round; stroke-linecap: butt}</style>
 </defs>
 <g id="figure_1">
  <g id="patch_1">
   <path d="M 0 364.730937 
L 457.252344 364.730937 
L 457.252344 0 
L 0 0 
z
" style="fill: #ffffff"/>
  </g>
  <g id="axes_1">
   <g id="patch_2">
    <path d="M 59.452344 320.4 
L 450.052344 320.4 
L 450.052344 43.2 
L 59.452344 43.2 
z
" style="fill: #ffffff"/>
   </g>
   <g id="matplotlib.axis_1">
    <g id="xtick_1">
     <g id="line2d_1">
      <defs>
       <path id="m7ad4f9ecc6" d="M 0 0 
L 0 3.5 
" style="stroke: #000000; stroke-width: 0.8"/>
      </defs>
      <g>
       <use xlink:href="#m7ad4f9ecc6" x="77.206889" y="320.4" style="stroke: #000000; stroke-width: 0.8"/>
      </g>
     </g>
     <g id="text_1">
      <!-- 0 -->
      <g transform="translate(73.389389 336.518125) scale(0.12 -0.12)">
       <defs>
        <path id="DejaVuSans-30" d="M 2034 4250 
Q 1547 4250 1301 3770 
Q 1056 3291 1056 2328 
Q 1056 1369 1301 889 
Q 1547 409 2034 409 
Q 2525 409 2770 889 
Q 3016 1369 3016 2328 
Q 3016 3291 2770 3770 
Q 2525 4250 2034 4250 
z
M 2034 4750 
Q 2819 4750 3233 4129 
Q 3647 3509 3647 2328 
Q 3647 1150 3233 529 
Q 2819 -91 2034 -91 
Q 1250 -91 836 529 
Q 422 1150 422 2328 
Q 422 3509 836 4129 
Q 1250 4750 2034 4750 
z
" transform="scale(0.015625)"/>
       </defs>
       <use xlink:href="#DejaVuSans-30"/>
      </g>
     </g>
    </g>
    <g id="xtick_2">
     <g id="line2d_2">
      <g>
       <use xlink:href="#m7ad4f9ecc6" x="131.83626" y="320.4" style="stroke: #000000; stroke-width: 0.8"/>
      </g>
     </g>
     <g id="text_2">
      <!-- 2 -->
      <g transform="translate(128.01876 336.518125) scale(0.12 -0.12)">
       <defs>
        <path id="DejaVuSans-32" d="M 1228 531 
L 3431 531 
L 3431 0 
L 469 0 
L 469 531 
Q 828 903 1448 1529 
Q 2069 2156 2228 2338 
Q 2531 2678 2651 2914 
Q 2772 3150 2772 3378 
Q 2772 3750 2511 3984 
Q 2250 4219 1831 4219 
Q 1534 4219 1204 4116 
Q 875 4013 500 3803 
L 500 4441 
Q 881 4594 1212 4672 
Q 1544 4750 1819 4750 
Q 2544 4750 2975 4387 
Q 3406 4025 3406 3419 
Q 3406 3131 3298 2873 
Q 3191 2616 2906 2266 
Q 2828 2175 2409 1742 
Q 1991 1309 1228 531 
z
" transform="scale(0.015625)"/>
       </defs>
       <use xlink:href="#DejaVuSans-32"/>
      </g>
     </g>
    </g>
    <g id="xtick_3">
     <g id="line2d_3">
      <g>
       <use xlink:href="#m7ad4f9ecc6" x="186.46563" y="320.4" style="stroke: #000000; stroke-width: 0.8"/>
      </g>
     </g>
     <g id="text_3">
      <!-- 4 -->
      <g transform="translate(182.64813 336.518125) scale(0.12 -0.12)">
       <defs>
        <path id="DejaVuSans-34" d="M 2419 4116 
L 825 1625 
L 2419 1625 
L 2419 4116 
z
M 2253 4666 
L 3047 4666 
L 3047 1625 
L 3713 1625 
L 3713 1100 
L 3047 1100 
L 3047 0 
L 2419 0 
L 2419 1100 
L 313 1100 
L 313 1709 
L 2253 4666 
z
" transform="scale(0.015625)"/>
       </defs>
       <use xlink:href="#DejaVuSans-34"/>
      </g>
     </g>
    </g>
    <g id="xtick_4">
     <g id="line2d_4">
      <g>
       <use xlink:href="#m7ad4f9ecc6" x="241.095001" y="320.4" style="stroke: #000000; stroke-width: 0.8"/>
      </g>
     </g>
     <g id="text_4">
      <!-- 6 -->
      <g transform="translate(237.277501 336.518125) scale(0.12 -0.12)">
       <defs>
        <path id="DejaVuSans-36" d="M 2113 2584 
Q 1688 2584 1439 2293 
Q 1191 2003 1191 1497 
Q 1191 994 1439 701 
Q 1688 409 2113 409 
Q 2538 409 2786 701 
Q 3034 994 3034 1497 
Q 3034 2003 2786 2293 
Q 2538 2584 2113 2584 
z
M 3366 4563 
L 3366 3988 
Q 3128 4100 2886 4159 
Q 2644 4219 2406 4219 
Q 1781 4219 1451 3797 
Q 1122 3375 1075 2522 
Q 1259 2794 1537 2939 
Q 1816 3084 2150 3084 
Q 2853 3084 3261 2657 
Q 3669 2231 3669 1497 
Q 3669 778 3244 343 
Q 2819 -91 2113 -91 
Q 1303 -91 875 529 
Q 447 1150 447 2328 
Q 447 3434 972 4092 
Q 1497 4750 2381 4750 
Q 2619 4750 2861 4703 
Q 3103 4656 3366 4563 
z
" transform="scale(0.015625)"/>
       </defs>
       <use xlink:href="#DejaVuSans-36"/>
      </g>
     </g>
    </g>
    <g id="xtick_5">
     <g id="line2d_5">
      <g>
       <use xlink:href="#m7ad4f9ecc6" x="295.724372" y="320.4" style="stroke: #000000; stroke-width: 0.8"/>
      </g>
     </g>
     <g id="text_5">
      <!-- 8 -->
      <g transform="translate(291.906872 336.518125) scale(0.12 -0.12)">
       <defs>
        <path id="DejaVuSans-38" d="M 2034 2216 
Q 1584 2216 1326 1975 
Q 1069 1734 1069 1313 
Q 1069 891 1326 650 
Q 1584 409 2034 409 
Q 2484 409 2743 651 
Q 3003 894 3003 1313 
Q 3003 1734 2745 1975 
Q 2488 2216 2034 2216 
z
M 1403 2484 
Q 997 2584 770 2862 
Q 544 3141 544 3541 
Q 544 4100 942 4425 
Q 1341 4750 2034 4750 
Q 2731 4750 3128 4425 
Q 3525 4100 3525 3541 
Q 3525 3141 3298 2862 
Q 3072 2584 2669 2484 
Q 3125 2378 3379 2068 
Q 3634 1759 3634 1313 
Q 3634 634 3220 271 
Q 2806 -91 2034 -91 
Q 1263 -91 848 271 
Q 434 634 434 1313 
Q 434 1759 690 2068 
Q 947 2378 1403 2484 
z
M 1172 3481 
Q 1172 3119 1398 2916 
Q 1625 2713 2034 2713 
Q 2441 2713 2670 2916 
Q 2900 3119 2900 3481 
Q 2900 3844 2670 4047 
Q 2441 4250 2034 4250 
Q 1625 4250 1398 4047 
Q 1172 3844 1172 3481 
z
" transform="scale(0.015625)"/>
       </defs>
       <use xlink:href="#DejaVuSans-38"/>
      </g>
     </g>
    </g>
    <g id="xtick_6">
     <g id="line2d_6">
      <g>
       <use xlink:href="#m7ad4f9ecc6" x="350.353742" y="320.4" style="stroke: #000000; stroke-width: 0.8"/>
      </g>
     </g>
     <g id="text_6">
      <!-- 10 -->
      <g transform="translate(342.718742 336.518125) scale(0.12 -0.12)">
       <defs>
        <path id="DejaVuSans-31" d="M 794 531 
L 1825 531 
L 1825 4091 
L 703 3866 
L 703 4441 
L 1819 4666 
L 2450 4666 
L 2450 531 
L 3481 531 
L 3481 0 
L 794 0 
L 794 531 
z
" transform="scale(0.015625)"/>
       </defs>
       <use xlink:href="#DejaVuSans-31"/>
       <use xlink:href="#DejaVuSans-30" x="63.623047"/>
      </g>
     </g>
    </g>
    <g id="xtick_7">
     <g id="line2d_7">
      <g>
       <use xlink:href="#m7ad4f9ecc6" x="404.983113" y="320.4" style="stroke: #000000; stroke-width: 0.8"/>
      </g>
     </g>
     <g id="text_7">
      <!-- 12 -->
      <g transform="translate(397.348113 336.518125) scale(0.12 -0.12)">
       <use xlink:href="#DejaVuSans-31"/>
       <use xlink:href="#DejaVuSans-32" x="63.623047"/>
      </g>
     </g>
    </g>
    <g id="text_8">
     <!-- Time [hr] -->
     <g transform="translate(215.658594 354.411406) scale(0.15 -0.15)">
      <defs>
       <path id="DejaVuSans-Bold-54" d="M 31 4666 
L 4331 4666 
L 4331 3756 
L 2784 3756 
L 2784 0 
L 1581 0 
L 1581 3756 
L 31 3756 
L 31 4666 
z
" transform="scale(0.015625)"/>
       <path id="DejaVuSans-Bold-69" d="M 538 3500 
L 1656 3500 
L 1656 0 
L 538 0 
L 538 3500 
z
M 538 4863 
L 1656 4863 
L 1656 3950 
L 538 3950 
L 538 4863 
z
" transform="scale(0.015625)"/>
       <path id="DejaVuSans-Bold-6d" d="M 3781 2919 
Q 3994 3244 4286 3414 
Q 4578 3584 4928 3584 
Q 5531 3584 5847 3212 
Q 6163 2841 6163 2131 
L 6163 0 
L 5038 0 
L 5038 1825 
Q 5041 1866 5042 1909 
Q 5044 1953 5044 2034 
Q 5044 2406 4934 2573 
Q 4825 2741 4581 2741 
Q 4263 2741 4089 2478 
Q 3916 2216 3909 1719 
L 3909 0 
L 2784 0 
L 2784 1825 
Q 2784 2406 2684 2573 
Q 2584 2741 2328 2741 
Q 2006 2741 1831 2477 
Q 1656 2213 1656 1722 
L 1656 0 
L 531 0 
L 531 3500 
L 1656 3500 
L 1656 2988 
Q 1863 3284 2130 3434 
Q 2397 3584 2719 3584 
Q 3081 3584 3359 3409 
Q 3638 3234 3781 2919 
z
" transform="scale(0.015625)"/>
       <path id="DejaVuSans-Bold-65" d="M 4031 1759 
L 4031 1441 
L 1416 1441 
Q 1456 1047 1700 850 
Q 1944 653 2381 653 
Q 2734 653 3104 758 
Q 3475 863 3866 1075 
L 3866 213 
Q 3469 63 3072 -14 
Q 2675 -91 2278 -91 
Q 1328 -91 801 392 
Q 275 875 275 1747 
Q 275 2603 792 3093 
Q 1309 3584 2216 3584 
Q 3041 3584 3536 3087 
Q 4031 2591 4031 1759 
z
M 2881 2131 
Q 2881 2450 2695 2645 
Q 2509 2841 2209 2841 
Q 1884 2841 1681 2658 
Q 1478 2475 1428 2131 
L 2881 2131 
z
" transform="scale(0.015625)"/>
       <path id="DejaVuSans-Bold-20" transform="scale(0.015625)"/>
       <path id="DejaVuSans-Bold-5b" d="M 550 4863 
L 2491 4863 
L 2491 4159 
L 1613 4159 
L 1613 -141 
L 2491 -141 
L 2491 -844 
L 550 -844 
L 550 4863 
z
" transform="scale(0.015625)"/>
       <path id="DejaVuSans-Bold-68" d="M 4056 2131 
L 4056 0 
L 2931 0 
L 2931 347 
L 2931 1625 
Q 2931 2084 2911 2256 
Q 2891 2428 2841 2509 
Q 2775 2619 2662 2680 
Q 2550 2741 2406 2741 
Q 2056 2741 1856 2470 
Q 1656 2200 1656 1722 
L 1656 0 
L 538 0 
L 538 4863 
L 1656 4863 
L 1656 2988 
Q 1909 3294 2193 3439 
Q 2478 3584 2822 3584 
Q 3428 3584 3742 3212 
Q 4056 2841 4056 2131 
z
" transform="scale(0.015625)"/>
       <path id="DejaVuSans-Bold-72" d="M 3138 2547 
Q 2991 2616 2845 2648 
Q 2700 2681 2553 2681 
Q 2122 2681 1889 2404 
Q 1656 2128 1656 1613 
L 1656 0 
L 538 0 
L 538 3500 
L 1656 3500 
L 1656 2925 
Q 1872 3269 2151 3426 
Q 2431 3584 2822 3584 
Q 2878 3584 2943 3579 
Q 3009 3575 3134 3559 
L 3138 2547 
z
" transform="scale(0.015625)"/>
       <path id="DejaVuSans-Bold-5d" d="M 2375 -844 
L 434 -844 
L 434 -141 
L 1313 -141 
L 1313 4159 
L 434 4159 
L 434 4863 
L 2375 4863 
L 2375 -844 
z
" transform="scale(0.015625)"/>
      </defs>
      <use xlink:href="#DejaVuSans-Bold-54"/>
      <use xlink:href="#DejaVuSans-Bold-69" x="68.212891"/>
      <use xlink:href="#DejaVuSans-Bold-6d" x="102.490234"/>
      <use xlink:href="#DejaVuSans-Bold-65" x="206.689453"/>
      <use xlink:href="#DejaVuSans-Bold-20" x="274.511719"/>
      <use xlink:href="#DejaVuSans-Bold-5b" x="309.326172"/>
      <use xlink:href="#DejaVuSans-Bold-68" x="355.029297"/>
      <use xlink:href="#DejaVuSans-Bold-72" x="426.220703"/>
      <use xlink:href="#DejaVuSans-Bold-5d" x="475.537109"/>
     </g>
    </g>
   </g>
   <g id="matplotlib.axis_2">
    <g id="ytick_1">
     <g id="line2d_8">
      <defs>
       <path id="m90a788b749" d="M 0 0 
L -3.5 0 
" style="stroke: #000000; stroke-width: 0.8"/>
      </defs>
      <g>
       <use xlink:href="#m90a788b749" x="59.452344" y="299.594323" style="stroke: #000000; stroke-width: 0.8"/>
      </g>
     </g>
     <g id="text_9">
      <!-- 0.00 -->
      <g transform="translate(25.733594 304.153386) scale(0.12 -0.12)">
       <defs>
        <path id="DejaVuSans-2e" d="M 684 794 
L 1344 794 
L 1344 0 
L 684 0 
L 684 794 
z
" transform="scale(0.015625)"/>
       </defs>
       <use xlink:href="#DejaVuSans-30"/>
       <use xlink:href="#DejaVuSans-2e" x="63.623047"/>
       <use xlink:href="#DejaVuSans-30" x="95.410156"/>
       <use xlink:href="#DejaVuSans-30" x="159.033203"/>
      </g>
     </g>
    </g>
    <g id="ytick_2">
     <g id="line2d_9">
      <g>
       <use xlink:href="#m90a788b749" x="59.452344" y="251.09727" style="stroke: #000000; stroke-width: 0.8"/>
      </g>
     </g>
     <g id="text_10">
      <!-- 0.02 -->
      <g transform="translate(25.733594 255.656333) scale(0.12 -0.12)">
       <use xlink:href="#DejaVuSans-30"/>
       <use xlink:href="#DejaVuSans-2e" x="63.623047"/>
       <use xlink:href="#DejaVuSans-30" x="95.410156"/>
       <use xlink:href="#DejaVuSans-32" x="159.033203"/>
      </g>
     </g>
    </g>
    <g id="ytick_3">
     <g id="line2d_10">
      <g>
       <use xlink:href="#m90a788b749" x="59.452344" y="202.600217" style="stroke: #000000; stroke-width: 0.8"/>
      </g>
     </g>
     <g id="text_11">
      <!-- 0.04 -->
      <g transform="translate(25.733594 207.15928) scale(0.12 -0.12)">
       <use xlink:href="#DejaVuSans-30"/>
       <use xlink:href="#DejaVuSans-2e" x="63.623047"/>
       <use xlink:href="#DejaVuSans-30" x="95.410156"/>
       <use xlink:href="#DejaVuSans-34" x="159.033203"/>
      </g>
     </g>
    </g>
    <g id="ytick_4">
     <g id="line2d_11">
      <g>
       <use xlink:href="#m90a788b749" x="59.452344" y="154.103165" style="stroke: #000000; stroke-width: 0.8"/>
      </g>
     </g>
     <g id="text_12">
      <!-- 0.06 -->
      <g transform="translate(25.733594 158.662227) scale(0.12 -0.12)">
       <use xlink:href="#DejaVuSans-30"/>
       <use xlink:href="#DejaVuSans-2e" x="63.623047"/>
       <use xlink:href="#DejaVuSans-30" x="95.410156"/>
       <use xlink:href="#DejaVuSans-36" x="159.033203"/>
      </g>
     </g>
    </g>
    <g id="ytick_5">
     <g id="line2d_12">
      <g>
       <use xlink:href="#m90a788b749" x="59.452344" y="105.606112" style="stroke: #000000; stroke-width: 0.8"/>
      </g>
     </g>
     <g id="text_13">
      <!-- 0.08 -->
      <g transform="translate(25.733594 110.165174) scale(0.12 -0.12)">
       <use xlink:href="#DejaVuSans-30"/>
       <use xlink:href="#DejaVuSans-2e" x="63.623047"/>
       <use xlink:href="#DejaVuSans-30" x="95.410156"/>
       <use xlink:href="#DejaVuSans-38" x="159.033203"/>
      </g>
     </g>
    </g>
    <g id="ytick_6">
     <g id="line2d_13">
      <g>
       <use xlink:href="#m90a788b749" x="59.452344" y="57.109059" style="stroke: #000000; stroke-width: 0.8"/>
      </g>
     </g>
     <g id="text_14">
      <!-- 0.10 -->
      <g transform="translate(25.733594 61.668121) scale(0.12 -0.12)">
       <use xlink:href="#DejaVuSans-30"/>
       <use xlink:href="#DejaVuSans-2e" x="63.623047"/>
       <use xlink:href="#DejaVuSans-31" x="95.410156"/>
       <use xlink:href="#DejaVuSans-30" x="159.033203"/>
      </g>
     </g>
    </g>
    <g id="text_15">
     <!-- Glimepiride Plasma [µM] -->
     <g transform="translate(18.597656 286.194141) rotate(-90) scale(0.15 -0.15)">
      <defs>
       <path id="DejaVuSans-Bold-47" d="M 4781 347 
Q 4331 128 3847 18 
Q 3363 -91 2847 -91 
Q 1681 -91 1000 561 
Q 319 1213 319 2328 
Q 319 3456 1012 4103 
Q 1706 4750 2913 4750 
Q 3378 4750 3804 4662 
Q 4231 4575 4609 4403 
L 4609 3438 
Q 4219 3659 3833 3768 
Q 3447 3878 3059 3878 
Q 2341 3878 1952 3476 
Q 1563 3075 1563 2328 
Q 1563 1588 1938 1184 
Q 2313 781 3003 781 
Q 3191 781 3352 804 
Q 3513 828 3641 878 
L 3641 1784 
L 2906 1784 
L 2906 2591 
L 4781 2591 
L 4781 347 
z
" transform="scale(0.015625)"/>
       <path id="DejaVuSans-Bold-6c" d="M 538 4863 
L 1656 4863 
L 1656 0 
L 538 0 
L 538 4863 
z
" transform="scale(0.015625)"/>
       <path id="DejaVuSans-Bold-70" d="M 1656 506 
L 1656 -1331 
L 538 -1331 
L 538 3500 
L 1656 3500 
L 1656 2988 
Q 1888 3294 2169 3439 
Q 2450 3584 2816 3584 
Q 3463 3584 3878 3070 
Q 4294 2556 4294 1747 
Q 4294 938 3878 423 
Q 3463 -91 2816 -91 
Q 2450 -91 2169 54 
Q 1888 200 1656 506 
z
M 2400 2772 
Q 2041 2772 1848 2508 
Q 1656 2244 1656 1747 
Q 1656 1250 1848 986 
Q 2041 722 2400 722 
Q 2759 722 2948 984 
Q 3138 1247 3138 1747 
Q 3138 2247 2948 2509 
Q 2759 2772 2400 2772 
z
" transform="scale(0.015625)"/>
       <path id="DejaVuSans-Bold-64" d="M 2919 2988 
L 2919 4863 
L 4044 4863 
L 4044 0 
L 2919 0 
L 2919 506 
Q 2688 197 2409 53 
Q 2131 -91 1766 -91 
Q 1119 -91 703 423 
Q 288 938 288 1747 
Q 288 2556 703 3070 
Q 1119 3584 1766 3584 
Q 2128 3584 2408 3439 
Q 2688 3294 2919 2988 
z
M 2181 722 
Q 2541 722 2730 984 
Q 2919 1247 2919 1747 
Q 2919 2247 2730 2509 
Q 2541 2772 2181 2772 
Q 1825 2772 1636 2509 
Q 1447 2247 1447 1747 
Q 1447 1247 1636 984 
Q 1825 722 2181 722 
z
" transform="scale(0.015625)"/>
       <path id="DejaVuSans-Bold-50" d="M 588 4666 
L 2584 4666 
Q 3475 4666 3951 4270 
Q 4428 3875 4428 3144 
Q 4428 2409 3951 2014 
Q 3475 1619 2584 1619 
L 1791 1619 
L 1791 0 
L 588 0 
L 588 4666 
z
M 1791 3794 
L 1791 2491 
L 2456 2491 
Q 2806 2491 2997 2661 
Q 3188 2831 3188 3144 
Q 3188 3456 2997 3625 
Q 2806 3794 2456 3794 
L 1791 3794 
z
" transform="scale(0.015625)"/>
       <path id="DejaVuSans-Bold-61" d="M 2106 1575 
Q 1756 1575 1579 1456 
Q 1403 1338 1403 1106 
Q 1403 894 1545 773 
Q 1688 653 1941 653 
Q 2256 653 2472 879 
Q 2688 1106 2688 1447 
L 2688 1575 
L 2106 1575 
z
M 3816 1997 
L 3816 0 
L 2688 0 
L 2688 519 
Q 2463 200 2181 54 
Q 1900 -91 1497 -91 
Q 953 -91 614 226 
Q 275 544 275 1050 
Q 275 1666 698 1953 
Q 1122 2241 2028 2241 
L 2688 2241 
L 2688 2328 
Q 2688 2594 2478 2717 
Q 2269 2841 1825 2841 
Q 1466 2841 1156 2769 
Q 847 2697 581 2553 
L 581 3406 
Q 941 3494 1303 3539 
Q 1666 3584 2028 3584 
Q 2975 3584 3395 3211 
Q 3816 2838 3816 1997 
z
" transform="scale(0.015625)"/>
       <path id="DejaVuSans-Bold-73" d="M 3272 3391 
L 3272 2541 
Q 2913 2691 2578 2766 
Q 2244 2841 1947 2841 
Q 1628 2841 1473 2761 
Q 1319 2681 1319 2516 
Q 1319 2381 1436 2309 
Q 1553 2238 1856 2203 
L 2053 2175 
Q 2913 2066 3209 1816 
Q 3506 1566 3506 1031 
Q 3506 472 3093 190 
Q 2681 -91 1863 -91 
Q 1516 -91 1145 -36 
Q 775 19 384 128 
L 384 978 
Q 719 816 1070 734 
Q 1422 653 1784 653 
Q 2113 653 2278 743 
Q 2444 834 2444 1013 
Q 2444 1163 2330 1236 
Q 2216 1309 1875 1350 
L 1678 1375 
Q 931 1469 631 1722 
Q 331 1975 331 2491 
Q 331 3047 712 3315 
Q 1094 3584 1881 3584 
Q 2191 3584 2531 3537 
Q 2872 3491 3272 3391 
z
" transform="scale(0.015625)"/>
       <path id="DejaVuSans-Bold-b5" d="M 544 -1338 
L 544 3500 
L 1672 3500 
L 1672 1466 
Q 1672 1103 1828 926 
Q 1984 750 2303 750 
Q 2625 750 2781 926 
Q 2938 1103 2938 1466 
L 2938 3500 
L 4063 3500 
L 4063 1159 
Q 4063 938 4114 850 
Q 4166 763 4288 763 
Q 4344 763 4395 778 
Q 4447 794 4506 831 
L 4506 50 
Q 4341 -22 4195 -56 
Q 4050 -91 3909 -91 
Q 3631 -91 3454 26 
Q 3278 144 3169 403 
Q 3022 156 2811 32 
Q 2600 -91 2322 -91 
Q 2091 -91 1928 -17 
Q 1766 56 1672 206 
L 1672 -1338 
L 544 -1338 
z
" transform="scale(0.015625)"/>
       <path id="DejaVuSans-Bold-4d" d="M 588 4666 
L 2119 4666 
L 3181 2169 
L 4250 4666 
L 5778 4666 
L 5778 0 
L 4641 0 
L 4641 3413 
L 3566 897 
L 2803 897 
L 1728 3413 
L 1728 0 
L 588 0 
L 588 4666 
z
" transform="scale(0.015625)"/>
      </defs>
      <use xlink:href="#DejaVuSans-Bold-47"/>
      <use xlink:href="#DejaVuSans-Bold-6c" x="82.080078"/>
      <use xlink:href="#DejaVuSans-Bold-69" x="116.357422"/>
      <use xlink:href="#DejaVuSans-Bold-6d" x="150.634766"/>
      <use xlink:href="#DejaVuSans-Bold-65" x="254.833984"/>
      <use xlink:href="#DejaVuSans-Bold-70" x="322.65625"/>
      <use xlink:href="#DejaVuSans-Bold-69" x="394.238281"/>
      <use xlink:href="#DejaVuSans-Bold-72" x="428.515625"/>
      <use xlink:href="#DejaVuSans-Bold-69" x="477.832031"/>
      <use xlink:href="#DejaVuSans-Bold-64" x="512.109375"/>
      <use xlink:href="#DejaVuSans-Bold-65" x="583.691406"/>
      <use xlink:href="#DejaVuSans-Bold-20" x="651.513672"/>
      <use xlink:href="#DejaVuSans-Bold-50" x="686.328125"/>
      <use xlink:href="#DejaVuSans-Bold-6c" x="759.619141"/>
      <use xlink:href="#DejaVuSans-Bold-61" x="793.896484"/>
      <use xlink:href="#DejaVuSans-Bold-73" x="861.376953"/>
      <use xlink:href="#DejaVuSans-Bold-6d" x="920.898438"/>
      <use xlink:href="#DejaVuSans-Bold-61" x="1025.097656"/>
      <use xlink:href="#DejaVuSans-Bold-20" x="1092.578125"/>
      <use xlink:href="#DejaVuSans-Bold-5b" x="1127.392578"/>
      <use xlink:href="#DejaVuSans-Bold-b5" x="1173.095703"/>
      <use xlink:href="#DejaVuSans-Bold-4d" x="1246.679688"/>
      <use xlink:href="#DejaVuSans-Bold-5d" x="1346.191406"/>
     </g>
    </g>
   </g>
   <g id="LineCollection_1">
    <path clip-path="url(#pcfbc036cf4)" style="fill: none; stroke: #66c2a5"/>
    <path d="M 90.864232 268.765192 
L 90.864232 195.178363 
" clip-path="url(#pcfbc036cf4)" style="fill: none; stroke: #66c2a5"/>
    <path d="M 104.521575 213.710316 
L 104.521575 105.782929 
" clip-path="url(#pcfbc036cf4)" style="fill: none; stroke: #66c2a5"/>
    <path d="M 118.178917 201.445807 
L 118.178917 118.047438 
" clip-path="url(#pcfbc036cf4)" style="fill: none; stroke: #66c2a5"/>
    <path d="M 131.83626 227.999167 
L 131.83626 144.600798 
" clip-path="url(#pcfbc036cf4)" style="fill: none; stroke: #66c2a5"/>
    <path d="M 145.493602 245.069575 
L 145.493602 176.388572 
" clip-path="url(#pcfbc036cf4)" style="fill: none; stroke: #66c2a5"/>
    <path d="M 159.150945 254.843998 
L 159.150945 193.521565 
" clip-path="url(#pcfbc036cf4)" style="fill: none; stroke: #66c2a5"/>
    <path d="M 186.46563 278.703893 
L 186.46563 210.022777 
" clip-path="url(#pcfbc036cf4)" style="fill: none; stroke: #66c2a5"/>
    <path d="M 213.780316 289.843642 
L 213.780316 218.709558 
" clip-path="url(#pcfbc036cf4)" style="fill: none; stroke: #66c2a5"/>
    <path d="M 268.409686 294.105668 
L 268.409686 259.765223 
" clip-path="url(#pcfbc036cf4)" style="fill: none; stroke: #66c2a5"/>
    <path d="M 350.353742 304.069724 
L 350.353742 279.54093 
" clip-path="url(#pcfbc036cf4)" style="fill: none; stroke: #66c2a5"/>
    <path d="M 404.983113 307.8 
L 404.983113 285.723951 
" clip-path="url(#pcfbc036cf4)" style="fill: none; stroke: #66c2a5"/>
   </g>
   <g id="LineCollection_2">
    <path clip-path="url(#pcfbc036cf4)" style="fill: none; stroke: #fc8d62"/>
    <path d="M 90.864232 284.896281 
L 90.864232 254.81284 
" clip-path="url(#pcfbc036cf4)" style="fill: none; stroke: #fc8d62"/>
    <path d="M 104.521575 234.110003 
L 104.521575 153.359844 
" clip-path="url(#pcfbc036cf4)" style="fill: none; stroke: #fc8d62"/>
    <path d="M 118.178917 214.740848 
L 118.178917 138.740698 
" clip-path="url(#pcfbc036cf4)" style="fill: none; stroke: #fc8d62"/>
    <path d="M 131.83626 211.052973 
L 131.83626 144.552842 
" clip-path="url(#pcfbc036cf4)" style="fill: none; stroke: #fc8d62"/>
    <path d="M 145.493602 216.466949 
L 145.493602 154.716827 
" clip-path="url(#pcfbc036cf4)" style="fill: none; stroke: #fc8d62"/>
    <path d="M 159.150945 217.9667 
L 159.150945 154.633265 
" clip-path="url(#pcfbc036cf4)" style="fill: none; stroke: #fc8d62"/>
    <path d="M 186.46563 244.962341 
L 186.46563 153.12885 
" clip-path="url(#pcfbc036cf4)" style="fill: none; stroke: #fc8d62"/>
    <path d="M 213.780316 266.367523 
L 213.780316 198.284079 
" clip-path="url(#pcfbc036cf4)" style="fill: none; stroke: #fc8d62"/>
    <path d="M 268.409686 283.042454 
L 268.409686 254.542398 
" clip-path="url(#pcfbc036cf4)" style="fill: none; stroke: #fc8d62"/>
    <path d="M 350.353742 293.265646 
L 350.353742 279.015618 
" clip-path="url(#pcfbc036cf4)" style="fill: none; stroke: #fc8d62"/>
    <path d="M 404.983113 305.991552 
L 404.983113 285.40813 
" clip-path="url(#pcfbc036cf4)" style="fill: none; stroke: #fc8d62"/>
   </g>
   <g id="LineCollection_3">
    <path clip-path="url(#pcfbc036cf4)" style="fill: none; stroke: #8da0cb"/>
    <path d="M 90.864232 297.297106 
L 90.864232 212.672252 
" clip-path="url(#pcfbc036cf4)" style="fill: none; stroke: #8da0cb"/>
    <path d="M 104.521575 244.530809 
L 104.521575 123.11254 
" clip-path="url(#pcfbc036cf4)" style="fill: none; stroke: #8da0cb"/>
    <path d="M 118.178917 210.801667 
L 118.178917 88.15697 
" clip-path="url(#pcfbc036cf4)" style="fill: none; stroke: #8da0cb"/>
    <path d="M 131.83626 192.916521 
L 131.83626 86.215618 
" clip-path="url(#pcfbc036cf4)" style="fill: none; stroke: #8da0cb"/>
    <path d="M 145.493602 185.80338 
L 145.493602 55.8 
" clip-path="url(#pcfbc036cf4)" style="fill: none; stroke: #8da0cb"/>
    <path d="M 159.150945 182.927014 
L 159.150945 61.508746 
" clip-path="url(#pcfbc036cf4)" style="fill: none; stroke: #8da0cb"/>
    <path d="M 186.46563 187.890447 
L 186.46563 84.868886 
" clip-path="url(#pcfbc036cf4)" style="fill: none; stroke: #8da0cb"/>
    <path d="M 213.780316 218.534867 
L 213.780316 136.36287 
" clip-path="url(#pcfbc036cf4)" style="fill: none; stroke: #8da0cb"/>
    <path d="M 268.409686 260.545883 
L 268.409686 172.241688 
" clip-path="url(#pcfbc036cf4)" style="fill: none; stroke: #8da0cb"/>
    <path d="M 350.353742 278.046604 
L 350.353742 219.177141 
" clip-path="url(#pcfbc036cf4)" style="fill: none; stroke: #8da0cb"/>
    <path d="M 404.983113 288.794996 
L 404.983113 254.454551 
" clip-path="url(#pcfbc036cf4)" style="fill: none; stroke: #8da0cb"/>
   </g>
   <g id="line2d_14">
    <path d="M 77.206889 299.594323 
L 77.917071 299.47334 
L 78.627253 298.942598 
L 79.337435 297.970064 
L 80.047616 296.586918 
L 80.757798 294.830032 
L 82.178162 290.334844 
L 83.598526 284.742647 
L 85.018889 278.279041 
L 87.149435 267.372344 
L 89.990162 251.404704 
L 99.222526 198.168998 
L 102.063253 183.35279 
L 104.90398 169.781349 
L 107.034526 160.499271 
L 109.165071 152.018446 
L 111.295616 144.349427 
L 113.426162 137.489091 
L 115.556707 131.423605 
L 117.687253 126.130885 
L 119.817798 121.582633 
L 121.948344 117.746 
L 123.368707 115.565895 
L 124.789071 113.674876 
L 126.209435 112.061439 
L 127.629798 110.713908 
L 129.050162 109.620526 
L 130.470526 108.769528 
L 131.890889 108.149216 
L 133.311253 107.748012 
L 134.731616 107.554507 
L 136.15198 107.5575 
L 137.572344 107.746033 
L 138.992707 108.10942 
L 140.413071 108.637262 
L 142.543616 109.715403 
L 144.674162 111.108269 
L 146.804707 112.784875 
L 148.935253 114.715957 
L 151.77598 117.639252 
L 154.616707 120.905685 
L 158.167616 125.387599 
L 161.718526 130.222931 
L 166.689798 137.426036 
L 173.081435 147.146364 
L 192.256344 176.625998 
L 198.64798 185.927405 
L 204.329435 193.82157 
L 210.010889 201.32187 
L 214.982162 207.54278 
L 219.953435 213.436413 
L 224.924707 219.001098 
L 229.89598 224.239798 
L 234.867253 229.159043 
L 239.838526 233.768052 
L 244.809798 238.078011 
L 249.781071 242.101486 
L 254.752344 245.851951 
L 259.723616 249.343402 
L 264.694889 252.59006 
L 270.376344 256.018994 
L 276.057798 259.167615 
L 281.739253 262.056191 
L 287.420707 264.704195 
L 293.812344 267.418704 
L 300.20398 269.877093 
L 306.595616 272.102586 
L 313.697435 274.328341 
L 320.799253 276.320244 
L 328.611253 278.27062 
L 336.423253 279.997451 
L 344.945435 281.6573 
L 354.177798 283.225844 
L 364.120344 284.685468 
L 374.773071 286.025123 
L 386.846162 287.309267 
L 399.629435 288.446219 
L 414.543253 289.540354 
L 430.877435 290.513591 
L 432.297798 290.588967 
L 432.297798 290.588967 
" clip-path="url(#pcfbc036cf4)" style="fill: none; stroke: #66c2a5; stroke-width: 2; stroke-linecap: square"/>
   </g>
   <g id="line2d_15">
    <path d="M 77.206889 299.594323 
L 90.864232 231.971778 
L 104.521575 159.746623 
L 118.178917 159.746623 
L 131.83626 186.299983 
L 145.493602 210.729074 
L 159.150945 224.182781 
L 186.46563 244.363335 
L 213.780316 254.2766 
L 268.409686 276.935445 
L 350.353742 291.805327 
L 404.983113 296.761976 
" clip-path="url(#pcfbc036cf4)" style="fill: none; stroke-dasharray: 3.7,1.6; stroke-dashoffset: 0; stroke: #66c2a5"/>
    <defs>
     <path id="md8f8273080" d="M -3 3 
L 3 3 
L 3 -3 
L -3 -3 
z
" style="stroke: #000000; stroke-linejoin: miter"/>
    </defs>
    <g clip-path="url(#pcfbc036cf4)">
     <use xlink:href="#md8f8273080" x="77.206889" y="299.594323" style="fill: #66c2a5; stroke: #000000; stroke-linejoin: miter"/>
     <use xlink:href="#md8f8273080" x="90.864232" y="231.971778" style="fill: #66c2a5; stroke: #000000; stroke-linejoin: miter"/>
     <use xlink:href="#md8f8273080" x="104.521575" y="159.746623" style="fill: #66c2a5; stroke: #000000; stroke-linejoin: miter"/>
     <use xlink:href="#md8f8273080" x="118.178917" y="159.746623" style="fill: #66c2a5; stroke: #000000; stroke-linejoin: miter"/>
     <use xlink:href="#md8f8273080" x="131.83626" y="186.299983" style="fill: #66c2a5; stroke: #000000; stroke-linejoin: miter"/>
     <use xlink:href="#md8f8273080" x="145.493602" y="210.729074" style="fill: #66c2a5; stroke: #000000; stroke-linejoin: miter"/>
     <use xlink:href="#md8f8273080" x="159.150945" y="224.182781" style="fill: #66c2a5; stroke: #000000; stroke-linejoin: miter"/>
     <use xlink:href="#md8f8273080" x="186.46563" y="244.363335" style="fill: #66c2a5; stroke: #000000; stroke-linejoin: miter"/>
     <use xlink:href="#md8f8273080" x="213.780316" y="254.2766" style="fill: #66c2a5; stroke: #000000; stroke-linejoin: miter"/>
     <use xlink:href="#md8f8273080" x="268.409686" y="276.935445" style="fill: #66c2a5; stroke: #000000; stroke-linejoin: miter"/>
     <use xlink:href="#md8f8273080" x="350.353742" y="291.805327" style="fill: #66c2a5; stroke: #000000; stroke-linejoin: miter"/>
     <use xlink:href="#md8f8273080" x="404.983113" y="296.761976" style="fill: #66c2a5; stroke: #000000; stroke-linejoin: miter"/>
    </g>
   </g>
   <g id="line2d_16">
    <path d="M 77.206889 299.594323 
L 77.917071 299.473197 
L 78.627253 298.941259 
L 79.337435 297.965612 
L 80.047616 296.576878 
L 80.757798 294.811494 
L 82.178162 290.289136 
L 83.598526 284.654262 
L 85.018889 278.130701 
L 87.149435 267.099129 
L 89.990162 250.896834 
L 99.932707 192.445806 
L 102.773435 177.382772 
L 105.614162 163.557429 
L 107.744707 154.074188 
L 109.875253 145.380224 
L 112.005798 137.484846 
L 114.136344 130.384577 
L 116.266889 124.065912 
L 118.397435 118.507609 
L 120.52798 113.68258 
L 122.658526 109.559454 
L 124.789071 106.103852 
L 126.209435 104.153074 
L 127.629798 102.471774 
L 129.050162 101.048755 
L 130.470526 99.872776 
L 131.890889 98.932618 
L 133.311253 98.217145 
L 134.731616 97.715352 
L 136.15198 97.416409 
L 137.572344 97.309691 
L 138.992707 97.384811 
L 140.413071 97.631642 
L 141.833435 98.040335 
L 143.96398 98.936044 
L 146.094526 100.14355 
L 148.225071 101.63348 
L 150.355616 103.378071 
L 153.196344 106.055376 
L 156.037071 109.081552 
L 158.877798 112.403944 
L 162.428707 116.900886 
L 166.689798 122.692386 
L 171.661071 129.837153 
L 178.762889 140.45958 
L 195.097071 165.024505 
L 202.198889 175.227123 
L 208.590526 183.99699 
L 214.27198 191.417957 
L 219.953435 198.462538 
L 225.634889 205.119267 
L 230.606162 210.623318 
L 235.577435 215.830392 
L 240.548707 220.74574 
L 245.51998 225.376887 
L 250.491253 229.733051 
L 255.462526 233.824663 
L 260.433798 237.662983 
L 266.115253 241.754591 
L 271.796707 245.548715 
L 277.478162 249.063382 
L 283.159616 252.316396 
L 288.841071 255.325121 
L 295.232707 258.438782 
L 301.624344 261.28726 
L 308.01598 263.8921 
L 314.407616 266.273531 
L 321.509435 268.680467 
L 328.611253 270.858854 
L 336.423253 273.017311 
L 344.235253 274.952464 
L 352.757435 276.837062 
L 361.989798 278.64342 
L 371.932344 280.350031 
L 382.585071 281.941654 
L 393.94798 283.409047 
L 406.021071 284.748419 
L 419.514526 286.022558 
L 432.297798 287.05049 
L 432.297798 287.05049 
" clip-path="url(#pcfbc036cf4)" style="fill: none; stroke: #fc8d62; stroke-width: 2; stroke-linecap: square"/>
   </g>
   <g id="line2d_17">
    <path d="M 77.206889 299.594323 
L 90.864232 269.85456 
L 104.521575 193.734923 
L 118.178917 176.740773 
L 131.83626 177.802908 
L 145.493602 185.591888 
L 159.150945 186.299983 
L 186.46563 199.045595 
L 213.780316 232.325801 
L 268.409686 268.792426 
L 350.353742 286.140632 
L 404.983113 295.699841 
" clip-path="url(#pcfbc036cf4)" style="fill: none; stroke-dasharray: 3.7,1.6; stroke-dashoffset: 0; stroke: #fc8d62"/>
    <defs>
     <path id="m42d11c0505" d="M -3 3 
L 3 3 
L 3 -3 
L -3 -3 
z
" style="stroke: #000000; stroke-linejoin: miter"/>
    </defs>
    <g clip-path="url(#pcfbc036cf4)">
     <use xlink:href="#m42d11c0505" x="77.206889" y="299.594323" style="fill: #fc8d62; stroke: #000000; stroke-linejoin: miter"/>
     <use xlink:href="#m42d11c0505" x="90.864232" y="269.85456" style="fill: #fc8d62; stroke: #000000; stroke-linejoin: miter"/>
     <use xlink:href="#m42d11c0505" x="104.521575" y="193.734923" style="fill: #fc8d62; stroke: #000000; stroke-linejoin: miter"/>
     <use xlink:href="#m42d11c0505" x="118.178917" y="176.740773" style="fill: #fc8d62; stroke: #000000; stroke-linejoin: miter"/>
     <use xlink:href="#m42d11c0505" x="131.83626" y="177.802908" style="fill: #fc8d62; stroke: #000000; stroke-linejoin: miter"/>
     <use xlink:href="#m42d11c0505" x="145.493602" y="185.591888" style="fill: #fc8d62; stroke: #000000; stroke-linejoin: miter"/>
     <use xlink:href="#m42d11c0505" x="159.150945" y="186.299983" style="fill: #fc8d62; stroke: #000000; stroke-linejoin: miter"/>
     <use xlink:href="#m42d11c0505" x="186.46563" y="199.045595" style="fill: #fc8d62; stroke: #000000; stroke-linejoin: miter"/>
     <use xlink:href="#m42d11c0505" x="213.780316" y="232.325801" style="fill: #fc8d62; stroke: #000000; stroke-linejoin: miter"/>
     <use xlink:href="#m42d11c0505" x="268.409686" y="268.792426" style="fill: #fc8d62; stroke: #000000; stroke-linejoin: miter"/>
     <use xlink:href="#m42d11c0505" x="350.353742" y="286.140632" style="fill: #fc8d62; stroke: #000000; stroke-linejoin: miter"/>
     <use xlink:href="#m42d11c0505" x="404.983113" y="295.699841" style="fill: #fc8d62; stroke: #000000; stroke-linejoin: miter"/>
    </g>
   </g>
   <g id="line2d_18">
    <path d="M 77.206889 299.594323 
L 77.917071 299.472995 
L 78.627253 298.939367 
L 79.337435 297.959315 
L 80.047616 296.562659 
L 80.757798 294.785208 
L 82.178162 290.224186 
L 83.598526 284.528426 
L 85.018889 277.919107 
L 87.149435 266.708336 
L 89.990162 250.16777 
L 101.353071 181.599452 
L 104.193798 166.296857 
L 107.034526 152.232213 
L 109.875253 139.501858 
L 112.005798 130.855978 
L 114.136344 122.985953 
L 116.266889 115.883008 
L 118.397435 109.530371 
L 120.52798 103.905145 
L 122.658526 98.97986 
L 124.789071 94.723746 
L 126.919616 91.103779 
L 129.050162 88.08553 
L 130.470526 86.390309 
L 131.890889 84.936429 
L 133.311253 83.713447 
L 134.731616 82.711002 
L 136.15198 81.918856 
L 137.572344 81.326932 
L 138.992707 80.925344 
L 140.413071 80.704422 
L 141.833435 80.654732 
L 143.253798 80.767095 
L 145.384344 81.220059 
L 147.514889 81.988722 
L 149.645435 83.045597 
L 151.77598 84.364653 
L 153.906526 85.921321 
L 156.747253 88.326728 
L 159.58798 91.062686 
L 162.428707 94.08259 
L 165.979616 98.19241 
L 170.240707 103.518294 
L 175.21198 110.135195 
L 181.603616 119.054144 
L 208.590526 157.212571 
L 214.982162 165.675307 
L 221.373798 173.773867 
L 227.055253 180.642172 
L 232.736707 187.187 
L 238.418162 193.403468 
L 244.099616 199.292014 
L 249.781071 204.857149 
L 255.462526 210.106442 
L 261.14398 215.049709 
L 266.825435 219.698354 
L 272.506889 224.064852 
L 278.188344 228.162332 
L 283.869798 232.004256 
L 289.551253 235.604169 
L 295.942889 239.381502 
L 302.334526 242.888246 
L 308.726162 246.142514 
L 315.117798 249.161682 
L 322.219616 252.26068 
L 329.321435 255.111283 
L 336.423253 257.733565 
L 344.235253 260.376652 
L 352.047253 262.78911 
L 360.569435 265.182651 
L 369.091616 267.351889 
L 378.32398 269.475007 
L 388.266526 271.526408 
L 398.919253 273.485685 
L 410.282162 275.337678 
L 422.355253 277.072293 
L 432.297798 278.344119 
L 432.297798 278.344119 
" clip-path="url(#pcfbc036cf4)" style="fill: none; stroke: #8da0cb; stroke-width: 2; stroke-linecap: square"/>
   </g>
   <g id="line2d_19">
    <path d="M 77.206889 299.594323 
L 90.864232 254.984679 
L 104.521575 183.821675 
L 118.178917 149.479318 
L 131.83626 139.566069 
L 145.493602 120.80169 
L 159.150945 122.21788 
L 186.46563 136.379666 
L 213.780316 177.448868 
L 268.409686 216.393785 
L 350.353742 248.611872 
L 404.983113 271.624773 
" clip-path="url(#pcfbc036cf4)" style="fill: none; stroke-dasharray: 3.7,1.6; stroke-dashoffset: 0; stroke: #8da0cb"/>
    <defs>
     <path id="m74aa2ff5b1" d="M -3 3 
L 3 3 
L 3 -3 
L -3 -3 
z
" style="stroke: #000000; stroke-linejoin: miter"/>
    </defs>
    <g clip-path="url(#pcfbc036cf4)">
     <use xlink:href="#m74aa2ff5b1" x="77.206889" y="299.594323" style="fill: #8da0cb; stroke: #000000; stroke-linejoin: miter"/>
     <use xlink:href="#m74aa2ff5b1" x="90.864232" y="254.984679" style="fill: #8da0cb; stroke: #000000; stroke-linejoin: miter"/>
     <use xlink:href="#m74aa2ff5b1" x="104.521575" y="183.821675" style="fill: #8da0cb; stroke: #000000; stroke-linejoin: miter"/>
     <use xlink:href="#m74aa2ff5b1" x="118.178917" y="149.479318" style="fill: #8da0cb; stroke: #000000; stroke-linejoin: miter"/>
     <use xlink:href="#m74aa2ff5b1" x="131.83626" y="139.566069" style="fill: #8da0cb; stroke: #000000; stroke-linejoin: miter"/>
     <use xlink:href="#m74aa2ff5b1" x="145.493602" y="120.80169" style="fill: #8da0cb; stroke: #000000; stroke-linejoin: miter"/>
     <use xlink:href="#m74aa2ff5b1" x="159.150945" y="122.21788" style="fill: #8da0cb; stroke: #000000; stroke-linejoin: miter"/>
     <use xlink:href="#m74aa2ff5b1" x="186.46563" y="136.379666" style="fill: #8da0cb; stroke: #000000; stroke-linejoin: miter"/>
     <use xlink:href="#m74aa2ff5b1" x="213.780316" y="177.448868" style="fill: #8da0cb; stroke: #000000; stroke-linejoin: miter"/>
     <use xlink:href="#m74aa2ff5b1" x="268.409686" y="216.393785" style="fill: #8da0cb; stroke: #000000; stroke-linejoin: miter"/>
     <use xlink:href="#m74aa2ff5b1" x="350.353742" y="248.611872" style="fill: #8da0cb; stroke: #000000; stroke-linejoin: miter"/>
     <use xlink:href="#m74aa2ff5b1" x="404.983113" y="271.624773" style="fill: #8da0cb; stroke: #000000; stroke-linejoin: miter"/>
    </g>
   </g>
   <g id="patch_3">
    <path d="M 59.452344 320.4 
L 59.452344 43.2 
" style="fill: none; stroke: #000000; stroke-width: 0.8; stroke-linejoin: miter; stroke-linecap: square"/>
   </g>
   <g id="patch_4">
    <path d="M 450.052344 320.4 
L 450.052344 43.2 
" style="fill: none; stroke: #000000; stroke-width: 0.8; stroke-linejoin: miter; stroke-linecap: square"/>
   </g>
   <g id="patch_5">
    <path d="M 59.452344 320.4 
L 450.052344 320.4 
" style="fill: none; stroke: #000000; stroke-width: 0.8; stroke-linejoin: miter; stroke-linecap: square"/>
   </g>
   <g id="patch_6">
    <path d="M 59.452344 43.2 
L 450.052344 43.2 
" style="fill: none; stroke: #000000; stroke-width: 0.8; stroke-linejoin: miter; stroke-linecap: square"/>
   </g>
   <g id="legend_1">
    <g id="patch_7">
     <path d="M 258.304531 129.661875 
L 443.752344 129.661875 
Q 445.552344 129.661875 445.552344 127.861875 
L 445.552344 49.5 
Q 445.552344 47.7 443.752344 47.7 
L 258.304531 47.7 
Q 256.504531 47.7 256.504531 49.5 
L 256.504531 127.861875 
Q 256.504531 129.661875 258.304531 129.661875 
z
" style="fill: #ffffff; opacity: 0.8; stroke: #cccccc; stroke-linejoin: miter"/>
    </g>
    <g id="line2d_20">
     <path d="M 260.104531 54.988594 
L 278.104531 54.988594 
" style="fill: none; stroke: #66c2a5; stroke-width: 2; stroke-linecap: square"/>
    </g>
    <g id="line2d_21"/>
    <g id="text_16">
     <!-- Sim 0.5mg PO (*1/*1) -->
     <g transform="translate(285.304531 58.138594) scale(0.09 -0.09)">
      <defs>
       <path id="DejaVuSans-53" d="M 3425 4513 
L 3425 3897 
Q 3066 4069 2747 4153 
Q 2428 4238 2131 4238 
Q 1616 4238 1336 4038 
Q 1056 3838 1056 3469 
Q 1056 3159 1242 3001 
Q 1428 2844 1947 2747 
L 2328 2669 
Q 3034 2534 3370 2195 
Q 3706 1856 3706 1288 
Q 3706 609 3251 259 
Q 2797 -91 1919 -91 
Q 1588 -91 1214 -16 
Q 841 59 441 206 
L 441 856 
Q 825 641 1194 531 
Q 1563 422 1919 422 
Q 2459 422 2753 634 
Q 3047 847 3047 1241 
Q 3047 1584 2836 1778 
Q 2625 1972 2144 2069 
L 1759 2144 
Q 1053 2284 737 2584 
Q 422 2884 422 3419 
Q 422 4038 858 4394 
Q 1294 4750 2059 4750 
Q 2388 4750 2728 4690 
Q 3069 4631 3425 4513 
z
" transform="scale(0.015625)"/>
       <path id="DejaVuSans-69" d="M 603 3500 
L 1178 3500 
L 1178 0 
L 603 0 
L 603 3500 
z
M 603 4863 
L 1178 4863 
L 1178 4134 
L 603 4134 
L 603 4863 
z
" transform="scale(0.015625)"/>
       <path id="DejaVuSans-6d" d="M 3328 2828 
Q 3544 3216 3844 3400 
Q 4144 3584 4550 3584 
Q 5097 3584 5394 3201 
Q 5691 2819 5691 2113 
L 5691 0 
L 5113 0 
L 5113 2094 
Q 5113 2597 4934 2840 
Q 4756 3084 4391 3084 
Q 3944 3084 3684 2787 
Q 3425 2491 3425 1978 
L 3425 0 
L 2847 0 
L 2847 2094 
Q 2847 2600 2669 2842 
Q 2491 3084 2119 3084 
Q 1678 3084 1418 2786 
Q 1159 2488 1159 1978 
L 1159 0 
L 581 0 
L 581 3500 
L 1159 3500 
L 1159 2956 
Q 1356 3278 1631 3431 
Q 1906 3584 2284 3584 
Q 2666 3584 2933 3390 
Q 3200 3197 3328 2828 
z
" transform="scale(0.015625)"/>
       <path id="DejaVuSans-20" transform="scale(0.015625)"/>
       <path id="DejaVuSans-35" d="M 691 4666 
L 3169 4666 
L 3169 4134 
L 1269 4134 
L 1269 2991 
Q 1406 3038 1543 3061 
Q 1681 3084 1819 3084 
Q 2600 3084 3056 2656 
Q 3513 2228 3513 1497 
Q 3513 744 3044 326 
Q 2575 -91 1722 -91 
Q 1428 -91 1123 -41 
Q 819 9 494 109 
L 494 744 
Q 775 591 1075 516 
Q 1375 441 1709 441 
Q 2250 441 2565 725 
Q 2881 1009 2881 1497 
Q 2881 1984 2565 2268 
Q 2250 2553 1709 2553 
Q 1456 2553 1204 2497 
Q 953 2441 691 2322 
L 691 4666 
z
" transform="scale(0.015625)"/>
       <path id="DejaVuSans-67" d="M 2906 1791 
Q 2906 2416 2648 2759 
Q 2391 3103 1925 3103 
Q 1463 3103 1205 2759 
Q 947 2416 947 1791 
Q 947 1169 1205 825 
Q 1463 481 1925 481 
Q 2391 481 2648 825 
Q 2906 1169 2906 1791 
z
M 3481 434 
Q 3481 -459 3084 -895 
Q 2688 -1331 1869 -1331 
Q 1566 -1331 1297 -1286 
Q 1028 -1241 775 -1147 
L 775 -588 
Q 1028 -725 1275 -790 
Q 1522 -856 1778 -856 
Q 2344 -856 2625 -561 
Q 2906 -266 2906 331 
L 2906 616 
Q 2728 306 2450 153 
Q 2172 0 1784 0 
Q 1141 0 747 490 
Q 353 981 353 1791 
Q 353 2603 747 3093 
Q 1141 3584 1784 3584 
Q 2172 3584 2450 3431 
Q 2728 3278 2906 2969 
L 2906 3500 
L 3481 3500 
L 3481 434 
z
" transform="scale(0.015625)"/>
       <path id="DejaVuSans-50" d="M 1259 4147 
L 1259 2394 
L 2053 2394 
Q 2494 2394 2734 2622 
Q 2975 2850 2975 3272 
Q 2975 3691 2734 3919 
Q 2494 4147 2053 4147 
L 1259 4147 
z
M 628 4666 
L 2053 4666 
Q 2838 4666 3239 4311 
Q 3641 3956 3641 3272 
Q 3641 2581 3239 2228 
Q 2838 1875 2053 1875 
L 1259 1875 
L 1259 0 
L 628 0 
L 628 4666 
z
" transform="scale(0.015625)"/>
       <path id="DejaVuSans-4f" d="M 2522 4238 
Q 1834 4238 1429 3725 
Q 1025 3213 1025 2328 
Q 1025 1447 1429 934 
Q 1834 422 2522 422 
Q 3209 422 3611 934 
Q 4013 1447 4013 2328 
Q 4013 3213 3611 3725 
Q 3209 4238 2522 4238 
z
M 2522 4750 
Q 3503 4750 4090 4092 
Q 4678 3434 4678 2328 
Q 4678 1225 4090 567 
Q 3503 -91 2522 -91 
Q 1538 -91 948 565 
Q 359 1222 359 2328 
Q 359 3434 948 4092 
Q 1538 4750 2522 4750 
z
" transform="scale(0.015625)"/>
       <path id="DejaVuSans-28" d="M 1984 4856 
Q 1566 4138 1362 3434 
Q 1159 2731 1159 2009 
Q 1159 1288 1364 580 
Q 1569 -128 1984 -844 
L 1484 -844 
Q 1016 -109 783 600 
Q 550 1309 550 2009 
Q 550 2706 781 3412 
Q 1013 4119 1484 4856 
L 1984 4856 
z
" transform="scale(0.015625)"/>
       <path id="DejaVuSans-2a" d="M 3009 3897 
L 1888 3291 
L 3009 2681 
L 2828 2375 
L 1778 3009 
L 1778 1831 
L 1422 1831 
L 1422 3009 
L 372 2375 
L 191 2681 
L 1313 3291 
L 191 3897 
L 372 4206 
L 1422 3572 
L 1422 4750 
L 1778 4750 
L 1778 3572 
L 2828 4206 
L 3009 3897 
z
" transform="scale(0.015625)"/>
       <path id="DejaVuSans-2f" d="M 1625 4666 
L 2156 4666 
L 531 -594 
L 0 -594 
L 1625 4666 
z
" transform="scale(0.015625)"/>
       <path id="DejaVuSans-29" d="M 513 4856 
L 1013 4856 
Q 1481 4119 1714 3412 
Q 1947 2706 1947 2009 
Q 1947 1309 1714 600 
Q 1481 -109 1013 -844 
L 513 -844 
Q 928 -128 1133 580 
Q 1338 1288 1338 2009 
Q 1338 2731 1133 3434 
Q 928 4138 513 4856 
z
" transform="scale(0.015625)"/>
      </defs>
      <use xlink:href="#DejaVuSans-53"/>
      <use xlink:href="#DejaVuSans-69" x="63.476562"/>
      <use xlink:href="#DejaVuSans-6d" x="91.259766"/>
      <use xlink:href="#DejaVuSans-20" x="188.671875"/>
      <use xlink:href="#DejaVuSans-30" x="220.458984"/>
      <use xlink:href="#DejaVuSans-2e" x="284.082031"/>
      <use xlink:href="#DejaVuSans-35" x="315.869141"/>
      <use xlink:href="#DejaVuSans-6d" x="379.492188"/>
      <use xlink:href="#DejaVuSans-67" x="476.904297"/>
      <use xlink:href="#DejaVuSans-20" x="540.380859"/>
      <use xlink:href="#DejaVuSans-50" x="572.167969"/>
      <use xlink:href="#DejaVuSans-4f" x="632.470703"/>
      <use xlink:href="#DejaVuSans-20" x="711.181641"/>
      <use xlink:href="#DejaVuSans-28" x="742.96875"/>
      <use xlink:href="#DejaVuSans-2a" x="781.982422"/>
      <use xlink:href="#DejaVuSans-31" x="831.982422"/>
      <use xlink:href="#DejaVuSans-2f" x="895.605469"/>
      <use xlink:href="#DejaVuSans-2a" x="929.296875"/>
      <use xlink:href="#DejaVuSans-31" x="979.296875"/>
      <use xlink:href="#DejaVuSans-29" x="1042.919922"/>
     </g>
    </g>
    <g id="LineCollection_4">
     <path d="M 269.104531 72.698906 
L 269.104531 63.698906 
" style="fill: none; stroke: #66c2a5"/>
    </g>
    <g id="line2d_22">
     <path d="M 260.104531 68.198906 
L 278.104531 68.198906 
" style="fill: none; stroke-dasharray: 3.7,1.6; stroke-dashoffset: 0; stroke: #66c2a5"/>
    </g>
    <g id="line2d_23">
     <g>
      <use xlink:href="#md8f8273080" x="269.104531" y="68.198906" style="fill: #66c2a5; stroke: #000000; stroke-linejoin: miter"/>
     </g>
    </g>
    <g id="text_17">
     <!-- Data 0.5mg PO (*1/*1)±SD (n=12) -->
     <g transform="translate(285.304531 71.348906) scale(0.09 -0.09)">
      <defs>
       <path id="DejaVuSans-44" d="M 1259 4147 
L 1259 519 
L 2022 519 
Q 2988 519 3436 956 
Q 3884 1394 3884 2338 
Q 3884 3275 3436 3711 
Q 2988 4147 2022 4147 
L 1259 4147 
z
M 628 4666 
L 1925 4666 
Q 3281 4666 3915 4102 
Q 4550 3538 4550 2338 
Q 4550 1131 3912 565 
Q 3275 0 1925 0 
L 628 0 
L 628 4666 
z
" transform="scale(0.015625)"/>
       <path id="DejaVuSans-61" d="M 2194 1759 
Q 1497 1759 1228 1600 
Q 959 1441 959 1056 
Q 959 750 1161 570 
Q 1363 391 1709 391 
Q 2188 391 2477 730 
Q 2766 1069 2766 1631 
L 2766 1759 
L 2194 1759 
z
M 3341 1997 
L 3341 0 
L 2766 0 
L 2766 531 
Q 2569 213 2275 61 
Q 1981 -91 1556 -91 
Q 1019 -91 701 211 
Q 384 513 384 1019 
Q 384 1609 779 1909 
Q 1175 2209 1959 2209 
L 2766 2209 
L 2766 2266 
Q 2766 2663 2505 2880 
Q 2244 3097 1772 3097 
Q 1472 3097 1187 3025 
Q 903 2953 641 2809 
L 641 3341 
Q 956 3463 1253 3523 
Q 1550 3584 1831 3584 
Q 2591 3584 2966 3190 
Q 3341 2797 3341 1997 
z
" transform="scale(0.015625)"/>
       <path id="DejaVuSans-74" d="M 1172 4494 
L 1172 3500 
L 2356 3500 
L 2356 3053 
L 1172 3053 
L 1172 1153 
Q 1172 725 1289 603 
Q 1406 481 1766 481 
L 2356 481 
L 2356 0 
L 1766 0 
Q 1100 0 847 248 
Q 594 497 594 1153 
L 594 3053 
L 172 3053 
L 172 3500 
L 594 3500 
L 594 4494 
L 1172 4494 
z
" transform="scale(0.015625)"/>
       <path id="DejaVuSans-b1" d="M 2944 4013 
L 2944 2803 
L 4684 2803 
L 4684 2272 
L 2944 2272 
L 2944 1063 
L 2419 1063 
L 2419 2272 
L 678 2272 
L 678 2803 
L 2419 2803 
L 2419 4013 
L 2944 4013 
z
M 678 531 
L 4684 531 
L 4684 0 
L 678 0 
L 678 531 
z
" transform="scale(0.015625)"/>
       <path id="DejaVuSans-6e" d="M 3513 2113 
L 3513 0 
L 2938 0 
L 2938 2094 
Q 2938 2591 2744 2837 
Q 2550 3084 2163 3084 
Q 1697 3084 1428 2787 
Q 1159 2491 1159 1978 
L 1159 0 
L 581 0 
L 581 3500 
L 1159 3500 
L 1159 2956 
Q 1366 3272 1645 3428 
Q 1925 3584 2291 3584 
Q 2894 3584 3203 3211 
Q 3513 2838 3513 2113 
z
" transform="scale(0.015625)"/>
       <path id="DejaVuSans-3d" d="M 678 2906 
L 4684 2906 
L 4684 2381 
L 678 2381 
L 678 2906 
z
M 678 1631 
L 4684 1631 
L 4684 1100 
L 678 1100 
L 678 1631 
z
" transform="scale(0.015625)"/>
      </defs>
      <use xlink:href="#DejaVuSans-44"/>
      <use xlink:href="#DejaVuSans-61" x="77.001953"/>
      <use xlink:href="#DejaVuSans-74" x="138.28125"/>
      <use xlink:href="#DejaVuSans-61" x="177.490234"/>
      <use xlink:href="#DejaVuSans-20" x="238.769531"/>
      <use xlink:href="#DejaVuSans-30" x="270.556641"/>
      <use xlink:href="#DejaVuSans-2e" x="334.179688"/>
      <use xlink:href="#DejaVuSans-35" x="365.966797"/>
      <use xlink:href="#DejaVuSans-6d" x="429.589844"/>
      <use xlink:href="#DejaVuSans-67" x="527.001953"/>
      <use xlink:href="#DejaVuSans-20" x="590.478516"/>
      <use xlink:href="#DejaVuSans-50" x="622.265625"/>
      <use xlink:href="#DejaVuSans-4f" x="682.568359"/>
      <use xlink:href="#DejaVuSans-20" x="761.279297"/>
      <use xlink:href="#DejaVuSans-28" x="793.066406"/>
      <use xlink:href="#DejaVuSans-2a" x="832.080078"/>
      <use xlink:href="#DejaVuSans-31" x="882.080078"/>
      <use xlink:href="#DejaVuSans-2f" x="945.703125"/>
      <use xlink:href="#DejaVuSans-2a" x="979.394531"/>
      <use xlink:href="#DejaVuSans-31" x="1029.394531"/>
      <use xlink:href="#DejaVuSans-29" x="1093.017578"/>
      <use xlink:href="#DejaVuSans-b1" x="1132.03125"/>
      <use xlink:href="#DejaVuSans-53" x="1215.820312"/>
      <use xlink:href="#DejaVuSans-44" x="1279.296875"/>
      <use xlink:href="#DejaVuSans-20" x="1356.298828"/>
      <use xlink:href="#DejaVuSans-28" x="1388.085938"/>
      <use xlink:href="#DejaVuSans-6e" x="1427.099609"/>
      <use xlink:href="#DejaVuSans-3d" x="1490.478516"/>
      <use xlink:href="#DejaVuSans-31" x="1574.267578"/>
      <use xlink:href="#DejaVuSans-32" x="1637.890625"/>
      <use xlink:href="#DejaVuSans-29" x="1701.513672"/>
     </g>
    </g>
    <g id="line2d_24">
     <path d="M 260.104531 81.409219 
L 278.104531 81.409219 
" style="fill: none; stroke: #fc8d62; stroke-width: 2; stroke-linecap: square"/>
    </g>
    <g id="line2d_25"/>
    <g id="text_18">
     <!-- Sim 0.5mg PO (*1/*2) -->
     <g transform="translate(285.304531 84.559219) scale(0.09 -0.09)">
      <use xlink:href="#DejaVuSans-53"/>
      <use xlink:href="#DejaVuSans-69" x="63.476562"/>
      <use xlink:href="#DejaVuSans-6d" x="91.259766"/>
      <use xlink:href="#DejaVuSans-20" x="188.671875"/>
      <use xlink:href="#DejaVuSans-30" x="220.458984"/>
      <use xlink:href="#DejaVuSans-2e" x="284.082031"/>
      <use xlink:href="#DejaVuSans-35" x="315.869141"/>
      <use xlink:href="#DejaVuSans-6d" x="379.492188"/>
      <use xlink:href="#DejaVuSans-67" x="476.904297"/>
      <use xlink:href="#DejaVuSans-20" x="540.380859"/>
      <use xlink:href="#DejaVuSans-50" x="572.167969"/>
      <use xlink:href="#DejaVuSans-4f" x="632.470703"/>
      <use xlink:href="#DejaVuSans-20" x="711.181641"/>
      <use xlink:href="#DejaVuSans-28" x="742.96875"/>
      <use xlink:href="#DejaVuSans-2a" x="781.982422"/>
      <use xlink:href="#DejaVuSans-31" x="831.982422"/>
      <use xlink:href="#DejaVuSans-2f" x="895.605469"/>
      <use xlink:href="#DejaVuSans-2a" x="929.296875"/>
      <use xlink:href="#DejaVuSans-32" x="979.296875"/>
      <use xlink:href="#DejaVuSans-29" x="1042.919922"/>
     </g>
    </g>
    <g id="LineCollection_5">
     <path d="M 269.104531 99.119531 
L 269.104531 90.119531 
" style="fill: none; stroke: #fc8d62"/>
    </g>
    <g id="line2d_26">
     <path d="M 260.104531 94.619531 
L 278.104531 94.619531 
" style="fill: none; stroke-dasharray: 3.7,1.6; stroke-dashoffset: 0; stroke: #fc8d62"/>
    </g>
    <g id="line2d_27">
     <g>
      <use xlink:href="#m42d11c0505" x="269.104531" y="94.619531" style="fill: #fc8d62; stroke: #000000; stroke-linejoin: miter"/>
     </g>
    </g>
    <g id="text_19">
     <!-- Data 0.5mg PO (*1/*2)±SD (n=5) -->
     <g transform="translate(285.304531 97.769531) scale(0.09 -0.09)">
      <use xlink:href="#DejaVuSans-44"/>
      <use xlink:href="#DejaVuSans-61" x="77.001953"/>
      <use xlink:href="#DejaVuSans-74" x="138.28125"/>
      <use xlink:href="#DejaVuSans-61" x="177.490234"/>
      <use xlink:href="#DejaVuSans-20" x="238.769531"/>
      <use xlink:href="#DejaVuSans-30" x="270.556641"/>
      <use xlink:href="#DejaVuSans-2e" x="334.179688"/>
      <use xlink:href="#DejaVuSans-35" x="365.966797"/>
      <use xlink:href="#DejaVuSans-6d" x="429.589844"/>
      <use xlink:href="#DejaVuSans-67" x="527.001953"/>
      <use xlink:href="#DejaVuSans-20" x="590.478516"/>
      <use xlink:href="#DejaVuSans-50" x="622.265625"/>
      <use xlink:href="#DejaVuSans-4f" x="682.568359"/>
      <use xlink:href="#DejaVuSans-20" x="761.279297"/>
      <use xlink:href="#DejaVuSans-28" x="793.066406"/>
      <use xlink:href="#DejaVuSans-2a" x="832.080078"/>
      <use xlink:href="#DejaVuSans-31" x="882.080078"/>
      <use xlink:href="#DejaVuSans-2f" x="945.703125"/>
      <use xlink:href="#DejaVuSans-2a" x="979.394531"/>
      <use xlink:href="#DejaVuSans-32" x="1029.394531"/>
      <use xlink:href="#DejaVuSans-29" x="1093.017578"/>
      <use xlink:href="#DejaVuSans-b1" x="1132.03125"/>
      <use xlink:href="#DejaVuSans-53" x="1215.820312"/>
      <use xlink:href="#DejaVuSans-44" x="1279.296875"/>
      <use xlink:href="#DejaVuSans-20" x="1356.298828"/>
      <use xlink:href="#DejaVuSans-28" x="1388.085938"/>
      <use xlink:href="#DejaVuSans-6e" x="1427.099609"/>
      <use xlink:href="#DejaVuSans-3d" x="1490.478516"/>
      <use xlink:href="#DejaVuSans-35" x="1574.267578"/>
      <use xlink:href="#DejaVuSans-29" x="1637.890625"/>
     </g>
    </g>
    <g id="line2d_28">
     <path d="M 260.104531 107.829844 
L 278.104531 107.829844 
" style="fill: none; stroke: #8da0cb; stroke-width: 2; stroke-linecap: square"/>
    </g>
    <g id="line2d_29"/>
    <g id="text_20">
     <!-- Sim 0.5mg PO (*1/*3) -->
     <g transform="translate(285.304531 110.979844) scale(0.09 -0.09)">
      <defs>
       <path id="DejaVuSans-33" d="M 2597 2516 
Q 3050 2419 3304 2112 
Q 3559 1806 3559 1356 
Q 3559 666 3084 287 
Q 2609 -91 1734 -91 
Q 1441 -91 1130 -33 
Q 819 25 488 141 
L 488 750 
Q 750 597 1062 519 
Q 1375 441 1716 441 
Q 2309 441 2620 675 
Q 2931 909 2931 1356 
Q 2931 1769 2642 2001 
Q 2353 2234 1838 2234 
L 1294 2234 
L 1294 2753 
L 1863 2753 
Q 2328 2753 2575 2939 
Q 2822 3125 2822 3475 
Q 2822 3834 2567 4026 
Q 2313 4219 1838 4219 
Q 1578 4219 1281 4162 
Q 984 4106 628 3988 
L 628 4550 
Q 988 4650 1302 4700 
Q 1616 4750 1894 4750 
Q 2613 4750 3031 4423 
Q 3450 4097 3450 3541 
Q 3450 3153 3228 2886 
Q 3006 2619 2597 2516 
z
" transform="scale(0.015625)"/>
      </defs>
      <use xlink:href="#DejaVuSans-53"/>
      <use xlink:href="#DejaVuSans-69" x="63.476562"/>
      <use xlink:href="#DejaVuSans-6d" x="91.259766"/>
      <use xlink:href="#DejaVuSans-20" x="188.671875"/>
      <use xlink:href="#DejaVuSans-30" x="220.458984"/>
      <use xlink:href="#DejaVuSans-2e" x="284.082031"/>
      <use xlink:href="#DejaVuSans-35" x="315.869141"/>
      <use xlink:href="#DejaVuSans-6d" x="379.492188"/>
      <use xlink:href="#DejaVuSans-67" x="476.904297"/>
      <use xlink:href="#DejaVuSans-20" x="540.380859"/>
      <use xlink:href="#DejaVuSans-50" x="572.167969"/>
      <use xlink:href="#DejaVuSans-4f" x="632.470703"/>
      <use xlink:href="#DejaVuSans-20" x="711.181641"/>
      <use xlink:href="#DejaVuSans-28" x="742.96875"/>
      <use xlink:href="#DejaVuSans-2a" x="781.982422"/>
      <use xlink:href="#DejaVuSans-31" x="831.982422"/>
      <use xlink:href="#DejaVuSans-2f" x="895.605469"/>
      <use xlink:href="#DejaVuSans-2a" x="929.296875"/>
      <use xlink:href="#DejaVuSans-33" x="979.296875"/>
      <use xlink:href="#DejaVuSans-29" x="1042.919922"/>
     </g>
    </g>
    <g id="LineCollection_6">
     <path d="M 269.104531 125.540156 
L 269.104531 116.540156 
" style="fill: none; stroke: #8da0cb"/>
    </g>
    <g id="line2d_30">
     <path d="M 260.104531 121.040156 
L 278.104531 121.040156 
" style="fill: none; stroke-dasharray: 3.7,1.6; stroke-dashoffset: 0; stroke: #8da0cb"/>
    </g>
    <g id="line2d_31">
     <g>
      <use xlink:href="#m74aa2ff5b1" x="269.104531" y="121.040156" style="fill: #8da0cb; stroke: #000000; stroke-linejoin: miter"/>
     </g>
    </g>
    <g id="text_21">
     <!-- Data 0.5mg PO (*1/*3)±SD (n=3) -->
     <g transform="translate(285.304531 124.190156) scale(0.09 -0.09)">
      <use xlink:href="#DejaVuSans-44"/>
      <use xlink:href="#DejaVuSans-61" x="77.001953"/>
      <use xlink:href="#DejaVuSans-74" x="138.28125"/>
      <use xlink:href="#DejaVuSans-61" x="177.490234"/>
      <use xlink:href="#DejaVuSans-20" x="238.769531"/>
      <use xlink:href="#DejaVuSans-30" x="270.556641"/>
      <use xlink:href="#DejaVuSans-2e" x="334.179688"/>
      <use xlink:href="#DejaVuSans-35" x="365.966797"/>
      <use xlink:href="#DejaVuSans-6d" x="429.589844"/>
      <use xlink:href="#DejaVuSans-67" x="527.001953"/>
      <use xlink:href="#DejaVuSans-20" x="590.478516"/>
      <use xlink:href="#DejaVuSans-50" x="622.265625"/>
      <use xlink:href="#DejaVuSans-4f" x="682.568359"/>
      <use xlink:href="#DejaVuSans-20" x="761.279297"/>
      <use xlink:href="#DejaVuSans-28" x="793.066406"/>
      <use xlink:href="#DejaVuSans-2a" x="832.080078"/>
      <use xlink:href="#DejaVuSans-31" x="882.080078"/>
      <use xlink:href="#DejaVuSans-2f" x="945.703125"/>
      <use xlink:href="#DejaVuSans-2a" x="979.394531"/>
      <use xlink:href="#DejaVuSans-33" x="1029.394531"/>
      <use xlink:href="#DejaVuSans-29" x="1093.017578"/>
      <use xlink:href="#DejaVuSans-b1" x="1132.03125"/>
      <use xlink:href="#DejaVuSans-53" x="1215.820312"/>
      <use xlink:href="#DejaVuSans-44" x="1279.296875"/>
      <use xlink:href="#DejaVuSans-20" x="1356.298828"/>
      <use xlink:href="#DejaVuSans-28" x="1388.085938"/>
      <use xlink:href="#DejaVuSans-6e" x="1427.099609"/>
      <use xlink:href="#DejaVuSans-3d" x="1490.478516"/>
      <use xlink:href="#DejaVuSans-33" x="1574.267578"/>
      <use xlink:href="#DejaVuSans-29" x="1637.890625"/>
     </g>
    </g>
   </g>
  </g>
  <g id="text_22">
   <!-- Niemi2002 (CYP2C9) -->
   <g transform="translate(132.407031 22.396875) scale(0.2 -0.2)">
    <defs>
     <path id="DejaVuSans-Bold-4e" d="M 588 4666 
L 1931 4666 
L 3628 1466 
L 3628 4666 
L 4769 4666 
L 4769 0 
L 3425 0 
L 1728 3200 
L 1728 0 
L 588 0 
L 588 4666 
z
" transform="scale(0.015625)"/>
     <path id="DejaVuSans-Bold-32" d="M 1844 884 
L 3897 884 
L 3897 0 
L 506 0 
L 506 884 
L 2209 2388 
Q 2438 2594 2547 2791 
Q 2656 2988 2656 3200 
Q 2656 3528 2436 3728 
Q 2216 3928 1850 3928 
Q 1569 3928 1234 3808 
Q 900 3688 519 3450 
L 519 4475 
Q 925 4609 1322 4679 
Q 1719 4750 2100 4750 
Q 2938 4750 3402 4381 
Q 3866 4013 3866 3353 
Q 3866 2972 3669 2642 
Q 3472 2313 2841 1759 
L 1844 884 
z
" transform="scale(0.015625)"/>
     <path id="DejaVuSans-Bold-30" d="M 2944 2338 
Q 2944 3213 2780 3570 
Q 2616 3928 2228 3928 
Q 1841 3928 1675 3570 
Q 1509 3213 1509 2338 
Q 1509 1453 1675 1090 
Q 1841 728 2228 728 
Q 2613 728 2778 1090 
Q 2944 1453 2944 2338 
z
M 4147 2328 
Q 4147 1169 3647 539 
Q 3147 -91 2228 -91 
Q 1306 -91 806 539 
Q 306 1169 306 2328 
Q 306 3491 806 4120 
Q 1306 4750 2228 4750 
Q 3147 4750 3647 4120 
Q 4147 3491 4147 2328 
z
" transform="scale(0.015625)"/>
     <path id="DejaVuSans-Bold-28" d="M 2413 -844 
L 1484 -844 
Q 1006 -72 778 623 
Q 550 1319 550 2003 
Q 550 2688 779 3389 
Q 1009 4091 1484 4856 
L 2413 4856 
Q 2013 4116 1813 3408 
Q 1613 2700 1613 2009 
Q 1613 1319 1811 609 
Q 2009 -100 2413 -844 
z
" transform="scale(0.015625)"/>
     <path id="DejaVuSans-Bold-43" d="M 4288 256 
Q 3956 84 3597 -3 
Q 3238 -91 2847 -91 
Q 1681 -91 1000 561 
Q 319 1213 319 2328 
Q 319 3447 1000 4098 
Q 1681 4750 2847 4750 
Q 3238 4750 3597 4662 
Q 3956 4575 4288 4403 
L 4288 3438 
Q 3953 3666 3628 3772 
Q 3303 3878 2944 3878 
Q 2300 3878 1931 3465 
Q 1563 3053 1563 2328 
Q 1563 1606 1931 1193 
Q 2300 781 2944 781 
Q 3303 781 3628 887 
Q 3953 994 4288 1222 
L 4288 256 
z
" transform="scale(0.015625)"/>
     <path id="DejaVuSans-Bold-59" d="M -63 4666 
L 1253 4666 
L 2316 3003 
L 3378 4666 
L 4697 4666 
L 2919 1966 
L 2919 0 
L 1716 0 
L 1716 1966 
L -63 4666 
z
" transform="scale(0.015625)"/>
     <path id="DejaVuSans-Bold-39" d="M 641 103 
L 641 966 
Q 928 831 1190 764 
Q 1453 697 1709 697 
Q 2247 697 2547 995 
Q 2847 1294 2900 1881 
Q 2688 1725 2447 1647 
Q 2206 1569 1925 1569 
Q 1209 1569 770 1986 
Q 331 2403 331 3084 
Q 331 3838 820 4291 
Q 1309 4744 2131 4744 
Q 3044 4744 3544 4128 
Q 4044 3513 4044 2388 
Q 4044 1231 3459 570 
Q 2875 -91 1856 -91 
Q 1528 -91 1228 -42 
Q 928 6 641 103 
z
M 2125 2350 
Q 2441 2350 2600 2554 
Q 2759 2759 2759 3169 
Q 2759 3575 2600 3781 
Q 2441 3988 2125 3988 
Q 1809 3988 1650 3781 
Q 1491 3575 1491 3169 
Q 1491 2759 1650 2554 
Q 1809 2350 2125 2350 
z
" transform="scale(0.015625)"/>
     <path id="DejaVuSans-Bold-29" d="M 513 -844 
Q 913 -100 1113 609 
Q 1313 1319 1313 2009 
Q 1313 2700 1113 3408 
Q 913 4116 513 4856 
L 1441 4856 
Q 1916 4091 2145 3389 
Q 2375 2688 2375 2003 
Q 2375 1319 2147 623 
Q 1919 -72 1441 -844 
L 513 -844 
z
" transform="scale(0.015625)"/>
    </defs>
    <use xlink:href="#DejaVuSans-Bold-4e"/>
    <use xlink:href="#DejaVuSans-Bold-69" x="83.691406"/>
    <use xlink:href="#DejaVuSans-Bold-65" x="117.96875"/>
    <use xlink:href="#DejaVuSans-Bold-6d" x="185.791016"/>
    <use xlink:href="#DejaVuSans-Bold-69" x="289.990234"/>
    <use xlink:href="#DejaVuSans-Bold-32" x="324.267578"/>
    <use xlink:href="#DejaVuSans-Bold-30" x="393.847656"/>
    <use xlink:href="#DejaVuSans-Bold-30" x="463.427734"/>
    <use xlink:href="#DejaVuSans-Bold-32" x="533.007812"/>
    <use xlink:href="#DejaVuSans-Bold-20" x="602.587891"/>
    <use xlink:href="#DejaVuSans-Bold-28" x="637.402344"/>
    <use xlink:href="#DejaVuSans-Bold-43" x="683.105469"/>
    <use xlink:href="#DejaVuSans-Bold-59" x="756.494141"/>
    <use xlink:href="#DejaVuSans-Bold-50" x="828.90625"/>
    <use xlink:href="#DejaVuSans-Bold-32" x="902.197266"/>
    <use xlink:href="#DejaVuSans-Bold-43" x="971.777344"/>
    <use xlink:href="#DejaVuSans-Bold-39" x="1045.166016"/>
    <use xlink:href="#DejaVuSans-Bold-29" x="1114.746094"/>
   </g>
  </g>
 </g>
 <defs>
  <clipPath id="pcfbc036cf4">
   <rect x="59.452344" y="43.2" width="390.6" height="277.2"/>
  </clipPath>
 </defs>
</svg>
