<?xml version="1.0" encoding="utf-8" standalone="no"?>
<!DOCTYPE svg PUBLIC "-//W3C//DTD SVG 1.1//EN"
  "http://www.w3.org/Graphics/SVG/1.1/DTD/svg11.dtd">
<svg xmlns:xlink="http://www.w3.org/1999/xlink" width="847.852344pt" height="364.730937pt" viewBox="0 0 847.852344 364.730937" xmlns="http://www.w3.org/2000/svg" version="1.1">
 <metadata>
  <rdf:RDF xmlns:dc="http://purl.org/dc/elements/1.1/" xmlns:cc="http://creativecommons.org/ns#" xmlns:rdf="http://www.w3.org/1999/02/22-rdf-syntax-ns#">
   <cc:Work>
    <dc:type rdf:resource="http://purl.org/dc/dcmitype/StillImage"/>
    <dc:date>2025-04-04T11:26:09.290695</dc:date>
    <dc:format>image/svg+xml</dc:format>
    <dc:creator>
     <cc:Agent>
      <dc:title>Matplotlib v3.9.1, https://matplotlib.org/</dc:title>
     </cc:Agent>
    </dc:creator>
   </cc:Work>
  </rdf:RDF>
 </metadata>
 <defs>
  <style type="text/css">*{stroke-linejoin: round; stroke-linecap: butt}</style>
 </defs>
 <g id="figure_1">
  <g id="patch_1">
   <path d="M 0 364.730937 
L 847.852344 364.730937 
L 847.852344 0 
L 0 0 
z
" style="fill: #ffffff"/>
  </g>
  <g id="axes_1">
   <g id="patch_2">
    <path d="M 59.452344 320.4 
L 399.104518 320.4 
L 399.104518 43.2 
L 59.452344 43.2 
z
" style="fill: #ffffff"/>
   </g>
   <g id="matplotlib.axis_1">
    <g id="xtick_1">
     <g id="line2d_1">
      <defs>
       <path id="m77b27d3303" d="M 0 0 
L 0 3.5 
" style="stroke: #000000; stroke-width: 0.8"/>
      </defs>
      <g>
       <use xlink:href="#m77b27d3303" x="74.891079" y="320.4" style="stroke: #000000; stroke-width: 0.8"/>
      </g>
     </g>
     <g id="text_1">
      <!-- 0 -->
      <g transform="translate(71.073579 336.518125) scale(0.12 -0.12)">
       <defs>
        <path id="DejaVuSans-30" d="M 2034 4250 
Q 1547 4250 1301 3770 
Q 1056 3291 1056 2328 
Q 1056 1369 1301 889 
Q 1547 409 2034 409 
Q 2525 409 2770 889 
Q 3016 1369 3016 2328 
Q 3016 3291 2770 3770 
Q 2525 4250 2034 4250 
z
M 2034 4750 
Q 2819 4750 3233 4129 
Q 3647 3509 3647 2328 
Q 3647 1150 3233 529 
Q 2819 -91 2034 -91 
Q 1250 -91 836 529 
Q 422 1150 422 2328 
Q 422 3509 836 4129 
Q 1250 4750 2034 4750 
z
" transform="scale(0.015625)"/>
       </defs>
       <use xlink:href="#DejaVuSans-30"/>
      </g>
     </g>
    </g>
    <g id="xtick_2">
     <g id="line2d_2">
      <g>
       <use xlink:href="#m77b27d3303" x="136.64602" y="320.4" style="stroke: #000000; stroke-width: 0.8"/>
      </g>
     </g>
     <g id="text_2">
      <!-- 10 -->
      <g transform="translate(129.01102 336.518125) scale(0.12 -0.12)">
       <defs>
        <path id="DejaVuSans-31" d="M 794 531 
L 1825 531 
L 1825 4091 
L 703 3866 
L 703 4441 
L 1819 4666 
L 2450 4666 
L 2450 531 
L 3481 531 
L 3481 0 
L 794 0 
L 794 531 
z
" transform="scale(0.015625)"/>
       </defs>
       <use xlink:href="#DejaVuSans-31"/>
       <use xlink:href="#DejaVuSans-30" x="63.623047"/>
      </g>
     </g>
    </g>
    <g id="xtick_3">
     <g id="line2d_3">
      <g>
       <use xlink:href="#m77b27d3303" x="198.40096" y="320.4" style="stroke: #000000; stroke-width: 0.8"/>
      </g>
     </g>
     <g id="text_3">
      <!-- 20 -->
      <g transform="translate(190.76596 336.518125) scale(0.12 -0.12)">
       <defs>
        <path id="DejaVuSans-32" d="M 1228 531 
L 3431 531 
L 3431 0 
L 469 0 
L 469 531 
Q 828 903 1448 1529 
Q 2069 2156 2228 2338 
Q 2531 2678 2651 2914 
Q 2772 3150 2772 3378 
Q 2772 3750 2511 3984 
Q 2250 4219 1831 4219 
Q 1534 4219 1204 4116 
Q 875 4013 500 3803 
L 500 4441 
Q 881 4594 1212 4672 
Q 1544 4750 1819 4750 
Q 2544 4750 2975 4387 
Q 3406 4025 3406 3419 
Q 3406 3131 3298 2873 
Q 3191 2616 2906 2266 
Q 2828 2175 2409 1742 
Q 1991 1309 1228 531 
z
" transform="scale(0.015625)"/>
       </defs>
       <use xlink:href="#DejaVuSans-32"/>
       <use xlink:href="#DejaVuSans-30" x="63.623047"/>
      </g>
     </g>
    </g>
    <g id="xtick_4">
     <g id="line2d_4">
      <g>
       <use xlink:href="#m77b27d3303" x="260.155901" y="320.4" style="stroke: #000000; stroke-width: 0.8"/>
      </g>
     </g>
     <g id="text_4">
      <!-- 30 -->
      <g transform="translate(252.520901 336.518125) scale(0.12 -0.12)">
       <defs>
        <path id="DejaVuSans-33" d="M 2597 2516 
Q 3050 2419 3304 2112 
Q 3559 1806 3559 1356 
Q 3559 666 3084 287 
Q 2609 -91 1734 -91 
Q 1441 -91 1130 -33 
Q 819 25 488 141 
L 488 750 
Q 750 597 1062 519 
Q 1375 441 1716 441 
Q 2309 441 2620 675 
Q 2931 909 2931 1356 
Q 2931 1769 2642 2001 
Q 2353 2234 1838 2234 
L 1294 2234 
L 1294 2753 
L 1863 2753 
Q 2328 2753 2575 2939 
Q 2822 3125 2822 3475 
Q 2822 3834 2567 4026 
Q 2313 4219 1838 4219 
Q 1578 4219 1281 4162 
Q 984 4106 628 3988 
L 628 4550 
Q 988 4650 1302 4700 
Q 1616 4750 1894 4750 
Q 2613 4750 3031 4423 
Q 3450 4097 3450 3541 
Q 3450 3153 3228 2886 
Q 3006 2619 2597 2516 
z
" transform="scale(0.015625)"/>
       </defs>
       <use xlink:href="#DejaVuSans-33"/>
       <use xlink:href="#DejaVuSans-30" x="63.623047"/>
      </g>
     </g>
    </g>
    <g id="xtick_5">
     <g id="line2d_5">
      <g>
       <use xlink:href="#m77b27d3303" x="321.910842" y="320.4" style="stroke: #000000; stroke-width: 0.8"/>
      </g>
     </g>
     <g id="text_5">
      <!-- 40 -->
      <g transform="translate(314.275842 336.518125) scale(0.12 -0.12)">
       <defs>
        <path id="DejaVuSans-34" d="M 2419 4116 
L 825 1625 
L 2419 1625 
L 2419 4116 
z
M 2253 4666 
L 3047 4666 
L 3047 1625 
L 3713 1625 
L 3713 1100 
L 3047 1100 
L 3047 0 
L 2419 0 
L 2419 1100 
L 313 1100 
L 313 1709 
L 2253 4666 
z
" transform="scale(0.015625)"/>
       </defs>
       <use xlink:href="#DejaVuSans-34"/>
       <use xlink:href="#DejaVuSans-30" x="63.623047"/>
      </g>
     </g>
    </g>
    <g id="xtick_6">
     <g id="line2d_6">
      <g>
       <use xlink:href="#m77b27d3303" x="383.665782" y="320.4" style="stroke: #000000; stroke-width: 0.8"/>
      </g>
     </g>
     <g id="text_6">
      <!-- 50 -->
      <g transform="translate(376.030782 336.518125) scale(0.12 -0.12)">
       <defs>
        <path id="DejaVuSans-35" d="M 691 4666 
L 3169 4666 
L 3169 4134 
L 1269 4134 
L 1269 2991 
Q 1406 3038 1543 3061 
Q 1681 3084 1819 3084 
Q 2600 3084 3056 2656 
Q 3513 2228 3513 1497 
Q 3513 744 3044 326 
Q 2575 -91 1722 -91 
Q 1428 -91 1123 -41 
Q 819 9 494 109 
L 494 744 
Q 775 591 1075 516 
Q 1375 441 1709 441 
Q 2250 441 2565 725 
Q 2881 1009 2881 1497 
Q 2881 1984 2565 2268 
Q 2250 2553 1709 2553 
Q 1456 2553 1204 2497 
Q 953 2441 691 2322 
L 691 4666 
z
" transform="scale(0.015625)"/>
       </defs>
       <use xlink:href="#DejaVuSans-35"/>
       <use xlink:href="#DejaVuSans-30" x="63.623047"/>
      </g>
     </g>
    </g>
    <g id="text_7">
     <!-- Time [hr] -->
     <g transform="translate(190.184681 354.411406) scale(0.15 -0.15)">
      <defs>
       <path id="DejaVuSans-Bold-54" d="M 31 4666 
L 4331 4666 
L 4331 3756 
L 2784 3756 
L 2784 0 
L 1581 0 
L 1581 3756 
L 31 3756 
L 31 4666 
z
" transform="scale(0.015625)"/>
       <path id="DejaVuSans-Bold-69" d="M 538 3500 
L 1656 3500 
L 1656 0 
L 538 0 
L 538 3500 
z
M 538 4863 
L 1656 4863 
L 1656 3950 
L 538 3950 
L 538 4863 
z
" transform="scale(0.015625)"/>
       <path id="DejaVuSans-Bold-6d" d="M 3781 2919 
Q 3994 3244 4286 3414 
Q 4578 3584 4928 3584 
Q 5531 3584 5847 3212 
Q 6163 2841 6163 2131 
L 6163 0 
L 5038 0 
L 5038 1825 
Q 5041 1866 5042 1909 
Q 5044 1953 5044 2034 
Q 5044 2406 4934 2573 
Q 4825 2741 4581 2741 
Q 4263 2741 4089 2478 
Q 3916 2216 3909 1719 
L 3909 0 
L 2784 0 
L 2784 1825 
Q 2784 2406 2684 2573 
Q 2584 2741 2328 2741 
Q 2006 2741 1831 2477 
Q 1656 2213 1656 1722 
L 1656 0 
L 531 0 
L 531 3500 
L 1656 3500 
L 1656 2988 
Q 1863 3284 2130 3434 
Q 2397 3584 2719 3584 
Q 3081 3584 3359 3409 
Q 3638 3234 3781 2919 
z
" transform="scale(0.015625)"/>
       <path id="DejaVuSans-Bold-65" d="M 4031 1759 
L 4031 1441 
L 1416 1441 
Q 1456 1047 1700 850 
Q 1944 653 2381 653 
Q 2734 653 3104 758 
Q 3475 863 3866 1075 
L 3866 213 
Q 3469 63 3072 -14 
Q 2675 -91 2278 -91 
Q 1328 -91 801 392 
Q 275 875 275 1747 
Q 275 2603 792 3093 
Q 1309 3584 2216 3584 
Q 3041 3584 3536 3087 
Q 4031 2591 4031 1759 
z
M 2881 2131 
Q 2881 2450 2695 2645 
Q 2509 2841 2209 2841 
Q 1884 2841 1681 2658 
Q 1478 2475 1428 2131 
L 2881 2131 
z
" transform="scale(0.015625)"/>
       <path id="DejaVuSans-Bold-20" transform="scale(0.015625)"/>
       <path id="DejaVuSans-Bold-5b" d="M 550 4863 
L 2491 4863 
L 2491 4159 
L 1613 4159 
L 1613 -141 
L 2491 -141 
L 2491 -844 
L 550 -844 
L 550 4863 
z
" transform="scale(0.015625)"/>
       <path id="DejaVuSans-Bold-68" d="M 4056 2131 
L 4056 0 
L 2931 0 
L 2931 347 
L 2931 1625 
Q 2931 2084 2911 2256 
Q 2891 2428 2841 2509 
Q 2775 2619 2662 2680 
Q 2550 2741 2406 2741 
Q 2056 2741 1856 2470 
Q 1656 2200 1656 1722 
L 1656 0 
L 538 0 
L 538 4863 
L 1656 4863 
L 1656 2988 
Q 1909 3294 2193 3439 
Q 2478 3584 2822 3584 
Q 3428 3584 3742 3212 
Q 4056 2841 4056 2131 
z
" transform="scale(0.015625)"/>
       <path id="DejaVuSans-Bold-72" d="M 3138 2547 
Q 2991 2616 2845 2648 
Q 2700 2681 2553 2681 
Q 2122 2681 1889 2404 
Q 1656 2128 1656 1613 
L 1656 0 
L 538 0 
L 538 3500 
L 1656 3500 
L 1656 2925 
Q 1872 3269 2151 3426 
Q 2431 3584 2822 3584 
Q 2878 3584 2943 3579 
Q 3009 3575 3134 3559 
L 3138 2547 
z
" transform="scale(0.015625)"/>
       <path id="DejaVuSans-Bold-5d" d="M 2375 -844 
L 434 -844 
L 434 -141 
L 1313 -141 
L 1313 4159 
L 434 4159 
L 434 4863 
L 2375 4863 
L 2375 -844 
z
" transform="scale(0.015625)"/>
      </defs>
      <use xlink:href="#DejaVuSans-Bold-54"/>
      <use xlink:href="#DejaVuSans-Bold-69" x="68.212891"/>
      <use xlink:href="#DejaVuSans-Bold-6d" x="102.490234"/>
      <use xlink:href="#DejaVuSans-Bold-65" x="206.689453"/>
      <use xlink:href="#DejaVuSans-Bold-20" x="274.511719"/>
      <use xlink:href="#DejaVuSans-Bold-5b" x="309.326172"/>
      <use xlink:href="#DejaVuSans-Bold-68" x="355.029297"/>
      <use xlink:href="#DejaVuSans-Bold-72" x="426.220703"/>
      <use xlink:href="#DejaVuSans-Bold-5d" x="475.537109"/>
     </g>
    </g>
   </g>
   <g id="matplotlib.axis_2">
    <g id="ytick_1">
     <g id="line2d_7">
      <defs>
       <path id="m16aa890aab" d="M 0 0 
L -3.5 0 
" style="stroke: #000000; stroke-width: 0.8"/>
      </defs>
      <g>
       <use xlink:href="#m16aa890aab" x="59.452344" y="307.8" style="stroke: #000000; stroke-width: 0.8"/>
      </g>
     </g>
     <g id="text_8">
      <!-- 0.00 -->
      <g transform="translate(25.733594 312.359062) scale(0.12 -0.12)">
       <defs>
        <path id="DejaVuSans-2e" d="M 684 794 
L 1344 794 
L 1344 0 
L 684 0 
L 684 794 
z
" transform="scale(0.015625)"/>
       </defs>
       <use xlink:href="#DejaVuSans-30"/>
       <use xlink:href="#DejaVuSans-2e" x="63.623047"/>
       <use xlink:href="#DejaVuSans-30" x="95.410156"/>
       <use xlink:href="#DejaVuSans-30" x="159.033203"/>
      </g>
     </g>
    </g>
    <g id="ytick_2">
     <g id="line2d_8">
      <g>
       <use xlink:href="#m16aa890aab" x="59.452344" y="271.098395" style="stroke: #000000; stroke-width: 0.8"/>
      </g>
     </g>
     <g id="text_9">
      <!-- 0.05 -->
      <g transform="translate(25.733594 275.657457) scale(0.12 -0.12)">
       <use xlink:href="#DejaVuSans-30"/>
       <use xlink:href="#DejaVuSans-2e" x="63.623047"/>
       <use xlink:href="#DejaVuSans-30" x="95.410156"/>
       <use xlink:href="#DejaVuSans-35" x="159.033203"/>
      </g>
     </g>
    </g>
    <g id="ytick_3">
     <g id="line2d_9">
      <g>
       <use xlink:href="#m16aa890aab" x="59.452344" y="234.396789" style="stroke: #000000; stroke-width: 0.8"/>
      </g>
     </g>
     <g id="text_10">
      <!-- 0.10 -->
      <g transform="translate(25.733594 238.955852) scale(0.12 -0.12)">
       <use xlink:href="#DejaVuSans-30"/>
       <use xlink:href="#DejaVuSans-2e" x="63.623047"/>
       <use xlink:href="#DejaVuSans-31" x="95.410156"/>
       <use xlink:href="#DejaVuSans-30" x="159.033203"/>
      </g>
     </g>
    </g>
    <g id="ytick_4">
     <g id="line2d_10">
      <g>
       <use xlink:href="#m16aa890aab" x="59.452344" y="197.695184" style="stroke: #000000; stroke-width: 0.8"/>
      </g>
     </g>
     <g id="text_11">
      <!-- 0.15 -->
      <g transform="translate(25.733594 202.254246) scale(0.12 -0.12)">
       <use xlink:href="#DejaVuSans-30"/>
       <use xlink:href="#DejaVuSans-2e" x="63.623047"/>
       <use xlink:href="#DejaVuSans-31" x="95.410156"/>
       <use xlink:href="#DejaVuSans-35" x="159.033203"/>
      </g>
     </g>
    </g>
    <g id="ytick_5">
     <g id="line2d_11">
      <g>
       <use xlink:href="#m16aa890aab" x="59.452344" y="160.993578" style="stroke: #000000; stroke-width: 0.8"/>
      </g>
     </g>
     <g id="text_12">
      <!-- 0.20 -->
      <g transform="translate(25.733594 165.552641) scale(0.12 -0.12)">
       <use xlink:href="#DejaVuSans-30"/>
       <use xlink:href="#DejaVuSans-2e" x="63.623047"/>
       <use xlink:href="#DejaVuSans-32" x="95.410156"/>
       <use xlink:href="#DejaVuSans-30" x="159.033203"/>
      </g>
     </g>
    </g>
    <g id="ytick_6">
     <g id="line2d_12">
      <g>
       <use xlink:href="#m16aa890aab" x="59.452344" y="124.291973" style="stroke: #000000; stroke-width: 0.8"/>
      </g>
     </g>
     <g id="text_13">
      <!-- 0.25 -->
      <g transform="translate(25.733594 128.851035) scale(0.12 -0.12)">
       <use xlink:href="#DejaVuSans-30"/>
       <use xlink:href="#DejaVuSans-2e" x="63.623047"/>
       <use xlink:href="#DejaVuSans-32" x="95.410156"/>
       <use xlink:href="#DejaVuSans-35" x="159.033203"/>
      </g>
     </g>
    </g>
    <g id="ytick_7">
     <g id="line2d_13">
      <g>
       <use xlink:href="#m16aa890aab" x="59.452344" y="87.590367" style="stroke: #000000; stroke-width: 0.8"/>
      </g>
     </g>
     <g id="text_14">
      <!-- 0.30 -->
      <g transform="translate(25.733594 92.14943) scale(0.12 -0.12)">
       <use xlink:href="#DejaVuSans-30"/>
       <use xlink:href="#DejaVuSans-2e" x="63.623047"/>
       <use xlink:href="#DejaVuSans-33" x="95.410156"/>
       <use xlink:href="#DejaVuSans-30" x="159.033203"/>
      </g>
     </g>
    </g>
    <g id="ytick_8">
     <g id="line2d_14">
      <g>
       <use xlink:href="#m16aa890aab" x="59.452344" y="50.888762" style="stroke: #000000; stroke-width: 0.8"/>
      </g>
     </g>
     <g id="text_15">
      <!-- 0.35 -->
      <g transform="translate(25.733594 55.447824) scale(0.12 -0.12)">
       <use xlink:href="#DejaVuSans-30"/>
       <use xlink:href="#DejaVuSans-2e" x="63.623047"/>
       <use xlink:href="#DejaVuSans-33" x="95.410156"/>
       <use xlink:href="#DejaVuSans-35" x="159.033203"/>
      </g>
     </g>
    </g>
    <g id="text_16">
     <!-- Glimepiride Plasma [µM] -->
     <g transform="translate(18.597656 286.194141) rotate(-90) scale(0.15 -0.15)">
      <defs>
       <path id="DejaVuSans-Bold-47" d="M 4781 347 
Q 4331 128 3847 18 
Q 3363 -91 2847 -91 
Q 1681 -91 1000 561 
Q 319 1213 319 2328 
Q 319 3456 1012 4103 
Q 1706 4750 2913 4750 
Q 3378 4750 3804 4662 
Q 4231 4575 4609 4403 
L 4609 3438 
Q 4219 3659 3833 3768 
Q 3447 3878 3059 3878 
Q 2341 3878 1952 3476 
Q 1563 3075 1563 2328 
Q 1563 1588 1938 1184 
Q 2313 781 3003 781 
Q 3191 781 3352 804 
Q 3513 828 3641 878 
L 3641 1784 
L 2906 1784 
L 2906 2591 
L 4781 2591 
L 4781 347 
z
" transform="scale(0.015625)"/>
       <path id="DejaVuSans-Bold-6c" d="M 538 4863 
L 1656 4863 
L 1656 0 
L 538 0 
L 538 4863 
z
" transform="scale(0.015625)"/>
       <path id="DejaVuSans-Bold-70" d="M 1656 506 
L 1656 -1331 
L 538 -1331 
L 538 3500 
L 1656 3500 
L 1656 2988 
Q 1888 3294 2169 3439 
Q 2450 3584 2816 3584 
Q 3463 3584 3878 3070 
Q 4294 2556 4294 1747 
Q 4294 938 3878 423 
Q 3463 -91 2816 -91 
Q 2450 -91 2169 54 
Q 1888 200 1656 506 
z
M 2400 2772 
Q 2041 2772 1848 2508 
Q 1656 2244 1656 1747 
Q 1656 1250 1848 986 
Q 2041 722 2400 722 
Q 2759 722 2948 984 
Q 3138 1247 3138 1747 
Q 3138 2247 2948 2509 
Q 2759 2772 2400 2772 
z
" transform="scale(0.015625)"/>
       <path id="DejaVuSans-Bold-64" d="M 2919 2988 
L 2919 4863 
L 4044 4863 
L 4044 0 
L 2919 0 
L 2919 506 
Q 2688 197 2409 53 
Q 2131 -91 1766 -91 
Q 1119 -91 703 423 
Q 288 938 288 1747 
Q 288 2556 703 3070 
Q 1119 3584 1766 3584 
Q 2128 3584 2408 3439 
Q 2688 3294 2919 2988 
z
M 2181 722 
Q 2541 722 2730 984 
Q 2919 1247 2919 1747 
Q 2919 2247 2730 2509 
Q 2541 2772 2181 2772 
Q 1825 2772 1636 2509 
Q 1447 2247 1447 1747 
Q 1447 1247 1636 984 
Q 1825 722 2181 722 
z
" transform="scale(0.015625)"/>
       <path id="DejaVuSans-Bold-50" d="M 588 4666 
L 2584 4666 
Q 3475 4666 3951 4270 
Q 4428 3875 4428 3144 
Q 4428 2409 3951 2014 
Q 3475 1619 2584 1619 
L 1791 1619 
L 1791 0 
L 588 0 
L 588 4666 
z
M 1791 3794 
L 1791 2491 
L 2456 2491 
Q 2806 2491 2997 2661 
Q 3188 2831 3188 3144 
Q 3188 3456 2997 3625 
Q 2806 3794 2456 3794 
L 1791 3794 
z
" transform="scale(0.015625)"/>
       <path id="DejaVuSans-Bold-61" d="M 2106 1575 
Q 1756 1575 1579 1456 
Q 1403 1338 1403 1106 
Q 1403 894 1545 773 
Q 1688 653 1941 653 
Q 2256 653 2472 879 
Q 2688 1106 2688 1447 
L 2688 1575 
L 2106 1575 
z
M 3816 1997 
L 3816 0 
L 2688 0 
L 2688 519 
Q 2463 200 2181 54 
Q 1900 -91 1497 -91 
Q 953 -91 614 226 
Q 275 544 275 1050 
Q 275 1666 698 1953 
Q 1122 2241 2028 2241 
L 2688 2241 
L 2688 2328 
Q 2688 2594 2478 2717 
Q 2269 2841 1825 2841 
Q 1466 2841 1156 2769 
Q 847 2697 581 2553 
L 581 3406 
Q 941 3494 1303 3539 
Q 1666 3584 2028 3584 
Q 2975 3584 3395 3211 
Q 3816 2838 3816 1997 
z
" transform="scale(0.015625)"/>
       <path id="DejaVuSans-Bold-73" d="M 3272 3391 
L 3272 2541 
Q 2913 2691 2578 2766 
Q 2244 2841 1947 2841 
Q 1628 2841 1473 2761 
Q 1319 2681 1319 2516 
Q 1319 2381 1436 2309 
Q 1553 2238 1856 2203 
L 2053 2175 
Q 2913 2066 3209 1816 
Q 3506 1566 3506 1031 
Q 3506 472 3093 190 
Q 2681 -91 1863 -91 
Q 1516 -91 1145 -36 
Q 775 19 384 128 
L 384 978 
Q 719 816 1070 734 
Q 1422 653 1784 653 
Q 2113 653 2278 743 
Q 2444 834 2444 1013 
Q 2444 1163 2330 1236 
Q 2216 1309 1875 1350 
L 1678 1375 
Q 931 1469 631 1722 
Q 331 1975 331 2491 
Q 331 3047 712 3315 
Q 1094 3584 1881 3584 
Q 2191 3584 2531 3537 
Q 2872 3491 3272 3391 
z
" transform="scale(0.015625)"/>
       <path id="DejaVuSans-Bold-b5" d="M 544 -1338 
L 544 3500 
L 1672 3500 
L 1672 1466 
Q 1672 1103 1828 926 
Q 1984 750 2303 750 
Q 2625 750 2781 926 
Q 2938 1103 2938 1466 
L 2938 3500 
L 4063 3500 
L 4063 1159 
Q 4063 938 4114 850 
Q 4166 763 4288 763 
Q 4344 763 4395 778 
Q 4447 794 4506 831 
L 4506 50 
Q 4341 -22 4195 -56 
Q 4050 -91 3909 -91 
Q 3631 -91 3454 26 
Q 3278 144 3169 403 
Q 3022 156 2811 32 
Q 2600 -91 2322 -91 
Q 2091 -91 1928 -17 
Q 1766 56 1672 206 
L 1672 -1338 
L 544 -1338 
z
" transform="scale(0.015625)"/>
       <path id="DejaVuSans-Bold-4d" d="M 588 4666 
L 2119 4666 
L 3181 2169 
L 4250 4666 
L 5778 4666 
L 5778 0 
L 4641 0 
L 4641 3413 
L 3566 897 
L 2803 897 
L 1728 3413 
L 1728 0 
L 588 0 
L 588 4666 
z
" transform="scale(0.015625)"/>
      </defs>
      <use xlink:href="#DejaVuSans-Bold-47"/>
      <use xlink:href="#DejaVuSans-Bold-6c" x="82.080078"/>
      <use xlink:href="#DejaVuSans-Bold-69" x="116.357422"/>
      <use xlink:href="#DejaVuSans-Bold-6d" x="150.634766"/>
      <use xlink:href="#DejaVuSans-Bold-65" x="254.833984"/>
      <use xlink:href="#DejaVuSans-Bold-70" x="322.65625"/>
      <use xlink:href="#DejaVuSans-Bold-69" x="394.238281"/>
      <use xlink:href="#DejaVuSans-Bold-72" x="428.515625"/>
      <use xlink:href="#DejaVuSans-Bold-69" x="477.832031"/>
      <use xlink:href="#DejaVuSans-Bold-64" x="512.109375"/>
      <use xlink:href="#DejaVuSans-Bold-65" x="583.691406"/>
      <use xlink:href="#DejaVuSans-Bold-20" x="651.513672"/>
      <use xlink:href="#DejaVuSans-Bold-50" x="686.328125"/>
      <use xlink:href="#DejaVuSans-Bold-6c" x="759.619141"/>
      <use xlink:href="#DejaVuSans-Bold-61" x="793.896484"/>
      <use xlink:href="#DejaVuSans-Bold-73" x="861.376953"/>
      <use xlink:href="#DejaVuSans-Bold-6d" x="920.898438"/>
      <use xlink:href="#DejaVuSans-Bold-61" x="1025.097656"/>
      <use xlink:href="#DejaVuSans-Bold-20" x="1092.578125"/>
      <use xlink:href="#DejaVuSans-Bold-5b" x="1127.392578"/>
      <use xlink:href="#DejaVuSans-Bold-b5" x="1173.095703"/>
      <use xlink:href="#DejaVuSans-Bold-4d" x="1246.679688"/>
      <use xlink:href="#DejaVuSans-Bold-5d" x="1346.191406"/>
     </g>
    </g>
   </g>
   <g id="LineCollection_1">
    <path clip-path="url(#p249adbefac)" style="fill: none; stroke: #1f77b4"/>
    <path d="M 78.101907 298.744929 
L 78.101907 282.939724 
" clip-path="url(#p249adbefac)" style="fill: none; stroke: #1f77b4"/>
    <path d="M 81.045171 277.671327 
L 81.045171 266.475964 
" clip-path="url(#p249adbefac)" style="fill: none; stroke: #1f77b4"/>
    <path d="M 84.255999 272.732201 
L 84.255999 252.646409 
" clip-path="url(#p249adbefac)" style="fill: none; stroke: #1f77b4"/>
    <path d="M 87.242067 276.189589 
L 87.242067 243.262068 
" clip-path="url(#p249adbefac)" style="fill: none; stroke: #1f77b4"/>
    <path d="M 90.329814 281.128716 
L 90.329814 237.664401 
" clip-path="url(#p249adbefac)" style="fill: none; stroke: #1f77b4"/>
    <path d="M 93.417561 284.092192 
L 93.417561 234.700925 
" clip-path="url(#p249adbefac)" style="fill: none; stroke: #1f77b4"/>
    <path d="M 99.593055 284.092192 
L 99.593055 224.493387 
" clip-path="url(#p249adbefac)" style="fill: none; stroke: #1f77b4"/>
    <path d="M 105.768549 255.445257 
L 105.768549 195.187912 
" clip-path="url(#p249adbefac)" style="fill: none; stroke: #1f77b4"/>
    <path d="M 111.944043 249.35367 
L 111.944043 189.425595 
" clip-path="url(#p249adbefac)" style="fill: none; stroke: #1f77b4"/>
    <path d="M 124.295031 267.134519 
L 124.295031 223.670204 
" clip-path="url(#p249adbefac)" style="fill: none; stroke: #1f77b4"/>
    <path d="M 136.64602 286.726405 
L 136.64602 224.493394 
" clip-path="url(#p249adbefac)" style="fill: none; stroke: #1f77b4"/>
    <path d="M 152.084755 300.226667 
L 152.084755 248.530495 
" clip-path="url(#p249adbefac)" style="fill: none; stroke: #1f77b4"/>
    <path d="M 229.278431 305.165794 
L 229.278431 299.238842 
" clip-path="url(#p249adbefac)" style="fill: none; stroke: #1f77b4"/>
    <path d="M 383.665782 307.141445 
L 383.665782 303.190143 
" clip-path="url(#p249adbefac)" style="fill: none; stroke: #1f77b4"/>
   </g>
   <g id="LineCollection_2">
    <path clip-path="url(#p249adbefac)" style="fill: none; stroke: #000000"/>
    <path d="M 78.101907 289.689874 
L 78.101907 268.616257 
" clip-path="url(#p249adbefac)" style="fill: none; stroke: #000000"/>
    <path d="M 81.045171 258.079471 
L 81.045171 235.359473 
" clip-path="url(#p249adbefac)" style="fill: none; stroke: #000000"/>
    <path d="M 84.255999 254.622067 
L 84.255999 217.084704 
" clip-path="url(#p249adbefac)" style="fill: none; stroke: #000000"/>
    <path d="M 87.242067 253.634249 
L 87.242067 217.743252 
" clip-path="url(#p249adbefac)" style="fill: none; stroke: #000000"/>
    <path d="M 90.329814 257.914821 
L 90.329814 224.328759 
" clip-path="url(#p249adbefac)" style="fill: none; stroke: #000000"/>
    <path d="M 93.417561 259.725829 
L 93.417561 231.078894 
" clip-path="url(#p249adbefac)" style="fill: none; stroke: #000000"/>
    <path d="M 99.593055 267.134534 
L 99.593055 227.292235 
" clip-path="url(#p249adbefac)" style="fill: none; stroke: #000000"/>
    <path d="M 105.768549 264.171043 
L 105.768549 196.99892 
" clip-path="url(#p249adbefac)" style="fill: none; stroke: #000000"/>
    <path d="M 111.944043 263.512503 
L 111.944043 201.938047 
" clip-path="url(#p249adbefac)" style="fill: none; stroke: #000000"/>
    <path d="M 124.295031 272.402931 
L 124.295031 234.206998 
" clip-path="url(#p249adbefac)" style="fill: none; stroke: #000000"/>
    <path d="M 136.64602 289.525231 
L 136.64602 223.670219 
" clip-path="url(#p249adbefac)" style="fill: none; stroke: #000000"/>
    <path d="M 152.084755 300.72058 
L 152.084755 242.10963 
" clip-path="url(#p249adbefac)" style="fill: none; stroke: #000000"/>
    <path d="M 229.278431 306.153619 
L 229.278431 300.885238 
" clip-path="url(#p249adbefac)" style="fill: none; stroke: #000000"/>
    <path d="M 383.665782 307.141445 
L 383.665782 303.848714 
" clip-path="url(#p249adbefac)" style="fill: none; stroke: #000000"/>
   </g>
   <g id="line2d_15">
    <path d="M 74.891079 307.8 
L 75.508628 304.237889 
L 76.126178 293.546512 
L 76.743727 277.992456 
L 77.978826 239.24698 
L 80.449024 159.626497 
L 81.684122 126.831101 
L 82.919221 100.596279 
L 84.15432 80.971897 
L 84.771869 73.505271 
L 85.389419 67.492856 
L 86.006968 62.839572 
L 86.624518 59.445261 
L 87.242067 57.207879 
L 87.859616 56.025884 
L 88.477166 55.8 
L 89.094715 56.434477 
L 89.712265 57.837972 
L 90.329814 59.924123 
L 90.947364 62.611893 
L 92.182462 69.495598 
L 93.417561 77.950323 
L 95.270209 92.605193 
L 98.357956 119.499932 
L 102.063253 151.629692 
L 104.53345 171.407181 
L 107.003648 189.333054 
L 109.473846 205.259116 
L 111.326494 215.897391 
L 113.179142 225.463638 
L 115.03179 234.021855 
L 116.884439 241.646577 
L 118.737087 248.417 
L 120.589735 254.412892 
L 122.442383 259.711843 
L 124.295031 264.387502 
L 126.14768 268.508529 
L 128.000328 272.138066 
L 129.852976 275.333558 
L 131.705624 278.146823 
L 133.558273 280.624288 
L 135.410921 282.80731 
L 137.881118 285.322741 
L 140.351316 287.454697 
L 142.821514 289.26663 
L 145.291711 290.811785 
L 148.379458 292.435181 
L 151.467205 293.781789 
L 155.172502 295.110923 
L 158.877798 296.19773 
L 163.200644 297.234694 
L 168.141039 298.195176 
L 174.316533 299.158312 
L 181.727126 300.079829 
L 190.990367 301.001583 
L 202.723806 301.940085 
L 217.544992 302.894246 
L 235.453925 303.815096 
L 256.450605 304.660809 
L 280.535031 305.39869 
L 308.324755 306.022199 
L 341.672423 306.541382 
L 383.048233 306.954209 
L 383.665782 306.95895 
L 383.665782 306.95895 
" clip-path="url(#p249adbefac)" style="fill: none; stroke: #000000; stroke-width: 2; stroke-linecap: square"/>
   </g>
   <g id="line2d_16">
    <path d="M 74.891079 307.8 
L 78.101907 290.842327 
L 81.045171 272.073645 
L 84.255999 262.689305 
L 87.242067 259.725829 
L 90.329814 259.396559 
L 93.417561 259.396559 
L 99.593055 254.292789 
L 105.768549 225.316585 
L 111.944043 219.389633 
L 124.295031 245.402361 
L 136.64602 255.6099 
L 152.084755 274.378581 
L 229.278431 302.202318 
L 383.665782 305.165794 
" clip-path="url(#p249adbefac)" style="fill: none; stroke-dasharray: 3.7,1.6; stroke-dashoffset: 0; stroke: #1f77b4"/>
    <defs>
     <path id="m7824f67926" d="M -3 3 
L 3 3 
L 3 -3 
L -3 -3 
z
" style="stroke: #000000; stroke-linejoin: miter"/>
    </defs>
    <g clip-path="url(#p249adbefac)">
     <use xlink:href="#m7824f67926" x="74.891079" y="307.8" style="fill: #1f77b4; stroke: #000000; stroke-linejoin: miter"/>
     <use xlink:href="#m7824f67926" x="78.101907" y="290.842327" style="fill: #1f77b4; stroke: #000000; stroke-linejoin: miter"/>
     <use xlink:href="#m7824f67926" x="81.045171" y="272.073645" style="fill: #1f77b4; stroke: #000000; stroke-linejoin: miter"/>
     <use xlink:href="#m7824f67926" x="84.255999" y="262.689305" style="fill: #1f77b4; stroke: #000000; stroke-linejoin: miter"/>
     <use xlink:href="#m7824f67926" x="87.242067" y="259.725829" style="fill: #1f77b4; stroke: #000000; stroke-linejoin: miter"/>
     <use xlink:href="#m7824f67926" x="90.329814" y="259.396559" style="fill: #1f77b4; stroke: #000000; stroke-linejoin: miter"/>
     <use xlink:href="#m7824f67926" x="93.417561" y="259.396559" style="fill: #1f77b4; stroke: #000000; stroke-linejoin: miter"/>
     <use xlink:href="#m7824f67926" x="99.593055" y="254.292789" style="fill: #1f77b4; stroke: #000000; stroke-linejoin: miter"/>
     <use xlink:href="#m7824f67926" x="105.768549" y="225.316585" style="fill: #1f77b4; stroke: #000000; stroke-linejoin: miter"/>
     <use xlink:href="#m7824f67926" x="111.944043" y="219.389633" style="fill: #1f77b4; stroke: #000000; stroke-linejoin: miter"/>
     <use xlink:href="#m7824f67926" x="124.295031" y="245.402361" style="fill: #1f77b4; stroke: #000000; stroke-linejoin: miter"/>
     <use xlink:href="#m7824f67926" x="136.64602" y="255.6099" style="fill: #1f77b4; stroke: #000000; stroke-linejoin: miter"/>
     <use xlink:href="#m7824f67926" x="152.084755" y="274.378581" style="fill: #1f77b4; stroke: #000000; stroke-linejoin: miter"/>
     <use xlink:href="#m7824f67926" x="229.278431" y="302.202318" style="fill: #1f77b4; stroke: #000000; stroke-linejoin: miter"/>
     <use xlink:href="#m7824f67926" x="383.665782" y="305.165794" style="fill: #1f77b4; stroke: #000000; stroke-linejoin: miter"/>
    </g>
   </g>
   <g id="line2d_17">
    <path d="M 74.891079 307.8 
L 78.101907 279.153065 
L 81.045171 246.719472 
L 84.255999 235.853386 
L 87.242067 235.688751 
L 90.329814 241.12179 
L 93.417561 245.402361 
L 99.593055 247.213385 
L 105.768549 230.584982 
L 111.944043 232.725275 
L 124.295031 253.304964 
L 136.64602 256.597725 
L 152.084755 271.415105 
L 229.278431 303.519429 
L 383.665782 305.495079 
" clip-path="url(#p249adbefac)" style="fill: none; stroke-dasharray: 3.7,1.6; stroke-dashoffset: 0; stroke: #000000"/>
    <defs>
     <path id="mce83a1b3e6" d="M -3 3 
L 3 3 
L 3 -3 
L -3 -3 
z
" style="stroke: #000000; stroke-linejoin: miter"/>
    </defs>
    <g clip-path="url(#p249adbefac)">
     <use xlink:href="#mce83a1b3e6" x="74.891079" y="307.8" style="stroke: #000000; stroke-linejoin: miter"/>
     <use xlink:href="#mce83a1b3e6" x="78.101907" y="279.153065" style="stroke: #000000; stroke-linejoin: miter"/>
     <use xlink:href="#mce83a1b3e6" x="81.045171" y="246.719472" style="stroke: #000000; stroke-linejoin: miter"/>
     <use xlink:href="#mce83a1b3e6" x="84.255999" y="235.853386" style="stroke: #000000; stroke-linejoin: miter"/>
     <use xlink:href="#mce83a1b3e6" x="87.242067" y="235.688751" style="stroke: #000000; stroke-linejoin: miter"/>
     <use xlink:href="#mce83a1b3e6" x="90.329814" y="241.12179" style="stroke: #000000; stroke-linejoin: miter"/>
     <use xlink:href="#mce83a1b3e6" x="93.417561" y="245.402361" style="stroke: #000000; stroke-linejoin: miter"/>
     <use xlink:href="#mce83a1b3e6" x="99.593055" y="247.213385" style="stroke: #000000; stroke-linejoin: miter"/>
     <use xlink:href="#mce83a1b3e6" x="105.768549" y="230.584982" style="stroke: #000000; stroke-linejoin: miter"/>
     <use xlink:href="#mce83a1b3e6" x="111.944043" y="232.725275" style="stroke: #000000; stroke-linejoin: miter"/>
     <use xlink:href="#mce83a1b3e6" x="124.295031" y="253.304964" style="stroke: #000000; stroke-linejoin: miter"/>
     <use xlink:href="#mce83a1b3e6" x="136.64602" y="256.597725" style="stroke: #000000; stroke-linejoin: miter"/>
     <use xlink:href="#mce83a1b3e6" x="152.084755" y="271.415105" style="stroke: #000000; stroke-linejoin: miter"/>
     <use xlink:href="#mce83a1b3e6" x="229.278431" y="303.519429" style="stroke: #000000; stroke-linejoin: miter"/>
     <use xlink:href="#mce83a1b3e6" x="383.665782" y="305.495079" style="stroke: #000000; stroke-linejoin: miter"/>
    </g>
   </g>
   <g id="patch_3">
    <path d="M 59.452344 320.4 
L 59.452344 43.2 
" style="fill: none; stroke: #000000; stroke-width: 0.8; stroke-linejoin: miter; stroke-linecap: square"/>
   </g>
   <g id="patch_4">
    <path d="M 399.104518 320.4 
L 399.104518 43.2 
" style="fill: none; stroke: #000000; stroke-width: 0.8; stroke-linejoin: miter; stroke-linecap: square"/>
   </g>
   <g id="patch_5">
    <path d="M 59.452344 320.4 
L 399.104518 320.4 
" style="fill: none; stroke: #000000; stroke-width: 0.8; stroke-linejoin: miter; stroke-linecap: square"/>
   </g>
   <g id="patch_6">
    <path d="M 59.452344 43.2 
L 399.104518 43.2 
" style="fill: none; stroke: #000000; stroke-width: 0.8; stroke-linejoin: miter; stroke-linecap: square"/>
   </g>
   <g id="legend_1">
    <g id="patch_7">
     <path d="M 222.14483 90.030937 
L 392.804518 90.030937 
Q 394.604518 90.030937 394.604518 88.230937 
L 394.604518 49.5 
Q 394.604518 47.7 392.804518 47.7 
L 222.14483 47.7 
Q 220.34483 47.7 220.34483 49.5 
L 220.34483 88.230937 
Q 220.34483 90.030937 222.14483 90.030937 
z
" style="fill: #ffffff; opacity: 0.8; stroke: #cccccc; stroke-linejoin: miter"/>
    </g>
    <g id="line2d_18">
     <path d="M 223.94483 54.988594 
L 241.94483 54.988594 
" style="fill: none; stroke: #000000; stroke-width: 2; stroke-linecap: square"/>
    </g>
    <g id="line2d_19"/>
    <g id="text_17">
     <!-- Sim 2mg PO -->
     <g transform="translate(249.14483 58.138594) scale(0.09 -0.09)">
      <defs>
       <path id="DejaVuSans-53" d="M 3425 4513 
L 3425 3897 
Q 3066 4069 2747 4153 
Q 2428 4238 2131 4238 
Q 1616 4238 1336 4038 
Q 1056 3838 1056 3469 
Q 1056 3159 1242 3001 
Q 1428 2844 1947 2747 
L 2328 2669 
Q 3034 2534 3370 2195 
Q 3706 1856 3706 1288 
Q 3706 609 3251 259 
Q 2797 -91 1919 -91 
Q 1588 -91 1214 -16 
Q 841 59 441 206 
L 441 856 
Q 825 641 1194 531 
Q 1563 422 1919 422 
Q 2459 422 2753 634 
Q 3047 847 3047 1241 
Q 3047 1584 2836 1778 
Q 2625 1972 2144 2069 
L 1759 2144 
Q 1053 2284 737 2584 
Q 422 2884 422 3419 
Q 422 4038 858 4394 
Q 1294 4750 2059 4750 
Q 2388 4750 2728 4690 
Q 3069 4631 3425 4513 
z
" transform="scale(0.015625)"/>
       <path id="DejaVuSans-69" d="M 603 3500 
L 1178 3500 
L 1178 0 
L 603 0 
L 603 3500 
z
M 603 4863 
L 1178 4863 
L 1178 4134 
L 603 4134 
L 603 4863 
z
" transform="scale(0.015625)"/>
       <path id="DejaVuSans-6d" d="M 3328 2828 
Q 3544 3216 3844 3400 
Q 4144 3584 4550 3584 
Q 5097 3584 5394 3201 
Q 5691 2819 5691 2113 
L 5691 0 
L 5113 0 
L 5113 2094 
Q 5113 2597 4934 2840 
Q 4756 3084 4391 3084 
Q 3944 3084 3684 2787 
Q 3425 2491 3425 1978 
L 3425 0 
L 2847 0 
L 2847 2094 
Q 2847 2600 2669 2842 
Q 2491 3084 2119 3084 
Q 1678 3084 1418 2786 
Q 1159 2488 1159 1978 
L 1159 0 
L 581 0 
L 581 3500 
L 1159 3500 
L 1159 2956 
Q 1356 3278 1631 3431 
Q 1906 3584 2284 3584 
Q 2666 3584 2933 3390 
Q 3200 3197 3328 2828 
z
" transform="scale(0.015625)"/>
       <path id="DejaVuSans-20" transform="scale(0.015625)"/>
       <path id="DejaVuSans-67" d="M 2906 1791 
Q 2906 2416 2648 2759 
Q 2391 3103 1925 3103 
Q 1463 3103 1205 2759 
Q 947 2416 947 1791 
Q 947 1169 1205 825 
Q 1463 481 1925 481 
Q 2391 481 2648 825 
Q 2906 1169 2906 1791 
z
M 3481 434 
Q 3481 -459 3084 -895 
Q 2688 -1331 1869 -1331 
Q 1566 -1331 1297 -1286 
Q 1028 -1241 775 -1147 
L 775 -588 
Q 1028 -725 1275 -790 
Q 1522 -856 1778 -856 
Q 2344 -856 2625 -561 
Q 2906 -266 2906 331 
L 2906 616 
Q 2728 306 2450 153 
Q 2172 0 1784 0 
Q 1141 0 747 490 
Q 353 981 353 1791 
Q 353 2603 747 3093 
Q 1141 3584 1784 3584 
Q 2172 3584 2450 3431 
Q 2728 3278 2906 2969 
L 2906 3500 
L 3481 3500 
L 3481 434 
z
" transform="scale(0.015625)"/>
       <path id="DejaVuSans-50" d="M 1259 4147 
L 1259 2394 
L 2053 2394 
Q 2494 2394 2734 2622 
Q 2975 2850 2975 3272 
Q 2975 3691 2734 3919 
Q 2494 4147 2053 4147 
L 1259 4147 
z
M 628 4666 
L 2053 4666 
Q 2838 4666 3239 4311 
Q 3641 3956 3641 3272 
Q 3641 2581 3239 2228 
Q 2838 1875 2053 1875 
L 1259 1875 
L 1259 0 
L 628 0 
L 628 4666 
z
" transform="scale(0.015625)"/>
       <path id="DejaVuSans-4f" d="M 2522 4238 
Q 1834 4238 1429 3725 
Q 1025 3213 1025 2328 
Q 1025 1447 1429 934 
Q 1834 422 2522 422 
Q 3209 422 3611 934 
Q 4013 1447 4013 2328 
Q 4013 3213 3611 3725 
Q 3209 4238 2522 4238 
z
M 2522 4750 
Q 3503 4750 4090 4092 
Q 4678 3434 4678 2328 
Q 4678 1225 4090 567 
Q 3503 -91 2522 -91 
Q 1538 -91 948 565 
Q 359 1222 359 2328 
Q 359 3434 948 4092 
Q 1538 4750 2522 4750 
z
" transform="scale(0.015625)"/>
      </defs>
      <use xlink:href="#DejaVuSans-53"/>
      <use xlink:href="#DejaVuSans-69" x="63.476562"/>
      <use xlink:href="#DejaVuSans-6d" x="91.259766"/>
      <use xlink:href="#DejaVuSans-20" x="188.671875"/>
      <use xlink:href="#DejaVuSans-32" x="220.458984"/>
      <use xlink:href="#DejaVuSans-6d" x="284.082031"/>
      <use xlink:href="#DejaVuSans-67" x="381.494141"/>
      <use xlink:href="#DejaVuSans-20" x="444.970703"/>
      <use xlink:href="#DejaVuSans-50" x="476.757812"/>
      <use xlink:href="#DejaVuSans-4f" x="537.060547"/>
     </g>
    </g>
    <g id="LineCollection_3">
     <path d="M 232.94483 72.698906 
L 232.94483 63.698906 
" style="fill: none; stroke: #1f77b4"/>
    </g>
    <g id="line2d_20">
     <path d="M 223.94483 68.198906 
L 241.94483 68.198906 
" style="fill: none; stroke-dasharray: 3.7,1.6; stroke-dashoffset: 0; stroke: #1f77b4"/>
    </g>
    <g id="line2d_21">
     <g>
      <use xlink:href="#m7824f67926" x="232.94483" y="68.198906" style="fill: #1f77b4; stroke: #000000; stroke-linejoin: miter"/>
     </g>
    </g>
    <g id="text_18">
     <!-- Data 2mg (test) PO±SD (n=23) -->
     <g transform="translate(249.14483 71.348906) scale(0.09 -0.09)">
      <defs>
       <path id="DejaVuSans-44" d="M 1259 4147 
L 1259 519 
L 2022 519 
Q 2988 519 3436 956 
Q 3884 1394 3884 2338 
Q 3884 3275 3436 3711 
Q 2988 4147 2022 4147 
L 1259 4147 
z
M 628 4666 
L 1925 4666 
Q 3281 4666 3915 4102 
Q 4550 3538 4550 2338 
Q 4550 1131 3912 565 
Q 3275 0 1925 0 
L 628 0 
L 628 4666 
z
" transform="scale(0.015625)"/>
       <path id="DejaVuSans-61" d="M 2194 1759 
Q 1497 1759 1228 1600 
Q 959 1441 959 1056 
Q 959 750 1161 570 
Q 1363 391 1709 391 
Q 2188 391 2477 730 
Q 2766 1069 2766 1631 
L 2766 1759 
L 2194 1759 
z
M 3341 1997 
L 3341 0 
L 2766 0 
L 2766 531 
Q 2569 213 2275 61 
Q 1981 -91 1556 -91 
Q 1019 -91 701 211 
Q 384 513 384 1019 
Q 384 1609 779 1909 
Q 1175 2209 1959 2209 
L 2766 2209 
L 2766 2266 
Q 2766 2663 2505 2880 
Q 2244 3097 1772 3097 
Q 1472 3097 1187 3025 
Q 903 2953 641 2809 
L 641 3341 
Q 956 3463 1253 3523 
Q 1550 3584 1831 3584 
Q 2591 3584 2966 3190 
Q 3341 2797 3341 1997 
z
" transform="scale(0.015625)"/>
       <path id="DejaVuSans-74" d="M 1172 4494 
L 1172 3500 
L 2356 3500 
L 2356 3053 
L 1172 3053 
L 1172 1153 
Q 1172 725 1289 603 
Q 1406 481 1766 481 
L 2356 481 
L 2356 0 
L 1766 0 
Q 1100 0 847 248 
Q 594 497 594 1153 
L 594 3053 
L 172 3053 
L 172 3500 
L 594 3500 
L 594 4494 
L 1172 4494 
z
" transform="scale(0.015625)"/>
       <path id="DejaVuSans-28" d="M 1984 4856 
Q 1566 4138 1362 3434 
Q 1159 2731 1159 2009 
Q 1159 1288 1364 580 
Q 1569 -128 1984 -844 
L 1484 -844 
Q 1016 -109 783 600 
Q 550 1309 550 2009 
Q 550 2706 781 3412 
Q 1013 4119 1484 4856 
L 1984 4856 
z
" transform="scale(0.015625)"/>
       <path id="DejaVuSans-65" d="M 3597 1894 
L 3597 1613 
L 953 1613 
Q 991 1019 1311 708 
Q 1631 397 2203 397 
Q 2534 397 2845 478 
Q 3156 559 3463 722 
L 3463 178 
Q 3153 47 2828 -22 
Q 2503 -91 2169 -91 
Q 1331 -91 842 396 
Q 353 884 353 1716 
Q 353 2575 817 3079 
Q 1281 3584 2069 3584 
Q 2775 3584 3186 3129 
Q 3597 2675 3597 1894 
z
M 3022 2063 
Q 3016 2534 2758 2815 
Q 2500 3097 2075 3097 
Q 1594 3097 1305 2825 
Q 1016 2553 972 2059 
L 3022 2063 
z
" transform="scale(0.015625)"/>
       <path id="DejaVuSans-73" d="M 2834 3397 
L 2834 2853 
Q 2591 2978 2328 3040 
Q 2066 3103 1784 3103 
Q 1356 3103 1142 2972 
Q 928 2841 928 2578 
Q 928 2378 1081 2264 
Q 1234 2150 1697 2047 
L 1894 2003 
Q 2506 1872 2764 1633 
Q 3022 1394 3022 966 
Q 3022 478 2636 193 
Q 2250 -91 1575 -91 
Q 1294 -91 989 -36 
Q 684 19 347 128 
L 347 722 
Q 666 556 975 473 
Q 1284 391 1588 391 
Q 1994 391 2212 530 
Q 2431 669 2431 922 
Q 2431 1156 2273 1281 
Q 2116 1406 1581 1522 
L 1381 1569 
Q 847 1681 609 1914 
Q 372 2147 372 2553 
Q 372 3047 722 3315 
Q 1072 3584 1716 3584 
Q 2034 3584 2315 3537 
Q 2597 3491 2834 3397 
z
" transform="scale(0.015625)"/>
       <path id="DejaVuSans-29" d="M 513 4856 
L 1013 4856 
Q 1481 4119 1714 3412 
Q 1947 2706 1947 2009 
Q 1947 1309 1714 600 
Q 1481 -109 1013 -844 
L 513 -844 
Q 928 -128 1133 580 
Q 1338 1288 1338 2009 
Q 1338 2731 1133 3434 
Q 928 4138 513 4856 
z
" transform="scale(0.015625)"/>
       <path id="DejaVuSans-b1" d="M 2944 4013 
L 2944 2803 
L 4684 2803 
L 4684 2272 
L 2944 2272 
L 2944 1063 
L 2419 1063 
L 2419 2272 
L 678 2272 
L 678 2803 
L 2419 2803 
L 2419 4013 
L 2944 4013 
z
M 678 531 
L 4684 531 
L 4684 0 
L 678 0 
L 678 531 
z
" transform="scale(0.015625)"/>
       <path id="DejaVuSans-6e" d="M 3513 2113 
L 3513 0 
L 2938 0 
L 2938 2094 
Q 2938 2591 2744 2837 
Q 2550 3084 2163 3084 
Q 1697 3084 1428 2787 
Q 1159 2491 1159 1978 
L 1159 0 
L 581 0 
L 581 3500 
L 1159 3500 
L 1159 2956 
Q 1366 3272 1645 3428 
Q 1925 3584 2291 3584 
Q 2894 3584 3203 3211 
Q 3513 2838 3513 2113 
z
" transform="scale(0.015625)"/>
       <path id="DejaVuSans-3d" d="M 678 2906 
L 4684 2906 
L 4684 2381 
L 678 2381 
L 678 2906 
z
M 678 1631 
L 4684 1631 
L 4684 1100 
L 678 1100 
L 678 1631 
z
" transform="scale(0.015625)"/>
      </defs>
      <use xlink:href="#DejaVuSans-44"/>
      <use xlink:href="#DejaVuSans-61" x="77.001953"/>
      <use xlink:href="#DejaVuSans-74" x="138.28125"/>
      <use xlink:href="#DejaVuSans-61" x="177.490234"/>
      <use xlink:href="#DejaVuSans-20" x="238.769531"/>
      <use xlink:href="#DejaVuSans-32" x="270.556641"/>
      <use xlink:href="#DejaVuSans-6d" x="334.179688"/>
      <use xlink:href="#DejaVuSans-67" x="431.591797"/>
      <use xlink:href="#DejaVuSans-20" x="495.068359"/>
      <use xlink:href="#DejaVuSans-28" x="526.855469"/>
      <use xlink:href="#DejaVuSans-74" x="565.869141"/>
      <use xlink:href="#DejaVuSans-65" x="605.078125"/>
      <use xlink:href="#DejaVuSans-73" x="666.601562"/>
      <use xlink:href="#DejaVuSans-74" x="718.701172"/>
      <use xlink:href="#DejaVuSans-29" x="757.910156"/>
      <use xlink:href="#DejaVuSans-20" x="796.923828"/>
      <use xlink:href="#DejaVuSans-50" x="828.710938"/>
      <use xlink:href="#DejaVuSans-4f" x="889.013672"/>
      <use xlink:href="#DejaVuSans-b1" x="967.724609"/>
      <use xlink:href="#DejaVuSans-53" x="1051.513672"/>
      <use xlink:href="#DejaVuSans-44" x="1114.990234"/>
      <use xlink:href="#DejaVuSans-20" x="1191.992188"/>
      <use xlink:href="#DejaVuSans-28" x="1223.779297"/>
      <use xlink:href="#DejaVuSans-6e" x="1262.792969"/>
      <use xlink:href="#DejaVuSans-3d" x="1326.171875"/>
      <use xlink:href="#DejaVuSans-32" x="1409.960938"/>
      <use xlink:href="#DejaVuSans-33" x="1473.583984"/>
      <use xlink:href="#DejaVuSans-29" x="1537.207031"/>
     </g>
    </g>
    <g id="LineCollection_4">
     <path d="M 232.94483 85.909219 
L 232.94483 76.909219 
" style="fill: none; stroke: #000000"/>
    </g>
    <g id="line2d_22">
     <path d="M 223.94483 81.409219 
L 241.94483 81.409219 
" style="fill: none; stroke-dasharray: 3.7,1.6; stroke-dashoffset: 0; stroke: #000000"/>
    </g>
    <g id="line2d_23">
     <g>
      <use xlink:href="#mce83a1b3e6" x="232.94483" y="81.409219" style="stroke: #000000; stroke-linejoin: miter"/>
     </g>
    </g>
    <g id="text_19">
     <!-- Data 2mg (ref) PO±SD (n=23) -->
     <g transform="translate(249.14483 84.559219) scale(0.09 -0.09)">
      <defs>
       <path id="DejaVuSans-72" d="M 2631 2963 
Q 2534 3019 2420 3045 
Q 2306 3072 2169 3072 
Q 1681 3072 1420 2755 
Q 1159 2438 1159 1844 
L 1159 0 
L 581 0 
L 581 3500 
L 1159 3500 
L 1159 2956 
Q 1341 3275 1631 3429 
Q 1922 3584 2338 3584 
Q 2397 3584 2469 3576 
Q 2541 3569 2628 3553 
L 2631 2963 
z
" transform="scale(0.015625)"/>
       <path id="DejaVuSans-66" d="M 2375 4863 
L 2375 4384 
L 1825 4384 
Q 1516 4384 1395 4259 
Q 1275 4134 1275 3809 
L 1275 3500 
L 2222 3500 
L 2222 3053 
L 1275 3053 
L 1275 0 
L 697 0 
L 697 3053 
L 147 3053 
L 147 3500 
L 697 3500 
L 697 3744 
Q 697 4328 969 4595 
Q 1241 4863 1831 4863 
L 2375 4863 
z
" transform="scale(0.015625)"/>
      </defs>
      <use xlink:href="#DejaVuSans-44"/>
      <use xlink:href="#DejaVuSans-61" x="77.001953"/>
      <use xlink:href="#DejaVuSans-74" x="138.28125"/>
      <use xlink:href="#DejaVuSans-61" x="177.490234"/>
      <use xlink:href="#DejaVuSans-20" x="238.769531"/>
      <use xlink:href="#DejaVuSans-32" x="270.556641"/>
      <use xlink:href="#DejaVuSans-6d" x="334.179688"/>
      <use xlink:href="#DejaVuSans-67" x="431.591797"/>
      <use xlink:href="#DejaVuSans-20" x="495.068359"/>
      <use xlink:href="#DejaVuSans-28" x="526.855469"/>
      <use xlink:href="#DejaVuSans-72" x="565.869141"/>
      <use xlink:href="#DejaVuSans-65" x="604.732422"/>
      <use xlink:href="#DejaVuSans-66" x="666.255859"/>
      <use xlink:href="#DejaVuSans-29" x="701.460938"/>
      <use xlink:href="#DejaVuSans-20" x="740.474609"/>
      <use xlink:href="#DejaVuSans-50" x="772.261719"/>
      <use xlink:href="#DejaVuSans-4f" x="832.564453"/>
      <use xlink:href="#DejaVuSans-b1" x="911.275391"/>
      <use xlink:href="#DejaVuSans-53" x="995.064453"/>
      <use xlink:href="#DejaVuSans-44" x="1058.541016"/>
      <use xlink:href="#DejaVuSans-20" x="1135.542969"/>
      <use xlink:href="#DejaVuSans-28" x="1167.330078"/>
      <use xlink:href="#DejaVuSans-6e" x="1206.34375"/>
      <use xlink:href="#DejaVuSans-3d" x="1269.722656"/>
      <use xlink:href="#DejaVuSans-32" x="1353.511719"/>
      <use xlink:href="#DejaVuSans-33" x="1417.134766"/>
      <use xlink:href="#DejaVuSans-29" x="1480.757812"/>
     </g>
    </g>
   </g>
  </g>
  <g id="axes_2">
   <g id="patch_8">
    <path d="M 501.00017 320.4 
L 840.652344 320.4 
L 840.652344 43.2 
L 501.00017 43.2 
z
" style="fill: #ffffff"/>
   </g>
   <g id="matplotlib.axis_3">
    <g id="xtick_7">
     <g id="line2d_24">
      <g>
       <use xlink:href="#m77b27d3303" x="516.438905" y="320.4" style="stroke: #000000; stroke-width: 0.8"/>
      </g>
     </g>
     <g id="text_20">
      <!-- 0 -->
      <g transform="translate(512.621405 336.518125) scale(0.12 -0.12)">
       <use xlink:href="#DejaVuSans-30"/>
      </g>
     </g>
    </g>
    <g id="xtick_8">
     <g id="line2d_25">
      <g>
       <use xlink:href="#m77b27d3303" x="578.193846" y="320.4" style="stroke: #000000; stroke-width: 0.8"/>
      </g>
     </g>
     <g id="text_21">
      <!-- 10 -->
      <g transform="translate(570.558846 336.518125) scale(0.12 -0.12)">
       <use xlink:href="#DejaVuSans-31"/>
       <use xlink:href="#DejaVuSans-30" x="63.623047"/>
      </g>
     </g>
    </g>
    <g id="xtick_9">
     <g id="line2d_26">
      <g>
       <use xlink:href="#m77b27d3303" x="639.948786" y="320.4" style="stroke: #000000; stroke-width: 0.8"/>
      </g>
     </g>
     <g id="text_22">
      <!-- 20 -->
      <g transform="translate(632.313786 336.518125) scale(0.12 -0.12)">
       <use xlink:href="#DejaVuSans-32"/>
       <use xlink:href="#DejaVuSans-30" x="63.623047"/>
      </g>
     </g>
    </g>
    <g id="xtick_10">
     <g id="line2d_27">
      <g>
       <use xlink:href="#m77b27d3303" x="701.703727" y="320.4" style="stroke: #000000; stroke-width: 0.8"/>
      </g>
     </g>
     <g id="text_23">
      <!-- 30 -->
      <g transform="translate(694.068727 336.518125) scale(0.12 -0.12)">
       <use xlink:href="#DejaVuSans-33"/>
       <use xlink:href="#DejaVuSans-30" x="63.623047"/>
      </g>
     </g>
    </g>
    <g id="xtick_11">
     <g id="line2d_28">
      <g>
       <use xlink:href="#m77b27d3303" x="763.458668" y="320.4" style="stroke: #000000; stroke-width: 0.8"/>
      </g>
     </g>
     <g id="text_24">
      <!-- 40 -->
      <g transform="translate(755.823668 336.518125) scale(0.12 -0.12)">
       <use xlink:href="#DejaVuSans-34"/>
       <use xlink:href="#DejaVuSans-30" x="63.623047"/>
      </g>
     </g>
    </g>
    <g id="xtick_12">
     <g id="line2d_29">
      <g>
       <use xlink:href="#m77b27d3303" x="825.213609" y="320.4" style="stroke: #000000; stroke-width: 0.8"/>
      </g>
     </g>
     <g id="text_25">
      <!-- 50 -->
      <g transform="translate(817.578609 336.518125) scale(0.12 -0.12)">
       <use xlink:href="#DejaVuSans-35"/>
       <use xlink:href="#DejaVuSans-30" x="63.623047"/>
      </g>
     </g>
    </g>
    <g id="text_26">
     <!-- Time [hr] -->
     <g transform="translate(631.732507 354.411406) scale(0.15 -0.15)">
      <use xlink:href="#DejaVuSans-Bold-54"/>
      <use xlink:href="#DejaVuSans-Bold-69" x="68.212891"/>
      <use xlink:href="#DejaVuSans-Bold-6d" x="102.490234"/>
      <use xlink:href="#DejaVuSans-Bold-65" x="206.689453"/>
      <use xlink:href="#DejaVuSans-Bold-20" x="274.511719"/>
      <use xlink:href="#DejaVuSans-Bold-5b" x="309.326172"/>
      <use xlink:href="#DejaVuSans-Bold-68" x="355.029297"/>
      <use xlink:href="#DejaVuSans-Bold-72" x="426.220703"/>
      <use xlink:href="#DejaVuSans-Bold-5d" x="475.537109"/>
     </g>
    </g>
   </g>
   <g id="matplotlib.axis_4">
    <g id="ytick_9">
     <g id="line2d_30">
      <g>
       <use xlink:href="#m16aa890aab" x="501.00017" y="303.64774" style="stroke: #000000; stroke-width: 0.8"/>
      </g>
     </g>
     <g id="text_27">
      <!-- 0.00 -->
      <g transform="translate(467.28142 308.206803) scale(0.12 -0.12)">
       <use xlink:href="#DejaVuSans-30"/>
       <use xlink:href="#DejaVuSans-2e" x="63.623047"/>
       <use xlink:href="#DejaVuSans-30" x="95.410156"/>
       <use xlink:href="#DejaVuSans-30" x="159.033203"/>
      </g>
     </g>
    </g>
    <g id="ytick_10">
     <g id="line2d_31">
      <g>
       <use xlink:href="#m16aa890aab" x="501.00017" y="271.742867" style="stroke: #000000; stroke-width: 0.8"/>
      </g>
     </g>
     <g id="text_28">
      <!-- 0.01 -->
      <g transform="translate(467.28142 276.301929) scale(0.12 -0.12)">
       <use xlink:href="#DejaVuSans-30"/>
       <use xlink:href="#DejaVuSans-2e" x="63.623047"/>
       <use xlink:href="#DejaVuSans-30" x="95.410156"/>
       <use xlink:href="#DejaVuSans-31" x="159.033203"/>
      </g>
     </g>
    </g>
    <g id="ytick_11">
     <g id="line2d_32">
      <g>
       <use xlink:href="#m16aa890aab" x="501.00017" y="239.837994" style="stroke: #000000; stroke-width: 0.8"/>
      </g>
     </g>
     <g id="text_29">
      <!-- 0.02 -->
      <g transform="translate(467.28142 244.397056) scale(0.12 -0.12)">
       <use xlink:href="#DejaVuSans-30"/>
       <use xlink:href="#DejaVuSans-2e" x="63.623047"/>
       <use xlink:href="#DejaVuSans-30" x="95.410156"/>
       <use xlink:href="#DejaVuSans-32" x="159.033203"/>
      </g>
     </g>
    </g>
    <g id="ytick_12">
     <g id="line2d_33">
      <g>
       <use xlink:href="#m16aa890aab" x="501.00017" y="207.933121" style="stroke: #000000; stroke-width: 0.8"/>
      </g>
     </g>
     <g id="text_30">
      <!-- 0.03 -->
      <g transform="translate(467.28142 212.492183) scale(0.12 -0.12)">
       <use xlink:href="#DejaVuSans-30"/>
       <use xlink:href="#DejaVuSans-2e" x="63.623047"/>
       <use xlink:href="#DejaVuSans-30" x="95.410156"/>
       <use xlink:href="#DejaVuSans-33" x="159.033203"/>
      </g>
     </g>
    </g>
    <g id="ytick_13">
     <g id="line2d_34">
      <g>
       <use xlink:href="#m16aa890aab" x="501.00017" y="176.028248" style="stroke: #000000; stroke-width: 0.8"/>
      </g>
     </g>
     <g id="text_31">
      <!-- 0.04 -->
      <g transform="translate(467.28142 180.58731) scale(0.12 -0.12)">
       <use xlink:href="#DejaVuSans-30"/>
       <use xlink:href="#DejaVuSans-2e" x="63.623047"/>
       <use xlink:href="#DejaVuSans-30" x="95.410156"/>
       <use xlink:href="#DejaVuSans-34" x="159.033203"/>
      </g>
     </g>
    </g>
    <g id="ytick_14">
     <g id="line2d_35">
      <g>
       <use xlink:href="#m16aa890aab" x="501.00017" y="144.123374" style="stroke: #000000; stroke-width: 0.8"/>
      </g>
     </g>
     <g id="text_32">
      <!-- 0.05 -->
      <g transform="translate(467.28142 148.682437) scale(0.12 -0.12)">
       <use xlink:href="#DejaVuSans-30"/>
       <use xlink:href="#DejaVuSans-2e" x="63.623047"/>
       <use xlink:href="#DejaVuSans-30" x="95.410156"/>
       <use xlink:href="#DejaVuSans-35" x="159.033203"/>
      </g>
     </g>
    </g>
    <g id="ytick_15">
     <g id="line2d_36">
      <g>
       <use xlink:href="#m16aa890aab" x="501.00017" y="112.218501" style="stroke: #000000; stroke-width: 0.8"/>
      </g>
     </g>
     <g id="text_33">
      <!-- 0.06 -->
      <g transform="translate(467.28142 116.777564) scale(0.12 -0.12)">
       <defs>
        <path id="DejaVuSans-36" d="M 2113 2584 
Q 1688 2584 1439 2293 
Q 1191 2003 1191 1497 
Q 1191 994 1439 701 
Q 1688 409 2113 409 
Q 2538 409 2786 701 
Q 3034 994 3034 1497 
Q 3034 2003 2786 2293 
Q 2538 2584 2113 2584 
z
M 3366 4563 
L 3366 3988 
Q 3128 4100 2886 4159 
Q 2644 4219 2406 4219 
Q 1781 4219 1451 3797 
Q 1122 3375 1075 2522 
Q 1259 2794 1537 2939 
Q 1816 3084 2150 3084 
Q 2853 3084 3261 2657 
Q 3669 2231 3669 1497 
Q 3669 778 3244 343 
Q 2819 -91 2113 -91 
Q 1303 -91 875 529 
Q 447 1150 447 2328 
Q 447 3434 972 4092 
Q 1497 4750 2381 4750 
Q 2619 4750 2861 4703 
Q 3103 4656 3366 4563 
z
" transform="scale(0.015625)"/>
       </defs>
       <use xlink:href="#DejaVuSans-30"/>
       <use xlink:href="#DejaVuSans-2e" x="63.623047"/>
       <use xlink:href="#DejaVuSans-30" x="95.410156"/>
       <use xlink:href="#DejaVuSans-36" x="159.033203"/>
      </g>
     </g>
    </g>
    <g id="ytick_16">
     <g id="line2d_37">
      <g>
       <use xlink:href="#m16aa890aab" x="501.00017" y="80.313628" style="stroke: #000000; stroke-width: 0.8"/>
      </g>
     </g>
     <g id="text_34">
      <!-- 0.07 -->
      <g transform="translate(467.28142 84.872691) scale(0.12 -0.12)">
       <defs>
        <path id="DejaVuSans-37" d="M 525 4666 
L 3525 4666 
L 3525 4397 
L 1831 0 
L 1172 0 
L 2766 4134 
L 525 4134 
L 525 4666 
z
" transform="scale(0.015625)"/>
       </defs>
       <use xlink:href="#DejaVuSans-30"/>
       <use xlink:href="#DejaVuSans-2e" x="63.623047"/>
       <use xlink:href="#DejaVuSans-30" x="95.410156"/>
       <use xlink:href="#DejaVuSans-37" x="159.033203"/>
      </g>
     </g>
    </g>
    <g id="ytick_17">
     <g id="line2d_38">
      <g>
       <use xlink:href="#m16aa890aab" x="501.00017" y="48.408755" style="stroke: #000000; stroke-width: 0.8"/>
      </g>
     </g>
     <g id="text_35">
      <!-- 0.08 -->
      <g transform="translate(467.28142 52.967818) scale(0.12 -0.12)">
       <defs>
        <path id="DejaVuSans-38" d="M 2034 2216 
Q 1584 2216 1326 1975 
Q 1069 1734 1069 1313 
Q 1069 891 1326 650 
Q 1584 409 2034 409 
Q 2484 409 2743 651 
Q 3003 894 3003 1313 
Q 3003 1734 2745 1975 
Q 2488 2216 2034 2216 
z
M 1403 2484 
Q 997 2584 770 2862 
Q 544 3141 544 3541 
Q 544 4100 942 4425 
Q 1341 4750 2034 4750 
Q 2731 4750 3128 4425 
Q 3525 4100 3525 3541 
Q 3525 3141 3298 2862 
Q 3072 2584 2669 2484 
Q 3125 2378 3379 2068 
Q 3634 1759 3634 1313 
Q 3634 634 3220 271 
Q 2806 -91 2034 -91 
Q 1263 -91 848 271 
Q 434 634 434 1313 
Q 434 1759 690 2068 
Q 947 2378 1403 2484 
z
M 1172 3481 
Q 1172 3119 1398 2916 
Q 1625 2713 2034 2713 
Q 2441 2713 2670 2916 
Q 2900 3119 2900 3481 
Q 2900 3844 2670 4047 
Q 2441 4250 2034 4250 
Q 1625 4250 1398 4047 
Q 1172 3844 1172 3481 
z
" transform="scale(0.015625)"/>
       </defs>
       <use xlink:href="#DejaVuSans-30"/>
       <use xlink:href="#DejaVuSans-2e" x="63.623047"/>
       <use xlink:href="#DejaVuSans-30" x="95.410156"/>
       <use xlink:href="#DejaVuSans-38" x="159.033203"/>
      </g>
     </g>
    </g>
    <g id="text_36">
     <!-- M1 Plasma [µM] -->
     <g transform="translate(460.145482 250.011328) rotate(-90) scale(0.15 -0.15)">
      <defs>
       <path id="DejaVuSans-Bold-31" d="M 750 831 
L 1813 831 
L 1813 3847 
L 722 3622 
L 722 4441 
L 1806 4666 
L 2950 4666 
L 2950 831 
L 4013 831 
L 4013 0 
L 750 0 
L 750 831 
z
" transform="scale(0.015625)"/>
      </defs>
      <use xlink:href="#DejaVuSans-Bold-4d"/>
      <use xlink:href="#DejaVuSans-Bold-31" x="99.511719"/>
      <use xlink:href="#DejaVuSans-Bold-20" x="169.091797"/>
      <use xlink:href="#DejaVuSans-Bold-50" x="203.90625"/>
      <use xlink:href="#DejaVuSans-Bold-6c" x="277.197266"/>
      <use xlink:href="#DejaVuSans-Bold-61" x="311.474609"/>
      <use xlink:href="#DejaVuSans-Bold-73" x="378.955078"/>
      <use xlink:href="#DejaVuSans-Bold-6d" x="438.476562"/>
      <use xlink:href="#DejaVuSans-Bold-61" x="542.675781"/>
      <use xlink:href="#DejaVuSans-Bold-20" x="610.15625"/>
      <use xlink:href="#DejaVuSans-Bold-5b" x="644.970703"/>
      <use xlink:href="#DejaVuSans-Bold-b5" x="690.673828"/>
      <use xlink:href="#DejaVuSans-Bold-4d" x="764.257812"/>
      <use xlink:href="#DejaVuSans-Bold-5d" x="863.769531"/>
     </g>
    </g>
   </g>
   <g id="LineCollection_5">
    <path clip-path="url(#p33d9493010)" style="fill: none; stroke: #1f77b4"/>
    <path d="M 518.148389 303.647772 
L 518.148389 298.111383 
" clip-path="url(#p33d9493010)" style="fill: none; stroke: #1f77b4"/>
    <path d="M 521.225452 307.8 
L 521.225452 266.277401 
" clip-path="url(#p33d9493010)" style="fill: none; stroke: #1f77b4"/>
    <path d="M 524.644405 294.997204 
L 524.644405 245.862118 
" clip-path="url(#p33d9493010)" style="fill: none; stroke: #1f77b4"/>
    <path d="M 527.379577 287.730765 
L 527.379577 224.754802 
" clip-path="url(#p33d9493010)" style="fill: none; stroke: #1f77b4"/>
    <path d="M 531.140421 287.730749 
L 531.140421 205.377583 
" clip-path="url(#p33d9493010)" style="fill: none; stroke: #1f77b4"/>
    <path d="M 533.533703 281.502343 
L 533.533703 200.533275 
" clip-path="url(#p33d9493010)" style="fill: none; stroke: #1f77b4"/>
    <path d="M 539.345922 264.201271 
L 539.345922 188.076495 
" clip-path="url(#p33d9493010)" style="fill: none; stroke: #1f77b4"/>
    <path d="M 545.500047 239.633744 
L 545.500047 168.353261 
" clip-path="url(#p33d9493010)" style="fill: none; stroke: #1f77b4"/>
    <path d="M 553.491869 215.412217 
L 553.491869 130.982921 
" clip-path="url(#p33d9493010)" style="fill: none; stroke: #1f77b4"/>
    <path d="M 565.842858 211.605973 
L 565.842858 138.941425 
" clip-path="url(#p33d9493010)" style="fill: none; stroke: #1f77b4"/>
    <path d="M 578.193846 234.443387 
L 578.193846 147.937993 
" clip-path="url(#p33d9493010)" style="fill: none; stroke: #1f77b4"/>
    <path d="M 590.544834 255.204718 
L 590.544834 179.771975 
" clip-path="url(#p33d9493010)" style="fill: none; stroke: #1f77b4"/>
    <path d="M 664.650763 293.613123 
L 664.650763 284.616538 
" clip-path="url(#p33d9493010)" style="fill: none; stroke: #1f77b4"/>
    <path d="M 812.86262 305.031837 
L 812.86262 298.111383 
" clip-path="url(#p33d9493010)" style="fill: none; stroke: #1f77b4"/>
   </g>
   <g id="LineCollection_6">
    <path clip-path="url(#p33d9493010)" style="fill: none; stroke: #000000"/>
    <path d="M 518.148389 301.225578 
L 518.148389 294.997188 
" clip-path="url(#p33d9493010)" style="fill: none; stroke: #000000"/>
    <path d="M 521.225452 289.11483 
L 521.225452 251.052427 
" clip-path="url(#p33d9493010)" style="fill: none; stroke: #000000"/>
    <path d="M 524.644405 267.661498 
L 524.644405 210.22186 
" clip-path="url(#p33d9493010)" style="fill: none; stroke: #000000"/>
    <path d="M 527.379577 252.436524 
L 527.379577 188.076495 
" clip-path="url(#p33d9493010)" style="fill: none; stroke: #000000"/>
    <path d="M 531.140421 244.824053 
L 531.140421 172.159504 
" clip-path="url(#p33d9493010)" style="fill: none; stroke: #000000"/>
    <path d="M 533.533703 239.287711 
L 533.533703 168.007228 
" clip-path="url(#p33d9493010)" style="fill: none; stroke: #000000"/>
    <path d="M 539.345922 234.789419 
L 539.345922 153.128318 
" clip-path="url(#p33d9493010)" style="fill: none; stroke: #000000"/>
    <path d="M 545.500047 234.097386 
L 545.500047 138.595408 
" clip-path="url(#p33d9493010)" style="fill: none; stroke: #000000"/>
    <path d="M 553.491869 220.948558 
L 553.491869 126.830677 
" clip-path="url(#p33d9493010)" style="fill: none; stroke: #000000"/>
    <path d="M 565.842858 221.294574 
L 565.842858 147.24596 
" clip-path="url(#p33d9493010)" style="fill: none; stroke: #000000"/>
    <path d="M 578.193846 233.751354 
L 578.193846 164.547033 
" clip-path="url(#p33d9493010)" style="fill: none; stroke: #000000"/>
    <path d="M 590.544834 248.630296 
L 590.544834 188.422527 
" clip-path="url(#p33d9493010)" style="fill: none; stroke: #000000"/>
    <path d="M 664.650763 296.381285 
L 664.650763 286.000635 
" clip-path="url(#p33d9493010)" style="fill: none; stroke: #000000"/>
    <path d="M 812.86262 305.392318 
L 812.86262 298.442967 
" clip-path="url(#p33d9493010)" style="fill: none; stroke: #000000"/>
   </g>
   <g id="line2d_39">
    <path d="M 516.438905 303.64774 
L 517.056454 303.588773 
L 517.674004 303.066997 
L 518.291553 301.565508 
L 518.909103 298.694832 
L 519.526652 294.237958 
L 520.144201 288.136952 
L 520.761751 280.45845 
L 521.99685 261.035858 
L 523.849498 225.129291 
L 527.554794 149.880521 
L 529.407443 118.219038 
L 530.642541 100.635226 
L 531.87764 86.083515 
L 533.112739 74.56829 
L 534.347838 65.984255 
L 534.965387 62.737274 
L 535.582937 60.151267 
L 536.200486 58.196471 
L 536.818035 56.841473 
L 537.435585 56.053726 
L 538.053134 55.8 
L 538.670684 56.046752 
L 539.288233 56.760455 
L 539.905782 57.90787 
L 540.523332 59.45627 
L 541.758431 63.628805 
L 542.99353 69.03294 
L 544.228628 75.440714 
L 546.081277 86.483374 
L 548.551474 102.943741 
L 557.197166 162.627912 
L 559.667364 177.857676 
L 562.137561 191.771428 
L 564.607759 204.301076 
L 567.077956 215.455183 
L 568.930605 222.952756 
L 570.783253 229.747389 
L 572.635901 235.883198 
L 574.488549 241.407869 
L 576.341198 246.370505 
L 578.193846 250.820009 
L 580.046494 254.803924 
L 581.899142 258.367618 
L 583.75179 261.553753 
L 585.604439 264.401981 
L 588.074636 267.736607 
L 590.544834 270.612779 
L 593.015031 273.098575 
L 595.485229 275.253025 
L 597.955427 277.126915 
L 600.425624 278.763651 
L 603.513371 280.531738 
L 606.601118 282.046342 
L 610.306415 283.596586 
L 614.011711 284.916654 
L 618.334557 286.232344 
L 623.274952 287.511816 
L 629.450447 288.865485 
L 636.861039 290.235264 
L 645.506731 291.590322 
L 655.387522 292.914293 
L 667.12096 294.260065 
L 680.707047 295.583909 
L 695.528233 296.799926 
L 712.202067 297.936671 
L 730.728549 298.965821 
L 751.10768 299.869173 
L 773.957008 300.65752 
L 800.511632 301.345635 
L 825.213609 301.82037 
L 825.213609 301.82037 
" clip-path="url(#p33d9493010)" style="fill: none; stroke: #000000; stroke-width: 2; stroke-linecap: square"/>
   </g>
   <g id="line2d_40">
    <path d="M 516.438905 303.64774 
L 518.148389 300.879577 
L 521.225452 287.0387 
L 524.644405 270.429661 
L 527.379577 256.242783 
L 531.140421 246.554166 
L 533.533703 241.017809 
L 539.345922 226.138883 
L 545.500047 203.993502 
L 553.491869 173.197569 
L 565.842858 175.273699 
L 578.193846 191.19069 
L 590.544834 217.488347 
L 664.650763 289.11483 
L 812.86262 301.57161 
" clip-path="url(#p33d9493010)" style="fill: none; stroke-dasharray: 3.7,1.6; stroke-dashoffset: 0; stroke: #1f77b4"/>
    <g clip-path="url(#p33d9493010)">
     <use xlink:href="#m7824f67926" x="516.438905" y="303.64774" style="fill: #1f77b4; stroke: #000000; stroke-linejoin: miter"/>
     <use xlink:href="#m7824f67926" x="518.148389" y="300.879577" style="fill: #1f77b4; stroke: #000000; stroke-linejoin: miter"/>
     <use xlink:href="#m7824f67926" x="521.225452" y="287.0387" style="fill: #1f77b4; stroke: #000000; stroke-linejoin: miter"/>
     <use xlink:href="#m7824f67926" x="524.644405" y="270.429661" style="fill: #1f77b4; stroke: #000000; stroke-linejoin: miter"/>
     <use xlink:href="#m7824f67926" x="527.379577" y="256.242783" style="fill: #1f77b4; stroke: #000000; stroke-linejoin: miter"/>
     <use xlink:href="#m7824f67926" x="531.140421" y="246.554166" style="fill: #1f77b4; stroke: #000000; stroke-linejoin: miter"/>
     <use xlink:href="#m7824f67926" x="533.533703" y="241.017809" style="fill: #1f77b4; stroke: #000000; stroke-linejoin: miter"/>
     <use xlink:href="#m7824f67926" x="539.345922" y="226.138883" style="fill: #1f77b4; stroke: #000000; stroke-linejoin: miter"/>
     <use xlink:href="#m7824f67926" x="545.500047" y="203.993502" style="fill: #1f77b4; stroke: #000000; stroke-linejoin: miter"/>
     <use xlink:href="#m7824f67926" x="553.491869" y="173.197569" style="fill: #1f77b4; stroke: #000000; stroke-linejoin: miter"/>
     <use xlink:href="#m7824f67926" x="565.842858" y="175.273699" style="fill: #1f77b4; stroke: #000000; stroke-linejoin: miter"/>
     <use xlink:href="#m7824f67926" x="578.193846" y="191.19069" style="fill: #1f77b4; stroke: #000000; stroke-linejoin: miter"/>
     <use xlink:href="#m7824f67926" x="590.544834" y="217.488347" style="fill: #1f77b4; stroke: #000000; stroke-linejoin: miter"/>
     <use xlink:href="#m7824f67926" x="664.650763" y="289.11483" style="fill: #1f77b4; stroke: #000000; stroke-linejoin: miter"/>
     <use xlink:href="#m7824f67926" x="812.86262" y="301.57161" style="fill: #1f77b4; stroke: #000000; stroke-linejoin: miter"/>
    </g>
   </g>
   <g id="line2d_41">
    <path d="M 516.438905 303.64774 
L 518.148389 298.111383 
L 521.225452 270.083629 
L 524.644405 238.941679 
L 527.379577 220.25651 
L 531.140421 208.491778 
L 533.533703 203.64747 
L 539.345922 193.958869 
L 545.500047 186.346397 
L 553.491869 173.889618 
L 565.842858 184.270267 
L 578.193846 199.149194 
L 590.544834 218.526412 
L 664.650763 291.19096 
L 812.86262 301.917642 
" clip-path="url(#p33d9493010)" style="fill: none; stroke-dasharray: 3.7,1.6; stroke-dashoffset: 0; stroke: #000000"/>
    <g clip-path="url(#p33d9493010)">
     <use xlink:href="#mce83a1b3e6" x="516.438905" y="303.64774" style="stroke: #000000; stroke-linejoin: miter"/>
     <use xlink:href="#mce83a1b3e6" x="518.148389" y="298.111383" style="stroke: #000000; stroke-linejoin: miter"/>
     <use xlink:href="#mce83a1b3e6" x="521.225452" y="270.083629" style="stroke: #000000; stroke-linejoin: miter"/>
     <use xlink:href="#mce83a1b3e6" x="524.644405" y="238.941679" style="stroke: #000000; stroke-linejoin: miter"/>
     <use xlink:href="#mce83a1b3e6" x="527.379577" y="220.25651" style="stroke: #000000; stroke-linejoin: miter"/>
     <use xlink:href="#mce83a1b3e6" x="531.140421" y="208.491778" style="stroke: #000000; stroke-linejoin: miter"/>
     <use xlink:href="#mce83a1b3e6" x="533.533703" y="203.64747" style="stroke: #000000; stroke-linejoin: miter"/>
     <use xlink:href="#mce83a1b3e6" x="539.345922" y="193.958869" style="stroke: #000000; stroke-linejoin: miter"/>
     <use xlink:href="#mce83a1b3e6" x="545.500047" y="186.346397" style="stroke: #000000; stroke-linejoin: miter"/>
     <use xlink:href="#mce83a1b3e6" x="553.491869" y="173.889618" style="stroke: #000000; stroke-linejoin: miter"/>
     <use xlink:href="#mce83a1b3e6" x="565.842858" y="184.270267" style="stroke: #000000; stroke-linejoin: miter"/>
     <use xlink:href="#mce83a1b3e6" x="578.193846" y="199.149194" style="stroke: #000000; stroke-linejoin: miter"/>
     <use xlink:href="#mce83a1b3e6" x="590.544834" y="218.526412" style="stroke: #000000; stroke-linejoin: miter"/>
     <use xlink:href="#mce83a1b3e6" x="664.650763" y="291.19096" style="stroke: #000000; stroke-linejoin: miter"/>
     <use xlink:href="#mce83a1b3e6" x="812.86262" y="301.917642" style="stroke: #000000; stroke-linejoin: miter"/>
    </g>
   </g>
   <g id="patch_9">
    <path d="M 501.00017 320.4 
L 501.00017 43.2 
" style="fill: none; stroke: #000000; stroke-width: 0.8; stroke-linejoin: miter; stroke-linecap: square"/>
   </g>
   <g id="patch_10">
    <path d="M 840.652344 320.4 
L 840.652344 43.2 
" style="fill: none; stroke: #000000; stroke-width: 0.8; stroke-linejoin: miter; stroke-linecap: square"/>
   </g>
   <g id="patch_11">
    <path d="M 501.00017 320.4 
L 840.652344 320.4 
" style="fill: none; stroke: #000000; stroke-width: 0.8; stroke-linejoin: miter; stroke-linecap: square"/>
   </g>
   <g id="patch_12">
    <path d="M 501.00017 43.2 
L 840.652344 43.2 
" style="fill: none; stroke: #000000; stroke-width: 0.8; stroke-linejoin: miter; stroke-linecap: square"/>
   </g>
   <g id="legend_2">
    <g id="patch_13">
     <path d="M 663.692656 90.030937 
L 834.352344 90.030937 
Q 836.152344 90.030937 836.152344 88.230937 
L 836.152344 49.5 
Q 836.152344 47.7 834.352344 47.7 
L 663.692656 47.7 
Q 661.892656 47.7 661.892656 49.5 
L 661.892656 88.230937 
Q 661.892656 90.030937 663.692656 90.030937 
z
" style="fill: #ffffff; opacity: 0.8; stroke: #cccccc; stroke-linejoin: miter"/>
    </g>
    <g id="line2d_42">
     <path d="M 665.492656 54.988594 
L 683.492656 54.988594 
" style="fill: none; stroke: #000000; stroke-width: 2; stroke-linecap: square"/>
    </g>
    <g id="line2d_43"/>
    <g id="text_37">
     <!-- Sim 2mg PO -->
     <g transform="translate(690.692656 58.138594) scale(0.09 -0.09)">
      <use xlink:href="#DejaVuSans-53"/>
      <use xlink:href="#DejaVuSans-69" x="63.476562"/>
      <use xlink:href="#DejaVuSans-6d" x="91.259766"/>
      <use xlink:href="#DejaVuSans-20" x="188.671875"/>
      <use xlink:href="#DejaVuSans-32" x="220.458984"/>
      <use xlink:href="#DejaVuSans-6d" x="284.082031"/>
      <use xlink:href="#DejaVuSans-67" x="381.494141"/>
      <use xlink:href="#DejaVuSans-20" x="444.970703"/>
      <use xlink:href="#DejaVuSans-50" x="476.757812"/>
      <use xlink:href="#DejaVuSans-4f" x="537.060547"/>
     </g>
    </g>
    <g id="LineCollection_7">
     <path d="M 674.492656 72.698906 
L 674.492656 63.698906 
" style="fill: none; stroke: #1f77b4"/>
    </g>
    <g id="line2d_44">
     <path d="M 665.492656 68.198906 
L 683.492656 68.198906 
" style="fill: none; stroke-dasharray: 3.7,1.6; stroke-dashoffset: 0; stroke: #1f77b4"/>
    </g>
    <g id="line2d_45">
     <g>
      <use xlink:href="#m7824f67926" x="674.492656" y="68.198906" style="fill: #1f77b4; stroke: #000000; stroke-linejoin: miter"/>
     </g>
    </g>
    <g id="text_38">
     <!-- Data 2mg (test) PO±SD (n=23) -->
     <g transform="translate(690.692656 71.348906) scale(0.09 -0.09)">
      <use xlink:href="#DejaVuSans-44"/>
      <use xlink:href="#DejaVuSans-61" x="77.001953"/>
      <use xlink:href="#DejaVuSans-74" x="138.28125"/>
      <use xlink:href="#DejaVuSans-61" x="177.490234"/>
      <use xlink:href="#DejaVuSans-20" x="238.769531"/>
      <use xlink:href="#DejaVuSans-32" x="270.556641"/>
      <use xlink:href="#DejaVuSans-6d" x="334.179688"/>
      <use xlink:href="#DejaVuSans-67" x="431.591797"/>
      <use xlink:href="#DejaVuSans-20" x="495.068359"/>
      <use xlink:href="#DejaVuSans-28" x="526.855469"/>
      <use xlink:href="#DejaVuSans-74" x="565.869141"/>
      <use xlink:href="#DejaVuSans-65" x="605.078125"/>
      <use xlink:href="#DejaVuSans-73" x="666.601562"/>
      <use xlink:href="#DejaVuSans-74" x="718.701172"/>
      <use xlink:href="#DejaVuSans-29" x="757.910156"/>
      <use xlink:href="#DejaVuSans-20" x="796.923828"/>
      <use xlink:href="#DejaVuSans-50" x="828.710938"/>
      <use xlink:href="#DejaVuSans-4f" x="889.013672"/>
      <use xlink:href="#DejaVuSans-b1" x="967.724609"/>
      <use xlink:href="#DejaVuSans-53" x="1051.513672"/>
      <use xlink:href="#DejaVuSans-44" x="1114.990234"/>
      <use xlink:href="#DejaVuSans-20" x="1191.992188"/>
      <use xlink:href="#DejaVuSans-28" x="1223.779297"/>
      <use xlink:href="#DejaVuSans-6e" x="1262.792969"/>
      <use xlink:href="#DejaVuSans-3d" x="1326.171875"/>
      <use xlink:href="#DejaVuSans-32" x="1409.960938"/>
      <use xlink:href="#DejaVuSans-33" x="1473.583984"/>
      <use xlink:href="#DejaVuSans-29" x="1537.207031"/>
     </g>
    </g>
    <g id="LineCollection_8">
     <path d="M 674.492656 85.909219 
L 674.492656 76.909219 
" style="fill: none; stroke: #000000"/>
    </g>
    <g id="line2d_46">
     <path d="M 665.492656 81.409219 
L 683.492656 81.409219 
" style="fill: none; stroke-dasharray: 3.7,1.6; stroke-dashoffset: 0; stroke: #000000"/>
    </g>
    <g id="line2d_47">
     <g>
      <use xlink:href="#mce83a1b3e6" x="674.492656" y="81.409219" style="stroke: #000000; stroke-linejoin: miter"/>
     </g>
    </g>
    <g id="text_39">
     <!-- Data 2mg (ref) PO±SD (n=23) -->
     <g transform="translate(690.692656 84.559219) scale(0.09 -0.09)">
      <use xlink:href="#DejaVuSans-44"/>
      <use xlink:href="#DejaVuSans-61" x="77.001953"/>
      <use xlink:href="#DejaVuSans-74" x="138.28125"/>
      <use xlink:href="#DejaVuSans-61" x="177.490234"/>
      <use xlink:href="#DejaVuSans-20" x="238.769531"/>
      <use xlink:href="#DejaVuSans-32" x="270.556641"/>
      <use xlink:href="#DejaVuSans-6d" x="334.179688"/>
      <use xlink:href="#DejaVuSans-67" x="431.591797"/>
      <use xlink:href="#DejaVuSans-20" x="495.068359"/>
      <use xlink:href="#DejaVuSans-28" x="526.855469"/>
      <use xlink:href="#DejaVuSans-72" x="565.869141"/>
      <use xlink:href="#DejaVuSans-65" x="604.732422"/>
      <use xlink:href="#DejaVuSans-66" x="666.255859"/>
      <use xlink:href="#DejaVuSans-29" x="701.460938"/>
      <use xlink:href="#DejaVuSans-20" x="740.474609"/>
      <use xlink:href="#DejaVuSans-50" x="772.261719"/>
      <use xlink:href="#DejaVuSans-4f" x="832.564453"/>
      <use xlink:href="#DejaVuSans-b1" x="911.275391"/>
      <use xlink:href="#DejaVuSans-53" x="995.064453"/>
      <use xlink:href="#DejaVuSans-44" x="1058.541016"/>
      <use xlink:href="#DejaVuSans-20" x="1135.542969"/>
      <use xlink:href="#DejaVuSans-28" x="1167.330078"/>
      <use xlink:href="#DejaVuSans-6e" x="1206.34375"/>
      <use xlink:href="#DejaVuSans-3d" x="1269.722656"/>
      <use xlink:href="#DejaVuSans-32" x="1353.511719"/>
      <use xlink:href="#DejaVuSans-33" x="1417.134766"/>
      <use xlink:href="#DejaVuSans-29" x="1480.757812"/>
     </g>
    </g>
   </g>
  </g>
  <g id="text_40">
   <!-- Liu2010 (healthy) -->
   <g transform="translate(337.585156 22.396875) scale(0.2 -0.2)">
    <defs>
     <path id="DejaVuSans-Bold-4c" d="M 588 4666 
L 1791 4666 
L 1791 909 
L 3903 909 
L 3903 0 
L 588 0 
L 588 4666 
z
" transform="scale(0.015625)"/>
     <path id="DejaVuSans-Bold-75" d="M 500 1363 
L 500 3500 
L 1625 3500 
L 1625 3150 
Q 1625 2866 1622 2436 
Q 1619 2006 1619 1863 
Q 1619 1441 1641 1255 
Q 1663 1069 1716 984 
Q 1784 875 1895 815 
Q 2006 756 2150 756 
Q 2500 756 2700 1025 
Q 2900 1294 2900 1772 
L 2900 3500 
L 4019 3500 
L 4019 0 
L 2900 0 
L 2900 506 
Q 2647 200 2364 54 
Q 2081 -91 1741 -91 
Q 1134 -91 817 281 
Q 500 653 500 1363 
z
" transform="scale(0.015625)"/>
     <path id="DejaVuSans-Bold-32" d="M 1844 884 
L 3897 884 
L 3897 0 
L 506 0 
L 506 884 
L 2209 2388 
Q 2438 2594 2547 2791 
Q 2656 2988 2656 3200 
Q 2656 3528 2436 3728 
Q 2216 3928 1850 3928 
Q 1569 3928 1234 3808 
Q 900 3688 519 3450 
L 519 4475 
Q 925 4609 1322 4679 
Q 1719 4750 2100 4750 
Q 2938 4750 3402 4381 
Q 3866 4013 3866 3353 
Q 3866 2972 3669 2642 
Q 3472 2313 2841 1759 
L 1844 884 
z
" transform="scale(0.015625)"/>
     <path id="DejaVuSans-Bold-30" d="M 2944 2338 
Q 2944 3213 2780 3570 
Q 2616 3928 2228 3928 
Q 1841 3928 1675 3570 
Q 1509 3213 1509 2338 
Q 1509 1453 1675 1090 
Q 1841 728 2228 728 
Q 2613 728 2778 1090 
Q 2944 1453 2944 2338 
z
M 4147 2328 
Q 4147 1169 3647 539 
Q 3147 -91 2228 -91 
Q 1306 -91 806 539 
Q 306 1169 306 2328 
Q 306 3491 806 4120 
Q 1306 4750 2228 4750 
Q 3147 4750 3647 4120 
Q 4147 3491 4147 2328 
z
" transform="scale(0.015625)"/>
     <path id="DejaVuSans-Bold-28" d="M 2413 -844 
L 1484 -844 
Q 1006 -72 778 623 
Q 550 1319 550 2003 
Q 550 2688 779 3389 
Q 1009 4091 1484 4856 
L 2413 4856 
Q 2013 4116 1813 3408 
Q 1613 2700 1613 2009 
Q 1613 1319 1811 609 
Q 2009 -100 2413 -844 
z
" transform="scale(0.015625)"/>
     <path id="DejaVuSans-Bold-74" d="M 1759 4494 
L 1759 3500 
L 2913 3500 
L 2913 2700 
L 1759 2700 
L 1759 1216 
Q 1759 972 1856 886 
Q 1953 800 2241 800 
L 2816 800 
L 2816 0 
L 1856 0 
Q 1194 0 917 276 
Q 641 553 641 1216 
L 641 2700 
L 84 2700 
L 84 3500 
L 641 3500 
L 641 4494 
L 1759 4494 
z
" transform="scale(0.015625)"/>
     <path id="DejaVuSans-Bold-79" d="M 78 3500 
L 1197 3500 
L 2138 1125 
L 2938 3500 
L 4056 3500 
L 2584 -331 
Q 2363 -916 2067 -1148 
Q 1772 -1381 1288 -1381 
L 641 -1381 
L 641 -647 
L 991 -647 
Q 1275 -647 1404 -556 
Q 1534 -466 1606 -231 
L 1638 -134 
L 78 3500 
z
" transform="scale(0.015625)"/>
     <path id="DejaVuSans-Bold-29" d="M 513 -844 
Q 913 -100 1113 609 
Q 1313 1319 1313 2009 
Q 1313 2700 1113 3408 
Q 913 4116 513 4856 
L 1441 4856 
Q 1916 4091 2145 3389 
Q 2375 2688 2375 2003 
Q 2375 1319 2147 623 
Q 1919 -72 1441 -844 
L 513 -844 
z
" transform="scale(0.015625)"/>
    </defs>
    <use xlink:href="#DejaVuSans-Bold-4c"/>
    <use xlink:href="#DejaVuSans-Bold-69" x="63.720703"/>
    <use xlink:href="#DejaVuSans-Bold-75" x="97.998047"/>
    <use xlink:href="#DejaVuSans-Bold-32" x="169.189453"/>
    <use xlink:href="#DejaVuSans-Bold-30" x="238.769531"/>
    <use xlink:href="#DejaVuSans-Bold-31" x="308.349609"/>
    <use xlink:href="#DejaVuSans-Bold-30" x="377.929688"/>
    <use xlink:href="#DejaVuSans-Bold-20" x="447.509766"/>
    <use xlink:href="#DejaVuSans-Bold-28" x="482.324219"/>
    <use xlink:href="#DejaVuSans-Bold-68" x="528.027344"/>
    <use xlink:href="#DejaVuSans-Bold-65" x="599.21875"/>
    <use xlink:href="#DejaVuSans-Bold-61" x="667.041016"/>
    <use xlink:href="#DejaVuSans-Bold-6c" x="734.521484"/>
    <use xlink:href="#DejaVuSans-Bold-74" x="768.798828"/>
    <use xlink:href="#DejaVuSans-Bold-68" x="816.601562"/>
    <use xlink:href="#DejaVuSans-Bold-79" x="887.792969"/>
    <use xlink:href="#DejaVuSans-Bold-29" x="952.978516"/>
   </g>
  </g>
 </g>
 <defs>
  <clipPath id="p249adbefac">
   <rect x="59.452344" y="43.2" width="339.652174" height="277.2"/>
  </clipPath>
  <clipPath id="p33d9493010">
   <rect x="501.00017" y="43.2" width="339.652174" height="277.2"/>
  </clipPath>
 </defs>
</svg>
