<?xml version="1.0" encoding="utf-8" standalone="no"?>
<!DOCTYPE svg PUBLIC "-//W3C//DTD SVG 1.1//EN"
  "http://www.w3.org/Graphics/SVG/1.1/DTD/svg11.dtd">
<svg xmlns:xlink="http://www.w3.org/1999/xlink" width="457.252344pt" height="364.730937pt" viewBox="0 0 457.252344 364.730937" xmlns="http://www.w3.org/2000/svg" version="1.1">
 <metadata>
  <rdf:RDF xmlns:dc="http://purl.org/dc/elements/1.1/" xmlns:cc="http://creativecommons.org/ns#" xmlns:rdf="http://www.w3.org/1999/02/22-rdf-syntax-ns#">
   <cc:Work>
    <dc:type rdf:resource="http://purl.org/dc/dcmitype/StillImage"/>
    <dc:date>2025-04-10T14:56:31.102764</dc:date>
    <dc:format>image/svg+xml</dc:format>
    <dc:creator>
     <cc:Agent>
      <dc:title>Matplotlib v3.9.1, https://matplotlib.org/</dc:title>
     </cc:Agent>
    </dc:creator>
   </cc:Work>
  </rdf:RDF>
 </metadata>
 <defs>
  <style type="text/css">*{stroke-linejoin: round; stroke-linecap: butt}</style>
 </defs>
 <g id="figure_1">
  <g id="patch_1">
   <path d="M 0 364.730937 
L 457.252344 364.730937 
L 457.252344 0 
L 0 0 
z
" style="fill: #ffffff"/>
  </g>
  <g id="axes_1">
   <g id="patch_2">
    <path d="M 51.817344 320.4 
L 442.417344 320.4 
L 442.417344 43.2 
L 51.817344 43.2 
z
" style="fill: #ffffff"/>
   </g>
   <g id="matplotlib.axis_1">
    <g id="xtick_1">
     <g id="line2d_1">
      <defs>
       <path id="m622aac5abc" d="M 0 0 
L 0 3.5 
" style="stroke: #000000; stroke-width: 0.8"/>
      </defs>
      <g>
       <use xlink:href="#m622aac5abc" x="81.863498" y="320.4" style="stroke: #000000; stroke-width: 0.8"/>
      </g>
     </g>
     <g id="text_1">
      <!-- 0 -->
      <g transform="translate(78.045998 336.518125) scale(0.12 -0.12)">
       <defs>
        <path id="DejaVuSans-30" d="M 2034 4250 
Q 1547 4250 1301 3770 
Q 1056 3291 1056 2328 
Q 1056 1369 1301 889 
Q 1547 409 2034 409 
Q 2525 409 2770 889 
Q 3016 1369 3016 2328 
Q 3016 3291 2770 3770 
Q 2525 4250 2034 4250 
z
M 2034 4750 
Q 2819 4750 3233 4129 
Q 3647 3509 3647 2328 
Q 3647 1150 3233 529 
Q 2819 -91 2034 -91 
Q 1250 -91 836 529 
Q 422 1150 422 2328 
Q 422 3509 836 4129 
Q 1250 4750 2034 4750 
z
" transform="scale(0.015625)"/>
       </defs>
       <use xlink:href="#DejaVuSans-30"/>
      </g>
     </g>
    </g>
    <g id="xtick_2">
     <g id="line2d_2">
      <g>
       <use xlink:href="#m622aac5abc" x="141.955805" y="320.4" style="stroke: #000000; stroke-width: 0.8"/>
      </g>
     </g>
     <g id="text_2">
      <!-- 5 -->
      <g transform="translate(138.138305 336.518125) scale(0.12 -0.12)">
       <defs>
        <path id="DejaVuSans-35" d="M 691 4666 
L 3169 4666 
L 3169 4134 
L 1269 4134 
L 1269 2991 
Q 1406 3038 1543 3061 
Q 1681 3084 1819 3084 
Q 2600 3084 3056 2656 
Q 3513 2228 3513 1497 
Q 3513 744 3044 326 
Q 2575 -91 1722 -91 
Q 1428 -91 1123 -41 
Q 819 9 494 109 
L 494 744 
Q 775 591 1075 516 
Q 1375 441 1709 441 
Q 2250 441 2565 725 
Q 2881 1009 2881 1497 
Q 2881 1984 2565 2268 
Q 2250 2553 1709 2553 
Q 1456 2553 1204 2497 
Q 953 2441 691 2322 
L 691 4666 
z
" transform="scale(0.015625)"/>
       </defs>
       <use xlink:href="#DejaVuSans-35"/>
      </g>
     </g>
    </g>
    <g id="xtick_3">
     <g id="line2d_3">
      <g>
       <use xlink:href="#m622aac5abc" x="202.048113" y="320.4" style="stroke: #000000; stroke-width: 0.8"/>
      </g>
     </g>
     <g id="text_3">
      <!-- 10 -->
      <g transform="translate(194.413113 336.518125) scale(0.12 -0.12)">
       <defs>
        <path id="DejaVuSans-31" d="M 794 531 
L 1825 531 
L 1825 4091 
L 703 3866 
L 703 4441 
L 1819 4666 
L 2450 4666 
L 2450 531 
L 3481 531 
L 3481 0 
L 794 0 
L 794 531 
z
" transform="scale(0.015625)"/>
       </defs>
       <use xlink:href="#DejaVuSans-31"/>
       <use xlink:href="#DejaVuSans-30" x="63.623047"/>
      </g>
     </g>
    </g>
    <g id="xtick_4">
     <g id="line2d_4">
      <g>
       <use xlink:href="#m622aac5abc" x="262.140421" y="320.4" style="stroke: #000000; stroke-width: 0.8"/>
      </g>
     </g>
     <g id="text_4">
      <!-- 15 -->
      <g transform="translate(254.505421 336.518125) scale(0.12 -0.12)">
       <use xlink:href="#DejaVuSans-31"/>
       <use xlink:href="#DejaVuSans-35" x="63.623047"/>
      </g>
     </g>
    </g>
    <g id="xtick_5">
     <g id="line2d_5">
      <g>
       <use xlink:href="#m622aac5abc" x="322.232728" y="320.4" style="stroke: #000000; stroke-width: 0.8"/>
      </g>
     </g>
     <g id="text_5">
      <!-- 20 -->
      <g transform="translate(314.597728 336.518125) scale(0.12 -0.12)">
       <defs>
        <path id="DejaVuSans-32" d="M 1228 531 
L 3431 531 
L 3431 0 
L 469 0 
L 469 531 
Q 828 903 1448 1529 
Q 2069 2156 2228 2338 
Q 2531 2678 2651 2914 
Q 2772 3150 2772 3378 
Q 2772 3750 2511 3984 
Q 2250 4219 1831 4219 
Q 1534 4219 1204 4116 
Q 875 4013 500 3803 
L 500 4441 
Q 881 4594 1212 4672 
Q 1544 4750 1819 4750 
Q 2544 4750 2975 4387 
Q 3406 4025 3406 3419 
Q 3406 3131 3298 2873 
Q 3191 2616 2906 2266 
Q 2828 2175 2409 1742 
Q 1991 1309 1228 531 
z
" transform="scale(0.015625)"/>
       </defs>
       <use xlink:href="#DejaVuSans-32"/>
       <use xlink:href="#DejaVuSans-30" x="63.623047"/>
      </g>
     </g>
    </g>
    <g id="xtick_6">
     <g id="line2d_6">
      <g>
       <use xlink:href="#m622aac5abc" x="382.325036" y="320.4" style="stroke: #000000; stroke-width: 0.8"/>
      </g>
     </g>
     <g id="text_6">
      <!-- 25 -->
      <g transform="translate(374.690036 336.518125) scale(0.12 -0.12)">
       <use xlink:href="#DejaVuSans-32"/>
       <use xlink:href="#DejaVuSans-35" x="63.623047"/>
      </g>
     </g>
    </g>
    <g id="xtick_7">
     <g id="line2d_7">
      <g>
       <use xlink:href="#m622aac5abc" x="442.417344" y="320.4" style="stroke: #000000; stroke-width: 0.8"/>
      </g>
     </g>
     <g id="text_7">
      <!-- 30 -->
      <g transform="translate(434.782344 336.518125) scale(0.12 -0.12)">
       <defs>
        <path id="DejaVuSans-33" d="M 2597 2516 
Q 3050 2419 3304 2112 
Q 3559 1806 3559 1356 
Q 3559 666 3084 287 
Q 2609 -91 1734 -91 
Q 1441 -91 1130 -33 
Q 819 25 488 141 
L 488 750 
Q 750 597 1062 519 
Q 1375 441 1716 441 
Q 2309 441 2620 675 
Q 2931 909 2931 1356 
Q 2931 1769 2642 2001 
Q 2353 2234 1838 2234 
L 1294 2234 
L 1294 2753 
L 1863 2753 
Q 2328 2753 2575 2939 
Q 2822 3125 2822 3475 
Q 2822 3834 2567 4026 
Q 2313 4219 1838 4219 
Q 1578 4219 1281 4162 
Q 984 4106 628 3988 
L 628 4550 
Q 988 4650 1302 4700 
Q 1616 4750 1894 4750 
Q 2613 4750 3031 4423 
Q 3450 4097 3450 3541 
Q 3450 3153 3228 2886 
Q 3006 2619 2597 2516 
z
" transform="scale(0.015625)"/>
       </defs>
       <use xlink:href="#DejaVuSans-33"/>
       <use xlink:href="#DejaVuSans-30" x="63.623047"/>
      </g>
     </g>
    </g>
    <g id="text_8">
     <!-- Time [hr] -->
     <g transform="translate(208.023594 354.411406) scale(0.15 -0.15)">
      <defs>
       <path id="DejaVuSans-Bold-54" d="M 31 4666 
L 4331 4666 
L 4331 3756 
L 2784 3756 
L 2784 0 
L 1581 0 
L 1581 3756 
L 31 3756 
L 31 4666 
z
" transform="scale(0.015625)"/>
       <path id="DejaVuSans-Bold-69" d="M 538 3500 
L 1656 3500 
L 1656 0 
L 538 0 
L 538 3500 
z
M 538 4863 
L 1656 4863 
L 1656 3950 
L 538 3950 
L 538 4863 
z
" transform="scale(0.015625)"/>
       <path id="DejaVuSans-Bold-6d" d="M 3781 2919 
Q 3994 3244 4286 3414 
Q 4578 3584 4928 3584 
Q 5531 3584 5847 3212 
Q 6163 2841 6163 2131 
L 6163 0 
L 5038 0 
L 5038 1825 
Q 5041 1866 5042 1909 
Q 5044 1953 5044 2034 
Q 5044 2406 4934 2573 
Q 4825 2741 4581 2741 
Q 4263 2741 4089 2478 
Q 3916 2216 3909 1719 
L 3909 0 
L 2784 0 
L 2784 1825 
Q 2784 2406 2684 2573 
Q 2584 2741 2328 2741 
Q 2006 2741 1831 2477 
Q 1656 2213 1656 1722 
L 1656 0 
L 531 0 
L 531 3500 
L 1656 3500 
L 1656 2988 
Q 1863 3284 2130 3434 
Q 2397 3584 2719 3584 
Q 3081 3584 3359 3409 
Q 3638 3234 3781 2919 
z
" transform="scale(0.015625)"/>
       <path id="DejaVuSans-Bold-65" d="M 4031 1759 
L 4031 1441 
L 1416 1441 
Q 1456 1047 1700 850 
Q 1944 653 2381 653 
Q 2734 653 3104 758 
Q 3475 863 3866 1075 
L 3866 213 
Q 3469 63 3072 -14 
Q 2675 -91 2278 -91 
Q 1328 -91 801 392 
Q 275 875 275 1747 
Q 275 2603 792 3093 
Q 1309 3584 2216 3584 
Q 3041 3584 3536 3087 
Q 4031 2591 4031 1759 
z
M 2881 2131 
Q 2881 2450 2695 2645 
Q 2509 2841 2209 2841 
Q 1884 2841 1681 2658 
Q 1478 2475 1428 2131 
L 2881 2131 
z
" transform="scale(0.015625)"/>
       <path id="DejaVuSans-Bold-20" transform="scale(0.015625)"/>
       <path id="DejaVuSans-Bold-5b" d="M 550 4863 
L 2491 4863 
L 2491 4159 
L 1613 4159 
L 1613 -141 
L 2491 -141 
L 2491 -844 
L 550 -844 
L 550 4863 
z
" transform="scale(0.015625)"/>
       <path id="DejaVuSans-Bold-68" d="M 4056 2131 
L 4056 0 
L 2931 0 
L 2931 347 
L 2931 1625 
Q 2931 2084 2911 2256 
Q 2891 2428 2841 2509 
Q 2775 2619 2662 2680 
Q 2550 2741 2406 2741 
Q 2056 2741 1856 2470 
Q 1656 2200 1656 1722 
L 1656 0 
L 538 0 
L 538 4863 
L 1656 4863 
L 1656 2988 
Q 1909 3294 2193 3439 
Q 2478 3584 2822 3584 
Q 3428 3584 3742 3212 
Q 4056 2841 4056 2131 
z
" transform="scale(0.015625)"/>
       <path id="DejaVuSans-Bold-72" d="M 3138 2547 
Q 2991 2616 2845 2648 
Q 2700 2681 2553 2681 
Q 2122 2681 1889 2404 
Q 1656 2128 1656 1613 
L 1656 0 
L 538 0 
L 538 3500 
L 1656 3500 
L 1656 2925 
Q 1872 3269 2151 3426 
Q 2431 3584 2822 3584 
Q 2878 3584 2943 3579 
Q 3009 3575 3134 3559 
L 3138 2547 
z
" transform="scale(0.015625)"/>
       <path id="DejaVuSans-Bold-5d" d="M 2375 -844 
L 434 -844 
L 434 -141 
L 1313 -141 
L 1313 4159 
L 434 4159 
L 434 4863 
L 2375 4863 
L 2375 -844 
z
" transform="scale(0.015625)"/>
      </defs>
      <use xlink:href="#DejaVuSans-Bold-54"/>
      <use xlink:href="#DejaVuSans-Bold-69" x="68.212891"/>
      <use xlink:href="#DejaVuSans-Bold-6d" x="102.490234"/>
      <use xlink:href="#DejaVuSans-Bold-65" x="206.689453"/>
      <use xlink:href="#DejaVuSans-Bold-20" x="274.511719"/>
      <use xlink:href="#DejaVuSans-Bold-5b" x="309.326172"/>
      <use xlink:href="#DejaVuSans-Bold-68" x="355.029297"/>
      <use xlink:href="#DejaVuSans-Bold-72" x="426.220703"/>
      <use xlink:href="#DejaVuSans-Bold-5d" x="475.537109"/>
     </g>
    </g>
   </g>
   <g id="matplotlib.axis_2">
    <g id="ytick_1">
     <g id="line2d_8">
      <defs>
       <path id="me4054fc8ec" d="M 0 0 
L -3.5 0 
" style="stroke: #000000; stroke-width: 0.8"/>
      </defs>
      <g>
       <use xlink:href="#me4054fc8ec" x="51.817344" y="307.8" style="stroke: #000000; stroke-width: 0.8"/>
      </g>
     </g>
     <g id="text_9">
      <!-- 0.0 -->
      <g transform="translate(25.733594 312.359062) scale(0.12 -0.12)">
       <defs>
        <path id="DejaVuSans-2e" d="M 684 794 
L 1344 794 
L 1344 0 
L 684 0 
L 684 794 
z
" transform="scale(0.015625)"/>
       </defs>
       <use xlink:href="#DejaVuSans-30"/>
       <use xlink:href="#DejaVuSans-2e" x="63.623047"/>
       <use xlink:href="#DejaVuSans-30" x="95.410156"/>
      </g>
     </g>
    </g>
    <g id="ytick_2">
     <g id="line2d_9">
      <g>
       <use xlink:href="#me4054fc8ec" x="51.817344" y="276.354672" style="stroke: #000000; stroke-width: 0.8"/>
      </g>
     </g>
     <g id="text_10">
      <!-- 0.1 -->
      <g transform="translate(25.733594 280.913734) scale(0.12 -0.12)">
       <use xlink:href="#DejaVuSans-30"/>
       <use xlink:href="#DejaVuSans-2e" x="63.623047"/>
       <use xlink:href="#DejaVuSans-31" x="95.410156"/>
      </g>
     </g>
    </g>
    <g id="ytick_3">
     <g id="line2d_10">
      <g>
       <use xlink:href="#me4054fc8ec" x="51.817344" y="244.909343" style="stroke: #000000; stroke-width: 0.8"/>
      </g>
     </g>
     <g id="text_11">
      <!-- 0.2 -->
      <g transform="translate(25.733594 249.468406) scale(0.12 -0.12)">
       <use xlink:href="#DejaVuSans-30"/>
       <use xlink:href="#DejaVuSans-2e" x="63.623047"/>
       <use xlink:href="#DejaVuSans-32" x="95.410156"/>
      </g>
     </g>
    </g>
    <g id="ytick_4">
     <g id="line2d_11">
      <g>
       <use xlink:href="#me4054fc8ec" x="51.817344" y="213.464015" style="stroke: #000000; stroke-width: 0.8"/>
      </g>
     </g>
     <g id="text_12">
      <!-- 0.3 -->
      <g transform="translate(25.733594 218.023077) scale(0.12 -0.12)">
       <use xlink:href="#DejaVuSans-30"/>
       <use xlink:href="#DejaVuSans-2e" x="63.623047"/>
       <use xlink:href="#DejaVuSans-33" x="95.410156"/>
      </g>
     </g>
    </g>
    <g id="ytick_5">
     <g id="line2d_12">
      <g>
       <use xlink:href="#me4054fc8ec" x="51.817344" y="182.018686" style="stroke: #000000; stroke-width: 0.8"/>
      </g>
     </g>
     <g id="text_13">
      <!-- 0.4 -->
      <g transform="translate(25.733594 186.577749) scale(0.12 -0.12)">
       <defs>
        <path id="DejaVuSans-34" d="M 2419 4116 
L 825 1625 
L 2419 1625 
L 2419 4116 
z
M 2253 4666 
L 3047 4666 
L 3047 1625 
L 3713 1625 
L 3713 1100 
L 3047 1100 
L 3047 0 
L 2419 0 
L 2419 1100 
L 313 1100 
L 313 1709 
L 2253 4666 
z
" transform="scale(0.015625)"/>
       </defs>
       <use xlink:href="#DejaVuSans-30"/>
       <use xlink:href="#DejaVuSans-2e" x="63.623047"/>
       <use xlink:href="#DejaVuSans-34" x="95.410156"/>
      </g>
     </g>
    </g>
    <g id="ytick_6">
     <g id="line2d_13">
      <g>
       <use xlink:href="#me4054fc8ec" x="51.817344" y="150.573358" style="stroke: #000000; stroke-width: 0.8"/>
      </g>
     </g>
     <g id="text_14">
      <!-- 0.5 -->
      <g transform="translate(25.733594 155.13242) scale(0.12 -0.12)">
       <use xlink:href="#DejaVuSans-30"/>
       <use xlink:href="#DejaVuSans-2e" x="63.623047"/>
       <use xlink:href="#DejaVuSans-35" x="95.410156"/>
      </g>
     </g>
    </g>
    <g id="ytick_7">
     <g id="line2d_14">
      <g>
       <use xlink:href="#me4054fc8ec" x="51.817344" y="119.128029" style="stroke: #000000; stroke-width: 0.8"/>
      </g>
     </g>
     <g id="text_15">
      <!-- 0.6 -->
      <g transform="translate(25.733594 123.687092) scale(0.12 -0.12)">
       <defs>
        <path id="DejaVuSans-36" d="M 2113 2584 
Q 1688 2584 1439 2293 
Q 1191 2003 1191 1497 
Q 1191 994 1439 701 
Q 1688 409 2113 409 
Q 2538 409 2786 701 
Q 3034 994 3034 1497 
Q 3034 2003 2786 2293 
Q 2538 2584 2113 2584 
z
M 3366 4563 
L 3366 3988 
Q 3128 4100 2886 4159 
Q 2644 4219 2406 4219 
Q 1781 4219 1451 3797 
Q 1122 3375 1075 2522 
Q 1259 2794 1537 2939 
Q 1816 3084 2150 3084 
Q 2853 3084 3261 2657 
Q 3669 2231 3669 1497 
Q 3669 778 3244 343 
Q 2819 -91 2113 -91 
Q 1303 -91 875 529 
Q 447 1150 447 2328 
Q 447 3434 972 4092 
Q 1497 4750 2381 4750 
Q 2619 4750 2861 4703 
Q 3103 4656 3366 4563 
z
" transform="scale(0.015625)"/>
       </defs>
       <use xlink:href="#DejaVuSans-30"/>
       <use xlink:href="#DejaVuSans-2e" x="63.623047"/>
       <use xlink:href="#DejaVuSans-36" x="95.410156"/>
      </g>
     </g>
    </g>
    <g id="ytick_8">
     <g id="line2d_15">
      <g>
       <use xlink:href="#me4054fc8ec" x="51.817344" y="87.682701" style="stroke: #000000; stroke-width: 0.8"/>
      </g>
     </g>
     <g id="text_16">
      <!-- 0.7 -->
      <g transform="translate(25.733594 92.241763) scale(0.12 -0.12)">
       <defs>
        <path id="DejaVuSans-37" d="M 525 4666 
L 3525 4666 
L 3525 4397 
L 1831 0 
L 1172 0 
L 2766 4134 
L 525 4134 
L 525 4666 
z
" transform="scale(0.015625)"/>
       </defs>
       <use xlink:href="#DejaVuSans-30"/>
       <use xlink:href="#DejaVuSans-2e" x="63.623047"/>
       <use xlink:href="#DejaVuSans-37" x="95.410156"/>
      </g>
     </g>
    </g>
    <g id="ytick_9">
     <g id="line2d_16">
      <g>
       <use xlink:href="#me4054fc8ec" x="51.817344" y="56.237372" style="stroke: #000000; stroke-width: 0.8"/>
      </g>
     </g>
     <g id="text_17">
      <!-- 0.8 -->
      <g transform="translate(25.733594 60.796435) scale(0.12 -0.12)">
       <defs>
        <path id="DejaVuSans-38" d="M 2034 2216 
Q 1584 2216 1326 1975 
Q 1069 1734 1069 1313 
Q 1069 891 1326 650 
Q 1584 409 2034 409 
Q 2484 409 2743 651 
Q 3003 894 3003 1313 
Q 3003 1734 2745 1975 
Q 2488 2216 2034 2216 
z
M 1403 2484 
Q 997 2584 770 2862 
Q 544 3141 544 3541 
Q 544 4100 942 4425 
Q 1341 4750 2034 4750 
Q 2731 4750 3128 4425 
Q 3525 4100 3525 3541 
Q 3525 3141 3298 2862 
Q 3072 2584 2669 2484 
Q 3125 2378 3379 2068 
Q 3634 1759 3634 1313 
Q 3634 634 3220 271 
Q 2806 -91 2034 -91 
Q 1263 -91 848 271 
Q 434 634 434 1313 
Q 434 1759 690 2068 
Q 947 2378 1403 2484 
z
M 1172 3481 
Q 1172 3119 1398 2916 
Q 1625 2713 2034 2713 
Q 2441 2713 2670 2916 
Q 2900 3119 2900 3481 
Q 2900 3844 2670 4047 
Q 2441 4250 2034 4250 
Q 1625 4250 1398 4047 
Q 1172 3844 1172 3481 
z
" transform="scale(0.015625)"/>
       </defs>
       <use xlink:href="#DejaVuSans-30"/>
       <use xlink:href="#DejaVuSans-2e" x="63.623047"/>
       <use xlink:href="#DejaVuSans-38" x="95.410156"/>
      </g>
     </g>
    </g>
    <g id="text_18">
     <!-- Glimepiride Plasma [µM] -->
     <g transform="translate(18.597656 286.194141) rotate(-90) scale(0.15 -0.15)">
      <defs>
       <path id="DejaVuSans-Bold-47" d="M 4781 347 
Q 4331 128 3847 18 
Q 3363 -91 2847 -91 
Q 1681 -91 1000 561 
Q 319 1213 319 2328 
Q 319 3456 1012 4103 
Q 1706 4750 2913 4750 
Q 3378 4750 3804 4662 
Q 4231 4575 4609 4403 
L 4609 3438 
Q 4219 3659 3833 3768 
Q 3447 3878 3059 3878 
Q 2341 3878 1952 3476 
Q 1563 3075 1563 2328 
Q 1563 1588 1938 1184 
Q 2313 781 3003 781 
Q 3191 781 3352 804 
Q 3513 828 3641 878 
L 3641 1784 
L 2906 1784 
L 2906 2591 
L 4781 2591 
L 4781 347 
z
" transform="scale(0.015625)"/>
       <path id="DejaVuSans-Bold-6c" d="M 538 4863 
L 1656 4863 
L 1656 0 
L 538 0 
L 538 4863 
z
" transform="scale(0.015625)"/>
       <path id="DejaVuSans-Bold-70" d="M 1656 506 
L 1656 -1331 
L 538 -1331 
L 538 3500 
L 1656 3500 
L 1656 2988 
Q 1888 3294 2169 3439 
Q 2450 3584 2816 3584 
Q 3463 3584 3878 3070 
Q 4294 2556 4294 1747 
Q 4294 938 3878 423 
Q 3463 -91 2816 -91 
Q 2450 -91 2169 54 
Q 1888 200 1656 506 
z
M 2400 2772 
Q 2041 2772 1848 2508 
Q 1656 2244 1656 1747 
Q 1656 1250 1848 986 
Q 2041 722 2400 722 
Q 2759 722 2948 984 
Q 3138 1247 3138 1747 
Q 3138 2247 2948 2509 
Q 2759 2772 2400 2772 
z
" transform="scale(0.015625)"/>
       <path id="DejaVuSans-Bold-64" d="M 2919 2988 
L 2919 4863 
L 4044 4863 
L 4044 0 
L 2919 0 
L 2919 506 
Q 2688 197 2409 53 
Q 2131 -91 1766 -91 
Q 1119 -91 703 423 
Q 288 938 288 1747 
Q 288 2556 703 3070 
Q 1119 3584 1766 3584 
Q 2128 3584 2408 3439 
Q 2688 3294 2919 2988 
z
M 2181 722 
Q 2541 722 2730 984 
Q 2919 1247 2919 1747 
Q 2919 2247 2730 2509 
Q 2541 2772 2181 2772 
Q 1825 2772 1636 2509 
Q 1447 2247 1447 1747 
Q 1447 1247 1636 984 
Q 1825 722 2181 722 
z
" transform="scale(0.015625)"/>
       <path id="DejaVuSans-Bold-50" d="M 588 4666 
L 2584 4666 
Q 3475 4666 3951 4270 
Q 4428 3875 4428 3144 
Q 4428 2409 3951 2014 
Q 3475 1619 2584 1619 
L 1791 1619 
L 1791 0 
L 588 0 
L 588 4666 
z
M 1791 3794 
L 1791 2491 
L 2456 2491 
Q 2806 2491 2997 2661 
Q 3188 2831 3188 3144 
Q 3188 3456 2997 3625 
Q 2806 3794 2456 3794 
L 1791 3794 
z
" transform="scale(0.015625)"/>
       <path id="DejaVuSans-Bold-61" d="M 2106 1575 
Q 1756 1575 1579 1456 
Q 1403 1338 1403 1106 
Q 1403 894 1545 773 
Q 1688 653 1941 653 
Q 2256 653 2472 879 
Q 2688 1106 2688 1447 
L 2688 1575 
L 2106 1575 
z
M 3816 1997 
L 3816 0 
L 2688 0 
L 2688 519 
Q 2463 200 2181 54 
Q 1900 -91 1497 -91 
Q 953 -91 614 226 
Q 275 544 275 1050 
Q 275 1666 698 1953 
Q 1122 2241 2028 2241 
L 2688 2241 
L 2688 2328 
Q 2688 2594 2478 2717 
Q 2269 2841 1825 2841 
Q 1466 2841 1156 2769 
Q 847 2697 581 2553 
L 581 3406 
Q 941 3494 1303 3539 
Q 1666 3584 2028 3584 
Q 2975 3584 3395 3211 
Q 3816 2838 3816 1997 
z
" transform="scale(0.015625)"/>
       <path id="DejaVuSans-Bold-73" d="M 3272 3391 
L 3272 2541 
Q 2913 2691 2578 2766 
Q 2244 2841 1947 2841 
Q 1628 2841 1473 2761 
Q 1319 2681 1319 2516 
Q 1319 2381 1436 2309 
Q 1553 2238 1856 2203 
L 2053 2175 
Q 2913 2066 3209 1816 
Q 3506 1566 3506 1031 
Q 3506 472 3093 190 
Q 2681 -91 1863 -91 
Q 1516 -91 1145 -36 
Q 775 19 384 128 
L 384 978 
Q 719 816 1070 734 
Q 1422 653 1784 653 
Q 2113 653 2278 743 
Q 2444 834 2444 1013 
Q 2444 1163 2330 1236 
Q 2216 1309 1875 1350 
L 1678 1375 
Q 931 1469 631 1722 
Q 331 1975 331 2491 
Q 331 3047 712 3315 
Q 1094 3584 1881 3584 
Q 2191 3584 2531 3537 
Q 2872 3491 3272 3391 
z
" transform="scale(0.015625)"/>
       <path id="DejaVuSans-Bold-b5" d="M 544 -1338 
L 544 3500 
L 1672 3500 
L 1672 1466 
Q 1672 1103 1828 926 
Q 1984 750 2303 750 
Q 2625 750 2781 926 
Q 2938 1103 2938 1466 
L 2938 3500 
L 4063 3500 
L 4063 1159 
Q 4063 938 4114 850 
Q 4166 763 4288 763 
Q 4344 763 4395 778 
Q 4447 794 4506 831 
L 4506 50 
Q 4341 -22 4195 -56 
Q 4050 -91 3909 -91 
Q 3631 -91 3454 26 
Q 3278 144 3169 403 
Q 3022 156 2811 32 
Q 2600 -91 2322 -91 
Q 2091 -91 1928 -17 
Q 1766 56 1672 206 
L 1672 -1338 
L 544 -1338 
z
" transform="scale(0.015625)"/>
       <path id="DejaVuSans-Bold-4d" d="M 588 4666 
L 2119 4666 
L 3181 2169 
L 4250 4666 
L 5778 4666 
L 5778 0 
L 4641 0 
L 4641 3413 
L 3566 897 
L 2803 897 
L 1728 3413 
L 1728 0 
L 588 0 
L 588 4666 
z
" transform="scale(0.015625)"/>
      </defs>
      <use xlink:href="#DejaVuSans-Bold-47"/>
      <use xlink:href="#DejaVuSans-Bold-6c" x="82.080078"/>
      <use xlink:href="#DejaVuSans-Bold-69" x="116.357422"/>
      <use xlink:href="#DejaVuSans-Bold-6d" x="150.634766"/>
      <use xlink:href="#DejaVuSans-Bold-65" x="254.833984"/>
      <use xlink:href="#DejaVuSans-Bold-70" x="322.65625"/>
      <use xlink:href="#DejaVuSans-Bold-69" x="394.238281"/>
      <use xlink:href="#DejaVuSans-Bold-72" x="428.515625"/>
      <use xlink:href="#DejaVuSans-Bold-69" x="477.832031"/>
      <use xlink:href="#DejaVuSans-Bold-64" x="512.109375"/>
      <use xlink:href="#DejaVuSans-Bold-65" x="583.691406"/>
      <use xlink:href="#DejaVuSans-Bold-20" x="651.513672"/>
      <use xlink:href="#DejaVuSans-Bold-50" x="686.328125"/>
      <use xlink:href="#DejaVuSans-Bold-6c" x="759.619141"/>
      <use xlink:href="#DejaVuSans-Bold-61" x="793.896484"/>
      <use xlink:href="#DejaVuSans-Bold-73" x="861.376953"/>
      <use xlink:href="#DejaVuSans-Bold-6d" x="920.898438"/>
      <use xlink:href="#DejaVuSans-Bold-61" x="1025.097656"/>
      <use xlink:href="#DejaVuSans-Bold-20" x="1092.578125"/>
      <use xlink:href="#DejaVuSans-Bold-5b" x="1127.392578"/>
      <use xlink:href="#DejaVuSans-Bold-b5" x="1173.095703"/>
      <use xlink:href="#DejaVuSans-Bold-4d" x="1246.679688"/>
      <use xlink:href="#DejaVuSans-Bold-5d" x="1346.191406"/>
     </g>
    </g>
   </g>
   <g id="LineCollection_1">
    <path d="M 87.872728 300.185707 
L 87.872728 219.620313 
" clip-path="url(#p493ecf5152)" style="fill: none; stroke: #66c2a5"/>
    <path d="M 93.881959 284.421248 
L 93.881959 131.369582 
" clip-path="url(#p493ecf5152)" style="fill: none; stroke: #66c2a5"/>
    <path d="M 105.900421 205.493991 
L 105.900421 131.369582 
" clip-path="url(#p493ecf5152)" style="fill: none; stroke: #66c2a5"/>
    <path d="M 117.918882 218.107682 
L 117.918882 133.800026 
" clip-path="url(#p493ecf5152)" style="fill: none; stroke: #66c2a5"/>
    <path d="M 129.937344 253.97683 
L 129.937344 177.770121 
" clip-path="url(#p493ecf5152)" style="fill: none; stroke: #66c2a5"/>
    <path d="M 153.974267 284.283019 
L 153.974267 238.143953 
" clip-path="url(#p493ecf5152)" style="fill: none; stroke: #66c2a5"/>
    <path d="M 178.01119 295.093723 
L 178.01119 273.938523 
" clip-path="url(#p493ecf5152)" style="fill: none; stroke: #66c2a5"/>
    <path d="M 202.048113 295.456823 
L 202.048113 282.843948 
" clip-path="url(#p493ecf5152)" style="fill: none; stroke: #66c2a5"/>
    <path d="M 226.085036 304.077591 
L 226.085036 285.153191 
" clip-path="url(#p493ecf5152)" style="fill: none; stroke: #66c2a5"/>
    <path d="M 274.158882 305.385193 
L 274.158882 294.431227 
" clip-path="url(#p493ecf5152)" style="fill: none; stroke: #66c2a5"/>
    <path d="M 370.306575 305.41698 
L 370.306575 300.334146 
" clip-path="url(#p493ecf5152)" style="fill: none; stroke: #66c2a5"/>
    <path clip-path="url(#p493ecf5152)" style="fill: none; stroke: #66c2a5"/>
    <path clip-path="url(#p493ecf5152)" style="fill: none; stroke: #66c2a5"/>
   </g>
   <g id="line2d_17">
    <path d="M 81.863498 307.8 
L 83.065344 305.199584 
L 84.26719 297.383758 
L 85.469036 285.990769 
L 87.872728 257.495585 
L 91.478267 212.190019 
L 93.881959 185.254434 
L 95.083805 173.371102 
L 96.285651 162.650704 
L 97.487498 153.118351 
L 98.689344 144.768391 
L 99.89119 137.572621 
L 101.093036 131.48671 
L 102.294882 126.455205 
L 103.496728 122.415412 
L 104.698575 119.300392 
L 105.900421 117.04124 
L 107.102267 115.568815 
L 108.304113 114.815021 
L 109.505959 114.713741 
L 110.707805 115.201502 
L 111.909651 116.217921 
L 113.111498 117.705986 
L 114.313344 119.612213 
L 115.51519 121.886701 
L 116.717036 124.483117 
L 119.120728 130.473771 
L 121.524421 137.281277 
L 125.129959 148.481786 
L 132.341036 172.195651 
L 137.148421 187.657789 
L 140.753959 198.650712 
L 144.359498 208.975474 
L 147.965036 218.560384 
L 151.570575 227.375978 
L 155.176113 235.422971 
L 158.781651 242.723001 
L 162.38719 249.311599 
L 165.992728 255.232921 
L 169.598267 260.535845 
L 173.203805 265.271136 
L 176.809344 269.489435 
L 180.414882 273.239876 
L 184.020421 276.56917 
L 187.625959 279.521048 
L 191.231498 282.135964 
L 194.837036 284.450984 
L 198.442575 286.499809 
L 202.048113 288.312883 
L 205.653651 289.917563 
L 210.461036 291.774889 
L 215.268421 293.355718 
L 220.075805 294.703377 
L 226.085036 296.115578 
L 232.094267 297.280248 
L 239.305344 298.418399 
L 246.516421 299.335061 
L 254.929344 300.191529 
L 265.745959 301.046022 
L 277.764421 301.769124 
L 293.388421 302.478252 
L 313.819805 303.168638 
L 341.462267 303.867984 
L 379.921344 304.604941 
L 429.197036 305.320814 
L 458.252344 305.659122 
L 458.252344 305.659122 
" clip-path="url(#p493ecf5152)" style="fill: none; stroke: #66c2a5; stroke-width: 2; stroke-linecap: square"/>
   </g>
   <g id="line2d_18">
    <path d="M 87.872728 259.90301 
L 93.881959 207.895415 
L 105.900421 168.431786 
L 117.918882 175.953854 
L 129.937344 215.873475 
L 153.974267 261.213486 
L 178.01119 284.516123 
L 202.048113 289.150386 
L 226.085036 294.615391 
L 274.158882 299.90821 
L 370.306575 302.875563 
L 458.252344 304.313848 
" clip-path="url(#p493ecf5152)" style="fill: none; stroke-dasharray: 3.7,1.6; stroke-dashoffset: 0; stroke: #66c2a5"/>
    <defs>
     <path id="mdf71620ffa" d="M -3 3 
L 3 3 
L 3 -3 
L -3 -3 
z
" style="stroke: #000000; stroke-linejoin: miter"/>
    </defs>
    <g clip-path="url(#p493ecf5152)">
     <use xlink:href="#mdf71620ffa" x="87.872728" y="259.90301" style="fill: #66c2a5; stroke: #000000; stroke-linejoin: miter"/>
     <use xlink:href="#mdf71620ffa" x="93.881959" y="207.895415" style="fill: #66c2a5; stroke: #000000; stroke-linejoin: miter"/>
     <use xlink:href="#mdf71620ffa" x="105.900421" y="168.431786" style="fill: #66c2a5; stroke: #000000; stroke-linejoin: miter"/>
     <use xlink:href="#mdf71620ffa" x="117.918882" y="175.953854" style="fill: #66c2a5; stroke: #000000; stroke-linejoin: miter"/>
     <use xlink:href="#mdf71620ffa" x="129.937344" y="215.873475" style="fill: #66c2a5; stroke: #000000; stroke-linejoin: miter"/>
     <use xlink:href="#mdf71620ffa" x="153.974267" y="261.213486" style="fill: #66c2a5; stroke: #000000; stroke-linejoin: miter"/>
     <use xlink:href="#mdf71620ffa" x="178.01119" y="284.516123" style="fill: #66c2a5; stroke: #000000; stroke-linejoin: miter"/>
     <use xlink:href="#mdf71620ffa" x="202.048113" y="289.150386" style="fill: #66c2a5; stroke: #000000; stroke-linejoin: miter"/>
     <use xlink:href="#mdf71620ffa" x="226.085036" y="294.615391" style="fill: #66c2a5; stroke: #000000; stroke-linejoin: miter"/>
     <use xlink:href="#mdf71620ffa" x="274.158882" y="299.90821" style="fill: #66c2a5; stroke: #000000; stroke-linejoin: miter"/>
     <use xlink:href="#mdf71620ffa" x="370.306575" y="302.875563" style="fill: #66c2a5; stroke: #000000; stroke-linejoin: miter"/>
     <use xlink:href="#mdf71620ffa" x="514.528113" y="305.234195" style="fill: #66c2a5; stroke: #000000; stroke-linejoin: miter"/>
     <use xlink:href="#mdf71620ffa" x="658.749651" y="306.035697" style="fill: #66c2a5; stroke: #000000; stroke-linejoin: miter"/>
    </g>
   </g>
   <g id="line2d_19">
    <path d="M 81.863498 307.8 
L 83.065344 305.179149 
L 84.26719 297.251144 
L 85.469036 285.613775 
L 86.670882 271.584796 
L 90.276421 224.066 
L 92.680113 193.328509 
L 95.083805 166.04167 
L 96.285651 154.004284 
L 97.487498 143.103283 
L 98.689344 133.345598 
L 99.89119 124.714544 
L 101.093036 117.176257 
L 102.294882 110.684744 
L 103.496728 105.185825 
L 104.698575 100.620189 
L 105.900421 96.925739 
L 107.102267 94.039388 
L 108.304113 91.898401 
L 109.505959 90.441384 
L 110.707805 89.609 
L 111.909651 89.34447 
L 113.111498 89.593891 
L 114.313344 90.306439 
L 115.51519 91.43446 
L 116.717036 92.933484 
L 117.918882 94.762193 
L 119.120728 96.882331 
L 121.524421 101.858522 
L 123.928113 107.612651 
L 126.331805 113.935698 
L 129.937344 124.115866 
L 145.561344 169.603939 
L 149.166882 179.277095 
L 152.772421 188.436846 
L 156.377959 197.051094 
L 159.983498 205.108141 
L 163.589036 212.610944 
L 167.194575 219.572764 
L 170.800113 226.013883 
L 174.405651 231.959151 
L 178.01119 237.436152 
L 181.616728 242.473863 
L 185.222267 247.101667 
L 188.827805 251.348651 
L 192.433344 255.24311 
L 196.038882 258.812215 
L 199.644421 262.081794 
L 203.249959 265.076204 
L 206.855498 267.818272 
L 210.461036 270.329277 
L 214.066575 272.628973 
L 218.873959 275.397911 
L 223.681344 277.862929 
L 228.488728 280.059265 
L 233.296113 282.018306 
L 238.103498 283.767929 
L 244.112728 285.697822 
L 250.121959 287.38094 
L 256.13119 288.853262 
L 263.342267 290.384726 
L 270.553344 291.701241 
L 278.966267 293.014181 
L 288.581036 294.277706 
L 299.397651 295.462302 
L 311.416113 296.553623 
L 325.838267 297.631341 
L 342.664113 298.658953 
L 363.095498 299.676447 
L 388.334267 300.698803 
L 419.582267 301.726324 
L 456.839498 302.718182 
L 458.252344 302.751846 
L 458.252344 302.751846 
" clip-path="url(#p493ecf5152)" style="fill: none; stroke: #8da0cb; stroke-width: 2; stroke-linecap: square"/>
   </g>
   <g id="line2d_20">
    <path d="M 87.872728 259.233982 
L 93.881959 228.882069 
L 105.900421 189.802019 
L 117.918882 160.480571 
L 129.937344 200.720584 
L 153.974267 252.776354 
L 178.01119 272.006662 
L 202.048113 280.678079 
L 226.085036 284.836859 
L 274.158882 293.863176 
L 370.306575 298.858865 
L 458.252344 300.179754 
" clip-path="url(#p493ecf5152)" style="fill: none; stroke-dasharray: 3.7,1.6; stroke-dashoffset: 0; stroke: #8da0cb"/>
    <defs>
     <path id="m06a10c6e45" d="M -3 3 
L 3 3 
L 3 -3 
L -3 -3 
z
" style="stroke: #000000; stroke-linejoin: miter"/>
    </defs>
    <g clip-path="url(#p493ecf5152)">
     <use xlink:href="#m06a10c6e45" x="87.872728" y="259.233982" style="fill: #8da0cb; stroke: #000000; stroke-linejoin: miter"/>
     <use xlink:href="#m06a10c6e45" x="93.881959" y="228.882069" style="fill: #8da0cb; stroke: #000000; stroke-linejoin: miter"/>
     <use xlink:href="#m06a10c6e45" x="105.900421" y="189.802019" style="fill: #8da0cb; stroke: #000000; stroke-linejoin: miter"/>
     <use xlink:href="#m06a10c6e45" x="117.918882" y="160.480571" style="fill: #8da0cb; stroke: #000000; stroke-linejoin: miter"/>
     <use xlink:href="#m06a10c6e45" x="129.937344" y="200.720584" style="fill: #8da0cb; stroke: #000000; stroke-linejoin: miter"/>
     <use xlink:href="#m06a10c6e45" x="153.974267" y="252.776354" style="fill: #8da0cb; stroke: #000000; stroke-linejoin: miter"/>
     <use xlink:href="#m06a10c6e45" x="178.01119" y="272.006662" style="fill: #8da0cb; stroke: #000000; stroke-linejoin: miter"/>
     <use xlink:href="#m06a10c6e45" x="202.048113" y="280.678079" style="fill: #8da0cb; stroke: #000000; stroke-linejoin: miter"/>
     <use xlink:href="#m06a10c6e45" x="226.085036" y="284.836859" style="fill: #8da0cb; stroke: #000000; stroke-linejoin: miter"/>
     <use xlink:href="#m06a10c6e45" x="274.158882" y="293.863176" style="fill: #8da0cb; stroke: #000000; stroke-linejoin: miter"/>
     <use xlink:href="#m06a10c6e45" x="370.306575" y="298.858865" style="fill: #8da0cb; stroke: #000000; stroke-linejoin: miter"/>
     <use xlink:href="#m06a10c6e45" x="514.528113" y="301.024979" style="fill: #8da0cb; stroke: #000000; stroke-linejoin: miter"/>
     <use xlink:href="#m06a10c6e45" x="658.749651" y="303.800597" style="fill: #8da0cb; stroke: #000000; stroke-linejoin: miter"/>
    </g>
   </g>
   <g id="line2d_21">
    <path d="M 81.863498 307.8 
L 83.065344 305.158427 
L 84.26719 297.115594 
L 85.469036 285.225844 
L 86.670882 270.785406 
L 89.074575 238.025482 
L 92.680113 188.114954 
L 95.083805 158.178684 
L 97.487498 132.259026 
L 98.689344 120.919571 
L 99.89119 110.661803 
L 101.093036 101.462454 
L 102.294882 93.285148 
L 103.496728 86.084402 
L 104.698575 79.808734 
L 105.900421 74.403085 
L 107.102267 69.810665 
L 108.304113 65.974365 
L 109.505959 62.837807 
L 110.707805 60.346107 
L 111.909651 58.446427 
L 113.111498 57.088346 
L 114.313344 56.224097 
L 115.51519 55.808697 
L 116.717036 55.8 
L 117.918882 56.15869 
L 119.120728 56.848227 
L 120.322575 57.834758 
L 121.524421 59.087014 
L 122.726267 60.576182 
L 125.129959 64.161491 
L 127.533651 68.404205 
L 129.937344 73.14845 
L 133.542882 80.928279 
L 138.350267 92.028316 
L 151.570575 123.102495 
L 156.377959 133.806512 
L 161.185344 143.987928 
L 165.992728 153.598182 
L 170.800113 162.620225 
L 175.607498 171.057484 
L 180.414882 178.926335 
L 185.222267 186.251013 
L 190.029651 193.060169 
L 194.837036 199.384592 
L 199.644421 205.255687 
L 204.451805 210.704509 
L 209.25919 215.761137 
L 214.066575 220.454306 
L 218.873959 224.811202 
L 223.681344 228.857363 
L 228.488728 232.616654 
L 233.296113 236.111296 
L 238.103498 239.36191 
L 242.910882 242.387599 
L 248.920113 245.880177 
L 254.929344 249.080334 
L 260.938575 252.01656 
L 266.947805 254.714562 
L 272.957036 257.197511 
L 280.168113 259.922417 
L 287.37919 262.399727 
L 294.590267 264.657744 
L 303.00319 267.048002 
L 311.416113 269.20803 
L 321.030882 271.432587 
L 330.645651 273.432806 
L 341.462267 275.454306 
L 353.480728 277.460212 
L 366.701036 279.423105 
L 381.12319 281.324389 
L 396.74719 283.152938 
L 413.573036 284.903369 
L 432.802575 286.6791 
L 454.435805 288.446076 
L 458.252344 288.736109 
L 458.252344 288.736109 
" clip-path="url(#p493ecf5152)" style="fill: none; stroke: #e78ac3; stroke-width: 2; stroke-linecap: square"/>
   </g>
   <g id="line2d_22">
    <path d="M 87.872728 261.213486 
L 89.074575 228.882069 
L 93.881959 166.485171 
L 105.900421 58.239538 
L 117.918882 138.560718 
L 129.937344 247.165758 
L 153.974267 284.516123 
L 178.01119 284.836859 
L 202.048113 292.010052 
L 226.085036 292.227569 
L 274.158882 296.162749 
L 370.306575 297.669998 
L 458.252344 299.294586 
" clip-path="url(#p493ecf5152)" style="fill: none; stroke-dasharray: 3.7,1.6; stroke-dashoffset: 0; stroke: #e78ac3"/>
    <defs>
     <path id="m919c1be384" d="M -3 3 
L 3 3 
L 3 -3 
L -3 -3 
z
" style="stroke: #000000; stroke-linejoin: miter"/>
    </defs>
    <g clip-path="url(#p493ecf5152)">
     <use xlink:href="#m919c1be384" x="87.872728" y="261.213486" style="fill: #e78ac3; stroke: #000000; stroke-linejoin: miter"/>
     <use xlink:href="#m919c1be384" x="89.074575" y="228.882069" style="fill: #e78ac3; stroke: #000000; stroke-linejoin: miter"/>
     <use xlink:href="#m919c1be384" x="93.881959" y="166.485171" style="fill: #e78ac3; stroke: #000000; stroke-linejoin: miter"/>
     <use xlink:href="#m919c1be384" x="105.900421" y="58.239538" style="fill: #e78ac3; stroke: #000000; stroke-linejoin: miter"/>
     <use xlink:href="#m919c1be384" x="117.918882" y="138.560718" style="fill: #e78ac3; stroke: #000000; stroke-linejoin: miter"/>
     <use xlink:href="#m919c1be384" x="129.937344" y="247.165758" style="fill: #e78ac3; stroke: #000000; stroke-linejoin: miter"/>
     <use xlink:href="#m919c1be384" x="153.974267" y="284.516123" style="fill: #e78ac3; stroke: #000000; stroke-linejoin: miter"/>
     <use xlink:href="#m919c1be384" x="178.01119" y="284.836859" style="fill: #e78ac3; stroke: #000000; stroke-linejoin: miter"/>
     <use xlink:href="#m919c1be384" x="202.048113" y="292.010052" style="fill: #e78ac3; stroke: #000000; stroke-linejoin: miter"/>
     <use xlink:href="#m919c1be384" x="226.085036" y="292.227569" style="fill: #e78ac3; stroke: #000000; stroke-linejoin: miter"/>
     <use xlink:href="#m919c1be384" x="274.158882" y="296.162749" style="fill: #e78ac3; stroke: #000000; stroke-linejoin: miter"/>
     <use xlink:href="#m919c1be384" x="370.306575" y="297.669998" style="fill: #e78ac3; stroke: #000000; stroke-linejoin: miter"/>
     <use xlink:href="#m919c1be384" x="514.528113" y="300.334146" style="fill: #e78ac3; stroke: #000000; stroke-linejoin: miter"/>
     <use xlink:href="#m919c1be384" x="658.749651" y="302.373436" style="fill: #e78ac3; stroke: #000000; stroke-linejoin: miter"/>
    </g>
   </g>
   <g id="patch_3">
    <path d="M 51.817344 320.4 
L 51.817344 43.2 
" style="fill: none; stroke: #000000; stroke-width: 0.8; stroke-linejoin: miter; stroke-linecap: square"/>
   </g>
   <g id="patch_4">
    <path d="M 442.417344 320.4 
L 442.417344 43.2 
" style="fill: none; stroke: #000000; stroke-width: 0.8; stroke-linejoin: miter; stroke-linecap: square"/>
   </g>
   <g id="patch_5">
    <path d="M 51.817344 320.4 
L 442.417344 320.4 
" style="fill: none; stroke: #000000; stroke-width: 0.8; stroke-linejoin: miter; stroke-linecap: square"/>
   </g>
   <g id="patch_6">
    <path d="M 51.817344 43.2 
L 442.417344 43.2 
" style="fill: none; stroke: #000000; stroke-width: 0.8; stroke-linejoin: miter; stroke-linecap: square"/>
   </g>
   <g id="legend_1">
    <g id="patch_7">
     <path d="M 264.982344 129.661875 
L 436.117344 129.661875 
Q 437.917344 129.661875 437.917344 127.861875 
L 437.917344 49.5 
Q 437.917344 47.7 436.117344 47.7 
L 264.982344 47.7 
Q 263.182344 47.7 263.182344 49.5 
L 263.182344 127.861875 
Q 263.182344 129.661875 264.982344 129.661875 
z
" style="fill: #ffffff; opacity: 0.8; stroke: #cccccc; stroke-linejoin: miter"/>
    </g>
    <g id="line2d_23">
     <path d="M 266.782344 54.988594 
L 284.782344 54.988594 
" style="fill: none; stroke: #66c2a5; stroke-width: 2; stroke-linecap: square"/>
    </g>
    <g id="line2d_24"/>
    <g id="text_19">
     <!-- Sim 4mg PO (*1/*1) -->
     <g transform="translate(291.982344 58.138594) scale(0.09 -0.09)">
      <defs>
       <path id="DejaVuSans-53" d="M 3425 4513 
L 3425 3897 
Q 3066 4069 2747 4153 
Q 2428 4238 2131 4238 
Q 1616 4238 1336 4038 
Q 1056 3838 1056 3469 
Q 1056 3159 1242 3001 
Q 1428 2844 1947 2747 
L 2328 2669 
Q 3034 2534 3370 2195 
Q 3706 1856 3706 1288 
Q 3706 609 3251 259 
Q 2797 -91 1919 -91 
Q 1588 -91 1214 -16 
Q 841 59 441 206 
L 441 856 
Q 825 641 1194 531 
Q 1563 422 1919 422 
Q 2459 422 2753 634 
Q 3047 847 3047 1241 
Q 3047 1584 2836 1778 
Q 2625 1972 2144 2069 
L 1759 2144 
Q 1053 2284 737 2584 
Q 422 2884 422 3419 
Q 422 4038 858 4394 
Q 1294 4750 2059 4750 
Q 2388 4750 2728 4690 
Q 3069 4631 3425 4513 
z
" transform="scale(0.015625)"/>
       <path id="DejaVuSans-69" d="M 603 3500 
L 1178 3500 
L 1178 0 
L 603 0 
L 603 3500 
z
M 603 4863 
L 1178 4863 
L 1178 4134 
L 603 4134 
L 603 4863 
z
" transform="scale(0.015625)"/>
       <path id="DejaVuSans-6d" d="M 3328 2828 
Q 3544 3216 3844 3400 
Q 4144 3584 4550 3584 
Q 5097 3584 5394 3201 
Q 5691 2819 5691 2113 
L 5691 0 
L 5113 0 
L 5113 2094 
Q 5113 2597 4934 2840 
Q 4756 3084 4391 3084 
Q 3944 3084 3684 2787 
Q 3425 2491 3425 1978 
L 3425 0 
L 2847 0 
L 2847 2094 
Q 2847 2600 2669 2842 
Q 2491 3084 2119 3084 
Q 1678 3084 1418 2786 
Q 1159 2488 1159 1978 
L 1159 0 
L 581 0 
L 581 3500 
L 1159 3500 
L 1159 2956 
Q 1356 3278 1631 3431 
Q 1906 3584 2284 3584 
Q 2666 3584 2933 3390 
Q 3200 3197 3328 2828 
z
" transform="scale(0.015625)"/>
       <path id="DejaVuSans-20" transform="scale(0.015625)"/>
       <path id="DejaVuSans-67" d="M 2906 1791 
Q 2906 2416 2648 2759 
Q 2391 3103 1925 3103 
Q 1463 3103 1205 2759 
Q 947 2416 947 1791 
Q 947 1169 1205 825 
Q 1463 481 1925 481 
Q 2391 481 2648 825 
Q 2906 1169 2906 1791 
z
M 3481 434 
Q 3481 -459 3084 -895 
Q 2688 -1331 1869 -1331 
Q 1566 -1331 1297 -1286 
Q 1028 -1241 775 -1147 
L 775 -588 
Q 1028 -725 1275 -790 
Q 1522 -856 1778 -856 
Q 2344 -856 2625 -561 
Q 2906 -266 2906 331 
L 2906 616 
Q 2728 306 2450 153 
Q 2172 0 1784 0 
Q 1141 0 747 490 
Q 353 981 353 1791 
Q 353 2603 747 3093 
Q 1141 3584 1784 3584 
Q 2172 3584 2450 3431 
Q 2728 3278 2906 2969 
L 2906 3500 
L 3481 3500 
L 3481 434 
z
" transform="scale(0.015625)"/>
       <path id="DejaVuSans-50" d="M 1259 4147 
L 1259 2394 
L 2053 2394 
Q 2494 2394 2734 2622 
Q 2975 2850 2975 3272 
Q 2975 3691 2734 3919 
Q 2494 4147 2053 4147 
L 1259 4147 
z
M 628 4666 
L 2053 4666 
Q 2838 4666 3239 4311 
Q 3641 3956 3641 3272 
Q 3641 2581 3239 2228 
Q 2838 1875 2053 1875 
L 1259 1875 
L 1259 0 
L 628 0 
L 628 4666 
z
" transform="scale(0.015625)"/>
       <path id="DejaVuSans-4f" d="M 2522 4238 
Q 1834 4238 1429 3725 
Q 1025 3213 1025 2328 
Q 1025 1447 1429 934 
Q 1834 422 2522 422 
Q 3209 422 3611 934 
Q 4013 1447 4013 2328 
Q 4013 3213 3611 3725 
Q 3209 4238 2522 4238 
z
M 2522 4750 
Q 3503 4750 4090 4092 
Q 4678 3434 4678 2328 
Q 4678 1225 4090 567 
Q 3503 -91 2522 -91 
Q 1538 -91 948 565 
Q 359 1222 359 2328 
Q 359 3434 948 4092 
Q 1538 4750 2522 4750 
z
" transform="scale(0.015625)"/>
       <path id="DejaVuSans-28" d="M 1984 4856 
Q 1566 4138 1362 3434 
Q 1159 2731 1159 2009 
Q 1159 1288 1364 580 
Q 1569 -128 1984 -844 
L 1484 -844 
Q 1016 -109 783 600 
Q 550 1309 550 2009 
Q 550 2706 781 3412 
Q 1013 4119 1484 4856 
L 1984 4856 
z
" transform="scale(0.015625)"/>
       <path id="DejaVuSans-2a" d="M 3009 3897 
L 1888 3291 
L 3009 2681 
L 2828 2375 
L 1778 3009 
L 1778 1831 
L 1422 1831 
L 1422 3009 
L 372 2375 
L 191 2681 
L 1313 3291 
L 191 3897 
L 372 4206 
L 1422 3572 
L 1422 4750 
L 1778 4750 
L 1778 3572 
L 2828 4206 
L 3009 3897 
z
" transform="scale(0.015625)"/>
       <path id="DejaVuSans-2f" d="M 1625 4666 
L 2156 4666 
L 531 -594 
L 0 -594 
L 1625 4666 
z
" transform="scale(0.015625)"/>
       <path id="DejaVuSans-29" d="M 513 4856 
L 1013 4856 
Q 1481 4119 1714 3412 
Q 1947 2706 1947 2009 
Q 1947 1309 1714 600 
Q 1481 -109 1013 -844 
L 513 -844 
Q 928 -128 1133 580 
Q 1338 1288 1338 2009 
Q 1338 2731 1133 3434 
Q 928 4138 513 4856 
z
" transform="scale(0.015625)"/>
      </defs>
      <use xlink:href="#DejaVuSans-53"/>
      <use xlink:href="#DejaVuSans-69" x="63.476562"/>
      <use xlink:href="#DejaVuSans-6d" x="91.259766"/>
      <use xlink:href="#DejaVuSans-20" x="188.671875"/>
      <use xlink:href="#DejaVuSans-34" x="220.458984"/>
      <use xlink:href="#DejaVuSans-6d" x="284.082031"/>
      <use xlink:href="#DejaVuSans-67" x="381.494141"/>
      <use xlink:href="#DejaVuSans-20" x="444.970703"/>
      <use xlink:href="#DejaVuSans-50" x="476.757812"/>
      <use xlink:href="#DejaVuSans-4f" x="537.060547"/>
      <use xlink:href="#DejaVuSans-20" x="615.771484"/>
      <use xlink:href="#DejaVuSans-28" x="647.558594"/>
      <use xlink:href="#DejaVuSans-2a" x="686.572266"/>
      <use xlink:href="#DejaVuSans-31" x="736.572266"/>
      <use xlink:href="#DejaVuSans-2f" x="800.195312"/>
      <use xlink:href="#DejaVuSans-2a" x="833.886719"/>
      <use xlink:href="#DejaVuSans-31" x="883.886719"/>
      <use xlink:href="#DejaVuSans-29" x="947.509766"/>
     </g>
    </g>
    <g id="LineCollection_2">
     <path d="M 275.782344 72.698906 
L 275.782344 63.698906 
" style="fill: none; stroke: #66c2a5"/>
    </g>
    <g id="line2d_25">
     <path d="M 266.782344 68.198906 
L 284.782344 68.198906 
" style="fill: none; stroke-dasharray: 3.7,1.6; stroke-dashoffset: 0; stroke: #66c2a5"/>
    </g>
    <g id="line2d_26">
     <g>
      <use xlink:href="#mdf71620ffa" x="275.782344" y="68.198906" style="fill: #66c2a5; stroke: #000000; stroke-linejoin: miter"/>
     </g>
    </g>
    <g id="text_20">
     <!-- Data 4mg PO (*1/*1)±SD (n=9) -->
     <g transform="translate(291.982344 71.348906) scale(0.09 -0.09)">
      <defs>
       <path id="DejaVuSans-44" d="M 1259 4147 
L 1259 519 
L 2022 519 
Q 2988 519 3436 956 
Q 3884 1394 3884 2338 
Q 3884 3275 3436 3711 
Q 2988 4147 2022 4147 
L 1259 4147 
z
M 628 4666 
L 1925 4666 
Q 3281 4666 3915 4102 
Q 4550 3538 4550 2338 
Q 4550 1131 3912 565 
Q 3275 0 1925 0 
L 628 0 
L 628 4666 
z
" transform="scale(0.015625)"/>
       <path id="DejaVuSans-61" d="M 2194 1759 
Q 1497 1759 1228 1600 
Q 959 1441 959 1056 
Q 959 750 1161 570 
Q 1363 391 1709 391 
Q 2188 391 2477 730 
Q 2766 1069 2766 1631 
L 2766 1759 
L 2194 1759 
z
M 3341 1997 
L 3341 0 
L 2766 0 
L 2766 531 
Q 2569 213 2275 61 
Q 1981 -91 1556 -91 
Q 1019 -91 701 211 
Q 384 513 384 1019 
Q 384 1609 779 1909 
Q 1175 2209 1959 2209 
L 2766 2209 
L 2766 2266 
Q 2766 2663 2505 2880 
Q 2244 3097 1772 3097 
Q 1472 3097 1187 3025 
Q 903 2953 641 2809 
L 641 3341 
Q 956 3463 1253 3523 
Q 1550 3584 1831 3584 
Q 2591 3584 2966 3190 
Q 3341 2797 3341 1997 
z
" transform="scale(0.015625)"/>
       <path id="DejaVuSans-74" d="M 1172 4494 
L 1172 3500 
L 2356 3500 
L 2356 3053 
L 1172 3053 
L 1172 1153 
Q 1172 725 1289 603 
Q 1406 481 1766 481 
L 2356 481 
L 2356 0 
L 1766 0 
Q 1100 0 847 248 
Q 594 497 594 1153 
L 594 3053 
L 172 3053 
L 172 3500 
L 594 3500 
L 594 4494 
L 1172 4494 
z
" transform="scale(0.015625)"/>
       <path id="DejaVuSans-b1" d="M 2944 4013 
L 2944 2803 
L 4684 2803 
L 4684 2272 
L 2944 2272 
L 2944 1063 
L 2419 1063 
L 2419 2272 
L 678 2272 
L 678 2803 
L 2419 2803 
L 2419 4013 
L 2944 4013 
z
M 678 531 
L 4684 531 
L 4684 0 
L 678 0 
L 678 531 
z
" transform="scale(0.015625)"/>
       <path id="DejaVuSans-6e" d="M 3513 2113 
L 3513 0 
L 2938 0 
L 2938 2094 
Q 2938 2591 2744 2837 
Q 2550 3084 2163 3084 
Q 1697 3084 1428 2787 
Q 1159 2491 1159 1978 
L 1159 0 
L 581 0 
L 581 3500 
L 1159 3500 
L 1159 2956 
Q 1366 3272 1645 3428 
Q 1925 3584 2291 3584 
Q 2894 3584 3203 3211 
Q 3513 2838 3513 2113 
z
" transform="scale(0.015625)"/>
       <path id="DejaVuSans-3d" d="M 678 2906 
L 4684 2906 
L 4684 2381 
L 678 2381 
L 678 2906 
z
M 678 1631 
L 4684 1631 
L 4684 1100 
L 678 1100 
L 678 1631 
z
" transform="scale(0.015625)"/>
       <path id="DejaVuSans-39" d="M 703 97 
L 703 672 
Q 941 559 1184 500 
Q 1428 441 1663 441 
Q 2288 441 2617 861 
Q 2947 1281 2994 2138 
Q 2813 1869 2534 1725 
Q 2256 1581 1919 1581 
Q 1219 1581 811 2004 
Q 403 2428 403 3163 
Q 403 3881 828 4315 
Q 1253 4750 1959 4750 
Q 2769 4750 3195 4129 
Q 3622 3509 3622 2328 
Q 3622 1225 3098 567 
Q 2575 -91 1691 -91 
Q 1453 -91 1209 -44 
Q 966 3 703 97 
z
M 1959 2075 
Q 2384 2075 2632 2365 
Q 2881 2656 2881 3163 
Q 2881 3666 2632 3958 
Q 2384 4250 1959 4250 
Q 1534 4250 1286 3958 
Q 1038 3666 1038 3163 
Q 1038 2656 1286 2365 
Q 1534 2075 1959 2075 
z
" transform="scale(0.015625)"/>
      </defs>
      <use xlink:href="#DejaVuSans-44"/>
      <use xlink:href="#DejaVuSans-61" x="77.001953"/>
      <use xlink:href="#DejaVuSans-74" x="138.28125"/>
      <use xlink:href="#DejaVuSans-61" x="177.490234"/>
      <use xlink:href="#DejaVuSans-20" x="238.769531"/>
      <use xlink:href="#DejaVuSans-34" x="270.556641"/>
      <use xlink:href="#DejaVuSans-6d" x="334.179688"/>
      <use xlink:href="#DejaVuSans-67" x="431.591797"/>
      <use xlink:href="#DejaVuSans-20" x="495.068359"/>
      <use xlink:href="#DejaVuSans-50" x="526.855469"/>
      <use xlink:href="#DejaVuSans-4f" x="587.158203"/>
      <use xlink:href="#DejaVuSans-20" x="665.869141"/>
      <use xlink:href="#DejaVuSans-28" x="697.65625"/>
      <use xlink:href="#DejaVuSans-2a" x="736.669922"/>
      <use xlink:href="#DejaVuSans-31" x="786.669922"/>
      <use xlink:href="#DejaVuSans-2f" x="850.292969"/>
      <use xlink:href="#DejaVuSans-2a" x="883.984375"/>
      <use xlink:href="#DejaVuSans-31" x="933.984375"/>
      <use xlink:href="#DejaVuSans-29" x="997.607422"/>
      <use xlink:href="#DejaVuSans-b1" x="1036.621094"/>
      <use xlink:href="#DejaVuSans-53" x="1120.410156"/>
      <use xlink:href="#DejaVuSans-44" x="1183.886719"/>
      <use xlink:href="#DejaVuSans-20" x="1260.888672"/>
      <use xlink:href="#DejaVuSans-28" x="1292.675781"/>
      <use xlink:href="#DejaVuSans-6e" x="1331.689453"/>
      <use xlink:href="#DejaVuSans-3d" x="1395.068359"/>
      <use xlink:href="#DejaVuSans-39" x="1478.857422"/>
      <use xlink:href="#DejaVuSans-29" x="1542.480469"/>
     </g>
    </g>
    <g id="line2d_27">
     <path d="M 266.782344 81.409219 
L 284.782344 81.409219 
" style="fill: none; stroke: #8da0cb; stroke-width: 2; stroke-linecap: square"/>
    </g>
    <g id="line2d_28"/>
    <g id="text_21">
     <!-- Sim 4mg PO (*1/*3) -->
     <g transform="translate(291.982344 84.559219) scale(0.09 -0.09)">
      <use xlink:href="#DejaVuSans-53"/>
      <use xlink:href="#DejaVuSans-69" x="63.476562"/>
      <use xlink:href="#DejaVuSans-6d" x="91.259766"/>
      <use xlink:href="#DejaVuSans-20" x="188.671875"/>
      <use xlink:href="#DejaVuSans-34" x="220.458984"/>
      <use xlink:href="#DejaVuSans-6d" x="284.082031"/>
      <use xlink:href="#DejaVuSans-67" x="381.494141"/>
      <use xlink:href="#DejaVuSans-20" x="444.970703"/>
      <use xlink:href="#DejaVuSans-50" x="476.757812"/>
      <use xlink:href="#DejaVuSans-4f" x="537.060547"/>
      <use xlink:href="#DejaVuSans-20" x="615.771484"/>
      <use xlink:href="#DejaVuSans-28" x="647.558594"/>
      <use xlink:href="#DejaVuSans-2a" x="686.572266"/>
      <use xlink:href="#DejaVuSans-31" x="736.572266"/>
      <use xlink:href="#DejaVuSans-2f" x="800.195312"/>
      <use xlink:href="#DejaVuSans-2a" x="833.886719"/>
      <use xlink:href="#DejaVuSans-33" x="883.886719"/>
      <use xlink:href="#DejaVuSans-29" x="947.509766"/>
     </g>
    </g>
    <g id="line2d_29">
     <path d="M 266.782344 94.619531 
L 284.782344 94.619531 
" style="fill: none; stroke-dasharray: 3.7,1.6; stroke-dashoffset: 0; stroke: #8da0cb"/>
    </g>
    <g id="line2d_30">
     <g>
      <use xlink:href="#m06a10c6e45" x="275.782344" y="94.619531" style="fill: #8da0cb; stroke: #000000; stroke-linejoin: miter"/>
     </g>
    </g>
    <g id="text_22">
     <!-- Data 4mg PO (*1/*3) (n=9) -->
     <g transform="translate(291.982344 97.769531) scale(0.09 -0.09)">
      <use xlink:href="#DejaVuSans-44"/>
      <use xlink:href="#DejaVuSans-61" x="77.001953"/>
      <use xlink:href="#DejaVuSans-74" x="138.28125"/>
      <use xlink:href="#DejaVuSans-61" x="177.490234"/>
      <use xlink:href="#DejaVuSans-20" x="238.769531"/>
      <use xlink:href="#DejaVuSans-34" x="270.556641"/>
      <use xlink:href="#DejaVuSans-6d" x="334.179688"/>
      <use xlink:href="#DejaVuSans-67" x="431.591797"/>
      <use xlink:href="#DejaVuSans-20" x="495.068359"/>
      <use xlink:href="#DejaVuSans-50" x="526.855469"/>
      <use xlink:href="#DejaVuSans-4f" x="587.158203"/>
      <use xlink:href="#DejaVuSans-20" x="665.869141"/>
      <use xlink:href="#DejaVuSans-28" x="697.65625"/>
      <use xlink:href="#DejaVuSans-2a" x="736.669922"/>
      <use xlink:href="#DejaVuSans-31" x="786.669922"/>
      <use xlink:href="#DejaVuSans-2f" x="850.292969"/>
      <use xlink:href="#DejaVuSans-2a" x="883.984375"/>
      <use xlink:href="#DejaVuSans-33" x="933.984375"/>
      <use xlink:href="#DejaVuSans-29" x="997.607422"/>
      <use xlink:href="#DejaVuSans-20" x="1036.621094"/>
      <use xlink:href="#DejaVuSans-28" x="1068.408203"/>
      <use xlink:href="#DejaVuSans-6e" x="1107.421875"/>
      <use xlink:href="#DejaVuSans-3d" x="1170.800781"/>
      <use xlink:href="#DejaVuSans-39" x="1254.589844"/>
      <use xlink:href="#DejaVuSans-29" x="1318.212891"/>
     </g>
    </g>
    <g id="line2d_31">
     <path d="M 266.782344 107.829844 
L 284.782344 107.829844 
" style="fill: none; stroke: #e78ac3; stroke-width: 2; stroke-linecap: square"/>
    </g>
    <g id="line2d_32"/>
    <g id="text_23">
     <!-- Sim 4mg PO (*3/*3) -->
     <g transform="translate(291.982344 110.979844) scale(0.09 -0.09)">
      <use xlink:href="#DejaVuSans-53"/>
      <use xlink:href="#DejaVuSans-69" x="63.476562"/>
      <use xlink:href="#DejaVuSans-6d" x="91.259766"/>
      <use xlink:href="#DejaVuSans-20" x="188.671875"/>
      <use xlink:href="#DejaVuSans-34" x="220.458984"/>
      <use xlink:href="#DejaVuSans-6d" x="284.082031"/>
      <use xlink:href="#DejaVuSans-67" x="381.494141"/>
      <use xlink:href="#DejaVuSans-20" x="444.970703"/>
      <use xlink:href="#DejaVuSans-50" x="476.757812"/>
      <use xlink:href="#DejaVuSans-4f" x="537.060547"/>
      <use xlink:href="#DejaVuSans-20" x="615.771484"/>
      <use xlink:href="#DejaVuSans-28" x="647.558594"/>
      <use xlink:href="#DejaVuSans-2a" x="686.572266"/>
      <use xlink:href="#DejaVuSans-33" x="736.572266"/>
      <use xlink:href="#DejaVuSans-2f" x="800.195312"/>
      <use xlink:href="#DejaVuSans-2a" x="833.886719"/>
      <use xlink:href="#DejaVuSans-33" x="883.886719"/>
      <use xlink:href="#DejaVuSans-29" x="947.509766"/>
     </g>
    </g>
    <g id="line2d_33">
     <path d="M 266.782344 121.040156 
L 284.782344 121.040156 
" style="fill: none; stroke-dasharray: 3.7,1.6; stroke-dashoffset: 0; stroke: #e78ac3"/>
    </g>
    <g id="line2d_34">
     <g>
      <use xlink:href="#m919c1be384" x="275.782344" y="121.040156" style="fill: #e78ac3; stroke: #000000; stroke-linejoin: miter"/>
     </g>
    </g>
    <g id="text_24">
     <!-- Data 4mg PO (*3/*3) (n=1) -->
     <g transform="translate(291.982344 124.190156) scale(0.09 -0.09)">
      <use xlink:href="#DejaVuSans-44"/>
      <use xlink:href="#DejaVuSans-61" x="77.001953"/>
      <use xlink:href="#DejaVuSans-74" x="138.28125"/>
      <use xlink:href="#DejaVuSans-61" x="177.490234"/>
      <use xlink:href="#DejaVuSans-20" x="238.769531"/>
      <use xlink:href="#DejaVuSans-34" x="270.556641"/>
      <use xlink:href="#DejaVuSans-6d" x="334.179688"/>
      <use xlink:href="#DejaVuSans-67" x="431.591797"/>
      <use xlink:href="#DejaVuSans-20" x="495.068359"/>
      <use xlink:href="#DejaVuSans-50" x="526.855469"/>
      <use xlink:href="#DejaVuSans-4f" x="587.158203"/>
      <use xlink:href="#DejaVuSans-20" x="665.869141"/>
      <use xlink:href="#DejaVuSans-28" x="697.65625"/>
      <use xlink:href="#DejaVuSans-2a" x="736.669922"/>
      <use xlink:href="#DejaVuSans-33" x="786.669922"/>
      <use xlink:href="#DejaVuSans-2f" x="850.292969"/>
      <use xlink:href="#DejaVuSans-2a" x="883.984375"/>
      <use xlink:href="#DejaVuSans-33" x="933.984375"/>
      <use xlink:href="#DejaVuSans-29" x="997.607422"/>
      <use xlink:href="#DejaVuSans-20" x="1036.621094"/>
      <use xlink:href="#DejaVuSans-28" x="1068.408203"/>
      <use xlink:href="#DejaVuSans-6e" x="1107.421875"/>
      <use xlink:href="#DejaVuSans-3d" x="1170.800781"/>
      <use xlink:href="#DejaVuSans-31" x="1254.589844"/>
      <use xlink:href="#DejaVuSans-29" x="1318.212891"/>
     </g>
    </g>
   </g>
  </g>
  <g id="text_25">
   <!-- Wang2005 (CYP2C9) -->
   <g transform="translate(125.507969 22.375) scale(0.2 -0.2)">
    <defs>
     <path id="DejaVuSans-Bold-57" d="M 191 4666 
L 1344 4666 
L 2150 1275 
L 2950 4666 
L 4109 4666 
L 4909 1275 
L 5716 4666 
L 6859 4666 
L 5759 0 
L 4372 0 
L 3525 3547 
L 2688 0 
L 1300 0 
L 191 4666 
z
" transform="scale(0.015625)"/>
     <path id="DejaVuSans-Bold-6e" d="M 4056 2131 
L 4056 0 
L 2931 0 
L 2931 347 
L 2931 1631 
Q 2931 2084 2911 2256 
Q 2891 2428 2841 2509 
Q 2775 2619 2662 2680 
Q 2550 2741 2406 2741 
Q 2056 2741 1856 2470 
Q 1656 2200 1656 1722 
L 1656 0 
L 538 0 
L 538 3500 
L 1656 3500 
L 1656 2988 
Q 1909 3294 2193 3439 
Q 2478 3584 2822 3584 
Q 3428 3584 3742 3212 
Q 4056 2841 4056 2131 
z
" transform="scale(0.015625)"/>
     <path id="DejaVuSans-Bold-67" d="M 2919 594 
Q 2688 288 2409 144 
Q 2131 0 1766 0 
Q 1125 0 706 504 
Q 288 1009 288 1791 
Q 288 2575 706 3076 
Q 1125 3578 1766 3578 
Q 2131 3578 2409 3434 
Q 2688 3291 2919 2981 
L 2919 3500 
L 4044 3500 
L 4044 353 
Q 4044 -491 3511 -936 
Q 2978 -1381 1966 -1381 
Q 1638 -1381 1331 -1331 
Q 1025 -1281 716 -1178 
L 716 -306 
Q 1009 -475 1290 -558 
Q 1572 -641 1856 -641 
Q 2406 -641 2662 -400 
Q 2919 -159 2919 353 
L 2919 594 
z
M 2181 2772 
Q 1834 2772 1640 2515 
Q 1447 2259 1447 1791 
Q 1447 1309 1634 1061 
Q 1822 813 2181 813 
Q 2531 813 2725 1069 
Q 2919 1325 2919 1791 
Q 2919 2259 2725 2515 
Q 2531 2772 2181 2772 
z
" transform="scale(0.015625)"/>
     <path id="DejaVuSans-Bold-32" d="M 1844 884 
L 3897 884 
L 3897 0 
L 506 0 
L 506 884 
L 2209 2388 
Q 2438 2594 2547 2791 
Q 2656 2988 2656 3200 
Q 2656 3528 2436 3728 
Q 2216 3928 1850 3928 
Q 1569 3928 1234 3808 
Q 900 3688 519 3450 
L 519 4475 
Q 925 4609 1322 4679 
Q 1719 4750 2100 4750 
Q 2938 4750 3402 4381 
Q 3866 4013 3866 3353 
Q 3866 2972 3669 2642 
Q 3472 2313 2841 1759 
L 1844 884 
z
" transform="scale(0.015625)"/>
     <path id="DejaVuSans-Bold-30" d="M 2944 2338 
Q 2944 3213 2780 3570 
Q 2616 3928 2228 3928 
Q 1841 3928 1675 3570 
Q 1509 3213 1509 2338 
Q 1509 1453 1675 1090 
Q 1841 728 2228 728 
Q 2613 728 2778 1090 
Q 2944 1453 2944 2338 
z
M 4147 2328 
Q 4147 1169 3647 539 
Q 3147 -91 2228 -91 
Q 1306 -91 806 539 
Q 306 1169 306 2328 
Q 306 3491 806 4120 
Q 1306 4750 2228 4750 
Q 3147 4750 3647 4120 
Q 4147 3491 4147 2328 
z
" transform="scale(0.015625)"/>
     <path id="DejaVuSans-Bold-35" d="M 678 4666 
L 3669 4666 
L 3669 3781 
L 1638 3781 
L 1638 3059 
Q 1775 3097 1914 3117 
Q 2053 3138 2203 3138 
Q 3056 3138 3531 2711 
Q 4006 2284 4006 1522 
Q 4006 766 3489 337 
Q 2972 -91 2053 -91 
Q 1656 -91 1267 -14 
Q 878 63 494 219 
L 494 1166 
Q 875 947 1217 837 
Q 1559 728 1863 728 
Q 2300 728 2551 942 
Q 2803 1156 2803 1522 
Q 2803 1891 2551 2103 
Q 2300 2316 1863 2316 
Q 1603 2316 1309 2248 
Q 1016 2181 678 2041 
L 678 4666 
z
" transform="scale(0.015625)"/>
     <path id="DejaVuSans-Bold-28" d="M 2413 -844 
L 1484 -844 
Q 1006 -72 778 623 
Q 550 1319 550 2003 
Q 550 2688 779 3389 
Q 1009 4091 1484 4856 
L 2413 4856 
Q 2013 4116 1813 3408 
Q 1613 2700 1613 2009 
Q 1613 1319 1811 609 
Q 2009 -100 2413 -844 
z
" transform="scale(0.015625)"/>
     <path id="DejaVuSans-Bold-43" d="M 4288 256 
Q 3956 84 3597 -3 
Q 3238 -91 2847 -91 
Q 1681 -91 1000 561 
Q 319 1213 319 2328 
Q 319 3447 1000 4098 
Q 1681 4750 2847 4750 
Q 3238 4750 3597 4662 
Q 3956 4575 4288 4403 
L 4288 3438 
Q 3953 3666 3628 3772 
Q 3303 3878 2944 3878 
Q 2300 3878 1931 3465 
Q 1563 3053 1563 2328 
Q 1563 1606 1931 1193 
Q 2300 781 2944 781 
Q 3303 781 3628 887 
Q 3953 994 4288 1222 
L 4288 256 
z
" transform="scale(0.015625)"/>
     <path id="DejaVuSans-Bold-59" d="M -63 4666 
L 1253 4666 
L 2316 3003 
L 3378 4666 
L 4697 4666 
L 2919 1966 
L 2919 0 
L 1716 0 
L 1716 1966 
L -63 4666 
z
" transform="scale(0.015625)"/>
     <path id="DejaVuSans-Bold-39" d="M 641 103 
L 641 966 
Q 928 831 1190 764 
Q 1453 697 1709 697 
Q 2247 697 2547 995 
Q 2847 1294 2900 1881 
Q 2688 1725 2447 1647 
Q 2206 1569 1925 1569 
Q 1209 1569 770 1986 
Q 331 2403 331 3084 
Q 331 3838 820 4291 
Q 1309 4744 2131 4744 
Q 3044 4744 3544 4128 
Q 4044 3513 4044 2388 
Q 4044 1231 3459 570 
Q 2875 -91 1856 -91 
Q 1528 -91 1228 -42 
Q 928 6 641 103 
z
M 2125 2350 
Q 2441 2350 2600 2554 
Q 2759 2759 2759 3169 
Q 2759 3575 2600 3781 
Q 2441 3988 2125 3988 
Q 1809 3988 1650 3781 
Q 1491 3575 1491 3169 
Q 1491 2759 1650 2554 
Q 1809 2350 2125 2350 
z
" transform="scale(0.015625)"/>
     <path id="DejaVuSans-Bold-29" d="M 513 -844 
Q 913 -100 1113 609 
Q 1313 1319 1313 2009 
Q 1313 2700 1113 3408 
Q 913 4116 513 4856 
L 1441 4856 
Q 1916 4091 2145 3389 
Q 2375 2688 2375 2003 
Q 2375 1319 2147 623 
Q 1919 -72 1441 -844 
L 513 -844 
z
" transform="scale(0.015625)"/>
    </defs>
    <use xlink:href="#DejaVuSans-Bold-57"/>
    <use xlink:href="#DejaVuSans-Bold-61" x="106.677734"/>
    <use xlink:href="#DejaVuSans-Bold-6e" x="174.158203"/>
    <use xlink:href="#DejaVuSans-Bold-67" x="245.349609"/>
    <use xlink:href="#DejaVuSans-Bold-32" x="316.931641"/>
    <use xlink:href="#DejaVuSans-Bold-30" x="386.511719"/>
    <use xlink:href="#DejaVuSans-Bold-30" x="456.091797"/>
    <use xlink:href="#DejaVuSans-Bold-35" x="525.671875"/>
    <use xlink:href="#DejaVuSans-Bold-20" x="595.251953"/>
    <use xlink:href="#DejaVuSans-Bold-28" x="630.066406"/>
    <use xlink:href="#DejaVuSans-Bold-43" x="675.769531"/>
    <use xlink:href="#DejaVuSans-Bold-59" x="749.158203"/>
    <use xlink:href="#DejaVuSans-Bold-50" x="821.570312"/>
    <use xlink:href="#DejaVuSans-Bold-32" x="894.861328"/>
    <use xlink:href="#DejaVuSans-Bold-43" x="964.441406"/>
    <use xlink:href="#DejaVuSans-Bold-39" x="1037.830078"/>
    <use xlink:href="#DejaVuSans-Bold-29" x="1107.410156"/>
   </g>
  </g>
 </g>
 <defs>
  <clipPath id="p493ecf5152">
   <rect x="51.817344" y="43.2" width="390.6" height="277.2"/>
  </clipPath>
 </defs>
</svg>
