<?xml version="1.0" encoding="utf-8" standalone="no"?>
<!DOCTYPE svg PUBLIC "-//W3C//DTD SVG 1.1//EN"
  "http://www.w3.org/Graphics/SVG/1.1/DTD/svg11.dtd">
<svg xmlns:xlink="http://www.w3.org/1999/xlink" width="1230.817344pt" height="364.730937pt" viewBox="0 0 1230.817344 364.730937" xmlns="http://www.w3.org/2000/svg" version="1.1">
 <metadata>
  <rdf:RDF xmlns:dc="http://purl.org/dc/elements/1.1/" xmlns:cc="http://creativecommons.org/ns#" xmlns:rdf="http://www.w3.org/1999/02/22-rdf-syntax-ns#">
   <cc:Work>
    <dc:type rdf:resource="http://purl.org/dc/dcmitype/StillImage"/>
    <dc:date>2025-04-04T11:25:54.642155</dc:date>
    <dc:format>image/svg+xml</dc:format>
    <dc:creator>
     <cc:Agent>
      <dc:title>Matplotlib v3.9.1, https://matplotlib.org/</dc:title>
     </cc:Agent>
    </dc:creator>
   </cc:Work>
  </rdf:RDF>
 </metadata>
 <defs>
  <style type="text/css">*{stroke-linejoin: round; stroke-linecap: butt}</style>
 </defs>
 <g id="figure_1">
  <g id="patch_1">
   <path d="M 0 364.730937 
L 1230.817344 364.730937 
L 1230.817344 0 
L 0 0 
z
" style="fill: #ffffff"/>
  </g>
  <g id="axes_1">
   <g id="patch_2">
    <path d="M 51.817344 320.4 
L 377.317344 320.4 
L 377.317344 43.2 
L 51.817344 43.2 
z
" style="fill: #ffffff"/>
   </g>
   <g id="matplotlib.axis_1">
    <g id="xtick_1">
     <g id="line2d_1">
      <defs>
       <path id="m836ceb09de" d="M 0 0 
L 0 3.5 
" style="stroke: #000000; stroke-width: 0.8"/>
      </defs>
      <g>
       <use xlink:href="#m836ceb09de" x="67.317344" y="320.4" style="stroke: #000000; stroke-width: 0.8"/>
      </g>
     </g>
     <g id="text_1">
      <!-- 0 -->
      <g transform="translate(63.499844 336.518125) scale(0.12 -0.12)">
       <defs>
        <path id="DejaVuSans-30" d="M 2034 4250 
Q 1547 4250 1301 3770 
Q 1056 3291 1056 2328 
Q 1056 1369 1301 889 
Q 1547 409 2034 409 
Q 2525 409 2770 889 
Q 3016 1369 3016 2328 
Q 3016 3291 2770 3770 
Q 2525 4250 2034 4250 
z
M 2034 4750 
Q 2819 4750 3233 4129 
Q 3647 3509 3647 2328 
Q 3647 1150 3233 529 
Q 2819 -91 2034 -91 
Q 1250 -91 836 529 
Q 422 1150 422 2328 
Q 422 3509 836 4129 
Q 1250 4750 2034 4750 
z
" transform="scale(0.015625)"/>
       </defs>
       <use xlink:href="#DejaVuSans-30"/>
      </g>
     </g>
    </g>
    <g id="xtick_2">
     <g id="line2d_2">
      <g>
       <use xlink:href="#m836ceb09de" x="129.317344" y="320.4" style="stroke: #000000; stroke-width: 0.8"/>
      </g>
     </g>
     <g id="text_2">
      <!-- 2 -->
      <g transform="translate(125.499844 336.518125) scale(0.12 -0.12)">
       <defs>
        <path id="DejaVuSans-32" d="M 1228 531 
L 3431 531 
L 3431 0 
L 469 0 
L 469 531 
Q 828 903 1448 1529 
Q 2069 2156 2228 2338 
Q 2531 2678 2651 2914 
Q 2772 3150 2772 3378 
Q 2772 3750 2511 3984 
Q 2250 4219 1831 4219 
Q 1534 4219 1204 4116 
Q 875 4013 500 3803 
L 500 4441 
Q 881 4594 1212 4672 
Q 1544 4750 1819 4750 
Q 2544 4750 2975 4387 
Q 3406 4025 3406 3419 
Q 3406 3131 3298 2873 
Q 3191 2616 2906 2266 
Q 2828 2175 2409 1742 
Q 1991 1309 1228 531 
z
" transform="scale(0.015625)"/>
       </defs>
       <use xlink:href="#DejaVuSans-32"/>
      </g>
     </g>
    </g>
    <g id="xtick_3">
     <g id="line2d_3">
      <g>
       <use xlink:href="#m836ceb09de" x="191.317344" y="320.4" style="stroke: #000000; stroke-width: 0.8"/>
      </g>
     </g>
     <g id="text_3">
      <!-- 4 -->
      <g transform="translate(187.499844 336.518125) scale(0.12 -0.12)">
       <defs>
        <path id="DejaVuSans-34" d="M 2419 4116 
L 825 1625 
L 2419 1625 
L 2419 4116 
z
M 2253 4666 
L 3047 4666 
L 3047 1625 
L 3713 1625 
L 3713 1100 
L 3047 1100 
L 3047 0 
L 2419 0 
L 2419 1100 
L 313 1100 
L 313 1709 
L 2253 4666 
z
" transform="scale(0.015625)"/>
       </defs>
       <use xlink:href="#DejaVuSans-34"/>
      </g>
     </g>
    </g>
    <g id="xtick_4">
     <g id="line2d_4">
      <g>
       <use xlink:href="#m836ceb09de" x="253.317344" y="320.4" style="stroke: #000000; stroke-width: 0.8"/>
      </g>
     </g>
     <g id="text_4">
      <!-- 6 -->
      <g transform="translate(249.499844 336.518125) scale(0.12 -0.12)">
       <defs>
        <path id="DejaVuSans-36" d="M 2113 2584 
Q 1688 2584 1439 2293 
Q 1191 2003 1191 1497 
Q 1191 994 1439 701 
Q 1688 409 2113 409 
Q 2538 409 2786 701 
Q 3034 994 3034 1497 
Q 3034 2003 2786 2293 
Q 2538 2584 2113 2584 
z
M 3366 4563 
L 3366 3988 
Q 3128 4100 2886 4159 
Q 2644 4219 2406 4219 
Q 1781 4219 1451 3797 
Q 1122 3375 1075 2522 
Q 1259 2794 1537 2939 
Q 1816 3084 2150 3084 
Q 2853 3084 3261 2657 
Q 3669 2231 3669 1497 
Q 3669 778 3244 343 
Q 2819 -91 2113 -91 
Q 1303 -91 875 529 
Q 447 1150 447 2328 
Q 447 3434 972 4092 
Q 1497 4750 2381 4750 
Q 2619 4750 2861 4703 
Q 3103 4656 3366 4563 
z
" transform="scale(0.015625)"/>
       </defs>
       <use xlink:href="#DejaVuSans-36"/>
      </g>
     </g>
    </g>
    <g id="xtick_5">
     <g id="line2d_5">
      <g>
       <use xlink:href="#m836ceb09de" x="315.317344" y="320.4" style="stroke: #000000; stroke-width: 0.8"/>
      </g>
     </g>
     <g id="text_5">
      <!-- 8 -->
      <g transform="translate(311.499844 336.518125) scale(0.12 -0.12)">
       <defs>
        <path id="DejaVuSans-38" d="M 2034 2216 
Q 1584 2216 1326 1975 
Q 1069 1734 1069 1313 
Q 1069 891 1326 650 
Q 1584 409 2034 409 
Q 2484 409 2743 651 
Q 3003 894 3003 1313 
Q 3003 1734 2745 1975 
Q 2488 2216 2034 2216 
z
M 1403 2484 
Q 997 2584 770 2862 
Q 544 3141 544 3541 
Q 544 4100 942 4425 
Q 1341 4750 2034 4750 
Q 2731 4750 3128 4425 
Q 3525 4100 3525 3541 
Q 3525 3141 3298 2862 
Q 3072 2584 2669 2484 
Q 3125 2378 3379 2068 
Q 3634 1759 3634 1313 
Q 3634 634 3220 271 
Q 2806 -91 2034 -91 
Q 1263 -91 848 271 
Q 434 634 434 1313 
Q 434 1759 690 2068 
Q 947 2378 1403 2484 
z
M 1172 3481 
Q 1172 3119 1398 2916 
Q 1625 2713 2034 2713 
Q 2441 2713 2670 2916 
Q 2900 3119 2900 3481 
Q 2900 3844 2670 4047 
Q 2441 4250 2034 4250 
Q 1625 4250 1398 4047 
Q 1172 3844 1172 3481 
z
" transform="scale(0.015625)"/>
       </defs>
       <use xlink:href="#DejaVuSans-38"/>
      </g>
     </g>
    </g>
    <g id="xtick_6">
     <g id="line2d_6">
      <g>
       <use xlink:href="#m836ceb09de" x="377.317344" y="320.4" style="stroke: #000000; stroke-width: 0.8"/>
      </g>
     </g>
     <g id="text_6">
      <!-- 10 -->
      <g transform="translate(369.682344 336.518125) scale(0.12 -0.12)">
       <defs>
        <path id="DejaVuSans-31" d="M 794 531 
L 1825 531 
L 1825 4091 
L 703 3866 
L 703 4441 
L 1819 4666 
L 2450 4666 
L 2450 531 
L 3481 531 
L 3481 0 
L 794 0 
L 794 531 
z
" transform="scale(0.015625)"/>
       </defs>
       <use xlink:href="#DejaVuSans-31"/>
       <use xlink:href="#DejaVuSans-30" x="63.623047"/>
      </g>
     </g>
    </g>
    <g id="text_7">
     <!-- Time [hr] -->
     <g transform="translate(175.473594 354.411406) scale(0.15 -0.15)">
      <defs>
       <path id="DejaVuSans-Bold-54" d="M 31 4666 
L 4331 4666 
L 4331 3756 
L 2784 3756 
L 2784 0 
L 1581 0 
L 1581 3756 
L 31 3756 
L 31 4666 
z
" transform="scale(0.015625)"/>
       <path id="DejaVuSans-Bold-69" d="M 538 3500 
L 1656 3500 
L 1656 0 
L 538 0 
L 538 3500 
z
M 538 4863 
L 1656 4863 
L 1656 3950 
L 538 3950 
L 538 4863 
z
" transform="scale(0.015625)"/>
       <path id="DejaVuSans-Bold-6d" d="M 3781 2919 
Q 3994 3244 4286 3414 
Q 4578 3584 4928 3584 
Q 5531 3584 5847 3212 
Q 6163 2841 6163 2131 
L 6163 0 
L 5038 0 
L 5038 1825 
Q 5041 1866 5042 1909 
Q 5044 1953 5044 2034 
Q 5044 2406 4934 2573 
Q 4825 2741 4581 2741 
Q 4263 2741 4089 2478 
Q 3916 2216 3909 1719 
L 3909 0 
L 2784 0 
L 2784 1825 
Q 2784 2406 2684 2573 
Q 2584 2741 2328 2741 
Q 2006 2741 1831 2477 
Q 1656 2213 1656 1722 
L 1656 0 
L 531 0 
L 531 3500 
L 1656 3500 
L 1656 2988 
Q 1863 3284 2130 3434 
Q 2397 3584 2719 3584 
Q 3081 3584 3359 3409 
Q 3638 3234 3781 2919 
z
" transform="scale(0.015625)"/>
       <path id="DejaVuSans-Bold-65" d="M 4031 1759 
L 4031 1441 
L 1416 1441 
Q 1456 1047 1700 850 
Q 1944 653 2381 653 
Q 2734 653 3104 758 
Q 3475 863 3866 1075 
L 3866 213 
Q 3469 63 3072 -14 
Q 2675 -91 2278 -91 
Q 1328 -91 801 392 
Q 275 875 275 1747 
Q 275 2603 792 3093 
Q 1309 3584 2216 3584 
Q 3041 3584 3536 3087 
Q 4031 2591 4031 1759 
z
M 2881 2131 
Q 2881 2450 2695 2645 
Q 2509 2841 2209 2841 
Q 1884 2841 1681 2658 
Q 1478 2475 1428 2131 
L 2881 2131 
z
" transform="scale(0.015625)"/>
       <path id="DejaVuSans-Bold-20" transform="scale(0.015625)"/>
       <path id="DejaVuSans-Bold-5b" d="M 550 4863 
L 2491 4863 
L 2491 4159 
L 1613 4159 
L 1613 -141 
L 2491 -141 
L 2491 -844 
L 550 -844 
L 550 4863 
z
" transform="scale(0.015625)"/>
       <path id="DejaVuSans-Bold-68" d="M 4056 2131 
L 4056 0 
L 2931 0 
L 2931 347 
L 2931 1625 
Q 2931 2084 2911 2256 
Q 2891 2428 2841 2509 
Q 2775 2619 2662 2680 
Q 2550 2741 2406 2741 
Q 2056 2741 1856 2470 
Q 1656 2200 1656 1722 
L 1656 0 
L 538 0 
L 538 4863 
L 1656 4863 
L 1656 2988 
Q 1909 3294 2193 3439 
Q 2478 3584 2822 3584 
Q 3428 3584 3742 3212 
Q 4056 2841 4056 2131 
z
" transform="scale(0.015625)"/>
       <path id="DejaVuSans-Bold-72" d="M 3138 2547 
Q 2991 2616 2845 2648 
Q 2700 2681 2553 2681 
Q 2122 2681 1889 2404 
Q 1656 2128 1656 1613 
L 1656 0 
L 538 0 
L 538 3500 
L 1656 3500 
L 1656 2925 
Q 1872 3269 2151 3426 
Q 2431 3584 2822 3584 
Q 2878 3584 2943 3579 
Q 3009 3575 3134 3559 
L 3138 2547 
z
" transform="scale(0.015625)"/>
       <path id="DejaVuSans-Bold-5d" d="M 2375 -844 
L 434 -844 
L 434 -141 
L 1313 -141 
L 1313 4159 
L 434 4159 
L 434 4863 
L 2375 4863 
L 2375 -844 
z
" transform="scale(0.015625)"/>
      </defs>
      <use xlink:href="#DejaVuSans-Bold-54"/>
      <use xlink:href="#DejaVuSans-Bold-69" x="68.212891"/>
      <use xlink:href="#DejaVuSans-Bold-6d" x="102.490234"/>
      <use xlink:href="#DejaVuSans-Bold-65" x="206.689453"/>
      <use xlink:href="#DejaVuSans-Bold-20" x="274.511719"/>
      <use xlink:href="#DejaVuSans-Bold-5b" x="309.326172"/>
      <use xlink:href="#DejaVuSans-Bold-68" x="355.029297"/>
      <use xlink:href="#DejaVuSans-Bold-72" x="426.220703"/>
      <use xlink:href="#DejaVuSans-Bold-5d" x="475.537109"/>
     </g>
    </g>
   </g>
   <g id="matplotlib.axis_2">
    <g id="ytick_1">
     <g id="line2d_7">
      <defs>
       <path id="m785c5f0202" d="M 0 0 
L -3.5 0 
" style="stroke: #000000; stroke-width: 0.8"/>
      </defs>
      <g>
       <use xlink:href="#m785c5f0202" x="51.817344" y="307.8" style="stroke: #000000; stroke-width: 0.8"/>
      </g>
     </g>
     <g id="text_8">
      <!-- 0.0 -->
      <g transform="translate(25.733594 312.359062) scale(0.12 -0.12)">
       <defs>
        <path id="DejaVuSans-2e" d="M 684 794 
L 1344 794 
L 1344 0 
L 684 0 
L 684 794 
z
" transform="scale(0.015625)"/>
       </defs>
       <use xlink:href="#DejaVuSans-30"/>
       <use xlink:href="#DejaVuSans-2e" x="63.623047"/>
       <use xlink:href="#DejaVuSans-30" x="95.410156"/>
      </g>
     </g>
    </g>
    <g id="ytick_2">
     <g id="line2d_8">
      <g>
       <use xlink:href="#m785c5f0202" x="51.817344" y="248.109867" style="stroke: #000000; stroke-width: 0.8"/>
      </g>
     </g>
     <g id="text_9">
      <!-- 0.2 -->
      <g transform="translate(25.733594 252.66893) scale(0.12 -0.12)">
       <use xlink:href="#DejaVuSans-30"/>
       <use xlink:href="#DejaVuSans-2e" x="63.623047"/>
       <use xlink:href="#DejaVuSans-32" x="95.410156"/>
      </g>
     </g>
    </g>
    <g id="ytick_3">
     <g id="line2d_9">
      <g>
       <use xlink:href="#m785c5f0202" x="51.817344" y="188.419735" style="stroke: #000000; stroke-width: 0.8"/>
      </g>
     </g>
     <g id="text_10">
      <!-- 0.4 -->
      <g transform="translate(25.733594 192.978797) scale(0.12 -0.12)">
       <use xlink:href="#DejaVuSans-30"/>
       <use xlink:href="#DejaVuSans-2e" x="63.623047"/>
       <use xlink:href="#DejaVuSans-34" x="95.410156"/>
      </g>
     </g>
    </g>
    <g id="ytick_4">
     <g id="line2d_10">
      <g>
       <use xlink:href="#m785c5f0202" x="51.817344" y="128.729602" style="stroke: #000000; stroke-width: 0.8"/>
      </g>
     </g>
     <g id="text_11">
      <!-- 0.6 -->
      <g transform="translate(25.733594 133.288665) scale(0.12 -0.12)">
       <use xlink:href="#DejaVuSans-30"/>
       <use xlink:href="#DejaVuSans-2e" x="63.623047"/>
       <use xlink:href="#DejaVuSans-36" x="95.410156"/>
      </g>
     </g>
    </g>
    <g id="ytick_5">
     <g id="line2d_11">
      <g>
       <use xlink:href="#m785c5f0202" x="51.817344" y="69.03947" style="stroke: #000000; stroke-width: 0.8"/>
      </g>
     </g>
     <g id="text_12">
      <!-- 0.8 -->
      <g transform="translate(25.733594 73.598532) scale(0.12 -0.12)">
       <use xlink:href="#DejaVuSans-30"/>
       <use xlink:href="#DejaVuSans-2e" x="63.623047"/>
       <use xlink:href="#DejaVuSans-38" x="95.410156"/>
      </g>
     </g>
    </g>
    <g id="text_13">
     <!-- M1 Plasma [µM] -->
     <g transform="translate(18.597656 250.011328) rotate(-90) scale(0.15 -0.15)">
      <defs>
       <path id="DejaVuSans-Bold-4d" d="M 588 4666 
L 2119 4666 
L 3181 2169 
L 4250 4666 
L 5778 4666 
L 5778 0 
L 4641 0 
L 4641 3413 
L 3566 897 
L 2803 897 
L 1728 3413 
L 1728 0 
L 588 0 
L 588 4666 
z
" transform="scale(0.015625)"/>
       <path id="DejaVuSans-Bold-31" d="M 750 831 
L 1813 831 
L 1813 3847 
L 722 3622 
L 722 4441 
L 1806 4666 
L 2950 4666 
L 2950 831 
L 4013 831 
L 4013 0 
L 750 0 
L 750 831 
z
" transform="scale(0.015625)"/>
       <path id="DejaVuSans-Bold-50" d="M 588 4666 
L 2584 4666 
Q 3475 4666 3951 4270 
Q 4428 3875 4428 3144 
Q 4428 2409 3951 2014 
Q 3475 1619 2584 1619 
L 1791 1619 
L 1791 0 
L 588 0 
L 588 4666 
z
M 1791 3794 
L 1791 2491 
L 2456 2491 
Q 2806 2491 2997 2661 
Q 3188 2831 3188 3144 
Q 3188 3456 2997 3625 
Q 2806 3794 2456 3794 
L 1791 3794 
z
" transform="scale(0.015625)"/>
       <path id="DejaVuSans-Bold-6c" d="M 538 4863 
L 1656 4863 
L 1656 0 
L 538 0 
L 538 4863 
z
" transform="scale(0.015625)"/>
       <path id="DejaVuSans-Bold-61" d="M 2106 1575 
Q 1756 1575 1579 1456 
Q 1403 1338 1403 1106 
Q 1403 894 1545 773 
Q 1688 653 1941 653 
Q 2256 653 2472 879 
Q 2688 1106 2688 1447 
L 2688 1575 
L 2106 1575 
z
M 3816 1997 
L 3816 0 
L 2688 0 
L 2688 519 
Q 2463 200 2181 54 
Q 1900 -91 1497 -91 
Q 953 -91 614 226 
Q 275 544 275 1050 
Q 275 1666 698 1953 
Q 1122 2241 2028 2241 
L 2688 2241 
L 2688 2328 
Q 2688 2594 2478 2717 
Q 2269 2841 1825 2841 
Q 1466 2841 1156 2769 
Q 847 2697 581 2553 
L 581 3406 
Q 941 3494 1303 3539 
Q 1666 3584 2028 3584 
Q 2975 3584 3395 3211 
Q 3816 2838 3816 1997 
z
" transform="scale(0.015625)"/>
       <path id="DejaVuSans-Bold-73" d="M 3272 3391 
L 3272 2541 
Q 2913 2691 2578 2766 
Q 2244 2841 1947 2841 
Q 1628 2841 1473 2761 
Q 1319 2681 1319 2516 
Q 1319 2381 1436 2309 
Q 1553 2238 1856 2203 
L 2053 2175 
Q 2913 2066 3209 1816 
Q 3506 1566 3506 1031 
Q 3506 472 3093 190 
Q 2681 -91 1863 -91 
Q 1516 -91 1145 -36 
Q 775 19 384 128 
L 384 978 
Q 719 816 1070 734 
Q 1422 653 1784 653 
Q 2113 653 2278 743 
Q 2444 834 2444 1013 
Q 2444 1163 2330 1236 
Q 2216 1309 1875 1350 
L 1678 1375 
Q 931 1469 631 1722 
Q 331 1975 331 2491 
Q 331 3047 712 3315 
Q 1094 3584 1881 3584 
Q 2191 3584 2531 3537 
Q 2872 3491 3272 3391 
z
" transform="scale(0.015625)"/>
       <path id="DejaVuSans-Bold-b5" d="M 544 -1338 
L 544 3500 
L 1672 3500 
L 1672 1466 
Q 1672 1103 1828 926 
Q 1984 750 2303 750 
Q 2625 750 2781 926 
Q 2938 1103 2938 1466 
L 2938 3500 
L 4063 3500 
L 4063 1159 
Q 4063 938 4114 850 
Q 4166 763 4288 763 
Q 4344 763 4395 778 
Q 4447 794 4506 831 
L 4506 50 
Q 4341 -22 4195 -56 
Q 4050 -91 3909 -91 
Q 3631 -91 3454 26 
Q 3278 144 3169 403 
Q 3022 156 2811 32 
Q 2600 -91 2322 -91 
Q 2091 -91 1928 -17 
Q 1766 56 1672 206 
L 1672 -1338 
L 544 -1338 
z
" transform="scale(0.015625)"/>
      </defs>
      <use xlink:href="#DejaVuSans-Bold-4d"/>
      <use xlink:href="#DejaVuSans-Bold-31" x="99.511719"/>
      <use xlink:href="#DejaVuSans-Bold-20" x="169.091797"/>
      <use xlink:href="#DejaVuSans-Bold-50" x="203.90625"/>
      <use xlink:href="#DejaVuSans-Bold-6c" x="277.197266"/>
      <use xlink:href="#DejaVuSans-Bold-61" x="311.474609"/>
      <use xlink:href="#DejaVuSans-Bold-73" x="378.955078"/>
      <use xlink:href="#DejaVuSans-Bold-6d" x="438.476562"/>
      <use xlink:href="#DejaVuSans-Bold-61" x="542.675781"/>
      <use xlink:href="#DejaVuSans-Bold-20" x="610.15625"/>
      <use xlink:href="#DejaVuSans-Bold-5b" x="644.970703"/>
      <use xlink:href="#DejaVuSans-Bold-b5" x="690.673828"/>
      <use xlink:href="#DejaVuSans-Bold-4d" x="764.257812"/>
      <use xlink:href="#DejaVuSans-Bold-5d" x="863.769531"/>
     </g>
    </g>
   </g>
   <g id="LineCollection_1">
    <path d="M 67.317344 112.448012 
L 67.317344 55.8 
" clip-path="url(#p1d301189e8)" style="fill: none; stroke: #1f77b4"/>
    <path d="M 70.417344 156.070987 
L 70.417344 107.399411 
" clip-path="url(#p1d301189e8)" style="fill: none; stroke: #1f77b4"/>
    <path d="M 73.207344 182.333137 
L 73.207344 132.707216 
" clip-path="url(#p1d301189e8)" style="fill: none; stroke: #1f77b4"/>
    <path d="M 75.997344 207.040059 
L 75.997344 158.533432 
" clip-path="url(#p1d301189e8)" style="fill: none; stroke: #1f77b4"/>
    <path d="M 82.817344 229.991458 
L 82.817344 185.149043 
" clip-path="url(#p1d301189e8)" style="fill: none; stroke: #1f77b4"/>
    <path d="M 86.227344 245.372901 
L 86.227344 204.08866 
" clip-path="url(#p1d301189e8)" style="fill: none; stroke: #1f77b4"/>
    <path d="M 91.497344 257.726362 
L 91.497344 216.065096 
" clip-path="url(#p1d301189e8)" style="fill: none; stroke: #1f77b4"/>
    <path d="M 98.317344 268.041532 
L 98.317344 229.59676 
" clip-path="url(#p1d301189e8)" style="fill: none; stroke: #1f77b4"/>
    <path d="M 104.207344 271.758763 
L 104.207344 245.355228 
" clip-path="url(#p1d301189e8)" style="fill: none; stroke: #1f77b4"/>
    <path d="M 113.817344 278.904566 
L 113.817344 253.243299 
" clip-path="url(#p1d301189e8)" style="fill: none; stroke: #1f77b4"/>
    <path d="M 119.397344 284.49514 
L 119.397344 260.129897 
" clip-path="url(#p1d301189e8)" style="fill: none; stroke: #1f77b4"/>
    <path d="M 129.317344 289.791163 
L 129.317344 266.992931 
" clip-path="url(#p1d301189e8)" style="fill: none; stroke: #1f77b4"/>
    <path d="M 144.817344 294.663034 
L 144.817344 275.481885 
" clip-path="url(#p1d301189e8)" style="fill: none; stroke: #1f77b4"/>
    <path d="M 160.317344 297.349337 
L 160.317344 284.023859 
" clip-path="url(#p1d301189e8)" style="fill: none; stroke: #1f77b4"/>
    <path d="M 191.317344 299.705744 
L 191.317344 291.411193 
" clip-path="url(#p1d301189e8)" style="fill: none; stroke: #1f77b4"/>
    <path d="M 222.317344 300.754345 
L 222.317344 294.769072 
" clip-path="url(#p1d301189e8)" style="fill: none; stroke: #1f77b4"/>
    <path d="M 253.317344 301.137261 
L 253.317344 298.780854 
" clip-path="url(#p1d301189e8)" style="fill: none; stroke: #1f77b4"/>
   </g>
   <g id="line2d_12">
    <path d="M 67.317344 307.8 
L 67.36901 302.730509 
L 67.60151 235.362644 
L 67.83401 159.612657 
L 67.83401 159.612657 
L 69.35301 153.477142 
L 70.87201 166.846836 
L 72.39101 177.841037 
L 73.91001 187.051247 
L 75.42901 194.910079 
L 76.94801 201.734489 
L 78.46701 207.757238 
L 79.98601 213.149771 
L 81.50501 218.038849 
L 84.54301 226.659607 
L 87.58101 234.124348 
L 90.61901 240.724222 
L 93.65701 246.635302 
L 96.69501 251.970891 
L 99.73301 256.809352 
L 102.77101 261.208959 
L 105.80901 265.215897 
L 108.84701 268.868617 
L 111.88501 272.200256 
L 114.92301 275.240021 
L 117.96101 278.014022 
L 120.99901 280.545798 
L 124.03701 282.85668 
L 127.07501 284.966054 
L 131.63201 287.790463 
L 136.18901 290.253947 
L 140.74601 292.402776 
L 145.30301 294.27727 
L 149.86001 295.912579 
L 154.41701 297.339343 
L 160.49301 298.962965 
L 166.56901 300.316998 
L 172.64501 301.446468 
L 180.24001 302.59903 
L 187.83501 303.518619 
L 196.94901 304.380851 
L 207.58201 305.133302 
L 219.73401 305.749788 
L 234.92401 306.269591 
L 253.15201 306.658486 
L 278.97501 306.962776 
L 318.46901 307.173543 
L 377.71001 307.301691 
L 377.71001 307.301691 
" clip-path="url(#p1d301189e8)" style="fill: none; stroke: #1f77b4; stroke-width: 2; stroke-linecap: square"/>
   </g>
   <g id="line2d_13">
    <path d="M 67.317344 84.124006 
L 70.417344 131.735199 
L 73.207344 157.520177 
L 75.997344 182.786745 
L 82.817344 207.57025 
L 86.227344 224.730781 
L 91.497344 236.895729 
L 98.317344 248.819146 
L 104.207344 258.556996 
L 113.817344 266.073932 
L 119.397344 272.312518 
L 129.317344 278.392047 
L 144.817344 285.072459 
L 160.317344 290.686598 
L 191.317344 295.558468 
L 222.317344 297.761708 
L 253.317344 299.959057 
" clip-path="url(#p1d301189e8)" style="fill: none; stroke-dasharray: 3.7,1.6; stroke-dashoffset: 0; stroke: #1f77b4"/>
    <defs>
     <path id="m71c41eda61" d="M -3 3 
L 3 3 
L 3 -3 
L -3 -3 
z
" style="stroke: #000000; stroke-linejoin: miter"/>
    </defs>
    <g clip-path="url(#p1d301189e8)">
     <use xlink:href="#m71c41eda61" x="67.317344" y="84.124006" style="fill: #1f77b4; stroke: #000000; stroke-linejoin: miter"/>
     <use xlink:href="#m71c41eda61" x="70.417344" y="131.735199" style="fill: #1f77b4; stroke: #000000; stroke-linejoin: miter"/>
     <use xlink:href="#m71c41eda61" x="73.207344" y="157.520177" style="fill: #1f77b4; stroke: #000000; stroke-linejoin: miter"/>
     <use xlink:href="#m71c41eda61" x="75.997344" y="182.786745" style="fill: #1f77b4; stroke: #000000; stroke-linejoin: miter"/>
     <use xlink:href="#m71c41eda61" x="82.817344" y="207.57025" style="fill: #1f77b4; stroke: #000000; stroke-linejoin: miter"/>
     <use xlink:href="#m71c41eda61" x="86.227344" y="224.730781" style="fill: #1f77b4; stroke: #000000; stroke-linejoin: miter"/>
     <use xlink:href="#m71c41eda61" x="91.497344" y="236.895729" style="fill: #1f77b4; stroke: #000000; stroke-linejoin: miter"/>
     <use xlink:href="#m71c41eda61" x="98.317344" y="248.819146" style="fill: #1f77b4; stroke: #000000; stroke-linejoin: miter"/>
     <use xlink:href="#m71c41eda61" x="104.207344" y="258.556996" style="fill: #1f77b4; stroke: #000000; stroke-linejoin: miter"/>
     <use xlink:href="#m71c41eda61" x="113.817344" y="266.073932" style="fill: #1f77b4; stroke: #000000; stroke-linejoin: miter"/>
     <use xlink:href="#m71c41eda61" x="119.397344" y="272.312518" style="fill: #1f77b4; stroke: #000000; stroke-linejoin: miter"/>
     <use xlink:href="#m71c41eda61" x="129.317344" y="278.392047" style="fill: #1f77b4; stroke: #000000; stroke-linejoin: miter"/>
     <use xlink:href="#m71c41eda61" x="144.817344" y="285.072459" style="fill: #1f77b4; stroke: #000000; stroke-linejoin: miter"/>
     <use xlink:href="#m71c41eda61" x="160.317344" y="290.686598" style="fill: #1f77b4; stroke: #000000; stroke-linejoin: miter"/>
     <use xlink:href="#m71c41eda61" x="191.317344" y="295.558468" style="fill: #1f77b4; stroke: #000000; stroke-linejoin: miter"/>
     <use xlink:href="#m71c41eda61" x="222.317344" y="297.761708" style="fill: #1f77b4; stroke: #000000; stroke-linejoin: miter"/>
     <use xlink:href="#m71c41eda61" x="253.317344" y="299.959057" style="fill: #1f77b4; stroke: #000000; stroke-linejoin: miter"/>
    </g>
   </g>
   <g id="patch_3">
    <path d="M 51.817344 320.4 
L 51.817344 43.2 
" style="fill: none; stroke: #000000; stroke-width: 0.8; stroke-linejoin: miter; stroke-linecap: square"/>
   </g>
   <g id="patch_4">
    <path d="M 377.317344 320.4 
L 377.317344 43.2 
" style="fill: none; stroke: #000000; stroke-width: 0.8; stroke-linejoin: miter; stroke-linecap: square"/>
   </g>
   <g id="patch_5">
    <path d="M 51.817344 320.4 
L 377.317344 320.4 
" style="fill: none; stroke: #000000; stroke-width: 0.8; stroke-linejoin: miter; stroke-linecap: square"/>
   </g>
   <g id="patch_6">
    <path d="M 51.817344 43.2 
L 377.317344 43.2 
" style="fill: none; stroke: #000000; stroke-width: 0.8; stroke-linejoin: miter; stroke-linecap: square"/>
   </g>
   <g id="legend_1">
    <g id="patch_7">
     <path d="M 151.518594 76.820625 
L 371.017344 76.820625 
Q 372.817344 76.820625 372.817344 75.020625 
L 372.817344 49.5 
Q 372.817344 47.7 371.017344 47.7 
L 151.518594 47.7 
Q 149.718594 47.7 149.718594 49.5 
L 149.718594 75.020625 
Q 149.718594 76.820625 151.518594 76.820625 
z
" style="fill: #ffffff; opacity: 0.8; stroke: #cccccc; stroke-linejoin: miter"/>
    </g>
    <g id="line2d_14">
     <path d="M 153.318594 54.988594 
L 171.318594 54.988594 
" style="fill: none; stroke: #1f77b4; stroke-width: 2; stroke-linecap: square"/>
    </g>
    <g id="line2d_15"/>
    <g id="text_14">
     <!-- Sim 1.5mg M1 IV -->
     <g transform="translate(178.518594 58.138594) scale(0.09 -0.09)">
      <defs>
       <path id="DejaVuSans-53" d="M 3425 4513 
L 3425 3897 
Q 3066 4069 2747 4153 
Q 2428 4238 2131 4238 
Q 1616 4238 1336 4038 
Q 1056 3838 1056 3469 
Q 1056 3159 1242 3001 
Q 1428 2844 1947 2747 
L 2328 2669 
Q 3034 2534 3370 2195 
Q 3706 1856 3706 1288 
Q 3706 609 3251 259 
Q 2797 -91 1919 -91 
Q 1588 -91 1214 -16 
Q 841 59 441 206 
L 441 856 
Q 825 641 1194 531 
Q 1563 422 1919 422 
Q 2459 422 2753 634 
Q 3047 847 3047 1241 
Q 3047 1584 2836 1778 
Q 2625 1972 2144 2069 
L 1759 2144 
Q 1053 2284 737 2584 
Q 422 2884 422 3419 
Q 422 4038 858 4394 
Q 1294 4750 2059 4750 
Q 2388 4750 2728 4690 
Q 3069 4631 3425 4513 
z
" transform="scale(0.015625)"/>
       <path id="DejaVuSans-69" d="M 603 3500 
L 1178 3500 
L 1178 0 
L 603 0 
L 603 3500 
z
M 603 4863 
L 1178 4863 
L 1178 4134 
L 603 4134 
L 603 4863 
z
" transform="scale(0.015625)"/>
       <path id="DejaVuSans-6d" d="M 3328 2828 
Q 3544 3216 3844 3400 
Q 4144 3584 4550 3584 
Q 5097 3584 5394 3201 
Q 5691 2819 5691 2113 
L 5691 0 
L 5113 0 
L 5113 2094 
Q 5113 2597 4934 2840 
Q 4756 3084 4391 3084 
Q 3944 3084 3684 2787 
Q 3425 2491 3425 1978 
L 3425 0 
L 2847 0 
L 2847 2094 
Q 2847 2600 2669 2842 
Q 2491 3084 2119 3084 
Q 1678 3084 1418 2786 
Q 1159 2488 1159 1978 
L 1159 0 
L 581 0 
L 581 3500 
L 1159 3500 
L 1159 2956 
Q 1356 3278 1631 3431 
Q 1906 3584 2284 3584 
Q 2666 3584 2933 3390 
Q 3200 3197 3328 2828 
z
" transform="scale(0.015625)"/>
       <path id="DejaVuSans-20" transform="scale(0.015625)"/>
       <path id="DejaVuSans-35" d="M 691 4666 
L 3169 4666 
L 3169 4134 
L 1269 4134 
L 1269 2991 
Q 1406 3038 1543 3061 
Q 1681 3084 1819 3084 
Q 2600 3084 3056 2656 
Q 3513 2228 3513 1497 
Q 3513 744 3044 326 
Q 2575 -91 1722 -91 
Q 1428 -91 1123 -41 
Q 819 9 494 109 
L 494 744 
Q 775 591 1075 516 
Q 1375 441 1709 441 
Q 2250 441 2565 725 
Q 2881 1009 2881 1497 
Q 2881 1984 2565 2268 
Q 2250 2553 1709 2553 
Q 1456 2553 1204 2497 
Q 953 2441 691 2322 
L 691 4666 
z
" transform="scale(0.015625)"/>
       <path id="DejaVuSans-67" d="M 2906 1791 
Q 2906 2416 2648 2759 
Q 2391 3103 1925 3103 
Q 1463 3103 1205 2759 
Q 947 2416 947 1791 
Q 947 1169 1205 825 
Q 1463 481 1925 481 
Q 2391 481 2648 825 
Q 2906 1169 2906 1791 
z
M 3481 434 
Q 3481 -459 3084 -895 
Q 2688 -1331 1869 -1331 
Q 1566 -1331 1297 -1286 
Q 1028 -1241 775 -1147 
L 775 -588 
Q 1028 -725 1275 -790 
Q 1522 -856 1778 -856 
Q 2344 -856 2625 -561 
Q 2906 -266 2906 331 
L 2906 616 
Q 2728 306 2450 153 
Q 2172 0 1784 0 
Q 1141 0 747 490 
Q 353 981 353 1791 
Q 353 2603 747 3093 
Q 1141 3584 1784 3584 
Q 2172 3584 2450 3431 
Q 2728 3278 2906 2969 
L 2906 3500 
L 3481 3500 
L 3481 434 
z
" transform="scale(0.015625)"/>
       <path id="DejaVuSans-4d" d="M 628 4666 
L 1569 4666 
L 2759 1491 
L 3956 4666 
L 4897 4666 
L 4897 0 
L 4281 0 
L 4281 4097 
L 3078 897 
L 2444 897 
L 1241 4097 
L 1241 0 
L 628 0 
L 628 4666 
z
" transform="scale(0.015625)"/>
       <path id="DejaVuSans-49" d="M 628 4666 
L 1259 4666 
L 1259 0 
L 628 0 
L 628 4666 
z
" transform="scale(0.015625)"/>
       <path id="DejaVuSans-56" d="M 1831 0 
L 50 4666 
L 709 4666 
L 2188 738 
L 3669 4666 
L 4325 4666 
L 2547 0 
L 1831 0 
z
" transform="scale(0.015625)"/>
      </defs>
      <use xlink:href="#DejaVuSans-53"/>
      <use xlink:href="#DejaVuSans-69" x="63.476562"/>
      <use xlink:href="#DejaVuSans-6d" x="91.259766"/>
      <use xlink:href="#DejaVuSans-20" x="188.671875"/>
      <use xlink:href="#DejaVuSans-31" x="220.458984"/>
      <use xlink:href="#DejaVuSans-2e" x="284.082031"/>
      <use xlink:href="#DejaVuSans-35" x="315.869141"/>
      <use xlink:href="#DejaVuSans-6d" x="379.492188"/>
      <use xlink:href="#DejaVuSans-67" x="476.904297"/>
      <use xlink:href="#DejaVuSans-20" x="540.380859"/>
      <use xlink:href="#DejaVuSans-4d" x="572.167969"/>
      <use xlink:href="#DejaVuSans-31" x="658.447266"/>
      <use xlink:href="#DejaVuSans-20" x="722.070312"/>
      <use xlink:href="#DejaVuSans-49" x="753.857422"/>
      <use xlink:href="#DejaVuSans-56" x="783.349609"/>
     </g>
    </g>
    <g id="LineCollection_2">
     <path d="M 162.318594 72.698906 
L 162.318594 63.698906 
" style="fill: none; stroke: #1f77b4"/>
    </g>
    <g id="line2d_16">
     <path d="M 153.318594 68.198906 
L 171.318594 68.198906 
" style="fill: none; stroke-dasharray: 3.7,1.6; stroke-dashoffset: 0; stroke: #1f77b4"/>
    </g>
    <g id="line2d_17">
     <g>
      <use xlink:href="#m71c41eda61" x="162.318594" y="68.198906" style="fill: #1f77b4; stroke: #000000; stroke-linejoin: miter"/>
     </g>
    </g>
    <g id="text_15">
     <!-- Data 1.5mg M1 IV±SD (n=12)±SD (n=12) -->
     <g transform="translate(178.518594 71.348906) scale(0.09 -0.09)">
      <defs>
       <path id="DejaVuSans-44" d="M 1259 4147 
L 1259 519 
L 2022 519 
Q 2988 519 3436 956 
Q 3884 1394 3884 2338 
Q 3884 3275 3436 3711 
Q 2988 4147 2022 4147 
L 1259 4147 
z
M 628 4666 
L 1925 4666 
Q 3281 4666 3915 4102 
Q 4550 3538 4550 2338 
Q 4550 1131 3912 565 
Q 3275 0 1925 0 
L 628 0 
L 628 4666 
z
" transform="scale(0.015625)"/>
       <path id="DejaVuSans-61" d="M 2194 1759 
Q 1497 1759 1228 1600 
Q 959 1441 959 1056 
Q 959 750 1161 570 
Q 1363 391 1709 391 
Q 2188 391 2477 730 
Q 2766 1069 2766 1631 
L 2766 1759 
L 2194 1759 
z
M 3341 1997 
L 3341 0 
L 2766 0 
L 2766 531 
Q 2569 213 2275 61 
Q 1981 -91 1556 -91 
Q 1019 -91 701 211 
Q 384 513 384 1019 
Q 384 1609 779 1909 
Q 1175 2209 1959 2209 
L 2766 2209 
L 2766 2266 
Q 2766 2663 2505 2880 
Q 2244 3097 1772 3097 
Q 1472 3097 1187 3025 
Q 903 2953 641 2809 
L 641 3341 
Q 956 3463 1253 3523 
Q 1550 3584 1831 3584 
Q 2591 3584 2966 3190 
Q 3341 2797 3341 1997 
z
" transform="scale(0.015625)"/>
       <path id="DejaVuSans-74" d="M 1172 4494 
L 1172 3500 
L 2356 3500 
L 2356 3053 
L 1172 3053 
L 1172 1153 
Q 1172 725 1289 603 
Q 1406 481 1766 481 
L 2356 481 
L 2356 0 
L 1766 0 
Q 1100 0 847 248 
Q 594 497 594 1153 
L 594 3053 
L 172 3053 
L 172 3500 
L 594 3500 
L 594 4494 
L 1172 4494 
z
" transform="scale(0.015625)"/>
       <path id="DejaVuSans-b1" d="M 2944 4013 
L 2944 2803 
L 4684 2803 
L 4684 2272 
L 2944 2272 
L 2944 1063 
L 2419 1063 
L 2419 2272 
L 678 2272 
L 678 2803 
L 2419 2803 
L 2419 4013 
L 2944 4013 
z
M 678 531 
L 4684 531 
L 4684 0 
L 678 0 
L 678 531 
z
" transform="scale(0.015625)"/>
       <path id="DejaVuSans-28" d="M 1984 4856 
Q 1566 4138 1362 3434 
Q 1159 2731 1159 2009 
Q 1159 1288 1364 580 
Q 1569 -128 1984 -844 
L 1484 -844 
Q 1016 -109 783 600 
Q 550 1309 550 2009 
Q 550 2706 781 3412 
Q 1013 4119 1484 4856 
L 1984 4856 
z
" transform="scale(0.015625)"/>
       <path id="DejaVuSans-6e" d="M 3513 2113 
L 3513 0 
L 2938 0 
L 2938 2094 
Q 2938 2591 2744 2837 
Q 2550 3084 2163 3084 
Q 1697 3084 1428 2787 
Q 1159 2491 1159 1978 
L 1159 0 
L 581 0 
L 581 3500 
L 1159 3500 
L 1159 2956 
Q 1366 3272 1645 3428 
Q 1925 3584 2291 3584 
Q 2894 3584 3203 3211 
Q 3513 2838 3513 2113 
z
" transform="scale(0.015625)"/>
       <path id="DejaVuSans-3d" d="M 678 2906 
L 4684 2906 
L 4684 2381 
L 678 2381 
L 678 2906 
z
M 678 1631 
L 4684 1631 
L 4684 1100 
L 678 1100 
L 678 1631 
z
" transform="scale(0.015625)"/>
       <path id="DejaVuSans-29" d="M 513 4856 
L 1013 4856 
Q 1481 4119 1714 3412 
Q 1947 2706 1947 2009 
Q 1947 1309 1714 600 
Q 1481 -109 1013 -844 
L 513 -844 
Q 928 -128 1133 580 
Q 1338 1288 1338 2009 
Q 1338 2731 1133 3434 
Q 928 4138 513 4856 
z
" transform="scale(0.015625)"/>
      </defs>
      <use xlink:href="#DejaVuSans-44"/>
      <use xlink:href="#DejaVuSans-61" x="77.001953"/>
      <use xlink:href="#DejaVuSans-74" x="138.28125"/>
      <use xlink:href="#DejaVuSans-61" x="177.490234"/>
      <use xlink:href="#DejaVuSans-20" x="238.769531"/>
      <use xlink:href="#DejaVuSans-31" x="270.556641"/>
      <use xlink:href="#DejaVuSans-2e" x="334.179688"/>
      <use xlink:href="#DejaVuSans-35" x="365.966797"/>
      <use xlink:href="#DejaVuSans-6d" x="429.589844"/>
      <use xlink:href="#DejaVuSans-67" x="527.001953"/>
      <use xlink:href="#DejaVuSans-20" x="590.478516"/>
      <use xlink:href="#DejaVuSans-4d" x="622.265625"/>
      <use xlink:href="#DejaVuSans-31" x="708.544922"/>
      <use xlink:href="#DejaVuSans-20" x="772.167969"/>
      <use xlink:href="#DejaVuSans-49" x="803.955078"/>
      <use xlink:href="#DejaVuSans-56" x="833.447266"/>
      <use xlink:href="#DejaVuSans-b1" x="901.855469"/>
      <use xlink:href="#DejaVuSans-53" x="985.644531"/>
      <use xlink:href="#DejaVuSans-44" x="1049.121094"/>
      <use xlink:href="#DejaVuSans-20" x="1126.123047"/>
      <use xlink:href="#DejaVuSans-28" x="1157.910156"/>
      <use xlink:href="#DejaVuSans-6e" x="1196.923828"/>
      <use xlink:href="#DejaVuSans-3d" x="1260.302734"/>
      <use xlink:href="#DejaVuSans-31" x="1344.091797"/>
      <use xlink:href="#DejaVuSans-32" x="1407.714844"/>
      <use xlink:href="#DejaVuSans-29" x="1471.337891"/>
      <use xlink:href="#DejaVuSans-b1" x="1510.351562"/>
      <use xlink:href="#DejaVuSans-53" x="1594.140625"/>
      <use xlink:href="#DejaVuSans-44" x="1657.617188"/>
      <use xlink:href="#DejaVuSans-20" x="1734.619141"/>
      <use xlink:href="#DejaVuSans-28" x="1766.40625"/>
      <use xlink:href="#DejaVuSans-6e" x="1805.419922"/>
      <use xlink:href="#DejaVuSans-3d" x="1868.798828"/>
      <use xlink:href="#DejaVuSans-31" x="1952.587891"/>
      <use xlink:href="#DejaVuSans-32" x="2016.210938"/>
      <use xlink:href="#DejaVuSans-29" x="2079.833984"/>
     </g>
    </g>
   </g>
  </g>
  <g id="axes_2">
   <g id="patch_8">
    <path d="M 474.967344 320.4 
L 800.467344 320.4 
L 800.467344 43.2 
L 474.967344 43.2 
z
" style="fill: #ffffff"/>
   </g>
   <g id="matplotlib.axis_3">
    <g id="xtick_7">
     <g id="line2d_18">
      <g>
       <use xlink:href="#m836ceb09de" x="487.022899" y="320.4" style="stroke: #000000; stroke-width: 0.8"/>
      </g>
     </g>
     <g id="text_16">
      <!-- 0 -->
      <g transform="translate(483.205399 336.518125) scale(0.12 -0.12)">
       <use xlink:href="#DejaVuSans-30"/>
      </g>
     </g>
    </g>
    <g id="xtick_8">
     <g id="line2d_19">
      <g>
       <use xlink:href="#m836ceb09de" x="535.245122" y="320.4" style="stroke: #000000; stroke-width: 0.8"/>
      </g>
     </g>
     <g id="text_17">
      <!-- 2 -->
      <g transform="translate(531.427622 336.518125) scale(0.12 -0.12)">
       <use xlink:href="#DejaVuSans-32"/>
      </g>
     </g>
    </g>
    <g id="xtick_9">
     <g id="line2d_20">
      <g>
       <use xlink:href="#m836ceb09de" x="583.467344" y="320.4" style="stroke: #000000; stroke-width: 0.8"/>
      </g>
     </g>
     <g id="text_18">
      <!-- 4 -->
      <g transform="translate(579.649844 336.518125) scale(0.12 -0.12)">
       <use xlink:href="#DejaVuSans-34"/>
      </g>
     </g>
    </g>
    <g id="xtick_10">
     <g id="line2d_21">
      <g>
       <use xlink:href="#m836ceb09de" x="631.689566" y="320.4" style="stroke: #000000; stroke-width: 0.8"/>
      </g>
     </g>
     <g id="text_19">
      <!-- 6 -->
      <g transform="translate(627.872066 336.518125) scale(0.12 -0.12)">
       <use xlink:href="#DejaVuSans-36"/>
      </g>
     </g>
    </g>
    <g id="xtick_11">
     <g id="line2d_22">
      <g>
       <use xlink:href="#m836ceb09de" x="679.911788" y="320.4" style="stroke: #000000; stroke-width: 0.8"/>
      </g>
     </g>
     <g id="text_20">
      <!-- 8 -->
      <g transform="translate(676.094288 336.518125) scale(0.12 -0.12)">
       <use xlink:href="#DejaVuSans-38"/>
      </g>
     </g>
    </g>
    <g id="xtick_12">
     <g id="line2d_23">
      <g>
       <use xlink:href="#m836ceb09de" x="728.13401" y="320.4" style="stroke: #000000; stroke-width: 0.8"/>
      </g>
     </g>
     <g id="text_21">
      <!-- 10 -->
      <g transform="translate(720.49901 336.518125) scale(0.12 -0.12)">
       <use xlink:href="#DejaVuSans-31"/>
       <use xlink:href="#DejaVuSans-30" x="63.623047"/>
      </g>
     </g>
    </g>
    <g id="xtick_13">
     <g id="line2d_24">
      <g>
       <use xlink:href="#m836ceb09de" x="776.356233" y="320.4" style="stroke: #000000; stroke-width: 0.8"/>
      </g>
     </g>
     <g id="text_22">
      <!-- 12 -->
      <g transform="translate(768.721233 336.518125) scale(0.12 -0.12)">
       <use xlink:href="#DejaVuSans-31"/>
       <use xlink:href="#DejaVuSans-32" x="63.623047"/>
      </g>
     </g>
    </g>
    <g id="text_23">
     <!-- Time [hr] -->
     <g transform="translate(598.623594 354.411406) scale(0.15 -0.15)">
      <use xlink:href="#DejaVuSans-Bold-54"/>
      <use xlink:href="#DejaVuSans-Bold-69" x="68.212891"/>
      <use xlink:href="#DejaVuSans-Bold-6d" x="102.490234"/>
      <use xlink:href="#DejaVuSans-Bold-65" x="206.689453"/>
      <use xlink:href="#DejaVuSans-Bold-20" x="274.511719"/>
      <use xlink:href="#DejaVuSans-Bold-5b" x="309.326172"/>
      <use xlink:href="#DejaVuSans-Bold-68" x="355.029297"/>
      <use xlink:href="#DejaVuSans-Bold-72" x="426.220703"/>
      <use xlink:href="#DejaVuSans-Bold-5d" x="475.537109"/>
     </g>
    </g>
   </g>
   <g id="matplotlib.axis_4">
    <g id="ytick_6">
     <g id="line2d_25">
      <g>
       <use xlink:href="#m785c5f0202" x="474.967344" y="307.8" style="stroke: #000000; stroke-width: 0.8"/>
      </g>
     </g>
     <g id="text_24">
      <!-- 0.000 -->
      <g transform="translate(433.613594 312.359062) scale(0.12 -0.12)">
       <use xlink:href="#DejaVuSans-30"/>
       <use xlink:href="#DejaVuSans-2e" x="63.623047"/>
       <use xlink:href="#DejaVuSans-30" x="95.410156"/>
       <use xlink:href="#DejaVuSans-30" x="159.033203"/>
       <use xlink:href="#DejaVuSans-30" x="222.65625"/>
      </g>
     </g>
    </g>
    <g id="ytick_7">
     <g id="line2d_26">
      <g>
       <use xlink:href="#m785c5f0202" x="474.967344" y="274.707318" style="stroke: #000000; stroke-width: 0.8"/>
      </g>
     </g>
     <g id="text_25">
      <!-- 0.005 -->
      <g transform="translate(433.613594 279.26638) scale(0.12 -0.12)">
       <use xlink:href="#DejaVuSans-30"/>
       <use xlink:href="#DejaVuSans-2e" x="63.623047"/>
       <use xlink:href="#DejaVuSans-30" x="95.410156"/>
       <use xlink:href="#DejaVuSans-30" x="159.033203"/>
       <use xlink:href="#DejaVuSans-35" x="222.65625"/>
      </g>
     </g>
    </g>
    <g id="ytick_8">
     <g id="line2d_27">
      <g>
       <use xlink:href="#m785c5f0202" x="474.967344" y="241.614636" style="stroke: #000000; stroke-width: 0.8"/>
      </g>
     </g>
     <g id="text_26">
      <!-- 0.010 -->
      <g transform="translate(433.613594 246.173698) scale(0.12 -0.12)">
       <use xlink:href="#DejaVuSans-30"/>
       <use xlink:href="#DejaVuSans-2e" x="63.623047"/>
       <use xlink:href="#DejaVuSans-30" x="95.410156"/>
       <use xlink:href="#DejaVuSans-31" x="159.033203"/>
       <use xlink:href="#DejaVuSans-30" x="222.65625"/>
      </g>
     </g>
    </g>
    <g id="ytick_9">
     <g id="line2d_28">
      <g>
       <use xlink:href="#m785c5f0202" x="474.967344" y="208.521953" style="stroke: #000000; stroke-width: 0.8"/>
      </g>
     </g>
     <g id="text_27">
      <!-- 0.015 -->
      <g transform="translate(433.613594 213.081016) scale(0.12 -0.12)">
       <use xlink:href="#DejaVuSans-30"/>
       <use xlink:href="#DejaVuSans-2e" x="63.623047"/>
       <use xlink:href="#DejaVuSans-30" x="95.410156"/>
       <use xlink:href="#DejaVuSans-31" x="159.033203"/>
       <use xlink:href="#DejaVuSans-35" x="222.65625"/>
      </g>
     </g>
    </g>
    <g id="ytick_10">
     <g id="line2d_29">
      <g>
       <use xlink:href="#m785c5f0202" x="474.967344" y="175.429271" style="stroke: #000000; stroke-width: 0.8"/>
      </g>
     </g>
     <g id="text_28">
      <!-- 0.020 -->
      <g transform="translate(433.613594 179.988334) scale(0.12 -0.12)">
       <use xlink:href="#DejaVuSans-30"/>
       <use xlink:href="#DejaVuSans-2e" x="63.623047"/>
       <use xlink:href="#DejaVuSans-30" x="95.410156"/>
       <use xlink:href="#DejaVuSans-32" x="159.033203"/>
       <use xlink:href="#DejaVuSans-30" x="222.65625"/>
      </g>
     </g>
    </g>
    <g id="ytick_11">
     <g id="line2d_30">
      <g>
       <use xlink:href="#m785c5f0202" x="474.967344" y="142.336589" style="stroke: #000000; stroke-width: 0.8"/>
      </g>
     </g>
     <g id="text_29">
      <!-- 0.025 -->
      <g transform="translate(433.613594 146.895652) scale(0.12 -0.12)">
       <use xlink:href="#DejaVuSans-30"/>
       <use xlink:href="#DejaVuSans-2e" x="63.623047"/>
       <use xlink:href="#DejaVuSans-30" x="95.410156"/>
       <use xlink:href="#DejaVuSans-32" x="159.033203"/>
       <use xlink:href="#DejaVuSans-35" x="222.65625"/>
      </g>
     </g>
    </g>
    <g id="ytick_12">
     <g id="line2d_31">
      <g>
       <use xlink:href="#m785c5f0202" x="474.967344" y="109.243907" style="stroke: #000000; stroke-width: 0.8"/>
      </g>
     </g>
     <g id="text_30">
      <!-- 0.030 -->
      <g transform="translate(433.613594 113.802969) scale(0.12 -0.12)">
       <defs>
        <path id="DejaVuSans-33" d="M 2597 2516 
Q 3050 2419 3304 2112 
Q 3559 1806 3559 1356 
Q 3559 666 3084 287 
Q 2609 -91 1734 -91 
Q 1441 -91 1130 -33 
Q 819 25 488 141 
L 488 750 
Q 750 597 1062 519 
Q 1375 441 1716 441 
Q 2309 441 2620 675 
Q 2931 909 2931 1356 
Q 2931 1769 2642 2001 
Q 2353 2234 1838 2234 
L 1294 2234 
L 1294 2753 
L 1863 2753 
Q 2328 2753 2575 2939 
Q 2822 3125 2822 3475 
Q 2822 3834 2567 4026 
Q 2313 4219 1838 4219 
Q 1578 4219 1281 4162 
Q 984 4106 628 3988 
L 628 4550 
Q 988 4650 1302 4700 
Q 1616 4750 1894 4750 
Q 2613 4750 3031 4423 
Q 3450 4097 3450 3541 
Q 3450 3153 3228 2886 
Q 3006 2619 2597 2516 
z
" transform="scale(0.015625)"/>
       </defs>
       <use xlink:href="#DejaVuSans-30"/>
       <use xlink:href="#DejaVuSans-2e" x="63.623047"/>
       <use xlink:href="#DejaVuSans-30" x="95.410156"/>
       <use xlink:href="#DejaVuSans-33" x="159.033203"/>
       <use xlink:href="#DejaVuSans-30" x="222.65625"/>
      </g>
     </g>
    </g>
    <g id="ytick_13">
     <g id="line2d_32">
      <g>
       <use xlink:href="#m785c5f0202" x="474.967344" y="76.151225" style="stroke: #000000; stroke-width: 0.8"/>
      </g>
     </g>
     <g id="text_31">
      <!-- 0.035 -->
      <g transform="translate(433.613594 80.710287) scale(0.12 -0.12)">
       <use xlink:href="#DejaVuSans-30"/>
       <use xlink:href="#DejaVuSans-2e" x="63.623047"/>
       <use xlink:href="#DejaVuSans-30" x="95.410156"/>
       <use xlink:href="#DejaVuSans-33" x="159.033203"/>
       <use xlink:href="#DejaVuSans-35" x="222.65625"/>
      </g>
     </g>
    </g>
    <g id="text_32">
     <!-- M2 Plasma [µM] -->
     <g transform="translate(426.477656 250.011328) rotate(-90) scale(0.15 -0.15)">
      <defs>
       <path id="DejaVuSans-Bold-32" d="M 1844 884 
L 3897 884 
L 3897 0 
L 506 0 
L 506 884 
L 2209 2388 
Q 2438 2594 2547 2791 
Q 2656 2988 2656 3200 
Q 2656 3528 2436 3728 
Q 2216 3928 1850 3928 
Q 1569 3928 1234 3808 
Q 900 3688 519 3450 
L 519 4475 
Q 925 4609 1322 4679 
Q 1719 4750 2100 4750 
Q 2938 4750 3402 4381 
Q 3866 4013 3866 3353 
Q 3866 2972 3669 2642 
Q 3472 2313 2841 1759 
L 1844 884 
z
" transform="scale(0.015625)"/>
      </defs>
      <use xlink:href="#DejaVuSans-Bold-4d"/>
      <use xlink:href="#DejaVuSans-Bold-32" x="99.511719"/>
      <use xlink:href="#DejaVuSans-Bold-20" x="169.091797"/>
      <use xlink:href="#DejaVuSans-Bold-50" x="203.90625"/>
      <use xlink:href="#DejaVuSans-Bold-6c" x="277.197266"/>
      <use xlink:href="#DejaVuSans-Bold-61" x="311.474609"/>
      <use xlink:href="#DejaVuSans-Bold-73" x="378.955078"/>
      <use xlink:href="#DejaVuSans-Bold-6d" x="438.476562"/>
      <use xlink:href="#DejaVuSans-Bold-61" x="542.675781"/>
      <use xlink:href="#DejaVuSans-Bold-20" x="610.15625"/>
      <use xlink:href="#DejaVuSans-Bold-5b" x="644.970703"/>
      <use xlink:href="#DejaVuSans-Bold-b5" x="690.673828"/>
      <use xlink:href="#DejaVuSans-Bold-4d" x="764.257812"/>
      <use xlink:href="#DejaVuSans-Bold-5d" x="863.769531"/>
     </g>
    </g>
   </g>
   <g id="LineCollection_3">
    <path d="M 487.022899 250.844481 
L 487.022899 241.690915 
" clip-path="url(#pb1eaadbdd7)" style="fill: none; stroke: #ff7f0e"/>
    <path d="M 491.362899 235.715671 
L 491.362899 218.934134 
" clip-path="url(#pb1eaadbdd7)" style="fill: none; stroke: #ff7f0e"/>
    <path d="M 493.291788 222.493854 
L 493.291788 205.966583 
" clip-path="url(#pb1eaadbdd7)" style="fill: none; stroke: #ff7f0e"/>
    <path d="M 499.078455 229.86756 
L 499.078455 196.558752 
" clip-path="url(#pb1eaadbdd7)" style="fill: none; stroke: #ff7f0e"/>
    <path d="M 501.730677 205.712317 
L 501.730677 155.113441 
" clip-path="url(#pb1eaadbdd7)" style="fill: none; stroke: #ff7f0e"/>
    <path d="M 505.588455 194.27036 
L 505.588455 119.516242 
" clip-path="url(#pb1eaadbdd7)" style="fill: none; stroke: #ff7f0e"/>
    <path d="M 511.13401 184.608263 
L 511.13401 113.159599 
" clip-path="url(#pb1eaadbdd7)" style="fill: none; stroke: #ff7f0e"/>
    <path d="M 515.715122 166.936797 
L 515.715122 89.640021 
" clip-path="url(#pb1eaadbdd7)" style="fill: none; stroke: #ff7f0e"/>
    <path d="M 521.501788 165.284069 
L 521.501788 69.425897 
" clip-path="url(#pb1eaadbdd7)" style="fill: none; stroke: #ff7f0e"/>
    <path d="M 527.288455 157.528965 
L 527.288455 70.315827 
" clip-path="url(#pb1eaadbdd7)" style="fill: none; stroke: #ff7f0e"/>
    <path d="M 535.245122 162.360014 
L 535.245122 82.266315 
" clip-path="url(#pb1eaadbdd7)" style="fill: none; stroke: #ff7f0e"/>
    <path d="M 547.300677 183.845466 
L 547.300677 83.156245 
" clip-path="url(#pb1eaadbdd7)" style="fill: none; stroke: #ff7f0e"/>
    <path d="M 559.356233 194.143228 
L 559.356233 105.913026 
" clip-path="url(#pb1eaadbdd7)" style="fill: none; stroke: #ff7f0e"/>
    <path d="M 583.467344 207.365044 
L 583.467344 132.865191 
" clip-path="url(#pb1eaadbdd7)" style="fill: none; stroke: #ff7f0e"/>
    <path d="M 607.578455 226.053574 
L 607.578455 151.807987 
" clip-path="url(#pb1eaadbdd7)" style="fill: none; stroke: #ff7f0e"/>
    <path d="M 631.689566 217.154274 
L 631.689566 184.099732 
" clip-path="url(#pb1eaadbdd7)" style="fill: none; stroke: #ff7f0e"/>
   </g>
   <g id="line2d_33">
    <path d="M 487.022899 307.8 
L 487.424751 307.787252 
L 487.424751 307.787252 
L 488.606196 305.187767 
L 489.78764 297.175341 
L 490.969084 285.357763 
L 493.331973 255.795815 
L 498.057751 193.277696 
L 500.42064 165.553241 
L 502.783529 141.334484 
L 505.146418 120.715606 
L 507.509307 103.542436 
L 508.690751 96.167354 
L 509.872196 89.550253 
L 511.05364 83.652326 
L 512.235084 78.434647 
L 513.416529 73.85878 
L 514.597973 69.88718 
L 515.779418 66.483471 
L 516.960862 63.612614 
L 518.142307 61.241006 
L 519.323751 59.336536 
L 520.505196 57.868591 
L 521.68664 56.808054 
L 522.868084 56.127267 
L 524.049529 55.8 
L 525.230973 55.8014 
L 526.412418 56.10794 
L 527.593862 56.697368 
L 528.775307 57.548648 
L 529.956751 58.641911 
L 531.138196 59.958394 
L 532.31964 61.480395 
L 534.682529 65.075121 
L 537.045418 69.303708 
L 539.408307 74.057617 
L 541.771196 79.24077 
L 545.315529 87.637497 
L 550.041307 99.625226 
L 557.129973 118.408044 
L 565.400084 140.27216 
L 571.307307 155.272424 
L 576.033084 166.708249 
L 580.758862 177.558362 
L 585.48464 187.777715 
L 590.210418 197.344464 
L 593.754751 204.088176 
L 597.299084 210.465381 
L 600.843418 216.482577 
L 604.387751 222.148806 
L 607.932084 227.475042 
L 611.476418 232.473685 
L 615.020751 237.158144 
L 618.565084 241.542487 
L 622.109418 245.641162 
L 625.653751 249.468762 
L 629.198084 253.039841 
L 632.742418 256.368765 
L 637.468196 260.4549 
L 642.193973 264.167714 
L 646.919751 267.537919 
L 651.645529 270.594546 
L 656.371307 273.36485 
L 661.097084 275.874265 
L 665.822862 278.14641 
L 670.54864 280.203125 
L 676.455862 282.501567 
L 682.363084 284.530425 
L 688.270307 286.321662 
L 694.177529 287.903777 
L 701.266196 289.561732 
L 708.354862 290.993226 
L 716.624973 292.420927 
L 724.895084 293.629808 
L 734.34664 294.790946 
L 744.97964 295.870161 
L 756.794084 296.847593 
L 770.971418 297.786606 
L 787.51164 298.647288 
L 800.507529 299.195459 
L 800.507529 299.195459 
" clip-path="url(#pb1eaadbdd7)" style="fill: none; stroke: #ff7f0e; stroke-width: 2; stroke-linecap: square"/>
   </g>
   <g id="line2d_34">
    <path d="M 487.022899 246.267698 
L 491.362899 227.324903 
L 493.291788 214.230219 
L 499.078455 213.213156 
L 501.730677 180.412879 
L 505.588455 156.893301 
L 511.13401 148.883931 
L 515.715122 128.288409 
L 521.501788 117.354983 
L 527.288455 113.922396 
L 535.245122 122.313164 
L 547.300677 133.500856 
L 559.356233 150.028127 
L 583.467344 170.115118 
L 607.578455 188.930781 
L 631.689566 200.627003 
" clip-path="url(#pb1eaadbdd7)" style="fill: none; stroke-dasharray: 3.7,1.6; stroke-dashoffset: 0; stroke: #ff7f0e"/>
    <defs>
     <path id="mf766893dd4" d="M -3 3 
L 3 3 
L 3 -3 
L -3 -3 
z
" style="stroke: #000000; stroke-linejoin: miter"/>
    </defs>
    <g clip-path="url(#pb1eaadbdd7)">
     <use xlink:href="#mf766893dd4" x="487.022899" y="246.267698" style="fill: #ff7f0e; stroke: #000000; stroke-linejoin: miter"/>
     <use xlink:href="#mf766893dd4" x="491.362899" y="227.324903" style="fill: #ff7f0e; stroke: #000000; stroke-linejoin: miter"/>
     <use xlink:href="#mf766893dd4" x="493.291788" y="214.230219" style="fill: #ff7f0e; stroke: #000000; stroke-linejoin: miter"/>
     <use xlink:href="#mf766893dd4" x="499.078455" y="213.213156" style="fill: #ff7f0e; stroke: #000000; stroke-linejoin: miter"/>
     <use xlink:href="#mf766893dd4" x="501.730677" y="180.412879" style="fill: #ff7f0e; stroke: #000000; stroke-linejoin: miter"/>
     <use xlink:href="#mf766893dd4" x="505.588455" y="156.893301" style="fill: #ff7f0e; stroke: #000000; stroke-linejoin: miter"/>
     <use xlink:href="#mf766893dd4" x="511.13401" y="148.883931" style="fill: #ff7f0e; stroke: #000000; stroke-linejoin: miter"/>
     <use xlink:href="#mf766893dd4" x="515.715122" y="128.288409" style="fill: #ff7f0e; stroke: #000000; stroke-linejoin: miter"/>
     <use xlink:href="#mf766893dd4" x="521.501788" y="117.354983" style="fill: #ff7f0e; stroke: #000000; stroke-linejoin: miter"/>
     <use xlink:href="#mf766893dd4" x="527.288455" y="113.922396" style="fill: #ff7f0e; stroke: #000000; stroke-linejoin: miter"/>
     <use xlink:href="#mf766893dd4" x="535.245122" y="122.313164" style="fill: #ff7f0e; stroke: #000000; stroke-linejoin: miter"/>
     <use xlink:href="#mf766893dd4" x="547.300677" y="133.500856" style="fill: #ff7f0e; stroke: #000000; stroke-linejoin: miter"/>
     <use xlink:href="#mf766893dd4" x="559.356233" y="150.028127" style="fill: #ff7f0e; stroke: #000000; stroke-linejoin: miter"/>
     <use xlink:href="#mf766893dd4" x="583.467344" y="170.115118" style="fill: #ff7f0e; stroke: #000000; stroke-linejoin: miter"/>
     <use xlink:href="#mf766893dd4" x="607.578455" y="188.930781" style="fill: #ff7f0e; stroke: #000000; stroke-linejoin: miter"/>
     <use xlink:href="#mf766893dd4" x="631.689566" y="200.627003" style="fill: #ff7f0e; stroke: #000000; stroke-linejoin: miter"/>
    </g>
   </g>
   <g id="patch_9">
    <path d="M 474.967344 320.4 
L 474.967344 43.2 
" style="fill: none; stroke: #000000; stroke-width: 0.8; stroke-linejoin: miter; stroke-linecap: square"/>
   </g>
   <g id="patch_10">
    <path d="M 800.467344 320.4 
L 800.467344 43.2 
" style="fill: none; stroke: #000000; stroke-width: 0.8; stroke-linejoin: miter; stroke-linecap: square"/>
   </g>
   <g id="patch_11">
    <path d="M 474.967344 320.4 
L 800.467344 320.4 
" style="fill: none; stroke: #000000; stroke-width: 0.8; stroke-linejoin: miter; stroke-linecap: square"/>
   </g>
   <g id="patch_12">
    <path d="M 474.967344 43.2 
L 800.467344 43.2 
" style="fill: none; stroke: #000000; stroke-width: 0.8; stroke-linejoin: miter; stroke-linecap: square"/>
   </g>
   <g id="legend_2">
    <g id="patch_13">
     <path d="M 574.668594 76.820625 
L 794.167344 76.820625 
Q 795.967344 76.820625 795.967344 75.020625 
L 795.967344 49.5 
Q 795.967344 47.7 794.167344 47.7 
L 574.668594 47.7 
Q 572.868594 47.7 572.868594 49.5 
L 572.868594 75.020625 
Q 572.868594 76.820625 574.668594 76.820625 
z
" style="fill: #ffffff; opacity: 0.8; stroke: #cccccc; stroke-linejoin: miter"/>
    </g>
    <g id="line2d_35">
     <path d="M 576.468594 54.988594 
L 594.468594 54.988594 
" style="fill: none; stroke: #ff7f0e; stroke-width: 2; stroke-linecap: square"/>
    </g>
    <g id="line2d_36"/>
    <g id="text_33">
     <!-- Sim 1.5mg M1 IV -->
     <g transform="translate(601.668594 58.138594) scale(0.09 -0.09)">
      <use xlink:href="#DejaVuSans-53"/>
      <use xlink:href="#DejaVuSans-69" x="63.476562"/>
      <use xlink:href="#DejaVuSans-6d" x="91.259766"/>
      <use xlink:href="#DejaVuSans-20" x="188.671875"/>
      <use xlink:href="#DejaVuSans-31" x="220.458984"/>
      <use xlink:href="#DejaVuSans-2e" x="284.082031"/>
      <use xlink:href="#DejaVuSans-35" x="315.869141"/>
      <use xlink:href="#DejaVuSans-6d" x="379.492188"/>
      <use xlink:href="#DejaVuSans-67" x="476.904297"/>
      <use xlink:href="#DejaVuSans-20" x="540.380859"/>
      <use xlink:href="#DejaVuSans-4d" x="572.167969"/>
      <use xlink:href="#DejaVuSans-31" x="658.447266"/>
      <use xlink:href="#DejaVuSans-20" x="722.070312"/>
      <use xlink:href="#DejaVuSans-49" x="753.857422"/>
      <use xlink:href="#DejaVuSans-56" x="783.349609"/>
     </g>
    </g>
    <g id="LineCollection_4">
     <path d="M 585.468594 72.698906 
L 585.468594 63.698906 
" style="fill: none; stroke: #ff7f0e"/>
    </g>
    <g id="line2d_37">
     <path d="M 576.468594 68.198906 
L 594.468594 68.198906 
" style="fill: none; stroke-dasharray: 3.7,1.6; stroke-dashoffset: 0; stroke: #ff7f0e"/>
    </g>
    <g id="line2d_38">
     <g>
      <use xlink:href="#mf766893dd4" x="585.468594" y="68.198906" style="fill: #ff7f0e; stroke: #000000; stroke-linejoin: miter"/>
     </g>
    </g>
    <g id="text_34">
     <!-- Data 1.5mg M1 IV±SD (n=12)±SD (n=12) -->
     <g transform="translate(601.668594 71.348906) scale(0.09 -0.09)">
      <use xlink:href="#DejaVuSans-44"/>
      <use xlink:href="#DejaVuSans-61" x="77.001953"/>
      <use xlink:href="#DejaVuSans-74" x="138.28125"/>
      <use xlink:href="#DejaVuSans-61" x="177.490234"/>
      <use xlink:href="#DejaVuSans-20" x="238.769531"/>
      <use xlink:href="#DejaVuSans-31" x="270.556641"/>
      <use xlink:href="#DejaVuSans-2e" x="334.179688"/>
      <use xlink:href="#DejaVuSans-35" x="365.966797"/>
      <use xlink:href="#DejaVuSans-6d" x="429.589844"/>
      <use xlink:href="#DejaVuSans-67" x="527.001953"/>
      <use xlink:href="#DejaVuSans-20" x="590.478516"/>
      <use xlink:href="#DejaVuSans-4d" x="622.265625"/>
      <use xlink:href="#DejaVuSans-31" x="708.544922"/>
      <use xlink:href="#DejaVuSans-20" x="772.167969"/>
      <use xlink:href="#DejaVuSans-49" x="803.955078"/>
      <use xlink:href="#DejaVuSans-56" x="833.447266"/>
      <use xlink:href="#DejaVuSans-b1" x="901.855469"/>
      <use xlink:href="#DejaVuSans-53" x="985.644531"/>
      <use xlink:href="#DejaVuSans-44" x="1049.121094"/>
      <use xlink:href="#DejaVuSans-20" x="1126.123047"/>
      <use xlink:href="#DejaVuSans-28" x="1157.910156"/>
      <use xlink:href="#DejaVuSans-6e" x="1196.923828"/>
      <use xlink:href="#DejaVuSans-3d" x="1260.302734"/>
      <use xlink:href="#DejaVuSans-31" x="1344.091797"/>
      <use xlink:href="#DejaVuSans-32" x="1407.714844"/>
      <use xlink:href="#DejaVuSans-29" x="1471.337891"/>
      <use xlink:href="#DejaVuSans-b1" x="1510.351562"/>
      <use xlink:href="#DejaVuSans-53" x="1594.140625"/>
      <use xlink:href="#DejaVuSans-44" x="1657.617188"/>
      <use xlink:href="#DejaVuSans-20" x="1734.619141"/>
      <use xlink:href="#DejaVuSans-28" x="1766.40625"/>
      <use xlink:href="#DejaVuSans-6e" x="1805.419922"/>
      <use xlink:href="#DejaVuSans-3d" x="1868.798828"/>
      <use xlink:href="#DejaVuSans-31" x="1952.587891"/>
      <use xlink:href="#DejaVuSans-32" x="2016.210938"/>
      <use xlink:href="#DejaVuSans-29" x="2079.833984"/>
     </g>
    </g>
   </g>
  </g>
  <g id="axes_3">
   <g id="patch_14">
    <path d="M 898.117344 320.4 
L 1223.617344 320.4 
L 1223.617344 43.2 
L 898.117344 43.2 
z
" style="fill: #ffffff"/>
   </g>
   <g id="matplotlib.axis_5">
    <g id="xtick_14">
     <g id="line2d_39">
      <g>
       <use xlink:href="#m836ceb09de" x="901.249109" y="320.4" style="stroke: #000000; stroke-width: 0.8"/>
      </g>
     </g>
     <g id="text_35">
      <!-- 0 -->
      <g transform="translate(897.431609 336.518125) scale(0.12 -0.12)">
       <use xlink:href="#DejaVuSans-30"/>
      </g>
     </g>
    </g>
    <g id="xtick_15">
     <g id="line2d_40">
      <g>
       <use xlink:href="#m836ceb09de" x="963.88441" y="320.4" style="stroke: #000000; stroke-width: 0.8"/>
      </g>
     </g>
     <g id="text_36">
      <!-- 10 -->
      <g transform="translate(956.24941 336.518125) scale(0.12 -0.12)">
       <use xlink:href="#DejaVuSans-31"/>
       <use xlink:href="#DejaVuSans-30" x="63.623047"/>
      </g>
     </g>
    </g>
    <g id="xtick_16">
     <g id="line2d_41">
      <g>
       <use xlink:href="#m836ceb09de" x="1026.519711" y="320.4" style="stroke: #000000; stroke-width: 0.8"/>
      </g>
     </g>
     <g id="text_37">
      <!-- 20 -->
      <g transform="translate(1018.884711 336.518125) scale(0.12 -0.12)">
       <use xlink:href="#DejaVuSans-32"/>
       <use xlink:href="#DejaVuSans-30" x="63.623047"/>
      </g>
     </g>
    </g>
    <g id="xtick_17">
     <g id="line2d_42">
      <g>
       <use xlink:href="#m836ceb09de" x="1089.155012" y="320.4" style="stroke: #000000; stroke-width: 0.8"/>
      </g>
     </g>
     <g id="text_38">
      <!-- 30 -->
      <g transform="translate(1081.520012 336.518125) scale(0.12 -0.12)">
       <use xlink:href="#DejaVuSans-33"/>
       <use xlink:href="#DejaVuSans-30" x="63.623047"/>
      </g>
     </g>
    </g>
    <g id="xtick_18">
     <g id="line2d_43">
      <g>
       <use xlink:href="#m836ceb09de" x="1151.790312" y="320.4" style="stroke: #000000; stroke-width: 0.8"/>
      </g>
     </g>
     <g id="text_39">
      <!-- 40 -->
      <g transform="translate(1144.155312 336.518125) scale(0.12 -0.12)">
       <use xlink:href="#DejaVuSans-34"/>
       <use xlink:href="#DejaVuSans-30" x="63.623047"/>
      </g>
     </g>
    </g>
    <g id="xtick_19">
     <g id="line2d_44">
      <g>
       <use xlink:href="#m836ceb09de" x="1214.425613" y="320.4" style="stroke: #000000; stroke-width: 0.8"/>
      </g>
     </g>
     <g id="text_40">
      <!-- 50 -->
      <g transform="translate(1206.790613 336.518125) scale(0.12 -0.12)">
       <use xlink:href="#DejaVuSans-35"/>
       <use xlink:href="#DejaVuSans-30" x="63.623047"/>
      </g>
     </g>
    </g>
    <g id="text_41">
     <!-- Time [hr] -->
     <g transform="translate(1021.773594 354.411406) scale(0.15 -0.15)">
      <use xlink:href="#DejaVuSans-Bold-54"/>
      <use xlink:href="#DejaVuSans-Bold-69" x="68.212891"/>
      <use xlink:href="#DejaVuSans-Bold-6d" x="102.490234"/>
      <use xlink:href="#DejaVuSans-Bold-65" x="206.689453"/>
      <use xlink:href="#DejaVuSans-Bold-20" x="274.511719"/>
      <use xlink:href="#DejaVuSans-Bold-5b" x="309.326172"/>
      <use xlink:href="#DejaVuSans-Bold-68" x="355.029297"/>
      <use xlink:href="#DejaVuSans-Bold-72" x="426.220703"/>
      <use xlink:href="#DejaVuSans-Bold-5d" x="475.537109"/>
     </g>
    </g>
   </g>
   <g id="matplotlib.axis_6">
    <g id="ytick_14">
     <g id="line2d_45">
      <g>
       <use xlink:href="#m785c5f0202" x="898.117344" y="307.8" style="stroke: #000000; stroke-width: 0.8"/>
      </g>
     </g>
     <g id="text_42">
      <!-- 0.0 -->
      <g transform="translate(872.033594 312.359062) scale(0.12 -0.12)">
       <use xlink:href="#DejaVuSans-30"/>
       <use xlink:href="#DejaVuSans-2e" x="63.623047"/>
       <use xlink:href="#DejaVuSans-30" x="95.410156"/>
      </g>
     </g>
    </g>
    <g id="ytick_15">
     <g id="line2d_46">
      <g>
       <use xlink:href="#m785c5f0202" x="898.117344" y="255.737385" style="stroke: #000000; stroke-width: 0.8"/>
      </g>
     </g>
     <g id="text_43">
      <!-- 0.5 -->
      <g transform="translate(872.033594 260.296447) scale(0.12 -0.12)">
       <use xlink:href="#DejaVuSans-30"/>
       <use xlink:href="#DejaVuSans-2e" x="63.623047"/>
       <use xlink:href="#DejaVuSans-35" x="95.410156"/>
      </g>
     </g>
    </g>
    <g id="ytick_16">
     <g id="line2d_47">
      <g>
       <use xlink:href="#m785c5f0202" x="898.117344" y="203.67477" style="stroke: #000000; stroke-width: 0.8"/>
      </g>
     </g>
     <g id="text_44">
      <!-- 1.0 -->
      <g transform="translate(872.033594 208.233832) scale(0.12 -0.12)">
       <use xlink:href="#DejaVuSans-31"/>
       <use xlink:href="#DejaVuSans-2e" x="63.623047"/>
       <use xlink:href="#DejaVuSans-30" x="95.410156"/>
      </g>
     </g>
    </g>
    <g id="ytick_17">
     <g id="line2d_48">
      <g>
       <use xlink:href="#m785c5f0202" x="898.117344" y="151.612154" style="stroke: #000000; stroke-width: 0.8"/>
      </g>
     </g>
     <g id="text_45">
      <!-- 1.5 -->
      <g transform="translate(872.033594 156.171217) scale(0.12 -0.12)">
       <use xlink:href="#DejaVuSans-31"/>
       <use xlink:href="#DejaVuSans-2e" x="63.623047"/>
       <use xlink:href="#DejaVuSans-35" x="95.410156"/>
      </g>
     </g>
    </g>
    <g id="ytick_18">
     <g id="line2d_49">
      <g>
       <use xlink:href="#m785c5f0202" x="898.117344" y="99.549539" style="stroke: #000000; stroke-width: 0.8"/>
      </g>
     </g>
     <g id="text_46">
      <!-- 2.0 -->
      <g transform="translate(872.033594 104.108602) scale(0.12 -0.12)">
       <use xlink:href="#DejaVuSans-32"/>
       <use xlink:href="#DejaVuSans-2e" x="63.623047"/>
       <use xlink:href="#DejaVuSans-30" x="95.410156"/>
      </g>
     </g>
    </g>
    <g id="ytick_19">
     <g id="line2d_50">
      <g>
       <use xlink:href="#m785c5f0202" x="898.117344" y="47.486924" style="stroke: #000000; stroke-width: 0.8"/>
      </g>
     </g>
     <g id="text_47">
      <!-- 2.5 -->
      <g transform="translate(872.033594 52.045987) scale(0.12 -0.12)">
       <use xlink:href="#DejaVuSans-32"/>
       <use xlink:href="#DejaVuSans-2e" x="63.623047"/>
       <use xlink:href="#DejaVuSans-35" x="95.410156"/>
      </g>
     </g>
    </g>
    <g id="text_48">
     <!-- M1+M2 Urine [µmole] -->
     <g transform="translate(864.897656 274.456641) rotate(-90) scale(0.15 -0.15)">
      <defs>
       <path id="DejaVuSans-Bold-2b" d="M 3053 4013 
L 3053 2375 
L 4684 2375 
L 4684 1638 
L 3053 1638 
L 3053 0 
L 2309 0 
L 2309 1638 
L 678 1638 
L 678 2375 
L 2309 2375 
L 2309 4013 
L 3053 4013 
z
" transform="scale(0.015625)"/>
       <path id="DejaVuSans-Bold-55" d="M 588 4666 
L 1791 4666 
L 1791 1869 
Q 1791 1291 1980 1042 
Q 2169 794 2597 794 
Q 3028 794 3217 1042 
Q 3406 1291 3406 1869 
L 3406 4666 
L 4609 4666 
L 4609 1869 
Q 4609 878 4112 393 
Q 3616 -91 2597 -91 
Q 1581 -91 1084 393 
Q 588 878 588 1869 
L 588 4666 
z
" transform="scale(0.015625)"/>
       <path id="DejaVuSans-Bold-6e" d="M 4056 2131 
L 4056 0 
L 2931 0 
L 2931 347 
L 2931 1631 
Q 2931 2084 2911 2256 
Q 2891 2428 2841 2509 
Q 2775 2619 2662 2680 
Q 2550 2741 2406 2741 
Q 2056 2741 1856 2470 
Q 1656 2200 1656 1722 
L 1656 0 
L 538 0 
L 538 3500 
L 1656 3500 
L 1656 2988 
Q 1909 3294 2193 3439 
Q 2478 3584 2822 3584 
Q 3428 3584 3742 3212 
Q 4056 2841 4056 2131 
z
" transform="scale(0.015625)"/>
       <path id="DejaVuSans-Bold-6f" d="M 2203 2784 
Q 1831 2784 1636 2517 
Q 1441 2250 1441 1747 
Q 1441 1244 1636 976 
Q 1831 709 2203 709 
Q 2569 709 2762 976 
Q 2956 1244 2956 1747 
Q 2956 2250 2762 2517 
Q 2569 2784 2203 2784 
z
M 2203 3584 
Q 3106 3584 3614 3096 
Q 4122 2609 4122 1747 
Q 4122 884 3614 396 
Q 3106 -91 2203 -91 
Q 1297 -91 786 396 
Q 275 884 275 1747 
Q 275 2609 786 3096 
Q 1297 3584 2203 3584 
z
" transform="scale(0.015625)"/>
      </defs>
      <use xlink:href="#DejaVuSans-Bold-4d"/>
      <use xlink:href="#DejaVuSans-Bold-31" x="99.511719"/>
      <use xlink:href="#DejaVuSans-Bold-2b" x="169.091797"/>
      <use xlink:href="#DejaVuSans-Bold-4d" x="252.880859"/>
      <use xlink:href="#DejaVuSans-Bold-32" x="352.392578"/>
      <use xlink:href="#DejaVuSans-Bold-20" x="421.972656"/>
      <use xlink:href="#DejaVuSans-Bold-55" x="456.787109"/>
      <use xlink:href="#DejaVuSans-Bold-72" x="537.988281"/>
      <use xlink:href="#DejaVuSans-Bold-69" x="587.304688"/>
      <use xlink:href="#DejaVuSans-Bold-6e" x="621.582031"/>
      <use xlink:href="#DejaVuSans-Bold-65" x="692.773438"/>
      <use xlink:href="#DejaVuSans-Bold-20" x="760.595703"/>
      <use xlink:href="#DejaVuSans-Bold-5b" x="795.410156"/>
      <use xlink:href="#DejaVuSans-Bold-b5" x="841.113281"/>
      <use xlink:href="#DejaVuSans-Bold-6d" x="914.697266"/>
      <use xlink:href="#DejaVuSans-Bold-6f" x="1018.896484"/>
      <use xlink:href="#DejaVuSans-Bold-6c" x="1087.597656"/>
      <use xlink:href="#DejaVuSans-Bold-65" x="1121.875"/>
      <use xlink:href="#DejaVuSans-Bold-5d" x="1189.697266"/>
     </g>
    </g>
   </g>
   <g id="LineCollection_5">
    <path d="M 913.776169 206.979138 
L 913.776169 168.288655 
" clip-path="url(#pa579dd00ad)" style="fill: none; stroke: #1f77b4"/>
    <path d="M 926.303229 179.157098 
L 926.303229 140.515031 
" clip-path="url(#pa579dd00ad)" style="fill: none; stroke: #1f77b4"/>
    <path d="M 951.35735 159.01802 
L 951.35735 120.712925 
" clip-path="url(#pa579dd00ad)" style="fill: none; stroke: #1f77b4"/>
    <path d="M 976.41147 156.241947 
L 976.41147 115.336337 
" clip-path="url(#pa579dd00ad)" style="fill: none; stroke: #1f77b4"/>
    <path d="M 1051.573831 155.853885 
L 1051.573831 108.428111 
" clip-path="url(#pa579dd00ad)" style="fill: none; stroke: #1f77b4"/>
    <path d="M 1201.898553 155.938605 
L 1201.898553 108.274882 
" clip-path="url(#pa579dd00ad)" style="fill: none; stroke: #1f77b4"/>
   </g>
   <g id="LineCollection_6">
    <path d="M 913.776169 297.188071 
L 913.776169 291.677253 
" clip-path="url(#pa579dd00ad)" style="fill: none; stroke: #ff7f0e"/>
    <path d="M 926.303229 284.639905 
L 926.303229 279.457508 
" clip-path="url(#pa579dd00ad)" style="fill: none; stroke: #ff7f0e"/>
    <path d="M 951.35735 275.678392 
L 951.35735 264.85117 
" clip-path="url(#pa579dd00ad)" style="fill: none; stroke: #ff7f0e"/>
    <path d="M 976.41147 276.737489 
L 976.41147 263.225378 
" clip-path="url(#pa579dd00ad)" style="fill: none; stroke: #ff7f0e"/>
    <path d="M 1051.573831 274.624991 
L 1051.573831 261.137665 
" clip-path="url(#pa579dd00ad)" style="fill: none; stroke: #ff7f0e"/>
    <path d="M 1201.898553 274.584437 
L 1201.898553 261.344894 
" clip-path="url(#pa579dd00ad)" style="fill: none; stroke: #ff7f0e"/>
   </g>
   <g id="LineCollection_7">
    <path d="M 913.776169 188.711667 
L 913.776169 147.31293 
" clip-path="url(#pa579dd00ad)" style="fill: none; stroke: #000000"/>
    <path d="M 926.303229 145.311321 
L 926.303229 104.567633 
" clip-path="url(#pa579dd00ad)" style="fill: none; stroke: #000000"/>
    <path d="M 951.35735 115.652806 
L 951.35735 79.597203 
" clip-path="url(#pa579dd00ad)" style="fill: none; stroke: #000000"/>
    <path d="M 976.41147 111.509525 
L 976.41147 65.594505 
" clip-path="url(#pa579dd00ad)" style="fill: none; stroke: #000000"/>
    <path d="M 1051.573831 106.637729 
L 1051.573831 57.031911 
" clip-path="url(#pa579dd00ad)" style="fill: none; stroke: #000000"/>
    <path d="M 1201.898553 105.004485 
L 1201.898553 55.8 
" clip-path="url(#pa579dd00ad)" style="fill: none; stroke: #000000"/>
   </g>
   <g id="line2d_51">
    <path d="M 901.249109 307.8 
L 901.301305 307.710674 
L 901.353501 307.125249 
L 901.353501 307.125249 
L 902.27424 286.19184 
L 903.194979 269.495324 
L 904.422631 251.456951 
L 905.650283 236.755673 
L 906.877935 224.581229 
L 908.105586 214.441071 
L 909.333238 205.975892 
L 910.56089 198.900657 
L 911.788542 192.981931 
L 913.016194 188.026392 
L 914.243846 183.87333 
L 915.471498 180.388971 
L 916.69915 177.461914 
L 917.926802 174.999376 
L 919.461366 172.457959 
L 920.995931 170.399367 
L 922.530496 168.725578 
L 924.065061 167.358589 
L 925.906539 166.036698 
L 927.748017 164.984191 
L 929.896408 164.012734 
L 932.351711 163.150501 
L 935.420841 162.331031 
L 939.103797 161.594214 
L 944.014404 160.859068 
L 950.76649 160.090495 
L 960.894618 159.179202 
L 975.319528 158.115299 
L 992.813567 157.051877 
L 1012.455998 156.083733 
L 1034.553732 155.220398 
L 1060.027509 154.454665 
L 1089.491154 153.797666 
L 1124.786146 153.239905 
L 1168.674702 152.777591 
L 1208.266475 152.500403 
L 1208.266475 152.500403 
" clip-path="url(#pa579dd00ad)" style="fill: none; stroke: #1f77b4; stroke-width: 2; stroke-linecap: square"/>
   </g>
   <g id="line2d_52">
    <path d="M 913.776169 187.633896 
L 926.303229 159.836065 
L 951.35735 139.865473 
L 976.41147 135.789142 
L 1051.573831 132.140998 
L 1201.898553 132.106743 
" clip-path="url(#pa579dd00ad)" style="fill: none; stroke-dasharray: 3.7,1.6; stroke-dashoffset: 0; stroke: #1f77b4"/>
    <g clip-path="url(#pa579dd00ad)">
     <use xlink:href="#m71c41eda61" x="913.776169" y="187.633896" style="fill: #1f77b4; stroke: #000000; stroke-linejoin: miter"/>
     <use xlink:href="#m71c41eda61" x="926.303229" y="159.836065" style="fill: #1f77b4; stroke: #000000; stroke-linejoin: miter"/>
     <use xlink:href="#m71c41eda61" x="951.35735" y="139.865473" style="fill: #1f77b4; stroke: #000000; stroke-linejoin: miter"/>
     <use xlink:href="#m71c41eda61" x="976.41147" y="135.789142" style="fill: #1f77b4; stroke: #000000; stroke-linejoin: miter"/>
     <use xlink:href="#m71c41eda61" x="1051.573831" y="132.140998" style="fill: #1f77b4; stroke: #000000; stroke-linejoin: miter"/>
     <use xlink:href="#m71c41eda61" x="1201.898553" y="132.106743" style="fill: #1f77b4; stroke: #000000; stroke-linejoin: miter"/>
    </g>
   </g>
   <g id="line2d_53">
    <path d="M 901.249109 307.8 
L 902.581153 307.728448 
L 903.501892 307.476335 
L 904.422631 307.023632 
L 905.650283 306.148528 
L 907.184847 304.729989 
L 909.333238 302.387615 
L 916.392237 294.421799 
L 919.154453 291.76608 
L 921.609757 289.708565 
L 924.065061 287.929966 
L 926.520365 286.408983 
L 929.282582 284.971003 
L 932.044798 283.781521 
L 935.113928 282.702165 
L 938.489971 281.752439 
L 942.47984 280.877831 
L 947.083534 280.113609 
L 952.607968 279.434938 
L 959.666966 278.807463 
L 969.181268 278.202251 
L 982.992352 277.564787 
L 1003.555521 276.854402 
L 1030.870776 276.141743 
L 1063.710464 275.514256 
L 1103.302238 274.988301 
L 1153.02214 274.561238 
L 1208.266475 274.271288 
L 1208.266475 274.271288 
" clip-path="url(#pa579dd00ad)" style="fill: none; stroke: #ff7f0e; stroke-width: 2; stroke-linecap: square"/>
   </g>
   <g id="line2d_54">
    <path d="M 913.776169 294.432662 
L 926.303229 282.048706 
L 951.35735 270.264781 
L 976.41147 269.981434 
L 1051.573831 267.881328 
L 1201.898553 267.964666 
" clip-path="url(#pa579dd00ad)" style="fill: none; stroke-dasharray: 3.7,1.6; stroke-dashoffset: 0; stroke: #ff7f0e"/>
    <g clip-path="url(#pa579dd00ad)">
     <use xlink:href="#mf766893dd4" x="913.776169" y="294.432662" style="fill: #ff7f0e; stroke: #000000; stroke-linejoin: miter"/>
     <use xlink:href="#mf766893dd4" x="926.303229" y="282.048706" style="fill: #ff7f0e; stroke: #000000; stroke-linejoin: miter"/>
     <use xlink:href="#mf766893dd4" x="951.35735" y="270.264781" style="fill: #ff7f0e; stroke: #000000; stroke-linejoin: miter"/>
     <use xlink:href="#mf766893dd4" x="976.41147" y="269.981434" style="fill: #ff7f0e; stroke: #000000; stroke-linejoin: miter"/>
     <use xlink:href="#mf766893dd4" x="1051.573831" y="267.881328" style="fill: #ff7f0e; stroke: #000000; stroke-linejoin: miter"/>
     <use xlink:href="#mf766893dd4" x="1201.898553" y="267.964666" style="fill: #ff7f0e; stroke: #000000; stroke-linejoin: miter"/>
    </g>
   </g>
   <g id="line2d_55">
    <path d="M 901.249109 307.8 
L 901.301305 307.710674 
L 901.353501 307.125248 
L 901.353501 307.125248 
L 902.27424 286.160743 
L 903.501892 264.280609 
L 904.729544 246.540654 
L 905.957196 231.587212 
L 907.49176 215.896357 
L 909.026325 202.889301 
L 910.56089 192.063795 
L 912.095455 183.027562 
L 913.63002 175.464094 
L 915.164585 169.115586 
L 916.69915 163.7713 
L 918.233715 159.25862 
L 919.768279 155.43591 
L 921.302844 152.186761 
L 922.837409 149.415333 
L 924.371974 147.04259 
L 926.213452 144.630448 
L 928.05493 142.607168 
L 929.896408 140.899408 
L 932.044798 139.228113 
L 934.193189 137.833102 
L 936.648493 136.504283 
L 939.41071 135.270823 
L 942.47984 134.144877 
L 946.162795 133.041812 
L 950.459577 131.995849 
L 955.677097 130.960669 
L 962.429183 129.865795 
L 971.022746 128.716425 
L 981.7647 127.51282 
L 994.961958 126.262992 
L 1010.307607 125.037714 
L 1027.494733 123.892572 
L 1046.523338 122.850289 
L 1068.007246 121.902118 
L 1092.253371 121.06095 
L 1120.182452 120.321202 
L 1153.02214 119.680919 
L 1192.920827 119.133753 
L 1208.266475 118.971691 
L 1208.266475 118.971691 
" clip-path="url(#pa579dd00ad)" style="fill: none; stroke: #000000; stroke-width: 2; stroke-linecap: square"/>
   </g>
   <g id="line2d_56">
    <path d="M 913.776169 168.012298 
L 926.303229 124.939477 
L 951.35735 97.625004 
L 976.41147 88.552015 
L 1051.573831 81.83482 
L 1201.898553 80.402243 
" clip-path="url(#pa579dd00ad)" style="fill: none; stroke-dasharray: 3.7,1.6; stroke-dashoffset: 0; stroke: #000000"/>
    <defs>
     <path id="mb40f30d28a" d="M -3 3 
L 3 3 
L 3 -3 
L -3 -3 
z
" style="stroke: #000000; stroke-linejoin: miter"/>
    </defs>
    <g clip-path="url(#pa579dd00ad)">
     <use xlink:href="#mb40f30d28a" x="913.776169" y="168.012298" style="stroke: #000000; stroke-linejoin: miter"/>
     <use xlink:href="#mb40f30d28a" x="926.303229" y="124.939477" style="stroke: #000000; stroke-linejoin: miter"/>
     <use xlink:href="#mb40f30d28a" x="951.35735" y="97.625004" style="stroke: #000000; stroke-linejoin: miter"/>
     <use xlink:href="#mb40f30d28a" x="976.41147" y="88.552015" style="stroke: #000000; stroke-linejoin: miter"/>
     <use xlink:href="#mb40f30d28a" x="1051.573831" y="81.83482" style="stroke: #000000; stroke-linejoin: miter"/>
     <use xlink:href="#mb40f30d28a" x="1201.898553" y="80.402243" style="stroke: #000000; stroke-linejoin: miter"/>
    </g>
   </g>
   <g id="patch_15">
    <path d="M 898.117344 320.4 
L 898.117344 43.2 
" style="fill: none; stroke: #000000; stroke-width: 0.8; stroke-linejoin: miter; stroke-linecap: square"/>
   </g>
   <g id="patch_16">
    <path d="M 1223.617344 320.4 
L 1223.617344 43.2 
" style="fill: none; stroke: #000000; stroke-width: 0.8; stroke-linejoin: miter; stroke-linecap: square"/>
   </g>
   <g id="patch_17">
    <path d="M 898.117344 320.4 
L 1223.617344 320.4 
" style="fill: none; stroke: #000000; stroke-width: 0.8; stroke-linejoin: miter; stroke-linecap: square"/>
   </g>
   <g id="patch_18">
    <path d="M 898.117344 43.2 
L 1223.617344 43.2 
" style="fill: none; stroke: #000000; stroke-width: 0.8; stroke-linejoin: miter; stroke-linecap: square"/>
   </g>
   <g id="legend_3">
    <g id="patch_19">
     <path d="M 904.417344 129.661875 
L 1046.857812 129.661875 
Q 1048.657812 129.661875 1048.657812 127.861875 
L 1048.657812 49.5 
Q 1048.657812 47.7 1046.857812 47.7 
L 904.417344 47.7 
Q 902.617344 47.7 902.617344 49.5 
L 902.617344 127.861875 
Q 902.617344 129.661875 904.417344 129.661875 
z
" style="fill: #ffffff; opacity: 0.8; stroke: #cccccc; stroke-linejoin: miter"/>
    </g>
    <g id="line2d_57">
     <path d="M 906.217344 54.988594 
L 924.217344 54.988594 
" style="fill: none; stroke: #1f77b4; stroke-width: 2; stroke-linecap: square"/>
    </g>
    <g id="line2d_58"/>
    <g id="text_49">
     <!-- Sim M1 -->
     <g transform="translate(931.417344 58.138594) scale(0.09 -0.09)">
      <use xlink:href="#DejaVuSans-53"/>
      <use xlink:href="#DejaVuSans-69" x="63.476562"/>
      <use xlink:href="#DejaVuSans-6d" x="91.259766"/>
      <use xlink:href="#DejaVuSans-20" x="188.671875"/>
      <use xlink:href="#DejaVuSans-4d" x="220.458984"/>
      <use xlink:href="#DejaVuSans-31" x="306.738281"/>
     </g>
    </g>
    <g id="LineCollection_8">
     <path d="M 915.217344 72.698906 
L 915.217344 63.698906 
" style="fill: none; stroke: #1f77b4"/>
    </g>
    <g id="line2d_59">
     <path d="M 906.217344 68.198906 
L 924.217344 68.198906 
" style="fill: none; stroke-dasharray: 3.7,1.6; stroke-dashoffset: 0; stroke: #1f77b4"/>
    </g>
    <g id="line2d_60">
     <g>
      <use xlink:href="#m71c41eda61" x="915.217344" y="68.198906" style="fill: #1f77b4; stroke: #000000; stroke-linejoin: miter"/>
     </g>
    </g>
    <g id="text_50">
     <!-- Data M1±SD (n=12) -->
     <g transform="translate(931.417344 71.348906) scale(0.09 -0.09)">
      <use xlink:href="#DejaVuSans-44"/>
      <use xlink:href="#DejaVuSans-61" x="77.001953"/>
      <use xlink:href="#DejaVuSans-74" x="138.28125"/>
      <use xlink:href="#DejaVuSans-61" x="177.490234"/>
      <use xlink:href="#DejaVuSans-20" x="238.769531"/>
      <use xlink:href="#DejaVuSans-4d" x="270.556641"/>
      <use xlink:href="#DejaVuSans-31" x="356.835938"/>
      <use xlink:href="#DejaVuSans-b1" x="420.458984"/>
      <use xlink:href="#DejaVuSans-53" x="504.248047"/>
      <use xlink:href="#DejaVuSans-44" x="567.724609"/>
      <use xlink:href="#DejaVuSans-20" x="644.726562"/>
      <use xlink:href="#DejaVuSans-28" x="676.513672"/>
      <use xlink:href="#DejaVuSans-6e" x="715.527344"/>
      <use xlink:href="#DejaVuSans-3d" x="778.90625"/>
      <use xlink:href="#DejaVuSans-31" x="862.695312"/>
      <use xlink:href="#DejaVuSans-32" x="926.318359"/>
      <use xlink:href="#DejaVuSans-29" x="989.941406"/>
     </g>
    </g>
    <g id="line2d_61">
     <path d="M 906.217344 81.409219 
L 924.217344 81.409219 
" style="fill: none; stroke: #ff7f0e; stroke-width: 2; stroke-linecap: square"/>
    </g>
    <g id="line2d_62"/>
    <g id="text_51">
     <!-- Sim M2 -->
     <g transform="translate(931.417344 84.559219) scale(0.09 -0.09)">
      <use xlink:href="#DejaVuSans-53"/>
      <use xlink:href="#DejaVuSans-69" x="63.476562"/>
      <use xlink:href="#DejaVuSans-6d" x="91.259766"/>
      <use xlink:href="#DejaVuSans-20" x="188.671875"/>
      <use xlink:href="#DejaVuSans-4d" x="220.458984"/>
      <use xlink:href="#DejaVuSans-32" x="306.738281"/>
     </g>
    </g>
    <g id="LineCollection_9">
     <path d="M 915.217344 99.119531 
L 915.217344 90.119531 
" style="fill: none; stroke: #ff7f0e"/>
    </g>
    <g id="line2d_63">
     <path d="M 906.217344 94.619531 
L 924.217344 94.619531 
" style="fill: none; stroke-dasharray: 3.7,1.6; stroke-dashoffset: 0; stroke: #ff7f0e"/>
    </g>
    <g id="line2d_64">
     <g>
      <use xlink:href="#mf766893dd4" x="915.217344" y="94.619531" style="fill: #ff7f0e; stroke: #000000; stroke-linejoin: miter"/>
     </g>
    </g>
    <g id="text_52">
     <!-- Data M2±SD (n=12) -->
     <g transform="translate(931.417344 97.769531) scale(0.09 -0.09)">
      <use xlink:href="#DejaVuSans-44"/>
      <use xlink:href="#DejaVuSans-61" x="77.001953"/>
      <use xlink:href="#DejaVuSans-74" x="138.28125"/>
      <use xlink:href="#DejaVuSans-61" x="177.490234"/>
      <use xlink:href="#DejaVuSans-20" x="238.769531"/>
      <use xlink:href="#DejaVuSans-4d" x="270.556641"/>
      <use xlink:href="#DejaVuSans-32" x="356.835938"/>
      <use xlink:href="#DejaVuSans-b1" x="420.458984"/>
      <use xlink:href="#DejaVuSans-53" x="504.248047"/>
      <use xlink:href="#DejaVuSans-44" x="567.724609"/>
      <use xlink:href="#DejaVuSans-20" x="644.726562"/>
      <use xlink:href="#DejaVuSans-28" x="676.513672"/>
      <use xlink:href="#DejaVuSans-6e" x="715.527344"/>
      <use xlink:href="#DejaVuSans-3d" x="778.90625"/>
      <use xlink:href="#DejaVuSans-31" x="862.695312"/>
      <use xlink:href="#DejaVuSans-32" x="926.318359"/>
      <use xlink:href="#DejaVuSans-29" x="989.941406"/>
     </g>
    </g>
    <g id="line2d_65">
     <path d="M 906.217344 107.829844 
L 924.217344 107.829844 
" style="fill: none; stroke: #000000; stroke-width: 2; stroke-linecap: square"/>
    </g>
    <g id="line2d_66"/>
    <g id="text_53">
     <!-- Sim M1+M2 -->
     <g transform="translate(931.417344 110.979844) scale(0.09 -0.09)">
      <defs>
       <path id="DejaVuSans-2b" d="M 2944 4013 
L 2944 2272 
L 4684 2272 
L 4684 1741 
L 2944 1741 
L 2944 0 
L 2419 0 
L 2419 1741 
L 678 1741 
L 678 2272 
L 2419 2272 
L 2419 4013 
L 2944 4013 
z
" transform="scale(0.015625)"/>
      </defs>
      <use xlink:href="#DejaVuSans-53"/>
      <use xlink:href="#DejaVuSans-69" x="63.476562"/>
      <use xlink:href="#DejaVuSans-6d" x="91.259766"/>
      <use xlink:href="#DejaVuSans-20" x="188.671875"/>
      <use xlink:href="#DejaVuSans-4d" x="220.458984"/>
      <use xlink:href="#DejaVuSans-31" x="306.738281"/>
      <use xlink:href="#DejaVuSans-2b" x="370.361328"/>
      <use xlink:href="#DejaVuSans-4d" x="454.150391"/>
      <use xlink:href="#DejaVuSans-32" x="540.429688"/>
     </g>
    </g>
    <g id="LineCollection_10">
     <path d="M 915.217344 125.540156 
L 915.217344 116.540156 
" style="fill: none; stroke: #000000"/>
    </g>
    <g id="line2d_67">
     <path d="M 906.217344 121.040156 
L 924.217344 121.040156 
" style="fill: none; stroke-dasharray: 3.7,1.6; stroke-dashoffset: 0; stroke: #000000"/>
    </g>
    <g id="line2d_68">
     <g>
      <use xlink:href="#mb40f30d28a" x="915.217344" y="121.040156" style="stroke: #000000; stroke-linejoin: miter"/>
     </g>
    </g>
    <g id="text_54">
     <!-- Data M1+M2±SD (n=12) -->
     <g transform="translate(931.417344 124.190156) scale(0.09 -0.09)">
      <use xlink:href="#DejaVuSans-44"/>
      <use xlink:href="#DejaVuSans-61" x="77.001953"/>
      <use xlink:href="#DejaVuSans-74" x="138.28125"/>
      <use xlink:href="#DejaVuSans-61" x="177.490234"/>
      <use xlink:href="#DejaVuSans-20" x="238.769531"/>
      <use xlink:href="#DejaVuSans-4d" x="270.556641"/>
      <use xlink:href="#DejaVuSans-31" x="356.835938"/>
      <use xlink:href="#DejaVuSans-2b" x="420.458984"/>
      <use xlink:href="#DejaVuSans-4d" x="504.248047"/>
      <use xlink:href="#DejaVuSans-32" x="590.527344"/>
      <use xlink:href="#DejaVuSans-b1" x="654.150391"/>
      <use xlink:href="#DejaVuSans-53" x="737.939453"/>
      <use xlink:href="#DejaVuSans-44" x="801.416016"/>
      <use xlink:href="#DejaVuSans-20" x="878.417969"/>
      <use xlink:href="#DejaVuSans-28" x="910.205078"/>
      <use xlink:href="#DejaVuSans-6e" x="949.21875"/>
      <use xlink:href="#DejaVuSans-3d" x="1012.597656"/>
      <use xlink:href="#DejaVuSans-31" x="1096.386719"/>
      <use xlink:href="#DejaVuSans-32" x="1160.009766"/>
      <use xlink:href="#DejaVuSans-29" x="1223.632812"/>
     </g>
    </g>
   </g>
  </g>
  <g id="text_55">
   <!-- Badian1996 (healthy) -->
   <g transform="translate(497.045469 22.396875) scale(0.2 -0.2)">
    <defs>
     <path id="DejaVuSans-Bold-42" d="M 2456 2859 
Q 2741 2859 2887 2984 
Q 3034 3109 3034 3353 
Q 3034 3594 2887 3720 
Q 2741 3847 2456 3847 
L 1791 3847 
L 1791 2859 
L 2456 2859 
z
M 2497 819 
Q 2859 819 3042 972 
Q 3225 1125 3225 1434 
Q 3225 1738 3044 1889 
Q 2863 2041 2497 2041 
L 1791 2041 
L 1791 819 
L 2497 819 
z
M 3616 2497 
Q 4003 2384 4215 2081 
Q 4428 1778 4428 1338 
Q 4428 663 3972 331 
Q 3516 0 2584 0 
L 588 0 
L 588 4666 
L 2394 4666 
Q 3366 4666 3802 4372 
Q 4238 4078 4238 3431 
Q 4238 3091 4078 2852 
Q 3919 2613 3616 2497 
z
" transform="scale(0.015625)"/>
     <path id="DejaVuSans-Bold-64" d="M 2919 2988 
L 2919 4863 
L 4044 4863 
L 4044 0 
L 2919 0 
L 2919 506 
Q 2688 197 2409 53 
Q 2131 -91 1766 -91 
Q 1119 -91 703 423 
Q 288 938 288 1747 
Q 288 2556 703 3070 
Q 1119 3584 1766 3584 
Q 2128 3584 2408 3439 
Q 2688 3294 2919 2988 
z
M 2181 722 
Q 2541 722 2730 984 
Q 2919 1247 2919 1747 
Q 2919 2247 2730 2509 
Q 2541 2772 2181 2772 
Q 1825 2772 1636 2509 
Q 1447 2247 1447 1747 
Q 1447 1247 1636 984 
Q 1825 722 2181 722 
z
" transform="scale(0.015625)"/>
     <path id="DejaVuSans-Bold-39" d="M 641 103 
L 641 966 
Q 928 831 1190 764 
Q 1453 697 1709 697 
Q 2247 697 2547 995 
Q 2847 1294 2900 1881 
Q 2688 1725 2447 1647 
Q 2206 1569 1925 1569 
Q 1209 1569 770 1986 
Q 331 2403 331 3084 
Q 331 3838 820 4291 
Q 1309 4744 2131 4744 
Q 3044 4744 3544 4128 
Q 4044 3513 4044 2388 
Q 4044 1231 3459 570 
Q 2875 -91 1856 -91 
Q 1528 -91 1228 -42 
Q 928 6 641 103 
z
M 2125 2350 
Q 2441 2350 2600 2554 
Q 2759 2759 2759 3169 
Q 2759 3575 2600 3781 
Q 2441 3988 2125 3988 
Q 1809 3988 1650 3781 
Q 1491 3575 1491 3169 
Q 1491 2759 1650 2554 
Q 1809 2350 2125 2350 
z
" transform="scale(0.015625)"/>
     <path id="DejaVuSans-Bold-36" d="M 2316 2303 
Q 2000 2303 1842 2098 
Q 1684 1894 1684 1484 
Q 1684 1075 1842 870 
Q 2000 666 2316 666 
Q 2634 666 2792 870 
Q 2950 1075 2950 1484 
Q 2950 1894 2792 2098 
Q 2634 2303 2316 2303 
z
M 3803 4544 
L 3803 3681 
Q 3506 3822 3243 3889 
Q 2981 3956 2731 3956 
Q 2194 3956 1894 3657 
Q 1594 3359 1544 2772 
Q 1750 2925 1990 3001 
Q 2231 3078 2516 3078 
Q 3231 3078 3670 2659 
Q 4109 2241 4109 1563 
Q 4109 813 3618 361 
Q 3128 -91 2303 -91 
Q 1394 -91 895 523 
Q 397 1138 397 2266 
Q 397 3422 980 4083 
Q 1563 4744 2578 4744 
Q 2900 4744 3203 4694 
Q 3506 4644 3803 4544 
z
" transform="scale(0.015625)"/>
     <path id="DejaVuSans-Bold-28" d="M 2413 -844 
L 1484 -844 
Q 1006 -72 778 623 
Q 550 1319 550 2003 
Q 550 2688 779 3389 
Q 1009 4091 1484 4856 
L 2413 4856 
Q 2013 4116 1813 3408 
Q 1613 2700 1613 2009 
Q 1613 1319 1811 609 
Q 2009 -100 2413 -844 
z
" transform="scale(0.015625)"/>
     <path id="DejaVuSans-Bold-74" d="M 1759 4494 
L 1759 3500 
L 2913 3500 
L 2913 2700 
L 1759 2700 
L 1759 1216 
Q 1759 972 1856 886 
Q 1953 800 2241 800 
L 2816 800 
L 2816 0 
L 1856 0 
Q 1194 0 917 276 
Q 641 553 641 1216 
L 641 2700 
L 84 2700 
L 84 3500 
L 641 3500 
L 641 4494 
L 1759 4494 
z
" transform="scale(0.015625)"/>
     <path id="DejaVuSans-Bold-79" d="M 78 3500 
L 1197 3500 
L 2138 1125 
L 2938 3500 
L 4056 3500 
L 2584 -331 
Q 2363 -916 2067 -1148 
Q 1772 -1381 1288 -1381 
L 641 -1381 
L 641 -647 
L 991 -647 
Q 1275 -647 1404 -556 
Q 1534 -466 1606 -231 
L 1638 -134 
L 78 3500 
z
" transform="scale(0.015625)"/>
     <path id="DejaVuSans-Bold-29" d="M 513 -844 
Q 913 -100 1113 609 
Q 1313 1319 1313 2009 
Q 1313 2700 1113 3408 
Q 913 4116 513 4856 
L 1441 4856 
Q 1916 4091 2145 3389 
Q 2375 2688 2375 2003 
Q 2375 1319 2147 623 
Q 1919 -72 1441 -844 
L 513 -844 
z
" transform="scale(0.015625)"/>
    </defs>
    <use xlink:href="#DejaVuSans-Bold-42"/>
    <use xlink:href="#DejaVuSans-Bold-61" x="76.220703"/>
    <use xlink:href="#DejaVuSans-Bold-64" x="143.701172"/>
    <use xlink:href="#DejaVuSans-Bold-69" x="215.283203"/>
    <use xlink:href="#DejaVuSans-Bold-61" x="249.560547"/>
    <use xlink:href="#DejaVuSans-Bold-6e" x="317.041016"/>
    <use xlink:href="#DejaVuSans-Bold-31" x="388.232422"/>
    <use xlink:href="#DejaVuSans-Bold-39" x="457.8125"/>
    <use xlink:href="#DejaVuSans-Bold-39" x="527.392578"/>
    <use xlink:href="#DejaVuSans-Bold-36" x="596.972656"/>
    <use xlink:href="#DejaVuSans-Bold-20" x="666.552734"/>
    <use xlink:href="#DejaVuSans-Bold-28" x="701.367188"/>
    <use xlink:href="#DejaVuSans-Bold-68" x="747.070312"/>
    <use xlink:href="#DejaVuSans-Bold-65" x="818.261719"/>
    <use xlink:href="#DejaVuSans-Bold-61" x="886.083984"/>
    <use xlink:href="#DejaVuSans-Bold-6c" x="953.564453"/>
    <use xlink:href="#DejaVuSans-Bold-74" x="987.841797"/>
    <use xlink:href="#DejaVuSans-Bold-68" x="1035.644531"/>
    <use xlink:href="#DejaVuSans-Bold-79" x="1106.835938"/>
    <use xlink:href="#DejaVuSans-Bold-29" x="1172.021484"/>
   </g>
  </g>
 </g>
 <defs>
  <clipPath id="p1d301189e8">
   <rect x="51.817344" y="43.2" width="325.5" height="277.2"/>
  </clipPath>
  <clipPath id="pb1eaadbdd7">
   <rect x="474.967344" y="43.2" width="325.5" height="277.2"/>
  </clipPath>
  <clipPath id="pa579dd00ad">
   <rect x="898.117344" y="43.2" width="325.5" height="277.2"/>
  </clipPath>
 </defs>
</svg>
