<?xml version="1.0" encoding="utf-8" standalone="no"?>
<!DOCTYPE svg PUBLIC "-//W3C//DTD SVG 1.1//EN"
  "http://www.w3.org/Graphics/SVG/1.1/DTD/svg11.dtd">
<svg xmlns:xlink="http://www.w3.org/1999/xlink" width="840.217344pt" height="364.730937pt" viewBox="0 0 840.217344 364.730937" xmlns="http://www.w3.org/2000/svg" version="1.1">
 <metadata>
  <rdf:RDF xmlns:dc="http://purl.org/dc/elements/1.1/" xmlns:cc="http://creativecommons.org/ns#" xmlns:rdf="http://www.w3.org/1999/02/22-rdf-syntax-ns#">
   <cc:Work>
    <dc:type rdf:resource="http://purl.org/dc/dcmitype/StillImage"/>
    <dc:date>2025-04-04T11:26:11.080917</dc:date>
    <dc:format>image/svg+xml</dc:format>
    <dc:creator>
     <cc:Agent>
      <dc:title>Matplotlib v3.9.1, https://matplotlib.org/</dc:title>
     </cc:Agent>
    </dc:creator>
   </cc:Work>
  </rdf:RDF>
 </metadata>
 <defs>
  <style type="text/css">*{stroke-linejoin: round; stroke-linecap: butt}</style>
 </defs>
 <g id="figure_1">
  <g id="patch_1">
   <path d="M 0 364.730937 
L 840.217344 364.730937 
L 840.217344 0 
L 0 0 
z
" style="fill: #ffffff"/>
  </g>
  <g id="axes_1">
   <g id="patch_2">
    <path d="M 51.817344 320.4 
L 391.469518 320.4 
L 391.469518 43.2 
L 51.817344 43.2 
z
" style="fill: #ffffff"/>
   </g>
   <g id="matplotlib.axis_1">
    <g id="xtick_1">
     <g id="line2d_1">
      <defs>
       <path id="m77c9dc7729" d="M 0 0 
L 0 3.5 
" style="stroke: #000000; stroke-width: 0.8"/>
      </defs>
      <g>
       <use xlink:href="#m77c9dc7729" x="73.314317" y="320.4" style="stroke: #000000; stroke-width: 0.8"/>
      </g>
     </g>
     <g id="text_1">
      <!-- 0 -->
      <g transform="translate(69.496817 336.518125) scale(0.12 -0.12)">
       <defs>
        <path id="DejaVuSans-30" d="M 2034 4250 
Q 1547 4250 1301 3770 
Q 1056 3291 1056 2328 
Q 1056 1369 1301 889 
Q 1547 409 2034 409 
Q 2525 409 2770 889 
Q 3016 1369 3016 2328 
Q 3016 3291 2770 3770 
Q 2525 4250 2034 4250 
z
M 2034 4750 
Q 2819 4750 3233 4129 
Q 3647 3509 3647 2328 
Q 3647 1150 3233 529 
Q 2819 -91 2034 -91 
Q 1250 -91 836 529 
Q 422 1150 422 2328 
Q 422 3509 836 4129 
Q 1250 4750 2034 4750 
z
" transform="scale(0.015625)"/>
       </defs>
       <use xlink:href="#DejaVuSans-30"/>
      </g>
     </g>
    </g>
    <g id="xtick_2">
     <g id="line2d_2">
      <g>
       <use xlink:href="#m77c9dc7729" x="116.308263" y="320.4" style="stroke: #000000; stroke-width: 0.8"/>
      </g>
     </g>
     <g id="text_2">
      <!-- 5 -->
      <g transform="translate(112.490763 336.518125) scale(0.12 -0.12)">
       <defs>
        <path id="DejaVuSans-35" d="M 691 4666 
L 3169 4666 
L 3169 4134 
L 1269 4134 
L 1269 2991 
Q 1406 3038 1543 3061 
Q 1681 3084 1819 3084 
Q 2600 3084 3056 2656 
Q 3513 2228 3513 1497 
Q 3513 744 3044 326 
Q 2575 -91 1722 -91 
Q 1428 -91 1123 -41 
Q 819 9 494 109 
L 494 744 
Q 775 591 1075 516 
Q 1375 441 1709 441 
Q 2250 441 2565 725 
Q 2881 1009 2881 1497 
Q 2881 1984 2565 2268 
Q 2250 2553 1709 2553 
Q 1456 2553 1204 2497 
Q 953 2441 691 2322 
L 691 4666 
z
" transform="scale(0.015625)"/>
       </defs>
       <use xlink:href="#DejaVuSans-35"/>
      </g>
     </g>
    </g>
    <g id="xtick_3">
     <g id="line2d_3">
      <g>
       <use xlink:href="#m77c9dc7729" x="159.302209" y="320.4" style="stroke: #000000; stroke-width: 0.8"/>
      </g>
     </g>
     <g id="text_3">
      <!-- 10 -->
      <g transform="translate(151.667209 336.518125) scale(0.12 -0.12)">
       <defs>
        <path id="DejaVuSans-31" d="M 794 531 
L 1825 531 
L 1825 4091 
L 703 3866 
L 703 4441 
L 1819 4666 
L 2450 4666 
L 2450 531 
L 3481 531 
L 3481 0 
L 794 0 
L 794 531 
z
" transform="scale(0.015625)"/>
       </defs>
       <use xlink:href="#DejaVuSans-31"/>
       <use xlink:href="#DejaVuSans-30" x="63.623047"/>
      </g>
     </g>
    </g>
    <g id="xtick_4">
     <g id="line2d_4">
      <g>
       <use xlink:href="#m77c9dc7729" x="202.296155" y="320.4" style="stroke: #000000; stroke-width: 0.8"/>
      </g>
     </g>
     <g id="text_4">
      <!-- 15 -->
      <g transform="translate(194.661155 336.518125) scale(0.12 -0.12)">
       <use xlink:href="#DejaVuSans-31"/>
       <use xlink:href="#DejaVuSans-35" x="63.623047"/>
      </g>
     </g>
    </g>
    <g id="xtick_5">
     <g id="line2d_5">
      <g>
       <use xlink:href="#m77c9dc7729" x="245.290101" y="320.4" style="stroke: #000000; stroke-width: 0.8"/>
      </g>
     </g>
     <g id="text_5">
      <!-- 20 -->
      <g transform="translate(237.655101 336.518125) scale(0.12 -0.12)">
       <defs>
        <path id="DejaVuSans-32" d="M 1228 531 
L 3431 531 
L 3431 0 
L 469 0 
L 469 531 
Q 828 903 1448 1529 
Q 2069 2156 2228 2338 
Q 2531 2678 2651 2914 
Q 2772 3150 2772 3378 
Q 2772 3750 2511 3984 
Q 2250 4219 1831 4219 
Q 1534 4219 1204 4116 
Q 875 4013 500 3803 
L 500 4441 
Q 881 4594 1212 4672 
Q 1544 4750 1819 4750 
Q 2544 4750 2975 4387 
Q 3406 4025 3406 3419 
Q 3406 3131 3298 2873 
Q 3191 2616 2906 2266 
Q 2828 2175 2409 1742 
Q 1991 1309 1228 531 
z
" transform="scale(0.015625)"/>
       </defs>
       <use xlink:href="#DejaVuSans-32"/>
       <use xlink:href="#DejaVuSans-30" x="63.623047"/>
      </g>
     </g>
    </g>
    <g id="xtick_6">
     <g id="line2d_6">
      <g>
       <use xlink:href="#m77c9dc7729" x="288.284047" y="320.4" style="stroke: #000000; stroke-width: 0.8"/>
      </g>
     </g>
     <g id="text_6">
      <!-- 25 -->
      <g transform="translate(280.649047 336.518125) scale(0.12 -0.12)">
       <use xlink:href="#DejaVuSans-32"/>
       <use xlink:href="#DejaVuSans-35" x="63.623047"/>
      </g>
     </g>
    </g>
    <g id="xtick_7">
     <g id="line2d_7">
      <g>
       <use xlink:href="#m77c9dc7729" x="331.277993" y="320.4" style="stroke: #000000; stroke-width: 0.8"/>
      </g>
     </g>
     <g id="text_7">
      <!-- 30 -->
      <g transform="translate(323.642993 336.518125) scale(0.12 -0.12)">
       <defs>
        <path id="DejaVuSans-33" d="M 2597 2516 
Q 3050 2419 3304 2112 
Q 3559 1806 3559 1356 
Q 3559 666 3084 287 
Q 2609 -91 1734 -91 
Q 1441 -91 1130 -33 
Q 819 25 488 141 
L 488 750 
Q 750 597 1062 519 
Q 1375 441 1716 441 
Q 2309 441 2620 675 
Q 2931 909 2931 1356 
Q 2931 1769 2642 2001 
Q 2353 2234 1838 2234 
L 1294 2234 
L 1294 2753 
L 1863 2753 
Q 2328 2753 2575 2939 
Q 2822 3125 2822 3475 
Q 2822 3834 2567 4026 
Q 2313 4219 1838 4219 
Q 1578 4219 1281 4162 
Q 984 4106 628 3988 
L 628 4550 
Q 988 4650 1302 4700 
Q 1616 4750 1894 4750 
Q 2613 4750 3031 4423 
Q 3450 4097 3450 3541 
Q 3450 3153 3228 2886 
Q 3006 2619 2597 2516 
z
" transform="scale(0.015625)"/>
       </defs>
       <use xlink:href="#DejaVuSans-33"/>
       <use xlink:href="#DejaVuSans-30" x="63.623047"/>
      </g>
     </g>
    </g>
    <g id="xtick_8">
     <g id="line2d_8">
      <g>
       <use xlink:href="#m77c9dc7729" x="374.271939" y="320.4" style="stroke: #000000; stroke-width: 0.8"/>
      </g>
     </g>
     <g id="text_8">
      <!-- 35 -->
      <g transform="translate(366.636939 336.518125) scale(0.12 -0.12)">
       <use xlink:href="#DejaVuSans-33"/>
       <use xlink:href="#DejaVuSans-35" x="63.623047"/>
      </g>
     </g>
    </g>
    <g id="text_9">
     <!-- Time [hr] -->
     <g transform="translate(182.549681 354.411406) scale(0.15 -0.15)">
      <defs>
       <path id="DejaVuSans-Bold-54" d="M 31 4666 
L 4331 4666 
L 4331 3756 
L 2784 3756 
L 2784 0 
L 1581 0 
L 1581 3756 
L 31 3756 
L 31 4666 
z
" transform="scale(0.015625)"/>
       <path id="DejaVuSans-Bold-69" d="M 538 3500 
L 1656 3500 
L 1656 0 
L 538 0 
L 538 3500 
z
M 538 4863 
L 1656 4863 
L 1656 3950 
L 538 3950 
L 538 4863 
z
" transform="scale(0.015625)"/>
       <path id="DejaVuSans-Bold-6d" d="M 3781 2919 
Q 3994 3244 4286 3414 
Q 4578 3584 4928 3584 
Q 5531 3584 5847 3212 
Q 6163 2841 6163 2131 
L 6163 0 
L 5038 0 
L 5038 1825 
Q 5041 1866 5042 1909 
Q 5044 1953 5044 2034 
Q 5044 2406 4934 2573 
Q 4825 2741 4581 2741 
Q 4263 2741 4089 2478 
Q 3916 2216 3909 1719 
L 3909 0 
L 2784 0 
L 2784 1825 
Q 2784 2406 2684 2573 
Q 2584 2741 2328 2741 
Q 2006 2741 1831 2477 
Q 1656 2213 1656 1722 
L 1656 0 
L 531 0 
L 531 3500 
L 1656 3500 
L 1656 2988 
Q 1863 3284 2130 3434 
Q 2397 3584 2719 3584 
Q 3081 3584 3359 3409 
Q 3638 3234 3781 2919 
z
" transform="scale(0.015625)"/>
       <path id="DejaVuSans-Bold-65" d="M 4031 1759 
L 4031 1441 
L 1416 1441 
Q 1456 1047 1700 850 
Q 1944 653 2381 653 
Q 2734 653 3104 758 
Q 3475 863 3866 1075 
L 3866 213 
Q 3469 63 3072 -14 
Q 2675 -91 2278 -91 
Q 1328 -91 801 392 
Q 275 875 275 1747 
Q 275 2603 792 3093 
Q 1309 3584 2216 3584 
Q 3041 3584 3536 3087 
Q 4031 2591 4031 1759 
z
M 2881 2131 
Q 2881 2450 2695 2645 
Q 2509 2841 2209 2841 
Q 1884 2841 1681 2658 
Q 1478 2475 1428 2131 
L 2881 2131 
z
" transform="scale(0.015625)"/>
       <path id="DejaVuSans-Bold-20" transform="scale(0.015625)"/>
       <path id="DejaVuSans-Bold-5b" d="M 550 4863 
L 2491 4863 
L 2491 4159 
L 1613 4159 
L 1613 -141 
L 2491 -141 
L 2491 -844 
L 550 -844 
L 550 4863 
z
" transform="scale(0.015625)"/>
       <path id="DejaVuSans-Bold-68" d="M 4056 2131 
L 4056 0 
L 2931 0 
L 2931 347 
L 2931 1625 
Q 2931 2084 2911 2256 
Q 2891 2428 2841 2509 
Q 2775 2619 2662 2680 
Q 2550 2741 2406 2741 
Q 2056 2741 1856 2470 
Q 1656 2200 1656 1722 
L 1656 0 
L 538 0 
L 538 4863 
L 1656 4863 
L 1656 2988 
Q 1909 3294 2193 3439 
Q 2478 3584 2822 3584 
Q 3428 3584 3742 3212 
Q 4056 2841 4056 2131 
z
" transform="scale(0.015625)"/>
       <path id="DejaVuSans-Bold-72" d="M 3138 2547 
Q 2991 2616 2845 2648 
Q 2700 2681 2553 2681 
Q 2122 2681 1889 2404 
Q 1656 2128 1656 1613 
L 1656 0 
L 538 0 
L 538 3500 
L 1656 3500 
L 1656 2925 
Q 1872 3269 2151 3426 
Q 2431 3584 2822 3584 
Q 2878 3584 2943 3579 
Q 3009 3575 3134 3559 
L 3138 2547 
z
" transform="scale(0.015625)"/>
       <path id="DejaVuSans-Bold-5d" d="M 2375 -844 
L 434 -844 
L 434 -141 
L 1313 -141 
L 1313 4159 
L 434 4159 
L 434 4863 
L 2375 4863 
L 2375 -844 
z
" transform="scale(0.015625)"/>
      </defs>
      <use xlink:href="#DejaVuSans-Bold-54"/>
      <use xlink:href="#DejaVuSans-Bold-69" x="68.212891"/>
      <use xlink:href="#DejaVuSans-Bold-6d" x="102.490234"/>
      <use xlink:href="#DejaVuSans-Bold-65" x="206.689453"/>
      <use xlink:href="#DejaVuSans-Bold-20" x="274.511719"/>
      <use xlink:href="#DejaVuSans-Bold-5b" x="309.326172"/>
      <use xlink:href="#DejaVuSans-Bold-68" x="355.029297"/>
      <use xlink:href="#DejaVuSans-Bold-72" x="426.220703"/>
      <use xlink:href="#DejaVuSans-Bold-5d" x="475.537109"/>
     </g>
    </g>
   </g>
   <g id="matplotlib.axis_2">
    <g id="ytick_1">
     <g id="line2d_9">
      <defs>
       <path id="mc2ab98bed7" d="M 0 0 
L -3.5 0 
" style="stroke: #000000; stroke-width: 0.8"/>
      </defs>
      <g>
       <use xlink:href="#mc2ab98bed7" x="51.817344" y="307.8" style="stroke: #000000; stroke-width: 0.8"/>
      </g>
     </g>
     <g id="text_10">
      <!-- 0.0 -->
      <g transform="translate(25.733594 312.359062) scale(0.12 -0.12)">
       <defs>
        <path id="DejaVuSans-2e" d="M 684 794 
L 1344 794 
L 1344 0 
L 684 0 
L 684 794 
z
" transform="scale(0.015625)"/>
       </defs>
       <use xlink:href="#DejaVuSans-30"/>
       <use xlink:href="#DejaVuSans-2e" x="63.623047"/>
       <use xlink:href="#DejaVuSans-30" x="95.410156"/>
      </g>
     </g>
    </g>
    <g id="ytick_2">
     <g id="line2d_10">
      <g>
       <use xlink:href="#mc2ab98bed7" x="51.817344" y="267.196303" style="stroke: #000000; stroke-width: 0.8"/>
      </g>
     </g>
     <g id="text_11">
      <!-- 0.2 -->
      <g transform="translate(25.733594 271.755365) scale(0.12 -0.12)">
       <use xlink:href="#DejaVuSans-30"/>
       <use xlink:href="#DejaVuSans-2e" x="63.623047"/>
       <use xlink:href="#DejaVuSans-32" x="95.410156"/>
      </g>
     </g>
    </g>
    <g id="ytick_3">
     <g id="line2d_11">
      <g>
       <use xlink:href="#mc2ab98bed7" x="51.817344" y="226.592605" style="stroke: #000000; stroke-width: 0.8"/>
      </g>
     </g>
     <g id="text_12">
      <!-- 0.4 -->
      <g transform="translate(25.733594 231.151668) scale(0.12 -0.12)">
       <defs>
        <path id="DejaVuSans-34" d="M 2419 4116 
L 825 1625 
L 2419 1625 
L 2419 4116 
z
M 2253 4666 
L 3047 4666 
L 3047 1625 
L 3713 1625 
L 3713 1100 
L 3047 1100 
L 3047 0 
L 2419 0 
L 2419 1100 
L 313 1100 
L 313 1709 
L 2253 4666 
z
" transform="scale(0.015625)"/>
       </defs>
       <use xlink:href="#DejaVuSans-30"/>
       <use xlink:href="#DejaVuSans-2e" x="63.623047"/>
       <use xlink:href="#DejaVuSans-34" x="95.410156"/>
      </g>
     </g>
    </g>
    <g id="ytick_4">
     <g id="line2d_12">
      <g>
       <use xlink:href="#mc2ab98bed7" x="51.817344" y="185.988908" style="stroke: #000000; stroke-width: 0.8"/>
      </g>
     </g>
     <g id="text_13">
      <!-- 0.6 -->
      <g transform="translate(25.733594 190.54797) scale(0.12 -0.12)">
       <defs>
        <path id="DejaVuSans-36" d="M 2113 2584 
Q 1688 2584 1439 2293 
Q 1191 2003 1191 1497 
Q 1191 994 1439 701 
Q 1688 409 2113 409 
Q 2538 409 2786 701 
Q 3034 994 3034 1497 
Q 3034 2003 2786 2293 
Q 2538 2584 2113 2584 
z
M 3366 4563 
L 3366 3988 
Q 3128 4100 2886 4159 
Q 2644 4219 2406 4219 
Q 1781 4219 1451 3797 
Q 1122 3375 1075 2522 
Q 1259 2794 1537 2939 
Q 1816 3084 2150 3084 
Q 2853 3084 3261 2657 
Q 3669 2231 3669 1497 
Q 3669 778 3244 343 
Q 2819 -91 2113 -91 
Q 1303 -91 875 529 
Q 447 1150 447 2328 
Q 447 3434 972 4092 
Q 1497 4750 2381 4750 
Q 2619 4750 2861 4703 
Q 3103 4656 3366 4563 
z
" transform="scale(0.015625)"/>
       </defs>
       <use xlink:href="#DejaVuSans-30"/>
       <use xlink:href="#DejaVuSans-2e" x="63.623047"/>
       <use xlink:href="#DejaVuSans-36" x="95.410156"/>
      </g>
     </g>
    </g>
    <g id="ytick_5">
     <g id="line2d_13">
      <g>
       <use xlink:href="#mc2ab98bed7" x="51.817344" y="145.38521" style="stroke: #000000; stroke-width: 0.8"/>
      </g>
     </g>
     <g id="text_14">
      <!-- 0.8 -->
      <g transform="translate(25.733594 149.944273) scale(0.12 -0.12)">
       <defs>
        <path id="DejaVuSans-38" d="M 2034 2216 
Q 1584 2216 1326 1975 
Q 1069 1734 1069 1313 
Q 1069 891 1326 650 
Q 1584 409 2034 409 
Q 2484 409 2743 651 
Q 3003 894 3003 1313 
Q 3003 1734 2745 1975 
Q 2488 2216 2034 2216 
z
M 1403 2484 
Q 997 2584 770 2862 
Q 544 3141 544 3541 
Q 544 4100 942 4425 
Q 1341 4750 2034 4750 
Q 2731 4750 3128 4425 
Q 3525 4100 3525 3541 
Q 3525 3141 3298 2862 
Q 3072 2584 2669 2484 
Q 3125 2378 3379 2068 
Q 3634 1759 3634 1313 
Q 3634 634 3220 271 
Q 2806 -91 2034 -91 
Q 1263 -91 848 271 
Q 434 634 434 1313 
Q 434 1759 690 2068 
Q 947 2378 1403 2484 
z
M 1172 3481 
Q 1172 3119 1398 2916 
Q 1625 2713 2034 2713 
Q 2441 2713 2670 2916 
Q 2900 3119 2900 3481 
Q 2900 3844 2670 4047 
Q 2441 4250 2034 4250 
Q 1625 4250 1398 4047 
Q 1172 3844 1172 3481 
z
" transform="scale(0.015625)"/>
       </defs>
       <use xlink:href="#DejaVuSans-30"/>
       <use xlink:href="#DejaVuSans-2e" x="63.623047"/>
       <use xlink:href="#DejaVuSans-38" x="95.410156"/>
      </g>
     </g>
    </g>
    <g id="ytick_6">
     <g id="line2d_14">
      <g>
       <use xlink:href="#mc2ab98bed7" x="51.817344" y="104.781513" style="stroke: #000000; stroke-width: 0.8"/>
      </g>
     </g>
     <g id="text_15">
      <!-- 1.0 -->
      <g transform="translate(25.733594 109.340575) scale(0.12 -0.12)">
       <use xlink:href="#DejaVuSans-31"/>
       <use xlink:href="#DejaVuSans-2e" x="63.623047"/>
       <use xlink:href="#DejaVuSans-30" x="95.410156"/>
      </g>
     </g>
    </g>
    <g id="ytick_7">
     <g id="line2d_15">
      <g>
       <use xlink:href="#mc2ab98bed7" x="51.817344" y="64.177815" style="stroke: #000000; stroke-width: 0.8"/>
      </g>
     </g>
     <g id="text_16">
      <!-- 1.2 -->
      <g transform="translate(25.733594 68.736878) scale(0.12 -0.12)">
       <use xlink:href="#DejaVuSans-31"/>
       <use xlink:href="#DejaVuSans-2e" x="63.623047"/>
       <use xlink:href="#DejaVuSans-32" x="95.410156"/>
      </g>
     </g>
    </g>
    <g id="text_17">
     <!-- Glimepiride Plasma [µM] -->
     <g transform="translate(18.597656 286.194141) rotate(-90) scale(0.15 -0.15)">
      <defs>
       <path id="DejaVuSans-Bold-47" d="M 4781 347 
Q 4331 128 3847 18 
Q 3363 -91 2847 -91 
Q 1681 -91 1000 561 
Q 319 1213 319 2328 
Q 319 3456 1012 4103 
Q 1706 4750 2913 4750 
Q 3378 4750 3804 4662 
Q 4231 4575 4609 4403 
L 4609 3438 
Q 4219 3659 3833 3768 
Q 3447 3878 3059 3878 
Q 2341 3878 1952 3476 
Q 1563 3075 1563 2328 
Q 1563 1588 1938 1184 
Q 2313 781 3003 781 
Q 3191 781 3352 804 
Q 3513 828 3641 878 
L 3641 1784 
L 2906 1784 
L 2906 2591 
L 4781 2591 
L 4781 347 
z
" transform="scale(0.015625)"/>
       <path id="DejaVuSans-Bold-6c" d="M 538 4863 
L 1656 4863 
L 1656 0 
L 538 0 
L 538 4863 
z
" transform="scale(0.015625)"/>
       <path id="DejaVuSans-Bold-70" d="M 1656 506 
L 1656 -1331 
L 538 -1331 
L 538 3500 
L 1656 3500 
L 1656 2988 
Q 1888 3294 2169 3439 
Q 2450 3584 2816 3584 
Q 3463 3584 3878 3070 
Q 4294 2556 4294 1747 
Q 4294 938 3878 423 
Q 3463 -91 2816 -91 
Q 2450 -91 2169 54 
Q 1888 200 1656 506 
z
M 2400 2772 
Q 2041 2772 1848 2508 
Q 1656 2244 1656 1747 
Q 1656 1250 1848 986 
Q 2041 722 2400 722 
Q 2759 722 2948 984 
Q 3138 1247 3138 1747 
Q 3138 2247 2948 2509 
Q 2759 2772 2400 2772 
z
" transform="scale(0.015625)"/>
       <path id="DejaVuSans-Bold-64" d="M 2919 2988 
L 2919 4863 
L 4044 4863 
L 4044 0 
L 2919 0 
L 2919 506 
Q 2688 197 2409 53 
Q 2131 -91 1766 -91 
Q 1119 -91 703 423 
Q 288 938 288 1747 
Q 288 2556 703 3070 
Q 1119 3584 1766 3584 
Q 2128 3584 2408 3439 
Q 2688 3294 2919 2988 
z
M 2181 722 
Q 2541 722 2730 984 
Q 2919 1247 2919 1747 
Q 2919 2247 2730 2509 
Q 2541 2772 2181 2772 
Q 1825 2772 1636 2509 
Q 1447 2247 1447 1747 
Q 1447 1247 1636 984 
Q 1825 722 2181 722 
z
" transform="scale(0.015625)"/>
       <path id="DejaVuSans-Bold-50" d="M 588 4666 
L 2584 4666 
Q 3475 4666 3951 4270 
Q 4428 3875 4428 3144 
Q 4428 2409 3951 2014 
Q 3475 1619 2584 1619 
L 1791 1619 
L 1791 0 
L 588 0 
L 588 4666 
z
M 1791 3794 
L 1791 2491 
L 2456 2491 
Q 2806 2491 2997 2661 
Q 3188 2831 3188 3144 
Q 3188 3456 2997 3625 
Q 2806 3794 2456 3794 
L 1791 3794 
z
" transform="scale(0.015625)"/>
       <path id="DejaVuSans-Bold-61" d="M 2106 1575 
Q 1756 1575 1579 1456 
Q 1403 1338 1403 1106 
Q 1403 894 1545 773 
Q 1688 653 1941 653 
Q 2256 653 2472 879 
Q 2688 1106 2688 1447 
L 2688 1575 
L 2106 1575 
z
M 3816 1997 
L 3816 0 
L 2688 0 
L 2688 519 
Q 2463 200 2181 54 
Q 1900 -91 1497 -91 
Q 953 -91 614 226 
Q 275 544 275 1050 
Q 275 1666 698 1953 
Q 1122 2241 2028 2241 
L 2688 2241 
L 2688 2328 
Q 2688 2594 2478 2717 
Q 2269 2841 1825 2841 
Q 1466 2841 1156 2769 
Q 847 2697 581 2553 
L 581 3406 
Q 941 3494 1303 3539 
Q 1666 3584 2028 3584 
Q 2975 3584 3395 3211 
Q 3816 2838 3816 1997 
z
" transform="scale(0.015625)"/>
       <path id="DejaVuSans-Bold-73" d="M 3272 3391 
L 3272 2541 
Q 2913 2691 2578 2766 
Q 2244 2841 1947 2841 
Q 1628 2841 1473 2761 
Q 1319 2681 1319 2516 
Q 1319 2381 1436 2309 
Q 1553 2238 1856 2203 
L 2053 2175 
Q 2913 2066 3209 1816 
Q 3506 1566 3506 1031 
Q 3506 472 3093 190 
Q 2681 -91 1863 -91 
Q 1516 -91 1145 -36 
Q 775 19 384 128 
L 384 978 
Q 719 816 1070 734 
Q 1422 653 1784 653 
Q 2113 653 2278 743 
Q 2444 834 2444 1013 
Q 2444 1163 2330 1236 
Q 2216 1309 1875 1350 
L 1678 1375 
Q 931 1469 631 1722 
Q 331 1975 331 2491 
Q 331 3047 712 3315 
Q 1094 3584 1881 3584 
Q 2191 3584 2531 3537 
Q 2872 3491 3272 3391 
z
" transform="scale(0.015625)"/>
       <path id="DejaVuSans-Bold-b5" d="M 544 -1338 
L 544 3500 
L 1672 3500 
L 1672 1466 
Q 1672 1103 1828 926 
Q 1984 750 2303 750 
Q 2625 750 2781 926 
Q 2938 1103 2938 1466 
L 2938 3500 
L 4063 3500 
L 4063 1159 
Q 4063 938 4114 850 
Q 4166 763 4288 763 
Q 4344 763 4395 778 
Q 4447 794 4506 831 
L 4506 50 
Q 4341 -22 4195 -56 
Q 4050 -91 3909 -91 
Q 3631 -91 3454 26 
Q 3278 144 3169 403 
Q 3022 156 2811 32 
Q 2600 -91 2322 -91 
Q 2091 -91 1928 -17 
Q 1766 56 1672 206 
L 1672 -1338 
L 544 -1338 
z
" transform="scale(0.015625)"/>
       <path id="DejaVuSans-Bold-4d" d="M 588 4666 
L 2119 4666 
L 3181 2169 
L 4250 4666 
L 5778 4666 
L 5778 0 
L 4641 0 
L 4641 3413 
L 3566 897 
L 2803 897 
L 1728 3413 
L 1728 0 
L 588 0 
L 588 4666 
z
" transform="scale(0.015625)"/>
      </defs>
      <use xlink:href="#DejaVuSans-Bold-47"/>
      <use xlink:href="#DejaVuSans-Bold-6c" x="82.080078"/>
      <use xlink:href="#DejaVuSans-Bold-69" x="116.357422"/>
      <use xlink:href="#DejaVuSans-Bold-6d" x="150.634766"/>
      <use xlink:href="#DejaVuSans-Bold-65" x="254.833984"/>
      <use xlink:href="#DejaVuSans-Bold-70" x="322.65625"/>
      <use xlink:href="#DejaVuSans-Bold-69" x="394.238281"/>
      <use xlink:href="#DejaVuSans-Bold-72" x="428.515625"/>
      <use xlink:href="#DejaVuSans-Bold-69" x="477.832031"/>
      <use xlink:href="#DejaVuSans-Bold-64" x="512.109375"/>
      <use xlink:href="#DejaVuSans-Bold-65" x="583.691406"/>
      <use xlink:href="#DejaVuSans-Bold-20" x="651.513672"/>
      <use xlink:href="#DejaVuSans-Bold-50" x="686.328125"/>
      <use xlink:href="#DejaVuSans-Bold-6c" x="759.619141"/>
      <use xlink:href="#DejaVuSans-Bold-61" x="793.896484"/>
      <use xlink:href="#DejaVuSans-Bold-73" x="861.376953"/>
      <use xlink:href="#DejaVuSans-Bold-6d" x="920.898438"/>
      <use xlink:href="#DejaVuSans-Bold-61" x="1025.097656"/>
      <use xlink:href="#DejaVuSans-Bold-20" x="1092.578125"/>
      <use xlink:href="#DejaVuSans-Bold-5b" x="1127.392578"/>
      <use xlink:href="#DejaVuSans-Bold-b5" x="1173.095703"/>
      <use xlink:href="#DejaVuSans-Bold-4d" x="1246.679688"/>
      <use xlink:href="#DejaVuSans-Bold-5d" x="1346.191406"/>
     </g>
    </g>
   </g>
   <g id="line2d_16">
    <path d="M 73.314317 307.8 
L 74.174196 307.395513 
L 75.034075 306.180121 
L 75.893954 304.409862 
L 77.613711 299.993616 
L 80.193348 293.028486 
L 81.913106 288.942694 
L 83.632864 285.568383 
L 85.352622 282.958562 
L 86.212501 281.933321 
L 87.07238 281.084401 
L 87.932258 280.401869 
L 88.792137 279.874719 
L 89.652016 279.491368 
L 90.511895 279.240022 
L 92.231653 279.08673 
L 93.951411 279.325181 
L 95.671169 279.873786 
L 97.390927 280.660806 
L 99.970563 282.156524 
L 103.410079 284.491168 
L 112.868747 291.1325 
L 117.168142 293.778024 
L 120.607657 295.647189 
L 124.047173 297.29353 
L 127.486689 298.727513 
L 131.786083 300.247556 
L 136.085478 301.501469 
L 140.384873 302.528981 
L 145.544146 303.515106 
L 150.70342 304.284565 
L 156.722572 304.970185 
L 164.461482 305.604289 
L 173.920151 306.121449 
L 185.958455 306.527697 
L 202.296155 306.837701 
L 228.952402 307.092316 
L 282.264895 307.337799 
L 387.170123 307.577787 
L 503.253777 307.695712 
L 503.253777 307.695712 
" clip-path="url(#pf8169e119f)" style="fill: none; stroke: #fff7bc; stroke-width: 2; stroke-linecap: square"/>
   </g>
   <g id="line2d_17">
    <path d="M 75.464014 304.94062 
L 77.613711 299.234273 
L 79.763409 296.188681 
L 81.913106 291.181662 
L 86.212501 282.140062 
L 90.511895 272.639139 
L 94.81129 270.677712 
L 99.110684 281.002103 
L 103.410079 287.593988 
L 107.709474 291.889266 
L 124.907052 300.831554 
L 142.10463 303.086781 
L 159.302209 304.24543 
L 176.499787 303.748866 
L 193.697366 304.324053 
L 210.894944 305.342009 
" clip-path="url(#pf8169e119f)" style="fill: none; stroke-dasharray: 3.7,1.6; stroke-dashoffset: 0; stroke: #fff7bc"/>
    <defs>
     <path id="m0cff080938" d="M -3 3 
L 3 3 
L 3 -3 
L -3 -3 
z
" style="stroke: #000000; stroke-linejoin: miter"/>
    </defs>
    <g clip-path="url(#pf8169e119f)">
     <use xlink:href="#m0cff080938" x="75.464014" y="304.94062" style="fill: #fff7bc; stroke: #000000; stroke-linejoin: miter"/>
     <use xlink:href="#m0cff080938" x="77.613711" y="299.234273" style="fill: #fff7bc; stroke: #000000; stroke-linejoin: miter"/>
     <use xlink:href="#m0cff080938" x="79.763409" y="296.188681" style="fill: #fff7bc; stroke: #000000; stroke-linejoin: miter"/>
     <use xlink:href="#m0cff080938" x="81.913106" y="291.181662" style="fill: #fff7bc; stroke: #000000; stroke-linejoin: miter"/>
     <use xlink:href="#m0cff080938" x="86.212501" y="282.140062" style="fill: #fff7bc; stroke: #000000; stroke-linejoin: miter"/>
     <use xlink:href="#m0cff080938" x="90.511895" y="272.639139" style="fill: #fff7bc; stroke: #000000; stroke-linejoin: miter"/>
     <use xlink:href="#m0cff080938" x="94.81129" y="270.677712" style="fill: #fff7bc; stroke: #000000; stroke-linejoin: miter"/>
     <use xlink:href="#m0cff080938" x="99.110684" y="281.002103" style="fill: #fff7bc; stroke: #000000; stroke-linejoin: miter"/>
     <use xlink:href="#m0cff080938" x="103.410079" y="287.593988" style="fill: #fff7bc; stroke: #000000; stroke-linejoin: miter"/>
     <use xlink:href="#m0cff080938" x="107.709474" y="291.889266" style="fill: #fff7bc; stroke: #000000; stroke-linejoin: miter"/>
     <use xlink:href="#m0cff080938" x="124.907052" y="300.831554" style="fill: #fff7bc; stroke: #000000; stroke-linejoin: miter"/>
     <use xlink:href="#m0cff080938" x="142.10463" y="303.086781" style="fill: #fff7bc; stroke: #000000; stroke-linejoin: miter"/>
     <use xlink:href="#m0cff080938" x="159.302209" y="304.24543" style="fill: #fff7bc; stroke: #000000; stroke-linejoin: miter"/>
     <use xlink:href="#m0cff080938" x="176.499787" y="303.748866" style="fill: #fff7bc; stroke: #000000; stroke-linejoin: miter"/>
     <use xlink:href="#m0cff080938" x="193.697366" y="304.324053" style="fill: #fff7bc; stroke: #000000; stroke-linejoin: miter"/>
     <use xlink:href="#m0cff080938" x="210.894944" y="305.342009" style="fill: #fff7bc; stroke: #000000; stroke-linejoin: miter"/>
    </g>
   </g>
   <g id="line2d_18">
    <path d="M 73.314317 307.8 
L 74.174196 306.991009 
L 75.034075 304.559912 
L 75.893954 301.017958 
L 77.613711 292.174059 
L 80.193348 278.186512 
L 81.913106 269.942024 
L 83.632864 263.093618 
L 85.352622 257.752635 
L 86.212501 255.635653 
L 87.07238 253.868731 
L 87.932258 252.432972 
L 88.792137 251.307301 
L 89.652016 250.469423 
L 90.511895 249.896552 
L 91.371774 249.565957 
L 92.231653 249.455371 
L 93.091532 249.543278 
L 93.951411 249.809121 
L 94.81129 250.233435 
L 96.531048 251.485515 
L 98.250806 253.167772 
L 99.970563 255.167667 
L 102.5502 258.561011 
L 107.709474 265.92772 
L 112.008868 271.95363 
L 115.448384 276.423209 
L 118.8879 280.483716 
L 121.467536 283.240979 
L 124.047173 285.750891 
L 126.62681 288.021119 
L 129.206447 290.063963 
L 132.645962 292.46028 
L 136.085478 294.518367 
L 139.524994 296.278056 
L 142.964509 297.777601 
L 146.404025 299.052405 
L 150.70342 300.378185 
L 155.002814 301.456876 
L 160.162088 302.4892 
L 165.321361 303.29613 
L 171.340514 304.02022 
L 179.079424 304.70023 
L 188.538092 305.271186 
L 200.576397 305.743296 
L 216.914097 306.137033 
L 241.850585 306.492801 
L 285.70441 306.867115 
L 356.214482 307.232032 
L 455.100558 307.50746 
L 503.253777 307.584448 
L 503.253777 307.584448 
" clip-path="url(#pf8169e119f)" style="fill: none; stroke: #fee391; stroke-width: 2; stroke-linecap: square"/>
   </g>
   <g id="line2d_19">
    <path d="M 75.464014 305.370975 
L 77.613711 298.249421 
L 79.763409 285.76084 
L 81.913106 275.212995 
L 86.212501 253.509016 
L 90.511895 244.595694 
L 94.81129 239.601089 
L 99.110684 256.935307 
L 103.410079 270.677712 
L 107.709474 279.504135 
L 124.907052 294.570711 
L 142.10463 299.32531 
L 159.302209 301.812267 
L 176.499787 303.285407 
L 193.697366 304.282673 
L 210.894944 301.613642 
L 245.290101 304.969586 
L 279.685258 305.420631 
" clip-path="url(#pf8169e119f)" style="fill: none; stroke-dasharray: 3.7,1.6; stroke-dashoffset: 0; stroke: #fee391"/>
    <defs>
     <path id="m1cb59c13b9" d="M -3 3 
L 3 3 
L 3 -3 
L -3 -3 
z
" style="stroke: #000000; stroke-linejoin: miter"/>
    </defs>
    <g clip-path="url(#pf8169e119f)">
     <use xlink:href="#m1cb59c13b9" x="75.464014" y="305.370975" style="fill: #fee391; stroke: #000000; stroke-linejoin: miter"/>
     <use xlink:href="#m1cb59c13b9" x="77.613711" y="298.249421" style="fill: #fee391; stroke: #000000; stroke-linejoin: miter"/>
     <use xlink:href="#m1cb59c13b9" x="79.763409" y="285.76084" style="fill: #fee391; stroke: #000000; stroke-linejoin: miter"/>
     <use xlink:href="#m1cb59c13b9" x="81.913106" y="275.212995" style="fill: #fee391; stroke: #000000; stroke-linejoin: miter"/>
     <use xlink:href="#m1cb59c13b9" x="86.212501" y="253.509016" style="fill: #fee391; stroke: #000000; stroke-linejoin: miter"/>
     <use xlink:href="#m1cb59c13b9" x="90.511895" y="244.595694" style="fill: #fee391; stroke: #000000; stroke-linejoin: miter"/>
     <use xlink:href="#m1cb59c13b9" x="94.81129" y="239.601089" style="fill: #fee391; stroke: #000000; stroke-linejoin: miter"/>
     <use xlink:href="#m1cb59c13b9" x="99.110684" y="256.935307" style="fill: #fee391; stroke: #000000; stroke-linejoin: miter"/>
     <use xlink:href="#m1cb59c13b9" x="103.410079" y="270.677712" style="fill: #fee391; stroke: #000000; stroke-linejoin: miter"/>
     <use xlink:href="#m1cb59c13b9" x="107.709474" y="279.504135" style="fill: #fee391; stroke: #000000; stroke-linejoin: miter"/>
     <use xlink:href="#m1cb59c13b9" x="124.907052" y="294.570711" style="fill: #fee391; stroke: #000000; stroke-linejoin: miter"/>
     <use xlink:href="#m1cb59c13b9" x="142.10463" y="299.32531" style="fill: #fee391; stroke: #000000; stroke-linejoin: miter"/>
     <use xlink:href="#m1cb59c13b9" x="159.302209" y="301.812267" style="fill: #fee391; stroke: #000000; stroke-linejoin: miter"/>
     <use xlink:href="#m1cb59c13b9" x="176.499787" y="303.285407" style="fill: #fee391; stroke: #000000; stroke-linejoin: miter"/>
     <use xlink:href="#m1cb59c13b9" x="193.697366" y="304.282673" style="fill: #fee391; stroke: #000000; stroke-linejoin: miter"/>
     <use xlink:href="#m1cb59c13b9" x="210.894944" y="301.613642" style="fill: #fee391; stroke: #000000; stroke-linejoin: miter"/>
     <use xlink:href="#m1cb59c13b9" x="245.290101" y="304.969586" style="fill: #fee391; stroke: #000000; stroke-linejoin: miter"/>
     <use xlink:href="#m1cb59c13b9" x="279.685258" y="305.420631" style="fill: #fee391; stroke: #000000; stroke-linejoin: miter"/>
    </g>
   </g>
   <g id="line2d_20">
    <path d="M 73.314317 307.8 
L 74.174196 306.181951 
L 75.034075 301.318515 
L 75.893954 294.228986 
L 77.613711 276.497387 
L 80.193348 248.308825 
L 81.913106 231.553989 
L 83.632864 217.497721 
L 85.352622 206.381588 
L 86.212501 201.910088 
L 87.07238 198.129346 
L 87.932258 195.004725 
L 88.792137 192.497092 
L 89.652016 190.564684 
L 90.511895 189.164531 
L 91.371774 188.253528 
L 92.231653 187.789236 
L 93.091532 187.73046 
L 93.951411 188.037663 
L 94.81129 188.673243 
L 95.671169 189.601707 
L 96.531048 190.789767 
L 98.250806 193.822701 
L 99.970563 197.550082 
L 101.690321 201.783618 
L 104.269958 208.746043 
L 115.448384 239.90828 
L 118.8879 248.355747 
L 121.467536 254.149471 
L 124.047173 259.464403 
L 126.62681 264.30606 
L 129.206447 268.691271 
L 131.786083 272.644217 
L 134.36572 276.19349 
L 136.945357 279.369917 
L 139.524994 282.20501 
L 142.10463 284.729861 
L 144.684267 286.974404 
L 147.263904 288.966938 
L 149.843541 290.733838 
L 153.283056 292.780454 
L 156.722572 294.520807 
L 160.162088 296.000353 
L 163.601604 297.25854 
L 167.900998 298.571278 
L 172.200393 299.64666 
L 177.359666 300.687414 
L 183.378819 301.635179 
L 190.25785 302.45809 
L 197.99676 303.148337 
L 207.455429 303.763906 
L 219.493733 304.320039 
L 236.691312 304.868442 
L 261.627801 305.414929 
L 298.602594 305.98457 
L 348.475572 306.521713 
L 411.246733 306.96711 
L 492.075351 307.307633 
L 503.253777 307.340779 
L 503.253777 307.340779 
" clip-path="url(#pf8169e119f)" style="fill: none; stroke: #fe9929; stroke-width: 2; stroke-linecap: square"/>
   </g>
   <g id="line2d_21">
    <path d="M 75.464014 297.934931 
L 77.613711 286.232575 
L 79.763409 264.58239 
L 81.913106 241.78597 
L 86.212501 218.327465 
L 90.511895 201.34498 
L 94.81129 186.522548 
L 99.110684 217.346751 
L 103.410079 235.007873 
L 107.709474 247.281277 
L 124.907052 278.88343 
L 142.10463 287.374672 
L 159.302209 296.060402 
L 176.499787 298.853574 
L 193.697366 301.683988 
L 210.894944 302.714358 
L 245.290101 304.088185 
L 279.685258 304.324053 
L 314.080415 304.679924 
L 348.475572 305.420631 
L 382.870728 305.822021 
" clip-path="url(#pf8169e119f)" style="fill: none; stroke-dasharray: 3.7,1.6; stroke-dashoffset: 0; stroke: #fe9929"/>
    <defs>
     <path id="ma0debb2f58" d="M -3 3 
L 3 3 
L 3 -3 
L -3 -3 
z
" style="stroke: #000000; stroke-linejoin: miter"/>
    </defs>
    <g clip-path="url(#pf8169e119f)">
     <use xlink:href="#ma0debb2f58" x="75.464014" y="297.934931" style="fill: #fe9929; stroke: #000000; stroke-linejoin: miter"/>
     <use xlink:href="#ma0debb2f58" x="77.613711" y="286.232575" style="fill: #fe9929; stroke: #000000; stroke-linejoin: miter"/>
     <use xlink:href="#ma0debb2f58" x="79.763409" y="264.58239" style="fill: #fe9929; stroke: #000000; stroke-linejoin: miter"/>
     <use xlink:href="#ma0debb2f58" x="81.913106" y="241.78597" style="fill: #fe9929; stroke: #000000; stroke-linejoin: miter"/>
     <use xlink:href="#ma0debb2f58" x="86.212501" y="218.327465" style="fill: #fe9929; stroke: #000000; stroke-linejoin: miter"/>
     <use xlink:href="#ma0debb2f58" x="90.511895" y="201.34498" style="fill: #fe9929; stroke: #000000; stroke-linejoin: miter"/>
     <use xlink:href="#ma0debb2f58" x="94.81129" y="186.522548" style="fill: #fe9929; stroke: #000000; stroke-linejoin: miter"/>
     <use xlink:href="#ma0debb2f58" x="99.110684" y="217.346751" style="fill: #fe9929; stroke: #000000; stroke-linejoin: miter"/>
     <use xlink:href="#ma0debb2f58" x="103.410079" y="235.007873" style="fill: #fe9929; stroke: #000000; stroke-linejoin: miter"/>
     <use xlink:href="#ma0debb2f58" x="107.709474" y="247.281277" style="fill: #fe9929; stroke: #000000; stroke-linejoin: miter"/>
     <use xlink:href="#ma0debb2f58" x="124.907052" y="278.88343" style="fill: #fe9929; stroke: #000000; stroke-linejoin: miter"/>
     <use xlink:href="#ma0debb2f58" x="142.10463" y="287.374672" style="fill: #fe9929; stroke: #000000; stroke-linejoin: miter"/>
     <use xlink:href="#ma0debb2f58" x="159.302209" y="296.060402" style="fill: #fe9929; stroke: #000000; stroke-linejoin: miter"/>
     <use xlink:href="#ma0debb2f58" x="176.499787" y="298.853574" style="fill: #fe9929; stroke: #000000; stroke-linejoin: miter"/>
     <use xlink:href="#ma0debb2f58" x="193.697366" y="301.683988" style="fill: #fe9929; stroke: #000000; stroke-linejoin: miter"/>
     <use xlink:href="#ma0debb2f58" x="210.894944" y="302.714358" style="fill: #fe9929; stroke: #000000; stroke-linejoin: miter"/>
     <use xlink:href="#ma0debb2f58" x="245.290101" y="304.088185" style="fill: #fe9929; stroke: #000000; stroke-linejoin: miter"/>
     <use xlink:href="#ma0debb2f58" x="279.685258" y="304.324053" style="fill: #fe9929; stroke: #000000; stroke-linejoin: miter"/>
     <use xlink:href="#ma0debb2f58" x="314.080415" y="304.679924" style="fill: #fe9929; stroke: #000000; stroke-linejoin: miter"/>
     <use xlink:href="#ma0debb2f58" x="348.475572" y="305.420631" style="fill: #fe9929; stroke: #000000; stroke-linejoin: miter"/>
     <use xlink:href="#ma0debb2f58" x="382.870728" y="305.822021" style="fill: #fe9929; stroke: #000000; stroke-linejoin: miter"/>
    </g>
   </g>
   <g id="line2d_22">
    <path d="M 73.314317 307.8 
L 74.174196 304.563634 
L 75.034075 294.831902 
L 75.893954 280.631258 
L 77.613711 245.00622 
L 81.053227 170.112372 
L 82.772985 138.141891 
L 84.492743 111.655916 
L 86.212501 90.840704 
L 87.07238 82.484196 
L 87.932258 75.41897 
L 88.792137 69.574951 
L 89.652016 64.876249 
L 90.511895 61.243955 
L 91.371774 58.59827 
L 92.231653 56.860087 
L 93.091532 55.952172 
L 93.951411 55.8 
L 94.81129 56.332336 
L 95.671169 57.481614 
L 96.531048 59.184158 
L 97.390927 61.380282 
L 98.250806 64.014304 
L 99.970563 70.392922 
L 101.690321 77.951276 
L 104.269958 90.831468 
L 107.709474 109.625616 
L 115.448384 152.551662 
L 118.8879 170.224293 
L 122.327415 186.512092 
L 124.907052 197.73361 
L 127.486689 208.082694 
L 130.066326 217.568428 
L 132.645962 226.217373 
L 135.225599 234.068093 
L 137.805236 241.166933 
L 140.384873 247.564784 
L 142.964509 253.314627 
L 145.544146 258.469716 
L 148.123783 263.082238 
L 150.70342 267.202376 
L 153.283056 270.877675 
L 155.862693 274.152651 
L 158.44233 277.068576 
L 161.021967 279.663407 
L 163.601604 281.971814 
L 166.18124 284.025285 
L 168.760877 285.852273 
L 172.200393 287.979816 
L 175.639908 289.803394 
L 179.079424 291.368977 
L 182.51894 292.715914 
L 186.818334 294.142738 
L 191.117729 295.334654 
L 196.277003 296.51685 
L 202.296155 297.629604 
L 209.175186 298.638347 
L 216.914097 299.531491 
L 226.372765 300.38358 
L 238.41107 301.220405 
L 253.88889 302.049653 
L 273.666105 302.876949 
L 299.462473 303.728441 
L 331.277993 304.552598 
L 369.112666 305.304062 
L 412.966491 305.947995 
L 465.419105 306.489308 
L 503.253777 306.768783 
L 503.253777 306.768783 
" clip-path="url(#pf8169e119f)" style="fill: none; stroke: #662506; stroke-width: 2; stroke-linecap: square"/>
   </g>
   <g id="line2d_23">
    <path d="M 75.464014 302.821947 
L 77.613711 267.309354 
L 79.763409 233.410593 
L 81.913106 206.972704 
L 86.212501 168.133133 
L 90.511895 124.559652 
L 94.81129 128.499059 
L 99.110684 157.101139 
L 103.410079 172.610484 
L 107.709474 185.198378 
L 124.907052 234.213371 
L 142.10463 264.58239 
L 159.302209 276.599236 
L 176.499787 284.275286 
L 193.697366 295.133483 
L 210.894944 300.281195 
L 245.290101 301.547433 
L 279.685258 302.130896 
L 314.080415 302.929536 
L 348.475572 303.38472 
L 382.870728 303.616449 
" clip-path="url(#pf8169e119f)" style="fill: none; stroke-dasharray: 3.7,1.6; stroke-dashoffset: 0; stroke: #662506"/>
    <defs>
     <path id="mb0966feda9" d="M -3 3 
L 3 3 
L 3 -3 
L -3 -3 
z
" style="stroke: #000000; stroke-linejoin: miter"/>
    </defs>
    <g clip-path="url(#pf8169e119f)">
     <use xlink:href="#mb0966feda9" x="75.464014" y="302.821947" style="fill: #662506; stroke: #000000; stroke-linejoin: miter"/>
     <use xlink:href="#mb0966feda9" x="77.613711" y="267.309354" style="fill: #662506; stroke: #000000; stroke-linejoin: miter"/>
     <use xlink:href="#mb0966feda9" x="79.763409" y="233.410593" style="fill: #662506; stroke: #000000; stroke-linejoin: miter"/>
     <use xlink:href="#mb0966feda9" x="81.913106" y="206.972704" style="fill: #662506; stroke: #000000; stroke-linejoin: miter"/>
     <use xlink:href="#mb0966feda9" x="86.212501" y="168.133133" style="fill: #662506; stroke: #000000; stroke-linejoin: miter"/>
     <use xlink:href="#mb0966feda9" x="90.511895" y="124.559652" style="fill: #662506; stroke: #000000; stroke-linejoin: miter"/>
     <use xlink:href="#mb0966feda9" x="94.81129" y="128.499059" style="fill: #662506; stroke: #000000; stroke-linejoin: miter"/>
     <use xlink:href="#mb0966feda9" x="99.110684" y="157.101139" style="fill: #662506; stroke: #000000; stroke-linejoin: miter"/>
     <use xlink:href="#mb0966feda9" x="103.410079" y="172.610484" style="fill: #662506; stroke: #000000; stroke-linejoin: miter"/>
     <use xlink:href="#mb0966feda9" x="107.709474" y="185.198378" style="fill: #662506; stroke: #000000; stroke-linejoin: miter"/>
     <use xlink:href="#mb0966feda9" x="124.907052" y="234.213371" style="fill: #662506; stroke: #000000; stroke-linejoin: miter"/>
     <use xlink:href="#mb0966feda9" x="142.10463" y="264.58239" style="fill: #662506; stroke: #000000; stroke-linejoin: miter"/>
     <use xlink:href="#mb0966feda9" x="159.302209" y="276.599236" style="fill: #662506; stroke: #000000; stroke-linejoin: miter"/>
     <use xlink:href="#mb0966feda9" x="176.499787" y="284.275286" style="fill: #662506; stroke: #000000; stroke-linejoin: miter"/>
     <use xlink:href="#mb0966feda9" x="193.697366" y="295.133483" style="fill: #662506; stroke: #000000; stroke-linejoin: miter"/>
     <use xlink:href="#mb0966feda9" x="210.894944" y="300.281195" style="fill: #662506; stroke: #000000; stroke-linejoin: miter"/>
     <use xlink:href="#mb0966feda9" x="245.290101" y="301.547433" style="fill: #662506; stroke: #000000; stroke-linejoin: miter"/>
     <use xlink:href="#mb0966feda9" x="279.685258" y="302.130896" style="fill: #662506; stroke: #000000; stroke-linejoin: miter"/>
     <use xlink:href="#mb0966feda9" x="314.080415" y="302.929536" style="fill: #662506; stroke: #000000; stroke-linejoin: miter"/>
     <use xlink:href="#mb0966feda9" x="348.475572" y="303.38472" style="fill: #662506; stroke: #000000; stroke-linejoin: miter"/>
     <use xlink:href="#mb0966feda9" x="382.870728" y="303.616449" style="fill: #662506; stroke: #000000; stroke-linejoin: miter"/>
    </g>
   </g>
   <g id="patch_3">
    <path d="M 51.817344 320.4 
L 51.817344 43.2 
" style="fill: none; stroke: #000000; stroke-width: 0.8; stroke-linejoin: miter; stroke-linecap: square"/>
   </g>
   <g id="patch_4">
    <path d="M 391.469518 320.4 
L 391.469518 43.2 
" style="fill: none; stroke: #000000; stroke-width: 0.8; stroke-linejoin: miter; stroke-linecap: square"/>
   </g>
   <g id="patch_5">
    <path d="M 51.817344 320.4 
L 391.469518 320.4 
" style="fill: none; stroke: #000000; stroke-width: 0.8; stroke-linejoin: miter; stroke-linecap: square"/>
   </g>
   <g id="patch_6">
    <path d="M 51.817344 43.2 
L 391.469518 43.2 
" style="fill: none; stroke: #000000; stroke-width: 0.8; stroke-linejoin: miter; stroke-linecap: square"/>
   </g>
   <g id="legend_1">
    <g id="patch_7">
     <path d="M 261.86108 156.0825 
L 385.169518 156.0825 
Q 386.969518 156.0825 386.969518 154.2825 
L 386.969518 49.5 
Q 386.969518 47.7 385.169518 47.7 
L 261.86108 47.7 
Q 260.06108 47.7 260.06108 49.5 
L 260.06108 154.2825 
Q 260.06108 156.0825 261.86108 156.0825 
z
" style="fill: #ffffff; opacity: 0.8; stroke: #cccccc; stroke-linejoin: miter"/>
    </g>
    <g id="line2d_24">
     <path d="M 263.66108 54.988594 
L 281.66108 54.988594 
" style="fill: none; stroke: #fff7bc; stroke-width: 2; stroke-linecap: square"/>
    </g>
    <g id="line2d_25"/>
    <g id="text_18">
     <!-- Sim gli 1 mg po -->
     <g transform="translate(288.86108 58.138594) scale(0.09 -0.09)">
      <defs>
       <path id="DejaVuSans-53" d="M 3425 4513 
L 3425 3897 
Q 3066 4069 2747 4153 
Q 2428 4238 2131 4238 
Q 1616 4238 1336 4038 
Q 1056 3838 1056 3469 
Q 1056 3159 1242 3001 
Q 1428 2844 1947 2747 
L 2328 2669 
Q 3034 2534 3370 2195 
Q 3706 1856 3706 1288 
Q 3706 609 3251 259 
Q 2797 -91 1919 -91 
Q 1588 -91 1214 -16 
Q 841 59 441 206 
L 441 856 
Q 825 641 1194 531 
Q 1563 422 1919 422 
Q 2459 422 2753 634 
Q 3047 847 3047 1241 
Q 3047 1584 2836 1778 
Q 2625 1972 2144 2069 
L 1759 2144 
Q 1053 2284 737 2584 
Q 422 2884 422 3419 
Q 422 4038 858 4394 
Q 1294 4750 2059 4750 
Q 2388 4750 2728 4690 
Q 3069 4631 3425 4513 
z
" transform="scale(0.015625)"/>
       <path id="DejaVuSans-69" d="M 603 3500 
L 1178 3500 
L 1178 0 
L 603 0 
L 603 3500 
z
M 603 4863 
L 1178 4863 
L 1178 4134 
L 603 4134 
L 603 4863 
z
" transform="scale(0.015625)"/>
       <path id="DejaVuSans-6d" d="M 3328 2828 
Q 3544 3216 3844 3400 
Q 4144 3584 4550 3584 
Q 5097 3584 5394 3201 
Q 5691 2819 5691 2113 
L 5691 0 
L 5113 0 
L 5113 2094 
Q 5113 2597 4934 2840 
Q 4756 3084 4391 3084 
Q 3944 3084 3684 2787 
Q 3425 2491 3425 1978 
L 3425 0 
L 2847 0 
L 2847 2094 
Q 2847 2600 2669 2842 
Q 2491 3084 2119 3084 
Q 1678 3084 1418 2786 
Q 1159 2488 1159 1978 
L 1159 0 
L 581 0 
L 581 3500 
L 1159 3500 
L 1159 2956 
Q 1356 3278 1631 3431 
Q 1906 3584 2284 3584 
Q 2666 3584 2933 3390 
Q 3200 3197 3328 2828 
z
" transform="scale(0.015625)"/>
       <path id="DejaVuSans-20" transform="scale(0.015625)"/>
       <path id="DejaVuSans-67" d="M 2906 1791 
Q 2906 2416 2648 2759 
Q 2391 3103 1925 3103 
Q 1463 3103 1205 2759 
Q 947 2416 947 1791 
Q 947 1169 1205 825 
Q 1463 481 1925 481 
Q 2391 481 2648 825 
Q 2906 1169 2906 1791 
z
M 3481 434 
Q 3481 -459 3084 -895 
Q 2688 -1331 1869 -1331 
Q 1566 -1331 1297 -1286 
Q 1028 -1241 775 -1147 
L 775 -588 
Q 1028 -725 1275 -790 
Q 1522 -856 1778 -856 
Q 2344 -856 2625 -561 
Q 2906 -266 2906 331 
L 2906 616 
Q 2728 306 2450 153 
Q 2172 0 1784 0 
Q 1141 0 747 490 
Q 353 981 353 1791 
Q 353 2603 747 3093 
Q 1141 3584 1784 3584 
Q 2172 3584 2450 3431 
Q 2728 3278 2906 2969 
L 2906 3500 
L 3481 3500 
L 3481 434 
z
" transform="scale(0.015625)"/>
       <path id="DejaVuSans-6c" d="M 603 4863 
L 1178 4863 
L 1178 0 
L 603 0 
L 603 4863 
z
" transform="scale(0.015625)"/>
       <path id="DejaVuSans-70" d="M 1159 525 
L 1159 -1331 
L 581 -1331 
L 581 3500 
L 1159 3500 
L 1159 2969 
Q 1341 3281 1617 3432 
Q 1894 3584 2278 3584 
Q 2916 3584 3314 3078 
Q 3713 2572 3713 1747 
Q 3713 922 3314 415 
Q 2916 -91 2278 -91 
Q 1894 -91 1617 61 
Q 1341 213 1159 525 
z
M 3116 1747 
Q 3116 2381 2855 2742 
Q 2594 3103 2138 3103 
Q 1681 3103 1420 2742 
Q 1159 2381 1159 1747 
Q 1159 1113 1420 752 
Q 1681 391 2138 391 
Q 2594 391 2855 752 
Q 3116 1113 3116 1747 
z
" transform="scale(0.015625)"/>
       <path id="DejaVuSans-6f" d="M 1959 3097 
Q 1497 3097 1228 2736 
Q 959 2375 959 1747 
Q 959 1119 1226 758 
Q 1494 397 1959 397 
Q 2419 397 2687 759 
Q 2956 1122 2956 1747 
Q 2956 2369 2687 2733 
Q 2419 3097 1959 3097 
z
M 1959 3584 
Q 2709 3584 3137 3096 
Q 3566 2609 3566 1747 
Q 3566 888 3137 398 
Q 2709 -91 1959 -91 
Q 1206 -91 779 398 
Q 353 888 353 1747 
Q 353 2609 779 3096 
Q 1206 3584 1959 3584 
z
" transform="scale(0.015625)"/>
      </defs>
      <use xlink:href="#DejaVuSans-53"/>
      <use xlink:href="#DejaVuSans-69" x="63.476562"/>
      <use xlink:href="#DejaVuSans-6d" x="91.259766"/>
      <use xlink:href="#DejaVuSans-20" x="188.671875"/>
      <use xlink:href="#DejaVuSans-67" x="220.458984"/>
      <use xlink:href="#DejaVuSans-6c" x="283.935547"/>
      <use xlink:href="#DejaVuSans-69" x="311.71875"/>
      <use xlink:href="#DejaVuSans-20" x="339.501953"/>
      <use xlink:href="#DejaVuSans-31" x="371.289062"/>
      <use xlink:href="#DejaVuSans-20" x="434.912109"/>
      <use xlink:href="#DejaVuSans-6d" x="466.699219"/>
      <use xlink:href="#DejaVuSans-67" x="564.111328"/>
      <use xlink:href="#DejaVuSans-20" x="627.587891"/>
      <use xlink:href="#DejaVuSans-70" x="659.375"/>
      <use xlink:href="#DejaVuSans-6f" x="722.851562"/>
     </g>
    </g>
    <g id="line2d_26">
     <path d="M 263.66108 68.198906 
L 281.66108 68.198906 
" style="fill: none; stroke-dasharray: 3.7,1.6; stroke-dashoffset: 0; stroke: #fff7bc"/>
    </g>
    <g id="line2d_27">
     <g>
      <use xlink:href="#m0cff080938" x="272.66108" y="68.198906" style="fill: #fff7bc; stroke: #000000; stroke-linejoin: miter"/>
     </g>
    </g>
    <g id="text_19">
     <!-- Data 1mg PO (n=12) -->
     <g transform="translate(288.86108 71.348906) scale(0.09 -0.09)">
      <defs>
       <path id="DejaVuSans-44" d="M 1259 4147 
L 1259 519 
L 2022 519 
Q 2988 519 3436 956 
Q 3884 1394 3884 2338 
Q 3884 3275 3436 3711 
Q 2988 4147 2022 4147 
L 1259 4147 
z
M 628 4666 
L 1925 4666 
Q 3281 4666 3915 4102 
Q 4550 3538 4550 2338 
Q 4550 1131 3912 565 
Q 3275 0 1925 0 
L 628 0 
L 628 4666 
z
" transform="scale(0.015625)"/>
       <path id="DejaVuSans-61" d="M 2194 1759 
Q 1497 1759 1228 1600 
Q 959 1441 959 1056 
Q 959 750 1161 570 
Q 1363 391 1709 391 
Q 2188 391 2477 730 
Q 2766 1069 2766 1631 
L 2766 1759 
L 2194 1759 
z
M 3341 1997 
L 3341 0 
L 2766 0 
L 2766 531 
Q 2569 213 2275 61 
Q 1981 -91 1556 -91 
Q 1019 -91 701 211 
Q 384 513 384 1019 
Q 384 1609 779 1909 
Q 1175 2209 1959 2209 
L 2766 2209 
L 2766 2266 
Q 2766 2663 2505 2880 
Q 2244 3097 1772 3097 
Q 1472 3097 1187 3025 
Q 903 2953 641 2809 
L 641 3341 
Q 956 3463 1253 3523 
Q 1550 3584 1831 3584 
Q 2591 3584 2966 3190 
Q 3341 2797 3341 1997 
z
" transform="scale(0.015625)"/>
       <path id="DejaVuSans-74" d="M 1172 4494 
L 1172 3500 
L 2356 3500 
L 2356 3053 
L 1172 3053 
L 1172 1153 
Q 1172 725 1289 603 
Q 1406 481 1766 481 
L 2356 481 
L 2356 0 
L 1766 0 
Q 1100 0 847 248 
Q 594 497 594 1153 
L 594 3053 
L 172 3053 
L 172 3500 
L 594 3500 
L 594 4494 
L 1172 4494 
z
" transform="scale(0.015625)"/>
       <path id="DejaVuSans-50" d="M 1259 4147 
L 1259 2394 
L 2053 2394 
Q 2494 2394 2734 2622 
Q 2975 2850 2975 3272 
Q 2975 3691 2734 3919 
Q 2494 4147 2053 4147 
L 1259 4147 
z
M 628 4666 
L 2053 4666 
Q 2838 4666 3239 4311 
Q 3641 3956 3641 3272 
Q 3641 2581 3239 2228 
Q 2838 1875 2053 1875 
L 1259 1875 
L 1259 0 
L 628 0 
L 628 4666 
z
" transform="scale(0.015625)"/>
       <path id="DejaVuSans-4f" d="M 2522 4238 
Q 1834 4238 1429 3725 
Q 1025 3213 1025 2328 
Q 1025 1447 1429 934 
Q 1834 422 2522 422 
Q 3209 422 3611 934 
Q 4013 1447 4013 2328 
Q 4013 3213 3611 3725 
Q 3209 4238 2522 4238 
z
M 2522 4750 
Q 3503 4750 4090 4092 
Q 4678 3434 4678 2328 
Q 4678 1225 4090 567 
Q 3503 -91 2522 -91 
Q 1538 -91 948 565 
Q 359 1222 359 2328 
Q 359 3434 948 4092 
Q 1538 4750 2522 4750 
z
" transform="scale(0.015625)"/>
       <path id="DejaVuSans-28" d="M 1984 4856 
Q 1566 4138 1362 3434 
Q 1159 2731 1159 2009 
Q 1159 1288 1364 580 
Q 1569 -128 1984 -844 
L 1484 -844 
Q 1016 -109 783 600 
Q 550 1309 550 2009 
Q 550 2706 781 3412 
Q 1013 4119 1484 4856 
L 1984 4856 
z
" transform="scale(0.015625)"/>
       <path id="DejaVuSans-6e" d="M 3513 2113 
L 3513 0 
L 2938 0 
L 2938 2094 
Q 2938 2591 2744 2837 
Q 2550 3084 2163 3084 
Q 1697 3084 1428 2787 
Q 1159 2491 1159 1978 
L 1159 0 
L 581 0 
L 581 3500 
L 1159 3500 
L 1159 2956 
Q 1366 3272 1645 3428 
Q 1925 3584 2291 3584 
Q 2894 3584 3203 3211 
Q 3513 2838 3513 2113 
z
" transform="scale(0.015625)"/>
       <path id="DejaVuSans-3d" d="M 678 2906 
L 4684 2906 
L 4684 2381 
L 678 2381 
L 678 2906 
z
M 678 1631 
L 4684 1631 
L 4684 1100 
L 678 1100 
L 678 1631 
z
" transform="scale(0.015625)"/>
       <path id="DejaVuSans-29" d="M 513 4856 
L 1013 4856 
Q 1481 4119 1714 3412 
Q 1947 2706 1947 2009 
Q 1947 1309 1714 600 
Q 1481 -109 1013 -844 
L 513 -844 
Q 928 -128 1133 580 
Q 1338 1288 1338 2009 
Q 1338 2731 1133 3434 
Q 928 4138 513 4856 
z
" transform="scale(0.015625)"/>
      </defs>
      <use xlink:href="#DejaVuSans-44"/>
      <use xlink:href="#DejaVuSans-61" x="77.001953"/>
      <use xlink:href="#DejaVuSans-74" x="138.28125"/>
      <use xlink:href="#DejaVuSans-61" x="177.490234"/>
      <use xlink:href="#DejaVuSans-20" x="238.769531"/>
      <use xlink:href="#DejaVuSans-31" x="270.556641"/>
      <use xlink:href="#DejaVuSans-6d" x="334.179688"/>
      <use xlink:href="#DejaVuSans-67" x="431.591797"/>
      <use xlink:href="#DejaVuSans-20" x="495.068359"/>
      <use xlink:href="#DejaVuSans-50" x="526.855469"/>
      <use xlink:href="#DejaVuSans-4f" x="587.158203"/>
      <use xlink:href="#DejaVuSans-20" x="665.869141"/>
      <use xlink:href="#DejaVuSans-28" x="697.65625"/>
      <use xlink:href="#DejaVuSans-6e" x="736.669922"/>
      <use xlink:href="#DejaVuSans-3d" x="800.048828"/>
      <use xlink:href="#DejaVuSans-31" x="883.837891"/>
      <use xlink:href="#DejaVuSans-32" x="947.460938"/>
      <use xlink:href="#DejaVuSans-29" x="1011.083984"/>
     </g>
    </g>
    <g id="line2d_28">
     <path d="M 263.66108 81.409219 
L 281.66108 81.409219 
" style="fill: none; stroke: #fee391; stroke-width: 2; stroke-linecap: square"/>
    </g>
    <g id="line2d_29"/>
    <g id="text_20">
     <!-- Sim gli 2 mg po -->
     <g transform="translate(288.86108 84.559219) scale(0.09 -0.09)">
      <use xlink:href="#DejaVuSans-53"/>
      <use xlink:href="#DejaVuSans-69" x="63.476562"/>
      <use xlink:href="#DejaVuSans-6d" x="91.259766"/>
      <use xlink:href="#DejaVuSans-20" x="188.671875"/>
      <use xlink:href="#DejaVuSans-67" x="220.458984"/>
      <use xlink:href="#DejaVuSans-6c" x="283.935547"/>
      <use xlink:href="#DejaVuSans-69" x="311.71875"/>
      <use xlink:href="#DejaVuSans-20" x="339.501953"/>
      <use xlink:href="#DejaVuSans-32" x="371.289062"/>
      <use xlink:href="#DejaVuSans-20" x="434.912109"/>
      <use xlink:href="#DejaVuSans-6d" x="466.699219"/>
      <use xlink:href="#DejaVuSans-67" x="564.111328"/>
      <use xlink:href="#DejaVuSans-20" x="627.587891"/>
      <use xlink:href="#DejaVuSans-70" x="659.375"/>
      <use xlink:href="#DejaVuSans-6f" x="722.851562"/>
     </g>
    </g>
    <g id="line2d_30">
     <path d="M 263.66108 94.619531 
L 281.66108 94.619531 
" style="fill: none; stroke-dasharray: 3.7,1.6; stroke-dashoffset: 0; stroke: #fee391"/>
    </g>
    <g id="line2d_31">
     <g>
      <use xlink:href="#m1cb59c13b9" x="272.66108" y="94.619531" style="fill: #fee391; stroke: #000000; stroke-linejoin: miter"/>
     </g>
    </g>
    <g id="text_21">
     <!-- Data 2mg PO (n=12) -->
     <g transform="translate(288.86108 97.769531) scale(0.09 -0.09)">
      <use xlink:href="#DejaVuSans-44"/>
      <use xlink:href="#DejaVuSans-61" x="77.001953"/>
      <use xlink:href="#DejaVuSans-74" x="138.28125"/>
      <use xlink:href="#DejaVuSans-61" x="177.490234"/>
      <use xlink:href="#DejaVuSans-20" x="238.769531"/>
      <use xlink:href="#DejaVuSans-32" x="270.556641"/>
      <use xlink:href="#DejaVuSans-6d" x="334.179688"/>
      <use xlink:href="#DejaVuSans-67" x="431.591797"/>
      <use xlink:href="#DejaVuSans-20" x="495.068359"/>
      <use xlink:href="#DejaVuSans-50" x="526.855469"/>
      <use xlink:href="#DejaVuSans-4f" x="587.158203"/>
      <use xlink:href="#DejaVuSans-20" x="665.869141"/>
      <use xlink:href="#DejaVuSans-28" x="697.65625"/>
      <use xlink:href="#DejaVuSans-6e" x="736.669922"/>
      <use xlink:href="#DejaVuSans-3d" x="800.048828"/>
      <use xlink:href="#DejaVuSans-31" x="883.837891"/>
      <use xlink:href="#DejaVuSans-32" x="947.460938"/>
      <use xlink:href="#DejaVuSans-29" x="1011.083984"/>
     </g>
    </g>
    <g id="line2d_32">
     <path d="M 263.66108 107.829844 
L 281.66108 107.829844 
" style="fill: none; stroke: #fe9929; stroke-width: 2; stroke-linecap: square"/>
    </g>
    <g id="line2d_33"/>
    <g id="text_22">
     <!-- Sim gli 4 mg po -->
     <g transform="translate(288.86108 110.979844) scale(0.09 -0.09)">
      <use xlink:href="#DejaVuSans-53"/>
      <use xlink:href="#DejaVuSans-69" x="63.476562"/>
      <use xlink:href="#DejaVuSans-6d" x="91.259766"/>
      <use xlink:href="#DejaVuSans-20" x="188.671875"/>
      <use xlink:href="#DejaVuSans-67" x="220.458984"/>
      <use xlink:href="#DejaVuSans-6c" x="283.935547"/>
      <use xlink:href="#DejaVuSans-69" x="311.71875"/>
      <use xlink:href="#DejaVuSans-20" x="339.501953"/>
      <use xlink:href="#DejaVuSans-34" x="371.289062"/>
      <use xlink:href="#DejaVuSans-20" x="434.912109"/>
      <use xlink:href="#DejaVuSans-6d" x="466.699219"/>
      <use xlink:href="#DejaVuSans-67" x="564.111328"/>
      <use xlink:href="#DejaVuSans-20" x="627.587891"/>
      <use xlink:href="#DejaVuSans-70" x="659.375"/>
      <use xlink:href="#DejaVuSans-6f" x="722.851562"/>
     </g>
    </g>
    <g id="line2d_34">
     <path d="M 263.66108 121.040156 
L 281.66108 121.040156 
" style="fill: none; stroke-dasharray: 3.7,1.6; stroke-dashoffset: 0; stroke: #fe9929"/>
    </g>
    <g id="line2d_35">
     <g>
      <use xlink:href="#ma0debb2f58" x="272.66108" y="121.040156" style="fill: #fe9929; stroke: #000000; stroke-linejoin: miter"/>
     </g>
    </g>
    <g id="text_23">
     <!-- Data 4mg PO (n=12) -->
     <g transform="translate(288.86108 124.190156) scale(0.09 -0.09)">
      <use xlink:href="#DejaVuSans-44"/>
      <use xlink:href="#DejaVuSans-61" x="77.001953"/>
      <use xlink:href="#DejaVuSans-74" x="138.28125"/>
      <use xlink:href="#DejaVuSans-61" x="177.490234"/>
      <use xlink:href="#DejaVuSans-20" x="238.769531"/>
      <use xlink:href="#DejaVuSans-34" x="270.556641"/>
      <use xlink:href="#DejaVuSans-6d" x="334.179688"/>
      <use xlink:href="#DejaVuSans-67" x="431.591797"/>
      <use xlink:href="#DejaVuSans-20" x="495.068359"/>
      <use xlink:href="#DejaVuSans-50" x="526.855469"/>
      <use xlink:href="#DejaVuSans-4f" x="587.158203"/>
      <use xlink:href="#DejaVuSans-20" x="665.869141"/>
      <use xlink:href="#DejaVuSans-28" x="697.65625"/>
      <use xlink:href="#DejaVuSans-6e" x="736.669922"/>
      <use xlink:href="#DejaVuSans-3d" x="800.048828"/>
      <use xlink:href="#DejaVuSans-31" x="883.837891"/>
      <use xlink:href="#DejaVuSans-32" x="947.460938"/>
      <use xlink:href="#DejaVuSans-29" x="1011.083984"/>
     </g>
    </g>
    <g id="line2d_36">
     <path d="M 263.66108 134.250469 
L 281.66108 134.250469 
" style="fill: none; stroke: #662506; stroke-width: 2; stroke-linecap: square"/>
    </g>
    <g id="line2d_37"/>
    <g id="text_24">
     <!-- Sim gli 8 mg po -->
     <g transform="translate(288.86108 137.400469) scale(0.09 -0.09)">
      <use xlink:href="#DejaVuSans-53"/>
      <use xlink:href="#DejaVuSans-69" x="63.476562"/>
      <use xlink:href="#DejaVuSans-6d" x="91.259766"/>
      <use xlink:href="#DejaVuSans-20" x="188.671875"/>
      <use xlink:href="#DejaVuSans-67" x="220.458984"/>
      <use xlink:href="#DejaVuSans-6c" x="283.935547"/>
      <use xlink:href="#DejaVuSans-69" x="311.71875"/>
      <use xlink:href="#DejaVuSans-20" x="339.501953"/>
      <use xlink:href="#DejaVuSans-38" x="371.289062"/>
      <use xlink:href="#DejaVuSans-20" x="434.912109"/>
      <use xlink:href="#DejaVuSans-6d" x="466.699219"/>
      <use xlink:href="#DejaVuSans-67" x="564.111328"/>
      <use xlink:href="#DejaVuSans-20" x="627.587891"/>
      <use xlink:href="#DejaVuSans-70" x="659.375"/>
      <use xlink:href="#DejaVuSans-6f" x="722.851562"/>
     </g>
    </g>
    <g id="line2d_38">
     <path d="M 263.66108 147.460781 
L 281.66108 147.460781 
" style="fill: none; stroke-dasharray: 3.7,1.6; stroke-dashoffset: 0; stroke: #662506"/>
    </g>
    <g id="line2d_39">
     <g>
      <use xlink:href="#mb0966feda9" x="272.66108" y="147.460781" style="fill: #662506; stroke: #000000; stroke-linejoin: miter"/>
     </g>
    </g>
    <g id="text_25">
     <!-- Data 8mg PO (n=12) -->
     <g transform="translate(288.86108 150.610781) scale(0.09 -0.09)">
      <use xlink:href="#DejaVuSans-44"/>
      <use xlink:href="#DejaVuSans-61" x="77.001953"/>
      <use xlink:href="#DejaVuSans-74" x="138.28125"/>
      <use xlink:href="#DejaVuSans-61" x="177.490234"/>
      <use xlink:href="#DejaVuSans-20" x="238.769531"/>
      <use xlink:href="#DejaVuSans-38" x="270.556641"/>
      <use xlink:href="#DejaVuSans-6d" x="334.179688"/>
      <use xlink:href="#DejaVuSans-67" x="431.591797"/>
      <use xlink:href="#DejaVuSans-20" x="495.068359"/>
      <use xlink:href="#DejaVuSans-50" x="526.855469"/>
      <use xlink:href="#DejaVuSans-4f" x="587.158203"/>
      <use xlink:href="#DejaVuSans-20" x="665.869141"/>
      <use xlink:href="#DejaVuSans-28" x="697.65625"/>
      <use xlink:href="#DejaVuSans-6e" x="736.669922"/>
      <use xlink:href="#DejaVuSans-3d" x="800.048828"/>
      <use xlink:href="#DejaVuSans-31" x="883.837891"/>
      <use xlink:href="#DejaVuSans-32" x="947.460938"/>
      <use xlink:href="#DejaVuSans-29" x="1011.083984"/>
     </g>
    </g>
   </g>
  </g>
  <g id="axes_2">
   <g id="patch_8">
    <path d="M 493.36517 320.4 
L 833.017344 320.4 
L 833.017344 43.2 
L 493.36517 43.2 
z
" style="fill: #ffffff"/>
   </g>
   <g id="matplotlib.axis_3">
    <g id="xtick_9">
     <g id="line2d_40">
      <g>
       <use xlink:href="#m77c9dc7729" x="508.803905" y="320.4" style="stroke: #000000; stroke-width: 0.8"/>
      </g>
     </g>
     <g id="text_26">
      <!-- 0 -->
      <g transform="translate(504.986405 336.518125) scale(0.12 -0.12)">
       <use xlink:href="#DejaVuSans-30"/>
      </g>
     </g>
    </g>
    <g id="xtick_10">
     <g id="line2d_41">
      <g>
       <use xlink:href="#m77c9dc7729" x="570.558846" y="320.4" style="stroke: #000000; stroke-width: 0.8"/>
      </g>
     </g>
     <g id="text_27">
      <!-- 10 -->
      <g transform="translate(562.923846 336.518125) scale(0.12 -0.12)">
       <use xlink:href="#DejaVuSans-31"/>
       <use xlink:href="#DejaVuSans-30" x="63.623047"/>
      </g>
     </g>
    </g>
    <g id="xtick_11">
     <g id="line2d_42">
      <g>
       <use xlink:href="#m77c9dc7729" x="632.313786" y="320.4" style="stroke: #000000; stroke-width: 0.8"/>
      </g>
     </g>
     <g id="text_28">
      <!-- 20 -->
      <g transform="translate(624.678786 336.518125) scale(0.12 -0.12)">
       <use xlink:href="#DejaVuSans-32"/>
       <use xlink:href="#DejaVuSans-30" x="63.623047"/>
      </g>
     </g>
    </g>
    <g id="xtick_12">
     <g id="line2d_43">
      <g>
       <use xlink:href="#m77c9dc7729" x="694.068727" y="320.4" style="stroke: #000000; stroke-width: 0.8"/>
      </g>
     </g>
     <g id="text_29">
      <!-- 30 -->
      <g transform="translate(686.433727 336.518125) scale(0.12 -0.12)">
       <use xlink:href="#DejaVuSans-33"/>
       <use xlink:href="#DejaVuSans-30" x="63.623047"/>
      </g>
     </g>
    </g>
    <g id="xtick_13">
     <g id="line2d_44">
      <g>
       <use xlink:href="#m77c9dc7729" x="755.823668" y="320.4" style="stroke: #000000; stroke-width: 0.8"/>
      </g>
     </g>
     <g id="text_30">
      <!-- 40 -->
      <g transform="translate(748.188668 336.518125) scale(0.12 -0.12)">
       <use xlink:href="#DejaVuSans-34"/>
       <use xlink:href="#DejaVuSans-30" x="63.623047"/>
      </g>
     </g>
    </g>
    <g id="xtick_14">
     <g id="line2d_45">
      <g>
       <use xlink:href="#m77c9dc7729" x="817.578609" y="320.4" style="stroke: #000000; stroke-width: 0.8"/>
      </g>
     </g>
     <g id="text_31">
      <!-- 50 -->
      <g transform="translate(809.943609 336.518125) scale(0.12 -0.12)">
       <use xlink:href="#DejaVuSans-35"/>
       <use xlink:href="#DejaVuSans-30" x="63.623047"/>
      </g>
     </g>
    </g>
    <g id="text_32">
     <!-- Time [hr] -->
     <g transform="translate(624.097507 354.411406) scale(0.15 -0.15)">
      <use xlink:href="#DejaVuSans-Bold-54"/>
      <use xlink:href="#DejaVuSans-Bold-69" x="68.212891"/>
      <use xlink:href="#DejaVuSans-Bold-6d" x="102.490234"/>
      <use xlink:href="#DejaVuSans-Bold-65" x="206.689453"/>
      <use xlink:href="#DejaVuSans-Bold-20" x="274.511719"/>
      <use xlink:href="#DejaVuSans-Bold-5b" x="309.326172"/>
      <use xlink:href="#DejaVuSans-Bold-68" x="355.029297"/>
      <use xlink:href="#DejaVuSans-Bold-72" x="426.220703"/>
      <use xlink:href="#DejaVuSans-Bold-5d" x="475.537109"/>
     </g>
    </g>
   </g>
   <g id="matplotlib.axis_4">
    <g id="ytick_8">
     <g id="line2d_46">
      <g>
       <use xlink:href="#mc2ab98bed7" x="493.36517" y="307.8" style="stroke: #000000; stroke-width: 0.8"/>
      </g>
     </g>
     <g id="text_33">
      <!-- 0 -->
      <g transform="translate(478.73017 312.359062) scale(0.12 -0.12)">
       <use xlink:href="#DejaVuSans-30"/>
      </g>
     </g>
    </g>
    <g id="ytick_9">
     <g id="line2d_47">
      <g>
       <use xlink:href="#mc2ab98bed7" x="493.36517" y="248.304553" style="stroke: #000000; stroke-width: 0.8"/>
      </g>
     </g>
     <g id="text_34">
      <!-- 2 -->
      <g transform="translate(478.73017 252.863616) scale(0.12 -0.12)">
       <use xlink:href="#DejaVuSans-32"/>
      </g>
     </g>
    </g>
    <g id="ytick_10">
     <g id="line2d_48">
      <g>
       <use xlink:href="#mc2ab98bed7" x="493.36517" y="188.809106" style="stroke: #000000; stroke-width: 0.8"/>
      </g>
     </g>
     <g id="text_35">
      <!-- 4 -->
      <g transform="translate(478.73017 193.368169) scale(0.12 -0.12)">
       <use xlink:href="#DejaVuSans-34"/>
      </g>
     </g>
    </g>
    <g id="ytick_11">
     <g id="line2d_49">
      <g>
       <use xlink:href="#mc2ab98bed7" x="493.36517" y="129.313659" style="stroke: #000000; stroke-width: 0.8"/>
      </g>
     </g>
     <g id="text_36">
      <!-- 6 -->
      <g transform="translate(478.73017 133.872722) scale(0.12 -0.12)">
       <use xlink:href="#DejaVuSans-36"/>
      </g>
     </g>
    </g>
    <g id="ytick_12">
     <g id="line2d_50">
      <g>
       <use xlink:href="#mc2ab98bed7" x="493.36517" y="69.818212" style="stroke: #000000; stroke-width: 0.8"/>
      </g>
     </g>
     <g id="text_37">
      <!-- 8 -->
      <g transform="translate(478.73017 74.377275) scale(0.12 -0.12)">
       <use xlink:href="#DejaVuSans-38"/>
      </g>
     </g>
    </g>
    <g id="text_38">
     <!-- M1+M2 Urine [µmole] -->
     <g transform="translate(471.594232 274.456641) rotate(-90) scale(0.15 -0.15)">
      <defs>
       <path id="DejaVuSans-Bold-31" d="M 750 831 
L 1813 831 
L 1813 3847 
L 722 3622 
L 722 4441 
L 1806 4666 
L 2950 4666 
L 2950 831 
L 4013 831 
L 4013 0 
L 750 0 
L 750 831 
z
" transform="scale(0.015625)"/>
       <path id="DejaVuSans-Bold-2b" d="M 3053 4013 
L 3053 2375 
L 4684 2375 
L 4684 1638 
L 3053 1638 
L 3053 0 
L 2309 0 
L 2309 1638 
L 678 1638 
L 678 2375 
L 2309 2375 
L 2309 4013 
L 3053 4013 
z
" transform="scale(0.015625)"/>
       <path id="DejaVuSans-Bold-32" d="M 1844 884 
L 3897 884 
L 3897 0 
L 506 0 
L 506 884 
L 2209 2388 
Q 2438 2594 2547 2791 
Q 2656 2988 2656 3200 
Q 2656 3528 2436 3728 
Q 2216 3928 1850 3928 
Q 1569 3928 1234 3808 
Q 900 3688 519 3450 
L 519 4475 
Q 925 4609 1322 4679 
Q 1719 4750 2100 4750 
Q 2938 4750 3402 4381 
Q 3866 4013 3866 3353 
Q 3866 2972 3669 2642 
Q 3472 2313 2841 1759 
L 1844 884 
z
" transform="scale(0.015625)"/>
       <path id="DejaVuSans-Bold-55" d="M 588 4666 
L 1791 4666 
L 1791 1869 
Q 1791 1291 1980 1042 
Q 2169 794 2597 794 
Q 3028 794 3217 1042 
Q 3406 1291 3406 1869 
L 3406 4666 
L 4609 4666 
L 4609 1869 
Q 4609 878 4112 393 
Q 3616 -91 2597 -91 
Q 1581 -91 1084 393 
Q 588 878 588 1869 
L 588 4666 
z
" transform="scale(0.015625)"/>
       <path id="DejaVuSans-Bold-6e" d="M 4056 2131 
L 4056 0 
L 2931 0 
L 2931 347 
L 2931 1631 
Q 2931 2084 2911 2256 
Q 2891 2428 2841 2509 
Q 2775 2619 2662 2680 
Q 2550 2741 2406 2741 
Q 2056 2741 1856 2470 
Q 1656 2200 1656 1722 
L 1656 0 
L 538 0 
L 538 3500 
L 1656 3500 
L 1656 2988 
Q 1909 3294 2193 3439 
Q 2478 3584 2822 3584 
Q 3428 3584 3742 3212 
Q 4056 2841 4056 2131 
z
" transform="scale(0.015625)"/>
       <path id="DejaVuSans-Bold-6f" d="M 2203 2784 
Q 1831 2784 1636 2517 
Q 1441 2250 1441 1747 
Q 1441 1244 1636 976 
Q 1831 709 2203 709 
Q 2569 709 2762 976 
Q 2956 1244 2956 1747 
Q 2956 2250 2762 2517 
Q 2569 2784 2203 2784 
z
M 2203 3584 
Q 3106 3584 3614 3096 
Q 4122 2609 4122 1747 
Q 4122 884 3614 396 
Q 3106 -91 2203 -91 
Q 1297 -91 786 396 
Q 275 884 275 1747 
Q 275 2609 786 3096 
Q 1297 3584 2203 3584 
z
" transform="scale(0.015625)"/>
      </defs>
      <use xlink:href="#DejaVuSans-Bold-4d"/>
      <use xlink:href="#DejaVuSans-Bold-31" x="99.511719"/>
      <use xlink:href="#DejaVuSans-Bold-2b" x="169.091797"/>
      <use xlink:href="#DejaVuSans-Bold-4d" x="252.880859"/>
      <use xlink:href="#DejaVuSans-Bold-32" x="352.392578"/>
      <use xlink:href="#DejaVuSans-Bold-20" x="421.972656"/>
      <use xlink:href="#DejaVuSans-Bold-55" x="456.787109"/>
      <use xlink:href="#DejaVuSans-Bold-72" x="537.988281"/>
      <use xlink:href="#DejaVuSans-Bold-69" x="587.304688"/>
      <use xlink:href="#DejaVuSans-Bold-6e" x="621.582031"/>
      <use xlink:href="#DejaVuSans-Bold-65" x="692.773438"/>
      <use xlink:href="#DejaVuSans-Bold-20" x="760.595703"/>
      <use xlink:href="#DejaVuSans-Bold-5b" x="795.410156"/>
      <use xlink:href="#DejaVuSans-Bold-b5" x="841.113281"/>
      <use xlink:href="#DejaVuSans-Bold-6d" x="914.697266"/>
      <use xlink:href="#DejaVuSans-Bold-6f" x="1018.896484"/>
      <use xlink:href="#DejaVuSans-Bold-6c" x="1087.597656"/>
      <use xlink:href="#DejaVuSans-Bold-65" x="1121.875"/>
      <use xlink:href="#DejaVuSans-Bold-5d" x="1189.697266"/>
     </g>
    </g>
   </g>
   <g id="LineCollection_1">
    <path d="M 805.22762 285.1029 
L 805.22762 276.966128 
" clip-path="url(#pdae03b0f8a)" style="fill: none; stroke: #fff7bc"/>
   </g>
   <g id="LineCollection_2">
    <path d="M 805.22762 256.733376 
L 805.22762 241.353335 
" clip-path="url(#pdae03b0f8a)" style="fill: none; stroke: #fee391"/>
   </g>
   <g id="LineCollection_3">
    <path d="M 805.22762 207.585032 
L 805.22762 174.661633 
" clip-path="url(#pdae03b0f8a)" style="fill: none; stroke: #fe9929"/>
   </g>
   <g id="LineCollection_4">
    <path d="M 805.22762 113.429695 
L 805.22762 55.8 
" clip-path="url(#pdae03b0f8a)" style="fill: none; stroke: #662506"/>
   </g>
   <g id="line2d_51">
    <path d="M 508.803905 307.8 
L 513.7443 307.711035 
L 516.214498 307.424998 
L 518.684696 306.854913 
L 521.154893 305.986719 
L 523.625091 304.854822 
L 526.712838 303.160505 
L 531.035684 300.49735 
L 538.446277 295.901775 
L 542.769122 293.501336 
L 546.474419 291.683531 
L 550.179715 290.096748 
L 553.885012 288.731221 
L 558.207858 287.39114 
L 562.530703 286.286727 
L 567.471099 285.262626 
L 573.029043 284.350226 
L 579.204537 283.559809 
L 586.61513 282.831079 
L 596.495921 282.102776 
L 609.464458 281.39484 
L 627.373391 280.662402 
L 651.457818 279.913364 
L 681.717739 279.20229 
L 718.153154 278.577523 
L 761.999162 278.056798 
L 817.578609 277.63132 
L 817.578609 277.63132 
" clip-path="url(#pdae03b0f8a)" style="fill: none; stroke: #fff7bc; stroke-width: 2; stroke-linecap: square"/>
   </g>
   <g id="line2d_52">
    <path d="M 508.803905 307.8 
L 521.154893 304.046792 
L 533.505881 298.062274 
L 558.207858 285.971971 
L 582.909834 281.982292 
L 657.015763 280.16329 
L 805.22762 280.102656 
" clip-path="url(#pdae03b0f8a)" style="fill: none; stroke-dasharray: 3.7,1.6; stroke-dashoffset: 0; stroke: #fff7bc"/>
    <g clip-path="url(#pdae03b0f8a)">
     <use xlink:href="#m0cff080938" x="508.803905" y="307.8" style="fill: #fff7bc; stroke: #000000; stroke-linejoin: miter"/>
     <use xlink:href="#m0cff080938" x="521.154893" y="304.046792" style="fill: #fff7bc; stroke: #000000; stroke-linejoin: miter"/>
     <use xlink:href="#m0cff080938" x="533.505881" y="298.062274" style="fill: #fff7bc; stroke: #000000; stroke-linejoin: miter"/>
     <use xlink:href="#m0cff080938" x="558.207858" y="285.971971" style="fill: #fff7bc; stroke: #000000; stroke-linejoin: miter"/>
     <use xlink:href="#m0cff080938" x="582.909834" y="281.982292" style="fill: #fff7bc; stroke: #000000; stroke-linejoin: miter"/>
     <use xlink:href="#m0cff080938" x="657.015763" y="280.16329" style="fill: #fff7bc; stroke: #000000; stroke-linejoin: miter"/>
     <use xlink:href="#m0cff080938" x="805.22762" y="280.102656" style="fill: #fff7bc; stroke: #000000; stroke-linejoin: miter"/>
    </g>
   </g>
   <g id="line2d_53">
    <path d="M 805.22762 281.034514 
" clip-path="url(#pdae03b0f8a)" style="fill: none; stroke-dasharray: 3.7,1.6; stroke-dashoffset: 0; stroke: #fff7bc"/>
    <g clip-path="url(#pdae03b0f8a)">
     <use xlink:href="#m0cff080938" x="805.22762" y="281.034514" style="fill: #fff7bc; stroke: #000000; stroke-linejoin: miter"/>
    </g>
   </g>
   <g id="line2d_54">
    <path d="M 508.803905 307.8 
L 513.126751 307.693631 
L 514.979399 307.407416 
L 516.832047 306.844812 
L 518.684696 305.964027 
L 520.537344 304.762418 
L 522.389992 303.265231 
L 524.24264 301.514542 
L 526.712838 298.873118 
L 530.418134 294.499908 
L 539.063826 284.100096 
L 542.769122 280.07814 
L 545.856869 277.039328 
L 548.944616 274.303281 
L 552.032364 271.867448 
L 555.120111 269.717019 
L 558.207858 267.829842 
L 561.295605 266.180069 
L 565.000901 264.47575 
L 568.706198 263.029149 
L 573.029043 261.611807 
L 577.351889 260.430824 
L 582.292284 259.308952 
L 587.850229 258.26921 
L 594.643273 257.23214 
L 602.671415 256.237181 
L 612.552205 255.238935 
L 625.520743 254.168173 
L 641.577028 253.079781 
L 660.721059 252.01188 
L 682.952838 251.001315 
L 708.272364 250.081673 
L 736.679636 249.27649 
L 770.027304 248.561721 
L 809.550466 247.947283 
L 817.578609 247.846074 
L 817.578609 247.846074 
" clip-path="url(#pdae03b0f8a)" style="fill: none; stroke: #fee391; stroke-width: 2; stroke-linecap: square"/>
   </g>
   <g id="line2d_55">
    <path d="M 508.803905 307.8 
L 521.154893 302.051952 
L 533.505881 286.796585 
L 558.207858 260.627203 
L 582.909834 252.756986 
L 657.015763 245.602243 
L 805.22762 245.250569 
" clip-path="url(#pdae03b0f8a)" style="fill: none; stroke-dasharray: 3.7,1.6; stroke-dashoffset: 0; stroke: #fee391"/>
    <g clip-path="url(#pdae03b0f8a)">
     <use xlink:href="#m1cb59c13b9" x="508.803905" y="307.8" style="fill: #fee391; stroke: #000000; stroke-linejoin: miter"/>
     <use xlink:href="#m1cb59c13b9" x="521.154893" y="302.051952" style="fill: #fee391; stroke: #000000; stroke-linejoin: miter"/>
     <use xlink:href="#m1cb59c13b9" x="533.505881" y="286.796585" style="fill: #fee391; stroke: #000000; stroke-linejoin: miter"/>
     <use xlink:href="#m1cb59c13b9" x="558.207858" y="260.627203" style="fill: #fee391; stroke: #000000; stroke-linejoin: miter"/>
     <use xlink:href="#m1cb59c13b9" x="582.909834" y="252.756986" style="fill: #fee391; stroke: #000000; stroke-linejoin: miter"/>
     <use xlink:href="#m1cb59c13b9" x="657.015763" y="245.602243" style="fill: #fee391; stroke: #000000; stroke-linejoin: miter"/>
     <use xlink:href="#m1cb59c13b9" x="805.22762" y="245.250569" style="fill: #fee391; stroke: #000000; stroke-linejoin: miter"/>
    </g>
   </g>
   <g id="line2d_56">
    <path d="M 805.22762 249.043355 
" clip-path="url(#pdae03b0f8a)" style="fill: none; stroke-dasharray: 3.7,1.6; stroke-dashoffset: 0; stroke: #fee391"/>
    <g clip-path="url(#pdae03b0f8a)">
     <use xlink:href="#m1cb59c13b9" x="805.22762" y="249.043355" style="fill: #fee391; stroke: #000000; stroke-linejoin: miter"/>
    </g>
   </g>
   <g id="line2d_57">
    <path d="M 508.803905 307.8 
L 511.891652 307.743655 
L 513.7443 307.458337 
L 514.979399 307.041991 
L 516.214498 306.394614 
L 517.449597 305.492333 
L 518.684696 304.326536 
L 519.919794 302.900824 
L 521.772443 300.304454 
L 523.625091 297.220405 
L 525.477739 293.732173 
L 527.947937 288.605887 
L 531.653233 280.305317 
L 539.063826 263.493154 
L 542.769122 255.719627 
L 545.856869 249.765827 
L 548.944616 244.340944 
L 551.414814 240.390737 
L 553.885012 236.781202 
L 556.355209 233.499013 
L 558.825407 230.525761 
L 561.295605 227.839871 
L 564.383352 224.851151 
L 567.471099 222.228837 
L 570.558846 219.927872 
L 573.646593 217.905987 
L 576.73434 216.124606 
L 580.439636 214.256164 
L 584.144933 212.632932 
L 588.467779 210.991453 
L 593.408174 209.380121 
L 598.966118 207.827453 
L 605.141613 206.344843 
L 612.552205 204.812419 
L 621.197897 203.268874 
L 631.078688 201.735222 
L 642.812126 200.14691 
L 655.780664 198.615523 
L 670.60185 197.094775 
L 686.658134 195.674945 
L 703.949518 194.367458 
L 723.093549 193.144252 
L 744.090229 192.02738 
L 767.557107 191.005634 
L 794.111731 190.078889 
L 817.578609 189.41978 
L 817.578609 189.41978 
" clip-path="url(#pdae03b0f8a)" style="fill: none; stroke: #fe9929; stroke-width: 2; stroke-linecap: square"/>
   </g>
   <g id="line2d_58">
    <path d="M 508.803905 307.8 
L 521.154893 298.171414 
L 533.505881 267.418146 
L 558.207858 226.599731 
L 582.909834 208.28844 
L 657.015763 193.493886 
L 805.22762 190.92303 
" clip-path="url(#pdae03b0f8a)" style="fill: none; stroke-dasharray: 3.7,1.6; stroke-dashoffset: 0; stroke: #fe9929"/>
    <g clip-path="url(#pdae03b0f8a)">
     <use xlink:href="#ma0debb2f58" x="508.803905" y="307.8" style="fill: #fe9929; stroke: #000000; stroke-linejoin: miter"/>
     <use xlink:href="#ma0debb2f58" x="521.154893" y="298.171414" style="fill: #fe9929; stroke: #000000; stroke-linejoin: miter"/>
     <use xlink:href="#ma0debb2f58" x="533.505881" y="267.418146" style="fill: #fe9929; stroke: #000000; stroke-linejoin: miter"/>
     <use xlink:href="#ma0debb2f58" x="558.207858" y="226.599731" style="fill: #fe9929; stroke: #000000; stroke-linejoin: miter"/>
     <use xlink:href="#ma0debb2f58" x="582.909834" y="208.28844" style="fill: #fe9929; stroke: #000000; stroke-linejoin: miter"/>
     <use xlink:href="#ma0debb2f58" x="657.015763" y="193.493886" style="fill: #fe9929; stroke: #000000; stroke-linejoin: miter"/>
     <use xlink:href="#ma0debb2f58" x="805.22762" y="190.92303" style="fill: #fe9929; stroke: #000000; stroke-linejoin: miter"/>
    </g>
   </g>
   <g id="line2d_59">
    <path d="M 805.22762 191.123333 
" clip-path="url(#pdae03b0f8a)" style="fill: none; stroke-dasharray: 3.7,1.6; stroke-dashoffset: 0; stroke: #fe9929"/>
    <g clip-path="url(#pdae03b0f8a)">
     <use xlink:href="#ma0debb2f58" x="805.22762" y="191.123333" style="fill: #fe9929; stroke: #000000; stroke-linejoin: miter"/>
    </g>
   </g>
   <g id="line2d_60">
    <path d="M 508.803905 307.8 
L 511.891652 307.690354 
L 513.126751 307.401598 
L 514.36185 306.813334 
L 515.596948 305.845933 
L 516.832047 304.451966 
L 518.067146 302.612335 
L 519.302245 300.329777 
L 520.537344 297.622588 
L 522.389992 292.830208 
L 524.24264 287.269362 
L 526.712838 278.891245 
L 529.800585 267.311307 
L 534.123431 250.013553 
L 540.916474 222.834592 
L 544.621771 208.957031 
L 547.709518 198.186444 
L 550.797265 188.233853 
L 553.885012 179.138192 
L 556.355209 172.480462 
L 558.825407 166.35968 
L 561.295605 160.754364 
L 563.765802 155.636801 
L 566.236 150.97517 
L 568.706198 146.73531 
L 571.176395 142.882157 
L 573.646593 139.38086 
L 576.11679 136.197625 
L 579.204537 132.617088 
L 582.292284 129.425274 
L 585.380031 126.569651 
L 588.467779 124.00355 
L 592.173075 121.249169 
L 595.878371 118.792587 
L 599.583668 116.583443 
L 603.906514 114.263882 
L 608.846909 111.888935 
L 614.404854 109.496997 
L 620.580348 107.112216 
L 627.373391 104.748802 
L 634.783984 102.41567 
L 642.812126 100.120219 
L 651.457818 97.870645 
L 661.338609 95.537693 
L 671.836948 93.298014 
L 682.952838 91.160687 
L 694.686277 89.134689 
L 707.037265 87.227729 
L 720.005802 85.445517 
L 734.209439 83.720982 
L 749.030624 82.142828 
L 765.086909 80.653877 
L 782.378292 79.270352 
L 801.522324 77.963447 
L 817.578609 77.021193 
L 817.578609 77.021193 
" clip-path="url(#pdae03b0f8a)" style="fill: none; stroke: #662506; stroke-width: 2; stroke-linecap: square"/>
   </g>
   <g id="line2d_61">
    <path d="M 508.803905 307.8 
L 521.154893 287.6212 
L 533.505881 236.931665 
L 558.207858 168.828213 
L 582.909834 133.175765 
L 657.015763 98.930012 
L 805.22762 86.706316 
" clip-path="url(#pdae03b0f8a)" style="fill: none; stroke-dasharray: 3.7,1.6; stroke-dashoffset: 0; stroke: #662506"/>
    <g clip-path="url(#pdae03b0f8a)">
     <use xlink:href="#mb0966feda9" x="508.803905" y="307.8" style="fill: #662506; stroke: #000000; stroke-linejoin: miter"/>
     <use xlink:href="#mb0966feda9" x="521.154893" y="287.6212" style="fill: #662506; stroke: #000000; stroke-linejoin: miter"/>
     <use xlink:href="#mb0966feda9" x="533.505881" y="236.931665" style="fill: #662506; stroke: #000000; stroke-linejoin: miter"/>
     <use xlink:href="#mb0966feda9" x="558.207858" y="168.828213" style="fill: #662506; stroke: #000000; stroke-linejoin: miter"/>
     <use xlink:href="#mb0966feda9" x="582.909834" y="133.175765" style="fill: #662506; stroke: #000000; stroke-linejoin: miter"/>
     <use xlink:href="#mb0966feda9" x="657.015763" y="98.930012" style="fill: #662506; stroke: #000000; stroke-linejoin: miter"/>
     <use xlink:href="#mb0966feda9" x="805.22762" y="86.706316" style="fill: #662506; stroke: #000000; stroke-linejoin: miter"/>
    </g>
   </g>
   <g id="line2d_62">
    <path d="M 805.22762 84.614847 
" clip-path="url(#pdae03b0f8a)" style="fill: none; stroke-dasharray: 3.7,1.6; stroke-dashoffset: 0; stroke: #662506"/>
    <g clip-path="url(#pdae03b0f8a)">
     <use xlink:href="#mb0966feda9" x="805.22762" y="84.614847" style="fill: #662506; stroke: #000000; stroke-linejoin: miter"/>
    </g>
   </g>
   <g id="patch_9">
    <path d="M 493.36517 320.4 
L 493.36517 43.2 
" style="fill: none; stroke: #000000; stroke-width: 0.8; stroke-linejoin: miter; stroke-linecap: square"/>
   </g>
   <g id="patch_10">
    <path d="M 833.017344 320.4 
L 833.017344 43.2 
" style="fill: none; stroke: #000000; stroke-width: 0.8; stroke-linejoin: miter; stroke-linecap: square"/>
   </g>
   <g id="patch_11">
    <path d="M 493.36517 320.4 
L 833.017344 320.4 
" style="fill: none; stroke: #000000; stroke-width: 0.8; stroke-linejoin: miter; stroke-linecap: square"/>
   </g>
   <g id="patch_12">
    <path d="M 493.36517 43.2 
L 833.017344 43.2 
" style="fill: none; stroke: #000000; stroke-width: 0.8; stroke-linejoin: miter; stroke-linecap: square"/>
   </g>
   <g id="legend_2">
    <g id="patch_13">
     <path d="M 499.66517 156.0825 
L 622.973607 156.0825 
Q 624.773607 156.0825 624.773607 154.2825 
L 624.773607 49.5 
Q 624.773607 47.7 622.973607 47.7 
L 499.66517 47.7 
Q 497.86517 47.7 497.86517 49.5 
L 497.86517 154.2825 
Q 497.86517 156.0825 499.66517 156.0825 
z
" style="fill: #ffffff; opacity: 0.8; stroke: #cccccc; stroke-linejoin: miter"/>
    </g>
    <g id="line2d_63">
     <path d="M 501.46517 54.988594 
L 519.46517 54.988594 
" style="fill: none; stroke: #fff7bc; stroke-width: 2; stroke-linecap: square"/>
    </g>
    <g id="line2d_64"/>
    <g id="text_39">
     <!-- Sim 1mg PO -->
     <g transform="translate(526.66517 58.138594) scale(0.09 -0.09)">
      <use xlink:href="#DejaVuSans-53"/>
      <use xlink:href="#DejaVuSans-69" x="63.476562"/>
      <use xlink:href="#DejaVuSans-6d" x="91.259766"/>
      <use xlink:href="#DejaVuSans-20" x="188.671875"/>
      <use xlink:href="#DejaVuSans-31" x="220.458984"/>
      <use xlink:href="#DejaVuSans-6d" x="284.082031"/>
      <use xlink:href="#DejaVuSans-67" x="381.494141"/>
      <use xlink:href="#DejaVuSans-20" x="444.970703"/>
      <use xlink:href="#DejaVuSans-50" x="476.757812"/>
      <use xlink:href="#DejaVuSans-4f" x="537.060547"/>
     </g>
    </g>
    <g id="line2d_65">
     <path d="M 501.46517 68.198906 
L 519.46517 68.198906 
" style="fill: none; stroke-dasharray: 3.7,1.6; stroke-dashoffset: 0; stroke: #fff7bc"/>
    </g>
    <g id="line2d_66">
     <g>
      <use xlink:href="#m0cff080938" x="510.46517" y="68.198906" style="fill: #fff7bc; stroke: #000000; stroke-linejoin: miter"/>
     </g>
    </g>
    <g id="text_40">
     <!-- Data 1mg PO (n=12) -->
     <g transform="translate(526.66517 71.348906) scale(0.09 -0.09)">
      <use xlink:href="#DejaVuSans-44"/>
      <use xlink:href="#DejaVuSans-61" x="77.001953"/>
      <use xlink:href="#DejaVuSans-74" x="138.28125"/>
      <use xlink:href="#DejaVuSans-61" x="177.490234"/>
      <use xlink:href="#DejaVuSans-20" x="238.769531"/>
      <use xlink:href="#DejaVuSans-31" x="270.556641"/>
      <use xlink:href="#DejaVuSans-6d" x="334.179688"/>
      <use xlink:href="#DejaVuSans-67" x="431.591797"/>
      <use xlink:href="#DejaVuSans-20" x="495.068359"/>
      <use xlink:href="#DejaVuSans-50" x="526.855469"/>
      <use xlink:href="#DejaVuSans-4f" x="587.158203"/>
      <use xlink:href="#DejaVuSans-20" x="665.869141"/>
      <use xlink:href="#DejaVuSans-28" x="697.65625"/>
      <use xlink:href="#DejaVuSans-6e" x="736.669922"/>
      <use xlink:href="#DejaVuSans-3d" x="800.048828"/>
      <use xlink:href="#DejaVuSans-31" x="883.837891"/>
      <use xlink:href="#DejaVuSans-32" x="947.460938"/>
      <use xlink:href="#DejaVuSans-29" x="1011.083984"/>
     </g>
    </g>
    <g id="line2d_67">
     <path d="M 501.46517 81.409219 
L 519.46517 81.409219 
" style="fill: none; stroke: #fee391; stroke-width: 2; stroke-linecap: square"/>
    </g>
    <g id="line2d_68"/>
    <g id="text_41">
     <!-- Sim 2mg PO -->
     <g transform="translate(526.66517 84.559219) scale(0.09 -0.09)">
      <use xlink:href="#DejaVuSans-53"/>
      <use xlink:href="#DejaVuSans-69" x="63.476562"/>
      <use xlink:href="#DejaVuSans-6d" x="91.259766"/>
      <use xlink:href="#DejaVuSans-20" x="188.671875"/>
      <use xlink:href="#DejaVuSans-32" x="220.458984"/>
      <use xlink:href="#DejaVuSans-6d" x="284.082031"/>
      <use xlink:href="#DejaVuSans-67" x="381.494141"/>
      <use xlink:href="#DejaVuSans-20" x="444.970703"/>
      <use xlink:href="#DejaVuSans-50" x="476.757812"/>
      <use xlink:href="#DejaVuSans-4f" x="537.060547"/>
     </g>
    </g>
    <g id="line2d_69">
     <path d="M 501.46517 94.619531 
L 519.46517 94.619531 
" style="fill: none; stroke-dasharray: 3.7,1.6; stroke-dashoffset: 0; stroke: #fee391"/>
    </g>
    <g id="line2d_70">
     <g>
      <use xlink:href="#m1cb59c13b9" x="510.46517" y="94.619531" style="fill: #fee391; stroke: #000000; stroke-linejoin: miter"/>
     </g>
    </g>
    <g id="text_42">
     <!-- Data 2mg PO (n=12) -->
     <g transform="translate(526.66517 97.769531) scale(0.09 -0.09)">
      <use xlink:href="#DejaVuSans-44"/>
      <use xlink:href="#DejaVuSans-61" x="77.001953"/>
      <use xlink:href="#DejaVuSans-74" x="138.28125"/>
      <use xlink:href="#DejaVuSans-61" x="177.490234"/>
      <use xlink:href="#DejaVuSans-20" x="238.769531"/>
      <use xlink:href="#DejaVuSans-32" x="270.556641"/>
      <use xlink:href="#DejaVuSans-6d" x="334.179688"/>
      <use xlink:href="#DejaVuSans-67" x="431.591797"/>
      <use xlink:href="#DejaVuSans-20" x="495.068359"/>
      <use xlink:href="#DejaVuSans-50" x="526.855469"/>
      <use xlink:href="#DejaVuSans-4f" x="587.158203"/>
      <use xlink:href="#DejaVuSans-20" x="665.869141"/>
      <use xlink:href="#DejaVuSans-28" x="697.65625"/>
      <use xlink:href="#DejaVuSans-6e" x="736.669922"/>
      <use xlink:href="#DejaVuSans-3d" x="800.048828"/>
      <use xlink:href="#DejaVuSans-31" x="883.837891"/>
      <use xlink:href="#DejaVuSans-32" x="947.460938"/>
      <use xlink:href="#DejaVuSans-29" x="1011.083984"/>
     </g>
    </g>
    <g id="line2d_71">
     <path d="M 501.46517 107.829844 
L 519.46517 107.829844 
" style="fill: none; stroke: #fe9929; stroke-width: 2; stroke-linecap: square"/>
    </g>
    <g id="line2d_72"/>
    <g id="text_43">
     <!-- Sim 4mg PO -->
     <g transform="translate(526.66517 110.979844) scale(0.09 -0.09)">
      <use xlink:href="#DejaVuSans-53"/>
      <use xlink:href="#DejaVuSans-69" x="63.476562"/>
      <use xlink:href="#DejaVuSans-6d" x="91.259766"/>
      <use xlink:href="#DejaVuSans-20" x="188.671875"/>
      <use xlink:href="#DejaVuSans-34" x="220.458984"/>
      <use xlink:href="#DejaVuSans-6d" x="284.082031"/>
      <use xlink:href="#DejaVuSans-67" x="381.494141"/>
      <use xlink:href="#DejaVuSans-20" x="444.970703"/>
      <use xlink:href="#DejaVuSans-50" x="476.757812"/>
      <use xlink:href="#DejaVuSans-4f" x="537.060547"/>
     </g>
    </g>
    <g id="line2d_73">
     <path d="M 501.46517 121.040156 
L 519.46517 121.040156 
" style="fill: none; stroke-dasharray: 3.7,1.6; stroke-dashoffset: 0; stroke: #fe9929"/>
    </g>
    <g id="line2d_74">
     <g>
      <use xlink:href="#ma0debb2f58" x="510.46517" y="121.040156" style="fill: #fe9929; stroke: #000000; stroke-linejoin: miter"/>
     </g>
    </g>
    <g id="text_44">
     <!-- Data 4mg PO (n=12) -->
     <g transform="translate(526.66517 124.190156) scale(0.09 -0.09)">
      <use xlink:href="#DejaVuSans-44"/>
      <use xlink:href="#DejaVuSans-61" x="77.001953"/>
      <use xlink:href="#DejaVuSans-74" x="138.28125"/>
      <use xlink:href="#DejaVuSans-61" x="177.490234"/>
      <use xlink:href="#DejaVuSans-20" x="238.769531"/>
      <use xlink:href="#DejaVuSans-34" x="270.556641"/>
      <use xlink:href="#DejaVuSans-6d" x="334.179688"/>
      <use xlink:href="#DejaVuSans-67" x="431.591797"/>
      <use xlink:href="#DejaVuSans-20" x="495.068359"/>
      <use xlink:href="#DejaVuSans-50" x="526.855469"/>
      <use xlink:href="#DejaVuSans-4f" x="587.158203"/>
      <use xlink:href="#DejaVuSans-20" x="665.869141"/>
      <use xlink:href="#DejaVuSans-28" x="697.65625"/>
      <use xlink:href="#DejaVuSans-6e" x="736.669922"/>
      <use xlink:href="#DejaVuSans-3d" x="800.048828"/>
      <use xlink:href="#DejaVuSans-31" x="883.837891"/>
      <use xlink:href="#DejaVuSans-32" x="947.460938"/>
      <use xlink:href="#DejaVuSans-29" x="1011.083984"/>
     </g>
    </g>
    <g id="line2d_75">
     <path d="M 501.46517 134.250469 
L 519.46517 134.250469 
" style="fill: none; stroke: #662506; stroke-width: 2; stroke-linecap: square"/>
    </g>
    <g id="line2d_76"/>
    <g id="text_45">
     <!-- Sim 8mg PO -->
     <g transform="translate(526.66517 137.400469) scale(0.09 -0.09)">
      <use xlink:href="#DejaVuSans-53"/>
      <use xlink:href="#DejaVuSans-69" x="63.476562"/>
      <use xlink:href="#DejaVuSans-6d" x="91.259766"/>
      <use xlink:href="#DejaVuSans-20" x="188.671875"/>
      <use xlink:href="#DejaVuSans-38" x="220.458984"/>
      <use xlink:href="#DejaVuSans-6d" x="284.082031"/>
      <use xlink:href="#DejaVuSans-67" x="381.494141"/>
      <use xlink:href="#DejaVuSans-20" x="444.970703"/>
      <use xlink:href="#DejaVuSans-50" x="476.757812"/>
      <use xlink:href="#DejaVuSans-4f" x="537.060547"/>
     </g>
    </g>
    <g id="line2d_77">
     <path d="M 501.46517 147.460781 
L 519.46517 147.460781 
" style="fill: none; stroke-dasharray: 3.7,1.6; stroke-dashoffset: 0; stroke: #662506"/>
    </g>
    <g id="line2d_78">
     <g>
      <use xlink:href="#mb0966feda9" x="510.46517" y="147.460781" style="fill: #662506; stroke: #000000; stroke-linejoin: miter"/>
     </g>
    </g>
    <g id="text_46">
     <!-- Data 8mg PO (n=12) -->
     <g transform="translate(526.66517 150.610781) scale(0.09 -0.09)">
      <use xlink:href="#DejaVuSans-44"/>
      <use xlink:href="#DejaVuSans-61" x="77.001953"/>
      <use xlink:href="#DejaVuSans-74" x="138.28125"/>
      <use xlink:href="#DejaVuSans-61" x="177.490234"/>
      <use xlink:href="#DejaVuSans-20" x="238.769531"/>
      <use xlink:href="#DejaVuSans-38" x="270.556641"/>
      <use xlink:href="#DejaVuSans-6d" x="334.179688"/>
      <use xlink:href="#DejaVuSans-67" x="431.591797"/>
      <use xlink:href="#DejaVuSans-20" x="495.068359"/>
      <use xlink:href="#DejaVuSans-50" x="526.855469"/>
      <use xlink:href="#DejaVuSans-4f" x="587.158203"/>
      <use xlink:href="#DejaVuSans-20" x="665.869141"/>
      <use xlink:href="#DejaVuSans-28" x="697.65625"/>
      <use xlink:href="#DejaVuSans-6e" x="736.669922"/>
      <use xlink:href="#DejaVuSans-3d" x="800.048828"/>
      <use xlink:href="#DejaVuSans-31" x="883.837891"/>
      <use xlink:href="#DejaVuSans-32" x="947.460938"/>
      <use xlink:href="#DejaVuSans-29" x="1011.083984"/>
     </g>
    </g>
   </g>
  </g>
  <g id="text_47">
   <!-- Malerczyk1994 (healthy) -->
   <g transform="translate(290.109531 22.396875) scale(0.2 -0.2)">
    <defs>
     <path id="DejaVuSans-Bold-63" d="M 3366 3391 
L 3366 2478 
Q 3138 2634 2908 2709 
Q 2678 2784 2431 2784 
Q 1963 2784 1702 2511 
Q 1441 2238 1441 1747 
Q 1441 1256 1702 982 
Q 1963 709 2431 709 
Q 2694 709 2930 787 
Q 3166 866 3366 1019 
L 3366 103 
Q 3103 6 2833 -42 
Q 2563 -91 2291 -91 
Q 1344 -91 809 395 
Q 275 881 275 1747 
Q 275 2613 809 3098 
Q 1344 3584 2291 3584 
Q 2566 3584 2833 3536 
Q 3100 3488 3366 3391 
z
" transform="scale(0.015625)"/>
     <path id="DejaVuSans-Bold-7a" d="M 366 3500 
L 3419 3500 
L 3419 2719 
L 1575 800 
L 3419 800 
L 3419 0 
L 288 0 
L 288 781 
L 2131 2700 
L 366 2700 
L 366 3500 
z
" transform="scale(0.015625)"/>
     <path id="DejaVuSans-Bold-79" d="M 78 3500 
L 1197 3500 
L 2138 1125 
L 2938 3500 
L 4056 3500 
L 2584 -331 
Q 2363 -916 2067 -1148 
Q 1772 -1381 1288 -1381 
L 641 -1381 
L 641 -647 
L 991 -647 
Q 1275 -647 1404 -556 
Q 1534 -466 1606 -231 
L 1638 -134 
L 78 3500 
z
" transform="scale(0.015625)"/>
     <path id="DejaVuSans-Bold-6b" d="M 538 4863 
L 1656 4863 
L 1656 2216 
L 2944 3500 
L 4244 3500 
L 2534 1894 
L 4378 0 
L 3022 0 
L 1656 1459 
L 1656 0 
L 538 0 
L 538 4863 
z
" transform="scale(0.015625)"/>
     <path id="DejaVuSans-Bold-39" d="M 641 103 
L 641 966 
Q 928 831 1190 764 
Q 1453 697 1709 697 
Q 2247 697 2547 995 
Q 2847 1294 2900 1881 
Q 2688 1725 2447 1647 
Q 2206 1569 1925 1569 
Q 1209 1569 770 1986 
Q 331 2403 331 3084 
Q 331 3838 820 4291 
Q 1309 4744 2131 4744 
Q 3044 4744 3544 4128 
Q 4044 3513 4044 2388 
Q 4044 1231 3459 570 
Q 2875 -91 1856 -91 
Q 1528 -91 1228 -42 
Q 928 6 641 103 
z
M 2125 2350 
Q 2441 2350 2600 2554 
Q 2759 2759 2759 3169 
Q 2759 3575 2600 3781 
Q 2441 3988 2125 3988 
Q 1809 3988 1650 3781 
Q 1491 3575 1491 3169 
Q 1491 2759 1650 2554 
Q 1809 2350 2125 2350 
z
" transform="scale(0.015625)"/>
     <path id="DejaVuSans-Bold-34" d="M 2356 3675 
L 1038 1722 
L 2356 1722 
L 2356 3675 
z
M 2156 4666 
L 3494 4666 
L 3494 1722 
L 4159 1722 
L 4159 850 
L 3494 850 
L 3494 0 
L 2356 0 
L 2356 850 
L 288 850 
L 288 1881 
L 2156 4666 
z
" transform="scale(0.015625)"/>
     <path id="DejaVuSans-Bold-28" d="M 2413 -844 
L 1484 -844 
Q 1006 -72 778 623 
Q 550 1319 550 2003 
Q 550 2688 779 3389 
Q 1009 4091 1484 4856 
L 2413 4856 
Q 2013 4116 1813 3408 
Q 1613 2700 1613 2009 
Q 1613 1319 1811 609 
Q 2009 -100 2413 -844 
z
" transform="scale(0.015625)"/>
     <path id="DejaVuSans-Bold-74" d="M 1759 4494 
L 1759 3500 
L 2913 3500 
L 2913 2700 
L 1759 2700 
L 1759 1216 
Q 1759 972 1856 886 
Q 1953 800 2241 800 
L 2816 800 
L 2816 0 
L 1856 0 
Q 1194 0 917 276 
Q 641 553 641 1216 
L 641 2700 
L 84 2700 
L 84 3500 
L 641 3500 
L 641 4494 
L 1759 4494 
z
" transform="scale(0.015625)"/>
     <path id="DejaVuSans-Bold-29" d="M 513 -844 
Q 913 -100 1113 609 
Q 1313 1319 1313 2009 
Q 1313 2700 1113 3408 
Q 913 4116 513 4856 
L 1441 4856 
Q 1916 4091 2145 3389 
Q 2375 2688 2375 2003 
Q 2375 1319 2147 623 
Q 1919 -72 1441 -844 
L 513 -844 
z
" transform="scale(0.015625)"/>
    </defs>
    <use xlink:href="#DejaVuSans-Bold-4d"/>
    <use xlink:href="#DejaVuSans-Bold-61" x="99.511719"/>
    <use xlink:href="#DejaVuSans-Bold-6c" x="166.992188"/>
    <use xlink:href="#DejaVuSans-Bold-65" x="201.269531"/>
    <use xlink:href="#DejaVuSans-Bold-72" x="269.091797"/>
    <use xlink:href="#DejaVuSans-Bold-63" x="318.408203"/>
    <use xlink:href="#DejaVuSans-Bold-7a" x="377.685547"/>
    <use xlink:href="#DejaVuSans-Bold-79" x="435.888672"/>
    <use xlink:href="#DejaVuSans-Bold-6b" x="501.074219"/>
    <use xlink:href="#DejaVuSans-Bold-31" x="567.578125"/>
    <use xlink:href="#DejaVuSans-Bold-39" x="637.158203"/>
    <use xlink:href="#DejaVuSans-Bold-39" x="706.738281"/>
    <use xlink:href="#DejaVuSans-Bold-34" x="776.318359"/>
    <use xlink:href="#DejaVuSans-Bold-20" x="845.898438"/>
    <use xlink:href="#DejaVuSans-Bold-28" x="880.712891"/>
    <use xlink:href="#DejaVuSans-Bold-68" x="926.416016"/>
    <use xlink:href="#DejaVuSans-Bold-65" x="997.607422"/>
    <use xlink:href="#DejaVuSans-Bold-61" x="1065.429688"/>
    <use xlink:href="#DejaVuSans-Bold-6c" x="1132.910156"/>
    <use xlink:href="#DejaVuSans-Bold-74" x="1167.1875"/>
    <use xlink:href="#DejaVuSans-Bold-68" x="1214.990234"/>
    <use xlink:href="#DejaVuSans-Bold-79" x="1286.181641"/>
    <use xlink:href="#DejaVuSans-Bold-29" x="1351.367188"/>
   </g>
  </g>
 </g>
 <defs>
  <clipPath id="pf8169e119f">
   <rect x="51.817344" y="43.2" width="339.652174" height="277.2"/>
  </clipPath>
  <clipPath id="pdae03b0f8a">
   <rect x="493.36517" y="43.2" width="339.652174" height="277.2"/>
  </clipPath>
 </defs>
</svg>
