<?xml version="1.0" encoding="utf-8" standalone="no"?>
<!DOCTYPE svg PUBLIC "-//W3C//DTD SVG 1.1//EN"
  "http://www.w3.org/Graphics/SVG/1.1/DTD/svg11.dtd">
<svg xmlns:xlink="http://www.w3.org/1999/xlink" width="1389.875pt" height="421.900312pt" viewBox="0 0 1389.875 421.900312" xmlns="http://www.w3.org/2000/svg" version="1.1">
 <metadata>
  <rdf:RDF xmlns:dc="http://purl.org/dc/elements/1.1/" xmlns:cc="http://creativecommons.org/ns#" xmlns:rdf="http://www.w3.org/1999/02/22-rdf-syntax-ns#">
   <cc:Work>
    <dc:type rdf:resource="http://purl.org/dc/dcmitype/StillImage"/>
    <dc:date>2025-04-10T14:57:57.776679</dc:date>
    <dc:format>image/svg+xml</dc:format>
    <dc:creator>
     <cc:Agent>
      <dc:title>Matplotlib v3.9.1, https://matplotlib.org/</dc:title>
     </cc:Agent>
    </dc:creator>
   </cc:Work>
  </rdf:RDF>
 </metadata>
 <defs>
  <style type="text/css">*{stroke-linejoin: round; stroke-linecap: butt}</style>
 </defs>
 <g id="figure_1">
  <g id="patch_1">
   <path d="M 0 421.900312 
L 1389.875 421.900312 
L 1389.875 0 
L 0 0 
z
" style="fill: #ffffff"/>
  </g>
  <g id="axes_1">
   <g id="patch_2">
    <path d="M 43.475 383.04 
L 334.605435 383.04 
L 334.605435 50.4 
L 43.475 50.4 
z
" style="fill: #ffffff"/>
   </g>
   <g id="matplotlib.axis_1">
    <g id="xtick_1">
     <g id="line2d_1">
      <path d="M 56.708202 383.04 
L 56.708202 50.4 
" clip-path="url(#p4df813340c)" style="fill: none; stroke-dasharray: 2.96,1.28; stroke-dashoffset: 0; stroke: #cccccc; stroke-opacity: 0.6; stroke-width: 0.8"/>
     </g>
     <g id="line2d_2"/>
     <g id="text_1">
      <!-- 0.0 -->
      <g style="fill: #262626" transform="translate(49.758202 393.697812) scale(0.1 -0.1)">
       <defs>
        <path id="ArialMT-30" d="M 266 2259 
Q 266 3072 433 3567 
Q 600 4063 929 4331 
Q 1259 4600 1759 4600 
Q 2128 4600 2406 4451 
Q 2684 4303 2865 4023 
Q 3047 3744 3150 3342 
Q 3253 2941 3253 2259 
Q 3253 1453 3087 958 
Q 2922 463 2592 192 
Q 2263 -78 1759 -78 
Q 1097 -78 719 397 
Q 266 969 266 2259 
z
M 844 2259 
Q 844 1131 1108 757 
Q 1372 384 1759 384 
Q 2147 384 2411 759 
Q 2675 1134 2675 2259 
Q 2675 3391 2411 3762 
Q 2147 4134 1753 4134 
Q 1366 4134 1134 3806 
Q 844 3388 844 2259 
z
" transform="scale(0.015625)"/>
        <path id="ArialMT-2e" d="M 581 0 
L 581 641 
L 1222 641 
L 1222 0 
L 581 0 
z
" transform="scale(0.015625)"/>
       </defs>
       <use xlink:href="#ArialMT-30"/>
       <use xlink:href="#ArialMT-2e" x="55.615234"/>
       <use xlink:href="#ArialMT-30" x="83.398438"/>
      </g>
     </g>
    </g>
    <g id="xtick_2">
     <g id="line2d_3">
      <path d="M 115.522431 383.04 
L 115.522431 50.4 
" clip-path="url(#p4df813340c)" style="fill: none; stroke-dasharray: 2.96,1.28; stroke-dashoffset: 0; stroke: #cccccc; stroke-opacity: 0.6; stroke-width: 0.8"/>
     </g>
     <g id="line2d_4"/>
     <g id="text_2">
      <!-- 0.2 -->
      <g style="fill: #262626" transform="translate(108.572431 393.697812) scale(0.1 -0.1)">
       <defs>
        <path id="ArialMT-32" d="M 3222 541 
L 3222 0 
L 194 0 
Q 188 203 259 391 
Q 375 700 629 1000 
Q 884 1300 1366 1694 
Q 2113 2306 2375 2664 
Q 2638 3022 2638 3341 
Q 2638 3675 2398 3904 
Q 2159 4134 1775 4134 
Q 1369 4134 1125 3890 
Q 881 3647 878 3216 
L 300 3275 
Q 359 3922 746 4261 
Q 1134 4600 1788 4600 
Q 2447 4600 2831 4234 
Q 3216 3869 3216 3328 
Q 3216 3053 3103 2787 
Q 2991 2522 2730 2228 
Q 2469 1934 1863 1422 
Q 1356 997 1212 845 
Q 1069 694 975 541 
L 3222 541 
z
" transform="scale(0.015625)"/>
       </defs>
       <use xlink:href="#ArialMT-30"/>
       <use xlink:href="#ArialMT-2e" x="55.615234"/>
       <use xlink:href="#ArialMT-32" x="83.398438"/>
      </g>
     </g>
    </g>
    <g id="xtick_3">
     <g id="line2d_5">
      <path d="M 174.33666 383.04 
L 174.33666 50.4 
" clip-path="url(#p4df813340c)" style="fill: none; stroke-dasharray: 2.96,1.28; stroke-dashoffset: 0; stroke: #cccccc; stroke-opacity: 0.6; stroke-width: 0.8"/>
     </g>
     <g id="line2d_6"/>
     <g id="text_3">
      <!-- 0.4 -->
      <g style="fill: #262626" transform="translate(167.38666 393.697812) scale(0.1 -0.1)">
       <defs>
        <path id="ArialMT-34" d="M 2069 0 
L 2069 1097 
L 81 1097 
L 81 1613 
L 2172 4581 
L 2631 4581 
L 2631 1613 
L 3250 1613 
L 3250 1097 
L 2631 1097 
L 2631 0 
L 2069 0 
z
M 2069 1613 
L 2069 3678 
L 634 1613 
L 2069 1613 
z
" transform="scale(0.015625)"/>
       </defs>
       <use xlink:href="#ArialMT-30"/>
       <use xlink:href="#ArialMT-2e" x="55.615234"/>
       <use xlink:href="#ArialMT-34" x="83.398438"/>
      </g>
     </g>
    </g>
    <g id="xtick_4">
     <g id="line2d_7">
      <path d="M 233.150889 383.04 
L 233.150889 50.4 
" clip-path="url(#p4df813340c)" style="fill: none; stroke-dasharray: 2.96,1.28; stroke-dashoffset: 0; stroke: #cccccc; stroke-opacity: 0.6; stroke-width: 0.8"/>
     </g>
     <g id="line2d_8"/>
     <g id="text_4">
      <!-- 0.6 -->
      <g style="fill: #262626" transform="translate(226.200889 393.697812) scale(0.1 -0.1)">
       <defs>
        <path id="ArialMT-36" d="M 3184 3459 
L 2625 3416 
Q 2550 3747 2413 3897 
Q 2184 4138 1850 4138 
Q 1581 4138 1378 3988 
Q 1113 3794 959 3422 
Q 806 3050 800 2363 
Q 1003 2672 1297 2822 
Q 1591 2972 1913 2972 
Q 2475 2972 2870 2558 
Q 3266 2144 3266 1488 
Q 3266 1056 3080 686 
Q 2894 316 2569 119 
Q 2244 -78 1831 -78 
Q 1128 -78 684 439 
Q 241 956 241 2144 
Q 241 3472 731 4075 
Q 1159 4600 1884 4600 
Q 2425 4600 2770 4297 
Q 3116 3994 3184 3459 
z
M 888 1484 
Q 888 1194 1011 928 
Q 1134 663 1356 523 
Q 1578 384 1822 384 
Q 2178 384 2434 671 
Q 2691 959 2691 1453 
Q 2691 1928 2437 2201 
Q 2184 2475 1800 2475 
Q 1419 2475 1153 2201 
Q 888 1928 888 1484 
z
" transform="scale(0.015625)"/>
       </defs>
       <use xlink:href="#ArialMT-30"/>
       <use xlink:href="#ArialMT-2e" x="55.615234"/>
       <use xlink:href="#ArialMT-36" x="83.398438"/>
      </g>
     </g>
    </g>
    <g id="xtick_5">
     <g id="line2d_9">
      <path d="M 291.965119 383.04 
L 291.965119 50.4 
" clip-path="url(#p4df813340c)" style="fill: none; stroke-dasharray: 2.96,1.28; stroke-dashoffset: 0; stroke: #cccccc; stroke-opacity: 0.6; stroke-width: 0.8"/>
     </g>
     <g id="line2d_10"/>
     <g id="text_5">
      <!-- 0.8 -->
      <g style="fill: #262626" transform="translate(285.015119 393.697812) scale(0.1 -0.1)">
       <defs>
        <path id="ArialMT-38" d="M 1131 2484 
Q 781 2613 612 2850 
Q 444 3088 444 3419 
Q 444 3919 803 4259 
Q 1163 4600 1759 4600 
Q 2359 4600 2725 4251 
Q 3091 3903 3091 3403 
Q 3091 3084 2923 2848 
Q 2756 2613 2416 2484 
Q 2838 2347 3058 2040 
Q 3278 1734 3278 1309 
Q 3278 722 2862 322 
Q 2447 -78 1769 -78 
Q 1091 -78 675 323 
Q 259 725 259 1325 
Q 259 1772 486 2073 
Q 713 2375 1131 2484 
z
M 1019 3438 
Q 1019 3113 1228 2906 
Q 1438 2700 1772 2700 
Q 2097 2700 2305 2904 
Q 2513 3109 2513 3406 
Q 2513 3716 2298 3927 
Q 2084 4138 1766 4138 
Q 1444 4138 1231 3931 
Q 1019 3725 1019 3438 
z
M 838 1322 
Q 838 1081 952 856 
Q 1066 631 1291 507 
Q 1516 384 1775 384 
Q 2178 384 2440 643 
Q 2703 903 2703 1303 
Q 2703 1709 2433 1975 
Q 2163 2241 1756 2241 
Q 1359 2241 1098 1978 
Q 838 1716 838 1322 
z
" transform="scale(0.015625)"/>
       </defs>
       <use xlink:href="#ArialMT-30"/>
       <use xlink:href="#ArialMT-2e" x="55.615234"/>
       <use xlink:href="#ArialMT-38" x="83.398438"/>
      </g>
     </g>
    </g>
    <g id="text_6">
     <!-- Cirrhosis degree -->
     <g style="fill: #262626" transform="translate(125.465217 411.332812) scale(0.16 -0.16)">
      <defs>
       <path id="Arial-BoldMT-43" d="M 3397 1684 
L 4294 1400 
Q 4088 650 3608 286 
Q 3128 -78 2391 -78 
Q 1478 -78 890 545 
Q 303 1169 303 2250 
Q 303 3394 893 4026 
Q 1484 4659 2447 4659 
Q 3288 4659 3813 4163 
Q 4125 3869 4281 3319 
L 3366 3100 
Q 3284 3456 3026 3662 
Q 2769 3869 2400 3869 
Q 1891 3869 1573 3503 
Q 1256 3138 1256 2319 
Q 1256 1450 1568 1081 
Q 1881 713 2381 713 
Q 2750 713 3015 947 
Q 3281 1181 3397 1684 
z
" transform="scale(0.015625)"/>
       <path id="Arial-BoldMT-69" d="M 459 3769 
L 459 4581 
L 1338 4581 
L 1338 3769 
L 459 3769 
z
M 459 0 
L 459 3319 
L 1338 3319 
L 1338 0 
L 459 0 
z
" transform="scale(0.015625)"/>
       <path id="Arial-BoldMT-72" d="M 1300 0 
L 422 0 
L 422 3319 
L 1238 3319 
L 1238 2847 
Q 1447 3181 1614 3287 
Q 1781 3394 1994 3394 
Q 2294 3394 2572 3228 
L 2300 2463 
Q 2078 2606 1888 2606 
Q 1703 2606 1575 2504 
Q 1447 2403 1373 2137 
Q 1300 1872 1300 1025 
L 1300 0 
z
" transform="scale(0.015625)"/>
       <path id="Arial-BoldMT-68" d="M 1334 4581 
L 1334 2897 
Q 1759 3394 2350 3394 
Q 2653 3394 2897 3281 
Q 3141 3169 3264 2994 
Q 3388 2819 3433 2606 
Q 3478 2394 3478 1947 
L 3478 0 
L 2600 0 
L 2600 1753 
Q 2600 2275 2550 2415 
Q 2500 2556 2373 2639 
Q 2247 2722 2056 2722 
Q 1838 2722 1666 2615 
Q 1494 2509 1414 2295 
Q 1334 2081 1334 1663 
L 1334 0 
L 456 0 
L 456 4581 
L 1334 4581 
z
" transform="scale(0.015625)"/>
       <path id="Arial-BoldMT-6f" d="M 256 1706 
Q 256 2144 472 2553 
Q 688 2963 1083 3178 
Q 1478 3394 1966 3394 
Q 2719 3394 3200 2905 
Q 3681 2416 3681 1669 
Q 3681 916 3195 420 
Q 2709 -75 1972 -75 
Q 1516 -75 1102 131 
Q 688 338 472 736 
Q 256 1134 256 1706 
z
M 1156 1659 
Q 1156 1166 1390 903 
Q 1625 641 1969 641 
Q 2313 641 2545 903 
Q 2778 1166 2778 1666 
Q 2778 2153 2545 2415 
Q 2313 2678 1969 2678 
Q 1625 2678 1390 2415 
Q 1156 2153 1156 1659 
z
" transform="scale(0.015625)"/>
       <path id="Arial-BoldMT-73" d="M 150 947 
L 1031 1081 
Q 1088 825 1259 692 
Q 1431 559 1741 559 
Q 2081 559 2253 684 
Q 2369 772 2369 919 
Q 2369 1019 2306 1084 
Q 2241 1147 2013 1200 
Q 950 1434 666 1628 
Q 272 1897 272 2375 
Q 272 2806 612 3100 
Q 953 3394 1669 3394 
Q 2350 3394 2681 3172 
Q 3013 2950 3138 2516 
L 2309 2363 
Q 2256 2556 2107 2659 
Q 1959 2763 1684 2763 
Q 1338 2763 1188 2666 
Q 1088 2597 1088 2488 
Q 1088 2394 1175 2328 
Q 1294 2241 1995 2081 
Q 2697 1922 2975 1691 
Q 3250 1456 3250 1038 
Q 3250 581 2869 253 
Q 2488 -75 1741 -75 
Q 1063 -75 667 200 
Q 272 475 150 947 
z
" transform="scale(0.015625)"/>
       <path id="Arial-BoldMT-20" transform="scale(0.015625)"/>
       <path id="Arial-BoldMT-64" d="M 3503 0 
L 2688 0 
L 2688 488 
Q 2484 203 2207 64 
Q 1931 -75 1650 -75 
Q 1078 -75 670 386 
Q 263 847 263 1672 
Q 263 2516 659 2955 
Q 1056 3394 1663 3394 
Q 2219 3394 2625 2931 
L 2625 4581 
L 3503 4581 
L 3503 0 
z
M 1159 1731 
Q 1159 1200 1306 963 
Q 1519 619 1900 619 
Q 2203 619 2415 876 
Q 2628 1134 2628 1647 
Q 2628 2219 2422 2470 
Q 2216 2722 1894 2722 
Q 1581 2722 1370 2473 
Q 1159 2225 1159 1731 
z
" transform="scale(0.015625)"/>
       <path id="Arial-BoldMT-65" d="M 2381 1056 
L 3256 909 
Q 3088 428 2723 176 
Q 2359 -75 1813 -75 
Q 947 -75 531 491 
Q 203 944 203 1634 
Q 203 2459 634 2926 
Q 1066 3394 1725 3394 
Q 2466 3394 2894 2905 
Q 3322 2416 3303 1406 
L 1103 1406 
Q 1113 1016 1316 798 
Q 1519 581 1822 581 
Q 2028 581 2168 693 
Q 2309 806 2381 1056 
z
M 2431 1944 
Q 2422 2325 2234 2523 
Q 2047 2722 1778 2722 
Q 1491 2722 1303 2513 
Q 1116 2303 1119 1944 
L 2431 1944 
z
" transform="scale(0.015625)"/>
       <path id="Arial-BoldMT-67" d="M 378 -219 
L 1381 -341 
Q 1406 -516 1497 -581 
Q 1622 -675 1891 -675 
Q 2234 -675 2406 -572 
Q 2522 -503 2581 -350 
Q 2622 -241 2622 53 
L 2622 538 
Q 2228 0 1628 0 
Q 959 0 569 566 
Q 263 1013 263 1678 
Q 263 2513 664 2953 
Q 1066 3394 1663 3394 
Q 2278 3394 2678 2853 
L 2678 3319 
L 3500 3319 
L 3500 341 
Q 3500 -247 3403 -537 
Q 3306 -828 3131 -993 
Q 2956 -1159 2664 -1253 
Q 2372 -1347 1925 -1347 
Q 1081 -1347 728 -1058 
Q 375 -769 375 -325 
Q 375 -281 378 -219 
z
M 1163 1728 
Q 1163 1200 1367 954 
Q 1572 709 1872 709 
Q 2194 709 2416 961 
Q 2638 1213 2638 1706 
Q 2638 2222 2425 2472 
Q 2213 2722 1888 2722 
Q 1572 2722 1367 2476 
Q 1163 2231 1163 1728 
z
" transform="scale(0.015625)"/>
      </defs>
      <use xlink:href="#Arial-BoldMT-43"/>
      <use xlink:href="#Arial-BoldMT-69" x="72.216797"/>
      <use xlink:href="#Arial-BoldMT-72" x="100"/>
      <use xlink:href="#Arial-BoldMT-72" x="138.916016"/>
      <use xlink:href="#Arial-BoldMT-68" x="177.832031"/>
      <use xlink:href="#Arial-BoldMT-6f" x="238.916016"/>
      <use xlink:href="#Arial-BoldMT-73" x="300"/>
      <use xlink:href="#Arial-BoldMT-69" x="355.615234"/>
      <use xlink:href="#Arial-BoldMT-73" x="383.398438"/>
      <use xlink:href="#Arial-BoldMT-20" x="439.013672"/>
      <use xlink:href="#Arial-BoldMT-64" x="466.796875"/>
      <use xlink:href="#Arial-BoldMT-65" x="527.880859"/>
      <use xlink:href="#Arial-BoldMT-67" x="583.496094"/>
      <use xlink:href="#Arial-BoldMT-72" x="644.580078"/>
      <use xlink:href="#Arial-BoldMT-65" x="683.496094"/>
      <use xlink:href="#Arial-BoldMT-65" x="739.111328"/>
     </g>
    </g>
   </g>
   <g id="matplotlib.axis_2">
    <g id="ytick_1">
     <g id="line2d_11">
      <path d="M 43.475 383.04 
L 334.605435 383.04 
" clip-path="url(#p4df813340c)" style="fill: none; stroke-dasharray: 2.96,1.28; stroke-dashoffset: 0; stroke: #cccccc; stroke-opacity: 0.6; stroke-width: 0.8"/>
     </g>
     <g id="line2d_12"/>
     <g id="text_7">
      <!-- 0.0 -->
      <g style="fill: #262626" transform="translate(26.075 386.618906) scale(0.1 -0.1)">
       <use xlink:href="#ArialMT-30"/>
       <use xlink:href="#ArialMT-2e" x="55.615234"/>
       <use xlink:href="#ArialMT-30" x="83.398438"/>
      </g>
     </g>
    </g>
    <g id="ytick_2">
     <g id="line2d_13">
      <path d="M 43.475 309.273611 
L 334.605435 309.273611 
" clip-path="url(#p4df813340c)" style="fill: none; stroke-dasharray: 2.96,1.28; stroke-dashoffset: 0; stroke: #cccccc; stroke-opacity: 0.6; stroke-width: 0.8"/>
     </g>
     <g id="line2d_14"/>
     <g id="text_8">
      <!-- 0.2 -->
      <g style="fill: #262626" transform="translate(26.075 312.852518) scale(0.1 -0.1)">
       <use xlink:href="#ArialMT-30"/>
       <use xlink:href="#ArialMT-2e" x="55.615234"/>
       <use xlink:href="#ArialMT-32" x="83.398438"/>
      </g>
     </g>
    </g>
    <g id="ytick_3">
     <g id="line2d_15">
      <path d="M 43.475 235.507223 
L 334.605435 235.507223 
" clip-path="url(#p4df813340c)" style="fill: none; stroke-dasharray: 2.96,1.28; stroke-dashoffset: 0; stroke: #cccccc; stroke-opacity: 0.6; stroke-width: 0.8"/>
     </g>
     <g id="line2d_16"/>
     <g id="text_9">
      <!-- 0.4 -->
      <g style="fill: #262626" transform="translate(26.075 239.086129) scale(0.1 -0.1)">
       <use xlink:href="#ArialMT-30"/>
       <use xlink:href="#ArialMT-2e" x="55.615234"/>
       <use xlink:href="#ArialMT-34" x="83.398438"/>
      </g>
     </g>
    </g>
    <g id="ytick_4">
     <g id="line2d_17">
      <path d="M 43.475 161.740834 
L 334.605435 161.740834 
" clip-path="url(#p4df813340c)" style="fill: none; stroke-dasharray: 2.96,1.28; stroke-dashoffset: 0; stroke: #cccccc; stroke-opacity: 0.6; stroke-width: 0.8"/>
     </g>
     <g id="line2d_18"/>
     <g id="text_10">
      <!-- 0.6 -->
      <g style="fill: #262626" transform="translate(26.075 165.31974) scale(0.1 -0.1)">
       <use xlink:href="#ArialMT-30"/>
       <use xlink:href="#ArialMT-2e" x="55.615234"/>
       <use xlink:href="#ArialMT-36" x="83.398438"/>
      </g>
     </g>
    </g>
    <g id="ytick_5">
     <g id="line2d_19">
      <path d="M 43.475 87.974445 
L 334.605435 87.974445 
" clip-path="url(#p4df813340c)" style="fill: none; stroke-dasharray: 2.96,1.28; stroke-dashoffset: 0; stroke: #cccccc; stroke-opacity: 0.6; stroke-width: 0.8"/>
     </g>
     <g id="line2d_20"/>
     <g id="text_11">
      <!-- 0.8 -->
      <g style="fill: #262626" transform="translate(26.075 91.553351) scale(0.1 -0.1)">
       <use xlink:href="#ArialMT-30"/>
       <use xlink:href="#ArialMT-2e" x="55.615234"/>
       <use xlink:href="#ArialMT-38" x="83.398438"/>
      </g>
     </g>
    </g>
    <g id="text_12">
     <!-- AUC [millimole * minute / liter] -->
     <g style="fill: #262626" transform="translate(18.8475 331.39625) rotate(-90) scale(0.16 -0.16)">
      <defs>
       <path id="Arial-BoldMT-41" d="M 4597 0 
L 3591 0 
L 3191 1041 
L 1359 1041 
L 981 0 
L 0 0 
L 1784 4581 
L 2763 4581 
L 4597 0 
z
M 2894 1813 
L 2263 3513 
L 1644 1813 
L 2894 1813 
z
" transform="scale(0.015625)"/>
       <path id="Arial-BoldMT-55" d="M 459 4581 
L 1384 4581 
L 1384 2100 
Q 1384 1509 1419 1334 
Q 1478 1053 1701 883 
Q 1925 713 2313 713 
Q 2706 713 2906 873 
Q 3106 1034 3147 1268 
Q 3188 1503 3188 2047 
L 3188 4581 
L 4113 4581 
L 4113 2175 
Q 4113 1350 4038 1009 
Q 3963 669 3761 434 
Q 3559 200 3221 61 
Q 2884 -78 2341 -78 
Q 1684 -78 1345 73 
Q 1006 225 809 467 
Q 613 709 550 975 
Q 459 1369 459 2138 
L 459 4581 
z
" transform="scale(0.015625)"/>
       <path id="Arial-BoldMT-5b" d="M 456 -1291 
L 456 4581 
L 2013 4581 
L 2013 3891 
L 1291 3891 
L 1291 -600 
L 2013 -600 
L 2013 -1291 
L 456 -1291 
z
" transform="scale(0.015625)"/>
       <path id="Arial-BoldMT-6d" d="M 394 3319 
L 1203 3319 
L 1203 2866 
Q 1638 3394 2238 3394 
Q 2556 3394 2790 3262 
Q 3025 3131 3175 2866 
Q 3394 3131 3647 3262 
Q 3900 3394 4188 3394 
Q 4553 3394 4806 3245 
Q 5059 3097 5184 2809 
Q 5275 2597 5275 2122 
L 5275 0 
L 4397 0 
L 4397 1897 
Q 4397 2391 4306 2534 
Q 4184 2722 3931 2722 
Q 3747 2722 3584 2609 
Q 3422 2497 3350 2280 
Q 3278 2063 3278 1594 
L 3278 0 
L 2400 0 
L 2400 1819 
Q 2400 2303 2353 2443 
Q 2306 2584 2207 2653 
Q 2109 2722 1941 2722 
Q 1738 2722 1575 2612 
Q 1413 2503 1342 2297 
Q 1272 2091 1272 1613 
L 1272 0 
L 394 0 
L 394 3319 
z
" transform="scale(0.015625)"/>
       <path id="Arial-BoldMT-6c" d="M 459 0 
L 459 4581 
L 1338 4581 
L 1338 0 
L 459 0 
z
" transform="scale(0.015625)"/>
       <path id="Arial-BoldMT-2a" d="M 766 2475 
L 294 2841 
Q 519 3094 763 3325 
Q 859 3419 884 3444 
Q 806 3456 438 3547 
Q 172 3613 88 3644 
L 272 4194 
Q 681 4028 1003 3828 
Q 928 4338 928 4659 
L 1484 4659 
Q 1484 4431 1400 3822 
Q 1463 3847 1669 3944 
Q 1950 4072 2188 4163 
L 2353 3597 
Q 2006 3519 1550 3444 
L 1925 3022 
Q 2038 2894 2103 2813 
L 1625 2497 
L 1203 3194 
Q 1013 2856 766 2475 
z
" transform="scale(0.015625)"/>
       <path id="Arial-BoldMT-6e" d="M 3478 0 
L 2600 0 
L 2600 1694 
Q 2600 2231 2544 2389 
Q 2488 2547 2361 2634 
Q 2234 2722 2056 2722 
Q 1828 2722 1647 2597 
Q 1466 2472 1398 2265 
Q 1331 2059 1331 1503 
L 1331 0 
L 453 0 
L 453 3319 
L 1269 3319 
L 1269 2831 
Q 1703 3394 2363 3394 
Q 2653 3394 2893 3289 
Q 3134 3184 3257 3021 
Q 3381 2859 3429 2653 
Q 3478 2447 3478 2063 
L 3478 0 
z
" transform="scale(0.015625)"/>
       <path id="Arial-BoldMT-75" d="M 2644 0 
L 2644 497 
Q 2463 231 2167 78 
Q 1872 -75 1544 -75 
Q 1209 -75 943 72 
Q 678 219 559 484 
Q 441 750 441 1219 
L 441 3319 
L 1319 3319 
L 1319 1794 
Q 1319 1094 1367 936 
Q 1416 778 1544 686 
Q 1672 594 1869 594 
Q 2094 594 2272 717 
Q 2450 841 2515 1023 
Q 2581 1206 2581 1919 
L 2581 3319 
L 3459 3319 
L 3459 0 
L 2644 0 
z
" transform="scale(0.015625)"/>
       <path id="Arial-BoldMT-74" d="M 1981 3319 
L 1981 2619 
L 1381 2619 
L 1381 1281 
Q 1381 875 1398 808 
Q 1416 741 1477 697 
Q 1538 653 1625 653 
Q 1747 653 1978 738 
L 2053 56 
Q 1747 -75 1359 -75 
Q 1122 -75 931 4 
Q 741 84 652 211 
Q 563 338 528 553 
Q 500 706 500 1172 
L 500 2619 
L 97 2619 
L 97 3319 
L 500 3319 
L 500 3978 
L 1381 4491 
L 1381 3319 
L 1981 3319 
z
" transform="scale(0.015625)"/>
       <path id="Arial-BoldMT-2f" d="M -9 -78 
L 1125 4659 
L 1784 4659 
L 638 -78 
L -9 -78 
z
" transform="scale(0.015625)"/>
       <path id="Arial-BoldMT-5d" d="M 1675 4581 
L 1675 -1291 
L 119 -1291 
L 119 -600 
L 841 -600 
L 841 3897 
L 119 3897 
L 119 4581 
L 1675 4581 
z
" transform="scale(0.015625)"/>
      </defs>
      <use xlink:href="#Arial-BoldMT-41"/>
      <use xlink:href="#Arial-BoldMT-55" x="72.216797"/>
      <use xlink:href="#Arial-BoldMT-43" x="144.433594"/>
      <use xlink:href="#Arial-BoldMT-20" x="216.650391"/>
      <use xlink:href="#Arial-BoldMT-5b" x="244.433594"/>
      <use xlink:href="#Arial-BoldMT-6d" x="277.734375"/>
      <use xlink:href="#Arial-BoldMT-69" x="366.650391"/>
      <use xlink:href="#Arial-BoldMT-6c" x="394.433594"/>
      <use xlink:href="#Arial-BoldMT-6c" x="422.216797"/>
      <use xlink:href="#Arial-BoldMT-69" x="450"/>
      <use xlink:href="#Arial-BoldMT-6d" x="477.783203"/>
      <use xlink:href="#Arial-BoldMT-6f" x="566.699219"/>
      <use xlink:href="#Arial-BoldMT-6c" x="627.783203"/>
      <use xlink:href="#Arial-BoldMT-65" x="655.566406"/>
      <use xlink:href="#Arial-BoldMT-20" x="711.181641"/>
      <use xlink:href="#Arial-BoldMT-2a" x="738.964844"/>
      <use xlink:href="#Arial-BoldMT-20" x="777.880859"/>
      <use xlink:href="#Arial-BoldMT-6d" x="805.664062"/>
      <use xlink:href="#Arial-BoldMT-69" x="894.580078"/>
      <use xlink:href="#Arial-BoldMT-6e" x="922.363281"/>
      <use xlink:href="#Arial-BoldMT-75" x="983.447266"/>
      <use xlink:href="#Arial-BoldMT-74" x="1044.53125"/>
      <use xlink:href="#Arial-BoldMT-65" x="1077.832031"/>
      <use xlink:href="#Arial-BoldMT-20" x="1133.447266"/>
      <use xlink:href="#Arial-BoldMT-2f" x="1161.230469"/>
      <use xlink:href="#Arial-BoldMT-20" x="1189.013672"/>
      <use xlink:href="#Arial-BoldMT-6c" x="1216.796875"/>
      <use xlink:href="#Arial-BoldMT-69" x="1244.580078"/>
      <use xlink:href="#Arial-BoldMT-74" x="1272.363281"/>
      <use xlink:href="#Arial-BoldMT-65" x="1305.664062"/>
      <use xlink:href="#Arial-BoldMT-72" x="1361.279297"/>
      <use xlink:href="#Arial-BoldMT-5d" x="1400.195312"/>
     </g>
    </g>
   </g>
   <g id="line2d_21">
    <path d="M 56.708202 383.04 
L 56.708202 50.4 
" clip-path="url(#p4df813340c)" style="fill: none; stroke-dasharray: 5.55,2.4; stroke-dashoffset: 0; stroke: #808080; stroke-width: 1.5"/>
   </g>
   <g id="line2d_22">
    <path d="M 56.708202 309.406055 
L 59.381576 308.854946 
L 62.05495 308.296256 
L 64.728324 307.729834 
L 67.401698 307.155526 
L 70.075072 306.573172 
L 72.748446 305.982609 
L 75.42182 305.383669 
L 78.095194 304.776182 
L 80.768568 304.159971 
L 83.441942 303.534854 
L 86.115316 302.899922 
L 88.78869 302.256427 
L 91.462064 301.603455 
L 94.135438 300.940803 
L 96.808812 300.268264 
L 99.482186 299.585626 
L 102.155561 298.89267 
L 104.828935 298.189171 
L 107.502309 297.474898 
L 110.175683 296.749614 
L 112.849057 296.013075 
L 115.522431 295.265029 
L 118.195805 294.505218 
L 120.869179 293.733376 
L 123.542553 292.94923 
L 126.215927 292.152498 
L 128.889301 291.342891 
L 131.562675 290.52011 
L 134.236049 289.683848 
L 136.909423 288.833788 
L 139.582797 287.969606 
L 142.256171 287.090965 
L 144.929545 286.197521 
L 147.60292 285.288916 
L 150.276294 284.364783 
L 152.949668 283.424746 
L 155.623042 282.468412 
L 158.296416 281.495381 
L 160.96979 280.505237 
L 163.643164 279.497553 
L 166.316538 278.471888 
L 168.989912 277.427787 
L 171.663286 276.364779 
L 174.33666 275.282381 
L 177.010034 274.180091 
L 179.683408 273.057394 
L 182.356782 271.913756 
L 185.030156 270.748627 
L 187.70353 269.561437 
L 190.376904 268.351601 
L 193.050278 267.11851 
L 195.723653 265.861538 
L 198.397027 264.580038 
L 201.070401 263.273339 
L 203.743775 261.940749 
L 206.417149 260.581554 
L 209.090523 259.195014 
L 211.763897 257.780363 
L 214.437271 256.336811 
L 217.110645 254.863541 
L 219.784019 253.359706 
L 222.457393 251.82443 
L 225.130767 250.25681 
L 227.804141 248.655907 
L 230.477515 247.020754 
L 233.150889 245.350346 
L 235.824263 243.643647 
L 238.497637 241.899581 
L 241.171011 240.117039 
L 243.844386 238.294868 
L 246.51776 236.431878 
L 249.191134 234.526838 
L 251.864508 232.57847 
L 254.537882 230.585455 
L 257.211256 228.546426 
L 259.88463 226.459968 
L 262.558004 224.324618 
L 265.231378 222.13886 
L 267.904752 219.901127 
L 270.578126 217.609796 
L 273.2515 215.26319 
L 275.924874 212.859571 
L 278.598248 210.397146 
L 281.271622 207.874056 
L 283.944996 205.288382 
L 286.61837 202.63814 
L 289.291745 199.921277 
L 291.965119 197.135677 
L 294.638493 194.279149 
L 297.311867 191.349436 
L 299.985241 188.344203 
L 302.658615 185.261046 
L 305.331989 182.097483 
L 308.005363 178.850956 
L 310.678737 175.519932 
L 313.352111 172.099498 
L 316.025485 168.58796 
L 318.698859 164.982444 
L 321.372233 161.28 
" clip-path="url(#p4df813340c)" style="fill: none; stroke: #1f77b4; stroke-width: 2; stroke-linecap: round"/>
   </g>
   <g id="patch_3">
    <path d="M 43.475 383.04 
L 43.475 50.4 
" style="fill: none; stroke: #cccccc; stroke-linejoin: miter; stroke-linecap: square"/>
   </g>
   <g id="patch_4">
    <path d="M 334.605435 383.04 
L 334.605435 50.4 
" style="fill: none; stroke: #cccccc; stroke-linejoin: miter; stroke-linecap: square"/>
   </g>
   <g id="patch_5">
    <path d="M 43.475 383.04 
L 334.605435 383.04 
" style="fill: none; stroke: #cccccc; stroke-linejoin: miter; stroke-linecap: square"/>
   </g>
   <g id="patch_6">
    <path d="M 43.475 50.4 
L 334.605435 50.4 
" style="fill: none; stroke: #cccccc; stroke-linejoin: miter; stroke-linecap: square"/>
   </g>
   <g id="text_13">
    <!-- AUC -->
    <g style="fill: #262626" transform="translate(169.541155 44.4) scale(0.18 -0.18)">
     <use xlink:href="#Arial-BoldMT-41"/>
     <use xlink:href="#Arial-BoldMT-55" x="72.216797"/>
     <use xlink:href="#Arial-BoldMT-43" x="144.433594"/>
    </g>
   </g>
  </g>
  <g id="axes_2">
   <g id="patch_7">
    <path d="M 392.831522 383.04 
L 683.961957 383.04 
L 683.961957 50.4 
L 392.831522 50.4 
z
" style="fill: #ffffff"/>
   </g>
   <g id="matplotlib.axis_3">
    <g id="xtick_6">
     <g id="line2d_23">
      <path d="M 406.064723 383.04 
L 406.064723 50.4 
" clip-path="url(#p6cae2fcf1e)" style="fill: none; stroke-dasharray: 2.96,1.28; stroke-dashoffset: 0; stroke: #cccccc; stroke-opacity: 0.6; stroke-width: 0.8"/>
     </g>
     <g id="line2d_24"/>
     <g id="text_14">
      <!-- 0.0 -->
      <g style="fill: #262626" transform="translate(399.114723 393.697812) scale(0.1 -0.1)">
       <use xlink:href="#ArialMT-30"/>
       <use xlink:href="#ArialMT-2e" x="55.615234"/>
       <use xlink:href="#ArialMT-30" x="83.398438"/>
      </g>
     </g>
    </g>
    <g id="xtick_7">
     <g id="line2d_25">
      <path d="M 464.878953 383.04 
L 464.878953 50.4 
" clip-path="url(#p6cae2fcf1e)" style="fill: none; stroke-dasharray: 2.96,1.28; stroke-dashoffset: 0; stroke: #cccccc; stroke-opacity: 0.6; stroke-width: 0.8"/>
     </g>
     <g id="line2d_26"/>
     <g id="text_15">
      <!-- 0.2 -->
      <g style="fill: #262626" transform="translate(457.928953 393.697812) scale(0.1 -0.1)">
       <use xlink:href="#ArialMT-30"/>
       <use xlink:href="#ArialMT-2e" x="55.615234"/>
       <use xlink:href="#ArialMT-32" x="83.398438"/>
      </g>
     </g>
    </g>
    <g id="xtick_8">
     <g id="line2d_27">
      <path d="M 523.693182 383.04 
L 523.693182 50.4 
" clip-path="url(#p6cae2fcf1e)" style="fill: none; stroke-dasharray: 2.96,1.28; stroke-dashoffset: 0; stroke: #cccccc; stroke-opacity: 0.6; stroke-width: 0.8"/>
     </g>
     <g id="line2d_28"/>
     <g id="text_16">
      <!-- 0.4 -->
      <g style="fill: #262626" transform="translate(516.743182 393.697812) scale(0.1 -0.1)">
       <use xlink:href="#ArialMT-30"/>
       <use xlink:href="#ArialMT-2e" x="55.615234"/>
       <use xlink:href="#ArialMT-34" x="83.398438"/>
      </g>
     </g>
    </g>
    <g id="xtick_9">
     <g id="line2d_29">
      <path d="M 582.507411 383.04 
L 582.507411 50.4 
" clip-path="url(#p6cae2fcf1e)" style="fill: none; stroke-dasharray: 2.96,1.28; stroke-dashoffset: 0; stroke: #cccccc; stroke-opacity: 0.6; stroke-width: 0.8"/>
     </g>
     <g id="line2d_30"/>
     <g id="text_17">
      <!-- 0.6 -->
      <g style="fill: #262626" transform="translate(575.557411 393.697812) scale(0.1 -0.1)">
       <use xlink:href="#ArialMT-30"/>
       <use xlink:href="#ArialMT-2e" x="55.615234"/>
       <use xlink:href="#ArialMT-36" x="83.398438"/>
      </g>
     </g>
    </g>
    <g id="xtick_10">
     <g id="line2d_31">
      <path d="M 641.32164 383.04 
L 641.32164 50.4 
" clip-path="url(#p6cae2fcf1e)" style="fill: none; stroke-dasharray: 2.96,1.28; stroke-dashoffset: 0; stroke: #cccccc; stroke-opacity: 0.6; stroke-width: 0.8"/>
     </g>
     <g id="line2d_32"/>
     <g id="text_18">
      <!-- 0.8 -->
      <g style="fill: #262626" transform="translate(634.37164 393.697812) scale(0.1 -0.1)">
       <use xlink:href="#ArialMT-30"/>
       <use xlink:href="#ArialMT-2e" x="55.615234"/>
       <use xlink:href="#ArialMT-38" x="83.398438"/>
      </g>
     </g>
    </g>
    <g id="text_19">
     <!-- Cirrhosis degree -->
     <g style="fill: #262626" transform="translate(474.821739 411.332812) scale(0.16 -0.16)">
      <use xlink:href="#Arial-BoldMT-43"/>
      <use xlink:href="#Arial-BoldMT-69" x="72.216797"/>
      <use xlink:href="#Arial-BoldMT-72" x="100"/>
      <use xlink:href="#Arial-BoldMT-72" x="138.916016"/>
      <use xlink:href="#Arial-BoldMT-68" x="177.832031"/>
      <use xlink:href="#Arial-BoldMT-6f" x="238.916016"/>
      <use xlink:href="#Arial-BoldMT-73" x="300"/>
      <use xlink:href="#Arial-BoldMT-69" x="355.615234"/>
      <use xlink:href="#Arial-BoldMT-73" x="383.398438"/>
      <use xlink:href="#Arial-BoldMT-20" x="439.013672"/>
      <use xlink:href="#Arial-BoldMT-64" x="466.796875"/>
      <use xlink:href="#Arial-BoldMT-65" x="527.880859"/>
      <use xlink:href="#Arial-BoldMT-67" x="583.496094"/>
      <use xlink:href="#Arial-BoldMT-72" x="644.580078"/>
      <use xlink:href="#Arial-BoldMT-65" x="683.496094"/>
      <use xlink:href="#Arial-BoldMT-65" x="739.111328"/>
     </g>
    </g>
   </g>
   <g id="matplotlib.axis_4">
    <g id="ytick_6">
     <g id="line2d_33">
      <path d="M 392.831522 383.04 
L 683.961957 383.04 
" clip-path="url(#p6cae2fcf1e)" style="fill: none; stroke-dasharray: 2.96,1.28; stroke-dashoffset: 0; stroke: #cccccc; stroke-opacity: 0.6; stroke-width: 0.8"/>
     </g>
     <g id="line2d_34"/>
     <g id="text_20">
      <!-- 0 -->
      <g style="fill: #262626" transform="translate(383.770584 386.618906) scale(0.1 -0.1)">
       <use xlink:href="#ArialMT-30"/>
      </g>
     </g>
    </g>
    <g id="ytick_7">
     <g id="line2d_35">
      <path d="M 392.831522 317.56381 
L 683.961957 317.56381 
" clip-path="url(#p6cae2fcf1e)" style="fill: none; stroke-dasharray: 2.96,1.28; stroke-dashoffset: 0; stroke: #cccccc; stroke-opacity: 0.6; stroke-width: 0.8"/>
     </g>
     <g id="line2d_36"/>
     <g id="text_21">
      <!-- 50 -->
      <g style="fill: #262626" transform="translate(378.209647 321.142716) scale(0.1 -0.1)">
       <defs>
        <path id="ArialMT-35" d="M 266 1200 
L 856 1250 
Q 922 819 1161 601 
Q 1400 384 1738 384 
Q 2144 384 2425 690 
Q 2706 997 2706 1503 
Q 2706 1984 2436 2262 
Q 2166 2541 1728 2541 
Q 1456 2541 1237 2417 
Q 1019 2294 894 2097 
L 366 2166 
L 809 4519 
L 3088 4519 
L 3088 3981 
L 1259 3981 
L 1013 2750 
Q 1425 3038 1878 3038 
Q 2478 3038 2890 2622 
Q 3303 2206 3303 1553 
Q 3303 931 2941 478 
Q 2500 -78 1738 -78 
Q 1113 -78 717 272 
Q 322 622 266 1200 
z
" transform="scale(0.015625)"/>
       </defs>
       <use xlink:href="#ArialMT-35"/>
       <use xlink:href="#ArialMT-30" x="55.615234"/>
      </g>
     </g>
    </g>
    <g id="ytick_8">
     <g id="line2d_37">
      <path d="M 392.831522 252.087619 
L 683.961957 252.087619 
" clip-path="url(#p6cae2fcf1e)" style="fill: none; stroke-dasharray: 2.96,1.28; stroke-dashoffset: 0; stroke: #cccccc; stroke-opacity: 0.6; stroke-width: 0.8"/>
     </g>
     <g id="line2d_38"/>
     <g id="text_22">
      <!-- 100 -->
      <g style="fill: #262626" transform="translate(372.648709 255.666525) scale(0.1 -0.1)">
       <defs>
        <path id="ArialMT-31" d="M 2384 0 
L 1822 0 
L 1822 3584 
Q 1619 3391 1289 3197 
Q 959 3003 697 2906 
L 697 3450 
Q 1169 3672 1522 3987 
Q 1875 4303 2022 4600 
L 2384 4600 
L 2384 0 
z
" transform="scale(0.015625)"/>
       </defs>
       <use xlink:href="#ArialMT-31"/>
       <use xlink:href="#ArialMT-30" x="55.615234"/>
       <use xlink:href="#ArialMT-30" x="111.230469"/>
      </g>
     </g>
    </g>
    <g id="ytick_9">
     <g id="line2d_39">
      <path d="M 392.831522 186.611429 
L 683.961957 186.611429 
" clip-path="url(#p6cae2fcf1e)" style="fill: none; stroke-dasharray: 2.96,1.28; stroke-dashoffset: 0; stroke: #cccccc; stroke-opacity: 0.6; stroke-width: 0.8"/>
     </g>
     <g id="line2d_40"/>
     <g id="text_23">
      <!-- 150 -->
      <g style="fill: #262626" transform="translate(372.648709 190.190335) scale(0.1 -0.1)">
       <use xlink:href="#ArialMT-31"/>
       <use xlink:href="#ArialMT-35" x="55.615234"/>
       <use xlink:href="#ArialMT-30" x="111.230469"/>
      </g>
     </g>
    </g>
    <g id="ytick_10">
     <g id="line2d_41">
      <path d="M 392.831522 121.135238 
L 683.961957 121.135238 
" clip-path="url(#p6cae2fcf1e)" style="fill: none; stroke-dasharray: 2.96,1.28; stroke-dashoffset: 0; stroke: #cccccc; stroke-opacity: 0.6; stroke-width: 0.8"/>
     </g>
     <g id="line2d_42"/>
     <g id="text_24">
      <!-- 200 -->
      <g style="fill: #262626" transform="translate(372.648709 124.714144) scale(0.1 -0.1)">
       <use xlink:href="#ArialMT-32"/>
       <use xlink:href="#ArialMT-30" x="55.615234"/>
       <use xlink:href="#ArialMT-30" x="111.230469"/>
      </g>
     </g>
    </g>
    <g id="ytick_11">
     <g id="line2d_43">
      <path d="M 392.831522 55.659048 
L 683.961957 55.659048 
" clip-path="url(#p6cae2fcf1e)" style="fill: none; stroke-dasharray: 2.96,1.28; stroke-dashoffset: 0; stroke: #cccccc; stroke-opacity: 0.6; stroke-width: 0.8"/>
     </g>
     <g id="line2d_44"/>
     <g id="text_25">
      <!-- 250 -->
      <g style="fill: #262626" transform="translate(372.648709 59.237954) scale(0.1 -0.1)">
       <use xlink:href="#ArialMT-32"/>
       <use xlink:href="#ArialMT-35" x="55.615234"/>
       <use xlink:href="#ArialMT-30" x="111.230469"/>
      </g>
     </g>
    </g>
    <g id="text_26">
     <!-- Tmax [minute] -->
     <g style="fill: #262626" transform="translate(365.421209 271.38875) rotate(-90) scale(0.16 -0.16)">
      <defs>
       <path id="Arial-BoldMT-54" d="M 1497 0 
L 1497 3806 
L 138 3806 
L 138 4581 
L 3778 4581 
L 3778 3806 
L 2422 3806 
L 2422 0 
L 1497 0 
z
" transform="scale(0.015625)"/>
       <path id="Arial-BoldMT-61" d="M 1116 2306 
L 319 2450 
Q 453 2931 781 3162 
Q 1109 3394 1756 3394 
Q 2344 3394 2631 3255 
Q 2919 3116 3036 2902 
Q 3153 2688 3153 2116 
L 3144 1091 
Q 3144 653 3186 445 
Q 3228 238 3344 0 
L 2475 0 
Q 2441 88 2391 259 
Q 2369 338 2359 363 
Q 2134 144 1878 34 
Q 1622 -75 1331 -75 
Q 819 -75 523 203 
Q 228 481 228 906 
Q 228 1188 362 1408 
Q 497 1628 739 1745 
Q 981 1863 1438 1950 
Q 2053 2066 2291 2166 
L 2291 2253 
Q 2291 2506 2166 2614 
Q 2041 2722 1694 2722 
Q 1459 2722 1328 2630 
Q 1197 2538 1116 2306 
z
M 2291 1594 
Q 2122 1538 1756 1459 
Q 1391 1381 1278 1306 
Q 1106 1184 1106 997 
Q 1106 813 1243 678 
Q 1381 544 1594 544 
Q 1831 544 2047 700 
Q 2206 819 2256 991 
Q 2291 1103 2291 1419 
L 2291 1594 
z
" transform="scale(0.015625)"/>
       <path id="Arial-BoldMT-78" d="M 38 0 
L 1234 1709 
L 88 3319 
L 1159 3319 
L 1747 2406 
L 2366 3319 
L 3397 3319 
L 2272 1747 
L 3500 0 
L 2422 0 
L 1747 1028 
L 1066 0 
L 38 0 
z
" transform="scale(0.015625)"/>
      </defs>
      <use xlink:href="#Arial-BoldMT-54"/>
      <use xlink:href="#Arial-BoldMT-6d" x="61.083984"/>
      <use xlink:href="#Arial-BoldMT-61" x="150"/>
      <use xlink:href="#Arial-BoldMT-78" x="205.615234"/>
      <use xlink:href="#Arial-BoldMT-20" x="261.230469"/>
      <use xlink:href="#Arial-BoldMT-5b" x="289.013672"/>
      <use xlink:href="#Arial-BoldMT-6d" x="322.314453"/>
      <use xlink:href="#Arial-BoldMT-69" x="411.230469"/>
      <use xlink:href="#Arial-BoldMT-6e" x="439.013672"/>
      <use xlink:href="#Arial-BoldMT-75" x="500.097656"/>
      <use xlink:href="#Arial-BoldMT-74" x="561.181641"/>
      <use xlink:href="#Arial-BoldMT-65" x="594.482422"/>
      <use xlink:href="#Arial-BoldMT-5d" x="650.097656"/>
     </g>
    </g>
   </g>
   <g id="line2d_45">
    <path d="M 406.064723 383.04 
L 406.064723 50.4 
" clip-path="url(#p6cae2fcf1e)" style="fill: none; stroke-dasharray: 5.55,2.4; stroke-dashoffset: 0; stroke: #808080; stroke-width: 1.5"/>
   </g>
   <g id="line2d_46">
    <path d="M 406.064723 205.028571 
L 408.738097 204.651429 
L 411.411471 204.651429 
L 414.084845 204.274286 
L 416.75822 203.897143 
L 419.431594 203.52 
L 422.104968 203.52 
L 424.778342 203.142857 
L 427.451716 202.765714 
L 430.12509 202.765714 
L 432.798464 202.388571 
L 435.471838 202.011429 
L 438.145212 201.634286 
L 440.818586 201.634286 
L 443.49196 201.257143 
L 446.165334 200.88 
L 448.838708 200.502857 
L 451.512082 200.502857 
L 454.185456 200.125714 
L 456.85883 199.748571 
L 459.532204 199.371429 
L 462.205579 198.994286 
L 464.878953 198.994286 
L 467.552327 198.617143 
L 470.225701 198.24 
L 472.899075 197.862857 
L 475.572449 197.485714 
L 478.245823 197.108571 
L 480.919197 197.108571 
L 483.592571 196.731429 
L 486.265945 196.354286 
L 488.939319 195.977143 
L 491.612693 195.6 
L 494.286067 195.222857 
L 496.959441 194.845714 
L 499.632815 194.468571 
L 502.306189 194.091429 
L 504.979563 193.714286 
L 507.652937 193.337143 
L 510.326312 192.96 
L 512.999686 192.582857 
L 515.67306 192.205714 
L 518.346434 191.828571 
L 521.019808 191.451429 
L 523.693182 191.074286 
L 526.366556 190.697143 
L 529.03993 190.32 
L 531.713304 189.942857 
L 534.386678 189.565714 
L 537.060052 189.188571 
L 539.733426 188.811429 
L 542.4068 188.434286 
L 545.080174 188.057143 
L 547.753548 187.68 
L 550.426922 187.302857 
L 553.100296 186.925714 
L 555.77367 186.171429 
L 558.447045 185.794286 
L 561.120419 185.417143 
L 563.793793 185.04 
L 566.467167 184.662857 
L 569.140541 183.908571 
L 571.813915 183.531429 
L 574.487289 183.154286 
L 577.160663 182.777143 
L 579.834037 182.022857 
L 582.507411 181.645714 
L 585.180785 181.268571 
L 587.854159 180.514286 
L 590.527533 180.137143 
L 593.200907 179.76 
L 595.874281 179.005714 
L 598.547655 178.628571 
L 601.221029 178.251429 
L 603.894404 177.497143 
L 606.567778 177.12 
L 609.241152 176.365714 
L 611.914526 175.988571 
L 614.5879 175.234286 
L 617.261274 174.857143 
L 619.934648 174.102857 
L 622.608022 173.725714 
L 625.281396 172.971429 
L 627.95477 172.217143 
L 630.628144 171.84 
L 633.301518 171.085714 
L 635.974892 170.331429 
L 638.648266 169.954286 
L 641.32164 169.2 
L 643.995014 168.445714 
L 646.668388 167.691429 
L 649.341762 167.314286 
L 652.015137 166.56 
L 654.688511 165.805714 
L 657.361885 165.051429 
L 660.035259 164.297143 
L 662.708633 163.542857 
L 665.382007 162.788571 
L 668.055381 162.034286 
L 670.728755 161.28 
" clip-path="url(#p6cae2fcf1e)" style="fill: none; stroke: #1f77b4; stroke-width: 2; stroke-linecap: round"/>
   </g>
   <g id="patch_8">
    <path d="M 392.831522 383.04 
L 392.831522 50.4 
" style="fill: none; stroke: #cccccc; stroke-linejoin: miter; stroke-linecap: square"/>
   </g>
   <g id="patch_9">
    <path d="M 683.961957 383.04 
L 683.961957 50.4 
" style="fill: none; stroke: #cccccc; stroke-linejoin: miter; stroke-linecap: square"/>
   </g>
   <g id="patch_10">
    <path d="M 392.831522 383.04 
L 683.961957 383.04 
" style="fill: none; stroke: #cccccc; stroke-linejoin: miter; stroke-linecap: square"/>
   </g>
   <g id="patch_11">
    <path d="M 392.831522 50.4 
L 683.961957 50.4 
" style="fill: none; stroke: #cccccc; stroke-linejoin: miter; stroke-linecap: square"/>
   </g>
   <g id="text_27">
    <!-- Tmax -->
    <g style="fill: #262626" transform="translate(514.887052 44.4) scale(0.18 -0.18)">
     <use xlink:href="#Arial-BoldMT-54"/>
     <use xlink:href="#Arial-BoldMT-6d" x="61.083984"/>
     <use xlink:href="#Arial-BoldMT-61" x="150"/>
     <use xlink:href="#Arial-BoldMT-78" x="205.615234"/>
    </g>
   </g>
  </g>
  <g id="axes_3">
   <g id="patch_12">
    <path d="M 742.188043 383.04 
L 1033.318478 383.04 
L 1033.318478 50.4 
L 742.188043 50.4 
z
" style="fill: #ffffff"/>
   </g>
   <g id="matplotlib.axis_5">
    <g id="xtick_11">
     <g id="line2d_47">
      <path d="M 755.421245 383.04 
L 755.421245 50.4 
" clip-path="url(#pdd0a0a8d8e)" style="fill: none; stroke-dasharray: 2.96,1.28; stroke-dashoffset: 0; stroke: #cccccc; stroke-opacity: 0.6; stroke-width: 0.8"/>
     </g>
     <g id="line2d_48"/>
     <g id="text_28">
      <!-- 0.0 -->
      <g style="fill: #262626" transform="translate(748.471245 393.697812) scale(0.1 -0.1)">
       <use xlink:href="#ArialMT-30"/>
       <use xlink:href="#ArialMT-2e" x="55.615234"/>
       <use xlink:href="#ArialMT-30" x="83.398438"/>
      </g>
     </g>
    </g>
    <g id="xtick_12">
     <g id="line2d_49">
      <path d="M 814.235474 383.04 
L 814.235474 50.4 
" clip-path="url(#pdd0a0a8d8e)" style="fill: none; stroke-dasharray: 2.96,1.28; stroke-dashoffset: 0; stroke: #cccccc; stroke-opacity: 0.6; stroke-width: 0.8"/>
     </g>
     <g id="line2d_50"/>
     <g id="text_29">
      <!-- 0.2 -->
      <g style="fill: #262626" transform="translate(807.285474 393.697812) scale(0.1 -0.1)">
       <use xlink:href="#ArialMT-30"/>
       <use xlink:href="#ArialMT-2e" x="55.615234"/>
       <use xlink:href="#ArialMT-32" x="83.398438"/>
      </g>
     </g>
    </g>
    <g id="xtick_13">
     <g id="line2d_51">
      <path d="M 873.049704 383.04 
L 873.049704 50.4 
" clip-path="url(#pdd0a0a8d8e)" style="fill: none; stroke-dasharray: 2.96,1.28; stroke-dashoffset: 0; stroke: #cccccc; stroke-opacity: 0.6; stroke-width: 0.8"/>
     </g>
     <g id="line2d_52"/>
     <g id="text_30">
      <!-- 0.4 -->
      <g style="fill: #262626" transform="translate(866.099704 393.697812) scale(0.1 -0.1)">
       <use xlink:href="#ArialMT-30"/>
       <use xlink:href="#ArialMT-2e" x="55.615234"/>
       <use xlink:href="#ArialMT-34" x="83.398438"/>
      </g>
     </g>
    </g>
    <g id="xtick_14">
     <g id="line2d_53">
      <path d="M 931.863933 383.04 
L 931.863933 50.4 
" clip-path="url(#pdd0a0a8d8e)" style="fill: none; stroke-dasharray: 2.96,1.28; stroke-dashoffset: 0; stroke: #cccccc; stroke-opacity: 0.6; stroke-width: 0.8"/>
     </g>
     <g id="line2d_54"/>
     <g id="text_31">
      <!-- 0.6 -->
      <g style="fill: #262626" transform="translate(924.913933 393.697812) scale(0.1 -0.1)">
       <use xlink:href="#ArialMT-30"/>
       <use xlink:href="#ArialMT-2e" x="55.615234"/>
       <use xlink:href="#ArialMT-36" x="83.398438"/>
      </g>
     </g>
    </g>
    <g id="xtick_15">
     <g id="line2d_55">
      <path d="M 990.678162 383.04 
L 990.678162 50.4 
" clip-path="url(#pdd0a0a8d8e)" style="fill: none; stroke-dasharray: 2.96,1.28; stroke-dashoffset: 0; stroke: #cccccc; stroke-opacity: 0.6; stroke-width: 0.8"/>
     </g>
     <g id="line2d_56"/>
     <g id="text_32">
      <!-- 0.8 -->
      <g style="fill: #262626" transform="translate(983.728162 393.697812) scale(0.1 -0.1)">
       <use xlink:href="#ArialMT-30"/>
       <use xlink:href="#ArialMT-2e" x="55.615234"/>
       <use xlink:href="#ArialMT-38" x="83.398438"/>
      </g>
     </g>
    </g>
    <g id="text_33">
     <!-- Cirrhosis degree -->
     <g style="fill: #262626" transform="translate(824.178261 411.332812) scale(0.16 -0.16)">
      <use xlink:href="#Arial-BoldMT-43"/>
      <use xlink:href="#Arial-BoldMT-69" x="72.216797"/>
      <use xlink:href="#Arial-BoldMT-72" x="100"/>
      <use xlink:href="#Arial-BoldMT-72" x="138.916016"/>
      <use xlink:href="#Arial-BoldMT-68" x="177.832031"/>
      <use xlink:href="#Arial-BoldMT-6f" x="238.916016"/>
      <use xlink:href="#Arial-BoldMT-73" x="300"/>
      <use xlink:href="#Arial-BoldMT-69" x="355.615234"/>
      <use xlink:href="#Arial-BoldMT-73" x="383.398438"/>
      <use xlink:href="#Arial-BoldMT-20" x="439.013672"/>
      <use xlink:href="#Arial-BoldMT-64" x="466.796875"/>
      <use xlink:href="#Arial-BoldMT-65" x="527.880859"/>
      <use xlink:href="#Arial-BoldMT-67" x="583.496094"/>
      <use xlink:href="#Arial-BoldMT-72" x="644.580078"/>
      <use xlink:href="#Arial-BoldMT-65" x="683.496094"/>
      <use xlink:href="#Arial-BoldMT-65" x="739.111328"/>
     </g>
    </g>
   </g>
   <g id="matplotlib.axis_6">
    <g id="ytick_12">
     <g id="line2d_57">
      <path d="M 742.188043 383.04 
L 1033.318478 383.04 
" clip-path="url(#pdd0a0a8d8e)" style="fill: none; stroke-dasharray: 2.96,1.28; stroke-dashoffset: 0; stroke: #cccccc; stroke-opacity: 0.6; stroke-width: 0.8"/>
     </g>
     <g id="line2d_58"/>
     <g id="text_34">
      <!-- 0 -->
      <g style="fill: #262626" transform="translate(733.127106 386.618906) scale(0.1 -0.1)">
       <use xlink:href="#ArialMT-30"/>
      </g>
     </g>
    </g>
    <g id="ytick_13">
     <g id="line2d_59">
      <path d="M 742.188043 330.932927 
L 1033.318478 330.932927 
" clip-path="url(#pdd0a0a8d8e)" style="fill: none; stroke-dasharray: 2.96,1.28; stroke-dashoffset: 0; stroke: #cccccc; stroke-opacity: 0.6; stroke-width: 0.8"/>
     </g>
     <g id="line2d_60"/>
     <g id="text_35">
      <!-- 100 -->
      <g style="fill: #262626" transform="translate(722.005231 334.511833) scale(0.1 -0.1)">
       <use xlink:href="#ArialMT-31"/>
       <use xlink:href="#ArialMT-30" x="55.615234"/>
       <use xlink:href="#ArialMT-30" x="111.230469"/>
      </g>
     </g>
    </g>
    <g id="ytick_14">
     <g id="line2d_61">
      <path d="M 742.188043 278.825854 
L 1033.318478 278.825854 
" clip-path="url(#pdd0a0a8d8e)" style="fill: none; stroke-dasharray: 2.96,1.28; stroke-dashoffset: 0; stroke: #cccccc; stroke-opacity: 0.6; stroke-width: 0.8"/>
     </g>
     <g id="line2d_62"/>
     <g id="text_36">
      <!-- 200 -->
      <g style="fill: #262626" transform="translate(722.005231 282.404761) scale(0.1 -0.1)">
       <use xlink:href="#ArialMT-32"/>
       <use xlink:href="#ArialMT-30" x="55.615234"/>
       <use xlink:href="#ArialMT-30" x="111.230469"/>
      </g>
     </g>
    </g>
    <g id="ytick_15">
     <g id="line2d_63">
      <path d="M 742.188043 226.718781 
L 1033.318478 226.718781 
" clip-path="url(#pdd0a0a8d8e)" style="fill: none; stroke-dasharray: 2.96,1.28; stroke-dashoffset: 0; stroke: #cccccc; stroke-opacity: 0.6; stroke-width: 0.8"/>
     </g>
     <g id="line2d_64"/>
     <g id="text_37">
      <!-- 300 -->
      <g style="fill: #262626" transform="translate(722.005231 230.297688) scale(0.1 -0.1)">
       <defs>
        <path id="ArialMT-33" d="M 269 1209 
L 831 1284 
Q 928 806 1161 595 
Q 1394 384 1728 384 
Q 2125 384 2398 659 
Q 2672 934 2672 1341 
Q 2672 1728 2419 1979 
Q 2166 2231 1775 2231 
Q 1616 2231 1378 2169 
L 1441 2663 
Q 1497 2656 1531 2656 
Q 1891 2656 2178 2843 
Q 2466 3031 2466 3422 
Q 2466 3731 2256 3934 
Q 2047 4138 1716 4138 
Q 1388 4138 1169 3931 
Q 950 3725 888 3313 
L 325 3413 
Q 428 3978 793 4289 
Q 1159 4600 1703 4600 
Q 2078 4600 2393 4439 
Q 2709 4278 2876 4000 
Q 3044 3722 3044 3409 
Q 3044 3113 2884 2869 
Q 2725 2625 2413 2481 
Q 2819 2388 3044 2092 
Q 3269 1797 3269 1353 
Q 3269 753 2831 336 
Q 2394 -81 1725 -81 
Q 1122 -81 723 278 
Q 325 638 269 1209 
z
" transform="scale(0.015625)"/>
       </defs>
       <use xlink:href="#ArialMT-33"/>
       <use xlink:href="#ArialMT-30" x="55.615234"/>
       <use xlink:href="#ArialMT-30" x="111.230469"/>
      </g>
     </g>
    </g>
    <g id="ytick_16">
     <g id="line2d_65">
      <path d="M 742.188043 174.611709 
L 1033.318478 174.611709 
" clip-path="url(#pdd0a0a8d8e)" style="fill: none; stroke-dasharray: 2.96,1.28; stroke-dashoffset: 0; stroke: #cccccc; stroke-opacity: 0.6; stroke-width: 0.8"/>
     </g>
     <g id="line2d_66"/>
     <g id="text_38">
      <!-- 400 -->
      <g style="fill: #262626" transform="translate(722.005231 178.190615) scale(0.1 -0.1)">
       <use xlink:href="#ArialMT-34"/>
       <use xlink:href="#ArialMT-30" x="55.615234"/>
       <use xlink:href="#ArialMT-30" x="111.230469"/>
      </g>
     </g>
    </g>
    <g id="ytick_17">
     <g id="line2d_67">
      <path d="M 742.188043 122.504636 
L 1033.318478 122.504636 
" clip-path="url(#pdd0a0a8d8e)" style="fill: none; stroke-dasharray: 2.96,1.28; stroke-dashoffset: 0; stroke: #cccccc; stroke-opacity: 0.6; stroke-width: 0.8"/>
     </g>
     <g id="line2d_68"/>
     <g id="text_39">
      <!-- 500 -->
      <g style="fill: #262626" transform="translate(722.005231 126.083542) scale(0.1 -0.1)">
       <use xlink:href="#ArialMT-35"/>
       <use xlink:href="#ArialMT-30" x="55.615234"/>
       <use xlink:href="#ArialMT-30" x="111.230469"/>
      </g>
     </g>
    </g>
    <g id="ytick_18">
     <g id="line2d_69">
      <path d="M 742.188043 70.397563 
L 1033.318478 70.397563 
" clip-path="url(#pdd0a0a8d8e)" style="fill: none; stroke-dasharray: 2.96,1.28; stroke-dashoffset: 0; stroke: #cccccc; stroke-opacity: 0.6; stroke-width: 0.8"/>
     </g>
     <g id="line2d_70"/>
     <g id="text_40">
      <!-- 600 -->
      <g style="fill: #262626" transform="translate(722.005231 73.976469) scale(0.1 -0.1)">
       <use xlink:href="#ArialMT-36"/>
       <use xlink:href="#ArialMT-30" x="55.615234"/>
       <use xlink:href="#ArialMT-30" x="111.230469"/>
      </g>
     </g>
    </g>
    <g id="text_41">
     <!-- Thalf [minute] -->
     <g style="fill: #262626" transform="translate(714.777731 269.59875) rotate(-90) scale(0.16 -0.16)">
      <defs>
       <path id="Arial-BoldMT-66" d="M 75 3319 
L 563 3319 
L 563 3569 
Q 563 3988 652 4194 
Q 741 4400 980 4529 
Q 1219 4659 1584 4659 
Q 1959 4659 2319 4547 
L 2200 3934 
Q 1991 3984 1797 3984 
Q 1606 3984 1523 3895 
Q 1441 3806 1441 3553 
L 1441 3319 
L 2097 3319 
L 2097 2628 
L 1441 2628 
L 1441 0 
L 563 0 
L 563 2628 
L 75 2628 
L 75 3319 
z
" transform="scale(0.015625)"/>
      </defs>
      <use xlink:href="#Arial-BoldMT-54"/>
      <use xlink:href="#Arial-BoldMT-68" x="61.083984"/>
      <use xlink:href="#Arial-BoldMT-61" x="122.167969"/>
      <use xlink:href="#Arial-BoldMT-6c" x="177.783203"/>
      <use xlink:href="#Arial-BoldMT-66" x="205.566406"/>
      <use xlink:href="#Arial-BoldMT-20" x="238.867188"/>
      <use xlink:href="#Arial-BoldMT-5b" x="266.650391"/>
      <use xlink:href="#Arial-BoldMT-6d" x="299.951172"/>
      <use xlink:href="#Arial-BoldMT-69" x="388.867188"/>
      <use xlink:href="#Arial-BoldMT-6e" x="416.650391"/>
      <use xlink:href="#Arial-BoldMT-75" x="477.734375"/>
      <use xlink:href="#Arial-BoldMT-74" x="538.818359"/>
      <use xlink:href="#Arial-BoldMT-65" x="572.119141"/>
      <use xlink:href="#Arial-BoldMT-5d" x="627.734375"/>
     </g>
    </g>
   </g>
   <g id="line2d_71">
    <path d="M 755.421245 383.04 
L 755.421245 50.4 
" clip-path="url(#pdd0a0a8d8e)" style="fill: none; stroke-dasharray: 5.55,2.4; stroke-dashoffset: 0; stroke: #808080; stroke-width: 1.5"/>
   </g>
   <g id="line2d_72">
    <path d="M 755.421245 272.621141 
L 758.094619 272.334608 
L 760.767993 272.058445 
L 763.441367 271.762608 
L 766.114741 271.46196 
L 768.788115 271.156375 
L 771.461489 270.860444 
L 774.134863 270.544552 
L 776.808238 270.223324 
L 779.481612 269.911149 
L 782.154986 269.578773 
L 784.82836 269.240619 
L 787.501734 268.896532 
L 790.175108 268.560646 
L 792.848482 268.204155 
L 795.521856 267.841228 
L 798.19523 267.471686 
L 800.868604 267.1094 
L 803.541978 266.726022 
L 806.215352 266.335455 
L 808.888726 265.937496 
L 811.5621 265.531931 
L 814.235474 265.1323 
L 816.908848 264.710811 
L 819.582222 264.281037 
L 822.255596 263.842733 
L 824.928971 263.395647 
L 827.602345 262.939517 
L 830.275719 262.487474 
L 832.949093 262.012385 
L 835.622467 261.527408 
L 838.295841 261.032243 
L 840.969215 260.526576 
L 843.642589 260.010081 
L 846.315963 259.482421 
L 848.989337 258.943245 
L 851.662711 258.39219 
L 854.336085 257.828878 
L 857.009459 257.252914 
L 859.682833 256.663893 
L 862.356207 256.061388 
L 865.029581 255.444959 
L 867.702955 254.814148 
L 870.37633 254.168476 
L 873.049704 253.507447 
L 875.723078 252.830544 
L 878.396452 252.137228 
L 881.069826 251.426939 
L 883.7432 250.699093 
L 886.416574 249.953082 
L 889.089948 249.188269 
L 891.763322 248.403995 
L 894.436696 247.599568 
L 897.11007 246.774269 
L 899.783444 245.927346 
L 902.456818 245.058015 
L 905.130192 244.153403 
L 907.803566 243.236799 
L 910.47694 242.295214 
L 913.150314 241.327713 
L 915.823688 240.333318 
L 918.497063 239.299068 
L 921.170437 238.247795 
L 923.843811 237.16641 
L 926.517185 236.053738 
L 929.190559 234.896651 
L 931.863933 233.717669 
L 934.537307 232.503523 
L 937.210681 231.240883 
L 939.884055 229.952087 
L 942.557429 228.623647 
L 945.230803 227.241969 
L 947.904177 225.829228 
L 950.577551 224.371653 
L 953.250925 222.8553 
L 955.924299 221.302212 
L 958.597673 219.686111 
L 961.271047 218.029015 
L 963.944421 216.304195 
L 966.617796 214.53366 
L 969.29117 212.690147 
L 971.964544 210.795677 
L 974.637918 208.822361 
L 977.311292 206.779508 
L 979.984666 204.676731 
L 982.65804 202.484917 
L 985.331414 200.21313 
L 988.004788 197.870822 
L 990.678162 195.427351 
L 993.351536 192.891493 
L 996.02491 190.25859 
L 998.698284 187.537862 
L 1001.371658 184.695968 
L 1004.045032 181.741234 
L 1006.718406 178.667696 
L 1009.39178 175.469001 
L 1012.065155 172.13837 
L 1014.738529 168.668569 
L 1017.411903 165.051868 
L 1020.085277 161.28 
" clip-path="url(#pdd0a0a8d8e)" style="fill: none; stroke: #1f77b4; stroke-width: 2; stroke-linecap: round"/>
   </g>
   <g id="patch_13">
    <path d="M 742.188043 383.04 
L 742.188043 50.4 
" style="fill: none; stroke: #cccccc; stroke-linejoin: miter; stroke-linecap: square"/>
   </g>
   <g id="patch_14">
    <path d="M 1033.318478 383.04 
L 1033.318478 50.4 
" style="fill: none; stroke: #cccccc; stroke-linejoin: miter; stroke-linecap: square"/>
   </g>
   <g id="patch_15">
    <path d="M 742.188043 383.04 
L 1033.318478 383.04 
" style="fill: none; stroke: #cccccc; stroke-linejoin: miter; stroke-linecap: square"/>
   </g>
   <g id="patch_16">
    <path d="M 742.188043 50.4 
L 1033.318478 50.4 
" style="fill: none; stroke: #cccccc; stroke-linejoin: miter; stroke-linecap: square"/>
   </g>
   <g id="text_42">
    <!-- Thalf -->
    <g style="fill: #262626" transform="translate(866.257323 44.4) scale(0.18 -0.18)">
     <use xlink:href="#Arial-BoldMT-54"/>
     <use xlink:href="#Arial-BoldMT-68" x="61.083984"/>
     <use xlink:href="#Arial-BoldMT-61" x="122.167969"/>
     <use xlink:href="#Arial-BoldMT-6c" x="177.783203"/>
     <use xlink:href="#Arial-BoldMT-66" x="205.566406"/>
    </g>
   </g>
  </g>
  <g id="axes_4">
   <g id="patch_17">
    <path d="M 1091.544565 383.04 
L 1382.675 383.04 
L 1382.675 50.4 
L 1091.544565 50.4 
z
" style="fill: #ffffff"/>
   </g>
   <g id="matplotlib.axis_7">
    <g id="xtick_16">
     <g id="line2d_73">
      <path d="M 1104.777767 383.04 
L 1104.777767 50.4 
" clip-path="url(#pa183e8ad0a)" style="fill: none; stroke-dasharray: 2.96,1.28; stroke-dashoffset: 0; stroke: #cccccc; stroke-opacity: 0.6; stroke-width: 0.8"/>
     </g>
     <g id="line2d_74"/>
     <g id="text_43">
      <!-- 0.0 -->
      <g style="fill: #262626" transform="translate(1097.827767 393.697812) scale(0.1 -0.1)">
       <use xlink:href="#ArialMT-30"/>
       <use xlink:href="#ArialMT-2e" x="55.615234"/>
       <use xlink:href="#ArialMT-30" x="83.398438"/>
      </g>
     </g>
    </g>
    <g id="xtick_17">
     <g id="line2d_75">
      <path d="M 1163.591996 383.04 
L 1163.591996 50.4 
" clip-path="url(#pa183e8ad0a)" style="fill: none; stroke-dasharray: 2.96,1.28; stroke-dashoffset: 0; stroke: #cccccc; stroke-opacity: 0.6; stroke-width: 0.8"/>
     </g>
     <g id="line2d_76"/>
     <g id="text_44">
      <!-- 0.2 -->
      <g style="fill: #262626" transform="translate(1156.641996 393.697812) scale(0.1 -0.1)">
       <use xlink:href="#ArialMT-30"/>
       <use xlink:href="#ArialMT-2e" x="55.615234"/>
       <use xlink:href="#ArialMT-32" x="83.398438"/>
      </g>
     </g>
    </g>
    <g id="xtick_18">
     <g id="line2d_77">
      <path d="M 1222.406225 383.04 
L 1222.406225 50.4 
" clip-path="url(#pa183e8ad0a)" style="fill: none; stroke-dasharray: 2.96,1.28; stroke-dashoffset: 0; stroke: #cccccc; stroke-opacity: 0.6; stroke-width: 0.8"/>
     </g>
     <g id="line2d_78"/>
     <g id="text_45">
      <!-- 0.4 -->
      <g style="fill: #262626" transform="translate(1215.456225 393.697812) scale(0.1 -0.1)">
       <use xlink:href="#ArialMT-30"/>
       <use xlink:href="#ArialMT-2e" x="55.615234"/>
       <use xlink:href="#ArialMT-34" x="83.398438"/>
      </g>
     </g>
    </g>
    <g id="xtick_19">
     <g id="line2d_79">
      <path d="M 1281.220455 383.04 
L 1281.220455 50.4 
" clip-path="url(#pa183e8ad0a)" style="fill: none; stroke-dasharray: 2.96,1.28; stroke-dashoffset: 0; stroke: #cccccc; stroke-opacity: 0.6; stroke-width: 0.8"/>
     </g>
     <g id="line2d_80"/>
     <g id="text_46">
      <!-- 0.6 -->
      <g style="fill: #262626" transform="translate(1274.270455 393.697812) scale(0.1 -0.1)">
       <use xlink:href="#ArialMT-30"/>
       <use xlink:href="#ArialMT-2e" x="55.615234"/>
       <use xlink:href="#ArialMT-36" x="83.398438"/>
      </g>
     </g>
    </g>
    <g id="xtick_20">
     <g id="line2d_81">
      <path d="M 1340.034684 383.04 
L 1340.034684 50.4 
" clip-path="url(#pa183e8ad0a)" style="fill: none; stroke-dasharray: 2.96,1.28; stroke-dashoffset: 0; stroke: #cccccc; stroke-opacity: 0.6; stroke-width: 0.8"/>
     </g>
     <g id="line2d_82"/>
     <g id="text_47">
      <!-- 0.8 -->
      <g style="fill: #262626" transform="translate(1333.084684 393.697812) scale(0.1 -0.1)">
       <use xlink:href="#ArialMT-30"/>
       <use xlink:href="#ArialMT-2e" x="55.615234"/>
       <use xlink:href="#ArialMT-38" x="83.398438"/>
      </g>
     </g>
    </g>
    <g id="text_48">
     <!-- Cirrhosis degree -->
     <g style="fill: #262626" transform="translate(1173.534783 411.332812) scale(0.16 -0.16)">
      <use xlink:href="#Arial-BoldMT-43"/>
      <use xlink:href="#Arial-BoldMT-69" x="72.216797"/>
      <use xlink:href="#Arial-BoldMT-72" x="100"/>
      <use xlink:href="#Arial-BoldMT-72" x="138.916016"/>
      <use xlink:href="#Arial-BoldMT-68" x="177.832031"/>
      <use xlink:href="#Arial-BoldMT-6f" x="238.916016"/>
      <use xlink:href="#Arial-BoldMT-73" x="300"/>
      <use xlink:href="#Arial-BoldMT-69" x="355.615234"/>
      <use xlink:href="#Arial-BoldMT-73" x="383.398438"/>
      <use xlink:href="#Arial-BoldMT-20" x="439.013672"/>
      <use xlink:href="#Arial-BoldMT-64" x="466.796875"/>
      <use xlink:href="#Arial-BoldMT-65" x="527.880859"/>
      <use xlink:href="#Arial-BoldMT-67" x="583.496094"/>
      <use xlink:href="#Arial-BoldMT-72" x="644.580078"/>
      <use xlink:href="#Arial-BoldMT-65" x="683.496094"/>
      <use xlink:href="#Arial-BoldMT-65" x="739.111328"/>
     </g>
    </g>
   </g>
   <g id="matplotlib.axis_8">
    <g id="ytick_19">
     <g id="line2d_83">
      <path d="M 1091.544565 383.04 
L 1382.675 383.04 
" clip-path="url(#pa183e8ad0a)" style="fill: none; stroke-dasharray: 2.96,1.28; stroke-dashoffset: 0; stroke: #cccccc; stroke-opacity: 0.6; stroke-width: 0.8"/>
     </g>
     <g id="line2d_84"/>
     <g id="text_49">
      <!-- 0 -->
      <g style="fill: #262626" transform="translate(1082.483628 386.618906) scale(0.1 -0.1)">
       <use xlink:href="#ArialMT-30"/>
      </g>
     </g>
    </g>
    <g id="ytick_20">
     <g id="line2d_85">
      <path d="M 1091.544565 326.793705 
L 1382.675 326.793705 
" clip-path="url(#pa183e8ad0a)" style="fill: none; stroke-dasharray: 2.96,1.28; stroke-dashoffset: 0; stroke: #cccccc; stroke-opacity: 0.6; stroke-width: 0.8"/>
     </g>
     <g id="line2d_86"/>
     <g id="text_50">
      <!-- 5 -->
      <g style="fill: #262626" transform="translate(1082.483628 330.372611) scale(0.1 -0.1)">
       <use xlink:href="#ArialMT-35"/>
      </g>
     </g>
    </g>
    <g id="ytick_21">
     <g id="line2d_87">
      <path d="M 1091.544565 270.54741 
L 1382.675 270.54741 
" clip-path="url(#pa183e8ad0a)" style="fill: none; stroke-dasharray: 2.96,1.28; stroke-dashoffset: 0; stroke: #cccccc; stroke-opacity: 0.6; stroke-width: 0.8"/>
     </g>
     <g id="line2d_88"/>
     <g id="text_51">
      <!-- 10 -->
      <g style="fill: #262626" transform="translate(1076.92269 274.126316) scale(0.1 -0.1)">
       <use xlink:href="#ArialMT-31"/>
       <use xlink:href="#ArialMT-30" x="55.615234"/>
      </g>
     </g>
    </g>
    <g id="ytick_22">
     <g id="line2d_89">
      <path d="M 1091.544565 214.301115 
L 1382.675 214.301115 
" clip-path="url(#pa183e8ad0a)" style="fill: none; stroke-dasharray: 2.96,1.28; stroke-dashoffset: 0; stroke: #cccccc; stroke-opacity: 0.6; stroke-width: 0.8"/>
     </g>
     <g id="line2d_90"/>
     <g id="text_52">
      <!-- 15 -->
      <g style="fill: #262626" transform="translate(1076.92269 217.880021) scale(0.1 -0.1)">
       <use xlink:href="#ArialMT-31"/>
       <use xlink:href="#ArialMT-35" x="55.615234"/>
      </g>
     </g>
    </g>
    <g id="ytick_23">
     <g id="line2d_91">
      <path d="M 1091.544565 158.05482 
L 1382.675 158.05482 
" clip-path="url(#pa183e8ad0a)" style="fill: none; stroke-dasharray: 2.96,1.28; stroke-dashoffset: 0; stroke: #cccccc; stroke-opacity: 0.6; stroke-width: 0.8"/>
     </g>
     <g id="line2d_92"/>
     <g id="text_53">
      <!-- 20 -->
      <g style="fill: #262626" transform="translate(1076.92269 161.633726) scale(0.1 -0.1)">
       <use xlink:href="#ArialMT-32"/>
       <use xlink:href="#ArialMT-30" x="55.615234"/>
      </g>
     </g>
    </g>
    <g id="ytick_24">
     <g id="line2d_93">
      <path d="M 1091.544565 101.808524 
L 1382.675 101.808524 
" clip-path="url(#pa183e8ad0a)" style="fill: none; stroke-dasharray: 2.96,1.28; stroke-dashoffset: 0; stroke: #cccccc; stroke-opacity: 0.6; stroke-width: 0.8"/>
     </g>
     <g id="line2d_94"/>
     <g id="text_54">
      <!-- 25 -->
      <g style="fill: #262626" transform="translate(1076.92269 105.387431) scale(0.1 -0.1)">
       <use xlink:href="#ArialMT-32"/>
       <use xlink:href="#ArialMT-35" x="55.615234"/>
      </g>
     </g>
    </g>
    <g id="text_55">
     <!-- CL [liter * milligram / millimole / minute] -->
     <g style="fill: #262626" transform="translate(1069.55519 366.82125) rotate(-90) scale(0.16 -0.16)">
      <defs>
       <path id="Arial-BoldMT-4c" d="M 491 0 
L 491 4544 
L 1416 4544 
L 1416 772 
L 3716 772 
L 3716 0 
L 491 0 
z
" transform="scale(0.015625)"/>
      </defs>
      <use xlink:href="#Arial-BoldMT-43"/>
      <use xlink:href="#Arial-BoldMT-4c" x="72.216797"/>
      <use xlink:href="#Arial-BoldMT-20" x="131.550781"/>
      <use xlink:href="#Arial-BoldMT-5b" x="159.333984"/>
      <use xlink:href="#Arial-BoldMT-6c" x="192.634766"/>
      <use xlink:href="#Arial-BoldMT-69" x="220.417969"/>
      <use xlink:href="#Arial-BoldMT-74" x="248.201172"/>
      <use xlink:href="#Arial-BoldMT-65" x="281.501953"/>
      <use xlink:href="#Arial-BoldMT-72" x="337.117188"/>
      <use xlink:href="#Arial-BoldMT-20" x="376.033203"/>
      <use xlink:href="#Arial-BoldMT-2a" x="403.816406"/>
      <use xlink:href="#Arial-BoldMT-20" x="442.732422"/>
      <use xlink:href="#Arial-BoldMT-6d" x="470.515625"/>
      <use xlink:href="#Arial-BoldMT-69" x="559.431641"/>
      <use xlink:href="#Arial-BoldMT-6c" x="587.214844"/>
      <use xlink:href="#Arial-BoldMT-6c" x="614.998047"/>
      <use xlink:href="#Arial-BoldMT-69" x="642.78125"/>
      <use xlink:href="#Arial-BoldMT-67" x="670.564453"/>
      <use xlink:href="#Arial-BoldMT-72" x="731.648438"/>
      <use xlink:href="#Arial-BoldMT-61" x="770.564453"/>
      <use xlink:href="#Arial-BoldMT-6d" x="826.179688"/>
      <use xlink:href="#Arial-BoldMT-20" x="915.095703"/>
      <use xlink:href="#Arial-BoldMT-2f" x="942.878906"/>
      <use xlink:href="#Arial-BoldMT-20" x="970.662109"/>
      <use xlink:href="#Arial-BoldMT-6d" x="998.445312"/>
      <use xlink:href="#Arial-BoldMT-69" x="1087.361328"/>
      <use xlink:href="#Arial-BoldMT-6c" x="1115.144531"/>
      <use xlink:href="#Arial-BoldMT-6c" x="1142.927734"/>
      <use xlink:href="#Arial-BoldMT-69" x="1170.710938"/>
      <use xlink:href="#Arial-BoldMT-6d" x="1198.494141"/>
      <use xlink:href="#Arial-BoldMT-6f" x="1287.410156"/>
      <use xlink:href="#Arial-BoldMT-6c" x="1348.494141"/>
      <use xlink:href="#Arial-BoldMT-65" x="1376.277344"/>
      <use xlink:href="#Arial-BoldMT-20" x="1431.892578"/>
      <use xlink:href="#Arial-BoldMT-2f" x="1459.675781"/>
      <use xlink:href="#Arial-BoldMT-20" x="1487.458984"/>
      <use xlink:href="#Arial-BoldMT-6d" x="1515.242188"/>
      <use xlink:href="#Arial-BoldMT-69" x="1604.158203"/>
      <use xlink:href="#Arial-BoldMT-6e" x="1631.941406"/>
      <use xlink:href="#Arial-BoldMT-75" x="1693.025391"/>
      <use xlink:href="#Arial-BoldMT-74" x="1754.109375"/>
      <use xlink:href="#Arial-BoldMT-65" x="1787.410156"/>
      <use xlink:href="#Arial-BoldMT-5d" x="1843.025391"/>
     </g>
    </g>
   </g>
   <g id="line2d_95">
    <path d="M 1104.777767 383.04 
L 1104.777767 50.4 
" clip-path="url(#pa183e8ad0a)" style="fill: none; stroke-dasharray: 5.55,2.4; stroke-dashoffset: 0; stroke: #808080; stroke-width: 1.5"/>
   </g>
   <g id="line2d_96">
    <path d="M 1104.777767 161.28 
L 1107.451141 162.968015 
L 1110.124515 164.653631 
L 1112.797889 166.337807 
L 1115.471263 168.020052 
L 1118.144637 169.700356 
L 1120.818011 171.378234 
L 1123.491385 173.054636 
L 1126.164759 174.729073 
L 1128.838133 176.401063 
L 1131.511507 178.071548 
L 1134.184881 179.741847 
L 1136.858255 181.408325 
L 1139.53163 183.072327 
L 1142.205004 184.734784 
L 1144.878378 186.395218 
L 1147.551752 188.053619 
L 1150.225126 189.709517 
L 1152.8985 191.363829 
L 1155.571874 193.016083 
L 1158.245248 194.666269 
L 1160.918622 196.31438 
L 1163.591996 197.959948 
L 1166.26537 199.60388 
L 1168.938744 201.245708 
L 1171.612118 202.885424 
L 1174.285492 204.523019 
L 1176.958866 206.158482 
L 1179.63224 207.791356 
L 1182.305614 209.422531 
L 1184.978989 211.051547 
L 1187.652363 212.678395 
L 1190.325737 214.303065 
L 1192.999111 215.925547 
L 1195.672485 217.545833 
L 1198.345859 219.163913 
L 1201.019233 220.779776 
L 1203.692607 222.393414 
L 1206.365981 224.004816 
L 1209.039355 225.613973 
L 1211.712729 227.220874 
L 1214.386103 228.825511 
L 1217.059477 230.427873 
L 1219.732851 232.02795 
L 1222.406225 233.625732 
L 1225.079599 235.221209 
L 1227.752973 236.81437 
L 1230.426347 238.405207 
L 1233.099722 239.993707 
L 1235.773096 241.579861 
L 1238.44647 243.163659 
L 1241.119844 244.745089 
L 1243.793218 246.324141 
L 1246.466592 247.900805 
L 1249.139966 249.475069 
L 1251.81334 251.046923 
L 1254.486714 252.616781 
L 1257.160088 254.183779 
L 1259.833462 255.748332 
L 1262.506836 257.31043 
L 1265.18021 258.870058 
L 1267.853584 260.427634 
L 1270.526958 261.982289 
L 1273.200332 263.534438 
L 1275.873706 265.084068 
L 1278.54708 266.631594 
L 1281.220455 268.176145 
L 1283.893829 269.718134 
L 1286.567203 271.257979 
L 1289.240577 272.7948 
L 1291.913951 274.329013 
L 1294.587325 275.861036 
L 1297.260699 277.38998 
L 1299.934073 278.91626 
L 1302.607447 280.4403 
L 1305.280821 281.961193 
L 1307.954195 283.479809 
L 1310.627569 284.995225 
L 1313.300943 286.50832 
L 1315.974317 288.018157 
L 1318.647691 289.525622 
L 1321.321065 291.029761 
L 1323.994439 292.531471 
L 1326.667814 294.030252 
L 1329.341188 295.525582 
L 1332.014562 297.018379 
L 1334.687936 298.50812 
L 1337.36131 299.994252 
L 1340.034684 301.477718 
L 1342.708058 302.957964 
L 1345.381432 304.434927 
L 1348.054806 305.908003 
L 1350.72818 307.378172 
L 1353.401554 308.844829 
L 1356.074928 310.307882 
L 1358.748302 311.766899 
L 1361.421676 313.222458 
L 1364.09505 314.674094 
L 1366.768424 316.121682 
L 1369.441798 317.565086 
" clip-path="url(#pa183e8ad0a)" style="fill: none; stroke: #1f77b4; stroke-width: 2; stroke-linecap: round"/>
   </g>
   <g id="patch_18">
    <path d="M 1091.544565 383.04 
L 1091.544565 50.4 
" style="fill: none; stroke: #cccccc; stroke-linejoin: miter; stroke-linecap: square"/>
   </g>
   <g id="patch_19">
    <path d="M 1382.675 383.04 
L 1382.675 50.4 
" style="fill: none; stroke: #cccccc; stroke-linejoin: miter; stroke-linecap: square"/>
   </g>
   <g id="patch_20">
    <path d="M 1091.544565 383.04 
L 1382.675 383.04 
" style="fill: none; stroke: #cccccc; stroke-linejoin: miter; stroke-linecap: square"/>
   </g>
   <g id="patch_21">
    <path d="M 1091.544565 50.4 
L 1382.675 50.4 
" style="fill: none; stroke: #cccccc; stroke-linejoin: miter; stroke-linecap: square"/>
   </g>
   <g id="text_56">
    <!-- CL -->
    <g style="fill: #262626" transform="translate(1225.113064 44.4) scale(0.18 -0.18)">
     <use xlink:href="#Arial-BoldMT-43"/>
     <use xlink:href="#Arial-BoldMT-4c" x="72.216797"/>
    </g>
   </g>
  </g>
  <g id="text_57">
   <!-- PK Parameters: Glimepiride (Scan_po_hepatic) -->
   <g style="fill: #262626" transform="translate(445.126563 23.215312) scale(0.22 -0.22)">
    <defs>
     <path id="Arial-BoldMT-50" d="M 466 0 
L 466 4581 
L 1950 4581 
Q 2794 4581 3050 4513 
Q 3444 4409 3709 4064 
Q 3975 3719 3975 3172 
Q 3975 2750 3822 2462 
Q 3669 2175 3433 2011 
Q 3197 1847 2953 1794 
Q 2622 1728 1994 1728 
L 1391 1728 
L 1391 0 
L 466 0 
z
M 1391 3806 
L 1391 2506 
L 1897 2506 
Q 2444 2506 2628 2578 
Q 2813 2650 2917 2803 
Q 3022 2956 3022 3159 
Q 3022 3409 2875 3571 
Q 2728 3734 2503 3775 
Q 2338 3806 1838 3806 
L 1391 3806 
z
" transform="scale(0.015625)"/>
     <path id="Arial-BoldMT-4b" d="M 478 0 
L 478 4581 
L 1403 4581 
L 1403 2547 
L 3272 4581 
L 4516 4581 
L 2791 2797 
L 4609 0 
L 3413 0 
L 2153 2150 
L 1403 1384 
L 1403 0 
L 478 0 
z
" transform="scale(0.015625)"/>
     <path id="Arial-BoldMT-3a" d="M 628 2441 
L 628 3319 
L 1506 3319 
L 1506 2441 
L 628 2441 
z
M 628 0 
L 628 878 
L 1506 878 
L 1506 0 
L 628 0 
z
" transform="scale(0.015625)"/>
     <path id="Arial-BoldMT-47" d="M 2597 1684 
L 2597 2456 
L 4591 2456 
L 4591 631 
Q 4300 350 3748 136 
Q 3197 -78 2631 -78 
Q 1913 -78 1378 223 
Q 844 525 575 1086 
Q 306 1647 306 2306 
Q 306 3022 606 3578 
Q 906 4134 1484 4431 
Q 1925 4659 2581 4659 
Q 3434 4659 3914 4301 
Q 4394 3944 4531 3313 
L 3613 3141 
Q 3516 3478 3248 3673 
Q 2981 3869 2581 3869 
Q 1975 3869 1617 3484 
Q 1259 3100 1259 2344 
Q 1259 1528 1621 1120 
Q 1984 713 2572 713 
Q 2863 713 3155 827 
Q 3447 941 3656 1103 
L 3656 1684 
L 2597 1684 
z
" transform="scale(0.015625)"/>
     <path id="Arial-BoldMT-70" d="M 434 3319 
L 1253 3319 
L 1253 2831 
Q 1413 3081 1684 3237 
Q 1956 3394 2288 3394 
Q 2866 3394 3269 2941 
Q 3672 2488 3672 1678 
Q 3672 847 3265 386 
Q 2859 -75 2281 -75 
Q 2006 -75 1782 34 
Q 1559 144 1313 409 
L 1313 -1263 
L 434 -1263 
L 434 3319 
z
M 1303 1716 
Q 1303 1156 1525 889 
Q 1747 622 2066 622 
Q 2372 622 2575 867 
Q 2778 1113 2778 1672 
Q 2778 2194 2568 2447 
Q 2359 2700 2050 2700 
Q 1728 2700 1515 2451 
Q 1303 2203 1303 1716 
z
" transform="scale(0.015625)"/>
     <path id="Arial-BoldMT-28" d="M 1916 -1347 
L 1313 -1347 
Q 834 -625 584 153 
Q 334 931 334 1659 
Q 334 2563 644 3369 
Q 913 4069 1325 4659 
L 1925 4659 
Q 1497 3713 1336 3048 
Q 1175 2384 1175 1641 
Q 1175 1128 1270 590 
Q 1366 53 1531 -431 
Q 1641 -750 1916 -1347 
z
" transform="scale(0.015625)"/>
     <path id="Arial-BoldMT-53" d="M 231 1491 
L 1131 1578 
Q 1213 1125 1461 912 
Q 1709 700 2131 700 
Q 2578 700 2804 889 
Q 3031 1078 3031 1331 
Q 3031 1494 2936 1608 
Q 2841 1722 2603 1806 
Q 2441 1863 1863 2006 
Q 1119 2191 819 2459 
Q 397 2838 397 3381 
Q 397 3731 595 4036 
Q 794 4341 1167 4500 
Q 1541 4659 2069 4659 
Q 2931 4659 3367 4281 
Q 3803 3903 3825 3272 
L 2900 3231 
Q 2841 3584 2645 3739 
Q 2450 3894 2059 3894 
Q 1656 3894 1428 3728 
Q 1281 3622 1281 3444 
Q 1281 3281 1419 3166 
Q 1594 3019 2269 2859 
Q 2944 2700 3267 2529 
Q 3591 2359 3773 2064 
Q 3956 1769 3956 1334 
Q 3956 941 3737 597 
Q 3519 253 3119 86 
Q 2719 -81 2122 -81 
Q 1253 -81 787 320 
Q 322 722 231 1491 
z
" transform="scale(0.015625)"/>
     <path id="Arial-BoldMT-63" d="M 3353 2338 
L 2488 2181 
Q 2444 2441 2289 2572 
Q 2134 2703 1888 2703 
Q 1559 2703 1364 2476 
Q 1169 2250 1169 1719 
Q 1169 1128 1367 884 
Q 1566 641 1900 641 
Q 2150 641 2309 783 
Q 2469 925 2534 1272 
L 3397 1125 
Q 3263 531 2881 228 
Q 2500 -75 1859 -75 
Q 1131 -75 698 384 
Q 266 844 266 1656 
Q 266 2478 700 2936 
Q 1134 3394 1875 3394 
Q 2481 3394 2839 3133 
Q 3197 2872 3353 2338 
z
" transform="scale(0.015625)"/>
     <path id="Arial-BoldMT-5f" d="M -59 -1266 
L -59 -697 
L 3591 -697 
L 3591 -1266 
L -59 -1266 
z
" transform="scale(0.015625)"/>
     <path id="Arial-BoldMT-29" d="M 216 -1347 
Q 475 -791 581 -494 
Q 688 -197 778 190 
Q 869 578 912 926 
Q 956 1275 956 1641 
Q 956 2384 797 3048 
Q 638 3713 209 4659 
L 806 4659 
Q 1278 3988 1539 3234 
Q 1800 2481 1800 1706 
Q 1800 1053 1594 306 
Q 1359 -531 822 -1347 
L 216 -1347 
z
" transform="scale(0.015625)"/>
    </defs>
    <use xlink:href="#Arial-BoldMT-50"/>
    <use xlink:href="#Arial-BoldMT-4b" x="66.699219"/>
    <use xlink:href="#Arial-BoldMT-20" x="138.916016"/>
    <use xlink:href="#Arial-BoldMT-50" x="166.699219"/>
    <use xlink:href="#Arial-BoldMT-61" x="233.398438"/>
    <use xlink:href="#Arial-BoldMT-72" x="289.013672"/>
    <use xlink:href="#Arial-BoldMT-61" x="327.929688"/>
    <use xlink:href="#Arial-BoldMT-6d" x="383.544922"/>
    <use xlink:href="#Arial-BoldMT-65" x="472.460938"/>
    <use xlink:href="#Arial-BoldMT-74" x="528.076172"/>
    <use xlink:href="#Arial-BoldMT-65" x="561.376953"/>
    <use xlink:href="#Arial-BoldMT-72" x="616.992188"/>
    <use xlink:href="#Arial-BoldMT-73" x="655.908203"/>
    <use xlink:href="#Arial-BoldMT-3a" x="711.523438"/>
    <use xlink:href="#Arial-BoldMT-20" x="744.824219"/>
    <use xlink:href="#Arial-BoldMT-47" x="772.607422"/>
    <use xlink:href="#Arial-BoldMT-6c" x="850.390625"/>
    <use xlink:href="#Arial-BoldMT-69" x="878.173828"/>
    <use xlink:href="#Arial-BoldMT-6d" x="905.957031"/>
    <use xlink:href="#Arial-BoldMT-65" x="994.873047"/>
    <use xlink:href="#Arial-BoldMT-70" x="1050.488281"/>
    <use xlink:href="#Arial-BoldMT-69" x="1111.572266"/>
    <use xlink:href="#Arial-BoldMT-72" x="1139.355469"/>
    <use xlink:href="#Arial-BoldMT-69" x="1178.271484"/>
    <use xlink:href="#Arial-BoldMT-64" x="1206.054688"/>
    <use xlink:href="#Arial-BoldMT-65" x="1267.138672"/>
    <use xlink:href="#Arial-BoldMT-20" x="1322.753906"/>
    <use xlink:href="#Arial-BoldMT-28" x="1350.537109"/>
    <use xlink:href="#Arial-BoldMT-53" x="1383.837891"/>
    <use xlink:href="#Arial-BoldMT-63" x="1450.537109"/>
    <use xlink:href="#Arial-BoldMT-61" x="1506.152344"/>
    <use xlink:href="#Arial-BoldMT-6e" x="1561.767578"/>
    <use xlink:href="#Arial-BoldMT-5f" x="1622.851562"/>
    <use xlink:href="#Arial-BoldMT-70" x="1678.466797"/>
    <use xlink:href="#Arial-BoldMT-6f" x="1739.550781"/>
    <use xlink:href="#Arial-BoldMT-5f" x="1800.634766"/>
    <use xlink:href="#Arial-BoldMT-68" x="1856.25"/>
    <use xlink:href="#Arial-BoldMT-65" x="1917.333984"/>
    <use xlink:href="#Arial-BoldMT-70" x="1972.949219"/>
    <use xlink:href="#Arial-BoldMT-61" x="2034.033203"/>
    <use xlink:href="#Arial-BoldMT-74" x="2089.648438"/>
    <use xlink:href="#Arial-BoldMT-69" x="2122.949219"/>
    <use xlink:href="#Arial-BoldMT-63" x="2150.732422"/>
    <use xlink:href="#Arial-BoldMT-29" x="2206.347656"/>
   </g>
  </g>
 </g>
 <defs>
  <clipPath id="p4df813340c">
   <rect x="43.475" y="50.4" width="291.130435" height="332.64"/>
  </clipPath>
  <clipPath id="p6cae2fcf1e">
   <rect x="392.831522" y="50.4" width="291.130435" height="332.64"/>
  </clipPath>
  <clipPath id="pdd0a0a8d8e">
   <rect x="742.188043" y="50.4" width="291.130435" height="332.64"/>
  </clipPath>
  <clipPath id="pa183e8ad0a">
   <rect x="1091.544565" y="50.4" width="291.130435" height="332.64"/>
  </clipPath>
 </defs>
</svg>
