<?xml version="1.0" encoding="utf-8" standalone="no"?>
<!DOCTYPE svg PUBLIC "-//W3C//DTD SVG 1.1//EN"
  "http://www.w3.org/Graphics/SVG/1.1/DTD/svg11.dtd">
<svg xmlns:xlink="http://www.w3.org/1999/xlink" width="1402.350625pt" height="426.403125pt" viewBox="0 0 1402.350625 426.403125" xmlns="http://www.w3.org/2000/svg" version="1.1">
 <metadata>
  <rdf:RDF xmlns:dc="http://purl.org/dc/elements/1.1/" xmlns:cc="http://creativecommons.org/ns#" xmlns:rdf="http://www.w3.org/1999/02/22-rdf-syntax-ns#">
   <cc:Work>
    <dc:type rdf:resource="http://purl.org/dc/dcmitype/StillImage"/>
    <dc:date>2025-04-04T11:27:34.919506</dc:date>
    <dc:format>image/svg+xml</dc:format>
    <dc:creator>
     <cc:Agent>
      <dc:title>Matplotlib v3.9.1, https://matplotlib.org/</dc:title>
     </cc:Agent>
    </dc:creator>
   </cc:Work>
  </rdf:RDF>
 </metadata>
 <defs>
  <style type="text/css">*{stroke-linejoin: round; stroke-linecap: butt}</style>
 </defs>
 <g id="figure_1">
  <g id="patch_1">
   <path d="M 0 426.403125 
L 1402.350625 426.403125 
L 1402.350625 0 
L 0 0 
z
" style="fill: #ffffff"/>
  </g>
  <g id="axes_1">
   <g id="patch_2">
    <path d="M 55.950625 383.04 
L 347.08106 383.04 
L 347.08106 50.4 
L 55.950625 50.4 
z
" style="fill: #ffffff"/>
   </g>
   <g id="matplotlib.axis_1">
    <g id="xtick_1">
     <g id="line2d_1">
      <path d="M 98.590941 383.04 
L 98.590941 50.4 
" clip-path="url(#p8fde466e77)" style="fill: none; stroke-dasharray: 2.96,1.28; stroke-dashoffset: 0; stroke: #b0b0b0; stroke-opacity: 0.6; stroke-width: 0.8"/>
     </g>
     <g id="line2d_2">
      <defs>
       <path id="mdb630e562a" d="M 0 0 
L 0 3.5 
" style="stroke: #000000; stroke-width: 0.8"/>
      </defs>
      <g>
       <use xlink:href="#mdb630e562a" x="98.590941" y="383.04" style="stroke: #000000; stroke-width: 0.8"/>
      </g>
     </g>
     <g id="text_1">
      <!-- 0.2 -->
      <g transform="translate(90.639379 397.638438) scale(0.1 -0.1)">
       <defs>
        <path id="DejaVuSans-30" d="M 2034 4250 
Q 1547 4250 1301 3770 
Q 1056 3291 1056 2328 
Q 1056 1369 1301 889 
Q 1547 409 2034 409 
Q 2525 409 2770 889 
Q 3016 1369 3016 2328 
Q 3016 3291 2770 3770 
Q 2525 4250 2034 4250 
z
M 2034 4750 
Q 2819 4750 3233 4129 
Q 3647 3509 3647 2328 
Q 3647 1150 3233 529 
Q 2819 -91 2034 -91 
Q 1250 -91 836 529 
Q 422 1150 422 2328 
Q 422 3509 836 4129 
Q 1250 4750 2034 4750 
z
" transform="scale(0.015625)"/>
        <path id="DejaVuSans-2e" d="M 684 794 
L 1344 794 
L 1344 0 
L 684 0 
L 684 794 
z
" transform="scale(0.015625)"/>
        <path id="DejaVuSans-32" d="M 1228 531 
L 3431 531 
L 3431 0 
L 469 0 
L 469 531 
Q 828 903 1448 1529 
Q 2069 2156 2228 2338 
Q 2531 2678 2651 2914 
Q 2772 3150 2772 3378 
Q 2772 3750 2511 3984 
Q 2250 4219 1831 4219 
Q 1534 4219 1204 4116 
Q 875 4013 500 3803 
L 500 4441 
Q 881 4594 1212 4672 
Q 1544 4750 1819 4750 
Q 2544 4750 2975 4387 
Q 3406 4025 3406 3419 
Q 3406 3131 3298 2873 
Q 3191 2616 2906 2266 
Q 2828 2175 2409 1742 
Q 1991 1309 1228 531 
z
" transform="scale(0.015625)"/>
       </defs>
       <use xlink:href="#DejaVuSans-30"/>
       <use xlink:href="#DejaVuSans-2e" x="63.623047"/>
       <use xlink:href="#DejaVuSans-32" x="95.410156"/>
      </g>
     </g>
    </g>
    <g id="xtick_2">
     <g id="line2d_3">
      <path d="M 157.40517 383.04 
L 157.40517 50.4 
" clip-path="url(#p8fde466e77)" style="fill: none; stroke-dasharray: 2.96,1.28; stroke-dashoffset: 0; stroke: #b0b0b0; stroke-opacity: 0.6; stroke-width: 0.8"/>
     </g>
     <g id="line2d_4">
      <g>
       <use xlink:href="#mdb630e562a" x="157.40517" y="383.04" style="stroke: #000000; stroke-width: 0.8"/>
      </g>
     </g>
     <g id="text_2">
      <!-- 0.4 -->
      <g transform="translate(149.453608 397.638438) scale(0.1 -0.1)">
       <defs>
        <path id="DejaVuSans-34" d="M 2419 4116 
L 825 1625 
L 2419 1625 
L 2419 4116 
z
M 2253 4666 
L 3047 4666 
L 3047 1625 
L 3713 1625 
L 3713 1100 
L 3047 1100 
L 3047 0 
L 2419 0 
L 2419 1100 
L 313 1100 
L 313 1709 
L 2253 4666 
z
" transform="scale(0.015625)"/>
       </defs>
       <use xlink:href="#DejaVuSans-30"/>
       <use xlink:href="#DejaVuSans-2e" x="63.623047"/>
       <use xlink:href="#DejaVuSans-34" x="95.410156"/>
      </g>
     </g>
    </g>
    <g id="xtick_3">
     <g id="line2d_5">
      <path d="M 216.2194 383.04 
L 216.2194 50.4 
" clip-path="url(#p8fde466e77)" style="fill: none; stroke-dasharray: 2.96,1.28; stroke-dashoffset: 0; stroke: #b0b0b0; stroke-opacity: 0.6; stroke-width: 0.8"/>
     </g>
     <g id="line2d_6">
      <g>
       <use xlink:href="#mdb630e562a" x="216.2194" y="383.04" style="stroke: #000000; stroke-width: 0.8"/>
      </g>
     </g>
     <g id="text_3">
      <!-- 0.6 -->
      <g transform="translate(208.267837 397.638438) scale(0.1 -0.1)">
       <defs>
        <path id="DejaVuSans-36" d="M 2113 2584 
Q 1688 2584 1439 2293 
Q 1191 2003 1191 1497 
Q 1191 994 1439 701 
Q 1688 409 2113 409 
Q 2538 409 2786 701 
Q 3034 994 3034 1497 
Q 3034 2003 2786 2293 
Q 2538 2584 2113 2584 
z
M 3366 4563 
L 3366 3988 
Q 3128 4100 2886 4159 
Q 2644 4219 2406 4219 
Q 1781 4219 1451 3797 
Q 1122 3375 1075 2522 
Q 1259 2794 1537 2939 
Q 1816 3084 2150 3084 
Q 2853 3084 3261 2657 
Q 3669 2231 3669 1497 
Q 3669 778 3244 343 
Q 2819 -91 2113 -91 
Q 1303 -91 875 529 
Q 447 1150 447 2328 
Q 447 3434 972 4092 
Q 1497 4750 2381 4750 
Q 2619 4750 2861 4703 
Q 3103 4656 3366 4563 
z
" transform="scale(0.015625)"/>
       </defs>
       <use xlink:href="#DejaVuSans-30"/>
       <use xlink:href="#DejaVuSans-2e" x="63.623047"/>
       <use xlink:href="#DejaVuSans-36" x="95.410156"/>
      </g>
     </g>
    </g>
    <g id="xtick_4">
     <g id="line2d_7">
      <path d="M 275.033629 383.04 
L 275.033629 50.4 
" clip-path="url(#p8fde466e77)" style="fill: none; stroke-dasharray: 2.96,1.28; stroke-dashoffset: 0; stroke: #b0b0b0; stroke-opacity: 0.6; stroke-width: 0.8"/>
     </g>
     <g id="line2d_8">
      <g>
       <use xlink:href="#mdb630e562a" x="275.033629" y="383.04" style="stroke: #000000; stroke-width: 0.8"/>
      </g>
     </g>
     <g id="text_4">
      <!-- 0.8 -->
      <g transform="translate(267.082066 397.638438) scale(0.1 -0.1)">
       <defs>
        <path id="DejaVuSans-38" d="M 2034 2216 
Q 1584 2216 1326 1975 
Q 1069 1734 1069 1313 
Q 1069 891 1326 650 
Q 1584 409 2034 409 
Q 2484 409 2743 651 
Q 3003 894 3003 1313 
Q 3003 1734 2745 1975 
Q 2488 2216 2034 2216 
z
M 1403 2484 
Q 997 2584 770 2862 
Q 544 3141 544 3541 
Q 544 4100 942 4425 
Q 1341 4750 2034 4750 
Q 2731 4750 3128 4425 
Q 3525 4100 3525 3541 
Q 3525 3141 3298 2862 
Q 3072 2584 2669 2484 
Q 3125 2378 3379 2068 
Q 3634 1759 3634 1313 
Q 3634 634 3220 271 
Q 2806 -91 2034 -91 
Q 1263 -91 848 271 
Q 434 634 434 1313 
Q 434 1759 690 2068 
Q 947 2378 1403 2484 
z
M 1172 3481 
Q 1172 3119 1398 2916 
Q 1625 2713 2034 2713 
Q 2441 2713 2670 2916 
Q 2900 3119 2900 3481 
Q 2900 3844 2670 4047 
Q 2441 4250 2034 4250 
Q 1625 4250 1398 4047 
Q 1172 3844 1172 3481 
z
" transform="scale(0.015625)"/>
       </defs>
       <use xlink:href="#DejaVuSans-30"/>
       <use xlink:href="#DejaVuSans-2e" x="63.623047"/>
       <use xlink:href="#DejaVuSans-38" x="95.410156"/>
      </g>
     </g>
    </g>
    <g id="xtick_5">
     <g id="line2d_9">
      <path d="M 333.847858 383.04 
L 333.847858 50.4 
" clip-path="url(#p8fde466e77)" style="fill: none; stroke-dasharray: 2.96,1.28; stroke-dashoffset: 0; stroke: #b0b0b0; stroke-opacity: 0.6; stroke-width: 0.8"/>
     </g>
     <g id="line2d_10">
      <g>
       <use xlink:href="#mdb630e562a" x="333.847858" y="383.04" style="stroke: #000000; stroke-width: 0.8"/>
      </g>
     </g>
     <g id="text_5">
      <!-- 1.0 -->
      <g transform="translate(325.896296 397.638438) scale(0.1 -0.1)">
       <defs>
        <path id="DejaVuSans-31" d="M 794 531 
L 1825 531 
L 1825 4091 
L 703 3866 
L 703 4441 
L 1819 4666 
L 2450 4666 
L 2450 531 
L 3481 531 
L 3481 0 
L 794 0 
L 794 531 
z
" transform="scale(0.015625)"/>
       </defs>
       <use xlink:href="#DejaVuSans-31"/>
       <use xlink:href="#DejaVuSans-2e" x="63.623047"/>
       <use xlink:href="#DejaVuSans-30" x="95.410156"/>
      </g>
     </g>
    </g>
    <g id="text_6">
     <!-- Renal function -->
     <g transform="translate(135.938342 415.875625) scale(0.16 -0.16)">
      <defs>
       <path id="DejaVuSans-Bold-52" d="M 2297 2597 
Q 2675 2597 2839 2737 
Q 3003 2878 3003 3200 
Q 3003 3519 2839 3656 
Q 2675 3794 2297 3794 
L 1791 3794 
L 1791 2597 
L 2297 2597 
z
M 1791 1766 
L 1791 0 
L 588 0 
L 588 4666 
L 2425 4666 
Q 3347 4666 3776 4356 
Q 4206 4047 4206 3378 
Q 4206 2916 3982 2619 
Q 3759 2322 3309 2181 
Q 3556 2125 3751 1926 
Q 3947 1728 4147 1325 
L 4800 0 
L 3519 0 
L 2950 1159 
Q 2778 1509 2601 1637 
Q 2425 1766 2131 1766 
L 1791 1766 
z
" transform="scale(0.015625)"/>
       <path id="DejaVuSans-Bold-65" d="M 4031 1759 
L 4031 1441 
L 1416 1441 
Q 1456 1047 1700 850 
Q 1944 653 2381 653 
Q 2734 653 3104 758 
Q 3475 863 3866 1075 
L 3866 213 
Q 3469 63 3072 -14 
Q 2675 -91 2278 -91 
Q 1328 -91 801 392 
Q 275 875 275 1747 
Q 275 2603 792 3093 
Q 1309 3584 2216 3584 
Q 3041 3584 3536 3087 
Q 4031 2591 4031 1759 
z
M 2881 2131 
Q 2881 2450 2695 2645 
Q 2509 2841 2209 2841 
Q 1884 2841 1681 2658 
Q 1478 2475 1428 2131 
L 2881 2131 
z
" transform="scale(0.015625)"/>
       <path id="DejaVuSans-Bold-6e" d="M 4056 2131 
L 4056 0 
L 2931 0 
L 2931 347 
L 2931 1631 
Q 2931 2084 2911 2256 
Q 2891 2428 2841 2509 
Q 2775 2619 2662 2680 
Q 2550 2741 2406 2741 
Q 2056 2741 1856 2470 
Q 1656 2200 1656 1722 
L 1656 0 
L 538 0 
L 538 3500 
L 1656 3500 
L 1656 2988 
Q 1909 3294 2193 3439 
Q 2478 3584 2822 3584 
Q 3428 3584 3742 3212 
Q 4056 2841 4056 2131 
z
" transform="scale(0.015625)"/>
       <path id="DejaVuSans-Bold-61" d="M 2106 1575 
Q 1756 1575 1579 1456 
Q 1403 1338 1403 1106 
Q 1403 894 1545 773 
Q 1688 653 1941 653 
Q 2256 653 2472 879 
Q 2688 1106 2688 1447 
L 2688 1575 
L 2106 1575 
z
M 3816 1997 
L 3816 0 
L 2688 0 
L 2688 519 
Q 2463 200 2181 54 
Q 1900 -91 1497 -91 
Q 953 -91 614 226 
Q 275 544 275 1050 
Q 275 1666 698 1953 
Q 1122 2241 2028 2241 
L 2688 2241 
L 2688 2328 
Q 2688 2594 2478 2717 
Q 2269 2841 1825 2841 
Q 1466 2841 1156 2769 
Q 847 2697 581 2553 
L 581 3406 
Q 941 3494 1303 3539 
Q 1666 3584 2028 3584 
Q 2975 3584 3395 3211 
Q 3816 2838 3816 1997 
z
" transform="scale(0.015625)"/>
       <path id="DejaVuSans-Bold-6c" d="M 538 4863 
L 1656 4863 
L 1656 0 
L 538 0 
L 538 4863 
z
" transform="scale(0.015625)"/>
       <path id="DejaVuSans-Bold-20" transform="scale(0.015625)"/>
       <path id="DejaVuSans-Bold-66" d="M 2841 4863 
L 2841 4128 
L 2222 4128 
Q 1984 4128 1890 4042 
Q 1797 3956 1797 3744 
L 1797 3500 
L 2753 3500 
L 2753 2700 
L 1797 2700 
L 1797 0 
L 678 0 
L 678 2700 
L 122 2700 
L 122 3500 
L 678 3500 
L 678 3744 
Q 678 4316 997 4589 
Q 1316 4863 1984 4863 
L 2841 4863 
z
" transform="scale(0.015625)"/>
       <path id="DejaVuSans-Bold-75" d="M 500 1363 
L 500 3500 
L 1625 3500 
L 1625 3150 
Q 1625 2866 1622 2436 
Q 1619 2006 1619 1863 
Q 1619 1441 1641 1255 
Q 1663 1069 1716 984 
Q 1784 875 1895 815 
Q 2006 756 2150 756 
Q 2500 756 2700 1025 
Q 2900 1294 2900 1772 
L 2900 3500 
L 4019 3500 
L 4019 0 
L 2900 0 
L 2900 506 
Q 2647 200 2364 54 
Q 2081 -91 1741 -91 
Q 1134 -91 817 281 
Q 500 653 500 1363 
z
" transform="scale(0.015625)"/>
       <path id="DejaVuSans-Bold-63" d="M 3366 3391 
L 3366 2478 
Q 3138 2634 2908 2709 
Q 2678 2784 2431 2784 
Q 1963 2784 1702 2511 
Q 1441 2238 1441 1747 
Q 1441 1256 1702 982 
Q 1963 709 2431 709 
Q 2694 709 2930 787 
Q 3166 866 3366 1019 
L 3366 103 
Q 3103 6 2833 -42 
Q 2563 -91 2291 -91 
Q 1344 -91 809 395 
Q 275 881 275 1747 
Q 275 2613 809 3098 
Q 1344 3584 2291 3584 
Q 2566 3584 2833 3536 
Q 3100 3488 3366 3391 
z
" transform="scale(0.015625)"/>
       <path id="DejaVuSans-Bold-74" d="M 1759 4494 
L 1759 3500 
L 2913 3500 
L 2913 2700 
L 1759 2700 
L 1759 1216 
Q 1759 972 1856 886 
Q 1953 800 2241 800 
L 2816 800 
L 2816 0 
L 1856 0 
Q 1194 0 917 276 
Q 641 553 641 1216 
L 641 2700 
L 84 2700 
L 84 3500 
L 641 3500 
L 641 4494 
L 1759 4494 
z
" transform="scale(0.015625)"/>
       <path id="DejaVuSans-Bold-69" d="M 538 3500 
L 1656 3500 
L 1656 0 
L 538 0 
L 538 3500 
z
M 538 4863 
L 1656 4863 
L 1656 3950 
L 538 3950 
L 538 4863 
z
" transform="scale(0.015625)"/>
       <path id="DejaVuSans-Bold-6f" d="M 2203 2784 
Q 1831 2784 1636 2517 
Q 1441 2250 1441 1747 
Q 1441 1244 1636 976 
Q 1831 709 2203 709 
Q 2569 709 2762 976 
Q 2956 1244 2956 1747 
Q 2956 2250 2762 2517 
Q 2569 2784 2203 2784 
z
M 2203 3584 
Q 3106 3584 3614 3096 
Q 4122 2609 4122 1747 
Q 4122 884 3614 396 
Q 3106 -91 2203 -91 
Q 1297 -91 786 396 
Q 275 884 275 1747 
Q 275 2609 786 3096 
Q 1297 3584 2203 3584 
z
" transform="scale(0.015625)"/>
      </defs>
      <use xlink:href="#DejaVuSans-Bold-52"/>
      <use xlink:href="#DejaVuSans-Bold-65" x="77.001953"/>
      <use xlink:href="#DejaVuSans-Bold-6e" x="144.824219"/>
      <use xlink:href="#DejaVuSans-Bold-61" x="216.015625"/>
      <use xlink:href="#DejaVuSans-Bold-6c" x="283.496094"/>
      <use xlink:href="#DejaVuSans-Bold-20" x="317.773438"/>
      <use xlink:href="#DejaVuSans-Bold-66" x="352.587891"/>
      <use xlink:href="#DejaVuSans-Bold-75" x="396.09375"/>
      <use xlink:href="#DejaVuSans-Bold-6e" x="467.285156"/>
      <use xlink:href="#DejaVuSans-Bold-63" x="538.476562"/>
      <use xlink:href="#DejaVuSans-Bold-74" x="597.753906"/>
      <use xlink:href="#DejaVuSans-Bold-69" x="645.556641"/>
      <use xlink:href="#DejaVuSans-Bold-6f" x="679.833984"/>
      <use xlink:href="#DejaVuSans-Bold-6e" x="748.535156"/>
     </g>
    </g>
   </g>
   <g id="matplotlib.axis_2">
    <g id="ytick_1">
     <g id="line2d_11">
      <path d="M 55.950625 383.04 
L 347.08106 383.04 
" clip-path="url(#p8fde466e77)" style="fill: none; stroke-dasharray: 2.96,1.28; stroke-dashoffset: 0; stroke: #b0b0b0; stroke-opacity: 0.6; stroke-width: 0.8"/>
     </g>
     <g id="line2d_12">
      <defs>
       <path id="m8486f95a45" d="M 0 0 
L -3.5 0 
" style="stroke: #000000; stroke-width: 0.8"/>
      </defs>
      <g>
       <use xlink:href="#m8486f95a45" x="55.950625" y="383.04" style="stroke: #000000; stroke-width: 0.8"/>
      </g>
     </g>
     <g id="text_7">
      <!-- 0.00 -->
      <g transform="translate(26.685 386.839219) scale(0.1 -0.1)">
       <use xlink:href="#DejaVuSans-30"/>
       <use xlink:href="#DejaVuSans-2e" x="63.623047"/>
       <use xlink:href="#DejaVuSans-30" x="95.410156"/>
       <use xlink:href="#DejaVuSans-30" x="159.033203"/>
      </g>
     </g>
    </g>
    <g id="ytick_2">
     <g id="line2d_13">
      <path d="M 55.950625 327.440633 
L 347.08106 327.440633 
" clip-path="url(#p8fde466e77)" style="fill: none; stroke-dasharray: 2.96,1.28; stroke-dashoffset: 0; stroke: #b0b0b0; stroke-opacity: 0.6; stroke-width: 0.8"/>
     </g>
     <g id="line2d_14">
      <g>
       <use xlink:href="#m8486f95a45" x="55.950625" y="327.440633" style="stroke: #000000; stroke-width: 0.8"/>
      </g>
     </g>
     <g id="text_8">
      <!-- 0.05 -->
      <g transform="translate(26.685 331.239852) scale(0.1 -0.1)">
       <defs>
        <path id="DejaVuSans-35" d="M 691 4666 
L 3169 4666 
L 3169 4134 
L 1269 4134 
L 1269 2991 
Q 1406 3038 1543 3061 
Q 1681 3084 1819 3084 
Q 2600 3084 3056 2656 
Q 3513 2228 3513 1497 
Q 3513 744 3044 326 
Q 2575 -91 1722 -91 
Q 1428 -91 1123 -41 
Q 819 9 494 109 
L 494 744 
Q 775 591 1075 516 
Q 1375 441 1709 441 
Q 2250 441 2565 725 
Q 2881 1009 2881 1497 
Q 2881 1984 2565 2268 
Q 2250 2553 1709 2553 
Q 1456 2553 1204 2497 
Q 953 2441 691 2322 
L 691 4666 
z
" transform="scale(0.015625)"/>
       </defs>
       <use xlink:href="#DejaVuSans-30"/>
       <use xlink:href="#DejaVuSans-2e" x="63.623047"/>
       <use xlink:href="#DejaVuSans-30" x="95.410156"/>
       <use xlink:href="#DejaVuSans-35" x="159.033203"/>
      </g>
     </g>
    </g>
    <g id="ytick_3">
     <g id="line2d_15">
      <path d="M 55.950625 271.841266 
L 347.08106 271.841266 
" clip-path="url(#p8fde466e77)" style="fill: none; stroke-dasharray: 2.96,1.28; stroke-dashoffset: 0; stroke: #b0b0b0; stroke-opacity: 0.6; stroke-width: 0.8"/>
     </g>
     <g id="line2d_16">
      <g>
       <use xlink:href="#m8486f95a45" x="55.950625" y="271.841266" style="stroke: #000000; stroke-width: 0.8"/>
      </g>
     </g>
     <g id="text_9">
      <!-- 0.10 -->
      <g transform="translate(26.685 275.640484) scale(0.1 -0.1)">
       <use xlink:href="#DejaVuSans-30"/>
       <use xlink:href="#DejaVuSans-2e" x="63.623047"/>
       <use xlink:href="#DejaVuSans-31" x="95.410156"/>
       <use xlink:href="#DejaVuSans-30" x="159.033203"/>
      </g>
     </g>
    </g>
    <g id="ytick_4">
     <g id="line2d_17">
      <path d="M 55.950625 216.241898 
L 347.08106 216.241898 
" clip-path="url(#p8fde466e77)" style="fill: none; stroke-dasharray: 2.96,1.28; stroke-dashoffset: 0; stroke: #b0b0b0; stroke-opacity: 0.6; stroke-width: 0.8"/>
     </g>
     <g id="line2d_18">
      <g>
       <use xlink:href="#m8486f95a45" x="55.950625" y="216.241898" style="stroke: #000000; stroke-width: 0.8"/>
      </g>
     </g>
     <g id="text_10">
      <!-- 0.15 -->
      <g transform="translate(26.685 220.041117) scale(0.1 -0.1)">
       <use xlink:href="#DejaVuSans-30"/>
       <use xlink:href="#DejaVuSans-2e" x="63.623047"/>
       <use xlink:href="#DejaVuSans-31" x="95.410156"/>
       <use xlink:href="#DejaVuSans-35" x="159.033203"/>
      </g>
     </g>
    </g>
    <g id="ytick_5">
     <g id="line2d_19">
      <path d="M 55.950625 160.642531 
L 347.08106 160.642531 
" clip-path="url(#p8fde466e77)" style="fill: none; stroke-dasharray: 2.96,1.28; stroke-dashoffset: 0; stroke: #b0b0b0; stroke-opacity: 0.6; stroke-width: 0.8"/>
     </g>
     <g id="line2d_20">
      <g>
       <use xlink:href="#m8486f95a45" x="55.950625" y="160.642531" style="stroke: #000000; stroke-width: 0.8"/>
      </g>
     </g>
     <g id="text_11">
      <!-- 0.20 -->
      <g transform="translate(26.685 164.44175) scale(0.1 -0.1)">
       <use xlink:href="#DejaVuSans-30"/>
       <use xlink:href="#DejaVuSans-2e" x="63.623047"/>
       <use xlink:href="#DejaVuSans-32" x="95.410156"/>
       <use xlink:href="#DejaVuSans-30" x="159.033203"/>
      </g>
     </g>
    </g>
    <g id="ytick_6">
     <g id="line2d_21">
      <path d="M 55.950625 105.043164 
L 347.08106 105.043164 
" clip-path="url(#p8fde466e77)" style="fill: none; stroke-dasharray: 2.96,1.28; stroke-dashoffset: 0; stroke: #b0b0b0; stroke-opacity: 0.6; stroke-width: 0.8"/>
     </g>
     <g id="line2d_22">
      <g>
       <use xlink:href="#m8486f95a45" x="55.950625" y="105.043164" style="stroke: #000000; stroke-width: 0.8"/>
      </g>
     </g>
     <g id="text_12">
      <!-- 0.25 -->
      <g transform="translate(26.685 108.842383) scale(0.1 -0.1)">
       <use xlink:href="#DejaVuSans-30"/>
       <use xlink:href="#DejaVuSans-2e" x="63.623047"/>
       <use xlink:href="#DejaVuSans-32" x="95.410156"/>
       <use xlink:href="#DejaVuSans-35" x="159.033203"/>
      </g>
     </g>
    </g>
    <g id="text_13">
     <!-- AUC [millimole * minute / liter] -->
     <g transform="translate(19.3575 355.07875) rotate(-90) scale(0.16 -0.16)">
      <defs>
       <path id="DejaVuSans-Bold-41" d="M 3419 850 
L 1538 850 
L 1241 0 
L 31 0 
L 1759 4666 
L 3194 4666 
L 4922 0 
L 3713 0 
L 3419 850 
z
M 1838 1716 
L 3116 1716 
L 2478 3572 
L 1838 1716 
z
" transform="scale(0.015625)"/>
       <path id="DejaVuSans-Bold-55" d="M 588 4666 
L 1791 4666 
L 1791 1869 
Q 1791 1291 1980 1042 
Q 2169 794 2597 794 
Q 3028 794 3217 1042 
Q 3406 1291 3406 1869 
L 3406 4666 
L 4609 4666 
L 4609 1869 
Q 4609 878 4112 393 
Q 3616 -91 2597 -91 
Q 1581 -91 1084 393 
Q 588 878 588 1869 
L 588 4666 
z
" transform="scale(0.015625)"/>
       <path id="DejaVuSans-Bold-43" d="M 4288 256 
Q 3956 84 3597 -3 
Q 3238 -91 2847 -91 
Q 1681 -91 1000 561 
Q 319 1213 319 2328 
Q 319 3447 1000 4098 
Q 1681 4750 2847 4750 
Q 3238 4750 3597 4662 
Q 3956 4575 4288 4403 
L 4288 3438 
Q 3953 3666 3628 3772 
Q 3303 3878 2944 3878 
Q 2300 3878 1931 3465 
Q 1563 3053 1563 2328 
Q 1563 1606 1931 1193 
Q 2300 781 2944 781 
Q 3303 781 3628 887 
Q 3953 994 4288 1222 
L 4288 256 
z
" transform="scale(0.015625)"/>
       <path id="DejaVuSans-Bold-5b" d="M 550 4863 
L 2491 4863 
L 2491 4159 
L 1613 4159 
L 1613 -141 
L 2491 -141 
L 2491 -844 
L 550 -844 
L 550 4863 
z
" transform="scale(0.015625)"/>
       <path id="DejaVuSans-Bold-6d" d="M 3781 2919 
Q 3994 3244 4286 3414 
Q 4578 3584 4928 3584 
Q 5531 3584 5847 3212 
Q 6163 2841 6163 2131 
L 6163 0 
L 5038 0 
L 5038 1825 
Q 5041 1866 5042 1909 
Q 5044 1953 5044 2034 
Q 5044 2406 4934 2573 
Q 4825 2741 4581 2741 
Q 4263 2741 4089 2478 
Q 3916 2216 3909 1719 
L 3909 0 
L 2784 0 
L 2784 1825 
Q 2784 2406 2684 2573 
Q 2584 2741 2328 2741 
Q 2006 2741 1831 2477 
Q 1656 2213 1656 1722 
L 1656 0 
L 531 0 
L 531 3500 
L 1656 3500 
L 1656 2988 
Q 1863 3284 2130 3434 
Q 2397 3584 2719 3584 
Q 3081 3584 3359 3409 
Q 3638 3234 3781 2919 
z
" transform="scale(0.015625)"/>
       <path id="DejaVuSans-Bold-2a" d="M 3219 3803 
L 2188 3263 
L 3219 2719 
L 2981 2278 
L 1941 2853 
L 1941 1778 
L 1409 1778 
L 1409 2853 
L 366 2278 
L 128 2719 
L 1172 3263 
L 128 3803 
L 366 4244 
L 1409 3675 
L 1409 4750 
L 1941 4750 
L 1941 3675 
L 2981 4244 
L 3219 3803 
z
" transform="scale(0.015625)"/>
       <path id="DejaVuSans-Bold-2f" d="M 1644 4666 
L 2338 4666 
L 691 -594 
L 0 -594 
L 1644 4666 
z
" transform="scale(0.015625)"/>
       <path id="DejaVuSans-Bold-72" d="M 3138 2547 
Q 2991 2616 2845 2648 
Q 2700 2681 2553 2681 
Q 2122 2681 1889 2404 
Q 1656 2128 1656 1613 
L 1656 0 
L 538 0 
L 538 3500 
L 1656 3500 
L 1656 2925 
Q 1872 3269 2151 3426 
Q 2431 3584 2822 3584 
Q 2878 3584 2943 3579 
Q 3009 3575 3134 3559 
L 3138 2547 
z
" transform="scale(0.015625)"/>
       <path id="DejaVuSans-Bold-5d" d="M 2375 -844 
L 434 -844 
L 434 -141 
L 1313 -141 
L 1313 4159 
L 434 4159 
L 434 4863 
L 2375 4863 
L 2375 -844 
z
" transform="scale(0.015625)"/>
      </defs>
      <use xlink:href="#DejaVuSans-Bold-41"/>
      <use xlink:href="#DejaVuSans-Bold-55" x="74.267578"/>
      <use xlink:href="#DejaVuSans-Bold-43" x="155.46875"/>
      <use xlink:href="#DejaVuSans-Bold-20" x="228.857422"/>
      <use xlink:href="#DejaVuSans-Bold-5b" x="263.671875"/>
      <use xlink:href="#DejaVuSans-Bold-6d" x="309.375"/>
      <use xlink:href="#DejaVuSans-Bold-69" x="413.574219"/>
      <use xlink:href="#DejaVuSans-Bold-6c" x="447.851562"/>
      <use xlink:href="#DejaVuSans-Bold-6c" x="482.128906"/>
      <use xlink:href="#DejaVuSans-Bold-69" x="516.40625"/>
      <use xlink:href="#DejaVuSans-Bold-6d" x="550.683594"/>
      <use xlink:href="#DejaVuSans-Bold-6f" x="654.882812"/>
      <use xlink:href="#DejaVuSans-Bold-6c" x="723.583984"/>
      <use xlink:href="#DejaVuSans-Bold-65" x="757.861328"/>
      <use xlink:href="#DejaVuSans-Bold-20" x="825.683594"/>
      <use xlink:href="#DejaVuSans-Bold-2a" x="860.498047"/>
      <use xlink:href="#DejaVuSans-Bold-20" x="912.792969"/>
      <use xlink:href="#DejaVuSans-Bold-6d" x="947.607422"/>
      <use xlink:href="#DejaVuSans-Bold-69" x="1051.806641"/>
      <use xlink:href="#DejaVuSans-Bold-6e" x="1086.083984"/>
      <use xlink:href="#DejaVuSans-Bold-75" x="1157.275391"/>
      <use xlink:href="#DejaVuSans-Bold-74" x="1228.466797"/>
      <use xlink:href="#DejaVuSans-Bold-65" x="1276.269531"/>
      <use xlink:href="#DejaVuSans-Bold-20" x="1344.091797"/>
      <use xlink:href="#DejaVuSans-Bold-2f" x="1378.90625"/>
      <use xlink:href="#DejaVuSans-Bold-20" x="1415.429688"/>
      <use xlink:href="#DejaVuSans-Bold-6c" x="1450.244141"/>
      <use xlink:href="#DejaVuSans-Bold-69" x="1484.521484"/>
      <use xlink:href="#DejaVuSans-Bold-74" x="1518.798828"/>
      <use xlink:href="#DejaVuSans-Bold-65" x="1566.601562"/>
      <use xlink:href="#DejaVuSans-Bold-72" x="1634.423828"/>
      <use xlink:href="#DejaVuSans-Bold-5d" x="1683.740234"/>
     </g>
    </g>
   </g>
   <g id="line2d_23">
    <path d="M 333.847858 383.04 
L 333.847858 50.4 
" clip-path="url(#p8fde466e77)" style="fill: none; stroke-dasharray: 5.55,2.4; stroke-dashoffset: 0; stroke: #808080; stroke-width: 1.5"/>
   </g>
   <g id="line2d_24">
    <path d="M 69.183827 161.28 
L 71.999401 161.28 
L 74.814976 161.28 
L 77.630551 161.28 
L 80.446126 161.28 
L 83.261701 161.28 
L 83.887384 161.28 
L 86.077275 161.28 
L 88.89285 161.28 
L 91.708425 161.28 
L 94.524 161.28 
L 97.339575 161.28 
L 100.155149 161.28 
L 102.970724 161.28 
L 105.786299 161.28 
L 108.601874 161.28 
L 111.417449 161.28 
L 113.294499 161.28 
L 114.233023 161.28 
L 117.048598 161.28 
L 119.864173 161.28 
L 122.679748 161.28 
L 125.495323 161.28 
L 128.310897 161.28 
L 131.126472 161.28 
L 133.942047 161.28 
L 136.757622 161.28 
L 139.573197 161.28 
L 142.388771 161.28 
L 145.204346 161.28 
L 148.019921 161.28 
L 150.835496 161.28 
L 153.651071 161.28 
L 156.466646 161.28 
L 159.28222 161.28 
L 162.097795 161.28 
L 164.91337 161.28 
L 167.728945 161.28 
L 170.54452 161.28 
L 173.360094 161.28 
L 176.175669 161.28 
L 178.991244 161.28 
L 181.806819 161.28 
L 184.622394 161.28 
L 186.812285 161.28 
L 187.437968 161.28 
L 190.253543 161.28 
L 193.069118 161.28 
L 195.884693 161.28 
L 198.700268 161.28 
L 201.515842 161.28 
L 204.331417 161.28 
L 207.146992 161.28 
L 209.962567 161.28 
L 212.778142 161.28 
L 215.593716 161.28 
L 218.409291 161.28 
L 221.224866 161.28 
L 224.040441 161.28 
L 226.856016 161.28 
L 229.67159 161.28 
L 232.487165 161.28 
L 235.30274 161.28 
L 238.118315 161.28 
L 240.93389 161.28 
L 243.749464 161.28 
L 246.565039 161.28 
L 249.380614 161.28 
L 252.196189 161.28 
L 255.011764 161.28 
L 257.827338 161.28 
L 260.330072 161.28 
L 260.642913 161.28 
L 263.458488 161.28 
L 266.274063 161.28 
L 269.089638 161.28 
L 271.905213 161.28 
L 274.720787 161.28 
L 277.536362 161.28 
L 280.351937 161.28 
L 283.167512 161.28 
L 285.983087 161.28 
L 288.798661 161.28 
L 291.614236 161.28 
L 294.429811 161.28 
L 297.245386 161.28 
L 300.060961 161.28 
L 302.876535 161.28 
L 305.69211 161.28 
L 308.507685 161.28 
L 311.32326 161.28 
L 314.138835 161.28 
L 316.954409 161.28 
L 319.769984 161.28 
L 322.585559 161.28 
L 325.401134 161.28 
L 328.216709 161.28 
L 331.032283 161.28 
L 333.847858 161.28 
L 333.847858 161.28 
" clip-path="url(#p8fde466e77)" style="fill: none; stroke: #2ca02c; stroke-width: 2; stroke-linecap: square"/>
   </g>
   <g id="patch_3">
    <path d="M 55.950625 383.04 
L 55.950625 50.4 
" style="fill: none; stroke: #000000; stroke-width: 0.8; stroke-linejoin: miter; stroke-linecap: square"/>
   </g>
   <g id="patch_4">
    <path d="M 347.08106 383.04 
L 347.08106 50.4 
" style="fill: none; stroke: #000000; stroke-width: 0.8; stroke-linejoin: miter; stroke-linecap: square"/>
   </g>
   <g id="patch_5">
    <path d="M 55.950625 383.04 
L 347.08106 383.04 
" style="fill: none; stroke: #000000; stroke-width: 0.8; stroke-linejoin: miter; stroke-linecap: square"/>
   </g>
   <g id="patch_6">
    <path d="M 55.950625 50.4 
L 347.08106 50.4 
" style="fill: none; stroke: #000000; stroke-width: 0.8; stroke-linejoin: miter; stroke-linecap: square"/>
   </g>
   <g id="text_14">
    <!-- AUC -->
    <g transform="translate(180.918499 44.4) scale(0.18 -0.18)">
     <use xlink:href="#DejaVuSans-Bold-41"/>
     <use xlink:href="#DejaVuSans-Bold-55" x="74.267578"/>
     <use xlink:href="#DejaVuSans-Bold-43" x="155.46875"/>
    </g>
   </g>
  </g>
  <g id="axes_2">
   <g id="patch_7">
    <path d="M 405.307147 383.04 
L 696.437582 383.04 
L 696.437582 50.4 
L 405.307147 50.4 
z
" style="fill: #ffffff"/>
   </g>
   <g id="matplotlib.axis_3">
    <g id="xtick_6">
     <g id="line2d_25">
      <path d="M 447.947463 383.04 
L 447.947463 50.4 
" clip-path="url(#p5e18c317cd)" style="fill: none; stroke-dasharray: 2.96,1.28; stroke-dashoffset: 0; stroke: #b0b0b0; stroke-opacity: 0.6; stroke-width: 0.8"/>
     </g>
     <g id="line2d_26">
      <g>
       <use xlink:href="#mdb630e562a" x="447.947463" y="383.04" style="stroke: #000000; stroke-width: 0.8"/>
      </g>
     </g>
     <g id="text_15">
      <!-- 0.2 -->
      <g transform="translate(439.9959 397.638438) scale(0.1 -0.1)">
       <use xlink:href="#DejaVuSans-30"/>
       <use xlink:href="#DejaVuSans-2e" x="63.623047"/>
       <use xlink:href="#DejaVuSans-32" x="95.410156"/>
      </g>
     </g>
    </g>
    <g id="xtick_7">
     <g id="line2d_27">
      <path d="M 506.761692 383.04 
L 506.761692 50.4 
" clip-path="url(#p5e18c317cd)" style="fill: none; stroke-dasharray: 2.96,1.28; stroke-dashoffset: 0; stroke: #b0b0b0; stroke-opacity: 0.6; stroke-width: 0.8"/>
     </g>
     <g id="line2d_28">
      <g>
       <use xlink:href="#mdb630e562a" x="506.761692" y="383.04" style="stroke: #000000; stroke-width: 0.8"/>
      </g>
     </g>
     <g id="text_16">
      <!-- 0.4 -->
      <g transform="translate(498.81013 397.638438) scale(0.1 -0.1)">
       <use xlink:href="#DejaVuSans-30"/>
       <use xlink:href="#DejaVuSans-2e" x="63.623047"/>
       <use xlink:href="#DejaVuSans-34" x="95.410156"/>
      </g>
     </g>
    </g>
    <g id="xtick_8">
     <g id="line2d_29">
      <path d="M 565.575921 383.04 
L 565.575921 50.4 
" clip-path="url(#p5e18c317cd)" style="fill: none; stroke-dasharray: 2.96,1.28; stroke-dashoffset: 0; stroke: #b0b0b0; stroke-opacity: 0.6; stroke-width: 0.8"/>
     </g>
     <g id="line2d_30">
      <g>
       <use xlink:href="#mdb630e562a" x="565.575921" y="383.04" style="stroke: #000000; stroke-width: 0.8"/>
      </g>
     </g>
     <g id="text_17">
      <!-- 0.6 -->
      <g transform="translate(557.624359 397.638438) scale(0.1 -0.1)">
       <use xlink:href="#DejaVuSans-30"/>
       <use xlink:href="#DejaVuSans-2e" x="63.623047"/>
       <use xlink:href="#DejaVuSans-36" x="95.410156"/>
      </g>
     </g>
    </g>
    <g id="xtick_9">
     <g id="line2d_31">
      <path d="M 624.390151 383.04 
L 624.390151 50.4 
" clip-path="url(#p5e18c317cd)" style="fill: none; stroke-dasharray: 2.96,1.28; stroke-dashoffset: 0; stroke: #b0b0b0; stroke-opacity: 0.6; stroke-width: 0.8"/>
     </g>
     <g id="line2d_32">
      <g>
       <use xlink:href="#mdb630e562a" x="624.390151" y="383.04" style="stroke: #000000; stroke-width: 0.8"/>
      </g>
     </g>
     <g id="text_18">
      <!-- 0.8 -->
      <g transform="translate(616.438588 397.638438) scale(0.1 -0.1)">
       <use xlink:href="#DejaVuSans-30"/>
       <use xlink:href="#DejaVuSans-2e" x="63.623047"/>
       <use xlink:href="#DejaVuSans-38" x="95.410156"/>
      </g>
     </g>
    </g>
    <g id="xtick_10">
     <g id="line2d_33">
      <path d="M 683.20438 383.04 
L 683.20438 50.4 
" clip-path="url(#p5e18c317cd)" style="fill: none; stroke-dasharray: 2.96,1.28; stroke-dashoffset: 0; stroke: #b0b0b0; stroke-opacity: 0.6; stroke-width: 0.8"/>
     </g>
     <g id="line2d_34">
      <g>
       <use xlink:href="#mdb630e562a" x="683.20438" y="383.04" style="stroke: #000000; stroke-width: 0.8"/>
      </g>
     </g>
     <g id="text_19">
      <!-- 1.0 -->
      <g transform="translate(675.252817 397.638438) scale(0.1 -0.1)">
       <use xlink:href="#DejaVuSans-31"/>
       <use xlink:href="#DejaVuSans-2e" x="63.623047"/>
       <use xlink:href="#DejaVuSans-30" x="95.410156"/>
      </g>
     </g>
    </g>
    <g id="text_20">
     <!-- Renal function -->
     <g transform="translate(485.294864 415.875625) scale(0.16 -0.16)">
      <use xlink:href="#DejaVuSans-Bold-52"/>
      <use xlink:href="#DejaVuSans-Bold-65" x="77.001953"/>
      <use xlink:href="#DejaVuSans-Bold-6e" x="144.824219"/>
      <use xlink:href="#DejaVuSans-Bold-61" x="216.015625"/>
      <use xlink:href="#DejaVuSans-Bold-6c" x="283.496094"/>
      <use xlink:href="#DejaVuSans-Bold-20" x="317.773438"/>
      <use xlink:href="#DejaVuSans-Bold-66" x="352.587891"/>
      <use xlink:href="#DejaVuSans-Bold-75" x="396.09375"/>
      <use xlink:href="#DejaVuSans-Bold-6e" x="467.285156"/>
      <use xlink:href="#DejaVuSans-Bold-63" x="538.476562"/>
      <use xlink:href="#DejaVuSans-Bold-74" x="597.753906"/>
      <use xlink:href="#DejaVuSans-Bold-69" x="645.556641"/>
      <use xlink:href="#DejaVuSans-Bold-6f" x="679.833984"/>
      <use xlink:href="#DejaVuSans-Bold-6e" x="748.535156"/>
     </g>
    </g>
   </g>
   <g id="matplotlib.axis_4">
    <g id="ytick_7">
     <g id="line2d_35">
      <path d="M 405.307147 383.04 
L 696.437582 383.04 
" clip-path="url(#p5e18c317cd)" style="fill: none; stroke-dasharray: 2.96,1.28; stroke-dashoffset: 0; stroke: #b0b0b0; stroke-opacity: 0.6; stroke-width: 0.8"/>
     </g>
     <g id="line2d_36">
      <g>
       <use xlink:href="#m8486f95a45" x="405.307147" y="383.04" style="stroke: #000000; stroke-width: 0.8"/>
      </g>
     </g>
     <g id="text_21">
      <!-- 0 -->
      <g transform="translate(391.944647 386.839219) scale(0.1 -0.1)">
       <use xlink:href="#DejaVuSans-30"/>
      </g>
     </g>
    </g>
    <g id="ytick_8">
     <g id="line2d_37">
      <path d="M 405.307147 342.169512 
L 696.437582 342.169512 
" clip-path="url(#p5e18c317cd)" style="fill: none; stroke-dasharray: 2.96,1.28; stroke-dashoffset: 0; stroke: #b0b0b0; stroke-opacity: 0.6; stroke-width: 0.8"/>
     </g>
     <g id="line2d_38">
      <g>
       <use xlink:href="#m8486f95a45" x="405.307147" y="342.169512" style="stroke: #000000; stroke-width: 0.8"/>
      </g>
     </g>
     <g id="text_22">
      <!-- 25 -->
      <g transform="translate(385.582147 345.96873) scale(0.1 -0.1)">
       <use xlink:href="#DejaVuSans-32"/>
       <use xlink:href="#DejaVuSans-35" x="63.623047"/>
      </g>
     </g>
    </g>
    <g id="ytick_9">
     <g id="line2d_39">
      <path d="M 405.307147 301.299023 
L 696.437582 301.299023 
" clip-path="url(#p5e18c317cd)" style="fill: none; stroke-dasharray: 2.96,1.28; stroke-dashoffset: 0; stroke: #b0b0b0; stroke-opacity: 0.6; stroke-width: 0.8"/>
     </g>
     <g id="line2d_40">
      <g>
       <use xlink:href="#m8486f95a45" x="405.307147" y="301.299023" style="stroke: #000000; stroke-width: 0.8"/>
      </g>
     </g>
     <g id="text_23">
      <!-- 50 -->
      <g transform="translate(385.582147 305.098242) scale(0.1 -0.1)">
       <use xlink:href="#DejaVuSans-35"/>
       <use xlink:href="#DejaVuSans-30" x="63.623047"/>
      </g>
     </g>
    </g>
    <g id="ytick_10">
     <g id="line2d_41">
      <path d="M 405.307147 260.428535 
L 696.437582 260.428535 
" clip-path="url(#p5e18c317cd)" style="fill: none; stroke-dasharray: 2.96,1.28; stroke-dashoffset: 0; stroke: #b0b0b0; stroke-opacity: 0.6; stroke-width: 0.8"/>
     </g>
     <g id="line2d_42">
      <g>
       <use xlink:href="#m8486f95a45" x="405.307147" y="260.428535" style="stroke: #000000; stroke-width: 0.8"/>
      </g>
     </g>
     <g id="text_24">
      <!-- 75 -->
      <g transform="translate(385.582147 264.227754) scale(0.1 -0.1)">
       <defs>
        <path id="DejaVuSans-37" d="M 525 4666 
L 3525 4666 
L 3525 4397 
L 1831 0 
L 1172 0 
L 2766 4134 
L 525 4134 
L 525 4666 
z
" transform="scale(0.015625)"/>
       </defs>
       <use xlink:href="#DejaVuSans-37"/>
       <use xlink:href="#DejaVuSans-35" x="63.623047"/>
      </g>
     </g>
    </g>
    <g id="ytick_11">
     <g id="line2d_43">
      <path d="M 405.307147 219.558047 
L 696.437582 219.558047 
" clip-path="url(#p5e18c317cd)" style="fill: none; stroke-dasharray: 2.96,1.28; stroke-dashoffset: 0; stroke: #b0b0b0; stroke-opacity: 0.6; stroke-width: 0.8"/>
     </g>
     <g id="line2d_44">
      <g>
       <use xlink:href="#m8486f95a45" x="405.307147" y="219.558047" style="stroke: #000000; stroke-width: 0.8"/>
      </g>
     </g>
     <g id="text_25">
      <!-- 100 -->
      <g transform="translate(379.219647 223.357265) scale(0.1 -0.1)">
       <use xlink:href="#DejaVuSans-31"/>
       <use xlink:href="#DejaVuSans-30" x="63.623047"/>
       <use xlink:href="#DejaVuSans-30" x="127.246094"/>
      </g>
     </g>
    </g>
    <g id="ytick_12">
     <g id="line2d_45">
      <path d="M 405.307147 178.687558 
L 696.437582 178.687558 
" clip-path="url(#p5e18c317cd)" style="fill: none; stroke-dasharray: 2.96,1.28; stroke-dashoffset: 0; stroke: #b0b0b0; stroke-opacity: 0.6; stroke-width: 0.8"/>
     </g>
     <g id="line2d_46">
      <g>
       <use xlink:href="#m8486f95a45" x="405.307147" y="178.687558" style="stroke: #000000; stroke-width: 0.8"/>
      </g>
     </g>
     <g id="text_26">
      <!-- 125 -->
      <g transform="translate(379.219647 182.486777) scale(0.1 -0.1)">
       <use xlink:href="#DejaVuSans-31"/>
       <use xlink:href="#DejaVuSans-32" x="63.623047"/>
       <use xlink:href="#DejaVuSans-35" x="127.246094"/>
      </g>
     </g>
    </g>
    <g id="ytick_13">
     <g id="line2d_47">
      <path d="M 405.307147 137.81707 
L 696.437582 137.81707 
" clip-path="url(#p5e18c317cd)" style="fill: none; stroke-dasharray: 2.96,1.28; stroke-dashoffset: 0; stroke: #b0b0b0; stroke-opacity: 0.6; stroke-width: 0.8"/>
     </g>
     <g id="line2d_48">
      <g>
       <use xlink:href="#m8486f95a45" x="405.307147" y="137.81707" style="stroke: #000000; stroke-width: 0.8"/>
      </g>
     </g>
     <g id="text_27">
      <!-- 150 -->
      <g transform="translate(379.219647 141.616289) scale(0.1 -0.1)">
       <use xlink:href="#DejaVuSans-31"/>
       <use xlink:href="#DejaVuSans-35" x="63.623047"/>
       <use xlink:href="#DejaVuSans-30" x="127.246094"/>
      </g>
     </g>
    </g>
    <g id="ytick_14">
     <g id="line2d_49">
      <path d="M 405.307147 96.946582 
L 696.437582 96.946582 
" clip-path="url(#p5e18c317cd)" style="fill: none; stroke-dasharray: 2.96,1.28; stroke-dashoffset: 0; stroke: #b0b0b0; stroke-opacity: 0.6; stroke-width: 0.8"/>
     </g>
     <g id="line2d_50">
      <g>
       <use xlink:href="#m8486f95a45" x="405.307147" y="96.946582" style="stroke: #000000; stroke-width: 0.8"/>
      </g>
     </g>
     <g id="text_28">
      <!-- 175 -->
      <g transform="translate(379.219647 100.7458) scale(0.1 -0.1)">
       <use xlink:href="#DejaVuSans-31"/>
       <use xlink:href="#DejaVuSans-37" x="63.623047"/>
       <use xlink:href="#DejaVuSans-35" x="127.246094"/>
      </g>
     </g>
    </g>
    <g id="ytick_15">
     <g id="line2d_51">
      <path d="M 405.307147 56.076093 
L 696.437582 56.076093 
" clip-path="url(#p5e18c317cd)" style="fill: none; stroke-dasharray: 2.96,1.28; stroke-dashoffset: 0; stroke: #b0b0b0; stroke-opacity: 0.6; stroke-width: 0.8"/>
     </g>
     <g id="line2d_52">
      <g>
       <use xlink:href="#m8486f95a45" x="405.307147" y="56.076093" style="stroke: #000000; stroke-width: 0.8"/>
      </g>
     </g>
     <g id="text_29">
      <!-- 200 -->
      <g transform="translate(379.219647 59.875312) scale(0.1 -0.1)">
       <use xlink:href="#DejaVuSans-32"/>
       <use xlink:href="#DejaVuSans-30" x="63.623047"/>
       <use xlink:href="#DejaVuSans-30" x="127.246094"/>
      </g>
     </g>
    </g>
    <g id="text_30">
     <!-- Tmax [minute] -->
     <g transform="translate(371.892147 282.88875) rotate(-90) scale(0.16 -0.16)">
      <defs>
       <path id="DejaVuSans-Bold-54" d="M 31 4666 
L 4331 4666 
L 4331 3756 
L 2784 3756 
L 2784 0 
L 1581 0 
L 1581 3756 
L 31 3756 
L 31 4666 
z
" transform="scale(0.015625)"/>
       <path id="DejaVuSans-Bold-78" d="M 1422 1791 
L 159 3500 
L 1344 3500 
L 2059 2463 
L 2784 3500 
L 3969 3500 
L 2706 1797 
L 4031 0 
L 2847 0 
L 2059 1106 
L 1281 0 
L 97 0 
L 1422 1791 
z
" transform="scale(0.015625)"/>
      </defs>
      <use xlink:href="#DejaVuSans-Bold-54"/>
      <use xlink:href="#DejaVuSans-Bold-6d" x="68.212891"/>
      <use xlink:href="#DejaVuSans-Bold-61" x="172.412109"/>
      <use xlink:href="#DejaVuSans-Bold-78" x="239.892578"/>
      <use xlink:href="#DejaVuSans-Bold-20" x="304.394531"/>
      <use xlink:href="#DejaVuSans-Bold-5b" x="339.208984"/>
      <use xlink:href="#DejaVuSans-Bold-6d" x="384.912109"/>
      <use xlink:href="#DejaVuSans-Bold-69" x="489.111328"/>
      <use xlink:href="#DejaVuSans-Bold-6e" x="523.388672"/>
      <use xlink:href="#DejaVuSans-Bold-75" x="594.580078"/>
      <use xlink:href="#DejaVuSans-Bold-74" x="665.771484"/>
      <use xlink:href="#DejaVuSans-Bold-65" x="713.574219"/>
      <use xlink:href="#DejaVuSans-Bold-5d" x="781.396484"/>
     </g>
    </g>
   </g>
   <g id="line2d_53">
    <path d="M 683.20438 383.04 
L 683.20438 50.4 
" clip-path="url(#p5e18c317cd)" style="fill: none; stroke-dasharray: 5.55,2.4; stroke-dashoffset: 0; stroke: #808080; stroke-width: 1.5"/>
   </g>
   <g id="line2d_54">
    <path d="M 418.540348 161.28 
L 421.355923 161.28 
L 424.171498 161.28 
L 426.987073 161.28 
L 429.802648 161.28 
L 432.618222 161.28 
L 433.243906 161.28 
L 435.433797 161.28 
L 438.249372 161.28 
L 441.064947 161.28 
L 443.880522 161.28 
L 446.696096 161.28 
L 449.511671 161.28 
L 452.327246 161.28 
L 455.142821 161.28 
L 457.958396 161.28 
L 460.77397 161.28 
L 462.65102 161.28 
L 463.589545 161.28 
L 466.40512 161.28 
L 469.220695 161.28 
L 472.03627 161.28 
L 474.851844 161.28 
L 477.667419 161.28 
L 480.482994 161.28 
L 483.298569 161.28 
L 486.114144 161.28 
L 488.929718 161.28 
L 491.745293 161.28 
L 494.560868 161.28 
L 497.376443 161.28 
L 500.192018 161.28 
L 503.007592 161.28 
L 505.823167 161.28 
L 508.638742 161.28 
L 511.454317 161.28 
L 514.269892 161.28 
L 517.085466 161.28 
L 519.901041 161.28 
L 522.716616 161.28 
L 525.532191 161.28 
L 528.347766 161.28 
L 531.16334 161.28 
L 533.978915 161.28 
L 536.168807 161.28 
L 536.79449 161.28 
L 539.610065 161.28 
L 542.42564 161.28 
L 545.241215 161.28 
L 548.056789 161.28 
L 550.872364 161.28 
L 553.687939 161.28 
L 556.503514 161.28 
L 559.319089 161.28 
L 562.134663 161.28 
L 564.950238 161.28 
L 567.765813 161.28 
L 570.581388 161.28 
L 573.396963 161.28 
L 576.212537 161.28 
L 579.028112 161.28 
L 581.843687 161.28 
L 584.659262 161.28 
L 587.474837 161.28 
L 590.290411 161.28 
L 593.105986 161.28 
L 595.921561 161.28 
L 598.737136 161.28 
L 601.552711 161.28 
L 604.368285 161.28 
L 607.18386 161.28 
L 609.686593 161.28 
L 609.999435 161.28 
L 612.81501 161.28 
L 615.630585 161.28 
L 618.446159 161.28 
L 621.261734 161.28 
L 624.077309 161.28 
L 626.892884 161.28 
L 629.708459 161.28 
L 632.524033 161.28 
L 635.339608 161.28 
L 638.155183 161.28 
L 640.970758 161.28 
L 643.786333 161.28 
L 646.601907 161.28 
L 649.417482 161.28 
L 652.233057 161.28 
L 655.048632 161.28 
L 657.864207 161.28 
L 660.679782 161.28 
L 663.495356 161.28 
L 666.310931 161.28 
L 669.126506 161.28 
L 671.942081 161.28 
L 674.757656 161.28 
L 677.57323 161.28 
L 680.388805 161.28 
L 683.20438 161.28 
L 683.20438 161.28 
" clip-path="url(#p5e18c317cd)" style="fill: none; stroke: #2ca02c; stroke-width: 2; stroke-linecap: square"/>
   </g>
   <g id="patch_8">
    <path d="M 405.307147 383.04 
L 405.307147 50.4 
" style="fill: none; stroke: #000000; stroke-width: 0.8; stroke-linejoin: miter; stroke-linecap: square"/>
   </g>
   <g id="patch_9">
    <path d="M 696.437582 383.04 
L 696.437582 50.4 
" style="fill: none; stroke: #000000; stroke-width: 0.8; stroke-linejoin: miter; stroke-linecap: square"/>
   </g>
   <g id="patch_10">
    <path d="M 405.307147 383.04 
L 696.437582 383.04 
" style="fill: none; stroke: #000000; stroke-width: 0.8; stroke-linejoin: miter; stroke-linecap: square"/>
   </g>
   <g id="patch_11">
    <path d="M 405.307147 50.4 
L 696.437582 50.4 
" style="fill: none; stroke: #000000; stroke-width: 0.8; stroke-linejoin: miter; stroke-linecap: square"/>
   </g>
   <g id="text_31">
    <!-- Tmax -->
    <g transform="translate(523.475802 44.4) scale(0.18 -0.18)">
     <use xlink:href="#DejaVuSans-Bold-54"/>
     <use xlink:href="#DejaVuSans-Bold-6d" x="68.212891"/>
     <use xlink:href="#DejaVuSans-Bold-61" x="172.412109"/>
     <use xlink:href="#DejaVuSans-Bold-78" x="239.892578"/>
    </g>
   </g>
  </g>
  <g id="axes_3">
   <g id="patch_12">
    <path d="M 754.663668 383.04 
L 1045.794103 383.04 
L 1045.794103 50.4 
L 754.663668 50.4 
z
" style="fill: #ffffff"/>
   </g>
   <g id="matplotlib.axis_5">
    <g id="xtick_11">
     <g id="line2d_55">
      <path d="M 797.303985 383.04 
L 797.303985 50.4 
" clip-path="url(#p7b80950f0d)" style="fill: none; stroke-dasharray: 2.96,1.28; stroke-dashoffset: 0; stroke: #b0b0b0; stroke-opacity: 0.6; stroke-width: 0.8"/>
     </g>
     <g id="line2d_56">
      <g>
       <use xlink:href="#mdb630e562a" x="797.303985" y="383.04" style="stroke: #000000; stroke-width: 0.8"/>
      </g>
     </g>
     <g id="text_32">
      <!-- 0.2 -->
      <g transform="translate(789.352422 397.638438) scale(0.1 -0.1)">
       <use xlink:href="#DejaVuSans-30"/>
       <use xlink:href="#DejaVuSans-2e" x="63.623047"/>
       <use xlink:href="#DejaVuSans-32" x="95.410156"/>
      </g>
     </g>
    </g>
    <g id="xtick_12">
     <g id="line2d_57">
      <path d="M 856.118214 383.04 
L 856.118214 50.4 
" clip-path="url(#p7b80950f0d)" style="fill: none; stroke-dasharray: 2.96,1.28; stroke-dashoffset: 0; stroke: #b0b0b0; stroke-opacity: 0.6; stroke-width: 0.8"/>
     </g>
     <g id="line2d_58">
      <g>
       <use xlink:href="#mdb630e562a" x="856.118214" y="383.04" style="stroke: #000000; stroke-width: 0.8"/>
      </g>
     </g>
     <g id="text_33">
      <!-- 0.4 -->
      <g transform="translate(848.166651 397.638438) scale(0.1 -0.1)">
       <use xlink:href="#DejaVuSans-30"/>
       <use xlink:href="#DejaVuSans-2e" x="63.623047"/>
       <use xlink:href="#DejaVuSans-34" x="95.410156"/>
      </g>
     </g>
    </g>
    <g id="xtick_13">
     <g id="line2d_59">
      <path d="M 914.932443 383.04 
L 914.932443 50.4 
" clip-path="url(#p7b80950f0d)" style="fill: none; stroke-dasharray: 2.96,1.28; stroke-dashoffset: 0; stroke: #b0b0b0; stroke-opacity: 0.6; stroke-width: 0.8"/>
     </g>
     <g id="line2d_60">
      <g>
       <use xlink:href="#mdb630e562a" x="914.932443" y="383.04" style="stroke: #000000; stroke-width: 0.8"/>
      </g>
     </g>
     <g id="text_34">
      <!-- 0.6 -->
      <g transform="translate(906.980881 397.638438) scale(0.1 -0.1)">
       <use xlink:href="#DejaVuSans-30"/>
       <use xlink:href="#DejaVuSans-2e" x="63.623047"/>
       <use xlink:href="#DejaVuSans-36" x="95.410156"/>
      </g>
     </g>
    </g>
    <g id="xtick_14">
     <g id="line2d_61">
      <path d="M 973.746672 383.04 
L 973.746672 50.4 
" clip-path="url(#p7b80950f0d)" style="fill: none; stroke-dasharray: 2.96,1.28; stroke-dashoffset: 0; stroke: #b0b0b0; stroke-opacity: 0.6; stroke-width: 0.8"/>
     </g>
     <g id="line2d_62">
      <g>
       <use xlink:href="#mdb630e562a" x="973.746672" y="383.04" style="stroke: #000000; stroke-width: 0.8"/>
      </g>
     </g>
     <g id="text_35">
      <!-- 0.8 -->
      <g transform="translate(965.79511 397.638438) scale(0.1 -0.1)">
       <use xlink:href="#DejaVuSans-30"/>
       <use xlink:href="#DejaVuSans-2e" x="63.623047"/>
       <use xlink:href="#DejaVuSans-38" x="95.410156"/>
      </g>
     </g>
    </g>
    <g id="xtick_15">
     <g id="line2d_63">
      <path d="M 1032.560902 383.04 
L 1032.560902 50.4 
" clip-path="url(#p7b80950f0d)" style="fill: none; stroke-dasharray: 2.96,1.28; stroke-dashoffset: 0; stroke: #b0b0b0; stroke-opacity: 0.6; stroke-width: 0.8"/>
     </g>
     <g id="line2d_64">
      <g>
       <use xlink:href="#mdb630e562a" x="1032.560902" y="383.04" style="stroke: #000000; stroke-width: 0.8"/>
      </g>
     </g>
     <g id="text_36">
      <!-- 1.0 -->
      <g transform="translate(1024.609339 397.638438) scale(0.1 -0.1)">
       <use xlink:href="#DejaVuSans-31"/>
       <use xlink:href="#DejaVuSans-2e" x="63.623047"/>
       <use xlink:href="#DejaVuSans-30" x="95.410156"/>
      </g>
     </g>
    </g>
    <g id="text_37">
     <!-- Renal function -->
     <g transform="translate(834.651386 415.875625) scale(0.16 -0.16)">
      <use xlink:href="#DejaVuSans-Bold-52"/>
      <use xlink:href="#DejaVuSans-Bold-65" x="77.001953"/>
      <use xlink:href="#DejaVuSans-Bold-6e" x="144.824219"/>
      <use xlink:href="#DejaVuSans-Bold-61" x="216.015625"/>
      <use xlink:href="#DejaVuSans-Bold-6c" x="283.496094"/>
      <use xlink:href="#DejaVuSans-Bold-20" x="317.773438"/>
      <use xlink:href="#DejaVuSans-Bold-66" x="352.587891"/>
      <use xlink:href="#DejaVuSans-Bold-75" x="396.09375"/>
      <use xlink:href="#DejaVuSans-Bold-6e" x="467.285156"/>
      <use xlink:href="#DejaVuSans-Bold-63" x="538.476562"/>
      <use xlink:href="#DejaVuSans-Bold-74" x="597.753906"/>
      <use xlink:href="#DejaVuSans-Bold-69" x="645.556641"/>
      <use xlink:href="#DejaVuSans-Bold-6f" x="679.833984"/>
      <use xlink:href="#DejaVuSans-Bold-6e" x="748.535156"/>
     </g>
    </g>
   </g>
   <g id="matplotlib.axis_6">
    <g id="ytick_16">
     <g id="line2d_65">
      <path d="M 754.663668 383.04 
L 1045.794103 383.04 
" clip-path="url(#p7b80950f0d)" style="fill: none; stroke-dasharray: 2.96,1.28; stroke-dashoffset: 0; stroke: #b0b0b0; stroke-opacity: 0.6; stroke-width: 0.8"/>
     </g>
     <g id="line2d_66">
      <g>
       <use xlink:href="#m8486f95a45" x="754.663668" y="383.04" style="stroke: #000000; stroke-width: 0.8"/>
      </g>
     </g>
     <g id="text_38">
      <!-- 0 -->
      <g transform="translate(741.301168 386.839219) scale(0.1 -0.1)">
       <use xlink:href="#DejaVuSans-30"/>
      </g>
     </g>
    </g>
    <g id="ytick_17">
     <g id="line2d_67">
      <path d="M 754.663668 331.124614 
L 1045.794103 331.124614 
" clip-path="url(#p7b80950f0d)" style="fill: none; stroke-dasharray: 2.96,1.28; stroke-dashoffset: 0; stroke: #b0b0b0; stroke-opacity: 0.6; stroke-width: 0.8"/>
     </g>
     <g id="line2d_68">
      <g>
       <use xlink:href="#m8486f95a45" x="754.663668" y="331.124614" style="stroke: #000000; stroke-width: 0.8"/>
      </g>
     </g>
     <g id="text_39">
      <!-- 50 -->
      <g transform="translate(734.938668 334.923832) scale(0.1 -0.1)">
       <use xlink:href="#DejaVuSans-35"/>
       <use xlink:href="#DejaVuSans-30" x="63.623047"/>
      </g>
     </g>
    </g>
    <g id="ytick_18">
     <g id="line2d_69">
      <path d="M 754.663668 279.209227 
L 1045.794103 279.209227 
" clip-path="url(#p7b80950f0d)" style="fill: none; stroke-dasharray: 2.96,1.28; stroke-dashoffset: 0; stroke: #b0b0b0; stroke-opacity: 0.6; stroke-width: 0.8"/>
     </g>
     <g id="line2d_70">
      <g>
       <use xlink:href="#m8486f95a45" x="754.663668" y="279.209227" style="stroke: #000000; stroke-width: 0.8"/>
      </g>
     </g>
     <g id="text_40">
      <!-- 100 -->
      <g transform="translate(728.576168 283.008446) scale(0.1 -0.1)">
       <use xlink:href="#DejaVuSans-31"/>
       <use xlink:href="#DejaVuSans-30" x="63.623047"/>
       <use xlink:href="#DejaVuSans-30" x="127.246094"/>
      </g>
     </g>
    </g>
    <g id="ytick_19">
     <g id="line2d_71">
      <path d="M 754.663668 227.293841 
L 1045.794103 227.293841 
" clip-path="url(#p7b80950f0d)" style="fill: none; stroke-dasharray: 2.96,1.28; stroke-dashoffset: 0; stroke: #b0b0b0; stroke-opacity: 0.6; stroke-width: 0.8"/>
     </g>
     <g id="line2d_72">
      <g>
       <use xlink:href="#m8486f95a45" x="754.663668" y="227.293841" style="stroke: #000000; stroke-width: 0.8"/>
      </g>
     </g>
     <g id="text_41">
      <!-- 150 -->
      <g transform="translate(728.576168 231.09306) scale(0.1 -0.1)">
       <use xlink:href="#DejaVuSans-31"/>
       <use xlink:href="#DejaVuSans-35" x="63.623047"/>
       <use xlink:href="#DejaVuSans-30" x="127.246094"/>
      </g>
     </g>
    </g>
    <g id="ytick_20">
     <g id="line2d_73">
      <path d="M 754.663668 175.378455 
L 1045.794103 175.378455 
" clip-path="url(#p7b80950f0d)" style="fill: none; stroke-dasharray: 2.96,1.28; stroke-dashoffset: 0; stroke: #b0b0b0; stroke-opacity: 0.6; stroke-width: 0.8"/>
     </g>
     <g id="line2d_74">
      <g>
       <use xlink:href="#m8486f95a45" x="754.663668" y="175.378455" style="stroke: #000000; stroke-width: 0.8"/>
      </g>
     </g>
     <g id="text_42">
      <!-- 200 -->
      <g transform="translate(728.576168 179.177674) scale(0.1 -0.1)">
       <use xlink:href="#DejaVuSans-32"/>
       <use xlink:href="#DejaVuSans-30" x="63.623047"/>
       <use xlink:href="#DejaVuSans-30" x="127.246094"/>
      </g>
     </g>
    </g>
    <g id="ytick_21">
     <g id="line2d_75">
      <path d="M 754.663668 123.463068 
L 1045.794103 123.463068 
" clip-path="url(#p7b80950f0d)" style="fill: none; stroke-dasharray: 2.96,1.28; stroke-dashoffset: 0; stroke: #b0b0b0; stroke-opacity: 0.6; stroke-width: 0.8"/>
     </g>
     <g id="line2d_76">
      <g>
       <use xlink:href="#m8486f95a45" x="754.663668" y="123.463068" style="stroke: #000000; stroke-width: 0.8"/>
      </g>
     </g>
     <g id="text_43">
      <!-- 250 -->
      <g transform="translate(728.576168 127.262287) scale(0.1 -0.1)">
       <use xlink:href="#DejaVuSans-32"/>
       <use xlink:href="#DejaVuSans-35" x="63.623047"/>
       <use xlink:href="#DejaVuSans-30" x="127.246094"/>
      </g>
     </g>
    </g>
    <g id="ytick_22">
     <g id="line2d_77">
      <path d="M 754.663668 71.547682 
L 1045.794103 71.547682 
" clip-path="url(#p7b80950f0d)" style="fill: none; stroke-dasharray: 2.96,1.28; stroke-dashoffset: 0; stroke: #b0b0b0; stroke-opacity: 0.6; stroke-width: 0.8"/>
     </g>
     <g id="line2d_78">
      <g>
       <use xlink:href="#m8486f95a45" x="754.663668" y="71.547682" style="stroke: #000000; stroke-width: 0.8"/>
      </g>
     </g>
     <g id="text_44">
      <!-- 300 -->
      <g transform="translate(728.576168 75.346901) scale(0.1 -0.1)">
       <defs>
        <path id="DejaVuSans-33" d="M 2597 2516 
Q 3050 2419 3304 2112 
Q 3559 1806 3559 1356 
Q 3559 666 3084 287 
Q 2609 -91 1734 -91 
Q 1441 -91 1130 -33 
Q 819 25 488 141 
L 488 750 
Q 750 597 1062 519 
Q 1375 441 1716 441 
Q 2309 441 2620 675 
Q 2931 909 2931 1356 
Q 2931 1769 2642 2001 
Q 2353 2234 1838 2234 
L 1294 2234 
L 1294 2753 
L 1863 2753 
Q 2328 2753 2575 2939 
Q 2822 3125 2822 3475 
Q 2822 3834 2567 4026 
Q 2313 4219 1838 4219 
Q 1578 4219 1281 4162 
Q 984 4106 628 3988 
L 628 4550 
Q 988 4650 1302 4700 
Q 1616 4750 1894 4750 
Q 2613 4750 3031 4423 
Q 3450 4097 3450 3541 
Q 3450 3153 3228 2886 
Q 3006 2619 2597 2516 
z
" transform="scale(0.015625)"/>
       </defs>
       <use xlink:href="#DejaVuSans-33"/>
       <use xlink:href="#DejaVuSans-30" x="63.623047"/>
       <use xlink:href="#DejaVuSans-30" x="127.246094"/>
      </g>
     </g>
    </g>
    <g id="text_45">
     <!-- Thalf [minute] -->
     <g transform="translate(721.248668 281.31) rotate(-90) scale(0.16 -0.16)">
      <defs>
       <path id="DejaVuSans-Bold-68" d="M 4056 2131 
L 4056 0 
L 2931 0 
L 2931 347 
L 2931 1625 
Q 2931 2084 2911 2256 
Q 2891 2428 2841 2509 
Q 2775 2619 2662 2680 
Q 2550 2741 2406 2741 
Q 2056 2741 1856 2470 
Q 1656 2200 1656 1722 
L 1656 0 
L 538 0 
L 538 4863 
L 1656 4863 
L 1656 2988 
Q 1909 3294 2193 3439 
Q 2478 3584 2822 3584 
Q 3428 3584 3742 3212 
Q 4056 2841 4056 2131 
z
" transform="scale(0.015625)"/>
      </defs>
      <use xlink:href="#DejaVuSans-Bold-54"/>
      <use xlink:href="#DejaVuSans-Bold-68" x="68.212891"/>
      <use xlink:href="#DejaVuSans-Bold-61" x="139.404297"/>
      <use xlink:href="#DejaVuSans-Bold-6c" x="206.884766"/>
      <use xlink:href="#DejaVuSans-Bold-66" x="241.162109"/>
      <use xlink:href="#DejaVuSans-Bold-20" x="284.667969"/>
      <use xlink:href="#DejaVuSans-Bold-5b" x="319.482422"/>
      <use xlink:href="#DejaVuSans-Bold-6d" x="365.185547"/>
      <use xlink:href="#DejaVuSans-Bold-69" x="469.384766"/>
      <use xlink:href="#DejaVuSans-Bold-6e" x="503.662109"/>
      <use xlink:href="#DejaVuSans-Bold-75" x="574.853516"/>
      <use xlink:href="#DejaVuSans-Bold-74" x="646.044922"/>
      <use xlink:href="#DejaVuSans-Bold-65" x="693.847656"/>
      <use xlink:href="#DejaVuSans-Bold-5d" x="761.669922"/>
     </g>
    </g>
   </g>
   <g id="line2d_79">
    <path d="M 1032.560902 383.04 
L 1032.560902 50.4 
" clip-path="url(#p7b80950f0d)" style="fill: none; stroke-dasharray: 5.55,2.4; stroke-dashoffset: 0; stroke: #808080; stroke-width: 1.5"/>
   </g>
   <g id="line2d_80">
    <path d="M 767.89687 161.28 
L 770.712445 161.28 
L 773.52802 161.28 
L 776.343594 161.28 
L 779.159169 161.28 
L 781.974744 161.28 
L 782.600427 161.28 
L 784.790319 161.28 
L 787.605894 161.28 
L 790.421468 161.28 
L 793.237043 161.28 
L 796.052618 161.28 
L 798.868193 161.28 
L 801.683768 161.28 
L 804.499343 161.28 
L 807.314917 161.28 
L 810.130492 161.28 
L 812.007542 161.28 
L 812.946067 161.28 
L 815.761642 161.28 
L 818.577217 161.28 
L 821.392791 161.28 
L 824.208366 161.28 
L 827.023941 161.28 
L 829.839516 161.28 
L 832.655091 161.28 
L 835.470665 161.28 
L 838.28624 161.28 
L 841.101815 161.28 
L 843.91739 161.28 
L 846.732965 161.28 
L 849.548539 161.28 
L 852.364114 161.28 
L 855.179689 161.28 
L 857.995264 161.28 
L 860.810839 161.28 
L 863.626413 161.28 
L 866.441988 161.28 
L 869.257563 161.28 
L 872.073138 161.28 
L 874.888713 161.28 
L 877.704287 161.28 
L 880.519862 161.28 
L 883.335437 161.28 
L 885.525329 161.28 
L 886.151012 161.28 
L 888.966587 161.28 
L 891.782161 161.28 
L 894.597736 161.28 
L 897.413311 161.28 
L 900.228886 161.28 
L 903.044461 161.28 
L 905.860035 161.28 
L 908.67561 161.28 
L 911.491185 161.28 
L 914.30676 161.28 
L 917.122335 161.28 
L 919.93791 161.28 
L 922.753484 161.28 
L 925.569059 161.28 
L 928.384634 161.28 
L 931.200209 161.28 
L 934.015784 161.28 
L 936.831358 161.28 
L 939.646933 161.28 
L 942.462508 161.28 
L 945.278083 161.28 
L 948.093658 161.28 
L 950.909232 161.28 
L 953.724807 161.28 
L 956.540382 161.28 
L 959.043115 161.28 
L 959.355957 161.28 
L 962.171532 161.28 
L 964.987106 161.28 
L 967.802681 161.28 
L 970.618256 161.28 
L 973.433831 161.28 
L 976.249406 161.28 
L 979.06498 161.28 
L 981.880555 161.28 
L 984.69613 161.28 
L 987.511705 161.28 
L 990.32728 161.28 
L 993.142854 161.28 
L 995.958429 161.28 
L 998.774004 161.28 
L 1001.589579 161.28 
L 1004.405154 161.28 
L 1007.220728 161.28 
L 1010.036303 161.28 
L 1012.851878 161.28 
L 1015.667453 161.28 
L 1018.483028 161.28 
L 1021.298602 161.28 
L 1024.114177 161.28 
L 1026.929752 161.28 
L 1029.745327 161.28 
L 1032.560902 161.28 
L 1032.560902 161.28 
" clip-path="url(#p7b80950f0d)" style="fill: none; stroke: #2ca02c; stroke-width: 2; stroke-linecap: square"/>
   </g>
   <g id="patch_13">
    <path d="M 754.663668 383.04 
L 754.663668 50.4 
" style="fill: none; stroke: #000000; stroke-width: 0.8; stroke-linejoin: miter; stroke-linecap: square"/>
   </g>
   <g id="patch_14">
    <path d="M 1045.794103 383.04 
L 1045.794103 50.4 
" style="fill: none; stroke: #000000; stroke-width: 0.8; stroke-linejoin: miter; stroke-linecap: square"/>
   </g>
   <g id="patch_15">
    <path d="M 754.663668 383.04 
L 1045.794103 383.04 
" style="fill: none; stroke: #000000; stroke-width: 0.8; stroke-linejoin: miter; stroke-linecap: square"/>
   </g>
   <g id="patch_16">
    <path d="M 754.663668 50.4 
L 1045.794103 50.4 
" style="fill: none; stroke: #000000; stroke-width: 0.8; stroke-linejoin: miter; stroke-linecap: square"/>
   </g>
   <g id="text_46">
    <!-- Thalf -->
    <g transform="translate(874.608417 44.4) scale(0.18 -0.18)">
     <use xlink:href="#DejaVuSans-Bold-54"/>
     <use xlink:href="#DejaVuSans-Bold-68" x="68.212891"/>
     <use xlink:href="#DejaVuSans-Bold-61" x="139.404297"/>
     <use xlink:href="#DejaVuSans-Bold-6c" x="206.884766"/>
     <use xlink:href="#DejaVuSans-Bold-66" x="241.162109"/>
    </g>
   </g>
  </g>
  <g id="axes_4">
   <g id="patch_17">
    <path d="M 1104.02019 383.04 
L 1395.150625 383.04 
L 1395.150625 50.4 
L 1104.02019 50.4 
z
" style="fill: #ffffff"/>
   </g>
   <g id="matplotlib.axis_7">
    <g id="xtick_16">
     <g id="line2d_81">
      <path d="M 1146.660506 383.04 
L 1146.660506 50.4 
" clip-path="url(#p67f06fdb57)" style="fill: none; stroke-dasharray: 2.96,1.28; stroke-dashoffset: 0; stroke: #b0b0b0; stroke-opacity: 0.6; stroke-width: 0.8"/>
     </g>
     <g id="line2d_82">
      <g>
       <use xlink:href="#mdb630e562a" x="1146.660506" y="383.04" style="stroke: #000000; stroke-width: 0.8"/>
      </g>
     </g>
     <g id="text_47">
      <!-- 0.2 -->
      <g transform="translate(1138.708944 397.638438) scale(0.1 -0.1)">
       <use xlink:href="#DejaVuSans-30"/>
       <use xlink:href="#DejaVuSans-2e" x="63.623047"/>
       <use xlink:href="#DejaVuSans-32" x="95.410156"/>
      </g>
     </g>
    </g>
    <g id="xtick_17">
     <g id="line2d_83">
      <path d="M 1205.474736 383.04 
L 1205.474736 50.4 
" clip-path="url(#p67f06fdb57)" style="fill: none; stroke-dasharray: 2.96,1.28; stroke-dashoffset: 0; stroke: #b0b0b0; stroke-opacity: 0.6; stroke-width: 0.8"/>
     </g>
     <g id="line2d_84">
      <g>
       <use xlink:href="#mdb630e562a" x="1205.474736" y="383.04" style="stroke: #000000; stroke-width: 0.8"/>
      </g>
     </g>
     <g id="text_48">
      <!-- 0.4 -->
      <g transform="translate(1197.523173 397.638438) scale(0.1 -0.1)">
       <use xlink:href="#DejaVuSans-30"/>
       <use xlink:href="#DejaVuSans-2e" x="63.623047"/>
       <use xlink:href="#DejaVuSans-34" x="95.410156"/>
      </g>
     </g>
    </g>
    <g id="xtick_18">
     <g id="line2d_85">
      <path d="M 1264.288965 383.04 
L 1264.288965 50.4 
" clip-path="url(#p67f06fdb57)" style="fill: none; stroke-dasharray: 2.96,1.28; stroke-dashoffset: 0; stroke: #b0b0b0; stroke-opacity: 0.6; stroke-width: 0.8"/>
     </g>
     <g id="line2d_86">
      <g>
       <use xlink:href="#mdb630e562a" x="1264.288965" y="383.04" style="stroke: #000000; stroke-width: 0.8"/>
      </g>
     </g>
     <g id="text_49">
      <!-- 0.6 -->
      <g transform="translate(1256.337402 397.638438) scale(0.1 -0.1)">
       <use xlink:href="#DejaVuSans-30"/>
       <use xlink:href="#DejaVuSans-2e" x="63.623047"/>
       <use xlink:href="#DejaVuSans-36" x="95.410156"/>
      </g>
     </g>
    </g>
    <g id="xtick_19">
     <g id="line2d_87">
      <path d="M 1323.103194 383.04 
L 1323.103194 50.4 
" clip-path="url(#p67f06fdb57)" style="fill: none; stroke-dasharray: 2.96,1.28; stroke-dashoffset: 0; stroke: #b0b0b0; stroke-opacity: 0.6; stroke-width: 0.8"/>
     </g>
     <g id="line2d_88">
      <g>
       <use xlink:href="#mdb630e562a" x="1323.103194" y="383.04" style="stroke: #000000; stroke-width: 0.8"/>
      </g>
     </g>
     <g id="text_50">
      <!-- 0.8 -->
      <g transform="translate(1315.151632 397.638438) scale(0.1 -0.1)">
       <use xlink:href="#DejaVuSans-30"/>
       <use xlink:href="#DejaVuSans-2e" x="63.623047"/>
       <use xlink:href="#DejaVuSans-38" x="95.410156"/>
      </g>
     </g>
    </g>
    <g id="xtick_20">
     <g id="line2d_89">
      <path d="M 1381.917423 383.04 
L 1381.917423 50.4 
" clip-path="url(#p67f06fdb57)" style="fill: none; stroke-dasharray: 2.96,1.28; stroke-dashoffset: 0; stroke: #b0b0b0; stroke-opacity: 0.6; stroke-width: 0.8"/>
     </g>
     <g id="line2d_90">
      <g>
       <use xlink:href="#mdb630e562a" x="1381.917423" y="383.04" style="stroke: #000000; stroke-width: 0.8"/>
      </g>
     </g>
     <g id="text_51">
      <!-- 1.0 -->
      <g transform="translate(1373.965861 397.638438) scale(0.1 -0.1)">
       <use xlink:href="#DejaVuSans-31"/>
       <use xlink:href="#DejaVuSans-2e" x="63.623047"/>
       <use xlink:href="#DejaVuSans-30" x="95.410156"/>
      </g>
     </g>
    </g>
    <g id="text_52">
     <!-- Renal function -->
     <g transform="translate(1184.007908 415.875625) scale(0.16 -0.16)">
      <use xlink:href="#DejaVuSans-Bold-52"/>
      <use xlink:href="#DejaVuSans-Bold-65" x="77.001953"/>
      <use xlink:href="#DejaVuSans-Bold-6e" x="144.824219"/>
      <use xlink:href="#DejaVuSans-Bold-61" x="216.015625"/>
      <use xlink:href="#DejaVuSans-Bold-6c" x="283.496094"/>
      <use xlink:href="#DejaVuSans-Bold-20" x="317.773438"/>
      <use xlink:href="#DejaVuSans-Bold-66" x="352.587891"/>
      <use xlink:href="#DejaVuSans-Bold-75" x="396.09375"/>
      <use xlink:href="#DejaVuSans-Bold-6e" x="467.285156"/>
      <use xlink:href="#DejaVuSans-Bold-63" x="538.476562"/>
      <use xlink:href="#DejaVuSans-Bold-74" x="597.753906"/>
      <use xlink:href="#DejaVuSans-Bold-69" x="645.556641"/>
      <use xlink:href="#DejaVuSans-Bold-6f" x="679.833984"/>
      <use xlink:href="#DejaVuSans-Bold-6e" x="748.535156"/>
     </g>
    </g>
   </g>
   <g id="matplotlib.axis_8">
    <g id="ytick_23">
     <g id="line2d_91">
      <path d="M 1104.02019 383.04 
L 1395.150625 383.04 
" clip-path="url(#p67f06fdb57)" style="fill: none; stroke-dasharray: 2.96,1.28; stroke-dashoffset: 0; stroke: #b0b0b0; stroke-opacity: 0.6; stroke-width: 0.8"/>
     </g>
     <g id="line2d_92">
      <g>
       <use xlink:href="#m8486f95a45" x="1104.02019" y="383.04" style="stroke: #000000; stroke-width: 0.8"/>
      </g>
     </g>
     <g id="text_53">
      <!-- 0 -->
      <g transform="translate(1090.65769 386.839219) scale(0.1 -0.1)">
       <use xlink:href="#DejaVuSans-30"/>
      </g>
     </g>
    </g>
    <g id="ytick_24">
     <g id="line2d_93">
      <path d="M 1104.02019 326.830544 
L 1395.150625 326.830544 
" clip-path="url(#p67f06fdb57)" style="fill: none; stroke-dasharray: 2.96,1.28; stroke-dashoffset: 0; stroke: #b0b0b0; stroke-opacity: 0.6; stroke-width: 0.8"/>
     </g>
     <g id="line2d_94">
      <g>
       <use xlink:href="#m8486f95a45" x="1104.02019" y="326.830544" style="stroke: #000000; stroke-width: 0.8"/>
      </g>
     </g>
     <g id="text_54">
      <!-- 5 -->
      <g transform="translate(1090.65769 330.629762) scale(0.1 -0.1)">
       <use xlink:href="#DejaVuSans-35"/>
      </g>
     </g>
    </g>
    <g id="ytick_25">
     <g id="line2d_95">
      <path d="M 1104.02019 270.621087 
L 1395.150625 270.621087 
" clip-path="url(#p67f06fdb57)" style="fill: none; stroke-dasharray: 2.96,1.28; stroke-dashoffset: 0; stroke: #b0b0b0; stroke-opacity: 0.6; stroke-width: 0.8"/>
     </g>
     <g id="line2d_96">
      <g>
       <use xlink:href="#m8486f95a45" x="1104.02019" y="270.621087" style="stroke: #000000; stroke-width: 0.8"/>
      </g>
     </g>
     <g id="text_55">
      <!-- 10 -->
      <g transform="translate(1084.29519 274.420306) scale(0.1 -0.1)">
       <use xlink:href="#DejaVuSans-31"/>
       <use xlink:href="#DejaVuSans-30" x="63.623047"/>
      </g>
     </g>
    </g>
    <g id="ytick_26">
     <g id="line2d_97">
      <path d="M 1104.02019 214.411631 
L 1395.150625 214.411631 
" clip-path="url(#p67f06fdb57)" style="fill: none; stroke-dasharray: 2.96,1.28; stroke-dashoffset: 0; stroke: #b0b0b0; stroke-opacity: 0.6; stroke-width: 0.8"/>
     </g>
     <g id="line2d_98">
      <g>
       <use xlink:href="#m8486f95a45" x="1104.02019" y="214.411631" style="stroke: #000000; stroke-width: 0.8"/>
      </g>
     </g>
     <g id="text_56">
      <!-- 15 -->
      <g transform="translate(1084.29519 218.21085) scale(0.1 -0.1)">
       <use xlink:href="#DejaVuSans-31"/>
       <use xlink:href="#DejaVuSans-35" x="63.623047"/>
      </g>
     </g>
    </g>
    <g id="ytick_27">
     <g id="line2d_99">
      <path d="M 1104.02019 158.202175 
L 1395.150625 158.202175 
" clip-path="url(#p67f06fdb57)" style="fill: none; stroke-dasharray: 2.96,1.28; stroke-dashoffset: 0; stroke: #b0b0b0; stroke-opacity: 0.6; stroke-width: 0.8"/>
     </g>
     <g id="line2d_100">
      <g>
       <use xlink:href="#m8486f95a45" x="1104.02019" y="158.202175" style="stroke: #000000; stroke-width: 0.8"/>
      </g>
     </g>
     <g id="text_57">
      <!-- 20 -->
      <g transform="translate(1084.29519 162.001394) scale(0.1 -0.1)">
       <use xlink:href="#DejaVuSans-32"/>
       <use xlink:href="#DejaVuSans-30" x="63.623047"/>
      </g>
     </g>
    </g>
    <g id="ytick_28">
     <g id="line2d_101">
      <path d="M 1104.02019 101.992719 
L 1395.150625 101.992719 
" clip-path="url(#p67f06fdb57)" style="fill: none; stroke-dasharray: 2.96,1.28; stroke-dashoffset: 0; stroke: #b0b0b0; stroke-opacity: 0.6; stroke-width: 0.8"/>
     </g>
     <g id="line2d_102">
      <g>
       <use xlink:href="#m8486f95a45" x="1104.02019" y="101.992719" style="stroke: #000000; stroke-width: 0.8"/>
      </g>
     </g>
     <g id="text_58">
      <!-- 25 -->
      <g transform="translate(1084.29519 105.791937) scale(0.1 -0.1)">
       <use xlink:href="#DejaVuSans-32"/>
       <use xlink:href="#DejaVuSans-35" x="63.623047"/>
      </g>
     </g>
    </g>
    <g id="text_59">
     <!-- CL [liter * milligram / millimole / minute] -->
     <g transform="translate(1076.84269 398.94375) rotate(-90) scale(0.16 -0.16)">
      <defs>
       <path id="DejaVuSans-Bold-4c" d="M 588 4666 
L 1791 4666 
L 1791 909 
L 3903 909 
L 3903 0 
L 588 0 
L 588 4666 
z
" transform="scale(0.015625)"/>
       <path id="DejaVuSans-Bold-67" d="M 2919 594 
Q 2688 288 2409 144 
Q 2131 0 1766 0 
Q 1125 0 706 504 
Q 288 1009 288 1791 
Q 288 2575 706 3076 
Q 1125 3578 1766 3578 
Q 2131 3578 2409 3434 
Q 2688 3291 2919 2981 
L 2919 3500 
L 4044 3500 
L 4044 353 
Q 4044 -491 3511 -936 
Q 2978 -1381 1966 -1381 
Q 1638 -1381 1331 -1331 
Q 1025 -1281 716 -1178 
L 716 -306 
Q 1009 -475 1290 -558 
Q 1572 -641 1856 -641 
Q 2406 -641 2662 -400 
Q 2919 -159 2919 353 
L 2919 594 
z
M 2181 2772 
Q 1834 2772 1640 2515 
Q 1447 2259 1447 1791 
Q 1447 1309 1634 1061 
Q 1822 813 2181 813 
Q 2531 813 2725 1069 
Q 2919 1325 2919 1791 
Q 2919 2259 2725 2515 
Q 2531 2772 2181 2772 
z
" transform="scale(0.015625)"/>
      </defs>
      <use xlink:href="#DejaVuSans-Bold-43"/>
      <use xlink:href="#DejaVuSans-Bold-4c" x="73.388672"/>
      <use xlink:href="#DejaVuSans-Bold-20" x="137.109375"/>
      <use xlink:href="#DejaVuSans-Bold-5b" x="171.923828"/>
      <use xlink:href="#DejaVuSans-Bold-6c" x="217.626953"/>
      <use xlink:href="#DejaVuSans-Bold-69" x="251.904297"/>
      <use xlink:href="#DejaVuSans-Bold-74" x="286.181641"/>
      <use xlink:href="#DejaVuSans-Bold-65" x="333.984375"/>
      <use xlink:href="#DejaVuSans-Bold-72" x="401.806641"/>
      <use xlink:href="#DejaVuSans-Bold-20" x="451.123047"/>
      <use xlink:href="#DejaVuSans-Bold-2a" x="485.9375"/>
      <use xlink:href="#DejaVuSans-Bold-20" x="538.232422"/>
      <use xlink:href="#DejaVuSans-Bold-6d" x="573.046875"/>
      <use xlink:href="#DejaVuSans-Bold-69" x="677.246094"/>
      <use xlink:href="#DejaVuSans-Bold-6c" x="711.523438"/>
      <use xlink:href="#DejaVuSans-Bold-6c" x="745.800781"/>
      <use xlink:href="#DejaVuSans-Bold-69" x="780.078125"/>
      <use xlink:href="#DejaVuSans-Bold-67" x="814.355469"/>
      <use xlink:href="#DejaVuSans-Bold-72" x="885.9375"/>
      <use xlink:href="#DejaVuSans-Bold-61" x="935.253906"/>
      <use xlink:href="#DejaVuSans-Bold-6d" x="1002.734375"/>
      <use xlink:href="#DejaVuSans-Bold-20" x="1106.933594"/>
      <use xlink:href="#DejaVuSans-Bold-2f" x="1141.748047"/>
      <use xlink:href="#DejaVuSans-Bold-20" x="1178.271484"/>
      <use xlink:href="#DejaVuSans-Bold-6d" x="1213.085938"/>
      <use xlink:href="#DejaVuSans-Bold-69" x="1317.285156"/>
      <use xlink:href="#DejaVuSans-Bold-6c" x="1351.5625"/>
      <use xlink:href="#DejaVuSans-Bold-6c" x="1385.839844"/>
      <use xlink:href="#DejaVuSans-Bold-69" x="1420.117188"/>
      <use xlink:href="#DejaVuSans-Bold-6d" x="1454.394531"/>
      <use xlink:href="#DejaVuSans-Bold-6f" x="1558.59375"/>
      <use xlink:href="#DejaVuSans-Bold-6c" x="1627.294922"/>
      <use xlink:href="#DejaVuSans-Bold-65" x="1661.572266"/>
      <use xlink:href="#DejaVuSans-Bold-20" x="1729.394531"/>
      <use xlink:href="#DejaVuSans-Bold-2f" x="1764.208984"/>
      <use xlink:href="#DejaVuSans-Bold-20" x="1800.732422"/>
      <use xlink:href="#DejaVuSans-Bold-6d" x="1835.546875"/>
      <use xlink:href="#DejaVuSans-Bold-69" x="1939.746094"/>
      <use xlink:href="#DejaVuSans-Bold-6e" x="1974.023438"/>
      <use xlink:href="#DejaVuSans-Bold-75" x="2045.214844"/>
      <use xlink:href="#DejaVuSans-Bold-74" x="2116.40625"/>
      <use xlink:href="#DejaVuSans-Bold-65" x="2164.208984"/>
      <use xlink:href="#DejaVuSans-Bold-5d" x="2232.03125"/>
     </g>
    </g>
   </g>
   <g id="line2d_103">
    <path d="M 1381.917423 383.04 
L 1381.917423 50.4 
" clip-path="url(#p67f06fdb57)" style="fill: none; stroke-dasharray: 5.55,2.4; stroke-dashoffset: 0; stroke: #808080; stroke-width: 1.5"/>
   </g>
   <g id="line2d_104">
    <path d="M 1117.253392 161.28 
L 1120.068967 161.28 
L 1122.884541 161.28 
L 1125.700116 161.28 
L 1128.515691 161.28 
L 1131.331266 161.28 
L 1131.956949 161.28 
L 1134.146841 161.28 
L 1136.962415 161.28 
L 1139.77799 161.28 
L 1142.593565 161.28 
L 1145.40914 161.28 
L 1148.224715 161.28 
L 1151.040289 161.28 
L 1153.855864 161.28 
L 1156.671439 161.28 
L 1159.487014 161.28 
L 1161.364064 161.28 
L 1162.302589 161.28 
L 1165.118163 161.28 
L 1167.933738 161.28 
L 1170.749313 161.28 
L 1173.564888 161.28 
L 1176.380463 161.28 
L 1179.196037 161.28 
L 1182.011612 161.28 
L 1184.827187 161.28 
L 1187.642762 161.28 
L 1190.458337 161.28 
L 1193.273912 161.28 
L 1196.089486 161.28 
L 1198.905061 161.28 
L 1201.720636 161.28 
L 1204.536211 161.28 
L 1207.351786 161.28 
L 1210.16736 161.28 
L 1212.982935 161.28 
L 1215.79851 161.28 
L 1218.614085 161.28 
L 1221.42966 161.28 
L 1224.245234 161.28 
L 1227.060809 161.28 
L 1229.876384 161.28 
L 1232.691959 161.28 
L 1234.88185 161.28 
L 1235.507534 161.28 
L 1238.323108 161.28 
L 1241.138683 161.28 
L 1243.954258 161.28 
L 1246.769833 161.28 
L 1249.585408 161.28 
L 1252.400982 161.28 
L 1255.216557 161.28 
L 1258.032132 161.28 
L 1260.847707 161.28 
L 1263.663282 161.28 
L 1266.478856 161.28 
L 1269.294431 161.28 
L 1272.110006 161.28 
L 1274.925581 161.28 
L 1277.741156 161.28 
L 1280.55673 161.28 
L 1283.372305 161.28 
L 1286.18788 161.28 
L 1289.003455 161.28 
L 1291.81903 161.28 
L 1294.634604 161.28 
L 1297.450179 161.28 
L 1300.265754 161.28 
L 1303.081329 161.28 
L 1305.896904 161.28 
L 1308.399637 161.28 
L 1308.712479 161.28 
L 1311.528053 161.28 
L 1314.343628 161.28 
L 1317.159203 161.28 
L 1319.974778 161.28 
L 1322.790353 161.28 
L 1325.605927 161.28 
L 1328.421502 161.28 
L 1331.237077 161.28 
L 1334.052652 161.28 
L 1336.868227 161.28 
L 1339.683801 161.28 
L 1342.499376 161.28 
L 1345.314951 161.28 
L 1348.130526 161.28 
L 1350.946101 161.28 
L 1353.761675 161.28 
L 1356.57725 161.28 
L 1359.392825 161.28 
L 1362.2084 161.28 
L 1365.023975 161.28 
L 1367.839549 161.28 
L 1370.655124 161.28 
L 1373.470699 161.28 
L 1376.286274 161.28 
L 1379.101849 161.28 
L 1381.917423 161.28 
L 1381.917423 161.28 
" clip-path="url(#p67f06fdb57)" style="fill: none; stroke: #2ca02c; stroke-width: 2; stroke-linecap: square"/>
   </g>
   <g id="patch_18">
    <path d="M 1104.02019 383.04 
L 1104.02019 50.4 
" style="fill: none; stroke: #000000; stroke-width: 0.8; stroke-linejoin: miter; stroke-linecap: square"/>
   </g>
   <g id="patch_19">
    <path d="M 1395.150625 383.04 
L 1395.150625 50.4 
" style="fill: none; stroke: #000000; stroke-width: 0.8; stroke-linejoin: miter; stroke-linecap: square"/>
   </g>
   <g id="patch_20">
    <path d="M 1104.02019 383.04 
L 1395.150625 383.04 
" style="fill: none; stroke: #000000; stroke-width: 0.8; stroke-linejoin: miter; stroke-linecap: square"/>
   </g>
   <g id="patch_21">
    <path d="M 1104.02019 50.4 
L 1395.150625 50.4 
" style="fill: none; stroke: #000000; stroke-width: 0.8; stroke-linejoin: miter; stroke-linecap: square"/>
   </g>
   <g id="text_60">
    <!-- CL -->
    <g transform="translate(1237.245564 44.4) scale(0.18 -0.18)">
     <use xlink:href="#DejaVuSans-Bold-43"/>
     <use xlink:href="#DejaVuSans-Bold-4c" x="73.388672"/>
    </g>
   </g>
  </g>
  <g id="text_61">
   <!-- PK Parameters: Glimepiride (Scan_po_renal) -->
   <g transform="translate(430.059219 23.916562) scale(0.22 -0.22)">
    <defs>
     <path id="DejaVuSans-Bold-50" d="M 588 4666 
L 2584 4666 
Q 3475 4666 3951 4270 
Q 4428 3875 4428 3144 
Q 4428 2409 3951 2014 
Q 3475 1619 2584 1619 
L 1791 1619 
L 1791 0 
L 588 0 
L 588 4666 
z
M 1791 3794 
L 1791 2491 
L 2456 2491 
Q 2806 2491 2997 2661 
Q 3188 2831 3188 3144 
Q 3188 3456 2997 3625 
Q 2806 3794 2456 3794 
L 1791 3794 
z
" transform="scale(0.015625)"/>
     <path id="DejaVuSans-Bold-4b" d="M 588 4666 
L 1791 4666 
L 1791 2963 
L 3525 4666 
L 4922 4666 
L 2675 2456 
L 5153 0 
L 3647 0 
L 1791 1838 
L 1791 0 
L 588 0 
L 588 4666 
z
" transform="scale(0.015625)"/>
     <path id="DejaVuSans-Bold-73" d="M 3272 3391 
L 3272 2541 
Q 2913 2691 2578 2766 
Q 2244 2841 1947 2841 
Q 1628 2841 1473 2761 
Q 1319 2681 1319 2516 
Q 1319 2381 1436 2309 
Q 1553 2238 1856 2203 
L 2053 2175 
Q 2913 2066 3209 1816 
Q 3506 1566 3506 1031 
Q 3506 472 3093 190 
Q 2681 -91 1863 -91 
Q 1516 -91 1145 -36 
Q 775 19 384 128 
L 384 978 
Q 719 816 1070 734 
Q 1422 653 1784 653 
Q 2113 653 2278 743 
Q 2444 834 2444 1013 
Q 2444 1163 2330 1236 
Q 2216 1309 1875 1350 
L 1678 1375 
Q 931 1469 631 1722 
Q 331 1975 331 2491 
Q 331 3047 712 3315 
Q 1094 3584 1881 3584 
Q 2191 3584 2531 3537 
Q 2872 3491 3272 3391 
z
" transform="scale(0.015625)"/>
     <path id="DejaVuSans-Bold-3a" d="M 716 3500 
L 1844 3500 
L 1844 2291 
L 716 2291 
L 716 3500 
z
M 716 1209 
L 1844 1209 
L 1844 0 
L 716 0 
L 716 1209 
z
" transform="scale(0.015625)"/>
     <path id="DejaVuSans-Bold-47" d="M 4781 347 
Q 4331 128 3847 18 
Q 3363 -91 2847 -91 
Q 1681 -91 1000 561 
Q 319 1213 319 2328 
Q 319 3456 1012 4103 
Q 1706 4750 2913 4750 
Q 3378 4750 3804 4662 
Q 4231 4575 4609 4403 
L 4609 3438 
Q 4219 3659 3833 3768 
Q 3447 3878 3059 3878 
Q 2341 3878 1952 3476 
Q 1563 3075 1563 2328 
Q 1563 1588 1938 1184 
Q 2313 781 3003 781 
Q 3191 781 3352 804 
Q 3513 828 3641 878 
L 3641 1784 
L 2906 1784 
L 2906 2591 
L 4781 2591 
L 4781 347 
z
" transform="scale(0.015625)"/>
     <path id="DejaVuSans-Bold-70" d="M 1656 506 
L 1656 -1331 
L 538 -1331 
L 538 3500 
L 1656 3500 
L 1656 2988 
Q 1888 3294 2169 3439 
Q 2450 3584 2816 3584 
Q 3463 3584 3878 3070 
Q 4294 2556 4294 1747 
Q 4294 938 3878 423 
Q 3463 -91 2816 -91 
Q 2450 -91 2169 54 
Q 1888 200 1656 506 
z
M 2400 2772 
Q 2041 2772 1848 2508 
Q 1656 2244 1656 1747 
Q 1656 1250 1848 986 
Q 2041 722 2400 722 
Q 2759 722 2948 984 
Q 3138 1247 3138 1747 
Q 3138 2247 2948 2509 
Q 2759 2772 2400 2772 
z
" transform="scale(0.015625)"/>
     <path id="DejaVuSans-Bold-64" d="M 2919 2988 
L 2919 4863 
L 4044 4863 
L 4044 0 
L 2919 0 
L 2919 506 
Q 2688 197 2409 53 
Q 2131 -91 1766 -91 
Q 1119 -91 703 423 
Q 288 938 288 1747 
Q 288 2556 703 3070 
Q 1119 3584 1766 3584 
Q 2128 3584 2408 3439 
Q 2688 3294 2919 2988 
z
M 2181 722 
Q 2541 722 2730 984 
Q 2919 1247 2919 1747 
Q 2919 2247 2730 2509 
Q 2541 2772 2181 2772 
Q 1825 2772 1636 2509 
Q 1447 2247 1447 1747 
Q 1447 1247 1636 984 
Q 1825 722 2181 722 
z
" transform="scale(0.015625)"/>
     <path id="DejaVuSans-Bold-28" d="M 2413 -844 
L 1484 -844 
Q 1006 -72 778 623 
Q 550 1319 550 2003 
Q 550 2688 779 3389 
Q 1009 4091 1484 4856 
L 2413 4856 
Q 2013 4116 1813 3408 
Q 1613 2700 1613 2009 
Q 1613 1319 1811 609 
Q 2009 -100 2413 -844 
z
" transform="scale(0.015625)"/>
     <path id="DejaVuSans-Bold-53" d="M 3834 4519 
L 3834 3531 
Q 3450 3703 3084 3790 
Q 2719 3878 2394 3878 
Q 1963 3878 1756 3759 
Q 1550 3641 1550 3391 
Q 1550 3203 1689 3098 
Q 1828 2994 2194 2919 
L 2706 2816 
Q 3484 2659 3812 2340 
Q 4141 2022 4141 1434 
Q 4141 663 3683 286 
Q 3225 -91 2284 -91 
Q 1841 -91 1394 -6 
Q 947 78 500 244 
L 500 1259 
Q 947 1022 1364 901 
Q 1781 781 2169 781 
Q 2563 781 2772 912 
Q 2981 1044 2981 1288 
Q 2981 1506 2839 1625 
Q 2697 1744 2272 1838 
L 1806 1941 
Q 1106 2091 782 2419 
Q 459 2747 459 3303 
Q 459 4000 909 4375 
Q 1359 4750 2203 4750 
Q 2588 4750 2994 4692 
Q 3400 4634 3834 4519 
z
" transform="scale(0.015625)"/>
     <path id="DejaVuSans-Bold-5f" d="M 3200 -916 
L 3200 -1509 
L 0 -1509 
L 0 -916 
L 3200 -916 
z
" transform="scale(0.015625)"/>
     <path id="DejaVuSans-Bold-29" d="M 513 -844 
Q 913 -100 1113 609 
Q 1313 1319 1313 2009 
Q 1313 2700 1113 3408 
Q 913 4116 513 4856 
L 1441 4856 
Q 1916 4091 2145 3389 
Q 2375 2688 2375 2003 
Q 2375 1319 2147 623 
Q 1919 -72 1441 -844 
L 513 -844 
z
" transform="scale(0.015625)"/>
    </defs>
    <use xlink:href="#DejaVuSans-Bold-50"/>
    <use xlink:href="#DejaVuSans-Bold-4b" x="73.291016"/>
    <use xlink:href="#DejaVuSans-Bold-20" x="150.78125"/>
    <use xlink:href="#DejaVuSans-Bold-50" x="185.595703"/>
    <use xlink:href="#DejaVuSans-Bold-61" x="256.261719"/>
    <use xlink:href="#DejaVuSans-Bold-72" x="323.742188"/>
    <use xlink:href="#DejaVuSans-Bold-61" x="373.058594"/>
    <use xlink:href="#DejaVuSans-Bold-6d" x="440.539062"/>
    <use xlink:href="#DejaVuSans-Bold-65" x="544.738281"/>
    <use xlink:href="#DejaVuSans-Bold-74" x="612.560547"/>
    <use xlink:href="#DejaVuSans-Bold-65" x="660.363281"/>
    <use xlink:href="#DejaVuSans-Bold-72" x="728.185547"/>
    <use xlink:href="#DejaVuSans-Bold-73" x="777.501953"/>
    <use xlink:href="#DejaVuSans-Bold-3a" x="837.023438"/>
    <use xlink:href="#DejaVuSans-Bold-20" x="877.013672"/>
    <use xlink:href="#DejaVuSans-Bold-47" x="911.828125"/>
    <use xlink:href="#DejaVuSans-Bold-6c" x="993.908203"/>
    <use xlink:href="#DejaVuSans-Bold-69" x="1028.185547"/>
    <use xlink:href="#DejaVuSans-Bold-6d" x="1062.462891"/>
    <use xlink:href="#DejaVuSans-Bold-65" x="1166.662109"/>
    <use xlink:href="#DejaVuSans-Bold-70" x="1234.484375"/>
    <use xlink:href="#DejaVuSans-Bold-69" x="1306.066406"/>
    <use xlink:href="#DejaVuSans-Bold-72" x="1340.34375"/>
    <use xlink:href="#DejaVuSans-Bold-69" x="1389.660156"/>
    <use xlink:href="#DejaVuSans-Bold-64" x="1423.9375"/>
    <use xlink:href="#DejaVuSans-Bold-65" x="1495.519531"/>
    <use xlink:href="#DejaVuSans-Bold-20" x="1563.341797"/>
    <use xlink:href="#DejaVuSans-Bold-28" x="1598.15625"/>
    <use xlink:href="#DejaVuSans-Bold-53" x="1643.859375"/>
    <use xlink:href="#DejaVuSans-Bold-63" x="1715.880859"/>
    <use xlink:href="#DejaVuSans-Bold-61" x="1775.158203"/>
    <use xlink:href="#DejaVuSans-Bold-6e" x="1842.638672"/>
    <use xlink:href="#DejaVuSans-Bold-5f" x="1913.830078"/>
    <use xlink:href="#DejaVuSans-Bold-70" x="1963.830078"/>
    <use xlink:href="#DejaVuSans-Bold-6f" x="2035.412109"/>
    <use xlink:href="#DejaVuSans-Bold-5f" x="2104.113281"/>
    <use xlink:href="#DejaVuSans-Bold-72" x="2154.113281"/>
    <use xlink:href="#DejaVuSans-Bold-65" x="2203.429688"/>
    <use xlink:href="#DejaVuSans-Bold-6e" x="2271.251953"/>
    <use xlink:href="#DejaVuSans-Bold-61" x="2342.443359"/>
    <use xlink:href="#DejaVuSans-Bold-6c" x="2409.923828"/>
    <use xlink:href="#DejaVuSans-Bold-29" x="2444.201172"/>
   </g>
  </g>
 </g>
 <defs>
  <clipPath id="p8fde466e77">
   <rect x="55.950625" y="50.4" width="291.130435" height="332.64"/>
  </clipPath>
  <clipPath id="p5e18c317cd">
   <rect x="405.307147" y="50.4" width="291.130435" height="332.64"/>
  </clipPath>
  <clipPath id="p7b80950f0d">
   <rect x="754.663668" y="50.4" width="291.130435" height="332.64"/>
  </clipPath>
  <clipPath id="p67f06fdb57">
   <rect x="1104.02019" y="50.4" width="291.130435" height="332.64"/>
  </clipPath>
 </defs>
</svg>
