<?xml version="1.0" encoding="utf-8" standalone="no"?>
<!DOCTYPE svg PUBLIC "-//W3C//DTD SVG 1.1//EN"
  "http://www.w3.org/Graphics/SVG/1.1/DTD/svg11.dtd">
<svg xmlns:xlink="http://www.w3.org/1999/xlink" width="1395.435938pt" height="421.495312pt" viewBox="0 0 1395.435938 421.495312" xmlns="http://www.w3.org/2000/svg" version="1.1">
 <metadata>
  <rdf:RDF xmlns:dc="http://purl.org/dc/elements/1.1/" xmlns:cc="http://creativecommons.org/ns#" xmlns:rdf="http://www.w3.org/1999/02/22-rdf-syntax-ns#">
   <cc:Work>
    <dc:type rdf:resource="http://purl.org/dc/dcmitype/StillImage"/>
    <dc:date>2025-04-10T14:57:56.899148</dc:date>
    <dc:format>image/svg+xml</dc:format>
    <dc:creator>
     <cc:Agent>
      <dc:title>Matplotlib v3.9.1, https://matplotlib.org/</dc:title>
     </cc:Agent>
    </dc:creator>
   </cc:Work>
  </rdf:RDF>
 </metadata>
 <defs>
  <style type="text/css">*{stroke-linejoin: round; stroke-linecap: butt}</style>
 </defs>
 <g id="figure_1">
  <g id="patch_1">
   <path d="M 0 421.495312 
L 1395.435938 421.495312 
L 1395.435938 0 
L 0 0 
z
" style="fill: #ffffff"/>
  </g>
  <g id="axes_1">
   <g id="patch_2">
    <path d="M 49.035938 383.04 
L 340.166372 383.04 
L 340.166372 50.4 
L 49.035938 50.4 
z
" style="fill: #ffffff"/>
   </g>
   <g id="matplotlib.axis_1">
    <g id="xtick_1">
     <g id="line2d_1">
      <path d="M 91.676254 383.04 
L 91.676254 50.4 
" clip-path="url(#pa4bd155528)" style="fill: none; stroke-dasharray: 2.96,1.28; stroke-dashoffset: 0; stroke: #cccccc; stroke-opacity: 0.6; stroke-width: 0.8"/>
     </g>
     <g id="line2d_2"/>
     <g id="text_1">
      <!-- 0.2 -->
      <g style="fill: #262626" transform="translate(84.726254 393.697812) scale(0.1 -0.1)">
       <defs>
        <path id="ArialMT-30" d="M 266 2259 
Q 266 3072 433 3567 
Q 600 4063 929 4331 
Q 1259 4600 1759 4600 
Q 2128 4600 2406 4451 
Q 2684 4303 2865 4023 
Q 3047 3744 3150 3342 
Q 3253 2941 3253 2259 
Q 3253 1453 3087 958 
Q 2922 463 2592 192 
Q 2263 -78 1759 -78 
Q 1097 -78 719 397 
Q 266 969 266 2259 
z
M 844 2259 
Q 844 1131 1108 757 
Q 1372 384 1759 384 
Q 2147 384 2411 759 
Q 2675 1134 2675 2259 
Q 2675 3391 2411 3762 
Q 2147 4134 1753 4134 
Q 1366 4134 1134 3806 
Q 844 3388 844 2259 
z
" transform="scale(0.015625)"/>
        <path id="ArialMT-2e" d="M 581 0 
L 581 641 
L 1222 641 
L 1222 0 
L 581 0 
z
" transform="scale(0.015625)"/>
        <path id="ArialMT-32" d="M 3222 541 
L 3222 0 
L 194 0 
Q 188 203 259 391 
Q 375 700 629 1000 
Q 884 1300 1366 1694 
Q 2113 2306 2375 2664 
Q 2638 3022 2638 3341 
Q 2638 3675 2398 3904 
Q 2159 4134 1775 4134 
Q 1369 4134 1125 3890 
Q 881 3647 878 3216 
L 300 3275 
Q 359 3922 746 4261 
Q 1134 4600 1788 4600 
Q 2447 4600 2831 4234 
Q 3216 3869 3216 3328 
Q 3216 3053 3103 2787 
Q 2991 2522 2730 2228 
Q 2469 1934 1863 1422 
Q 1356 997 1212 845 
Q 1069 694 975 541 
L 3222 541 
z
" transform="scale(0.015625)"/>
       </defs>
       <use xlink:href="#ArialMT-30"/>
       <use xlink:href="#ArialMT-2e" x="55.615234"/>
       <use xlink:href="#ArialMT-32" x="83.398438"/>
      </g>
     </g>
    </g>
    <g id="xtick_2">
     <g id="line2d_3">
      <path d="M 150.490483 383.04 
L 150.490483 50.4 
" clip-path="url(#pa4bd155528)" style="fill: none; stroke-dasharray: 2.96,1.28; stroke-dashoffset: 0; stroke: #cccccc; stroke-opacity: 0.6; stroke-width: 0.8"/>
     </g>
     <g id="line2d_4"/>
     <g id="text_2">
      <!-- 0.4 -->
      <g style="fill: #262626" transform="translate(143.540483 393.697812) scale(0.1 -0.1)">
       <defs>
        <path id="ArialMT-34" d="M 2069 0 
L 2069 1097 
L 81 1097 
L 81 1613 
L 2172 4581 
L 2631 4581 
L 2631 1613 
L 3250 1613 
L 3250 1097 
L 2631 1097 
L 2631 0 
L 2069 0 
z
M 2069 1613 
L 2069 3678 
L 634 1613 
L 2069 1613 
z
" transform="scale(0.015625)"/>
       </defs>
       <use xlink:href="#ArialMT-30"/>
       <use xlink:href="#ArialMT-2e" x="55.615234"/>
       <use xlink:href="#ArialMT-34" x="83.398438"/>
      </g>
     </g>
    </g>
    <g id="xtick_3">
     <g id="line2d_5">
      <path d="M 209.304712 383.04 
L 209.304712 50.4 
" clip-path="url(#pa4bd155528)" style="fill: none; stroke-dasharray: 2.96,1.28; stroke-dashoffset: 0; stroke: #cccccc; stroke-opacity: 0.6; stroke-width: 0.8"/>
     </g>
     <g id="line2d_6"/>
     <g id="text_3">
      <!-- 0.6 -->
      <g style="fill: #262626" transform="translate(202.354712 393.697812) scale(0.1 -0.1)">
       <defs>
        <path id="ArialMT-36" d="M 3184 3459 
L 2625 3416 
Q 2550 3747 2413 3897 
Q 2184 4138 1850 4138 
Q 1581 4138 1378 3988 
Q 1113 3794 959 3422 
Q 806 3050 800 2363 
Q 1003 2672 1297 2822 
Q 1591 2972 1913 2972 
Q 2475 2972 2870 2558 
Q 3266 2144 3266 1488 
Q 3266 1056 3080 686 
Q 2894 316 2569 119 
Q 2244 -78 1831 -78 
Q 1128 -78 684 439 
Q 241 956 241 2144 
Q 241 3472 731 4075 
Q 1159 4600 1884 4600 
Q 2425 4600 2770 4297 
Q 3116 3994 3184 3459 
z
M 888 1484 
Q 888 1194 1011 928 
Q 1134 663 1356 523 
Q 1578 384 1822 384 
Q 2178 384 2434 671 
Q 2691 959 2691 1453 
Q 2691 1928 2437 2201 
Q 2184 2475 1800 2475 
Q 1419 2475 1153 2201 
Q 888 1928 888 1484 
z
" transform="scale(0.015625)"/>
       </defs>
       <use xlink:href="#ArialMT-30"/>
       <use xlink:href="#ArialMT-2e" x="55.615234"/>
       <use xlink:href="#ArialMT-36" x="83.398438"/>
      </g>
     </g>
    </g>
    <g id="xtick_4">
     <g id="line2d_7">
      <path d="M 268.118941 383.04 
L 268.118941 50.4 
" clip-path="url(#pa4bd155528)" style="fill: none; stroke-dasharray: 2.96,1.28; stroke-dashoffset: 0; stroke: #cccccc; stroke-opacity: 0.6; stroke-width: 0.8"/>
     </g>
     <g id="line2d_8"/>
     <g id="text_4">
      <!-- 0.8 -->
      <g style="fill: #262626" transform="translate(261.168941 393.697812) scale(0.1 -0.1)">
       <defs>
        <path id="ArialMT-38" d="M 1131 2484 
Q 781 2613 612 2850 
Q 444 3088 444 3419 
Q 444 3919 803 4259 
Q 1163 4600 1759 4600 
Q 2359 4600 2725 4251 
Q 3091 3903 3091 3403 
Q 3091 3084 2923 2848 
Q 2756 2613 2416 2484 
Q 2838 2347 3058 2040 
Q 3278 1734 3278 1309 
Q 3278 722 2862 322 
Q 2447 -78 1769 -78 
Q 1091 -78 675 323 
Q 259 725 259 1325 
Q 259 1772 486 2073 
Q 713 2375 1131 2484 
z
M 1019 3438 
Q 1019 3113 1228 2906 
Q 1438 2700 1772 2700 
Q 2097 2700 2305 2904 
Q 2513 3109 2513 3406 
Q 2513 3716 2298 3927 
Q 2084 4138 1766 4138 
Q 1444 4138 1231 3931 
Q 1019 3725 1019 3438 
z
M 838 1322 
Q 838 1081 952 856 
Q 1066 631 1291 507 
Q 1516 384 1775 384 
Q 2178 384 2440 643 
Q 2703 903 2703 1303 
Q 2703 1709 2433 1975 
Q 2163 2241 1756 2241 
Q 1359 2241 1098 1978 
Q 838 1716 838 1322 
z
" transform="scale(0.015625)"/>
       </defs>
       <use xlink:href="#ArialMT-30"/>
       <use xlink:href="#ArialMT-2e" x="55.615234"/>
       <use xlink:href="#ArialMT-38" x="83.398438"/>
      </g>
     </g>
    </g>
    <g id="xtick_5">
     <g id="line2d_9">
      <path d="M 326.933171 383.04 
L 326.933171 50.4 
" clip-path="url(#pa4bd155528)" style="fill: none; stroke-dasharray: 2.96,1.28; stroke-dashoffset: 0; stroke: #cccccc; stroke-opacity: 0.6; stroke-width: 0.8"/>
     </g>
     <g id="line2d_10"/>
     <g id="text_5">
      <!-- 1.0 -->
      <g style="fill: #262626" transform="translate(319.983171 393.697812) scale(0.1 -0.1)">
       <defs>
        <path id="ArialMT-31" d="M 2384 0 
L 1822 0 
L 1822 3584 
Q 1619 3391 1289 3197 
Q 959 3003 697 2906 
L 697 3450 
Q 1169 3672 1522 3987 
Q 1875 4303 2022 4600 
L 2384 4600 
L 2384 0 
z
" transform="scale(0.015625)"/>
       </defs>
       <use xlink:href="#ArialMT-31"/>
       <use xlink:href="#ArialMT-2e" x="55.615234"/>
       <use xlink:href="#ArialMT-30" x="83.398438"/>
      </g>
     </g>
    </g>
    <g id="text_6">
     <!-- Renal function -->
     <g style="fill: #262626" transform="translate(139.051155 411.137812) scale(0.16 -0.16)">
      <defs>
       <path id="Arial-BoldMT-52" d="M 469 0 
L 469 4581 
L 2416 4581 
Q 3150 4581 3483 4457 
Q 3816 4334 4016 4018 
Q 4216 3703 4216 3297 
Q 4216 2781 3912 2445 
Q 3609 2109 3006 2022 
Q 3306 1847 3501 1637 
Q 3697 1428 4028 894 
L 4588 0 
L 3481 0 
L 2813 997 
Q 2456 1531 2325 1670 
Q 2194 1809 2047 1861 
Q 1900 1913 1581 1913 
L 1394 1913 
L 1394 0 
L 469 0 
z
M 1394 2644 
L 2078 2644 
Q 2744 2644 2909 2700 
Q 3075 2756 3169 2893 
Q 3263 3031 3263 3238 
Q 3263 3469 3139 3611 
Q 3016 3753 2791 3791 
Q 2678 3806 2116 3806 
L 1394 3806 
L 1394 2644 
z
" transform="scale(0.015625)"/>
       <path id="Arial-BoldMT-65" d="M 2381 1056 
L 3256 909 
Q 3088 428 2723 176 
Q 2359 -75 1813 -75 
Q 947 -75 531 491 
Q 203 944 203 1634 
Q 203 2459 634 2926 
Q 1066 3394 1725 3394 
Q 2466 3394 2894 2905 
Q 3322 2416 3303 1406 
L 1103 1406 
Q 1113 1016 1316 798 
Q 1519 581 1822 581 
Q 2028 581 2168 693 
Q 2309 806 2381 1056 
z
M 2431 1944 
Q 2422 2325 2234 2523 
Q 2047 2722 1778 2722 
Q 1491 2722 1303 2513 
Q 1116 2303 1119 1944 
L 2431 1944 
z
" transform="scale(0.015625)"/>
       <path id="Arial-BoldMT-6e" d="M 3478 0 
L 2600 0 
L 2600 1694 
Q 2600 2231 2544 2389 
Q 2488 2547 2361 2634 
Q 2234 2722 2056 2722 
Q 1828 2722 1647 2597 
Q 1466 2472 1398 2265 
Q 1331 2059 1331 1503 
L 1331 0 
L 453 0 
L 453 3319 
L 1269 3319 
L 1269 2831 
Q 1703 3394 2363 3394 
Q 2653 3394 2893 3289 
Q 3134 3184 3257 3021 
Q 3381 2859 3429 2653 
Q 3478 2447 3478 2063 
L 3478 0 
z
" transform="scale(0.015625)"/>
       <path id="Arial-BoldMT-61" d="M 1116 2306 
L 319 2450 
Q 453 2931 781 3162 
Q 1109 3394 1756 3394 
Q 2344 3394 2631 3255 
Q 2919 3116 3036 2902 
Q 3153 2688 3153 2116 
L 3144 1091 
Q 3144 653 3186 445 
Q 3228 238 3344 0 
L 2475 0 
Q 2441 88 2391 259 
Q 2369 338 2359 363 
Q 2134 144 1878 34 
Q 1622 -75 1331 -75 
Q 819 -75 523 203 
Q 228 481 228 906 
Q 228 1188 362 1408 
Q 497 1628 739 1745 
Q 981 1863 1438 1950 
Q 2053 2066 2291 2166 
L 2291 2253 
Q 2291 2506 2166 2614 
Q 2041 2722 1694 2722 
Q 1459 2722 1328 2630 
Q 1197 2538 1116 2306 
z
M 2291 1594 
Q 2122 1538 1756 1459 
Q 1391 1381 1278 1306 
Q 1106 1184 1106 997 
Q 1106 813 1243 678 
Q 1381 544 1594 544 
Q 1831 544 2047 700 
Q 2206 819 2256 991 
Q 2291 1103 2291 1419 
L 2291 1594 
z
" transform="scale(0.015625)"/>
       <path id="Arial-BoldMT-6c" d="M 459 0 
L 459 4581 
L 1338 4581 
L 1338 0 
L 459 0 
z
" transform="scale(0.015625)"/>
       <path id="Arial-BoldMT-20" transform="scale(0.015625)"/>
       <path id="Arial-BoldMT-66" d="M 75 3319 
L 563 3319 
L 563 3569 
Q 563 3988 652 4194 
Q 741 4400 980 4529 
Q 1219 4659 1584 4659 
Q 1959 4659 2319 4547 
L 2200 3934 
Q 1991 3984 1797 3984 
Q 1606 3984 1523 3895 
Q 1441 3806 1441 3553 
L 1441 3319 
L 2097 3319 
L 2097 2628 
L 1441 2628 
L 1441 0 
L 563 0 
L 563 2628 
L 75 2628 
L 75 3319 
z
" transform="scale(0.015625)"/>
       <path id="Arial-BoldMT-75" d="M 2644 0 
L 2644 497 
Q 2463 231 2167 78 
Q 1872 -75 1544 -75 
Q 1209 -75 943 72 
Q 678 219 559 484 
Q 441 750 441 1219 
L 441 3319 
L 1319 3319 
L 1319 1794 
Q 1319 1094 1367 936 
Q 1416 778 1544 686 
Q 1672 594 1869 594 
Q 2094 594 2272 717 
Q 2450 841 2515 1023 
Q 2581 1206 2581 1919 
L 2581 3319 
L 3459 3319 
L 3459 0 
L 2644 0 
z
" transform="scale(0.015625)"/>
       <path id="Arial-BoldMT-63" d="M 3353 2338 
L 2488 2181 
Q 2444 2441 2289 2572 
Q 2134 2703 1888 2703 
Q 1559 2703 1364 2476 
Q 1169 2250 1169 1719 
Q 1169 1128 1367 884 
Q 1566 641 1900 641 
Q 2150 641 2309 783 
Q 2469 925 2534 1272 
L 3397 1125 
Q 3263 531 2881 228 
Q 2500 -75 1859 -75 
Q 1131 -75 698 384 
Q 266 844 266 1656 
Q 266 2478 700 2936 
Q 1134 3394 1875 3394 
Q 2481 3394 2839 3133 
Q 3197 2872 3353 2338 
z
" transform="scale(0.015625)"/>
       <path id="Arial-BoldMT-74" d="M 1981 3319 
L 1981 2619 
L 1381 2619 
L 1381 1281 
Q 1381 875 1398 808 
Q 1416 741 1477 697 
Q 1538 653 1625 653 
Q 1747 653 1978 738 
L 2053 56 
Q 1747 -75 1359 -75 
Q 1122 -75 931 4 
Q 741 84 652 211 
Q 563 338 528 553 
Q 500 706 500 1172 
L 500 2619 
L 97 2619 
L 97 3319 
L 500 3319 
L 500 3978 
L 1381 4491 
L 1381 3319 
L 1981 3319 
z
" transform="scale(0.015625)"/>
       <path id="Arial-BoldMT-69" d="M 459 3769 
L 459 4581 
L 1338 4581 
L 1338 3769 
L 459 3769 
z
M 459 0 
L 459 3319 
L 1338 3319 
L 1338 0 
L 459 0 
z
" transform="scale(0.015625)"/>
       <path id="Arial-BoldMT-6f" d="M 256 1706 
Q 256 2144 472 2553 
Q 688 2963 1083 3178 
Q 1478 3394 1966 3394 
Q 2719 3394 3200 2905 
Q 3681 2416 3681 1669 
Q 3681 916 3195 420 
Q 2709 -75 1972 -75 
Q 1516 -75 1102 131 
Q 688 338 472 736 
Q 256 1134 256 1706 
z
M 1156 1659 
Q 1156 1166 1390 903 
Q 1625 641 1969 641 
Q 2313 641 2545 903 
Q 2778 1166 2778 1666 
Q 2778 2153 2545 2415 
Q 2313 2678 1969 2678 
Q 1625 2678 1390 2415 
Q 1156 2153 1156 1659 
z
" transform="scale(0.015625)"/>
      </defs>
      <use xlink:href="#Arial-BoldMT-52"/>
      <use xlink:href="#Arial-BoldMT-65" x="72.216797"/>
      <use xlink:href="#Arial-BoldMT-6e" x="127.832031"/>
      <use xlink:href="#Arial-BoldMT-61" x="188.916016"/>
      <use xlink:href="#Arial-BoldMT-6c" x="244.53125"/>
      <use xlink:href="#Arial-BoldMT-20" x="272.314453"/>
      <use xlink:href="#Arial-BoldMT-66" x="300.097656"/>
      <use xlink:href="#Arial-BoldMT-75" x="333.398438"/>
      <use xlink:href="#Arial-BoldMT-6e" x="394.482422"/>
      <use xlink:href="#Arial-BoldMT-63" x="455.566406"/>
      <use xlink:href="#Arial-BoldMT-74" x="511.181641"/>
      <use xlink:href="#Arial-BoldMT-69" x="544.482422"/>
      <use xlink:href="#Arial-BoldMT-6f" x="572.265625"/>
      <use xlink:href="#Arial-BoldMT-6e" x="633.349609"/>
     </g>
    </g>
   </g>
   <g id="matplotlib.axis_2">
    <g id="ytick_1">
     <g id="line2d_11">
      <path d="M 49.035938 383.04 
L 340.166372 383.04 
" clip-path="url(#pa4bd155528)" style="fill: none; stroke-dasharray: 2.96,1.28; stroke-dashoffset: 0; stroke: #cccccc; stroke-opacity: 0.6; stroke-width: 0.8"/>
     </g>
     <g id="line2d_12"/>
     <g id="text_7">
      <!-- 0.00 -->
      <g style="fill: #262626" transform="translate(26.075 386.618906) scale(0.1 -0.1)">
       <use xlink:href="#ArialMT-30"/>
       <use xlink:href="#ArialMT-2e" x="55.615234"/>
       <use xlink:href="#ArialMT-30" x="83.398438"/>
       <use xlink:href="#ArialMT-30" x="139.013672"/>
      </g>
     </g>
    </g>
    <g id="ytick_2">
     <g id="line2d_13">
      <path d="M 49.035938 327.500281 
L 340.166372 327.500281 
" clip-path="url(#pa4bd155528)" style="fill: none; stroke-dasharray: 2.96,1.28; stroke-dashoffset: 0; stroke: #cccccc; stroke-opacity: 0.6; stroke-width: 0.8"/>
     </g>
     <g id="line2d_14"/>
     <g id="text_8">
      <!-- 0.05 -->
      <g style="fill: #262626" transform="translate(26.075 331.079188) scale(0.1 -0.1)">
       <defs>
        <path id="ArialMT-35" d="M 266 1200 
L 856 1250 
Q 922 819 1161 601 
Q 1400 384 1738 384 
Q 2144 384 2425 690 
Q 2706 997 2706 1503 
Q 2706 1984 2436 2262 
Q 2166 2541 1728 2541 
Q 1456 2541 1237 2417 
Q 1019 2294 894 2097 
L 366 2166 
L 809 4519 
L 3088 4519 
L 3088 3981 
L 1259 3981 
L 1013 2750 
Q 1425 3038 1878 3038 
Q 2478 3038 2890 2622 
Q 3303 2206 3303 1553 
Q 3303 931 2941 478 
Q 2500 -78 1738 -78 
Q 1113 -78 717 272 
Q 322 622 266 1200 
z
" transform="scale(0.015625)"/>
       </defs>
       <use xlink:href="#ArialMT-30"/>
       <use xlink:href="#ArialMT-2e" x="55.615234"/>
       <use xlink:href="#ArialMT-30" x="83.398438"/>
       <use xlink:href="#ArialMT-35" x="139.013672"/>
      </g>
     </g>
    </g>
    <g id="ytick_3">
     <g id="line2d_15">
      <path d="M 49.035938 271.960563 
L 340.166372 271.960563 
" clip-path="url(#pa4bd155528)" style="fill: none; stroke-dasharray: 2.96,1.28; stroke-dashoffset: 0; stroke: #cccccc; stroke-opacity: 0.6; stroke-width: 0.8"/>
     </g>
     <g id="line2d_16"/>
     <g id="text_9">
      <!-- 0.10 -->
      <g style="fill: #262626" transform="translate(26.075 275.539469) scale(0.1 -0.1)">
       <use xlink:href="#ArialMT-30"/>
       <use xlink:href="#ArialMT-2e" x="55.615234"/>
       <use xlink:href="#ArialMT-31" x="83.398438"/>
       <use xlink:href="#ArialMT-30" x="139.013672"/>
      </g>
     </g>
    </g>
    <g id="ytick_4">
     <g id="line2d_17">
      <path d="M 49.035938 216.420844 
L 340.166372 216.420844 
" clip-path="url(#pa4bd155528)" style="fill: none; stroke-dasharray: 2.96,1.28; stroke-dashoffset: 0; stroke: #cccccc; stroke-opacity: 0.6; stroke-width: 0.8"/>
     </g>
     <g id="line2d_18"/>
     <g id="text_10">
      <!-- 0.15 -->
      <g style="fill: #262626" transform="translate(26.075 219.99975) scale(0.1 -0.1)">
       <use xlink:href="#ArialMT-30"/>
       <use xlink:href="#ArialMT-2e" x="55.615234"/>
       <use xlink:href="#ArialMT-31" x="83.398438"/>
       <use xlink:href="#ArialMT-35" x="139.013672"/>
      </g>
     </g>
    </g>
    <g id="ytick_5">
     <g id="line2d_19">
      <path d="M 49.035938 160.881125 
L 340.166372 160.881125 
" clip-path="url(#pa4bd155528)" style="fill: none; stroke-dasharray: 2.96,1.28; stroke-dashoffset: 0; stroke: #cccccc; stroke-opacity: 0.6; stroke-width: 0.8"/>
     </g>
     <g id="line2d_20"/>
     <g id="text_11">
      <!-- 0.20 -->
      <g style="fill: #262626" transform="translate(26.075 164.460032) scale(0.1 -0.1)">
       <use xlink:href="#ArialMT-30"/>
       <use xlink:href="#ArialMT-2e" x="55.615234"/>
       <use xlink:href="#ArialMT-32" x="83.398438"/>
       <use xlink:href="#ArialMT-30" x="139.013672"/>
      </g>
     </g>
    </g>
    <g id="ytick_6">
     <g id="line2d_21">
      <path d="M 49.035938 105.341407 
L 340.166372 105.341407 
" clip-path="url(#pa4bd155528)" style="fill: none; stroke-dasharray: 2.96,1.28; stroke-dashoffset: 0; stroke: #cccccc; stroke-opacity: 0.6; stroke-width: 0.8"/>
     </g>
     <g id="line2d_22"/>
     <g id="text_12">
      <!-- 0.25 -->
      <g style="fill: #262626" transform="translate(26.075 108.920313) scale(0.1 -0.1)">
       <use xlink:href="#ArialMT-30"/>
       <use xlink:href="#ArialMT-2e" x="55.615234"/>
       <use xlink:href="#ArialMT-32" x="83.398438"/>
       <use xlink:href="#ArialMT-35" x="139.013672"/>
      </g>
     </g>
    </g>
    <g id="text_13">
     <!-- AUC [millimole * minute / liter] -->
     <g style="fill: #262626" transform="translate(18.8475 331.39625) rotate(-90) scale(0.16 -0.16)">
      <defs>
       <path id="Arial-BoldMT-41" d="M 4597 0 
L 3591 0 
L 3191 1041 
L 1359 1041 
L 981 0 
L 0 0 
L 1784 4581 
L 2763 4581 
L 4597 0 
z
M 2894 1813 
L 2263 3513 
L 1644 1813 
L 2894 1813 
z
" transform="scale(0.015625)"/>
       <path id="Arial-BoldMT-55" d="M 459 4581 
L 1384 4581 
L 1384 2100 
Q 1384 1509 1419 1334 
Q 1478 1053 1701 883 
Q 1925 713 2313 713 
Q 2706 713 2906 873 
Q 3106 1034 3147 1268 
Q 3188 1503 3188 2047 
L 3188 4581 
L 4113 4581 
L 4113 2175 
Q 4113 1350 4038 1009 
Q 3963 669 3761 434 
Q 3559 200 3221 61 
Q 2884 -78 2341 -78 
Q 1684 -78 1345 73 
Q 1006 225 809 467 
Q 613 709 550 975 
Q 459 1369 459 2138 
L 459 4581 
z
" transform="scale(0.015625)"/>
       <path id="Arial-BoldMT-43" d="M 3397 1684 
L 4294 1400 
Q 4088 650 3608 286 
Q 3128 -78 2391 -78 
Q 1478 -78 890 545 
Q 303 1169 303 2250 
Q 303 3394 893 4026 
Q 1484 4659 2447 4659 
Q 3288 4659 3813 4163 
Q 4125 3869 4281 3319 
L 3366 3100 
Q 3284 3456 3026 3662 
Q 2769 3869 2400 3869 
Q 1891 3869 1573 3503 
Q 1256 3138 1256 2319 
Q 1256 1450 1568 1081 
Q 1881 713 2381 713 
Q 2750 713 3015 947 
Q 3281 1181 3397 1684 
z
" transform="scale(0.015625)"/>
       <path id="Arial-BoldMT-5b" d="M 456 -1291 
L 456 4581 
L 2013 4581 
L 2013 3891 
L 1291 3891 
L 1291 -600 
L 2013 -600 
L 2013 -1291 
L 456 -1291 
z
" transform="scale(0.015625)"/>
       <path id="Arial-BoldMT-6d" d="M 394 3319 
L 1203 3319 
L 1203 2866 
Q 1638 3394 2238 3394 
Q 2556 3394 2790 3262 
Q 3025 3131 3175 2866 
Q 3394 3131 3647 3262 
Q 3900 3394 4188 3394 
Q 4553 3394 4806 3245 
Q 5059 3097 5184 2809 
Q 5275 2597 5275 2122 
L 5275 0 
L 4397 0 
L 4397 1897 
Q 4397 2391 4306 2534 
Q 4184 2722 3931 2722 
Q 3747 2722 3584 2609 
Q 3422 2497 3350 2280 
Q 3278 2063 3278 1594 
L 3278 0 
L 2400 0 
L 2400 1819 
Q 2400 2303 2353 2443 
Q 2306 2584 2207 2653 
Q 2109 2722 1941 2722 
Q 1738 2722 1575 2612 
Q 1413 2503 1342 2297 
Q 1272 2091 1272 1613 
L 1272 0 
L 394 0 
L 394 3319 
z
" transform="scale(0.015625)"/>
       <path id="Arial-BoldMT-2a" d="M 766 2475 
L 294 2841 
Q 519 3094 763 3325 
Q 859 3419 884 3444 
Q 806 3456 438 3547 
Q 172 3613 88 3644 
L 272 4194 
Q 681 4028 1003 3828 
Q 928 4338 928 4659 
L 1484 4659 
Q 1484 4431 1400 3822 
Q 1463 3847 1669 3944 
Q 1950 4072 2188 4163 
L 2353 3597 
Q 2006 3519 1550 3444 
L 1925 3022 
Q 2038 2894 2103 2813 
L 1625 2497 
L 1203 3194 
Q 1013 2856 766 2475 
z
" transform="scale(0.015625)"/>
       <path id="Arial-BoldMT-2f" d="M -9 -78 
L 1125 4659 
L 1784 4659 
L 638 -78 
L -9 -78 
z
" transform="scale(0.015625)"/>
       <path id="Arial-BoldMT-72" d="M 1300 0 
L 422 0 
L 422 3319 
L 1238 3319 
L 1238 2847 
Q 1447 3181 1614 3287 
Q 1781 3394 1994 3394 
Q 2294 3394 2572 3228 
L 2300 2463 
Q 2078 2606 1888 2606 
Q 1703 2606 1575 2504 
Q 1447 2403 1373 2137 
Q 1300 1872 1300 1025 
L 1300 0 
z
" transform="scale(0.015625)"/>
       <path id="Arial-BoldMT-5d" d="M 1675 4581 
L 1675 -1291 
L 119 -1291 
L 119 -600 
L 841 -600 
L 841 3897 
L 119 3897 
L 119 4581 
L 1675 4581 
z
" transform="scale(0.015625)"/>
      </defs>
      <use xlink:href="#Arial-BoldMT-41"/>
      <use xlink:href="#Arial-BoldMT-55" x="72.216797"/>
      <use xlink:href="#Arial-BoldMT-43" x="144.433594"/>
      <use xlink:href="#Arial-BoldMT-20" x="216.650391"/>
      <use xlink:href="#Arial-BoldMT-5b" x="244.433594"/>
      <use xlink:href="#Arial-BoldMT-6d" x="277.734375"/>
      <use xlink:href="#Arial-BoldMT-69" x="366.650391"/>
      <use xlink:href="#Arial-BoldMT-6c" x="394.433594"/>
      <use xlink:href="#Arial-BoldMT-6c" x="422.216797"/>
      <use xlink:href="#Arial-BoldMT-69" x="450"/>
      <use xlink:href="#Arial-BoldMT-6d" x="477.783203"/>
      <use xlink:href="#Arial-BoldMT-6f" x="566.699219"/>
      <use xlink:href="#Arial-BoldMT-6c" x="627.783203"/>
      <use xlink:href="#Arial-BoldMT-65" x="655.566406"/>
      <use xlink:href="#Arial-BoldMT-20" x="711.181641"/>
      <use xlink:href="#Arial-BoldMT-2a" x="738.964844"/>
      <use xlink:href="#Arial-BoldMT-20" x="777.880859"/>
      <use xlink:href="#Arial-BoldMT-6d" x="805.664062"/>
      <use xlink:href="#Arial-BoldMT-69" x="894.580078"/>
      <use xlink:href="#Arial-BoldMT-6e" x="922.363281"/>
      <use xlink:href="#Arial-BoldMT-75" x="983.447266"/>
      <use xlink:href="#Arial-BoldMT-74" x="1044.53125"/>
      <use xlink:href="#Arial-BoldMT-65" x="1077.832031"/>
      <use xlink:href="#Arial-BoldMT-20" x="1133.447266"/>
      <use xlink:href="#Arial-BoldMT-2f" x="1161.230469"/>
      <use xlink:href="#Arial-BoldMT-20" x="1189.013672"/>
      <use xlink:href="#Arial-BoldMT-6c" x="1216.796875"/>
      <use xlink:href="#Arial-BoldMT-69" x="1244.580078"/>
      <use xlink:href="#Arial-BoldMT-74" x="1272.363281"/>
      <use xlink:href="#Arial-BoldMT-65" x="1305.664062"/>
      <use xlink:href="#Arial-BoldMT-72" x="1361.279297"/>
      <use xlink:href="#Arial-BoldMT-5d" x="1400.195312"/>
     </g>
    </g>
   </g>
   <g id="line2d_23">
    <path d="M 326.933171 383.04 
L 326.933171 50.4 
" clip-path="url(#pa4bd155528)" style="fill: none; stroke-dasharray: 5.55,2.4; stroke-dashoffset: 0; stroke: #808080; stroke-width: 1.5"/>
   </g>
   <g id="line2d_24">
    <path d="M 62.269139 161.28 
L 65.084714 161.28 
L 67.900289 161.28 
L 70.715863 161.28 
L 73.531438 161.28 
L 76.347013 161.28 
L 76.972696 161.28 
L 79.162588 161.28 
L 81.978163 161.28 
L 84.793738 161.28 
L 87.609312 161.28 
L 90.424887 161.28 
L 93.240462 161.28 
L 96.056037 161.28 
L 98.871612 161.28 
L 101.687186 161.28 
L 104.502761 161.28 
L 106.379811 161.28 
L 107.318336 161.28 
L 110.133911 161.28 
L 112.949486 161.28 
L 115.76506 161.28 
L 118.580635 161.28 
L 121.39621 161.28 
L 124.211785 161.28 
L 127.02736 161.28 
L 129.842934 161.28 
L 132.658509 161.28 
L 135.474084 161.28 
L 138.289659 161.28 
L 141.105234 161.28 
L 143.920808 161.28 
L 146.736383 161.28 
L 149.551958 161.28 
L 152.367533 161.28 
L 155.183108 161.28 
L 157.998682 161.28 
L 160.814257 161.28 
L 163.629832 161.28 
L 166.445407 161.28 
L 169.260982 161.28 
L 172.076556 161.28 
L 174.892131 161.28 
L 177.707706 161.28 
L 179.897598 161.28 
L 180.523281 161.28 
L 183.338856 161.28 
L 186.15443 161.28 
L 188.970005 161.28 
L 191.78558 161.28 
L 194.601155 161.28 
L 197.41673 161.28 
L 200.232305 161.28 
L 203.047879 161.28 
L 205.863454 161.28 
L 208.679029 161.28 
L 211.494604 161.28 
L 214.310179 161.28 
L 217.125753 161.28 
L 219.941328 161.28 
L 222.756903 161.28 
L 225.572478 161.28 
L 228.388053 161.28 
L 231.203627 161.28 
L 234.019202 161.28 
L 236.834777 161.28 
L 239.650352 161.28 
L 242.465927 161.28 
L 245.281501 161.28 
L 248.097076 161.28 
L 250.912651 161.28 
L 253.415384 161.28 
L 253.728226 161.28 
L 256.543801 161.28 
L 259.359375 161.28 
L 262.17495 161.28 
L 264.990525 161.28 
L 267.8061 161.28 
L 270.621675 161.28 
L 273.437249 161.28 
L 276.252824 161.28 
L 279.068399 161.28 
L 281.883974 161.28 
L 284.699549 161.28 
L 287.515123 161.28 
L 290.330698 161.28 
L 293.146273 161.28 
L 295.961848 161.28 
L 298.777423 161.28 
L 301.592997 161.28 
L 304.408572 161.28 
L 307.224147 161.28 
L 310.039722 161.28 
L 312.855297 161.28 
L 315.670871 161.28 
L 318.486446 161.28 
L 321.302021 161.28 
L 324.117596 161.28 
L 326.933171 161.28 
L 326.933171 161.28 
" clip-path="url(#pa4bd155528)" style="fill: none; stroke: #2ca02c; stroke-width: 2; stroke-linecap: round"/>
   </g>
   <g id="patch_3">
    <path d="M 49.035938 383.04 
L 49.035938 50.4 
" style="fill: none; stroke: #cccccc; stroke-linejoin: miter; stroke-linecap: square"/>
   </g>
   <g id="patch_4">
    <path d="M 340.166372 383.04 
L 340.166372 50.4 
" style="fill: none; stroke: #cccccc; stroke-linejoin: miter; stroke-linecap: square"/>
   </g>
   <g id="patch_5">
    <path d="M 49.035938 383.04 
L 340.166372 383.04 
" style="fill: none; stroke: #cccccc; stroke-linejoin: miter; stroke-linecap: square"/>
   </g>
   <g id="patch_6">
    <path d="M 49.035938 50.4 
L 340.166372 50.4 
" style="fill: none; stroke: #cccccc; stroke-linejoin: miter; stroke-linecap: square"/>
   </g>
   <g id="text_14">
    <!-- AUC -->
    <g style="fill: #262626" transform="translate(175.102092 44.4) scale(0.18 -0.18)">
     <use xlink:href="#Arial-BoldMT-41"/>
     <use xlink:href="#Arial-BoldMT-55" x="72.216797"/>
     <use xlink:href="#Arial-BoldMT-43" x="144.433594"/>
    </g>
   </g>
  </g>
  <g id="axes_2">
   <g id="patch_7">
    <path d="M 398.392459 383.04 
L 689.522894 383.04 
L 689.522894 50.4 
L 398.392459 50.4 
z
" style="fill: #ffffff"/>
   </g>
   <g id="matplotlib.axis_3">
    <g id="xtick_6">
     <g id="line2d_25">
      <path d="M 441.032775 383.04 
L 441.032775 50.4 
" clip-path="url(#p4dd144249e)" style="fill: none; stroke-dasharray: 2.96,1.28; stroke-dashoffset: 0; stroke: #cccccc; stroke-opacity: 0.6; stroke-width: 0.8"/>
     </g>
     <g id="line2d_26"/>
     <g id="text_15">
      <!-- 0.2 -->
      <g style="fill: #262626" transform="translate(434.082775 393.697812) scale(0.1 -0.1)">
       <use xlink:href="#ArialMT-30"/>
       <use xlink:href="#ArialMT-2e" x="55.615234"/>
       <use xlink:href="#ArialMT-32" x="83.398438"/>
      </g>
     </g>
    </g>
    <g id="xtick_7">
     <g id="line2d_27">
      <path d="M 499.847005 383.04 
L 499.847005 50.4 
" clip-path="url(#p4dd144249e)" style="fill: none; stroke-dasharray: 2.96,1.28; stroke-dashoffset: 0; stroke: #cccccc; stroke-opacity: 0.6; stroke-width: 0.8"/>
     </g>
     <g id="line2d_28"/>
     <g id="text_16">
      <!-- 0.4 -->
      <g style="fill: #262626" transform="translate(492.897005 393.697812) scale(0.1 -0.1)">
       <use xlink:href="#ArialMT-30"/>
       <use xlink:href="#ArialMT-2e" x="55.615234"/>
       <use xlink:href="#ArialMT-34" x="83.398438"/>
      </g>
     </g>
    </g>
    <g id="xtick_8">
     <g id="line2d_29">
      <path d="M 558.661234 383.04 
L 558.661234 50.4 
" clip-path="url(#p4dd144249e)" style="fill: none; stroke-dasharray: 2.96,1.28; stroke-dashoffset: 0; stroke: #cccccc; stroke-opacity: 0.6; stroke-width: 0.8"/>
     </g>
     <g id="line2d_30"/>
     <g id="text_17">
      <!-- 0.6 -->
      <g style="fill: #262626" transform="translate(551.711234 393.697812) scale(0.1 -0.1)">
       <use xlink:href="#ArialMT-30"/>
       <use xlink:href="#ArialMT-2e" x="55.615234"/>
       <use xlink:href="#ArialMT-36" x="83.398438"/>
      </g>
     </g>
    </g>
    <g id="xtick_9">
     <g id="line2d_31">
      <path d="M 617.475463 383.04 
L 617.475463 50.4 
" clip-path="url(#p4dd144249e)" style="fill: none; stroke-dasharray: 2.96,1.28; stroke-dashoffset: 0; stroke: #cccccc; stroke-opacity: 0.6; stroke-width: 0.8"/>
     </g>
     <g id="line2d_32"/>
     <g id="text_18">
      <!-- 0.8 -->
      <g style="fill: #262626" transform="translate(610.525463 393.697812) scale(0.1 -0.1)">
       <use xlink:href="#ArialMT-30"/>
       <use xlink:href="#ArialMT-2e" x="55.615234"/>
       <use xlink:href="#ArialMT-38" x="83.398438"/>
      </g>
     </g>
    </g>
    <g id="xtick_10">
     <g id="line2d_33">
      <path d="M 676.289692 383.04 
L 676.289692 50.4 
" clip-path="url(#p4dd144249e)" style="fill: none; stroke-dasharray: 2.96,1.28; stroke-dashoffset: 0; stroke: #cccccc; stroke-opacity: 0.6; stroke-width: 0.8"/>
     </g>
     <g id="line2d_34"/>
     <g id="text_19">
      <!-- 1.0 -->
      <g style="fill: #262626" transform="translate(669.339692 393.697812) scale(0.1 -0.1)">
       <use xlink:href="#ArialMT-31"/>
       <use xlink:href="#ArialMT-2e" x="55.615234"/>
       <use xlink:href="#ArialMT-30" x="83.398438"/>
      </g>
     </g>
    </g>
    <g id="text_20">
     <!-- Renal function -->
     <g style="fill: #262626" transform="translate(488.407677 411.137812) scale(0.16 -0.16)">
      <use xlink:href="#Arial-BoldMT-52"/>
      <use xlink:href="#Arial-BoldMT-65" x="72.216797"/>
      <use xlink:href="#Arial-BoldMT-6e" x="127.832031"/>
      <use xlink:href="#Arial-BoldMT-61" x="188.916016"/>
      <use xlink:href="#Arial-BoldMT-6c" x="244.53125"/>
      <use xlink:href="#Arial-BoldMT-20" x="272.314453"/>
      <use xlink:href="#Arial-BoldMT-66" x="300.097656"/>
      <use xlink:href="#Arial-BoldMT-75" x="333.398438"/>
      <use xlink:href="#Arial-BoldMT-6e" x="394.482422"/>
      <use xlink:href="#Arial-BoldMT-63" x="455.566406"/>
      <use xlink:href="#Arial-BoldMT-74" x="511.181641"/>
      <use xlink:href="#Arial-BoldMT-69" x="544.482422"/>
      <use xlink:href="#Arial-BoldMT-6f" x="572.265625"/>
      <use xlink:href="#Arial-BoldMT-6e" x="633.349609"/>
     </g>
    </g>
   </g>
   <g id="matplotlib.axis_4">
    <g id="ytick_7">
     <g id="line2d_35">
      <path d="M 398.392459 383.04 
L 689.522894 383.04 
" clip-path="url(#p4dd144249e)" style="fill: none; stroke-dasharray: 2.96,1.28; stroke-dashoffset: 0; stroke: #cccccc; stroke-opacity: 0.6; stroke-width: 0.8"/>
     </g>
     <g id="line2d_36"/>
     <g id="text_21">
      <!-- 0 -->
      <g style="fill: #262626" transform="translate(389.331522 386.618906) scale(0.1 -0.1)">
       <use xlink:href="#ArialMT-30"/>
      </g>
     </g>
    </g>
    <g id="ytick_8">
     <g id="line2d_37">
      <path d="M 398.392459 342.256102 
L 689.522894 342.256102 
" clip-path="url(#p4dd144249e)" style="fill: none; stroke-dasharray: 2.96,1.28; stroke-dashoffset: 0; stroke: #cccccc; stroke-opacity: 0.6; stroke-width: 0.8"/>
     </g>
     <g id="line2d_38"/>
     <g id="text_22">
      <!-- 25 -->
      <g style="fill: #262626" transform="translate(383.770584 345.835008) scale(0.1 -0.1)">
       <use xlink:href="#ArialMT-32"/>
       <use xlink:href="#ArialMT-35" x="55.615234"/>
      </g>
     </g>
    </g>
    <g id="ytick_9">
     <g id="line2d_39">
      <path d="M 398.392459 301.472203 
L 689.522894 301.472203 
" clip-path="url(#p4dd144249e)" style="fill: none; stroke-dasharray: 2.96,1.28; stroke-dashoffset: 0; stroke: #cccccc; stroke-opacity: 0.6; stroke-width: 0.8"/>
     </g>
     <g id="line2d_40"/>
     <g id="text_23">
      <!-- 50 -->
      <g style="fill: #262626" transform="translate(383.770584 305.05111) scale(0.1 -0.1)">
       <use xlink:href="#ArialMT-35"/>
       <use xlink:href="#ArialMT-30" x="55.615234"/>
      </g>
     </g>
    </g>
    <g id="ytick_10">
     <g id="line2d_41">
      <path d="M 398.392459 260.688305 
L 689.522894 260.688305 
" clip-path="url(#p4dd144249e)" style="fill: none; stroke-dasharray: 2.96,1.28; stroke-dashoffset: 0; stroke: #cccccc; stroke-opacity: 0.6; stroke-width: 0.8"/>
     </g>
     <g id="line2d_42"/>
     <g id="text_24">
      <!-- 75 -->
      <g style="fill: #262626" transform="translate(383.770584 264.267211) scale(0.1 -0.1)">
       <defs>
        <path id="ArialMT-37" d="M 303 3981 
L 303 4522 
L 3269 4522 
L 3269 4084 
Q 2831 3619 2401 2847 
Q 1972 2075 1738 1259 
Q 1569 684 1522 0 
L 944 0 
Q 953 541 1156 1306 
Q 1359 2072 1739 2783 
Q 2119 3494 2547 3981 
L 303 3981 
z
" transform="scale(0.015625)"/>
       </defs>
       <use xlink:href="#ArialMT-37"/>
       <use xlink:href="#ArialMT-35" x="55.615234"/>
      </g>
     </g>
    </g>
    <g id="ytick_11">
     <g id="line2d_43">
      <path d="M 398.392459 219.904407 
L 689.522894 219.904407 
" clip-path="url(#p4dd144249e)" style="fill: none; stroke-dasharray: 2.96,1.28; stroke-dashoffset: 0; stroke: #cccccc; stroke-opacity: 0.6; stroke-width: 0.8"/>
     </g>
     <g id="line2d_44"/>
     <g id="text_25">
      <!-- 100 -->
      <g style="fill: #262626" transform="translate(378.209647 223.483313) scale(0.1 -0.1)">
       <use xlink:href="#ArialMT-31"/>
       <use xlink:href="#ArialMT-30" x="55.615234"/>
       <use xlink:href="#ArialMT-30" x="111.230469"/>
      </g>
     </g>
    </g>
    <g id="ytick_12">
     <g id="line2d_45">
      <path d="M 398.392459 179.120508 
L 689.522894 179.120508 
" clip-path="url(#p4dd144249e)" style="fill: none; stroke-dasharray: 2.96,1.28; stroke-dashoffset: 0; stroke: #cccccc; stroke-opacity: 0.6; stroke-width: 0.8"/>
     </g>
     <g id="line2d_46"/>
     <g id="text_26">
      <!-- 125 -->
      <g style="fill: #262626" transform="translate(378.209647 182.699415) scale(0.1 -0.1)">
       <use xlink:href="#ArialMT-31"/>
       <use xlink:href="#ArialMT-32" x="55.615234"/>
       <use xlink:href="#ArialMT-35" x="111.230469"/>
      </g>
     </g>
    </g>
    <g id="ytick_13">
     <g id="line2d_47">
      <path d="M 398.392459 138.33661 
L 689.522894 138.33661 
" clip-path="url(#p4dd144249e)" style="fill: none; stroke-dasharray: 2.96,1.28; stroke-dashoffset: 0; stroke: #cccccc; stroke-opacity: 0.6; stroke-width: 0.8"/>
     </g>
     <g id="line2d_48"/>
     <g id="text_27">
      <!-- 150 -->
      <g style="fill: #262626" transform="translate(378.209647 141.915516) scale(0.1 -0.1)">
       <use xlink:href="#ArialMT-31"/>
       <use xlink:href="#ArialMT-35" x="55.615234"/>
       <use xlink:href="#ArialMT-30" x="111.230469"/>
      </g>
     </g>
    </g>
    <g id="ytick_14">
     <g id="line2d_49">
      <path d="M 398.392459 97.552712 
L 689.522894 97.552712 
" clip-path="url(#p4dd144249e)" style="fill: none; stroke-dasharray: 2.96,1.28; stroke-dashoffset: 0; stroke: #cccccc; stroke-opacity: 0.6; stroke-width: 0.8"/>
     </g>
     <g id="line2d_50"/>
     <g id="text_28">
      <!-- 175 -->
      <g style="fill: #262626" transform="translate(378.209647 101.131618) scale(0.1 -0.1)">
       <use xlink:href="#ArialMT-31"/>
       <use xlink:href="#ArialMT-37" x="55.615234"/>
       <use xlink:href="#ArialMT-35" x="111.230469"/>
      </g>
     </g>
    </g>
    <g id="ytick_15">
     <g id="line2d_51">
      <path d="M 398.392459 56.768814 
L 689.522894 56.768814 
" clip-path="url(#p4dd144249e)" style="fill: none; stroke-dasharray: 2.96,1.28; stroke-dashoffset: 0; stroke: #cccccc; stroke-opacity: 0.6; stroke-width: 0.8"/>
     </g>
     <g id="line2d_52"/>
     <g id="text_29">
      <!-- 200 -->
      <g style="fill: #262626" transform="translate(378.209647 60.34772) scale(0.1 -0.1)">
       <use xlink:href="#ArialMT-32"/>
       <use xlink:href="#ArialMT-30" x="55.615234"/>
       <use xlink:href="#ArialMT-30" x="111.230469"/>
      </g>
     </g>
    </g>
    <g id="text_30">
     <!-- Tmax [minute] -->
     <g style="fill: #262626" transform="translate(370.982147 271.38875) rotate(-90) scale(0.16 -0.16)">
      <defs>
       <path id="Arial-BoldMT-54" d="M 1497 0 
L 1497 3806 
L 138 3806 
L 138 4581 
L 3778 4581 
L 3778 3806 
L 2422 3806 
L 2422 0 
L 1497 0 
z
" transform="scale(0.015625)"/>
       <path id="Arial-BoldMT-78" d="M 38 0 
L 1234 1709 
L 88 3319 
L 1159 3319 
L 1747 2406 
L 2366 3319 
L 3397 3319 
L 2272 1747 
L 3500 0 
L 2422 0 
L 1747 1028 
L 1066 0 
L 38 0 
z
" transform="scale(0.015625)"/>
      </defs>
      <use xlink:href="#Arial-BoldMT-54"/>
      <use xlink:href="#Arial-BoldMT-6d" x="61.083984"/>
      <use xlink:href="#Arial-BoldMT-61" x="150"/>
      <use xlink:href="#Arial-BoldMT-78" x="205.615234"/>
      <use xlink:href="#Arial-BoldMT-20" x="261.230469"/>
      <use xlink:href="#Arial-BoldMT-5b" x="289.013672"/>
      <use xlink:href="#Arial-BoldMT-6d" x="322.314453"/>
      <use xlink:href="#Arial-BoldMT-69" x="411.230469"/>
      <use xlink:href="#Arial-BoldMT-6e" x="439.013672"/>
      <use xlink:href="#Arial-BoldMT-75" x="500.097656"/>
      <use xlink:href="#Arial-BoldMT-74" x="561.181641"/>
      <use xlink:href="#Arial-BoldMT-65" x="594.482422"/>
      <use xlink:href="#Arial-BoldMT-5d" x="650.097656"/>
     </g>
    </g>
   </g>
   <g id="line2d_53">
    <path d="M 676.289692 383.04 
L 676.289692 50.4 
" clip-path="url(#p4dd144249e)" style="fill: none; stroke-dasharray: 5.55,2.4; stroke-dashoffset: 0; stroke: #808080; stroke-width: 1.5"/>
   </g>
   <g id="line2d_54">
    <path d="M 411.625661 161.28 
L 414.441236 161.28 
L 417.25681 161.28 
L 420.072385 161.28 
L 422.88796 161.28 
L 425.703535 161.28 
L 426.329218 161.28 
L 428.51911 161.28 
L 431.334684 161.28 
L 434.150259 161.28 
L 436.965834 161.28 
L 439.781409 161.28 
L 442.596984 161.28 
L 445.412558 161.28 
L 448.228133 161.28 
L 451.043708 161.28 
L 453.859283 161.28 
L 455.736333 161.28 
L 456.674858 161.28 
L 459.490432 161.28 
L 462.306007 161.28 
L 465.121582 161.28 
L 467.937157 161.28 
L 470.752732 161.28 
L 473.568307 161.28 
L 476.383881 161.28 
L 479.199456 161.28 
L 482.015031 161.28 
L 484.830606 161.28 
L 487.646181 161.28 
L 490.461755 161.28 
L 493.27733 161.28 
L 496.092905 161.28 
L 498.90848 161.28 
L 501.724055 161.28 
L 504.539629 161.28 
L 507.355204 161.28 
L 510.170779 161.28 
L 512.986354 161.28 
L 515.801929 161.28 
L 518.617503 161.28 
L 521.433078 161.28 
L 524.248653 161.28 
L 527.064228 161.28 
L 529.254119 161.28 
L 529.879803 161.28 
L 532.695377 161.28 
L 535.510952 161.28 
L 538.326527 161.28 
L 541.142102 161.28 
L 543.957677 161.28 
L 546.773251 161.28 
L 549.588826 161.28 
L 552.404401 161.28 
L 555.219976 161.28 
L 558.035551 161.28 
L 560.851125 161.28 
L 563.6667 161.28 
L 566.482275 161.28 
L 569.29785 161.28 
L 572.113425 161.28 
L 574.928999 161.28 
L 577.744574 161.28 
L 580.560149 161.28 
L 583.375724 161.28 
L 586.191299 161.28 
L 589.006874 161.28 
L 591.822448 161.28 
L 594.638023 161.28 
L 597.453598 161.28 
L 600.269173 161.28 
L 602.771906 161.28 
L 603.084748 161.28 
L 605.900322 161.28 
L 608.715897 161.28 
L 611.531472 161.28 
L 614.347047 161.28 
L 617.162622 161.28 
L 619.978196 161.28 
L 622.793771 161.28 
L 625.609346 161.28 
L 628.424921 161.28 
L 631.240496 161.28 
L 634.05607 161.28 
L 636.871645 161.28 
L 639.68722 161.28 
L 642.502795 161.28 
L 645.31837 161.28 
L 648.133944 161.28 
L 650.949519 161.28 
L 653.765094 161.28 
L 656.580669 161.28 
L 659.396244 161.28 
L 662.211818 161.28 
L 665.027393 161.28 
L 667.842968 161.28 
L 670.658543 161.28 
L 673.474118 161.28 
L 676.289692 161.28 
L 676.289692 161.28 
" clip-path="url(#p4dd144249e)" style="fill: none; stroke: #2ca02c; stroke-width: 2; stroke-linecap: round"/>
   </g>
   <g id="patch_8">
    <path d="M 398.392459 383.04 
L 398.392459 50.4 
" style="fill: none; stroke: #cccccc; stroke-linejoin: miter; stroke-linecap: square"/>
   </g>
   <g id="patch_9">
    <path d="M 689.522894 383.04 
L 689.522894 50.4 
" style="fill: none; stroke: #cccccc; stroke-linejoin: miter; stroke-linecap: square"/>
   </g>
   <g id="patch_10">
    <path d="M 398.392459 383.04 
L 689.522894 383.04 
" style="fill: none; stroke: #cccccc; stroke-linejoin: miter; stroke-linecap: square"/>
   </g>
   <g id="patch_11">
    <path d="M 398.392459 50.4 
L 689.522894 50.4 
" style="fill: none; stroke: #cccccc; stroke-linejoin: miter; stroke-linecap: square"/>
   </g>
   <g id="text_31">
    <!-- Tmax -->
    <g style="fill: #262626" transform="translate(520.447989 44.4) scale(0.18 -0.18)">
     <use xlink:href="#Arial-BoldMT-54"/>
     <use xlink:href="#Arial-BoldMT-6d" x="61.083984"/>
     <use xlink:href="#Arial-BoldMT-61" x="150"/>
     <use xlink:href="#Arial-BoldMT-78" x="205.615234"/>
    </g>
   </g>
  </g>
  <g id="axes_3">
   <g id="patch_12">
    <path d="M 747.748981 383.04 
L 1038.879416 383.04 
L 1038.879416 50.4 
L 747.748981 50.4 
z
" style="fill: #ffffff"/>
   </g>
   <g id="matplotlib.axis_5">
    <g id="xtick_11">
     <g id="line2d_55">
      <path d="M 790.389297 383.04 
L 790.389297 50.4 
" clip-path="url(#p79845cc8cf)" style="fill: none; stroke-dasharray: 2.96,1.28; stroke-dashoffset: 0; stroke: #cccccc; stroke-opacity: 0.6; stroke-width: 0.8"/>
     </g>
     <g id="line2d_56"/>
     <g id="text_32">
      <!-- 0.2 -->
      <g style="fill: #262626" transform="translate(783.439297 393.697812) scale(0.1 -0.1)">
       <use xlink:href="#ArialMT-30"/>
       <use xlink:href="#ArialMT-2e" x="55.615234"/>
       <use xlink:href="#ArialMT-32" x="83.398438"/>
      </g>
     </g>
    </g>
    <g id="xtick_12">
     <g id="line2d_57">
      <path d="M 849.203526 383.04 
L 849.203526 50.4 
" clip-path="url(#p79845cc8cf)" style="fill: none; stroke-dasharray: 2.96,1.28; stroke-dashoffset: 0; stroke: #cccccc; stroke-opacity: 0.6; stroke-width: 0.8"/>
     </g>
     <g id="line2d_58"/>
     <g id="text_33">
      <!-- 0.4 -->
      <g style="fill: #262626" transform="translate(842.253526 393.697812) scale(0.1 -0.1)">
       <use xlink:href="#ArialMT-30"/>
       <use xlink:href="#ArialMT-2e" x="55.615234"/>
       <use xlink:href="#ArialMT-34" x="83.398438"/>
      </g>
     </g>
    </g>
    <g id="xtick_13">
     <g id="line2d_59">
      <path d="M 908.017756 383.04 
L 908.017756 50.4 
" clip-path="url(#p79845cc8cf)" style="fill: none; stroke-dasharray: 2.96,1.28; stroke-dashoffset: 0; stroke: #cccccc; stroke-opacity: 0.6; stroke-width: 0.8"/>
     </g>
     <g id="line2d_60"/>
     <g id="text_34">
      <!-- 0.6 -->
      <g style="fill: #262626" transform="translate(901.067756 393.697812) scale(0.1 -0.1)">
       <use xlink:href="#ArialMT-30"/>
       <use xlink:href="#ArialMT-2e" x="55.615234"/>
       <use xlink:href="#ArialMT-36" x="83.398438"/>
      </g>
     </g>
    </g>
    <g id="xtick_14">
     <g id="line2d_61">
      <path d="M 966.831985 383.04 
L 966.831985 50.4 
" clip-path="url(#p79845cc8cf)" style="fill: none; stroke-dasharray: 2.96,1.28; stroke-dashoffset: 0; stroke: #cccccc; stroke-opacity: 0.6; stroke-width: 0.8"/>
     </g>
     <g id="line2d_62"/>
     <g id="text_35">
      <!-- 0.8 -->
      <g style="fill: #262626" transform="translate(959.881985 393.697812) scale(0.1 -0.1)">
       <use xlink:href="#ArialMT-30"/>
       <use xlink:href="#ArialMT-2e" x="55.615234"/>
       <use xlink:href="#ArialMT-38" x="83.398438"/>
      </g>
     </g>
    </g>
    <g id="xtick_15">
     <g id="line2d_63">
      <path d="M 1025.646214 383.04 
L 1025.646214 50.4 
" clip-path="url(#p79845cc8cf)" style="fill: none; stroke-dasharray: 2.96,1.28; stroke-dashoffset: 0; stroke: #cccccc; stroke-opacity: 0.6; stroke-width: 0.8"/>
     </g>
     <g id="line2d_64"/>
     <g id="text_36">
      <!-- 1.0 -->
      <g style="fill: #262626" transform="translate(1018.696214 393.697812) scale(0.1 -0.1)">
       <use xlink:href="#ArialMT-31"/>
       <use xlink:href="#ArialMT-2e" x="55.615234"/>
       <use xlink:href="#ArialMT-30" x="83.398438"/>
      </g>
     </g>
    </g>
    <g id="text_37">
     <!-- Renal function -->
     <g style="fill: #262626" transform="translate(837.764198 411.137812) scale(0.16 -0.16)">
      <use xlink:href="#Arial-BoldMT-52"/>
      <use xlink:href="#Arial-BoldMT-65" x="72.216797"/>
      <use xlink:href="#Arial-BoldMT-6e" x="127.832031"/>
      <use xlink:href="#Arial-BoldMT-61" x="188.916016"/>
      <use xlink:href="#Arial-BoldMT-6c" x="244.53125"/>
      <use xlink:href="#Arial-BoldMT-20" x="272.314453"/>
      <use xlink:href="#Arial-BoldMT-66" x="300.097656"/>
      <use xlink:href="#Arial-BoldMT-75" x="333.398438"/>
      <use xlink:href="#Arial-BoldMT-6e" x="394.482422"/>
      <use xlink:href="#Arial-BoldMT-63" x="455.566406"/>
      <use xlink:href="#Arial-BoldMT-74" x="511.181641"/>
      <use xlink:href="#Arial-BoldMT-69" x="544.482422"/>
      <use xlink:href="#Arial-BoldMT-6f" x="572.265625"/>
      <use xlink:href="#Arial-BoldMT-6e" x="633.349609"/>
     </g>
    </g>
   </g>
   <g id="matplotlib.axis_6">
    <g id="ytick_16">
     <g id="line2d_65">
      <path d="M 747.748981 383.04 
L 1038.879416 383.04 
" clip-path="url(#p79845cc8cf)" style="fill: none; stroke-dasharray: 2.96,1.28; stroke-dashoffset: 0; stroke: #cccccc; stroke-opacity: 0.6; stroke-width: 0.8"/>
     </g>
     <g id="line2d_66"/>
     <g id="text_38">
      <!-- 0 -->
      <g style="fill: #262626" transform="translate(738.688043 386.618906) scale(0.1 -0.1)">
       <use xlink:href="#ArialMT-30"/>
      </g>
     </g>
    </g>
    <g id="ytick_17">
     <g id="line2d_67">
      <path d="M 747.748981 330.715313 
L 1038.879416 330.715313 
" clip-path="url(#p79845cc8cf)" style="fill: none; stroke-dasharray: 2.96,1.28; stroke-dashoffset: 0; stroke: #cccccc; stroke-opacity: 0.6; stroke-width: 0.8"/>
     </g>
     <g id="line2d_68"/>
     <g id="text_39">
      <!-- 50 -->
      <g style="fill: #262626" transform="translate(733.127106 334.294219) scale(0.1 -0.1)">
       <use xlink:href="#ArialMT-35"/>
       <use xlink:href="#ArialMT-30" x="55.615234"/>
      </g>
     </g>
    </g>
    <g id="ytick_18">
     <g id="line2d_69">
      <path d="M 747.748981 278.390626 
L 1038.879416 278.390626 
" clip-path="url(#p79845cc8cf)" style="fill: none; stroke-dasharray: 2.96,1.28; stroke-dashoffset: 0; stroke: #cccccc; stroke-opacity: 0.6; stroke-width: 0.8"/>
     </g>
     <g id="line2d_70"/>
     <g id="text_40">
      <!-- 100 -->
      <g style="fill: #262626" transform="translate(727.566168 281.969532) scale(0.1 -0.1)">
       <use xlink:href="#ArialMT-31"/>
       <use xlink:href="#ArialMT-30" x="55.615234"/>
       <use xlink:href="#ArialMT-30" x="111.230469"/>
      </g>
     </g>
    </g>
    <g id="ytick_19">
     <g id="line2d_71">
      <path d="M 747.748981 226.065938 
L 1038.879416 226.065938 
" clip-path="url(#p79845cc8cf)" style="fill: none; stroke-dasharray: 2.96,1.28; stroke-dashoffset: 0; stroke: #cccccc; stroke-opacity: 0.6; stroke-width: 0.8"/>
     </g>
     <g id="line2d_72"/>
     <g id="text_41">
      <!-- 150 -->
      <g style="fill: #262626" transform="translate(727.566168 229.644845) scale(0.1 -0.1)">
       <use xlink:href="#ArialMT-31"/>
       <use xlink:href="#ArialMT-35" x="55.615234"/>
       <use xlink:href="#ArialMT-30" x="111.230469"/>
      </g>
     </g>
    </g>
    <g id="ytick_20">
     <g id="line2d_73">
      <path d="M 747.748981 173.741251 
L 1038.879416 173.741251 
" clip-path="url(#p79845cc8cf)" style="fill: none; stroke-dasharray: 2.96,1.28; stroke-dashoffset: 0; stroke: #cccccc; stroke-opacity: 0.6; stroke-width: 0.8"/>
     </g>
     <g id="line2d_74"/>
     <g id="text_42">
      <!-- 200 -->
      <g style="fill: #262626" transform="translate(727.566168 177.320157) scale(0.1 -0.1)">
       <use xlink:href="#ArialMT-32"/>
       <use xlink:href="#ArialMT-30" x="55.615234"/>
       <use xlink:href="#ArialMT-30" x="111.230469"/>
      </g>
     </g>
    </g>
    <g id="ytick_21">
     <g id="line2d_75">
      <path d="M 747.748981 121.416564 
L 1038.879416 121.416564 
" clip-path="url(#p79845cc8cf)" style="fill: none; stroke-dasharray: 2.96,1.28; stroke-dashoffset: 0; stroke: #cccccc; stroke-opacity: 0.6; stroke-width: 0.8"/>
     </g>
     <g id="line2d_76"/>
     <g id="text_43">
      <!-- 250 -->
      <g style="fill: #262626" transform="translate(727.566168 124.99547) scale(0.1 -0.1)">
       <use xlink:href="#ArialMT-32"/>
       <use xlink:href="#ArialMT-35" x="55.615234"/>
       <use xlink:href="#ArialMT-30" x="111.230469"/>
      </g>
     </g>
    </g>
    <g id="ytick_22">
     <g id="line2d_77">
      <path d="M 747.748981 69.091877 
L 1038.879416 69.091877 
" clip-path="url(#p79845cc8cf)" style="fill: none; stroke-dasharray: 2.96,1.28; stroke-dashoffset: 0; stroke: #cccccc; stroke-opacity: 0.6; stroke-width: 0.8"/>
     </g>
     <g id="line2d_78"/>
     <g id="text_44">
      <!-- 300 -->
      <g style="fill: #262626" transform="translate(727.566168 72.670783) scale(0.1 -0.1)">
       <defs>
        <path id="ArialMT-33" d="M 269 1209 
L 831 1284 
Q 928 806 1161 595 
Q 1394 384 1728 384 
Q 2125 384 2398 659 
Q 2672 934 2672 1341 
Q 2672 1728 2419 1979 
Q 2166 2231 1775 2231 
Q 1616 2231 1378 2169 
L 1441 2663 
Q 1497 2656 1531 2656 
Q 1891 2656 2178 2843 
Q 2466 3031 2466 3422 
Q 2466 3731 2256 3934 
Q 2047 4138 1716 4138 
Q 1388 4138 1169 3931 
Q 950 3725 888 3313 
L 325 3413 
Q 428 3978 793 4289 
Q 1159 4600 1703 4600 
Q 2078 4600 2393 4439 
Q 2709 4278 2876 4000 
Q 3044 3722 3044 3409 
Q 3044 3113 2884 2869 
Q 2725 2625 2413 2481 
Q 2819 2388 3044 2092 
Q 3269 1797 3269 1353 
Q 3269 753 2831 336 
Q 2394 -81 1725 -81 
Q 1122 -81 723 278 
Q 325 638 269 1209 
z
" transform="scale(0.015625)"/>
       </defs>
       <use xlink:href="#ArialMT-33"/>
       <use xlink:href="#ArialMT-30" x="55.615234"/>
       <use xlink:href="#ArialMT-30" x="111.230469"/>
      </g>
     </g>
    </g>
    <g id="text_45">
     <!-- Thalf [minute] -->
     <g style="fill: #262626" transform="translate(720.338668 269.59875) rotate(-90) scale(0.16 -0.16)">
      <defs>
       <path id="Arial-BoldMT-68" d="M 1334 4581 
L 1334 2897 
Q 1759 3394 2350 3394 
Q 2653 3394 2897 3281 
Q 3141 3169 3264 2994 
Q 3388 2819 3433 2606 
Q 3478 2394 3478 1947 
L 3478 0 
L 2600 0 
L 2600 1753 
Q 2600 2275 2550 2415 
Q 2500 2556 2373 2639 
Q 2247 2722 2056 2722 
Q 1838 2722 1666 2615 
Q 1494 2509 1414 2295 
Q 1334 2081 1334 1663 
L 1334 0 
L 456 0 
L 456 4581 
L 1334 4581 
z
" transform="scale(0.015625)"/>
      </defs>
      <use xlink:href="#Arial-BoldMT-54"/>
      <use xlink:href="#Arial-BoldMT-68" x="61.083984"/>
      <use xlink:href="#Arial-BoldMT-61" x="122.167969"/>
      <use xlink:href="#Arial-BoldMT-6c" x="177.783203"/>
      <use xlink:href="#Arial-BoldMT-66" x="205.566406"/>
      <use xlink:href="#Arial-BoldMT-20" x="238.867188"/>
      <use xlink:href="#Arial-BoldMT-5b" x="266.650391"/>
      <use xlink:href="#Arial-BoldMT-6d" x="299.951172"/>
      <use xlink:href="#Arial-BoldMT-69" x="388.867188"/>
      <use xlink:href="#Arial-BoldMT-6e" x="416.650391"/>
      <use xlink:href="#Arial-BoldMT-75" x="477.734375"/>
      <use xlink:href="#Arial-BoldMT-74" x="538.818359"/>
      <use xlink:href="#Arial-BoldMT-65" x="572.119141"/>
      <use xlink:href="#Arial-BoldMT-5d" x="627.734375"/>
     </g>
    </g>
   </g>
   <g id="line2d_79">
    <path d="M 1025.646214 383.04 
L 1025.646214 50.4 
" clip-path="url(#p79845cc8cf)" style="fill: none; stroke-dasharray: 5.55,2.4; stroke-dashoffset: 0; stroke: #808080; stroke-width: 1.5"/>
   </g>
   <g id="line2d_80">
    <path d="M 760.982183 161.28 
L 763.797757 161.28 
L 766.613332 161.28 
L 769.428907 161.28 
L 772.244482 161.28 
L 775.060057 161.28 
L 775.68574 161.28 
L 777.875631 161.28 
L 780.691206 161.28 
L 783.506781 161.28 
L 786.322356 161.28 
L 789.137931 161.28 
L 791.953505 161.28 
L 794.76908 161.28 
L 797.584655 161.28 
L 800.40023 161.28 
L 803.215805 161.28 
L 805.092854 161.28 
L 806.031379 161.28 
L 808.846954 161.28 
L 811.662529 161.28 
L 814.478104 161.28 
L 817.293679 161.28 
L 820.109253 161.28 
L 822.924828 161.28 
L 825.740403 161.28 
L 828.555978 161.28 
L 831.371553 161.28 
L 834.187127 161.28 
L 837.002702 161.28 
L 839.818277 161.28 
L 842.633852 161.28 
L 845.449427 161.28 
L 848.265001 161.28 
L 851.080576 161.28 
L 853.896151 161.28 
L 856.711726 161.28 
L 859.527301 161.28 
L 862.342876 161.28 
L 865.15845 161.28 
L 867.974025 161.28 
L 870.7896 161.28 
L 873.605175 161.28 
L 876.42075 161.28 
L 878.610641 161.28 
L 879.236324 161.28 
L 882.051899 161.28 
L 884.867474 161.28 
L 887.683049 161.28 
L 890.498624 161.28 
L 893.314198 161.28 
L 896.129773 161.28 
L 898.945348 161.28 
L 901.760923 161.28 
L 904.576498 161.28 
L 907.392072 161.28 
L 910.207647 161.28 
L 913.023222 161.28 
L 915.838797 161.28 
L 918.654372 161.28 
L 921.469946 161.28 
L 924.285521 161.28 
L 927.101096 161.28 
L 929.916671 161.28 
L 932.732246 161.28 
L 935.54782 161.28 
L 938.363395 161.28 
L 941.17897 161.28 
L 943.994545 161.28 
L 946.81012 161.28 
L 949.625694 161.28 
L 952.128428 161.28 
L 952.441269 161.28 
L 955.256844 161.28 
L 958.072419 161.28 
L 960.887994 161.28 
L 963.703568 161.28 
L 966.519143 161.28 
L 969.334718 161.28 
L 972.150293 161.28 
L 974.965868 161.28 
L 977.781443 161.28 
L 980.597017 161.28 
L 983.412592 161.28 
L 986.228167 161.28 
L 989.043742 161.28 
L 991.859317 161.28 
L 994.674891 161.28 
L 997.490466 161.28 
L 1000.306041 161.28 
L 1003.121616 161.28 
L 1005.937191 161.28 
L 1008.752765 161.28 
L 1011.56834 161.28 
L 1014.383915 161.28 
L 1017.19949 161.28 
L 1020.015065 161.28 
L 1022.830639 161.28 
L 1025.646214 161.28 
L 1025.646214 161.28 
" clip-path="url(#p79845cc8cf)" style="fill: none; stroke: #2ca02c; stroke-width: 2; stroke-linecap: round"/>
   </g>
   <g id="patch_13">
    <path d="M 747.748981 383.04 
L 747.748981 50.4 
" style="fill: none; stroke: #cccccc; stroke-linejoin: miter; stroke-linecap: square"/>
   </g>
   <g id="patch_14">
    <path d="M 1038.879416 383.04 
L 1038.879416 50.4 
" style="fill: none; stroke: #cccccc; stroke-linejoin: miter; stroke-linecap: square"/>
   </g>
   <g id="patch_15">
    <path d="M 747.748981 383.04 
L 1038.879416 383.04 
" style="fill: none; stroke: #cccccc; stroke-linejoin: miter; stroke-linecap: square"/>
   </g>
   <g id="patch_16">
    <path d="M 747.748981 50.4 
L 1038.879416 50.4 
" style="fill: none; stroke: #cccccc; stroke-linejoin: miter; stroke-linecap: square"/>
   </g>
   <g id="text_46">
    <!-- Thalf -->
    <g style="fill: #262626" transform="translate(871.818261 44.4) scale(0.18 -0.18)">
     <use xlink:href="#Arial-BoldMT-54"/>
     <use xlink:href="#Arial-BoldMT-68" x="61.083984"/>
     <use xlink:href="#Arial-BoldMT-61" x="122.167969"/>
     <use xlink:href="#Arial-BoldMT-6c" x="177.783203"/>
     <use xlink:href="#Arial-BoldMT-66" x="205.566406"/>
    </g>
   </g>
  </g>
  <g id="axes_4">
   <g id="patch_17">
    <path d="M 1097.105503 383.04 
L 1388.235938 383.04 
L 1388.235938 50.4 
L 1097.105503 50.4 
z
" style="fill: #ffffff"/>
   </g>
   <g id="matplotlib.axis_7">
    <g id="xtick_16">
     <g id="line2d_81">
      <path d="M 1139.745819 383.04 
L 1139.745819 50.4 
" clip-path="url(#p5cf69ec690)" style="fill: none; stroke-dasharray: 2.96,1.28; stroke-dashoffset: 0; stroke: #cccccc; stroke-opacity: 0.6; stroke-width: 0.8"/>
     </g>
     <g id="line2d_82"/>
     <g id="text_47">
      <!-- 0.2 -->
      <g style="fill: #262626" transform="translate(1132.795819 393.697812) scale(0.1 -0.1)">
       <use xlink:href="#ArialMT-30"/>
       <use xlink:href="#ArialMT-2e" x="55.615234"/>
       <use xlink:href="#ArialMT-32" x="83.398438"/>
      </g>
     </g>
    </g>
    <g id="xtick_17">
     <g id="line2d_83">
      <path d="M 1198.560048 383.04 
L 1198.560048 50.4 
" clip-path="url(#p5cf69ec690)" style="fill: none; stroke-dasharray: 2.96,1.28; stroke-dashoffset: 0; stroke: #cccccc; stroke-opacity: 0.6; stroke-width: 0.8"/>
     </g>
     <g id="line2d_84"/>
     <g id="text_48">
      <!-- 0.4 -->
      <g style="fill: #262626" transform="translate(1191.610048 393.697812) scale(0.1 -0.1)">
       <use xlink:href="#ArialMT-30"/>
       <use xlink:href="#ArialMT-2e" x="55.615234"/>
       <use xlink:href="#ArialMT-34" x="83.398438"/>
      </g>
     </g>
    </g>
    <g id="xtick_18">
     <g id="line2d_85">
      <path d="M 1257.374277 383.04 
L 1257.374277 50.4 
" clip-path="url(#p5cf69ec690)" style="fill: none; stroke-dasharray: 2.96,1.28; stroke-dashoffset: 0; stroke: #cccccc; stroke-opacity: 0.6; stroke-width: 0.8"/>
     </g>
     <g id="line2d_86"/>
     <g id="text_49">
      <!-- 0.6 -->
      <g style="fill: #262626" transform="translate(1250.424277 393.697812) scale(0.1 -0.1)">
       <use xlink:href="#ArialMT-30"/>
       <use xlink:href="#ArialMT-2e" x="55.615234"/>
       <use xlink:href="#ArialMT-36" x="83.398438"/>
      </g>
     </g>
    </g>
    <g id="xtick_19">
     <g id="line2d_87">
      <path d="M 1316.188507 383.04 
L 1316.188507 50.4 
" clip-path="url(#p5cf69ec690)" style="fill: none; stroke-dasharray: 2.96,1.28; stroke-dashoffset: 0; stroke: #cccccc; stroke-opacity: 0.6; stroke-width: 0.8"/>
     </g>
     <g id="line2d_88"/>
     <g id="text_50">
      <!-- 0.8 -->
      <g style="fill: #262626" transform="translate(1309.238507 393.697812) scale(0.1 -0.1)">
       <use xlink:href="#ArialMT-30"/>
       <use xlink:href="#ArialMT-2e" x="55.615234"/>
       <use xlink:href="#ArialMT-38" x="83.398438"/>
      </g>
     </g>
    </g>
    <g id="xtick_20">
     <g id="line2d_89">
      <path d="M 1375.002736 383.04 
L 1375.002736 50.4 
" clip-path="url(#p5cf69ec690)" style="fill: none; stroke-dasharray: 2.96,1.28; stroke-dashoffset: 0; stroke: #cccccc; stroke-opacity: 0.6; stroke-width: 0.8"/>
     </g>
     <g id="line2d_90"/>
     <g id="text_51">
      <!-- 1.0 -->
      <g style="fill: #262626" transform="translate(1368.052736 393.697812) scale(0.1 -0.1)">
       <use xlink:href="#ArialMT-31"/>
       <use xlink:href="#ArialMT-2e" x="55.615234"/>
       <use xlink:href="#ArialMT-30" x="83.398438"/>
      </g>
     </g>
    </g>
    <g id="text_52">
     <!-- Renal function -->
     <g style="fill: #262626" transform="translate(1187.12072 411.137812) scale(0.16 -0.16)">
      <use xlink:href="#Arial-BoldMT-52"/>
      <use xlink:href="#Arial-BoldMT-65" x="72.216797"/>
      <use xlink:href="#Arial-BoldMT-6e" x="127.832031"/>
      <use xlink:href="#Arial-BoldMT-61" x="188.916016"/>
      <use xlink:href="#Arial-BoldMT-6c" x="244.53125"/>
      <use xlink:href="#Arial-BoldMT-20" x="272.314453"/>
      <use xlink:href="#Arial-BoldMT-66" x="300.097656"/>
      <use xlink:href="#Arial-BoldMT-75" x="333.398438"/>
      <use xlink:href="#Arial-BoldMT-6e" x="394.482422"/>
      <use xlink:href="#Arial-BoldMT-63" x="455.566406"/>
      <use xlink:href="#Arial-BoldMT-74" x="511.181641"/>
      <use xlink:href="#Arial-BoldMT-69" x="544.482422"/>
      <use xlink:href="#Arial-BoldMT-6f" x="572.265625"/>
      <use xlink:href="#Arial-BoldMT-6e" x="633.349609"/>
     </g>
    </g>
   </g>
   <g id="matplotlib.axis_8">
    <g id="ytick_23">
     <g id="line2d_91">
      <path d="M 1097.105503 383.04 
L 1388.235938 383.04 
" clip-path="url(#p5cf69ec690)" style="fill: none; stroke-dasharray: 2.96,1.28; stroke-dashoffset: 0; stroke: #cccccc; stroke-opacity: 0.6; stroke-width: 0.8"/>
     </g>
     <g id="line2d_92"/>
     <g id="text_53">
      <!-- 0 -->
      <g style="fill: #262626" transform="translate(1088.044565 386.618906) scale(0.1 -0.1)">
       <use xlink:href="#ArialMT-30"/>
      </g>
     </g>
    </g>
    <g id="ytick_24">
     <g id="line2d_93">
      <path d="M 1097.105503 326.793705 
L 1388.235938 326.793705 
" clip-path="url(#p5cf69ec690)" style="fill: none; stroke-dasharray: 2.96,1.28; stroke-dashoffset: 0; stroke: #cccccc; stroke-opacity: 0.6; stroke-width: 0.8"/>
     </g>
     <g id="line2d_94"/>
     <g id="text_54">
      <!-- 5 -->
      <g style="fill: #262626" transform="translate(1088.044565 330.372611) scale(0.1 -0.1)">
       <use xlink:href="#ArialMT-35"/>
      </g>
     </g>
    </g>
    <g id="ytick_25">
     <g id="line2d_95">
      <path d="M 1097.105503 270.54741 
L 1388.235938 270.54741 
" clip-path="url(#p5cf69ec690)" style="fill: none; stroke-dasharray: 2.96,1.28; stroke-dashoffset: 0; stroke: #cccccc; stroke-opacity: 0.6; stroke-width: 0.8"/>
     </g>
     <g id="line2d_96"/>
     <g id="text_55">
      <!-- 10 -->
      <g style="fill: #262626" transform="translate(1082.483628 274.126316) scale(0.1 -0.1)">
       <use xlink:href="#ArialMT-31"/>
       <use xlink:href="#ArialMT-30" x="55.615234"/>
      </g>
     </g>
    </g>
    <g id="ytick_26">
     <g id="line2d_97">
      <path d="M 1097.105503 214.301115 
L 1388.235938 214.301115 
" clip-path="url(#p5cf69ec690)" style="fill: none; stroke-dasharray: 2.96,1.28; stroke-dashoffset: 0; stroke: #cccccc; stroke-opacity: 0.6; stroke-width: 0.8"/>
     </g>
     <g id="line2d_98"/>
     <g id="text_56">
      <!-- 15 -->
      <g style="fill: #262626" transform="translate(1082.483628 217.880021) scale(0.1 -0.1)">
       <use xlink:href="#ArialMT-31"/>
       <use xlink:href="#ArialMT-35" x="55.615234"/>
      </g>
     </g>
    </g>
    <g id="ytick_27">
     <g id="line2d_99">
      <path d="M 1097.105503 158.05482 
L 1388.235938 158.05482 
" clip-path="url(#p5cf69ec690)" style="fill: none; stroke-dasharray: 2.96,1.28; stroke-dashoffset: 0; stroke: #cccccc; stroke-opacity: 0.6; stroke-width: 0.8"/>
     </g>
     <g id="line2d_100"/>
     <g id="text_57">
      <!-- 20 -->
      <g style="fill: #262626" transform="translate(1082.483628 161.633726) scale(0.1 -0.1)">
       <use xlink:href="#ArialMT-32"/>
       <use xlink:href="#ArialMT-30" x="55.615234"/>
      </g>
     </g>
    </g>
    <g id="ytick_28">
     <g id="line2d_101">
      <path d="M 1097.105503 101.808524 
L 1388.235938 101.808524 
" clip-path="url(#p5cf69ec690)" style="fill: none; stroke-dasharray: 2.96,1.28; stroke-dashoffset: 0; stroke: #cccccc; stroke-opacity: 0.6; stroke-width: 0.8"/>
     </g>
     <g id="line2d_102"/>
     <g id="text_58">
      <!-- 25 -->
      <g style="fill: #262626" transform="translate(1082.483628 105.387431) scale(0.1 -0.1)">
       <use xlink:href="#ArialMT-32"/>
       <use xlink:href="#ArialMT-35" x="55.615234"/>
      </g>
     </g>
    </g>
    <g id="text_59">
     <!-- CL [liter * milligram / millimole / minute] -->
     <g style="fill: #262626" transform="translate(1075.116128 366.82125) rotate(-90) scale(0.16 -0.16)">
      <defs>
       <path id="Arial-BoldMT-4c" d="M 491 0 
L 491 4544 
L 1416 4544 
L 1416 772 
L 3716 772 
L 3716 0 
L 491 0 
z
" transform="scale(0.015625)"/>
       <path id="Arial-BoldMT-67" d="M 378 -219 
L 1381 -341 
Q 1406 -516 1497 -581 
Q 1622 -675 1891 -675 
Q 2234 -675 2406 -572 
Q 2522 -503 2581 -350 
Q 2622 -241 2622 53 
L 2622 538 
Q 2228 0 1628 0 
Q 959 0 569 566 
Q 263 1013 263 1678 
Q 263 2513 664 2953 
Q 1066 3394 1663 3394 
Q 2278 3394 2678 2853 
L 2678 3319 
L 3500 3319 
L 3500 341 
Q 3500 -247 3403 -537 
Q 3306 -828 3131 -993 
Q 2956 -1159 2664 -1253 
Q 2372 -1347 1925 -1347 
Q 1081 -1347 728 -1058 
Q 375 -769 375 -325 
Q 375 -281 378 -219 
z
M 1163 1728 
Q 1163 1200 1367 954 
Q 1572 709 1872 709 
Q 2194 709 2416 961 
Q 2638 1213 2638 1706 
Q 2638 2222 2425 2472 
Q 2213 2722 1888 2722 
Q 1572 2722 1367 2476 
Q 1163 2231 1163 1728 
z
" transform="scale(0.015625)"/>
      </defs>
      <use xlink:href="#Arial-BoldMT-43"/>
      <use xlink:href="#Arial-BoldMT-4c" x="72.216797"/>
      <use xlink:href="#Arial-BoldMT-20" x="131.550781"/>
      <use xlink:href="#Arial-BoldMT-5b" x="159.333984"/>
      <use xlink:href="#Arial-BoldMT-6c" x="192.634766"/>
      <use xlink:href="#Arial-BoldMT-69" x="220.417969"/>
      <use xlink:href="#Arial-BoldMT-74" x="248.201172"/>
      <use xlink:href="#Arial-BoldMT-65" x="281.501953"/>
      <use xlink:href="#Arial-BoldMT-72" x="337.117188"/>
      <use xlink:href="#Arial-BoldMT-20" x="376.033203"/>
      <use xlink:href="#Arial-BoldMT-2a" x="403.816406"/>
      <use xlink:href="#Arial-BoldMT-20" x="442.732422"/>
      <use xlink:href="#Arial-BoldMT-6d" x="470.515625"/>
      <use xlink:href="#Arial-BoldMT-69" x="559.431641"/>
      <use xlink:href="#Arial-BoldMT-6c" x="587.214844"/>
      <use xlink:href="#Arial-BoldMT-6c" x="614.998047"/>
      <use xlink:href="#Arial-BoldMT-69" x="642.78125"/>
      <use xlink:href="#Arial-BoldMT-67" x="670.564453"/>
      <use xlink:href="#Arial-BoldMT-72" x="731.648438"/>
      <use xlink:href="#Arial-BoldMT-61" x="770.564453"/>
      <use xlink:href="#Arial-BoldMT-6d" x="826.179688"/>
      <use xlink:href="#Arial-BoldMT-20" x="915.095703"/>
      <use xlink:href="#Arial-BoldMT-2f" x="942.878906"/>
      <use xlink:href="#Arial-BoldMT-20" x="970.662109"/>
      <use xlink:href="#Arial-BoldMT-6d" x="998.445312"/>
      <use xlink:href="#Arial-BoldMT-69" x="1087.361328"/>
      <use xlink:href="#Arial-BoldMT-6c" x="1115.144531"/>
      <use xlink:href="#Arial-BoldMT-6c" x="1142.927734"/>
      <use xlink:href="#Arial-BoldMT-69" x="1170.710938"/>
      <use xlink:href="#Arial-BoldMT-6d" x="1198.494141"/>
      <use xlink:href="#Arial-BoldMT-6f" x="1287.410156"/>
      <use xlink:href="#Arial-BoldMT-6c" x="1348.494141"/>
      <use xlink:href="#Arial-BoldMT-65" x="1376.277344"/>
      <use xlink:href="#Arial-BoldMT-20" x="1431.892578"/>
      <use xlink:href="#Arial-BoldMT-2f" x="1459.675781"/>
      <use xlink:href="#Arial-BoldMT-20" x="1487.458984"/>
      <use xlink:href="#Arial-BoldMT-6d" x="1515.242188"/>
      <use xlink:href="#Arial-BoldMT-69" x="1604.158203"/>
      <use xlink:href="#Arial-BoldMT-6e" x="1631.941406"/>
      <use xlink:href="#Arial-BoldMT-75" x="1693.025391"/>
      <use xlink:href="#Arial-BoldMT-74" x="1754.109375"/>
      <use xlink:href="#Arial-BoldMT-65" x="1787.410156"/>
      <use xlink:href="#Arial-BoldMT-5d" x="1843.025391"/>
     </g>
    </g>
   </g>
   <g id="line2d_103">
    <path d="M 1375.002736 383.04 
L 1375.002736 50.4 
" clip-path="url(#p5cf69ec690)" style="fill: none; stroke-dasharray: 5.55,2.4; stroke-dashoffset: 0; stroke: #808080; stroke-width: 1.5"/>
   </g>
   <g id="line2d_104">
    <path d="M 1110.338704 161.28 
L 1113.154279 161.28 
L 1115.969854 161.28 
L 1118.785429 161.28 
L 1121.601004 161.28 
L 1124.416578 161.28 
L 1125.042262 161.28 
L 1127.232153 161.28 
L 1130.047728 161.28 
L 1132.863303 161.28 
L 1135.678878 161.28 
L 1138.494452 161.28 
L 1141.310027 161.28 
L 1144.125602 161.28 
L 1146.941177 161.28 
L 1149.756752 161.28 
L 1152.572326 161.28 
L 1154.449376 161.28 
L 1155.387901 161.28 
L 1158.203476 161.28 
L 1161.019051 161.28 
L 1163.834626 161.28 
L 1166.6502 161.28 
L 1169.465775 161.28 
L 1172.28135 161.28 
L 1175.096925 161.28 
L 1177.9125 161.28 
L 1180.728074 161.28 
L 1183.543649 161.28 
L 1186.359224 161.28 
L 1189.174799 161.28 
L 1191.990374 161.28 
L 1194.805948 161.28 
L 1197.621523 161.28 
L 1200.437098 161.28 
L 1203.252673 161.28 
L 1206.068248 161.28 
L 1208.883822 161.28 
L 1211.699397 161.28 
L 1214.514972 161.28 
L 1217.330547 161.28 
L 1220.146122 161.28 
L 1222.961696 161.28 
L 1225.777271 161.28 
L 1227.967163 161.28 
L 1228.592846 161.28 
L 1231.408421 161.28 
L 1234.223996 161.28 
L 1237.03957 161.28 
L 1239.855145 161.28 
L 1242.67072 161.28 
L 1245.486295 161.28 
L 1248.30187 161.28 
L 1251.117445 161.28 
L 1253.933019 161.28 
L 1256.748594 161.28 
L 1259.564169 161.28 
L 1262.379744 161.28 
L 1265.195319 161.28 
L 1268.010893 161.28 
L 1270.826468 161.28 
L 1273.642043 161.28 
L 1276.457618 161.28 
L 1279.273193 161.28 
L 1282.088767 161.28 
L 1284.904342 161.28 
L 1287.719917 161.28 
L 1290.535492 161.28 
L 1293.351067 161.28 
L 1296.166641 161.28 
L 1298.982216 161.28 
L 1301.484949 161.28 
L 1301.797791 161.28 
L 1304.613366 161.28 
L 1307.428941 161.28 
L 1310.244515 161.28 
L 1313.06009 161.28 
L 1315.875665 161.28 
L 1318.69124 161.28 
L 1321.506815 161.28 
L 1324.322389 161.28 
L 1327.137964 161.28 
L 1329.953539 161.28 
L 1332.769114 161.28 
L 1335.584689 161.28 
L 1338.400263 161.28 
L 1341.215838 161.28 
L 1344.031413 161.28 
L 1346.846988 161.28 
L 1349.662563 161.28 
L 1352.478137 161.28 
L 1355.293712 161.28 
L 1358.109287 161.28 
L 1360.924862 161.28 
L 1363.740437 161.28 
L 1366.556012 161.28 
L 1369.371586 161.28 
L 1372.187161 161.28 
L 1375.002736 161.28 
L 1375.002736 161.28 
" clip-path="url(#p5cf69ec690)" style="fill: none; stroke: #2ca02c; stroke-width: 2; stroke-linecap: round"/>
   </g>
   <g id="patch_18">
    <path d="M 1097.105503 383.04 
L 1097.105503 50.4 
" style="fill: none; stroke: #cccccc; stroke-linejoin: miter; stroke-linecap: square"/>
   </g>
   <g id="patch_19">
    <path d="M 1388.235938 383.04 
L 1388.235938 50.4 
" style="fill: none; stroke: #cccccc; stroke-linejoin: miter; stroke-linecap: square"/>
   </g>
   <g id="patch_20">
    <path d="M 1097.105503 383.04 
L 1388.235938 383.04 
" style="fill: none; stroke: #cccccc; stroke-linejoin: miter; stroke-linecap: square"/>
   </g>
   <g id="patch_21">
    <path d="M 1097.105503 50.4 
L 1388.235938 50.4 
" style="fill: none; stroke: #cccccc; stroke-linejoin: miter; stroke-linecap: square"/>
   </g>
   <g id="text_60">
    <!-- CL -->
    <g style="fill: #262626" transform="translate(1230.674001 44.4) scale(0.18 -0.18)">
     <use xlink:href="#Arial-BoldMT-43"/>
     <use xlink:href="#Arial-BoldMT-4c" x="72.216797"/>
    </g>
   </g>
  </g>
  <g id="text_61">
   <!-- PK Parameters: Glimepiride (Scan_po_renal) -->
   <g style="fill: #262626" transform="translate(462.904375 23.215312) scale(0.22 -0.22)">
    <defs>
     <path id="Arial-BoldMT-50" d="M 466 0 
L 466 4581 
L 1950 4581 
Q 2794 4581 3050 4513 
Q 3444 4409 3709 4064 
Q 3975 3719 3975 3172 
Q 3975 2750 3822 2462 
Q 3669 2175 3433 2011 
Q 3197 1847 2953 1794 
Q 2622 1728 1994 1728 
L 1391 1728 
L 1391 0 
L 466 0 
z
M 1391 3806 
L 1391 2506 
L 1897 2506 
Q 2444 2506 2628 2578 
Q 2813 2650 2917 2803 
Q 3022 2956 3022 3159 
Q 3022 3409 2875 3571 
Q 2728 3734 2503 3775 
Q 2338 3806 1838 3806 
L 1391 3806 
z
" transform="scale(0.015625)"/>
     <path id="Arial-BoldMT-4b" d="M 478 0 
L 478 4581 
L 1403 4581 
L 1403 2547 
L 3272 4581 
L 4516 4581 
L 2791 2797 
L 4609 0 
L 3413 0 
L 2153 2150 
L 1403 1384 
L 1403 0 
L 478 0 
z
" transform="scale(0.015625)"/>
     <path id="Arial-BoldMT-73" d="M 150 947 
L 1031 1081 
Q 1088 825 1259 692 
Q 1431 559 1741 559 
Q 2081 559 2253 684 
Q 2369 772 2369 919 
Q 2369 1019 2306 1084 
Q 2241 1147 2013 1200 
Q 950 1434 666 1628 
Q 272 1897 272 2375 
Q 272 2806 612 3100 
Q 953 3394 1669 3394 
Q 2350 3394 2681 3172 
Q 3013 2950 3138 2516 
L 2309 2363 
Q 2256 2556 2107 2659 
Q 1959 2763 1684 2763 
Q 1338 2763 1188 2666 
Q 1088 2597 1088 2488 
Q 1088 2394 1175 2328 
Q 1294 2241 1995 2081 
Q 2697 1922 2975 1691 
Q 3250 1456 3250 1038 
Q 3250 581 2869 253 
Q 2488 -75 1741 -75 
Q 1063 -75 667 200 
Q 272 475 150 947 
z
" transform="scale(0.015625)"/>
     <path id="Arial-BoldMT-3a" d="M 628 2441 
L 628 3319 
L 1506 3319 
L 1506 2441 
L 628 2441 
z
M 628 0 
L 628 878 
L 1506 878 
L 1506 0 
L 628 0 
z
" transform="scale(0.015625)"/>
     <path id="Arial-BoldMT-47" d="M 2597 1684 
L 2597 2456 
L 4591 2456 
L 4591 631 
Q 4300 350 3748 136 
Q 3197 -78 2631 -78 
Q 1913 -78 1378 223 
Q 844 525 575 1086 
Q 306 1647 306 2306 
Q 306 3022 606 3578 
Q 906 4134 1484 4431 
Q 1925 4659 2581 4659 
Q 3434 4659 3914 4301 
Q 4394 3944 4531 3313 
L 3613 3141 
Q 3516 3478 3248 3673 
Q 2981 3869 2581 3869 
Q 1975 3869 1617 3484 
Q 1259 3100 1259 2344 
Q 1259 1528 1621 1120 
Q 1984 713 2572 713 
Q 2863 713 3155 827 
Q 3447 941 3656 1103 
L 3656 1684 
L 2597 1684 
z
" transform="scale(0.015625)"/>
     <path id="Arial-BoldMT-70" d="M 434 3319 
L 1253 3319 
L 1253 2831 
Q 1413 3081 1684 3237 
Q 1956 3394 2288 3394 
Q 2866 3394 3269 2941 
Q 3672 2488 3672 1678 
Q 3672 847 3265 386 
Q 2859 -75 2281 -75 
Q 2006 -75 1782 34 
Q 1559 144 1313 409 
L 1313 -1263 
L 434 -1263 
L 434 3319 
z
M 1303 1716 
Q 1303 1156 1525 889 
Q 1747 622 2066 622 
Q 2372 622 2575 867 
Q 2778 1113 2778 1672 
Q 2778 2194 2568 2447 
Q 2359 2700 2050 2700 
Q 1728 2700 1515 2451 
Q 1303 2203 1303 1716 
z
" transform="scale(0.015625)"/>
     <path id="Arial-BoldMT-64" d="M 3503 0 
L 2688 0 
L 2688 488 
Q 2484 203 2207 64 
Q 1931 -75 1650 -75 
Q 1078 -75 670 386 
Q 263 847 263 1672 
Q 263 2516 659 2955 
Q 1056 3394 1663 3394 
Q 2219 3394 2625 2931 
L 2625 4581 
L 3503 4581 
L 3503 0 
z
M 1159 1731 
Q 1159 1200 1306 963 
Q 1519 619 1900 619 
Q 2203 619 2415 876 
Q 2628 1134 2628 1647 
Q 2628 2219 2422 2470 
Q 2216 2722 1894 2722 
Q 1581 2722 1370 2473 
Q 1159 2225 1159 1731 
z
" transform="scale(0.015625)"/>
     <path id="Arial-BoldMT-28" d="M 1916 -1347 
L 1313 -1347 
Q 834 -625 584 153 
Q 334 931 334 1659 
Q 334 2563 644 3369 
Q 913 4069 1325 4659 
L 1925 4659 
Q 1497 3713 1336 3048 
Q 1175 2384 1175 1641 
Q 1175 1128 1270 590 
Q 1366 53 1531 -431 
Q 1641 -750 1916 -1347 
z
" transform="scale(0.015625)"/>
     <path id="Arial-BoldMT-53" d="M 231 1491 
L 1131 1578 
Q 1213 1125 1461 912 
Q 1709 700 2131 700 
Q 2578 700 2804 889 
Q 3031 1078 3031 1331 
Q 3031 1494 2936 1608 
Q 2841 1722 2603 1806 
Q 2441 1863 1863 2006 
Q 1119 2191 819 2459 
Q 397 2838 397 3381 
Q 397 3731 595 4036 
Q 794 4341 1167 4500 
Q 1541 4659 2069 4659 
Q 2931 4659 3367 4281 
Q 3803 3903 3825 3272 
L 2900 3231 
Q 2841 3584 2645 3739 
Q 2450 3894 2059 3894 
Q 1656 3894 1428 3728 
Q 1281 3622 1281 3444 
Q 1281 3281 1419 3166 
Q 1594 3019 2269 2859 
Q 2944 2700 3267 2529 
Q 3591 2359 3773 2064 
Q 3956 1769 3956 1334 
Q 3956 941 3737 597 
Q 3519 253 3119 86 
Q 2719 -81 2122 -81 
Q 1253 -81 787 320 
Q 322 722 231 1491 
z
" transform="scale(0.015625)"/>
     <path id="Arial-BoldMT-5f" d="M -59 -1266 
L -59 -697 
L 3591 -697 
L 3591 -1266 
L -59 -1266 
z
" transform="scale(0.015625)"/>
     <path id="Arial-BoldMT-29" d="M 216 -1347 
Q 475 -791 581 -494 
Q 688 -197 778 190 
Q 869 578 912 926 
Q 956 1275 956 1641 
Q 956 2384 797 3048 
Q 638 3713 209 4659 
L 806 4659 
Q 1278 3988 1539 3234 
Q 1800 2481 1800 1706 
Q 1800 1053 1594 306 
Q 1359 -531 822 -1347 
L 216 -1347 
z
" transform="scale(0.015625)"/>
    </defs>
    <use xlink:href="#Arial-BoldMT-50"/>
    <use xlink:href="#Arial-BoldMT-4b" x="66.699219"/>
    <use xlink:href="#Arial-BoldMT-20" x="138.916016"/>
    <use xlink:href="#Arial-BoldMT-50" x="166.699219"/>
    <use xlink:href="#Arial-BoldMT-61" x="233.398438"/>
    <use xlink:href="#Arial-BoldMT-72" x="289.013672"/>
    <use xlink:href="#Arial-BoldMT-61" x="327.929688"/>
    <use xlink:href="#Arial-BoldMT-6d" x="383.544922"/>
    <use xlink:href="#Arial-BoldMT-65" x="472.460938"/>
    <use xlink:href="#Arial-BoldMT-74" x="528.076172"/>
    <use xlink:href="#Arial-BoldMT-65" x="561.376953"/>
    <use xlink:href="#Arial-BoldMT-72" x="616.992188"/>
    <use xlink:href="#Arial-BoldMT-73" x="655.908203"/>
    <use xlink:href="#Arial-BoldMT-3a" x="711.523438"/>
    <use xlink:href="#Arial-BoldMT-20" x="744.824219"/>
    <use xlink:href="#Arial-BoldMT-47" x="772.607422"/>
    <use xlink:href="#Arial-BoldMT-6c" x="850.390625"/>
    <use xlink:href="#Arial-BoldMT-69" x="878.173828"/>
    <use xlink:href="#Arial-BoldMT-6d" x="905.957031"/>
    <use xlink:href="#Arial-BoldMT-65" x="994.873047"/>
    <use xlink:href="#Arial-BoldMT-70" x="1050.488281"/>
    <use xlink:href="#Arial-BoldMT-69" x="1111.572266"/>
    <use xlink:href="#Arial-BoldMT-72" x="1139.355469"/>
    <use xlink:href="#Arial-BoldMT-69" x="1178.271484"/>
    <use xlink:href="#Arial-BoldMT-64" x="1206.054688"/>
    <use xlink:href="#Arial-BoldMT-65" x="1267.138672"/>
    <use xlink:href="#Arial-BoldMT-20" x="1322.753906"/>
    <use xlink:href="#Arial-BoldMT-28" x="1350.537109"/>
    <use xlink:href="#Arial-BoldMT-53" x="1383.837891"/>
    <use xlink:href="#Arial-BoldMT-63" x="1450.537109"/>
    <use xlink:href="#Arial-BoldMT-61" x="1506.152344"/>
    <use xlink:href="#Arial-BoldMT-6e" x="1561.767578"/>
    <use xlink:href="#Arial-BoldMT-5f" x="1622.851562"/>
    <use xlink:href="#Arial-BoldMT-70" x="1678.466797"/>
    <use xlink:href="#Arial-BoldMT-6f" x="1739.550781"/>
    <use xlink:href="#Arial-BoldMT-5f" x="1800.634766"/>
    <use xlink:href="#Arial-BoldMT-72" x="1856.25"/>
    <use xlink:href="#Arial-BoldMT-65" x="1895.166016"/>
    <use xlink:href="#Arial-BoldMT-6e" x="1950.78125"/>
    <use xlink:href="#Arial-BoldMT-61" x="2011.865234"/>
    <use xlink:href="#Arial-BoldMT-6c" x="2067.480469"/>
    <use xlink:href="#Arial-BoldMT-29" x="2095.263672"/>
   </g>
  </g>
 </g>
 <defs>
  <clipPath id="pa4bd155528">
   <rect x="49.035938" y="50.4" width="291.130435" height="332.64"/>
  </clipPath>
  <clipPath id="p4dd144249e">
   <rect x="398.392459" y="50.4" width="291.130435" height="332.64"/>
  </clipPath>
  <clipPath id="p79845cc8cf">
   <rect x="747.748981" y="50.4" width="291.130435" height="332.64"/>
  </clipPath>
  <clipPath id="p5cf69ec690">
   <rect x="1097.105503" y="50.4" width="291.130435" height="332.64"/>
  </clipPath>
 </defs>
</svg>
