<?xml version="1.0" encoding="utf-8" standalone="no"?>
<!DOCTYPE svg PUBLIC "-//W3C//DTD SVG 1.1//EN"
  "http://www.w3.org/Graphics/SVG/1.1/DTD/svg11.dtd">
<svg xmlns:xlink="http://www.w3.org/1999/xlink" width="840.217344pt" height="364.730937pt" viewBox="0 0 840.217344 364.730937" xmlns="http://www.w3.org/2000/svg" version="1.1">
 <metadata>
  <rdf:RDF xmlns:dc="http://purl.org/dc/elements/1.1/" xmlns:cc="http://creativecommons.org/ns#" xmlns:rdf="http://www.w3.org/1999/02/22-rdf-syntax-ns#">
   <cc:Work>
    <dc:type rdf:resource="http://purl.org/dc/dcmitype/StillImage"/>
    <dc:date>2025-04-04T11:25:56.508261</dc:date>
    <dc:format>image/svg+xml</dc:format>
    <dc:creator>
     <cc:Agent>
      <dc:title>Matplotlib v3.9.1, https://matplotlib.org/</dc:title>
     </cc:Agent>
    </dc:creator>
   </cc:Work>
  </rdf:RDF>
 </metadata>
 <defs>
  <style type="text/css">*{stroke-linejoin: round; stroke-linecap: butt}</style>
 </defs>
 <g id="figure_1">
  <g id="patch_1">
   <path d="M 0 364.730937 
L 840.217344 364.730937 
L 840.217344 0 
L 0 0 
z
" style="fill: #ffffff"/>
  </g>
  <g id="axes_1">
   <g id="patch_2">
    <path d="M 51.817344 320.4 
L 391.469518 320.4 
L 391.469518 43.2 
L 51.817344 43.2 
z
" style="fill: #ffffff"/>
   </g>
   <g id="matplotlib.axis_1">
    <g id="xtick_1">
     <g id="line2d_1">
      <defs>
       <path id="m1f36a98aea" d="M 0 0 
L 0 3.5 
" style="stroke: #000000; stroke-width: 0.8"/>
      </defs>
      <g>
       <use xlink:href="#m1f36a98aea" x="67.256079" y="320.4" style="stroke: #000000; stroke-width: 0.8"/>
      </g>
     </g>
     <g id="text_1">
      <!-- 0 -->
      <g transform="translate(63.438579 336.518125) scale(0.12 -0.12)">
       <defs>
        <path id="DejaVuSans-30" d="M 2034 4250 
Q 1547 4250 1301 3770 
Q 1056 3291 1056 2328 
Q 1056 1369 1301 889 
Q 1547 409 2034 409 
Q 2525 409 2770 889 
Q 3016 1369 3016 2328 
Q 3016 3291 2770 3770 
Q 2525 4250 2034 4250 
z
M 2034 4750 
Q 2819 4750 3233 4129 
Q 3647 3509 3647 2328 
Q 3647 1150 3233 529 
Q 2819 -91 2034 -91 
Q 1250 -91 836 529 
Q 422 1150 422 2328 
Q 422 3509 836 4129 
Q 1250 4750 2034 4750 
z
" transform="scale(0.015625)"/>
       </defs>
       <use xlink:href="#DejaVuSans-30"/>
      </g>
     </g>
    </g>
    <g id="xtick_2">
     <g id="line2d_2">
      <g>
       <use xlink:href="#m1f36a98aea" x="129.01102" y="320.4" style="stroke: #000000; stroke-width: 0.8"/>
      </g>
     </g>
     <g id="text_2">
      <!-- 5 -->
      <g transform="translate(125.19352 336.518125) scale(0.12 -0.12)">
       <defs>
        <path id="DejaVuSans-35" d="M 691 4666 
L 3169 4666 
L 3169 4134 
L 1269 4134 
L 1269 2991 
Q 1406 3038 1543 3061 
Q 1681 3084 1819 3084 
Q 2600 3084 3056 2656 
Q 3513 2228 3513 1497 
Q 3513 744 3044 326 
Q 2575 -91 1722 -91 
Q 1428 -91 1123 -41 
Q 819 9 494 109 
L 494 744 
Q 775 591 1075 516 
Q 1375 441 1709 441 
Q 2250 441 2565 725 
Q 2881 1009 2881 1497 
Q 2881 1984 2565 2268 
Q 2250 2553 1709 2553 
Q 1456 2553 1204 2497 
Q 953 2441 691 2322 
L 691 4666 
z
" transform="scale(0.015625)"/>
       </defs>
       <use xlink:href="#DejaVuSans-35"/>
      </g>
     </g>
    </g>
    <g id="xtick_3">
     <g id="line2d_3">
      <g>
       <use xlink:href="#m1f36a98aea" x="190.76596" y="320.4" style="stroke: #000000; stroke-width: 0.8"/>
      </g>
     </g>
     <g id="text_3">
      <!-- 10 -->
      <g transform="translate(183.13096 336.518125) scale(0.12 -0.12)">
       <defs>
        <path id="DejaVuSans-31" d="M 794 531 
L 1825 531 
L 1825 4091 
L 703 3866 
L 703 4441 
L 1819 4666 
L 2450 4666 
L 2450 531 
L 3481 531 
L 3481 0 
L 794 0 
L 794 531 
z
" transform="scale(0.015625)"/>
       </defs>
       <use xlink:href="#DejaVuSans-31"/>
       <use xlink:href="#DejaVuSans-30" x="63.623047"/>
      </g>
     </g>
    </g>
    <g id="xtick_4">
     <g id="line2d_4">
      <g>
       <use xlink:href="#m1f36a98aea" x="252.520901" y="320.4" style="stroke: #000000; stroke-width: 0.8"/>
      </g>
     </g>
     <g id="text_4">
      <!-- 15 -->
      <g transform="translate(244.885901 336.518125) scale(0.12 -0.12)">
       <use xlink:href="#DejaVuSans-31"/>
       <use xlink:href="#DejaVuSans-35" x="63.623047"/>
      </g>
     </g>
    </g>
    <g id="xtick_5">
     <g id="line2d_5">
      <g>
       <use xlink:href="#m1f36a98aea" x="314.275842" y="320.4" style="stroke: #000000; stroke-width: 0.8"/>
      </g>
     </g>
     <g id="text_5">
      <!-- 20 -->
      <g transform="translate(306.640842 336.518125) scale(0.12 -0.12)">
       <defs>
        <path id="DejaVuSans-32" d="M 1228 531 
L 3431 531 
L 3431 0 
L 469 0 
L 469 531 
Q 828 903 1448 1529 
Q 2069 2156 2228 2338 
Q 2531 2678 2651 2914 
Q 2772 3150 2772 3378 
Q 2772 3750 2511 3984 
Q 2250 4219 1831 4219 
Q 1534 4219 1204 4116 
Q 875 4013 500 3803 
L 500 4441 
Q 881 4594 1212 4672 
Q 1544 4750 1819 4750 
Q 2544 4750 2975 4387 
Q 3406 4025 3406 3419 
Q 3406 3131 3298 2873 
Q 3191 2616 2906 2266 
Q 2828 2175 2409 1742 
Q 1991 1309 1228 531 
z
" transform="scale(0.015625)"/>
       </defs>
       <use xlink:href="#DejaVuSans-32"/>
       <use xlink:href="#DejaVuSans-30" x="63.623047"/>
      </g>
     </g>
    </g>
    <g id="xtick_6">
     <g id="line2d_6">
      <g>
       <use xlink:href="#m1f36a98aea" x="376.030782" y="320.4" style="stroke: #000000; stroke-width: 0.8"/>
      </g>
     </g>
     <g id="text_6">
      <!-- 25 -->
      <g transform="translate(368.395782 336.518125) scale(0.12 -0.12)">
       <use xlink:href="#DejaVuSans-32"/>
       <use xlink:href="#DejaVuSans-35" x="63.623047"/>
      </g>
     </g>
    </g>
    <g id="text_7">
     <!-- Time [hr] -->
     <g transform="translate(182.549681 354.411406) scale(0.15 -0.15)">
      <defs>
       <path id="DejaVuSans-Bold-54" d="M 31 4666 
L 4331 4666 
L 4331 3756 
L 2784 3756 
L 2784 0 
L 1581 0 
L 1581 3756 
L 31 3756 
L 31 4666 
z
" transform="scale(0.015625)"/>
       <path id="DejaVuSans-Bold-69" d="M 538 3500 
L 1656 3500 
L 1656 0 
L 538 0 
L 538 3500 
z
M 538 4863 
L 1656 4863 
L 1656 3950 
L 538 3950 
L 538 4863 
z
" transform="scale(0.015625)"/>
       <path id="DejaVuSans-Bold-6d" d="M 3781 2919 
Q 3994 3244 4286 3414 
Q 4578 3584 4928 3584 
Q 5531 3584 5847 3212 
Q 6163 2841 6163 2131 
L 6163 0 
L 5038 0 
L 5038 1825 
Q 5041 1866 5042 1909 
Q 5044 1953 5044 2034 
Q 5044 2406 4934 2573 
Q 4825 2741 4581 2741 
Q 4263 2741 4089 2478 
Q 3916 2216 3909 1719 
L 3909 0 
L 2784 0 
L 2784 1825 
Q 2784 2406 2684 2573 
Q 2584 2741 2328 2741 
Q 2006 2741 1831 2477 
Q 1656 2213 1656 1722 
L 1656 0 
L 531 0 
L 531 3500 
L 1656 3500 
L 1656 2988 
Q 1863 3284 2130 3434 
Q 2397 3584 2719 3584 
Q 3081 3584 3359 3409 
Q 3638 3234 3781 2919 
z
" transform="scale(0.015625)"/>
       <path id="DejaVuSans-Bold-65" d="M 4031 1759 
L 4031 1441 
L 1416 1441 
Q 1456 1047 1700 850 
Q 1944 653 2381 653 
Q 2734 653 3104 758 
Q 3475 863 3866 1075 
L 3866 213 
Q 3469 63 3072 -14 
Q 2675 -91 2278 -91 
Q 1328 -91 801 392 
Q 275 875 275 1747 
Q 275 2603 792 3093 
Q 1309 3584 2216 3584 
Q 3041 3584 3536 3087 
Q 4031 2591 4031 1759 
z
M 2881 2131 
Q 2881 2450 2695 2645 
Q 2509 2841 2209 2841 
Q 1884 2841 1681 2658 
Q 1478 2475 1428 2131 
L 2881 2131 
z
" transform="scale(0.015625)"/>
       <path id="DejaVuSans-Bold-20" transform="scale(0.015625)"/>
       <path id="DejaVuSans-Bold-5b" d="M 550 4863 
L 2491 4863 
L 2491 4159 
L 1613 4159 
L 1613 -141 
L 2491 -141 
L 2491 -844 
L 550 -844 
L 550 4863 
z
" transform="scale(0.015625)"/>
       <path id="DejaVuSans-Bold-68" d="M 4056 2131 
L 4056 0 
L 2931 0 
L 2931 347 
L 2931 1625 
Q 2931 2084 2911 2256 
Q 2891 2428 2841 2509 
Q 2775 2619 2662 2680 
Q 2550 2741 2406 2741 
Q 2056 2741 1856 2470 
Q 1656 2200 1656 1722 
L 1656 0 
L 538 0 
L 538 4863 
L 1656 4863 
L 1656 2988 
Q 1909 3294 2193 3439 
Q 2478 3584 2822 3584 
Q 3428 3584 3742 3212 
Q 4056 2841 4056 2131 
z
" transform="scale(0.015625)"/>
       <path id="DejaVuSans-Bold-72" d="M 3138 2547 
Q 2991 2616 2845 2648 
Q 2700 2681 2553 2681 
Q 2122 2681 1889 2404 
Q 1656 2128 1656 1613 
L 1656 0 
L 538 0 
L 538 3500 
L 1656 3500 
L 1656 2925 
Q 1872 3269 2151 3426 
Q 2431 3584 2822 3584 
Q 2878 3584 2943 3579 
Q 3009 3575 3134 3559 
L 3138 2547 
z
" transform="scale(0.015625)"/>
       <path id="DejaVuSans-Bold-5d" d="M 2375 -844 
L 434 -844 
L 434 -141 
L 1313 -141 
L 1313 4159 
L 434 4159 
L 434 4863 
L 2375 4863 
L 2375 -844 
z
" transform="scale(0.015625)"/>
      </defs>
      <use xlink:href="#DejaVuSans-Bold-54"/>
      <use xlink:href="#DejaVuSans-Bold-69" x="68.212891"/>
      <use xlink:href="#DejaVuSans-Bold-6d" x="102.490234"/>
      <use xlink:href="#DejaVuSans-Bold-65" x="206.689453"/>
      <use xlink:href="#DejaVuSans-Bold-20" x="274.511719"/>
      <use xlink:href="#DejaVuSans-Bold-5b" x="309.326172"/>
      <use xlink:href="#DejaVuSans-Bold-68" x="355.029297"/>
      <use xlink:href="#DejaVuSans-Bold-72" x="426.220703"/>
      <use xlink:href="#DejaVuSans-Bold-5d" x="475.537109"/>
     </g>
    </g>
   </g>
   <g id="matplotlib.axis_2">
    <g id="ytick_1">
     <g id="line2d_7">
      <defs>
       <path id="mac943dc783" d="M 0 0 
L -3.5 0 
" style="stroke: #000000; stroke-width: 0.8"/>
      </defs>
      <g>
       <use xlink:href="#mac943dc783" x="51.817344" y="303.319608" style="stroke: #000000; stroke-width: 0.8"/>
      </g>
     </g>
     <g id="text_8">
      <!-- 0.0 -->
      <g transform="translate(25.733594 307.87867) scale(0.12 -0.12)">
       <defs>
        <path id="DejaVuSans-2e" d="M 684 794 
L 1344 794 
L 1344 0 
L 684 0 
L 684 794 
z
" transform="scale(0.015625)"/>
       </defs>
       <use xlink:href="#DejaVuSans-30"/>
       <use xlink:href="#DejaVuSans-2e" x="63.623047"/>
       <use xlink:href="#DejaVuSans-30" x="95.410156"/>
      </g>
     </g>
    </g>
    <g id="ytick_2">
     <g id="line2d_8">
      <g>
       <use xlink:href="#mac943dc783" x="51.817344" y="265.045277" style="stroke: #000000; stroke-width: 0.8"/>
      </g>
     </g>
     <g id="text_9">
      <!-- 0.1 -->
      <g transform="translate(25.733594 269.60434) scale(0.12 -0.12)">
       <use xlink:href="#DejaVuSans-30"/>
       <use xlink:href="#DejaVuSans-2e" x="63.623047"/>
       <use xlink:href="#DejaVuSans-31" x="95.410156"/>
      </g>
     </g>
    </g>
    <g id="ytick_3">
     <g id="line2d_9">
      <g>
       <use xlink:href="#mac943dc783" x="51.817344" y="226.770947" style="stroke: #000000; stroke-width: 0.8"/>
      </g>
     </g>
     <g id="text_10">
      <!-- 0.2 -->
      <g transform="translate(25.733594 231.33001) scale(0.12 -0.12)">
       <use xlink:href="#DejaVuSans-30"/>
       <use xlink:href="#DejaVuSans-2e" x="63.623047"/>
       <use xlink:href="#DejaVuSans-32" x="95.410156"/>
      </g>
     </g>
    </g>
    <g id="ytick_4">
     <g id="line2d_10">
      <g>
       <use xlink:href="#mac943dc783" x="51.817344" y="188.496617" style="stroke: #000000; stroke-width: 0.8"/>
      </g>
     </g>
     <g id="text_11">
      <!-- 0.3 -->
      <g transform="translate(25.733594 193.05568) scale(0.12 -0.12)">
       <defs>
        <path id="DejaVuSans-33" d="M 2597 2516 
Q 3050 2419 3304 2112 
Q 3559 1806 3559 1356 
Q 3559 666 3084 287 
Q 2609 -91 1734 -91 
Q 1441 -91 1130 -33 
Q 819 25 488 141 
L 488 750 
Q 750 597 1062 519 
Q 1375 441 1716 441 
Q 2309 441 2620 675 
Q 2931 909 2931 1356 
Q 2931 1769 2642 2001 
Q 2353 2234 1838 2234 
L 1294 2234 
L 1294 2753 
L 1863 2753 
Q 2328 2753 2575 2939 
Q 2822 3125 2822 3475 
Q 2822 3834 2567 4026 
Q 2313 4219 1838 4219 
Q 1578 4219 1281 4162 
Q 984 4106 628 3988 
L 628 4550 
Q 988 4650 1302 4700 
Q 1616 4750 1894 4750 
Q 2613 4750 3031 4423 
Q 3450 4097 3450 3541 
Q 3450 3153 3228 2886 
Q 3006 2619 2597 2516 
z
" transform="scale(0.015625)"/>
       </defs>
       <use xlink:href="#DejaVuSans-30"/>
       <use xlink:href="#DejaVuSans-2e" x="63.623047"/>
       <use xlink:href="#DejaVuSans-33" x="95.410156"/>
      </g>
     </g>
    </g>
    <g id="ytick_5">
     <g id="line2d_11">
      <g>
       <use xlink:href="#mac943dc783" x="51.817344" y="150.222287" style="stroke: #000000; stroke-width: 0.8"/>
      </g>
     </g>
     <g id="text_12">
      <!-- 0.4 -->
      <g transform="translate(25.733594 154.781349) scale(0.12 -0.12)">
       <defs>
        <path id="DejaVuSans-34" d="M 2419 4116 
L 825 1625 
L 2419 1625 
L 2419 4116 
z
M 2253 4666 
L 3047 4666 
L 3047 1625 
L 3713 1625 
L 3713 1100 
L 3047 1100 
L 3047 0 
L 2419 0 
L 2419 1100 
L 313 1100 
L 313 1709 
L 2253 4666 
z
" transform="scale(0.015625)"/>
       </defs>
       <use xlink:href="#DejaVuSans-30"/>
       <use xlink:href="#DejaVuSans-2e" x="63.623047"/>
       <use xlink:href="#DejaVuSans-34" x="95.410156"/>
      </g>
     </g>
    </g>
    <g id="ytick_6">
     <g id="line2d_12">
      <g>
       <use xlink:href="#mac943dc783" x="51.817344" y="111.947957" style="stroke: #000000; stroke-width: 0.8"/>
      </g>
     </g>
     <g id="text_13">
      <!-- 0.5 -->
      <g transform="translate(25.733594 116.507019) scale(0.12 -0.12)">
       <use xlink:href="#DejaVuSans-30"/>
       <use xlink:href="#DejaVuSans-2e" x="63.623047"/>
       <use xlink:href="#DejaVuSans-35" x="95.410156"/>
      </g>
     </g>
    </g>
    <g id="ytick_7">
     <g id="line2d_13">
      <g>
       <use xlink:href="#mac943dc783" x="51.817344" y="73.673627" style="stroke: #000000; stroke-width: 0.8"/>
      </g>
     </g>
     <g id="text_14">
      <!-- 0.6 -->
      <g transform="translate(25.733594 78.232689) scale(0.12 -0.12)">
       <defs>
        <path id="DejaVuSans-36" d="M 2113 2584 
Q 1688 2584 1439 2293 
Q 1191 2003 1191 1497 
Q 1191 994 1439 701 
Q 1688 409 2113 409 
Q 2538 409 2786 701 
Q 3034 994 3034 1497 
Q 3034 2003 2786 2293 
Q 2538 2584 2113 2584 
z
M 3366 4563 
L 3366 3988 
Q 3128 4100 2886 4159 
Q 2644 4219 2406 4219 
Q 1781 4219 1451 3797 
Q 1122 3375 1075 2522 
Q 1259 2794 1537 2939 
Q 1816 3084 2150 3084 
Q 2853 3084 3261 2657 
Q 3669 2231 3669 1497 
Q 3669 778 3244 343 
Q 2819 -91 2113 -91 
Q 1303 -91 875 529 
Q 447 1150 447 2328 
Q 447 3434 972 4092 
Q 1497 4750 2381 4750 
Q 2619 4750 2861 4703 
Q 3103 4656 3366 4563 
z
" transform="scale(0.015625)"/>
       </defs>
       <use xlink:href="#DejaVuSans-30"/>
       <use xlink:href="#DejaVuSans-2e" x="63.623047"/>
       <use xlink:href="#DejaVuSans-36" x="95.410156"/>
      </g>
     </g>
    </g>
    <g id="text_15">
     <!-- Glimepiride Plasma [µM] -->
     <g transform="translate(18.597656 286.194141) rotate(-90) scale(0.15 -0.15)">
      <defs>
       <path id="DejaVuSans-Bold-47" d="M 4781 347 
Q 4331 128 3847 18 
Q 3363 -91 2847 -91 
Q 1681 -91 1000 561 
Q 319 1213 319 2328 
Q 319 3456 1012 4103 
Q 1706 4750 2913 4750 
Q 3378 4750 3804 4662 
Q 4231 4575 4609 4403 
L 4609 3438 
Q 4219 3659 3833 3768 
Q 3447 3878 3059 3878 
Q 2341 3878 1952 3476 
Q 1563 3075 1563 2328 
Q 1563 1588 1938 1184 
Q 2313 781 3003 781 
Q 3191 781 3352 804 
Q 3513 828 3641 878 
L 3641 1784 
L 2906 1784 
L 2906 2591 
L 4781 2591 
L 4781 347 
z
" transform="scale(0.015625)"/>
       <path id="DejaVuSans-Bold-6c" d="M 538 4863 
L 1656 4863 
L 1656 0 
L 538 0 
L 538 4863 
z
" transform="scale(0.015625)"/>
       <path id="DejaVuSans-Bold-70" d="M 1656 506 
L 1656 -1331 
L 538 -1331 
L 538 3500 
L 1656 3500 
L 1656 2988 
Q 1888 3294 2169 3439 
Q 2450 3584 2816 3584 
Q 3463 3584 3878 3070 
Q 4294 2556 4294 1747 
Q 4294 938 3878 423 
Q 3463 -91 2816 -91 
Q 2450 -91 2169 54 
Q 1888 200 1656 506 
z
M 2400 2772 
Q 2041 2772 1848 2508 
Q 1656 2244 1656 1747 
Q 1656 1250 1848 986 
Q 2041 722 2400 722 
Q 2759 722 2948 984 
Q 3138 1247 3138 1747 
Q 3138 2247 2948 2509 
Q 2759 2772 2400 2772 
z
" transform="scale(0.015625)"/>
       <path id="DejaVuSans-Bold-64" d="M 2919 2988 
L 2919 4863 
L 4044 4863 
L 4044 0 
L 2919 0 
L 2919 506 
Q 2688 197 2409 53 
Q 2131 -91 1766 -91 
Q 1119 -91 703 423 
Q 288 938 288 1747 
Q 288 2556 703 3070 
Q 1119 3584 1766 3584 
Q 2128 3584 2408 3439 
Q 2688 3294 2919 2988 
z
M 2181 722 
Q 2541 722 2730 984 
Q 2919 1247 2919 1747 
Q 2919 2247 2730 2509 
Q 2541 2772 2181 2772 
Q 1825 2772 1636 2509 
Q 1447 2247 1447 1747 
Q 1447 1247 1636 984 
Q 1825 722 2181 722 
z
" transform="scale(0.015625)"/>
       <path id="DejaVuSans-Bold-50" d="M 588 4666 
L 2584 4666 
Q 3475 4666 3951 4270 
Q 4428 3875 4428 3144 
Q 4428 2409 3951 2014 
Q 3475 1619 2584 1619 
L 1791 1619 
L 1791 0 
L 588 0 
L 588 4666 
z
M 1791 3794 
L 1791 2491 
L 2456 2491 
Q 2806 2491 2997 2661 
Q 3188 2831 3188 3144 
Q 3188 3456 2997 3625 
Q 2806 3794 2456 3794 
L 1791 3794 
z
" transform="scale(0.015625)"/>
       <path id="DejaVuSans-Bold-61" d="M 2106 1575 
Q 1756 1575 1579 1456 
Q 1403 1338 1403 1106 
Q 1403 894 1545 773 
Q 1688 653 1941 653 
Q 2256 653 2472 879 
Q 2688 1106 2688 1447 
L 2688 1575 
L 2106 1575 
z
M 3816 1997 
L 3816 0 
L 2688 0 
L 2688 519 
Q 2463 200 2181 54 
Q 1900 -91 1497 -91 
Q 953 -91 614 226 
Q 275 544 275 1050 
Q 275 1666 698 1953 
Q 1122 2241 2028 2241 
L 2688 2241 
L 2688 2328 
Q 2688 2594 2478 2717 
Q 2269 2841 1825 2841 
Q 1466 2841 1156 2769 
Q 847 2697 581 2553 
L 581 3406 
Q 941 3494 1303 3539 
Q 1666 3584 2028 3584 
Q 2975 3584 3395 3211 
Q 3816 2838 3816 1997 
z
" transform="scale(0.015625)"/>
       <path id="DejaVuSans-Bold-73" d="M 3272 3391 
L 3272 2541 
Q 2913 2691 2578 2766 
Q 2244 2841 1947 2841 
Q 1628 2841 1473 2761 
Q 1319 2681 1319 2516 
Q 1319 2381 1436 2309 
Q 1553 2238 1856 2203 
L 2053 2175 
Q 2913 2066 3209 1816 
Q 3506 1566 3506 1031 
Q 3506 472 3093 190 
Q 2681 -91 1863 -91 
Q 1516 -91 1145 -36 
Q 775 19 384 128 
L 384 978 
Q 719 816 1070 734 
Q 1422 653 1784 653 
Q 2113 653 2278 743 
Q 2444 834 2444 1013 
Q 2444 1163 2330 1236 
Q 2216 1309 1875 1350 
L 1678 1375 
Q 931 1469 631 1722 
Q 331 1975 331 2491 
Q 331 3047 712 3315 
Q 1094 3584 1881 3584 
Q 2191 3584 2531 3537 
Q 2872 3491 3272 3391 
z
" transform="scale(0.015625)"/>
       <path id="DejaVuSans-Bold-b5" d="M 544 -1338 
L 544 3500 
L 1672 3500 
L 1672 1466 
Q 1672 1103 1828 926 
Q 1984 750 2303 750 
Q 2625 750 2781 926 
Q 2938 1103 2938 1466 
L 2938 3500 
L 4063 3500 
L 4063 1159 
Q 4063 938 4114 850 
Q 4166 763 4288 763 
Q 4344 763 4395 778 
Q 4447 794 4506 831 
L 4506 50 
Q 4341 -22 4195 -56 
Q 4050 -91 3909 -91 
Q 3631 -91 3454 26 
Q 3278 144 3169 403 
Q 3022 156 2811 32 
Q 2600 -91 2322 -91 
Q 2091 -91 1928 -17 
Q 1766 56 1672 206 
L 1672 -1338 
L 544 -1338 
z
" transform="scale(0.015625)"/>
       <path id="DejaVuSans-Bold-4d" d="M 588 4666 
L 2119 4666 
L 3181 2169 
L 4250 4666 
L 5778 4666 
L 5778 0 
L 4641 0 
L 4641 3413 
L 3566 897 
L 2803 897 
L 1728 3413 
L 1728 0 
L 588 0 
L 588 4666 
z
" transform="scale(0.015625)"/>
      </defs>
      <use xlink:href="#DejaVuSans-Bold-47"/>
      <use xlink:href="#DejaVuSans-Bold-6c" x="82.080078"/>
      <use xlink:href="#DejaVuSans-Bold-69" x="116.357422"/>
      <use xlink:href="#DejaVuSans-Bold-6d" x="150.634766"/>
      <use xlink:href="#DejaVuSans-Bold-65" x="254.833984"/>
      <use xlink:href="#DejaVuSans-Bold-70" x="322.65625"/>
      <use xlink:href="#DejaVuSans-Bold-69" x="394.238281"/>
      <use xlink:href="#DejaVuSans-Bold-72" x="428.515625"/>
      <use xlink:href="#DejaVuSans-Bold-69" x="477.832031"/>
      <use xlink:href="#DejaVuSans-Bold-64" x="512.109375"/>
      <use xlink:href="#DejaVuSans-Bold-65" x="583.691406"/>
      <use xlink:href="#DejaVuSans-Bold-20" x="651.513672"/>
      <use xlink:href="#DejaVuSans-Bold-50" x="686.328125"/>
      <use xlink:href="#DejaVuSans-Bold-6c" x="759.619141"/>
      <use xlink:href="#DejaVuSans-Bold-61" x="793.896484"/>
      <use xlink:href="#DejaVuSans-Bold-73" x="861.376953"/>
      <use xlink:href="#DejaVuSans-Bold-6d" x="920.898438"/>
      <use xlink:href="#DejaVuSans-Bold-61" x="1025.097656"/>
      <use xlink:href="#DejaVuSans-Bold-20" x="1092.578125"/>
      <use xlink:href="#DejaVuSans-Bold-5b" x="1127.392578"/>
      <use xlink:href="#DejaVuSans-Bold-b5" x="1173.095703"/>
      <use xlink:href="#DejaVuSans-Bold-4d" x="1246.679688"/>
      <use xlink:href="#DejaVuSans-Bold-5d" x="1346.191406"/>
     </g>
    </g>
   </g>
   <g id="LineCollection_1">
    <path clip-path="url(#pd1e83b7b68)" style="fill: none; stroke: #000000"/>
    <path d="M 73.431573 307.8 
L 73.431573 258.783105 
" clip-path="url(#pd1e83b7b68)" style="fill: none; stroke: #000000"/>
    <path d="M 79.607067 289.843389 
L 79.607067 185.59619 
" clip-path="url(#pd1e83b7b68)" style="fill: none; stroke: #000000"/>
    <path d="M 85.782561 267.399008 
L 85.782561 137.607178 
" clip-path="url(#pd1e83b7b68)" style="fill: none; stroke: #000000"/>
    <path d="M 91.958055 245.988966 
L 91.958055 109.294578 
" clip-path="url(#pd1e83b7b68)" style="fill: none; stroke: #000000"/>
    <path d="M 104.309043 214.563513 
L 104.309043 80.62941 
" clip-path="url(#pd1e83b7b68)" style="fill: none; stroke: #000000"/>
    <path d="M 116.660031 204.537959 
L 116.660031 94.07735 
" clip-path="url(#pd1e83b7b68)" style="fill: none; stroke: #000000"/>
    <path d="M 129.01102 238.351151 
L 129.01102 152.05503 
" clip-path="url(#pd1e83b7b68)" style="fill: none; stroke: #000000"/>
    <path d="M 141.362008 275.273814 
L 141.362008 220.04228 
" clip-path="url(#pd1e83b7b68)" style="fill: none; stroke: #000000"/>
    <path d="M 166.063984 291.812167 
L 166.063984 258.675214 
" clip-path="url(#pd1e83b7b68)" style="fill: none; stroke: #000000"/>
    <path d="M 190.76596 294.545403 
L 190.76596 275.215412 
" clip-path="url(#pd1e83b7b68)" style="fill: none; stroke: #000000"/>
    <path d="M 215.467937 297.624444 
L 215.467937 285.887389 
" clip-path="url(#pd1e83b7b68)" style="fill: none; stroke: #000000"/>
    <path d="M 240.169913 299.320575 
L 240.169913 292.417401 
" clip-path="url(#pd1e83b7b68)" style="fill: none; stroke: #000000"/>
    <path d="M 363.679794 302.283425 
L 363.679794 296.07063 
" clip-path="url(#pd1e83b7b68)" style="fill: none; stroke: #000000"/>
   </g>
   <g id="LineCollection_2">
    <path clip-path="url(#pd1e83b7b68)" style="fill: none; stroke: #1f77b4"/>
    <path d="M 73.431573 307.109314 
L 73.431573 258.783412 
" clip-path="url(#pd1e83b7b68)" style="fill: none; stroke: #1f77b4"/>
    <path d="M 79.607067 278.797021 
L 79.607067 204.926489 
" clip-path="url(#pd1e83b7b68)" style="fill: none; stroke: #1f77b4"/>
    <path d="M 85.782561 254.626385 
L 85.782561 176.613581 
" clip-path="url(#pd1e83b7b68)" style="fill: none; stroke: #1f77b4"/>
    <path d="M 91.958055 243.228373 
L 91.958055 142.432453 
" clip-path="url(#pd1e83b7b68)" style="fill: none; stroke: #1f77b4"/>
    <path d="M 104.309043 216.634034 
L 104.309043 84.771683 
" clip-path="url(#pd1e83b7b68)" style="fill: none; stroke: #1f77b4"/>
    <path d="M 116.660031 203.157201 
L 116.660031 80.960153 
" clip-path="url(#pd1e83b7b68)" style="fill: none; stroke: #1f77b4"/>
    <path d="M 129.01102 233.863996 
L 129.01102 136.5212 
" clip-path="url(#pd1e83b7b68)" style="fill: none; stroke: #1f77b4"/>
    <path d="M 141.362008 274.58282 
L 141.362008 220.042895 
" clip-path="url(#pd1e83b7b68)" style="fill: none; stroke: #1f77b4"/>
    <path d="M 166.063984 291.123325 
L 166.063984 259.365286 
" clip-path="url(#pd1e83b7b68)" style="fill: none; stroke: #1f77b4"/>
    <path d="M 190.76596 294.891207 
L 190.76596 274.870222 
" clip-path="url(#pd1e83b7b68)" style="fill: none; stroke: #1f77b4"/>
    <path d="M 215.467937 296.933757 
L 215.467937 285.887696 
" clip-path="url(#pd1e83b7b68)" style="fill: none; stroke: #1f77b4"/>
    <path d="M 240.169913 299.666686 
L 240.169913 292.071904 
" clip-path="url(#pd1e83b7b68)" style="fill: none; stroke: #1f77b4"/>
    <path d="M 363.679794 301.593046 
L 363.679794 296.07063 
" clip-path="url(#pd1e83b7b68)" style="fill: none; stroke: #1f77b4"/>
   </g>
   <g id="line2d_14">
    <path d="M 67.256079 303.319608 
L 67.873628 302.598011 
L 68.491178 299.960119 
L 69.108727 295.617617 
L 69.726277 289.86791 
L 70.961375 275.165475 
L 72.814024 248.133404 
L 78.371968 162.182903 
L 80.224616 137.713183 
L 82.077265 116.543845 
L 83.312364 104.348921 
L 84.547462 93.683798 
L 85.782561 84.51075 
L 87.01766 76.771332 
L 88.252759 70.392852 
L 89.487858 65.293379 
L 90.722956 61.385608 
L 91.958055 58.579804 
L 92.575605 57.561991 
L 93.193154 56.786022 
L 93.810703 56.240892 
L 94.428253 55.915765 
L 95.045802 55.8 
L 95.663352 55.883178 
L 96.280901 56.155121 
L 96.89845 56.605904 
L 97.516 57.225872 
L 98.751099 58.936138 
L 99.986198 61.214345 
L 101.221296 63.99358 
L 103.073945 68.967002 
L 104.926593 74.738134 
L 107.39679 83.385906 
L 110.484537 95.25703 
L 114.807383 112.924386 
L 122.835526 145.864996 
L 127.158371 162.540327 
L 130.863668 175.904324 
L 133.951415 186.306893 
L 137.039162 196.013527 
L 140.126909 205.019476 
L 143.214656 213.335343 
L 146.302403 220.982814 
L 149.39015 227.99127 
L 152.477897 234.395136 
L 155.565644 240.23183 
L 158.653391 245.540191 
L 161.741138 250.359301 
L 164.828885 254.72761 
L 167.916632 258.682313 
L 171.004379 262.258924 
L 174.092126 265.490993 
L 177.179873 268.409947 
L 180.26762 271.045015 
L 183.355367 273.423223 
L 187.060664 275.972877 
L 190.76596 278.227362 
L 194.471257 280.221623 
L 198.176553 281.986817 
L 202.499399 283.79345 
L 206.822245 285.364412 
L 211.76264 286.91379 
L 216.703035 288.241282 
L 222.26098 289.513819 
L 228.436474 290.702583 
L 235.229518 291.790323 
L 243.25766 292.843746 
L 252.520901 293.823045 
L 263.63679 294.756569 
L 276.605328 295.615239 
L 293.279162 296.481172 
L 314.275842 297.336195 
L 341.448016 298.211496 
L 376.030782 299.096616 
L 376.030782 299.096616 
" clip-path="url(#pd1e83b7b68)" style="fill: none; stroke: #000000; stroke-width: 2; stroke-linecap: square"/>
   </g>
   <g id="line2d_15">
    <path d="M 67.256079 303.319608 
L 73.431573 283.291553 
L 79.607067 237.719789 
L 85.782561 202.503093 
L 91.958055 177.641772 
L 104.309043 147.596462 
L 116.660031 149.307654 
L 129.01102 195.20309 
L 141.362008 247.658047 
L 166.063984 275.243691 
L 190.76596 284.880407 
L 215.467937 291.755916 
L 240.169913 295.868988 
L 363.679794 299.177027 
" clip-path="url(#pd1e83b7b68)" style="fill: none; stroke-dasharray: 3.7,1.6; stroke-dashoffset: 0; stroke: #000000"/>
    <defs>
     <path id="m308be1e205" d="M -3 3 
L 3 3 
L 3 -3 
L -3 -3 
z
" style="stroke: #000000; stroke-linejoin: miter"/>
    </defs>
    <g clip-path="url(#pd1e83b7b68)">
     <use xlink:href="#m308be1e205" x="67.256079" y="303.319608" style="stroke: #000000; stroke-linejoin: miter"/>
     <use xlink:href="#m308be1e205" x="73.431573" y="283.291553" style="stroke: #000000; stroke-linejoin: miter"/>
     <use xlink:href="#m308be1e205" x="79.607067" y="237.719789" style="stroke: #000000; stroke-linejoin: miter"/>
     <use xlink:href="#m308be1e205" x="85.782561" y="202.503093" style="stroke: #000000; stroke-linejoin: miter"/>
     <use xlink:href="#m308be1e205" x="91.958055" y="177.641772" style="stroke: #000000; stroke-linejoin: miter"/>
     <use xlink:href="#m308be1e205" x="104.309043" y="147.596462" style="stroke: #000000; stroke-linejoin: miter"/>
     <use xlink:href="#m308be1e205" x="116.660031" y="149.307654" style="stroke: #000000; stroke-linejoin: miter"/>
     <use xlink:href="#m308be1e205" x="129.01102" y="195.20309" style="stroke: #000000; stroke-linejoin: miter"/>
     <use xlink:href="#m308be1e205" x="141.362008" y="247.658047" style="stroke: #000000; stroke-linejoin: miter"/>
     <use xlink:href="#m308be1e205" x="166.063984" y="275.243691" style="stroke: #000000; stroke-linejoin: miter"/>
     <use xlink:href="#m308be1e205" x="190.76596" y="284.880407" style="stroke: #000000; stroke-linejoin: miter"/>
     <use xlink:href="#m308be1e205" x="215.467937" y="291.755916" style="stroke: #000000; stroke-linejoin: miter"/>
     <use xlink:href="#m308be1e205" x="240.169913" y="295.868988" style="stroke: #000000; stroke-linejoin: miter"/>
     <use xlink:href="#m308be1e205" x="363.679794" y="299.177027" style="stroke: #000000; stroke-linejoin: miter"/>
    </g>
   </g>
   <g id="line2d_16">
    <path d="M 67.256079 303.319608 
L 73.431573 282.946363 
L 79.607067 241.861755 
L 85.782561 215.619983 
L 91.958055 192.830413 
L 104.309043 150.702859 
L 116.660031 142.058677 
L 129.01102 185.192598 
L 141.362008 247.312858 
L 166.063984 275.244305 
L 190.76596 284.880715 
L 215.467937 291.410727 
L 240.169913 295.869295 
L 363.679794 298.831838 
" clip-path="url(#pd1e83b7b68)" style="fill: none; stroke-dasharray: 3.7,1.6; stroke-dashoffset: 0; stroke: #1f77b4"/>
    <defs>
     <path id="m6e0e0584ed" d="M -3 3 
L 3 3 
L 3 -3 
L -3 -3 
z
" style="stroke: #000000; stroke-linejoin: miter"/>
    </defs>
    <g clip-path="url(#pd1e83b7b68)">
     <use xlink:href="#m6e0e0584ed" x="67.256079" y="303.319608" style="fill: #1f77b4; stroke: #000000; stroke-linejoin: miter"/>
     <use xlink:href="#m6e0e0584ed" x="73.431573" y="282.946363" style="fill: #1f77b4; stroke: #000000; stroke-linejoin: miter"/>
     <use xlink:href="#m6e0e0584ed" x="79.607067" y="241.861755" style="fill: #1f77b4; stroke: #000000; stroke-linejoin: miter"/>
     <use xlink:href="#m6e0e0584ed" x="85.782561" y="215.619983" style="fill: #1f77b4; stroke: #000000; stroke-linejoin: miter"/>
     <use xlink:href="#m6e0e0584ed" x="91.958055" y="192.830413" style="fill: #1f77b4; stroke: #000000; stroke-linejoin: miter"/>
     <use xlink:href="#m6e0e0584ed" x="104.309043" y="150.702859" style="fill: #1f77b4; stroke: #000000; stroke-linejoin: miter"/>
     <use xlink:href="#m6e0e0584ed" x="116.660031" y="142.058677" style="fill: #1f77b4; stroke: #000000; stroke-linejoin: miter"/>
     <use xlink:href="#m6e0e0584ed" x="129.01102" y="185.192598" style="fill: #1f77b4; stroke: #000000; stroke-linejoin: miter"/>
     <use xlink:href="#m6e0e0584ed" x="141.362008" y="247.312858" style="fill: #1f77b4; stroke: #000000; stroke-linejoin: miter"/>
     <use xlink:href="#m6e0e0584ed" x="166.063984" y="275.244305" style="fill: #1f77b4; stroke: #000000; stroke-linejoin: miter"/>
     <use xlink:href="#m6e0e0584ed" x="190.76596" y="284.880715" style="fill: #1f77b4; stroke: #000000; stroke-linejoin: miter"/>
     <use xlink:href="#m6e0e0584ed" x="215.467937" y="291.410727" style="fill: #1f77b4; stroke: #000000; stroke-linejoin: miter"/>
     <use xlink:href="#m6e0e0584ed" x="240.169913" y="295.869295" style="fill: #1f77b4; stroke: #000000; stroke-linejoin: miter"/>
     <use xlink:href="#m6e0e0584ed" x="363.679794" y="298.831838" style="fill: #1f77b4; stroke: #000000; stroke-linejoin: miter"/>
    </g>
   </g>
   <g id="patch_3">
    <path d="M 51.817344 320.4 
L 51.817344 43.2 
" style="fill: none; stroke: #000000; stroke-width: 0.8; stroke-linejoin: miter; stroke-linecap: square"/>
   </g>
   <g id="patch_4">
    <path d="M 391.469518 320.4 
L 391.469518 43.2 
" style="fill: none; stroke: #000000; stroke-width: 0.8; stroke-linejoin: miter; stroke-linecap: square"/>
   </g>
   <g id="patch_5">
    <path d="M 51.817344 320.4 
L 391.469518 320.4 
" style="fill: none; stroke: #000000; stroke-width: 0.8; stroke-linejoin: miter; stroke-linecap: square"/>
   </g>
   <g id="patch_6">
    <path d="M 51.817344 43.2 
L 391.469518 43.2 
" style="fill: none; stroke: #000000; stroke-width: 0.8; stroke-linejoin: miter; stroke-linecap: square"/>
   </g>
   <g id="legend_1">
    <g id="patch_7">
     <path d="M 162.214205 90.030937 
L 385.169518 90.030937 
Q 386.969518 90.030937 386.969518 88.230937 
L 386.969518 49.5 
Q 386.969518 47.7 385.169518 47.7 
L 162.214205 47.7 
Q 160.414205 47.7 160.414205 49.5 
L 160.414205 88.230937 
Q 160.414205 90.030937 162.214205 90.030937 
z
" style="fill: #ffffff; opacity: 0.8; stroke: #cccccc; stroke-linejoin: miter"/>
    </g>
    <g id="line2d_17">
     <path d="M 164.014205 54.988594 
L 182.014205 54.988594 
" style="fill: none; stroke: #000000; stroke-width: 2; stroke-linecap: square"/>
    </g>
    <g id="line2d_18"/>
    <g id="text_16">
     <!-- Sim 4mg GLI PO -->
     <g transform="translate(189.214205 58.138594) scale(0.09 -0.09)">
      <defs>
       <path id="DejaVuSans-53" d="M 3425 4513 
L 3425 3897 
Q 3066 4069 2747 4153 
Q 2428 4238 2131 4238 
Q 1616 4238 1336 4038 
Q 1056 3838 1056 3469 
Q 1056 3159 1242 3001 
Q 1428 2844 1947 2747 
L 2328 2669 
Q 3034 2534 3370 2195 
Q 3706 1856 3706 1288 
Q 3706 609 3251 259 
Q 2797 -91 1919 -91 
Q 1588 -91 1214 -16 
Q 841 59 441 206 
L 441 856 
Q 825 641 1194 531 
Q 1563 422 1919 422 
Q 2459 422 2753 634 
Q 3047 847 3047 1241 
Q 3047 1584 2836 1778 
Q 2625 1972 2144 2069 
L 1759 2144 
Q 1053 2284 737 2584 
Q 422 2884 422 3419 
Q 422 4038 858 4394 
Q 1294 4750 2059 4750 
Q 2388 4750 2728 4690 
Q 3069 4631 3425 4513 
z
" transform="scale(0.015625)"/>
       <path id="DejaVuSans-69" d="M 603 3500 
L 1178 3500 
L 1178 0 
L 603 0 
L 603 3500 
z
M 603 4863 
L 1178 4863 
L 1178 4134 
L 603 4134 
L 603 4863 
z
" transform="scale(0.015625)"/>
       <path id="DejaVuSans-6d" d="M 3328 2828 
Q 3544 3216 3844 3400 
Q 4144 3584 4550 3584 
Q 5097 3584 5394 3201 
Q 5691 2819 5691 2113 
L 5691 0 
L 5113 0 
L 5113 2094 
Q 5113 2597 4934 2840 
Q 4756 3084 4391 3084 
Q 3944 3084 3684 2787 
Q 3425 2491 3425 1978 
L 3425 0 
L 2847 0 
L 2847 2094 
Q 2847 2600 2669 2842 
Q 2491 3084 2119 3084 
Q 1678 3084 1418 2786 
Q 1159 2488 1159 1978 
L 1159 0 
L 581 0 
L 581 3500 
L 1159 3500 
L 1159 2956 
Q 1356 3278 1631 3431 
Q 1906 3584 2284 3584 
Q 2666 3584 2933 3390 
Q 3200 3197 3328 2828 
z
" transform="scale(0.015625)"/>
       <path id="DejaVuSans-20" transform="scale(0.015625)"/>
       <path id="DejaVuSans-67" d="M 2906 1791 
Q 2906 2416 2648 2759 
Q 2391 3103 1925 3103 
Q 1463 3103 1205 2759 
Q 947 2416 947 1791 
Q 947 1169 1205 825 
Q 1463 481 1925 481 
Q 2391 481 2648 825 
Q 2906 1169 2906 1791 
z
M 3481 434 
Q 3481 -459 3084 -895 
Q 2688 -1331 1869 -1331 
Q 1566 -1331 1297 -1286 
Q 1028 -1241 775 -1147 
L 775 -588 
Q 1028 -725 1275 -790 
Q 1522 -856 1778 -856 
Q 2344 -856 2625 -561 
Q 2906 -266 2906 331 
L 2906 616 
Q 2728 306 2450 153 
Q 2172 0 1784 0 
Q 1141 0 747 490 
Q 353 981 353 1791 
Q 353 2603 747 3093 
Q 1141 3584 1784 3584 
Q 2172 3584 2450 3431 
Q 2728 3278 2906 2969 
L 2906 3500 
L 3481 3500 
L 3481 434 
z
" transform="scale(0.015625)"/>
       <path id="DejaVuSans-47" d="M 3809 666 
L 3809 1919 
L 2778 1919 
L 2778 2438 
L 4434 2438 
L 4434 434 
Q 4069 175 3628 42 
Q 3188 -91 2688 -91 
Q 1594 -91 976 548 
Q 359 1188 359 2328 
Q 359 3472 976 4111 
Q 1594 4750 2688 4750 
Q 3144 4750 3555 4637 
Q 3966 4525 4313 4306 
L 4313 3634 
Q 3963 3931 3569 4081 
Q 3175 4231 2741 4231 
Q 1884 4231 1454 3753 
Q 1025 3275 1025 2328 
Q 1025 1384 1454 906 
Q 1884 428 2741 428 
Q 3075 428 3337 486 
Q 3600 544 3809 666 
z
" transform="scale(0.015625)"/>
       <path id="DejaVuSans-4c" d="M 628 4666 
L 1259 4666 
L 1259 531 
L 3531 531 
L 3531 0 
L 628 0 
L 628 4666 
z
" transform="scale(0.015625)"/>
       <path id="DejaVuSans-49" d="M 628 4666 
L 1259 4666 
L 1259 0 
L 628 0 
L 628 4666 
z
" transform="scale(0.015625)"/>
       <path id="DejaVuSans-50" d="M 1259 4147 
L 1259 2394 
L 2053 2394 
Q 2494 2394 2734 2622 
Q 2975 2850 2975 3272 
Q 2975 3691 2734 3919 
Q 2494 4147 2053 4147 
L 1259 4147 
z
M 628 4666 
L 2053 4666 
Q 2838 4666 3239 4311 
Q 3641 3956 3641 3272 
Q 3641 2581 3239 2228 
Q 2838 1875 2053 1875 
L 1259 1875 
L 1259 0 
L 628 0 
L 628 4666 
z
" transform="scale(0.015625)"/>
       <path id="DejaVuSans-4f" d="M 2522 4238 
Q 1834 4238 1429 3725 
Q 1025 3213 1025 2328 
Q 1025 1447 1429 934 
Q 1834 422 2522 422 
Q 3209 422 3611 934 
Q 4013 1447 4013 2328 
Q 4013 3213 3611 3725 
Q 3209 4238 2522 4238 
z
M 2522 4750 
Q 3503 4750 4090 4092 
Q 4678 3434 4678 2328 
Q 4678 1225 4090 567 
Q 3503 -91 2522 -91 
Q 1538 -91 948 565 
Q 359 1222 359 2328 
Q 359 3434 948 4092 
Q 1538 4750 2522 4750 
z
" transform="scale(0.015625)"/>
      </defs>
      <use xlink:href="#DejaVuSans-53"/>
      <use xlink:href="#DejaVuSans-69" x="63.476562"/>
      <use xlink:href="#DejaVuSans-6d" x="91.259766"/>
      <use xlink:href="#DejaVuSans-20" x="188.671875"/>
      <use xlink:href="#DejaVuSans-34" x="220.458984"/>
      <use xlink:href="#DejaVuSans-6d" x="284.082031"/>
      <use xlink:href="#DejaVuSans-67" x="381.494141"/>
      <use xlink:href="#DejaVuSans-20" x="444.970703"/>
      <use xlink:href="#DejaVuSans-47" x="476.757812"/>
      <use xlink:href="#DejaVuSans-4c" x="554.248047"/>
      <use xlink:href="#DejaVuSans-49" x="609.960938"/>
      <use xlink:href="#DejaVuSans-20" x="639.453125"/>
      <use xlink:href="#DejaVuSans-50" x="671.240234"/>
      <use xlink:href="#DejaVuSans-4f" x="731.542969"/>
     </g>
    </g>
    <g id="LineCollection_3">
     <path d="M 173.014205 72.698906 
L 173.014205 63.698906 
" style="fill: none; stroke: #000000"/>
    </g>
    <g id="line2d_19">
     <path d="M 164.014205 68.198906 
L 182.014205 68.198906 
" style="fill: none; stroke-dasharray: 3.7,1.6; stroke-dashoffset: 0; stroke: #000000"/>
    </g>
    <g id="line2d_20">
     <g>
      <use xlink:href="#m308be1e205" x="173.014205" y="68.198906" style="stroke: #000000; stroke-linejoin: miter"/>
     </g>
    </g>
    <g id="text_17">
     <!-- Data 4mg GLI PO±SD (n=23) -->
     <g transform="translate(189.214205 71.348906) scale(0.09 -0.09)">
      <defs>
       <path id="DejaVuSans-44" d="M 1259 4147 
L 1259 519 
L 2022 519 
Q 2988 519 3436 956 
Q 3884 1394 3884 2338 
Q 3884 3275 3436 3711 
Q 2988 4147 2022 4147 
L 1259 4147 
z
M 628 4666 
L 1925 4666 
Q 3281 4666 3915 4102 
Q 4550 3538 4550 2338 
Q 4550 1131 3912 565 
Q 3275 0 1925 0 
L 628 0 
L 628 4666 
z
" transform="scale(0.015625)"/>
       <path id="DejaVuSans-61" d="M 2194 1759 
Q 1497 1759 1228 1600 
Q 959 1441 959 1056 
Q 959 750 1161 570 
Q 1363 391 1709 391 
Q 2188 391 2477 730 
Q 2766 1069 2766 1631 
L 2766 1759 
L 2194 1759 
z
M 3341 1997 
L 3341 0 
L 2766 0 
L 2766 531 
Q 2569 213 2275 61 
Q 1981 -91 1556 -91 
Q 1019 -91 701 211 
Q 384 513 384 1019 
Q 384 1609 779 1909 
Q 1175 2209 1959 2209 
L 2766 2209 
L 2766 2266 
Q 2766 2663 2505 2880 
Q 2244 3097 1772 3097 
Q 1472 3097 1187 3025 
Q 903 2953 641 2809 
L 641 3341 
Q 956 3463 1253 3523 
Q 1550 3584 1831 3584 
Q 2591 3584 2966 3190 
Q 3341 2797 3341 1997 
z
" transform="scale(0.015625)"/>
       <path id="DejaVuSans-74" d="M 1172 4494 
L 1172 3500 
L 2356 3500 
L 2356 3053 
L 1172 3053 
L 1172 1153 
Q 1172 725 1289 603 
Q 1406 481 1766 481 
L 2356 481 
L 2356 0 
L 1766 0 
Q 1100 0 847 248 
Q 594 497 594 1153 
L 594 3053 
L 172 3053 
L 172 3500 
L 594 3500 
L 594 4494 
L 1172 4494 
z
" transform="scale(0.015625)"/>
       <path id="DejaVuSans-b1" d="M 2944 4013 
L 2944 2803 
L 4684 2803 
L 4684 2272 
L 2944 2272 
L 2944 1063 
L 2419 1063 
L 2419 2272 
L 678 2272 
L 678 2803 
L 2419 2803 
L 2419 4013 
L 2944 4013 
z
M 678 531 
L 4684 531 
L 4684 0 
L 678 0 
L 678 531 
z
" transform="scale(0.015625)"/>
       <path id="DejaVuSans-28" d="M 1984 4856 
Q 1566 4138 1362 3434 
Q 1159 2731 1159 2009 
Q 1159 1288 1364 580 
Q 1569 -128 1984 -844 
L 1484 -844 
Q 1016 -109 783 600 
Q 550 1309 550 2009 
Q 550 2706 781 3412 
Q 1013 4119 1484 4856 
L 1984 4856 
z
" transform="scale(0.015625)"/>
       <path id="DejaVuSans-6e" d="M 3513 2113 
L 3513 0 
L 2938 0 
L 2938 2094 
Q 2938 2591 2744 2837 
Q 2550 3084 2163 3084 
Q 1697 3084 1428 2787 
Q 1159 2491 1159 1978 
L 1159 0 
L 581 0 
L 581 3500 
L 1159 3500 
L 1159 2956 
Q 1366 3272 1645 3428 
Q 1925 3584 2291 3584 
Q 2894 3584 3203 3211 
Q 3513 2838 3513 2113 
z
" transform="scale(0.015625)"/>
       <path id="DejaVuSans-3d" d="M 678 2906 
L 4684 2906 
L 4684 2381 
L 678 2381 
L 678 2906 
z
M 678 1631 
L 4684 1631 
L 4684 1100 
L 678 1100 
L 678 1631 
z
" transform="scale(0.015625)"/>
       <path id="DejaVuSans-29" d="M 513 4856 
L 1013 4856 
Q 1481 4119 1714 3412 
Q 1947 2706 1947 2009 
Q 1947 1309 1714 600 
Q 1481 -109 1013 -844 
L 513 -844 
Q 928 -128 1133 580 
Q 1338 1288 1338 2009 
Q 1338 2731 1133 3434 
Q 928 4138 513 4856 
z
" transform="scale(0.015625)"/>
      </defs>
      <use xlink:href="#DejaVuSans-44"/>
      <use xlink:href="#DejaVuSans-61" x="77.001953"/>
      <use xlink:href="#DejaVuSans-74" x="138.28125"/>
      <use xlink:href="#DejaVuSans-61" x="177.490234"/>
      <use xlink:href="#DejaVuSans-20" x="238.769531"/>
      <use xlink:href="#DejaVuSans-34" x="270.556641"/>
      <use xlink:href="#DejaVuSans-6d" x="334.179688"/>
      <use xlink:href="#DejaVuSans-67" x="431.591797"/>
      <use xlink:href="#DejaVuSans-20" x="495.068359"/>
      <use xlink:href="#DejaVuSans-47" x="526.855469"/>
      <use xlink:href="#DejaVuSans-4c" x="604.345703"/>
      <use xlink:href="#DejaVuSans-49" x="660.058594"/>
      <use xlink:href="#DejaVuSans-20" x="689.550781"/>
      <use xlink:href="#DejaVuSans-50" x="721.337891"/>
      <use xlink:href="#DejaVuSans-4f" x="781.640625"/>
      <use xlink:href="#DejaVuSans-b1" x="860.351562"/>
      <use xlink:href="#DejaVuSans-53" x="944.140625"/>
      <use xlink:href="#DejaVuSans-44" x="1007.617188"/>
      <use xlink:href="#DejaVuSans-20" x="1084.619141"/>
      <use xlink:href="#DejaVuSans-28" x="1116.40625"/>
      <use xlink:href="#DejaVuSans-6e" x="1155.419922"/>
      <use xlink:href="#DejaVuSans-3d" x="1218.798828"/>
      <use xlink:href="#DejaVuSans-32" x="1302.587891"/>
      <use xlink:href="#DejaVuSans-33" x="1366.210938"/>
      <use xlink:href="#DejaVuSans-29" x="1429.833984"/>
     </g>
    </g>
    <g id="LineCollection_4">
     <path d="M 173.014205 85.909219 
L 173.014205 76.909219 
" style="fill: none; stroke: #1f77b4"/>
    </g>
    <g id="line2d_21">
     <path d="M 164.014205 81.409219 
L 182.014205 81.409219 
" style="fill: none; stroke-dasharray: 3.7,1.6; stroke-dashoffset: 0; stroke: #1f77b4"/>
    </g>
    <g id="line2d_22">
     <g>
      <use xlink:href="#m6e0e0584ed" x="173.014205" y="81.409219" style="fill: #1f77b4; stroke: #000000; stroke-linejoin: miter"/>
     </g>
    </g>
    <g id="text_18">
     <!-- Data 4mg GLI &amp; 50mg GEM PO±SD (n=23) -->
     <g transform="translate(189.214205 84.559219) scale(0.09 -0.09)">
      <defs>
       <path id="DejaVuSans-26" d="M 1556 2509 
Q 1272 2256 1139 2004 
Q 1006 1753 1006 1478 
Q 1006 1022 1337 719 
Q 1669 416 2169 416 
Q 2466 416 2725 514 
Q 2984 613 3213 813 
L 1556 2509 
z
M 1997 2859 
L 3584 1234 
Q 3769 1513 3872 1830 
Q 3975 2147 3994 2503 
L 4575 2503 
Q 4538 2091 4375 1687 
Q 4213 1284 3922 891 
L 4794 0 
L 4006 0 
L 3559 459 
Q 3234 181 2878 45 
Q 2522 -91 2113 -91 
Q 1359 -91 881 339 
Q 403 769 403 1441 
Q 403 1841 612 2192 
Q 822 2544 1241 2853 
Q 1091 3050 1012 3245 
Q 934 3441 934 3628 
Q 934 4134 1281 4442 
Q 1628 4750 2203 4750 
Q 2463 4750 2720 4694 
Q 2978 4638 3244 4525 
L 3244 3956 
Q 2972 4103 2725 4179 
Q 2478 4256 2266 4256 
Q 1938 4256 1733 4082 
Q 1528 3909 1528 3634 
Q 1528 3475 1620 3314 
Q 1713 3153 1997 2859 
z
" transform="scale(0.015625)"/>
       <path id="DejaVuSans-45" d="M 628 4666 
L 3578 4666 
L 3578 4134 
L 1259 4134 
L 1259 2753 
L 3481 2753 
L 3481 2222 
L 1259 2222 
L 1259 531 
L 3634 531 
L 3634 0 
L 628 0 
L 628 4666 
z
" transform="scale(0.015625)"/>
       <path id="DejaVuSans-4d" d="M 628 4666 
L 1569 4666 
L 2759 1491 
L 3956 4666 
L 4897 4666 
L 4897 0 
L 4281 0 
L 4281 4097 
L 3078 897 
L 2444 897 
L 1241 4097 
L 1241 0 
L 628 0 
L 628 4666 
z
" transform="scale(0.015625)"/>
      </defs>
      <use xlink:href="#DejaVuSans-44"/>
      <use xlink:href="#DejaVuSans-61" x="77.001953"/>
      <use xlink:href="#DejaVuSans-74" x="138.28125"/>
      <use xlink:href="#DejaVuSans-61" x="177.490234"/>
      <use xlink:href="#DejaVuSans-20" x="238.769531"/>
      <use xlink:href="#DejaVuSans-34" x="270.556641"/>
      <use xlink:href="#DejaVuSans-6d" x="334.179688"/>
      <use xlink:href="#DejaVuSans-67" x="431.591797"/>
      <use xlink:href="#DejaVuSans-20" x="495.068359"/>
      <use xlink:href="#DejaVuSans-47" x="526.855469"/>
      <use xlink:href="#DejaVuSans-4c" x="604.345703"/>
      <use xlink:href="#DejaVuSans-49" x="660.058594"/>
      <use xlink:href="#DejaVuSans-20" x="689.550781"/>
      <use xlink:href="#DejaVuSans-26" x="721.337891"/>
      <use xlink:href="#DejaVuSans-20" x="799.316406"/>
      <use xlink:href="#DejaVuSans-35" x="831.103516"/>
      <use xlink:href="#DejaVuSans-30" x="894.726562"/>
      <use xlink:href="#DejaVuSans-6d" x="958.349609"/>
      <use xlink:href="#DejaVuSans-67" x="1055.761719"/>
      <use xlink:href="#DejaVuSans-20" x="1119.238281"/>
      <use xlink:href="#DejaVuSans-47" x="1151.025391"/>
      <use xlink:href="#DejaVuSans-45" x="1228.515625"/>
      <use xlink:href="#DejaVuSans-4d" x="1291.699219"/>
      <use xlink:href="#DejaVuSans-20" x="1377.978516"/>
      <use xlink:href="#DejaVuSans-50" x="1409.765625"/>
      <use xlink:href="#DejaVuSans-4f" x="1470.068359"/>
      <use xlink:href="#DejaVuSans-b1" x="1548.779297"/>
      <use xlink:href="#DejaVuSans-53" x="1632.568359"/>
      <use xlink:href="#DejaVuSans-44" x="1696.044922"/>
      <use xlink:href="#DejaVuSans-20" x="1773.046875"/>
      <use xlink:href="#DejaVuSans-28" x="1804.833984"/>
      <use xlink:href="#DejaVuSans-6e" x="1843.847656"/>
      <use xlink:href="#DejaVuSans-3d" x="1907.226562"/>
      <use xlink:href="#DejaVuSans-32" x="1991.015625"/>
      <use xlink:href="#DejaVuSans-33" x="2054.638672"/>
      <use xlink:href="#DejaVuSans-29" x="2118.261719"/>
     </g>
    </g>
   </g>
  </g>
  <g id="axes_2">
   <g id="patch_8">
    <path d="M 493.36517 320.4 
L 833.017344 320.4 
L 833.017344 43.2 
L 493.36517 43.2 
z
" style="fill: #ffffff"/>
   </g>
   <g id="matplotlib.axis_3">
    <g id="xtick_7">
     <g id="line2d_23">
      <g>
       <use xlink:href="#m1f36a98aea" x="508.803905" y="320.4" style="stroke: #000000; stroke-width: 0.8"/>
      </g>
     </g>
     <g id="text_19">
      <!-- 0 -->
      <g transform="translate(504.986405 336.518125) scale(0.12 -0.12)">
       <use xlink:href="#DejaVuSans-30"/>
      </g>
     </g>
    </g>
    <g id="xtick_8">
     <g id="line2d_24">
      <g>
       <use xlink:href="#m1f36a98aea" x="570.558846" y="320.4" style="stroke: #000000; stroke-width: 0.8"/>
      </g>
     </g>
     <g id="text_20">
      <!-- 5 -->
      <g transform="translate(566.741346 336.518125) scale(0.12 -0.12)">
       <use xlink:href="#DejaVuSans-35"/>
      </g>
     </g>
    </g>
    <g id="xtick_9">
     <g id="line2d_25">
      <g>
       <use xlink:href="#m1f36a98aea" x="632.313786" y="320.4" style="stroke: #000000; stroke-width: 0.8"/>
      </g>
     </g>
     <g id="text_21">
      <!-- 10 -->
      <g transform="translate(624.678786 336.518125) scale(0.12 -0.12)">
       <use xlink:href="#DejaVuSans-31"/>
       <use xlink:href="#DejaVuSans-30" x="63.623047"/>
      </g>
     </g>
    </g>
    <g id="xtick_10">
     <g id="line2d_26">
      <g>
       <use xlink:href="#m1f36a98aea" x="694.068727" y="320.4" style="stroke: #000000; stroke-width: 0.8"/>
      </g>
     </g>
     <g id="text_22">
      <!-- 15 -->
      <g transform="translate(686.433727 336.518125) scale(0.12 -0.12)">
       <use xlink:href="#DejaVuSans-31"/>
       <use xlink:href="#DejaVuSans-35" x="63.623047"/>
      </g>
     </g>
    </g>
    <g id="xtick_11">
     <g id="line2d_27">
      <g>
       <use xlink:href="#m1f36a98aea" x="755.823668" y="320.4" style="stroke: #000000; stroke-width: 0.8"/>
      </g>
     </g>
     <g id="text_23">
      <!-- 20 -->
      <g transform="translate(748.188668 336.518125) scale(0.12 -0.12)">
       <use xlink:href="#DejaVuSans-32"/>
       <use xlink:href="#DejaVuSans-30" x="63.623047"/>
      </g>
     </g>
    </g>
    <g id="xtick_12">
     <g id="line2d_28">
      <g>
       <use xlink:href="#m1f36a98aea" x="817.578609" y="320.4" style="stroke: #000000; stroke-width: 0.8"/>
      </g>
     </g>
     <g id="text_24">
      <!-- 25 -->
      <g transform="translate(809.943609 336.518125) scale(0.12 -0.12)">
       <use xlink:href="#DejaVuSans-32"/>
       <use xlink:href="#DejaVuSans-35" x="63.623047"/>
      </g>
     </g>
    </g>
    <g id="text_25">
     <!-- Time [hr] -->
     <g transform="translate(624.097507 354.411406) scale(0.15 -0.15)">
      <use xlink:href="#DejaVuSans-Bold-54"/>
      <use xlink:href="#DejaVuSans-Bold-69" x="68.212891"/>
      <use xlink:href="#DejaVuSans-Bold-6d" x="102.490234"/>
      <use xlink:href="#DejaVuSans-Bold-65" x="206.689453"/>
      <use xlink:href="#DejaVuSans-Bold-20" x="274.511719"/>
      <use xlink:href="#DejaVuSans-Bold-5b" x="309.326172"/>
      <use xlink:href="#DejaVuSans-Bold-68" x="355.029297"/>
      <use xlink:href="#DejaVuSans-Bold-72" x="426.220703"/>
      <use xlink:href="#DejaVuSans-Bold-5d" x="475.537109"/>
     </g>
    </g>
   </g>
   <g id="matplotlib.axis_4">
    <g id="ytick_8">
     <g id="line2d_29">
      <g>
       <use xlink:href="#mac943dc783" x="493.36517" y="306.149278" style="stroke: #000000; stroke-width: 0.8"/>
      </g>
     </g>
     <g id="text_26">
      <!-- 0.00 -->
      <g transform="translate(459.64642 310.708341) scale(0.12 -0.12)">
       <use xlink:href="#DejaVuSans-30"/>
       <use xlink:href="#DejaVuSans-2e" x="63.623047"/>
       <use xlink:href="#DejaVuSans-30" x="95.410156"/>
       <use xlink:href="#DejaVuSans-30" x="159.033203"/>
      </g>
     </g>
    </g>
    <g id="ytick_9">
     <g id="line2d_30">
      <g>
       <use xlink:href="#mac943dc783" x="493.36517" y="268.980894" style="stroke: #000000; stroke-width: 0.8"/>
      </g>
     </g>
     <g id="text_27">
      <!-- 0.02 -->
      <g transform="translate(459.64642 273.539957) scale(0.12 -0.12)">
       <use xlink:href="#DejaVuSans-30"/>
       <use xlink:href="#DejaVuSans-2e" x="63.623047"/>
       <use xlink:href="#DejaVuSans-30" x="95.410156"/>
       <use xlink:href="#DejaVuSans-32" x="159.033203"/>
      </g>
     </g>
    </g>
    <g id="ytick_10">
     <g id="line2d_31">
      <g>
       <use xlink:href="#mac943dc783" x="493.36517" y="231.81251" style="stroke: #000000; stroke-width: 0.8"/>
      </g>
     </g>
     <g id="text_28">
      <!-- 0.04 -->
      <g transform="translate(459.64642 236.371572) scale(0.12 -0.12)">
       <use xlink:href="#DejaVuSans-30"/>
       <use xlink:href="#DejaVuSans-2e" x="63.623047"/>
       <use xlink:href="#DejaVuSans-30" x="95.410156"/>
       <use xlink:href="#DejaVuSans-34" x="159.033203"/>
      </g>
     </g>
    </g>
    <g id="ytick_11">
     <g id="line2d_32">
      <g>
       <use xlink:href="#mac943dc783" x="493.36517" y="194.644125" style="stroke: #000000; stroke-width: 0.8"/>
      </g>
     </g>
     <g id="text_29">
      <!-- 0.06 -->
      <g transform="translate(459.64642 199.203188) scale(0.12 -0.12)">
       <use xlink:href="#DejaVuSans-30"/>
       <use xlink:href="#DejaVuSans-2e" x="63.623047"/>
       <use xlink:href="#DejaVuSans-30" x="95.410156"/>
       <use xlink:href="#DejaVuSans-36" x="159.033203"/>
      </g>
     </g>
    </g>
    <g id="ytick_12">
     <g id="line2d_33">
      <g>
       <use xlink:href="#mac943dc783" x="493.36517" y="157.475741" style="stroke: #000000; stroke-width: 0.8"/>
      </g>
     </g>
     <g id="text_30">
      <!-- 0.08 -->
      <g transform="translate(459.64642 162.034804) scale(0.12 -0.12)">
       <defs>
        <path id="DejaVuSans-38" d="M 2034 2216 
Q 1584 2216 1326 1975 
Q 1069 1734 1069 1313 
Q 1069 891 1326 650 
Q 1584 409 2034 409 
Q 2484 409 2743 651 
Q 3003 894 3003 1313 
Q 3003 1734 2745 1975 
Q 2488 2216 2034 2216 
z
M 1403 2484 
Q 997 2584 770 2862 
Q 544 3141 544 3541 
Q 544 4100 942 4425 
Q 1341 4750 2034 4750 
Q 2731 4750 3128 4425 
Q 3525 4100 3525 3541 
Q 3525 3141 3298 2862 
Q 3072 2584 2669 2484 
Q 3125 2378 3379 2068 
Q 3634 1759 3634 1313 
Q 3634 634 3220 271 
Q 2806 -91 2034 -91 
Q 1263 -91 848 271 
Q 434 634 434 1313 
Q 434 1759 690 2068 
Q 947 2378 1403 2484 
z
M 1172 3481 
Q 1172 3119 1398 2916 
Q 1625 2713 2034 2713 
Q 2441 2713 2670 2916 
Q 2900 3119 2900 3481 
Q 2900 3844 2670 4047 
Q 2441 4250 2034 4250 
Q 1625 4250 1398 4047 
Q 1172 3844 1172 3481 
z
" transform="scale(0.015625)"/>
       </defs>
       <use xlink:href="#DejaVuSans-30"/>
       <use xlink:href="#DejaVuSans-2e" x="63.623047"/>
       <use xlink:href="#DejaVuSans-30" x="95.410156"/>
       <use xlink:href="#DejaVuSans-38" x="159.033203"/>
      </g>
     </g>
    </g>
    <g id="ytick_13">
     <g id="line2d_34">
      <g>
       <use xlink:href="#mac943dc783" x="493.36517" y="120.307357" style="stroke: #000000; stroke-width: 0.8"/>
      </g>
     </g>
     <g id="text_31">
      <!-- 0.10 -->
      <g transform="translate(459.64642 124.866419) scale(0.12 -0.12)">
       <use xlink:href="#DejaVuSans-30"/>
       <use xlink:href="#DejaVuSans-2e" x="63.623047"/>
       <use xlink:href="#DejaVuSans-31" x="95.410156"/>
       <use xlink:href="#DejaVuSans-30" x="159.033203"/>
      </g>
     </g>
    </g>
    <g id="ytick_14">
     <g id="line2d_35">
      <g>
       <use xlink:href="#mac943dc783" x="493.36517" y="83.138973" style="stroke: #000000; stroke-width: 0.8"/>
      </g>
     </g>
     <g id="text_32">
      <!-- 0.12 -->
      <g transform="translate(459.64642 87.698035) scale(0.12 -0.12)">
       <use xlink:href="#DejaVuSans-30"/>
       <use xlink:href="#DejaVuSans-2e" x="63.623047"/>
       <use xlink:href="#DejaVuSans-31" x="95.410156"/>
       <use xlink:href="#DejaVuSans-32" x="159.033203"/>
      </g>
     </g>
    </g>
    <g id="ytick_15">
     <g id="line2d_36">
      <g>
       <use xlink:href="#mac943dc783" x="493.36517" y="45.970588" style="stroke: #000000; stroke-width: 0.8"/>
      </g>
     </g>
     <g id="text_33">
      <!-- 0.14 -->
      <g transform="translate(459.64642 50.529651) scale(0.12 -0.12)">
       <use xlink:href="#DejaVuSans-30"/>
       <use xlink:href="#DejaVuSans-2e" x="63.623047"/>
       <use xlink:href="#DejaVuSans-31" x="95.410156"/>
       <use xlink:href="#DejaVuSans-34" x="159.033203"/>
      </g>
     </g>
    </g>
    <g id="text_34">
     <!-- M1 Plasma [µM] -->
     <g transform="translate(452.510482 250.011328) rotate(-90) scale(0.15 -0.15)">
      <defs>
       <path id="DejaVuSans-Bold-31" d="M 750 831 
L 1813 831 
L 1813 3847 
L 722 3622 
L 722 4441 
L 1806 4666 
L 2950 4666 
L 2950 831 
L 4013 831 
L 4013 0 
L 750 0 
L 750 831 
z
" transform="scale(0.015625)"/>
      </defs>
      <use xlink:href="#DejaVuSans-Bold-4d"/>
      <use xlink:href="#DejaVuSans-Bold-31" x="99.511719"/>
      <use xlink:href="#DejaVuSans-Bold-20" x="169.091797"/>
      <use xlink:href="#DejaVuSans-Bold-50" x="203.90625"/>
      <use xlink:href="#DejaVuSans-Bold-6c" x="277.197266"/>
      <use xlink:href="#DejaVuSans-Bold-61" x="311.474609"/>
      <use xlink:href="#DejaVuSans-Bold-73" x="378.955078"/>
      <use xlink:href="#DejaVuSans-Bold-6d" x="438.476562"/>
      <use xlink:href="#DejaVuSans-Bold-61" x="542.675781"/>
      <use xlink:href="#DejaVuSans-Bold-20" x="610.15625"/>
      <use xlink:href="#DejaVuSans-Bold-5b" x="644.970703"/>
      <use xlink:href="#DejaVuSans-Bold-b5" x="690.673828"/>
      <use xlink:href="#DejaVuSans-Bold-4d" x="764.257812"/>
      <use xlink:href="#DejaVuSans-Bold-5d" x="863.769531"/>
     </g>
    </g>
   </g>
   <g id="LineCollection_5">
    <path clip-path="url(#pe813509ef1)" style="fill: none; stroke: #000000"/>
    <path d="M 514.979399 307.8 
L 514.979399 299.876536 
" clip-path="url(#pe813509ef1)" style="fill: none; stroke: #000000"/>
    <path d="M 521.154893 304.902066 
L 521.154893 273.648401 
" clip-path="url(#pe813509ef1)" style="fill: none; stroke: #000000"/>
    <path d="M 527.330387 296.208265 
L 527.330387 247.86046 
" clip-path="url(#pe813509ef1)" style="fill: none; stroke: #000000"/>
    <path d="M 533.505881 290.008888 
L 533.505881 212.241553 
" clip-path="url(#pe813509ef1)" style="fill: none; stroke: #000000"/>
    <path d="M 545.856869 255.857289 
L 545.856869 180.364282 
" clip-path="url(#pe813509ef1)" style="fill: none; stroke: #000000"/>
    <path d="M 558.207858 248.080556 
L 558.207858 173.467933 
" clip-path="url(#pe813509ef1)" style="fill: none; stroke: #000000"/>
    <path d="M 570.558846 252.922673 
L 570.558846 205.308522 
" clip-path="url(#pe813509ef1)" style="fill: none; stroke: #000000"/>
    <path d="M 582.909834 260.442628 
L 582.909834 212.461649 
" clip-path="url(#pe813509ef1)" style="fill: none; stroke: #000000"/>
    <path d="M 607.61181 272.401189 
L 607.61181 244.522333 
" clip-path="url(#pe813509ef1)" style="fill: none; stroke: #000000"/>
    <path d="M 632.313786 290.632494 
L 632.313786 267.375659 
" clip-path="url(#pe813509ef1)" style="fill: none; stroke: #000000"/>
    <path d="M 657.015763 298.409227 
L 657.015763 280.14124 
" clip-path="url(#pe813509ef1)" style="fill: none; stroke: #000000"/>
    <path d="M 681.717739 300.390094 
L 681.717739 289.165186 
" clip-path="url(#pe813509ef1)" style="fill: none; stroke: #000000"/>
    <path d="M 805.22762 304.461874 
L 805.22762 299.032833 
" clip-path="url(#pe813509ef1)" style="fill: none; stroke: #000000"/>
   </g>
   <g id="LineCollection_6">
    <path clip-path="url(#pe813509ef1)" style="fill: none; stroke: #1f77b4"/>
    <path d="M 514.979399 307.579904 
L 514.979399 299.656439 
" clip-path="url(#pe813509ef1)" style="fill: none; stroke: #1f77b4"/>
    <path d="M 521.154893 304.461874 
L 521.154893 273.868498 
" clip-path="url(#pe813509ef1)" style="fill: none; stroke: #1f77b4"/>
    <path d="M 527.330387 291.476196 
L 527.330387 257.948204 
" clip-path="url(#pe813509ef1)" style="fill: none; stroke: #1f77b4"/>
    <path d="M 533.505881 276.803114 
L 533.505881 228.602039 
" clip-path="url(#pe813509ef1)" style="fill: none; stroke: #1f77b4"/>
    <path d="M 545.856869 257.067819 
L 545.856869 191.699238 
" clip-path="url(#pe813509ef1)" style="fill: none; stroke: #1f77b4"/>
    <path d="M 558.207858 241.404304 
L 558.207858 168.845913 
" clip-path="url(#pe813509ef1)" style="fill: none; stroke: #1f77b4"/>
    <path d="M 570.558846 244.962526 
L 570.558846 202.190492 
" clip-path="url(#pe813509ef1)" style="fill: none; stroke: #1f77b4"/>
    <path d="M 582.909834 252.665894 
L 582.909834 207.839628 
" clip-path="url(#pe813509ef1)" style="fill: none; stroke: #1f77b4"/>
    <path d="M 607.61181 276.583018 
L 607.61181 244.302237 
" clip-path="url(#pe813509ef1)" style="fill: none; stroke: #1f77b4"/>
    <path d="M 632.313786 290.192301 
L 632.313786 267.155563 
" clip-path="url(#pe813509ef1)" style="fill: none; stroke: #1f77b4"/>
    <path d="M 657.015763 297.125333 
L 657.015763 279.957827 
" clip-path="url(#pe813509ef1)" style="fill: none; stroke: #1f77b4"/>
    <path d="M 681.717739 300.463459 
L 681.717739 289.165186 
" clip-path="url(#pe813509ef1)" style="fill: none; stroke: #1f77b4"/>
    <path d="M 805.22762 303.874951 
L 805.22762 298.812737 
" clip-path="url(#pe813509ef1)" style="fill: none; stroke: #1f77b4"/>
   </g>
   <g id="line2d_37">
    <path d="M 508.803905 306.149278 
L 510.039004 306.087261 
L 510.656553 305.909872 
L 511.274103 305.540081 
L 511.891652 304.912738 
L 512.509201 303.972733 
L 513.126751 302.67677 
L 513.7443 300.993756 
L 514.36185 298.904308 
L 515.596948 293.480668 
L 516.832047 286.440097 
L 518.067146 277.921795 
L 519.919794 262.828492 
L 521.772443 245.673854 
L 524.86019 214.653386 
L 529.183035 171.146917 
L 531.653233 148.231197 
L 534.123431 127.555123 
L 535.976079 113.735329 
L 537.828727 101.450076 
L 539.681375 90.726985 
L 541.534024 81.557302 
L 543.386672 73.904682 
L 544.621771 69.618367 
L 545.856869 65.960714 
L 547.091968 62.908816 
L 548.327067 60.438044 
L 549.562166 58.522506 
L 550.797265 57.135437 
L 552.032364 56.249527 
L 553.267462 55.8372 
L 554.502561 55.870853 
L 555.73766 56.323047 
L 556.972759 57.16668 
L 558.207858 58.375113 
L 559.442956 59.922292 
L 560.678055 61.782831 
L 562.530703 65.107507 
L 564.383352 69.002262 
L 566.236 73.391731 
L 568.706198 79.892211 
L 571.793945 88.84377 
L 575.499241 100.445211 
L 581.057186 118.796331 
L 590.320427 149.474002 
L 595.260822 164.962424 
L 599.583668 177.709203 
L 603.288964 187.946774 
L 606.994261 197.507822 
L 610.699557 206.376746 
L 613.787304 213.23983 
L 616.875051 219.631925 
L 619.962798 225.566591 
L 623.050545 231.06122 
L 626.138292 236.135977 
L 629.226039 240.81291 
L 632.313786 245.115212 
L 635.401533 249.066609 
L 638.489281 252.690877 
L 641.577028 256.011454 
L 644.664775 259.051145 
L 648.370071 262.358841 
L 652.075367 265.329602 
L 655.780664 267.997062 
L 659.48596 270.392379 
L 663.191257 272.544187 
L 667.514103 274.781612 
L 671.836948 276.76048 
L 676.159794 278.513983 
L 681.10019 280.279443 
L 686.658134 282.006518 
L 692.216079 283.503426 
L 698.391573 284.943371 
L 705.184616 286.305722 
L 713.212759 287.677623 
L 722.476 289.01298 
L 732.97434 290.286637 
L 745.325328 291.548713 
L 760.146514 292.825914 
L 778.055447 294.131905 
L 799.669676 295.471189 
L 817.578609 296.438013 
L 817.578609 296.438013 
" clip-path="url(#pe813509ef1)" style="fill: none; stroke: #000000; stroke-width: 2; stroke-linecap: square"/>
   </g>
   <g id="line2d_38">
    <path d="M 508.803905 306.149278 
L 514.979399 303.838268 
L 521.154893 289.275234 
L 527.330387 272.034362 
L 533.505881 251.12522 
L 545.856869 218.110786 
L 558.207858 210.774245 
L 570.558846 229.115597 
L 582.909834 236.452138 
L 607.61181 258.461761 
L 632.313786 279.004076 
L 657.015763 289.275234 
L 681.717739 294.77764 
L 805.22762 301.747354 
" clip-path="url(#pe813509ef1)" style="fill: none; stroke-dasharray: 3.7,1.6; stroke-dashoffset: 0; stroke: #000000"/>
    <g clip-path="url(#pe813509ef1)">
     <use xlink:href="#m308be1e205" x="508.803905" y="306.149278" style="stroke: #000000; stroke-linejoin: miter"/>
     <use xlink:href="#m308be1e205" x="514.979399" y="303.838268" style="stroke: #000000; stroke-linejoin: miter"/>
     <use xlink:href="#m308be1e205" x="521.154893" y="289.275234" style="stroke: #000000; stroke-linejoin: miter"/>
     <use xlink:href="#m308be1e205" x="527.330387" y="272.034362" style="stroke: #000000; stroke-linejoin: miter"/>
     <use xlink:href="#m308be1e205" x="533.505881" y="251.12522" style="stroke: #000000; stroke-linejoin: miter"/>
     <use xlink:href="#m308be1e205" x="545.856869" y="218.110786" style="stroke: #000000; stroke-linejoin: miter"/>
     <use xlink:href="#m308be1e205" x="558.207858" y="210.774245" style="stroke: #000000; stroke-linejoin: miter"/>
     <use xlink:href="#m308be1e205" x="570.558846" y="229.115597" style="stroke: #000000; stroke-linejoin: miter"/>
     <use xlink:href="#m308be1e205" x="582.909834" y="236.452138" style="stroke: #000000; stroke-linejoin: miter"/>
     <use xlink:href="#m308be1e205" x="607.61181" y="258.461761" style="stroke: #000000; stroke-linejoin: miter"/>
     <use xlink:href="#m308be1e205" x="632.313786" y="279.004076" style="stroke: #000000; stroke-linejoin: miter"/>
     <use xlink:href="#m308be1e205" x="657.015763" y="289.275234" style="stroke: #000000; stroke-linejoin: miter"/>
     <use xlink:href="#m308be1e205" x="681.717739" y="294.77764" style="stroke: #000000; stroke-linejoin: miter"/>
     <use xlink:href="#m308be1e205" x="805.22762" y="301.747354" style="stroke: #000000; stroke-linejoin: miter"/>
    </g>
   </g>
   <g id="line2d_39">
    <path d="M 508.803905 306.149278 
L 514.979399 303.618172 
L 521.154893 289.165186 
L 527.330387 274.7122 
L 533.505881 252.702577 
L 545.856869 224.383528 
L 558.207858 205.125108 
L 570.558846 223.576509 
L 582.909834 230.252761 
L 607.61181 260.442628 
L 632.313786 278.673932 
L 657.015763 288.54158 
L 681.717739 294.814322 
L 805.22762 301.343844 
" clip-path="url(#pe813509ef1)" style="fill: none; stroke-dasharray: 3.7,1.6; stroke-dashoffset: 0; stroke: #1f77b4"/>
    <g clip-path="url(#pe813509ef1)">
     <use xlink:href="#m6e0e0584ed" x="508.803905" y="306.149278" style="fill: #1f77b4; stroke: #000000; stroke-linejoin: miter"/>
     <use xlink:href="#m6e0e0584ed" x="514.979399" y="303.618172" style="fill: #1f77b4; stroke: #000000; stroke-linejoin: miter"/>
     <use xlink:href="#m6e0e0584ed" x="521.154893" y="289.165186" style="fill: #1f77b4; stroke: #000000; stroke-linejoin: miter"/>
     <use xlink:href="#m6e0e0584ed" x="527.330387" y="274.7122" style="fill: #1f77b4; stroke: #000000; stroke-linejoin: miter"/>
     <use xlink:href="#m6e0e0584ed" x="533.505881" y="252.702577" style="fill: #1f77b4; stroke: #000000; stroke-linejoin: miter"/>
     <use xlink:href="#m6e0e0584ed" x="545.856869" y="224.383528" style="fill: #1f77b4; stroke: #000000; stroke-linejoin: miter"/>
     <use xlink:href="#m6e0e0584ed" x="558.207858" y="205.125108" style="fill: #1f77b4; stroke: #000000; stroke-linejoin: miter"/>
     <use xlink:href="#m6e0e0584ed" x="570.558846" y="223.576509" style="fill: #1f77b4; stroke: #000000; stroke-linejoin: miter"/>
     <use xlink:href="#m6e0e0584ed" x="582.909834" y="230.252761" style="fill: #1f77b4; stroke: #000000; stroke-linejoin: miter"/>
     <use xlink:href="#m6e0e0584ed" x="607.61181" y="260.442628" style="fill: #1f77b4; stroke: #000000; stroke-linejoin: miter"/>
     <use xlink:href="#m6e0e0584ed" x="632.313786" y="278.673932" style="fill: #1f77b4; stroke: #000000; stroke-linejoin: miter"/>
     <use xlink:href="#m6e0e0584ed" x="657.015763" y="288.54158" style="fill: #1f77b4; stroke: #000000; stroke-linejoin: miter"/>
     <use xlink:href="#m6e0e0584ed" x="681.717739" y="294.814322" style="fill: #1f77b4; stroke: #000000; stroke-linejoin: miter"/>
     <use xlink:href="#m6e0e0584ed" x="805.22762" y="301.343844" style="fill: #1f77b4; stroke: #000000; stroke-linejoin: miter"/>
    </g>
   </g>
   <g id="patch_9">
    <path d="M 493.36517 320.4 
L 493.36517 43.2 
" style="fill: none; stroke: #000000; stroke-width: 0.8; stroke-linejoin: miter; stroke-linecap: square"/>
   </g>
   <g id="patch_10">
    <path d="M 833.017344 320.4 
L 833.017344 43.2 
" style="fill: none; stroke: #000000; stroke-width: 0.8; stroke-linejoin: miter; stroke-linecap: square"/>
   </g>
   <g id="patch_11">
    <path d="M 493.36517 320.4 
L 833.017344 320.4 
" style="fill: none; stroke: #000000; stroke-width: 0.8; stroke-linejoin: miter; stroke-linecap: square"/>
   </g>
   <g id="patch_12">
    <path d="M 493.36517 43.2 
L 833.017344 43.2 
" style="fill: none; stroke: #000000; stroke-width: 0.8; stroke-linejoin: miter; stroke-linecap: square"/>
   </g>
   <g id="legend_2">
    <g id="patch_13">
     <path d="M 603.762031 90.030937 
L 826.717344 90.030937 
Q 828.517344 90.030937 828.517344 88.230937 
L 828.517344 49.5 
Q 828.517344 47.7 826.717344 47.7 
L 603.762031 47.7 
Q 601.962031 47.7 601.962031 49.5 
L 601.962031 88.230937 
Q 601.962031 90.030937 603.762031 90.030937 
z
" style="fill: #ffffff; opacity: 0.8; stroke: #cccccc; stroke-linejoin: miter"/>
    </g>
    <g id="line2d_40">
     <path d="M 605.562031 54.988594 
L 623.562031 54.988594 
" style="fill: none; stroke: #000000; stroke-width: 2; stroke-linecap: square"/>
    </g>
    <g id="line2d_41"/>
    <g id="text_35">
     <!-- Sim 4mg GLI PO -->
     <g transform="translate(630.762031 58.138594) scale(0.09 -0.09)">
      <use xlink:href="#DejaVuSans-53"/>
      <use xlink:href="#DejaVuSans-69" x="63.476562"/>
      <use xlink:href="#DejaVuSans-6d" x="91.259766"/>
      <use xlink:href="#DejaVuSans-20" x="188.671875"/>
      <use xlink:href="#DejaVuSans-34" x="220.458984"/>
      <use xlink:href="#DejaVuSans-6d" x="284.082031"/>
      <use xlink:href="#DejaVuSans-67" x="381.494141"/>
      <use xlink:href="#DejaVuSans-20" x="444.970703"/>
      <use xlink:href="#DejaVuSans-47" x="476.757812"/>
      <use xlink:href="#DejaVuSans-4c" x="554.248047"/>
      <use xlink:href="#DejaVuSans-49" x="609.960938"/>
      <use xlink:href="#DejaVuSans-20" x="639.453125"/>
      <use xlink:href="#DejaVuSans-50" x="671.240234"/>
      <use xlink:href="#DejaVuSans-4f" x="731.542969"/>
     </g>
    </g>
    <g id="LineCollection_7">
     <path d="M 614.562031 72.698906 
L 614.562031 63.698906 
" style="fill: none; stroke: #000000"/>
    </g>
    <g id="line2d_42">
     <path d="M 605.562031 68.198906 
L 623.562031 68.198906 
" style="fill: none; stroke-dasharray: 3.7,1.6; stroke-dashoffset: 0; stroke: #000000"/>
    </g>
    <g id="line2d_43">
     <g>
      <use xlink:href="#m308be1e205" x="614.562031" y="68.198906" style="stroke: #000000; stroke-linejoin: miter"/>
     </g>
    </g>
    <g id="text_36">
     <!-- Data 4mg GLI PO±SD (n=23) -->
     <g transform="translate(630.762031 71.348906) scale(0.09 -0.09)">
      <use xlink:href="#DejaVuSans-44"/>
      <use xlink:href="#DejaVuSans-61" x="77.001953"/>
      <use xlink:href="#DejaVuSans-74" x="138.28125"/>
      <use xlink:href="#DejaVuSans-61" x="177.490234"/>
      <use xlink:href="#DejaVuSans-20" x="238.769531"/>
      <use xlink:href="#DejaVuSans-34" x="270.556641"/>
      <use xlink:href="#DejaVuSans-6d" x="334.179688"/>
      <use xlink:href="#DejaVuSans-67" x="431.591797"/>
      <use xlink:href="#DejaVuSans-20" x="495.068359"/>
      <use xlink:href="#DejaVuSans-47" x="526.855469"/>
      <use xlink:href="#DejaVuSans-4c" x="604.345703"/>
      <use xlink:href="#DejaVuSans-49" x="660.058594"/>
      <use xlink:href="#DejaVuSans-20" x="689.550781"/>
      <use xlink:href="#DejaVuSans-50" x="721.337891"/>
      <use xlink:href="#DejaVuSans-4f" x="781.640625"/>
      <use xlink:href="#DejaVuSans-b1" x="860.351562"/>
      <use xlink:href="#DejaVuSans-53" x="944.140625"/>
      <use xlink:href="#DejaVuSans-44" x="1007.617188"/>
      <use xlink:href="#DejaVuSans-20" x="1084.619141"/>
      <use xlink:href="#DejaVuSans-28" x="1116.40625"/>
      <use xlink:href="#DejaVuSans-6e" x="1155.419922"/>
      <use xlink:href="#DejaVuSans-3d" x="1218.798828"/>
      <use xlink:href="#DejaVuSans-32" x="1302.587891"/>
      <use xlink:href="#DejaVuSans-33" x="1366.210938"/>
      <use xlink:href="#DejaVuSans-29" x="1429.833984"/>
     </g>
    </g>
    <g id="LineCollection_8">
     <path d="M 614.562031 85.909219 
L 614.562031 76.909219 
" style="fill: none; stroke: #1f77b4"/>
    </g>
    <g id="line2d_44">
     <path d="M 605.562031 81.409219 
L 623.562031 81.409219 
" style="fill: none; stroke-dasharray: 3.7,1.6; stroke-dashoffset: 0; stroke: #1f77b4"/>
    </g>
    <g id="line2d_45">
     <g>
      <use xlink:href="#m6e0e0584ed" x="614.562031" y="81.409219" style="fill: #1f77b4; stroke: #000000; stroke-linejoin: miter"/>
     </g>
    </g>
    <g id="text_37">
     <!-- Data 4mg GLI &amp; 50mg GEM PO±SD (n=23) -->
     <g transform="translate(630.762031 84.559219) scale(0.09 -0.09)">
      <use xlink:href="#DejaVuSans-44"/>
      <use xlink:href="#DejaVuSans-61" x="77.001953"/>
      <use xlink:href="#DejaVuSans-74" x="138.28125"/>
      <use xlink:href="#DejaVuSans-61" x="177.490234"/>
      <use xlink:href="#DejaVuSans-20" x="238.769531"/>
      <use xlink:href="#DejaVuSans-34" x="270.556641"/>
      <use xlink:href="#DejaVuSans-6d" x="334.179688"/>
      <use xlink:href="#DejaVuSans-67" x="431.591797"/>
      <use xlink:href="#DejaVuSans-20" x="495.068359"/>
      <use xlink:href="#DejaVuSans-47" x="526.855469"/>
      <use xlink:href="#DejaVuSans-4c" x="604.345703"/>
      <use xlink:href="#DejaVuSans-49" x="660.058594"/>
      <use xlink:href="#DejaVuSans-20" x="689.550781"/>
      <use xlink:href="#DejaVuSans-26" x="721.337891"/>
      <use xlink:href="#DejaVuSans-20" x="799.316406"/>
      <use xlink:href="#DejaVuSans-35" x="831.103516"/>
      <use xlink:href="#DejaVuSans-30" x="894.726562"/>
      <use xlink:href="#DejaVuSans-6d" x="958.349609"/>
      <use xlink:href="#DejaVuSans-67" x="1055.761719"/>
      <use xlink:href="#DejaVuSans-20" x="1119.238281"/>
      <use xlink:href="#DejaVuSans-47" x="1151.025391"/>
      <use xlink:href="#DejaVuSans-45" x="1228.515625"/>
      <use xlink:href="#DejaVuSans-4d" x="1291.699219"/>
      <use xlink:href="#DejaVuSans-20" x="1377.978516"/>
      <use xlink:href="#DejaVuSans-50" x="1409.765625"/>
      <use xlink:href="#DejaVuSans-4f" x="1470.068359"/>
      <use xlink:href="#DejaVuSans-b1" x="1548.779297"/>
      <use xlink:href="#DejaVuSans-53" x="1632.568359"/>
      <use xlink:href="#DejaVuSans-44" x="1696.044922"/>
      <use xlink:href="#DejaVuSans-20" x="1773.046875"/>
      <use xlink:href="#DejaVuSans-28" x="1804.833984"/>
      <use xlink:href="#DejaVuSans-6e" x="1843.847656"/>
      <use xlink:href="#DejaVuSans-3d" x="1907.226562"/>
      <use xlink:href="#DejaVuSans-32" x="1991.015625"/>
      <use xlink:href="#DejaVuSans-33" x="2054.638672"/>
      <use xlink:href="#DejaVuSans-29" x="2118.261719"/>
     </g>
    </g>
   </g>
  </g>
  <g id="text_38">
   <!-- Choi2014 (healthy, coadmin.) -->
   <g transform="translate(264.137656 22.396875) scale(0.2 -0.2)">
    <defs>
     <path id="DejaVuSans-Bold-43" d="M 4288 256 
Q 3956 84 3597 -3 
Q 3238 -91 2847 -91 
Q 1681 -91 1000 561 
Q 319 1213 319 2328 
Q 319 3447 1000 4098 
Q 1681 4750 2847 4750 
Q 3238 4750 3597 4662 
Q 3956 4575 4288 4403 
L 4288 3438 
Q 3953 3666 3628 3772 
Q 3303 3878 2944 3878 
Q 2300 3878 1931 3465 
Q 1563 3053 1563 2328 
Q 1563 1606 1931 1193 
Q 2300 781 2944 781 
Q 3303 781 3628 887 
Q 3953 994 4288 1222 
L 4288 256 
z
" transform="scale(0.015625)"/>
     <path id="DejaVuSans-Bold-6f" d="M 2203 2784 
Q 1831 2784 1636 2517 
Q 1441 2250 1441 1747 
Q 1441 1244 1636 976 
Q 1831 709 2203 709 
Q 2569 709 2762 976 
Q 2956 1244 2956 1747 
Q 2956 2250 2762 2517 
Q 2569 2784 2203 2784 
z
M 2203 3584 
Q 3106 3584 3614 3096 
Q 4122 2609 4122 1747 
Q 4122 884 3614 396 
Q 3106 -91 2203 -91 
Q 1297 -91 786 396 
Q 275 884 275 1747 
Q 275 2609 786 3096 
Q 1297 3584 2203 3584 
z
" transform="scale(0.015625)"/>
     <path id="DejaVuSans-Bold-32" d="M 1844 884 
L 3897 884 
L 3897 0 
L 506 0 
L 506 884 
L 2209 2388 
Q 2438 2594 2547 2791 
Q 2656 2988 2656 3200 
Q 2656 3528 2436 3728 
Q 2216 3928 1850 3928 
Q 1569 3928 1234 3808 
Q 900 3688 519 3450 
L 519 4475 
Q 925 4609 1322 4679 
Q 1719 4750 2100 4750 
Q 2938 4750 3402 4381 
Q 3866 4013 3866 3353 
Q 3866 2972 3669 2642 
Q 3472 2313 2841 1759 
L 1844 884 
z
" transform="scale(0.015625)"/>
     <path id="DejaVuSans-Bold-30" d="M 2944 2338 
Q 2944 3213 2780 3570 
Q 2616 3928 2228 3928 
Q 1841 3928 1675 3570 
Q 1509 3213 1509 2338 
Q 1509 1453 1675 1090 
Q 1841 728 2228 728 
Q 2613 728 2778 1090 
Q 2944 1453 2944 2338 
z
M 4147 2328 
Q 4147 1169 3647 539 
Q 3147 -91 2228 -91 
Q 1306 -91 806 539 
Q 306 1169 306 2328 
Q 306 3491 806 4120 
Q 1306 4750 2228 4750 
Q 3147 4750 3647 4120 
Q 4147 3491 4147 2328 
z
" transform="scale(0.015625)"/>
     <path id="DejaVuSans-Bold-34" d="M 2356 3675 
L 1038 1722 
L 2356 1722 
L 2356 3675 
z
M 2156 4666 
L 3494 4666 
L 3494 1722 
L 4159 1722 
L 4159 850 
L 3494 850 
L 3494 0 
L 2356 0 
L 2356 850 
L 288 850 
L 288 1881 
L 2156 4666 
z
" transform="scale(0.015625)"/>
     <path id="DejaVuSans-Bold-28" d="M 2413 -844 
L 1484 -844 
Q 1006 -72 778 623 
Q 550 1319 550 2003 
Q 550 2688 779 3389 
Q 1009 4091 1484 4856 
L 2413 4856 
Q 2013 4116 1813 3408 
Q 1613 2700 1613 2009 
Q 1613 1319 1811 609 
Q 2009 -100 2413 -844 
z
" transform="scale(0.015625)"/>
     <path id="DejaVuSans-Bold-74" d="M 1759 4494 
L 1759 3500 
L 2913 3500 
L 2913 2700 
L 1759 2700 
L 1759 1216 
Q 1759 972 1856 886 
Q 1953 800 2241 800 
L 2816 800 
L 2816 0 
L 1856 0 
Q 1194 0 917 276 
Q 641 553 641 1216 
L 641 2700 
L 84 2700 
L 84 3500 
L 641 3500 
L 641 4494 
L 1759 4494 
z
" transform="scale(0.015625)"/>
     <path id="DejaVuSans-Bold-79" d="M 78 3500 
L 1197 3500 
L 2138 1125 
L 2938 3500 
L 4056 3500 
L 2584 -331 
Q 2363 -916 2067 -1148 
Q 1772 -1381 1288 -1381 
L 641 -1381 
L 641 -647 
L 991 -647 
Q 1275 -647 1404 -556 
Q 1534 -466 1606 -231 
L 1638 -134 
L 78 3500 
z
" transform="scale(0.015625)"/>
     <path id="DejaVuSans-Bold-2c" d="M 653 1209 
L 1778 1209 
L 1778 256 
L 1006 -909 
L 341 -909 
L 653 256 
L 653 1209 
z
" transform="scale(0.015625)"/>
     <path id="DejaVuSans-Bold-63" d="M 3366 3391 
L 3366 2478 
Q 3138 2634 2908 2709 
Q 2678 2784 2431 2784 
Q 1963 2784 1702 2511 
Q 1441 2238 1441 1747 
Q 1441 1256 1702 982 
Q 1963 709 2431 709 
Q 2694 709 2930 787 
Q 3166 866 3366 1019 
L 3366 103 
Q 3103 6 2833 -42 
Q 2563 -91 2291 -91 
Q 1344 -91 809 395 
Q 275 881 275 1747 
Q 275 2613 809 3098 
Q 1344 3584 2291 3584 
Q 2566 3584 2833 3536 
Q 3100 3488 3366 3391 
z
" transform="scale(0.015625)"/>
     <path id="DejaVuSans-Bold-6e" d="M 4056 2131 
L 4056 0 
L 2931 0 
L 2931 347 
L 2931 1631 
Q 2931 2084 2911 2256 
Q 2891 2428 2841 2509 
Q 2775 2619 2662 2680 
Q 2550 2741 2406 2741 
Q 2056 2741 1856 2470 
Q 1656 2200 1656 1722 
L 1656 0 
L 538 0 
L 538 3500 
L 1656 3500 
L 1656 2988 
Q 1909 3294 2193 3439 
Q 2478 3584 2822 3584 
Q 3428 3584 3742 3212 
Q 4056 2841 4056 2131 
z
" transform="scale(0.015625)"/>
     <path id="DejaVuSans-Bold-2e" d="M 653 1209 
L 1778 1209 
L 1778 0 
L 653 0 
L 653 1209 
z
" transform="scale(0.015625)"/>
     <path id="DejaVuSans-Bold-29" d="M 513 -844 
Q 913 -100 1113 609 
Q 1313 1319 1313 2009 
Q 1313 2700 1113 3408 
Q 913 4116 513 4856 
L 1441 4856 
Q 1916 4091 2145 3389 
Q 2375 2688 2375 2003 
Q 2375 1319 2147 623 
Q 1919 -72 1441 -844 
L 513 -844 
z
" transform="scale(0.015625)"/>
    </defs>
    <use xlink:href="#DejaVuSans-Bold-43"/>
    <use xlink:href="#DejaVuSans-Bold-68" x="73.388672"/>
    <use xlink:href="#DejaVuSans-Bold-6f" x="144.580078"/>
    <use xlink:href="#DejaVuSans-Bold-69" x="213.28125"/>
    <use xlink:href="#DejaVuSans-Bold-32" x="247.558594"/>
    <use xlink:href="#DejaVuSans-Bold-30" x="317.138672"/>
    <use xlink:href="#DejaVuSans-Bold-31" x="386.71875"/>
    <use xlink:href="#DejaVuSans-Bold-34" x="456.298828"/>
    <use xlink:href="#DejaVuSans-Bold-20" x="525.878906"/>
    <use xlink:href="#DejaVuSans-Bold-28" x="560.693359"/>
    <use xlink:href="#DejaVuSans-Bold-68" x="606.396484"/>
    <use xlink:href="#DejaVuSans-Bold-65" x="677.587891"/>
    <use xlink:href="#DejaVuSans-Bold-61" x="745.410156"/>
    <use xlink:href="#DejaVuSans-Bold-6c" x="812.890625"/>
    <use xlink:href="#DejaVuSans-Bold-74" x="847.167969"/>
    <use xlink:href="#DejaVuSans-Bold-68" x="894.970703"/>
    <use xlink:href="#DejaVuSans-Bold-79" x="966.162109"/>
    <use xlink:href="#DejaVuSans-Bold-2c" x="1023.597656"/>
    <use xlink:href="#DejaVuSans-Bold-20" x="1061.585938"/>
    <use xlink:href="#DejaVuSans-Bold-63" x="1096.400391"/>
    <use xlink:href="#DejaVuSans-Bold-6f" x="1155.677734"/>
    <use xlink:href="#DejaVuSans-Bold-61" x="1224.378906"/>
    <use xlink:href="#DejaVuSans-Bold-64" x="1291.859375"/>
    <use xlink:href="#DejaVuSans-Bold-6d" x="1363.441406"/>
    <use xlink:href="#DejaVuSans-Bold-69" x="1467.640625"/>
    <use xlink:href="#DejaVuSans-Bold-6e" x="1501.917969"/>
    <use xlink:href="#DejaVuSans-Bold-2e" x="1573.109375"/>
    <use xlink:href="#DejaVuSans-Bold-29" x="1611.097656"/>
   </g>
  </g>
 </g>
 <defs>
  <clipPath id="pd1e83b7b68">
   <rect x="51.817344" y="43.2" width="339.652174" height="277.2"/>
  </clipPath>
  <clipPath id="pe813509ef1">
   <rect x="493.36517" y="43.2" width="339.652174" height="277.2"/>
  </clipPath>
 </defs>
</svg>
